<svg xmlns="http://www.w3.org/2000/svg" width="25" height="25" viewBox="0 0 25 25">
  <g id="Group_403" data-name="Group 403" transform="translate(-785 -2454)">
    <path id="user-tie" d="M8.86,10.126A5.063,5.063,0,1,0,3.8,5.063,5.063,5.063,0,0,0,8.86,10.126Zm3.789,1.289-1.891,7.571L9.493,13.607l1.266-2.215h-3.8l1.266,2.215L6.962,18.986,5.071,11.415A5.307,5.307,0,0,0,0,16.708v1.645a1.9,1.9,0,0,0,1.9,1.9H15.822a1.9,1.9,0,0,0,1.9-1.9V16.708a5.307,5.307,0,0,0-5.071-5.292Z" transform="translate(789 2456)" fill="#004186"/>
    <rect id="Rectangle_273" data-name="Rectangle 273" width="25" height="25" transform="translate(785 2454)" fill="none"/>
  </g>
</svg>
