<?xml version="1.0" encoding="UTF-8"?><svg xmlns="http://www.w3.org/2000/svg" viewBox="0 0 800 260"><defs><style>.cls-1{fill:#0071bc;}.cls-2{fill:#999;}.cls-3{fill:#98d5f4;}.cls-4{fill:#333;}.cls-5{fill:none;stroke:gray;stroke-miterlimit:10;}</style></defs><g id="_021"><line class="cls-5" x1="324.5" y1="225" x2="324.5" y2="19"/><g><rect class="cls-3" x="324.01" y="125.41" width="202.66" height="65.59"/><rect class="cls-1" x="324.01" y="52.54" width="303.99" height="65.59"/></g></g><g id="Numbers"><g><path d="M664.02,98.41h-4.47v-10.01c0-.23,0-.56,.01-1.01,0-.45,.02-.93,.03-1.43,0-.5,.02-.95,.04-1.35-.14,.17-.33,.38-.57,.61-.24,.23-.47,.44-.68,.61l-2.13,1.74-2.21-2.76,6.16-4.96h3.82v18.56Z"/><path d="M675.28,79.61c1.14,0,2.17,.16,3.08,.49,.91,.33,1.63,.83,2.17,1.49,.54,.67,.81,1.5,.81,2.48,0,1.13-.31,2.05-.92,2.77-.62,.72-1.4,1.3-2.35,1.76,.62,.35,1.23,.75,1.81,1.2,.58,.45,1.06,.98,1.44,1.6,.38,.62,.57,1.33,.57,2.14,0,1.53-.58,2.76-1.73,3.71-1.15,.95-2.79,1.42-4.9,1.42s-3.86-.46-4.97-1.38c-1.11-.92-1.66-2.14-1.66-3.67,0-1.28,.33-2.3,1-3.05s1.5-1.37,2.48-1.86c-.8-.52-1.48-1.15-2.05-1.88-.57-.74-.86-1.66-.86-2.77,0-.97,.27-1.79,.82-2.46,.55-.67,1.28-1.17,2.2-1.49,.92-.33,1.94-.49,3.07-.49Zm-2.57,13.78c0,.61,.21,1.1,.64,1.48,.42,.38,1.04,.57,1.86,.57,.88,0,1.54-.18,1.96-.55s.64-.84,.64-1.43c0-.43-.12-.82-.38-1.16-.25-.34-.56-.63-.92-.88-.36-.25-.7-.47-1.01-.66l-.34-.21c-.71,.35-1.3,.75-1.75,1.2-.46,.45-.69,1-.69,1.64Zm2.55-10.58c-.54,0-.99,.15-1.35,.44-.36,.29-.55,.69-.55,1.2,0,.54,.19,.99,.56,1.35,.37,.36,.82,.68,1.34,.94,.49-.23,.93-.51,1.33-.86,.4-.35,.6-.82,.6-1.43,0-.5-.19-.9-.56-1.2-.37-.29-.83-.44-1.37-.44Z"/><path d="M687.94,79.58c1.46,0,2.59,.51,3.41,1.52,.81,1.01,1.22,2.44,1.22,4.28s-.38,3.27-1.14,4.3c-.76,1.03-1.92,1.55-3.48,1.55-1.42,0-2.53-.52-3.33-1.55-.8-1.03-1.2-2.46-1.2-4.3s.37-3.26,1.12-4.28c.75-1.01,1.88-1.52,3.41-1.52Zm.05,2.86c-.4,0-.68,.25-.84,.75-.17,.5-.25,1.24-.25,2.21s.08,1.72,.25,2.24c.17,.52,.45,.78,.84,.78s.68-.26,.85-.78c.16-.52,.25-1.26,.25-2.24s-.08-1.71-.25-2.21c-.17-.5-.45-.75-.85-.75Zm13.57-2.6l-10.3,18.56h-3.38l10.3-18.56h3.38Zm-.1,7.15c1.46,0,2.59,.51,3.41,1.52,.81,1.01,1.22,2.44,1.22,4.28s-.38,3.27-1.14,4.3-1.92,1.55-3.48,1.55c-1.42,0-2.53-.52-3.33-1.55-.8-1.03-1.2-2.46-1.2-4.3s.37-3.26,1.12-4.28c.75-1.01,1.88-1.52,3.41-1.52Zm.05,2.83c-.4,0-.68,.26-.84,.78-.17,.52-.25,1.26-.25,2.21s.08,1.69,.25,2.21c.16,.52,.45,.78,.84,.78,.73,0,1.09-1,1.09-2.99s-.36-2.99-1.09-2.99Z"/></g><g><path d="M664.02,171.41h-4.47v-10.01c0-.23,0-.56,.01-1.01,0-.45,.02-.93,.03-1.43,0-.5,.02-.95,.04-1.35-.14,.17-.33,.38-.57,.61-.24,.23-.47,.44-.68,.61l-2.13,1.74-2.21-2.76,6.16-4.96h3.82v18.56Z"/><path d="M681.85,171.41h-13.21v-2.99l4.6-4.65c.94-.97,1.68-1.77,2.24-2.39s.95-1.17,1.18-1.65c.23-.48,.35-.98,.35-1.52,0-.66-.2-1.14-.58-1.44-.39-.3-.88-.46-1.47-.46-.66,0-1.3,.17-1.94,.49-.63,.33-1.32,.81-2.07,1.43l-2.42-2.83c.54-.48,1.11-.94,1.72-1.36,.61-.42,1.32-.77,2.14-1.04,.82-.27,1.82-.4,2.98-.4,1.25,0,2.32,.22,3.22,.66s1.59,1.04,2.08,1.79c.48,.75,.73,1.62,.73,2.59,0,1.04-.2,1.99-.6,2.83-.4,.85-.99,1.69-1.77,2.52-.78,.83-1.73,1.77-2.86,2.81l-1.92,1.77v.16h7.59v3.69Z"/><path d="M687.94,152.58c1.46,0,2.59,.51,3.41,1.52,.81,1.01,1.22,2.44,1.22,4.28s-.38,3.27-1.14,4.3c-.76,1.03-1.92,1.55-3.48,1.55-1.42,0-2.53-.52-3.33-1.55-.8-1.03-1.2-2.46-1.2-4.3s.37-3.26,1.12-4.28c.75-1.01,1.88-1.52,3.41-1.52Zm.05,2.86c-.4,0-.68,.25-.84,.75-.17,.5-.25,1.24-.25,2.21s.08,1.72,.25,2.24c.17,.52,.45,.78,.84,.78s.68-.26,.85-.78c.16-.52,.25-1.26,.25-2.24s-.08-1.71-.25-2.21c-.17-.5-.45-.75-.85-.75Zm13.57-2.6l-10.3,18.56h-3.38l10.3-18.56h3.38Zm-.1,7.15c1.46,0,2.59,.51,3.41,1.52,.81,1.01,1.22,2.44,1.22,4.28s-.38,3.27-1.14,4.3-1.92,1.55-3.48,1.55c-1.42,0-2.53-.52-3.33-1.55-.8-1.03-1.2-2.46-1.2-4.3s.37-3.26,1.12-4.28c.75-1.01,1.88-1.52,3.41-1.52Zm.05,2.83c-.4,0-.68,.26-.84,.78-.17,.52-.25,1.26-.25,2.21s.08,1.69,.25,2.21c.16,.52,.45,.78,.84,.78,.73,0,1.09-1,1.09-2.99s-.36-2.99-1.09-2.99Z"/></g></g><g id="Labels-EN"><g><path class="cls-4" d="M48.78,95.22h-7.81v-13.56h7.81v2.36h-4.94v2.98h4.59v2.36h-4.59v3.5h4.94v2.38Z"/><path class="cls-4" d="M53.51,89.93l-3.34-5.07h3.21l2.01,3.3,2.03-3.3h3.21l-3.38,5.07,3.53,5.3h-3.22l-2.18-3.55-2.19,3.55h-3.21l3.52-5.3Z"/><path class="cls-4" d="M66.74,93.15c.5,0,1.09-.11,1.78-.32v2.11c-.71,.32-1.57,.47-2.6,.47-1.13,0-1.96-.29-2.47-.86-.52-.57-.77-1.43-.77-2.57v-5h-1.36v-1.2l1.56-.95,.82-2.19h1.81v2.21h2.9v2.12h-2.9v5c0,.4,.11,.7,.34,.89,.23,.19,.52,.29,.89,.29Z"/><path class="cls-4" d="M75.31,95.41c-1.67,0-2.97-.46-3.92-1.38s-1.41-2.23-1.41-3.92,.43-3.08,1.3-4.03c.87-.95,2.07-1.42,3.6-1.42s2.61,.42,3.42,1.25,1.22,1.99,1.22,3.46v1.37h-6.69c.03,.8,.27,1.43,.71,1.88,.45,.45,1.07,.68,1.87,.68,.62,0,1.21-.06,1.77-.19s1.14-.34,1.74-.62v2.19c-.49,.25-1.02,.43-1.59,.55-.56,.12-1.25,.18-2.06,.18Zm-.4-8.74c-.6,0-1.07,.19-1.41,.57-.34,.38-.53,.92-.58,1.62h3.97c-.01-.7-.2-1.24-.55-1.62-.35-.38-.83-.57-1.43-.57Z"/><path class="cls-4" d="M87.63,84.66c.38,0,.7,.03,.96,.08l-.21,2.65c-.23-.06-.51-.09-.83-.09-.9,0-1.61,.23-2.11,.7-.5,.46-.76,1.11-.76,1.95v5.28h-2.83v-10.37h2.14l.42,1.74h.14c.32-.58,.76-1.05,1.3-1.41,.55-.36,1.14-.53,1.79-.53Z"/><path class="cls-4" d="M100.04,95.22h-2.83v-6.06c0-.75-.13-1.31-.4-1.68s-.69-.56-1.27-.56c-.79,0-1.36,.26-1.72,.79-.35,.53-.53,1.41-.53,2.63v4.88h-2.83v-10.37h2.16l.38,1.33h.16c.32-.5,.75-.88,1.3-1.14s1.18-.39,1.89-.39c1.21,0,2.12,.33,2.75,.98,.62,.65,.94,1.59,.94,2.83v6.76Z"/><path class="cls-4" d="M109.54,95.22l-.55-1.41h-.07c-.48,.6-.97,1.02-1.47,1.25-.5,.23-1.16,.35-1.97,.35-1,0-1.78-.28-2.35-.85-.57-.57-.86-1.38-.86-2.43s.38-1.91,1.16-2.44c.77-.52,1.93-.81,3.48-.87l1.8-.06v-.45c0-1.05-.54-1.58-1.61-1.58-.83,0-1.8,.25-2.92,.75l-.94-1.91c1.19-.62,2.52-.94,3.97-.94s2.46,.3,3.2,.91c.74,.61,1.11,1.53,1.11,2.77v6.91h-1.98Zm-.83-4.81l-1.09,.04c-.82,.03-1.43,.17-1.84,.45-.4,.27-.6,.69-.6,1.24,0,.8,.46,1.2,1.37,1.2,.66,0,1.18-.19,1.57-.57,.39-.38,.59-.88,.59-1.5v-.85Z"/><path class="cls-4" d="M117.26,95.22h-2.83v-14.44h2.83v14.44Z"/><path class="cls-4" d="M134.45,95.22h-2.83v-6.06c0-.75-.12-1.31-.38-1.68-.25-.37-.64-.56-1.18-.56-.72,0-1.25,.27-1.58,.8-.33,.53-.49,1.41-.49,2.62v4.88h-2.83v-10.37h2.16l.38,1.33h.16c.28-.48,.68-.85,1.21-1.12,.53-.27,1.13-.4,1.81-.4,1.55,0,2.6,.51,3.15,1.52h.25c.28-.48,.69-.86,1.23-1.12,.54-.27,1.15-.4,1.83-.4,1.17,0,2.06,.3,2.67,.91s.9,1.57,.9,2.9v6.76h-2.84v-6.06c0-.75-.12-1.31-.38-1.68-.25-.37-.64-.56-1.18-.56-.69,0-1.21,.25-1.55,.74-.34,.5-.51,1.28-.51,2.36v5.2Z"/><path class="cls-4" d="M150.41,95.22l-.55-1.41h-.07c-.48,.6-.97,1.02-1.47,1.25-.5,.23-1.16,.35-1.97,.35-1,0-1.78-.28-2.35-.85-.57-.57-.86-1.38-.86-2.43s.38-1.91,1.16-2.44c.77-.52,1.93-.81,3.48-.87l1.8-.06v-.45c0-1.05-.54-1.58-1.61-1.58-.83,0-1.8,.25-2.92,.75l-.94-1.91c1.19-.62,2.52-.94,3.97-.94s2.46,.3,3.2,.91c.74,.61,1.11,1.53,1.11,2.77v6.91h-1.98Zm-.83-4.81l-1.09,.04c-.82,.03-1.43,.17-1.84,.45-.4,.27-.6,.69-.6,1.24,0,.8,.46,1.2,1.37,1.2,.66,0,1.18-.19,1.57-.57,.39-.38,.59-.88,.59-1.5v-.85Z"/><path class="cls-4" d="M161.09,84.66c.38,0,.7,.03,.96,.08l-.21,2.65c-.23-.06-.51-.09-.83-.09-.9,0-1.61,.23-2.11,.7-.5,.46-.76,1.11-.76,1.95v5.28h-2.83v-10.37h2.14l.42,1.74h.14c.32-.58,.76-1.05,1.3-1.41,.55-.36,1.14-.53,1.79-.53Z"/><path class="cls-4" d="M166.65,89.58l1.23-1.58,2.9-3.15h3.19l-4.12,4.5,4.37,5.87h-3.27l-2.99-4.2-1.21,.97v3.23h-2.83v-14.44h2.83v6.44l-.15,2.36h.04Z"/><path class="cls-4" d="M180.22,95.41c-1.67,0-2.97-.46-3.92-1.38s-1.41-2.23-1.41-3.92,.43-3.08,1.3-4.03c.87-.95,2.07-1.42,3.6-1.42s2.61,.42,3.42,1.25,1.22,1.99,1.22,3.46v1.37h-6.69c.03,.8,.27,1.43,.71,1.88,.45,.45,1.07,.68,1.87,.68,.62,0,1.21-.06,1.77-.19s1.14-.34,1.74-.62v2.19c-.49,.25-1.02,.43-1.59,.55-.56,.12-1.25,.18-2.06,.18Zm-.4-8.74c-.6,0-1.07,.19-1.41,.57-.34,.38-.53,.92-.58,1.62h3.97c-.01-.7-.2-1.24-.55-1.62-.35-.38-.83-.57-1.43-.57Z"/><path class="cls-4" d="M191.12,93.15c.5,0,1.09-.11,1.78-.32v2.11c-.71,.32-1.57,.47-2.6,.47-1.13,0-1.96-.29-2.47-.86-.52-.57-.77-1.43-.77-2.57v-5h-1.36v-1.2l1.56-.95,.82-2.19h1.81v2.21h2.9v2.12h-2.9v5c0,.4,.11,.7,.34,.89,.23,.19,.52,.29,.89,.29Z"/><path class="cls-4" d="M205.7,84.66c1.22,0,2.18,.48,2.88,1.43,.69,.96,1.04,2.27,1.04,3.93s-.36,3.04-1.07,3.98c-.71,.94-1.69,1.41-2.92,1.41s-2.17-.44-2.87-1.33h-.2l-.47,1.14h-2.16v-14.44h2.83v3.36c0,.43-.04,1.11-.11,2.05h.11c.66-1.03,1.64-1.54,2.94-1.54Zm-.91,2.26c-.7,0-1.21,.21-1.53,.65-.32,.43-.49,1.14-.5,2.13v.31c0,1.11,.17,1.91,.5,2.39,.33,.48,.85,.72,1.57,.72,.58,0,1.04-.27,1.39-.8,.34-.54,.52-1.31,.52-2.33s-.17-1.79-.52-2.3c-.35-.51-.82-.77-1.42-.77Z"/><path class="cls-4" d="M216.65,95.41c-1.67,0-2.97-.46-3.92-1.38s-1.41-2.23-1.41-3.92,.43-3.08,1.3-4.03c.87-.95,2.07-1.42,3.6-1.42s2.61,.42,3.42,1.25,1.22,1.99,1.22,3.46v1.37h-6.69c.03,.8,.27,1.43,.71,1.88,.45,.45,1.07,.68,1.87,.68,.62,0,1.21-.06,1.77-.19s1.14-.34,1.74-.62v2.19c-.49,.25-1.02,.43-1.59,.55-.56,.12-1.25,.18-2.06,.18Zm-.4-8.74c-.6,0-1.07,.19-1.41,.57-.34,.38-.53,.92-.58,1.62h3.97c-.01-.7-.2-1.24-.55-1.62-.35-.38-.83-.57-1.43-.57Z"/><path class="cls-4" d="M232.75,95.22h-2.83v-6.06c0-.75-.13-1.31-.4-1.68s-.69-.56-1.27-.56c-.79,0-1.36,.26-1.72,.79-.35,.53-.53,1.41-.53,2.63v4.88h-2.83v-10.37h2.16l.38,1.33h.16c.32-.5,.75-.88,1.3-1.14s1.18-.39,1.89-.39c1.21,0,2.12,.33,2.75,.98,.62,.65,.94,1.59,.94,2.83v6.76Z"/><path class="cls-4" d="M239.88,95.41c-3.23,0-4.84-1.77-4.84-5.32,0-1.76,.44-3.11,1.32-4.04,.88-.93,2.14-1.4,3.78-1.4,1.2,0,2.28,.24,3.23,.71l-.84,2.19c-.45-.18-.86-.33-1.24-.44-.38-.11-.77-.17-1.15-.17-1.47,0-2.21,1.04-2.21,3.13s.74,3.04,2.21,3.04c.54,0,1.05-.07,1.51-.22s.93-.37,1.39-.68v2.42c-.46,.29-.92,.49-1.39,.6-.47,.11-1.06,.17-1.77,.17Z"/><path class="cls-4" d="M255.01,95.22h-2.83v-6.06c0-1.5-.56-2.25-1.67-2.25-.79,0-1.36,.27-1.72,.81s-.53,1.41-.53,2.62v4.88h-2.83v-14.44h2.83v2.94c0,.23-.02,.77-.07,1.62l-.07,.83h.15c.63-1.01,1.63-1.52,3.01-1.52,1.22,0,2.14,.33,2.77,.98,.63,.66,.95,1.6,.95,2.82v6.76Z"/><path class="cls-4" d="M267.21,95.22h-2.83v-6.06c0-.75-.12-1.31-.38-1.68-.25-.37-.64-.56-1.18-.56-.72,0-1.25,.27-1.58,.8-.33,.53-.49,1.41-.49,2.62v4.88h-2.83v-10.37h2.16l.38,1.33h.16c.28-.48,.68-.85,1.21-1.12,.53-.27,1.13-.4,1.81-.4,1.55,0,2.6,.51,3.15,1.52h.25c.28-.48,.69-.86,1.23-1.12,.54-.27,1.15-.4,1.83-.4,1.17,0,2.06,.3,2.67,.91s.9,1.57,.9,2.9v6.76h-2.84v-6.06c0-.75-.12-1.31-.38-1.68-.25-.37-.64-.56-1.18-.56-.69,0-1.21,.25-1.55,.74-.34,.5-.51,1.28-.51,2.36v5.2Z"/><path class="cls-4" d="M283.17,95.22l-.55-1.41h-.07c-.48,.6-.97,1.02-1.47,1.25-.5,.23-1.16,.35-1.97,.35-1,0-1.78-.28-2.35-.85-.57-.57-.86-1.38-.86-2.43s.38-1.91,1.16-2.44c.77-.52,1.93-.81,3.48-.87l1.8-.06v-.45c0-1.05-.54-1.58-1.61-1.58-.83,0-1.8,.25-2.92,.75l-.94-1.91c1.19-.62,2.52-.94,3.97-.94s2.46,.3,3.2,.91c.74,.61,1.11,1.53,1.11,2.77v6.91h-1.98Zm-.83-4.81l-1.09,.04c-.82,.03-1.43,.17-1.84,.45-.4,.27-.6,.69-.6,1.24,0,.8,.46,1.2,1.37,1.2,.66,0,1.18-.19,1.57-.57,.39-.38,.59-.88,.59-1.5v-.85Z"/><path class="cls-4" d="M293.85,84.66c.38,0,.7,.03,.96,.08l-.21,2.65c-.23-.06-.51-.09-.83-.09-.9,0-1.61,.23-2.11,.7-.5,.46-.76,1.11-.76,1.95v5.28h-2.83v-10.37h2.14l.42,1.74h.14c.32-.58,.76-1.05,1.3-1.41,.55-.36,1.14-.53,1.79-.53Z"/><path class="cls-4" d="M299.41,89.58l1.23-1.58,2.9-3.15h3.19l-4.12,4.5,4.37,5.87h-3.27l-2.99-4.2-1.21,.97v3.23h-2.83v-14.44h2.83v6.44l-.15,2.36h.04Z"/><path class="cls-4" d="M181.9,159.46c0,1.22-.44,2.19-1.32,2.89-.88,.71-2.11,1.06-3.68,1.06-1.45,0-2.73-.27-3.84-.82v-2.67c.92,.41,1.69,.7,2.32,.86,.63,.17,1.21,.25,1.74,.25,.63,0,1.11-.12,1.45-.36,.34-.24,.5-.6,.5-1.08,0-.27-.07-.5-.22-.71s-.37-.41-.65-.6c-.29-.19-.87-.5-1.76-.92-.83-.39-1.45-.76-1.86-1.12s-.75-.78-.99-1.25c-.25-.48-.37-1.03-.37-1.67,0-1.2,.41-2.14,1.22-2.83,.81-.69,1.94-1.03,3.37-1.03,.71,0,1.38,.08,2.02,.25,.64,.17,1.31,.4,2.01,.71l-.93,2.24c-.72-.3-1.32-.5-1.79-.62-.47-.12-.94-.18-1.4-.18-.54,0-.96,.13-1.25,.38-.29,.25-.44,.58-.44,.99,0,.25,.06,.47,.18,.66,.12,.19,.3,.37,.56,.55,.26,.18,.86,.49,1.82,.95,1.27,.61,2.14,1.21,2.61,1.82,.47,.61,.71,1.36,.71,2.24Z"/><path class="cls-4" d="M184.02,150.17c0-.92,.51-1.38,1.54-1.38s1.54,.46,1.54,1.38c0,.44-.13,.78-.38,1.03s-.64,.37-1.15,.37c-1.03,0-1.54-.46-1.54-1.39Zm2.95,13.05h-2.83v-10.37h2.83v10.37Z"/><path class="cls-4" d="M192.77,163.22h-2.83v-14.44h2.83v14.44Z"/><path class="cls-4" d="M195.62,150.17c0-.92,.51-1.38,1.54-1.38s1.54,.46,1.54,1.38c0,.44-.13,.78-.38,1.03s-.64,.37-1.15,.37c-1.03,0-1.54-.46-1.54-1.39Zm2.95,13.05h-2.83v-10.37h2.83v10.37Z"/><path class="cls-4" d="M205.75,163.41c-3.23,0-4.84-1.77-4.84-5.32,0-1.76,.44-3.11,1.32-4.04,.88-.93,2.14-1.4,3.78-1.4,1.2,0,2.28,.24,3.23,.71l-.84,2.19c-.45-.18-.86-.33-1.24-.44-.38-.11-.77-.17-1.15-.17-1.47,0-2.21,1.04-2.21,3.13s.74,3.04,2.21,3.04c.54,0,1.05-.07,1.51-.22s.93-.37,1.39-.68v2.42c-.46,.29-.92,.49-1.39,.6-.47,.11-1.06,.17-1.77,.17Z"/><path class="cls-4" d="M220.73,158.02c0,1.69-.45,3.01-1.34,3.96-.89,.95-2.13,1.43-3.72,1.43-1,0-1.87-.22-2.63-.65-.76-.44-1.34-1.06-1.75-1.88s-.61-1.77-.61-2.86c0-1.7,.44-3.01,1.33-3.95,.88-.94,2.13-1.41,3.73-1.41,1,0,1.87,.22,2.63,.65,.76,.43,1.34,1.05,1.75,1.86,.41,.81,.61,1.76,.61,2.85Zm-7.17,0c0,1.03,.17,1.8,.51,2.33s.89,.79,1.65,.79,1.3-.26,1.63-.78c.33-.52,.5-1.3,.5-2.33s-.17-1.8-.5-2.31-.88-.77-1.64-.77-1.3,.25-1.63,.76c-.33,.51-.5,1.28-.5,2.32Z"/><path class="cls-4" d="M232.64,163.22h-2.83v-6.06c0-.75-.13-1.31-.4-1.68s-.69-.56-1.27-.56c-.79,0-1.36,.26-1.72,.79-.35,.53-.53,1.41-.53,2.63v4.88h-2.83v-10.37h2.16l.38,1.33h.16c.32-.5,.75-.88,1.3-1.14s1.18-.39,1.89-.39c1.21,0,2.12,.33,2.75,.98,.62,.65,.94,1.59,.94,2.83v6.76Z"/><path class="cls-4" d="M246.46,163.22l-3.27-10.64h-.08c.12,2.17,.18,3.61,.18,4.33v6.31h-2.57v-13.56h3.92l3.21,10.37h.06l3.41-10.37h3.91v13.56h-2.68v-6.42c0-.3,0-.65,.01-1.05,0-.4,.05-1.45,.13-3.15h-.08l-3.5,10.62h-2.63Z"/><path class="cls-4" d="M267.83,158.02c0,1.69-.45,3.01-1.34,3.96-.89,.95-2.13,1.43-3.72,1.43-1,0-1.87-.22-2.63-.65-.76-.44-1.34-1.06-1.75-1.88s-.61-1.77-.61-2.86c0-1.7,.44-3.01,1.33-3.95,.88-.94,2.13-1.41,3.73-1.41,1,0,1.87,.22,2.63,.65,.76,.43,1.34,1.05,1.75,1.86,.41,.81,.61,1.76,.61,2.85Zm-7.17,0c0,1.03,.17,1.8,.51,2.33s.89,.79,1.65,.79,1.3-.26,1.63-.78c.33-.52,.5-1.3,.5-2.33s-.17-1.8-.5-2.31-.88-.77-1.64-.77-1.3,.25-1.63,.76c-.33,.51-.5,1.28-.5,2.32Z"/><path class="cls-4" d="M274.54,161.15c.5,0,1.09-.11,1.78-.32v2.11c-.71,.32-1.57,.47-2.6,.47-1.13,0-1.96-.29-2.47-.86-.52-.57-.77-1.43-.77-2.57v-5h-1.36v-1.2l1.56-.95,.82-2.19h1.81v2.21h2.9v2.12h-2.9v5c0,.4,.11,.7,.34,.89,.23,.19,.52,.29,.89,.29Z"/><path class="cls-4" d="M278.3,150.17c0-.92,.51-1.38,1.54-1.38s1.54,.46,1.54,1.38c0,.44-.13,.78-.38,1.03s-.64,.37-1.15,.37c-1.03,0-1.54-.46-1.54-1.39Zm2.95,13.05h-2.83v-10.37h2.83v10.37Z"/><path class="cls-4" d="M293.64,158.02c0,1.69-.45,3.01-1.34,3.96-.89,.95-2.13,1.43-3.72,1.43-1,0-1.87-.22-2.63-.65-.76-.44-1.34-1.06-1.75-1.88s-.61-1.77-.61-2.86c0-1.7,.44-3.01,1.33-3.95,.88-.94,2.13-1.41,3.73-1.41,1,0,1.87,.22,2.63,.65,.76,.43,1.34,1.05,1.75,1.86,.41,.81,.61,1.76,.61,2.85Zm-7.17,0c0,1.03,.17,1.8,.51,2.33s.89,.79,1.65,.79,1.3-.26,1.63-.78c.33-.52,.5-1.3,.5-2.33s-.17-1.8-.5-2.31-.88-.77-1.64-.77-1.3,.25-1.63,.76c-.33,.51-.5,1.28-.5,2.32Z"/><path class="cls-4" d="M305.56,163.22h-2.83v-6.06c0-.75-.13-1.31-.4-1.68s-.69-.56-1.27-.56c-.79,0-1.36,.26-1.72,.79-.35,.53-.53,1.41-.53,2.63v4.88h-2.83v-10.37h2.16l.38,1.33h.16c.32-.5,.75-.88,1.3-1.14s1.18-.39,1.89-.39c1.21,0,2.12,.33,2.75,.98,.62,.65,.94,1.59,.94,2.83v6.76Z"/></g><path class="cls-4" d="M314.81,77.17l-.32,2.88,2.91-.81,.26,1.97-2.66,.19,1.74,2.32-1.77,.95-1.22-2.45-1.07,2.43-1.84-.93,1.73-2.32-2.64-.2,.3-1.95,2.85,.81-.32-2.88h2.05Z"/><g><path class="cls-2" d="M51.39,220.01l-.34,3.05,3.1-.86,.27,2.09-2.82,.2,1.85,2.46-1.88,1-1.29-2.6-1.14,2.58-1.96-.99,1.83-2.46-2.8-.22,.32-2.08,3.03,.86-.34-3.05h2.17Z"/><path class="cls-2" d="M63.46,228.27v4.66h-2.57v-12.14h3.54c1.65,0,2.87,.3,3.66,.9,.79,.6,1.19,1.51,1.19,2.74,0,.71-.2,1.35-.59,1.91-.39,.56-.95,.99-1.67,1.31l3.57,5.29h-2.86l-2.9-4.66h-1.37Zm0-2.09h.83c.81,0,1.41-.14,1.8-.41,.39-.27,.58-.7,.58-1.28s-.2-.99-.59-1.23-1.01-.37-1.84-.37h-.78v3.28Z"/><path class="cls-2" d="M77.8,232.93l-.49-1.26h-.07c-.43,.54-.87,.91-1.32,1.12-.45,.21-1.04,.31-1.76,.31-.89,0-1.59-.25-2.1-.76s-.77-1.23-.77-2.17,.34-1.71,1.03-2.18c.69-.47,1.73-.73,3.12-.78l1.61-.05v-.41c0-.94-.48-1.41-1.44-1.41-.74,0-1.61,.22-2.61,.67l-.84-1.71c1.07-.56,2.25-.84,3.55-.84s2.2,.27,2.86,.81c.66,.54,1,1.37,1,2.47v6.18h-1.77Zm-.75-4.3l-.98,.03c-.74,.02-1.28,.16-1.64,.4s-.54,.61-.54,1.11c0,.71,.41,1.07,1.23,1.07,.59,0,1.05-.17,1.41-.51s.53-.79,.53-1.34v-.76Z"/><path class="cls-2" d="M85.12,233.09c-1.09,0-1.95-.42-2.57-1.27-.62-.85-.93-2.02-.93-3.52s.32-2.71,.95-3.56,1.51-1.27,2.62-1.27c1.17,0,2.06,.45,2.67,1.36h.08c-.13-.69-.19-1.31-.19-1.85v-2.97h2.54v12.92h-1.94l-.49-1.2h-.11c-.58,.91-1.45,1.37-2.63,1.37Zm.89-2.02c.65,0,1.12-.19,1.42-.56,.3-.38,.47-1.01,.49-1.92v-.27c0-1-.15-1.71-.46-2.14-.31-.43-.81-.65-1.5-.65-.56,0-1,.24-1.32,.72s-.47,1.17-.47,2.09,.16,1.6,.47,2.05c.32,.46,.77,.68,1.35,.68Z"/><path class="cls-2" d="M98.07,225.55h-2.19v7.38h-2.53v-7.38h-1.39v-1.22l1.39-.68v-.68c0-1.06,.26-1.83,.78-2.32,.52-.49,1.35-.73,2.5-.73,.87,0,1.65,.13,2.33,.39l-.65,1.86c-.51-.16-.98-.24-1.41-.24-.36,0-.62,.11-.78,.32-.16,.21-.24,.49-.24,.82v.58h2.19v1.9Z"/><path class="cls-2" d="M107.95,228.27c0,1.51-.4,2.69-1.2,3.54s-1.91,1.28-3.33,1.28c-.89,0-1.68-.2-2.36-.58-.68-.39-1.2-.95-1.57-1.68s-.55-1.58-.55-2.56c0-1.52,.4-2.7,1.19-3.54,.79-.84,1.9-1.26,3.34-1.26,.89,0,1.68,.19,2.36,.58,.68,.39,1.2,.94,1.57,1.67s.55,1.57,.55,2.55Zm-6.42,0c0,.92,.15,1.61,.45,2.08s.79,.71,1.47,.71,1.16-.23,1.46-.7,.44-1.16,.44-2.09-.15-1.61-.45-2.07-.79-.69-1.47-.69-1.16,.23-1.46,.68c-.3,.46-.45,1.15-.45,2.07Z"/><path class="cls-2" d="M115.22,223.47c.34,0,.63,.03,.86,.08l-.19,2.37c-.21-.06-.45-.08-.75-.08-.81,0-1.44,.21-1.89,.62-.45,.42-.68,1-.68,1.74v4.72h-2.53v-9.28h1.92l.37,1.56h.12c.29-.52,.68-.94,1.17-1.26,.49-.32,1.02-.48,1.6-.48Z"/><path class="cls-2" d="M120.54,233.09c-1.09,0-1.95-.42-2.57-1.27-.62-.85-.93-2.02-.93-3.52s.32-2.71,.95-3.56,1.51-1.27,2.62-1.27c1.17,0,2.06,.45,2.67,1.36h.08c-.13-.69-.19-1.31-.19-1.85v-2.97h2.54v12.92h-1.94l-.49-1.2h-.11c-.58,.91-1.45,1.37-2.63,1.37Zm.89-2.02c.65,0,1.12-.19,1.42-.56,.3-.38,.47-1.01,.49-1.92v-.27c0-1-.15-1.71-.46-2.14-.31-.43-.81-.65-1.5-.65-.56,0-1,.24-1.32,.72s-.47,1.17-.47,2.09,.16,1.6,.47,2.05c.32,.46,.77,.68,1.35,.68Z"/><path class="cls-2" d="M140.61,232.93h-8.48v-1.79l3.05-3.08c.9-.92,1.49-1.56,1.77-1.92,.28-.36,.48-.69,.6-.99,.12-.3,.18-.62,.18-.95,0-.49-.13-.85-.4-1.09s-.63-.36-1.08-.36c-.47,0-.93,.11-1.37,.32-.44,.22-.9,.52-1.39,.92l-1.39-1.65c.6-.51,1.09-.87,1.49-1.08,.39-.21,.82-.37,1.29-.49s.99-.17,1.56-.17c.76,0,1.43,.14,2.01,.42,.58,.28,1.03,.66,1.35,1.16,.32,.5,.48,1.07,.48,1.71,0,.56-.1,1.08-.29,1.57-.2,.49-.5,.99-.91,1.51s-1.14,1.25-2.18,2.2l-1.56,1.47v.12h5.29v2.16Z"/><path class="cls-2" d="M150.26,226.86c0,2.12-.35,3.69-1.04,4.71s-1.76,1.53-3.21,1.53-2.46-.53-3.17-1.58-1.07-2.6-1.07-4.66,.35-3.72,1.04-4.74c.69-1.02,1.76-1.52,3.2-1.52s2.46,.53,3.17,1.59,1.08,2.62,1.08,4.66Zm-5.94,0c0,1.49,.13,2.56,.39,3.2,.26,.64,.69,.97,1.3,.97s1.03-.33,1.29-.98c.27-.65,.4-1.71,.4-3.19s-.13-2.56-.4-3.21-.7-.98-1.29-.98-1.04,.33-1.29,.98-.39,1.72-.39,3.21Z"/><path class="cls-2" d="M160.05,232.93h-8.48v-1.79l3.05-3.08c.9-.92,1.49-1.56,1.77-1.92,.28-.36,.48-.69,.6-.99,.12-.3,.18-.62,.18-.95,0-.49-.13-.85-.4-1.09s-.63-.36-1.08-.36c-.47,0-.93,.11-1.37,.32-.44,.22-.9,.52-1.39,.92l-1.39-1.65c.6-.51,1.09-.87,1.49-1.08,.39-.21,.82-.37,1.29-.49s.99-.17,1.56-.17c.76,0,1.43,.14,2.01,.42,.58,.28,1.03,.66,1.35,1.16,.32,.5,.48,1.07,.48,1.71,0,.56-.1,1.08-.29,1.57-.2,.49-.5,.99-.91,1.51s-1.14,1.25-2.18,2.2l-1.56,1.47v.12h5.29v2.16Z"/><path class="cls-2" d="M167.63,232.93h-2.57v-7.02l.03-1.15,.04-1.26c-.43,.43-.72,.71-.89,.84l-1.39,1.12-1.24-1.54,3.91-3.11h2.11v12.14Z"/><path class="cls-2" d="M186.33,226.75c0,2-.57,3.53-1.71,4.59-1.14,1.06-2.78,1.59-4.93,1.59h-3.44v-12.14h3.81c1.98,0,3.52,.52,4.62,1.57,1.1,1.04,1.64,2.51,1.64,4.38Zm-2.67,.07c0-2.61-1.15-3.91-3.45-3.91h-1.37v7.9h1.1c2.48,0,3.72-1.33,3.72-3.99Z"/><path class="cls-2" d="M194.54,232.93l-.49-1.26h-.07c-.43,.54-.87,.91-1.32,1.12-.45,.21-1.04,.31-1.76,.31-.89,0-1.59-.25-2.1-.76s-.77-1.23-.77-2.17,.34-1.71,1.03-2.18c.69-.47,1.73-.73,3.12-.78l1.61-.05v-.41c0-.94-.48-1.41-1.44-1.41-.74,0-1.61,.22-2.61,.67l-.84-1.71c1.07-.56,2.25-.84,3.55-.84s2.2,.27,2.86,.81c.66,.54,1,1.37,1,2.47v6.18h-1.77Zm-.75-4.3l-.98,.03c-.74,.02-1.28,.16-1.64,.4s-.54,.61-.54,1.11c0,.71,.41,1.07,1.23,1.07,.59,0,1.05-.17,1.41-.51s.53-.79,.53-1.34v-.76Z"/><path class="cls-2" d="M202.83,231.08c.44,0,.97-.1,1.59-.29v1.88c-.63,.28-1.41,.42-2.32,.42-1.01,0-1.75-.26-2.21-.77s-.69-1.28-.69-2.3v-4.47h-1.21v-1.07l1.39-.85,.73-1.96h1.62v1.98h2.6v1.9h-2.6v4.47c0,.36,.1,.62,.3,.8s.47,.26,.8,.26Z"/><path class="cls-2" d="M212.19,232.93l-.49-1.26h-.07c-.43,.54-.87,.91-1.32,1.12-.45,.21-1.04,.31-1.76,.31-.89,0-1.59-.25-2.1-.76s-.77-1.23-.77-2.17,.34-1.71,1.03-2.18c.69-.47,1.73-.73,3.12-.78l1.61-.05v-.41c0-.94-.48-1.41-1.44-1.41-.74,0-1.61,.22-2.61,.67l-.84-1.71c1.07-.56,2.25-.84,3.55-.84s2.2,.27,2.86,.81c.66,.54,1,1.37,1,2.47v6.18h-1.77Zm-.75-4.3l-.98,.03c-.74,.02-1.28,.16-1.64,.4s-.54,.61-.54,1.11c0,.71,.41,1.07,1.23,1.07,.59,0,1.05-.17,1.41-.51s.53-.79,.53-1.34v-.76Z"/></g></g></svg>