<svg xmlns="http://www.w3.org/2000/svg" viewBox="0 0 800 480"><defs><style>.a{fill:#e6e6e6;}.b{fill:#29abe2;}.c{fill:#98d5f4;}.d{fill:#0071bc;}.e{fill:none;stroke:gray;stroke-miterlimit:10;}.f{fill:#333;}.g{fill:#999;}</style></defs><rect class="a" x="339.01" y="307.66" width="321.32" height="57.91"/><rect class="b" x="339.01" y="243.31" width="139.99" height="57.91"/><rect class="c" x="339.01" y="178.96" width="139.99" height="57.91"/><rect class="d" x="339.01" y="114.62" width="189.49" height="57.91"/><line class="e" x1="339.01" y1="400.96" x2="339.01" y2="79.22"/><path class="f" d="M195.37,146.22l-1-3.22h-4.94l-1,3.22h-3.09l4.78-13.62h3.52l4.8,13.62Zm-1.67-5.64c-.91-2.92-1.43-4.58-1.54-5s-.2-.69-.25-.91q-.3,1.18-1.75,5.87Z"/><path class="f" d="M202.78,146.22H200V131.79h2.83Z"/><path class="f" d="M208.58,146.22h-2.83V131.79h2.83Z"/><path class="f" d="M221.18,146.41a5.37,5.37,0,0,1-3.92-1.38,5.24,5.24,0,0,1-1.41-3.92,5.75,5.75,0,0,1,1.31-4,4.62,4.62,0,0,1,3.6-1.42,4.54,4.54,0,0,1,3.42,1.25,4.72,4.72,0,0,1,1.23,3.46v1.37h-6.69a2.76,2.76,0,0,0,.71,1.89,2.53,2.53,0,0,0,1.88.67,7.81,7.81,0,0,0,1.77-.19,9.14,9.14,0,0,0,1.74-.62v2.19a6.87,6.87,0,0,1-1.58.55A10.11,10.11,0,0,1,221.18,146.41Zm-.4-8.74a1.79,1.79,0,0,0-1.41.57,2.65,2.65,0,0,0-.59,1.62h4a2.36,2.36,0,0,0-.54-1.62A1.87,1.87,0,0,0,220.78,137.67Z"/><path class="f" d="M237,146.22h-2.83v-6.05a3.09,3.09,0,0,0-.38-1.69,1.33,1.33,0,0,0-1.18-.56,1.72,1.72,0,0,0-1.58.8,5.2,5.2,0,0,0-.49,2.62v4.88h-2.83V135.85h2.16l.38,1.33h.16a2.89,2.89,0,0,1,1.2-1.12,3.92,3.92,0,0,1,1.81-.4,3.25,3.25,0,0,1,3.16,1.52h.25a2.79,2.79,0,0,1,1.23-1.12,4,4,0,0,1,1.83-.4,3.65,3.65,0,0,1,2.67.9,4,4,0,0,1,.9,2.9v6.76h-2.84v-6.05a3.09,3.09,0,0,0-.37-1.69,1.34,1.34,0,0,0-1.19-.56,1.77,1.77,0,0,0-1.55.74A4.26,4.26,0,0,0,237,141Z"/><path class="f" d="M252.06,146.41a3.41,3.41,0,0,1-2.86-1.33h-.15c.1.87.15,1.37.15,1.51v4.2h-2.83V135.85h2.3l.39,1.35h.14a3.26,3.26,0,0,1,2.94-1.54,3.35,3.35,0,0,1,2.87,1.42,6.57,6.57,0,0,1,1,3.94,7.62,7.62,0,0,1-.49,2.88,4,4,0,0,1-1.38,1.87A3.55,3.55,0,0,1,252.06,146.41Zm-.83-8.49a1.78,1.78,0,0,0-1.53.65,3.61,3.61,0,0,0-.5,2.12V141a4.37,4.37,0,0,0,.49,2.39,1.76,1.76,0,0,0,1.57.73c1.27,0,1.91-1.05,1.91-3.14a4.48,4.48,0,0,0-.47-2.29A1.62,1.62,0,0,0,251.23,137.92Z"/><path class="f" d="M261.22,146.22h-2.83V131.79h2.83Z"/><path class="f" d="M273.61,141a5.56,5.56,0,0,1-1.33,4,4.85,4.85,0,0,1-3.72,1.43,5.17,5.17,0,0,1-2.64-.66,4.34,4.34,0,0,1-1.75-1.87,6.31,6.31,0,0,1-.61-2.86,5.55,5.55,0,0,1,1.32-4,4.88,4.88,0,0,1,3.73-1.41,5.17,5.17,0,0,1,2.64.65,4.32,4.32,0,0,1,1.75,1.86A6.23,6.23,0,0,1,273.61,141Zm-7.17,0a4.33,4.33,0,0,0,.51,2.33,1.8,1.8,0,0,0,1.64.79,1.76,1.76,0,0,0,1.63-.79,4.41,4.41,0,0,0,.5-2.33,4.31,4.31,0,0,0-.5-2.31,2.14,2.14,0,0,0-3.28,0A4.35,4.35,0,0,0,266.44,141Z"/><path class="f" d="M274.28,135.85h3.1l2,5.84a8.24,8.24,0,0,1,.34,1.8h.06a7.88,7.88,0,0,1,.39-1.8l1.93-5.84h3l-4.39,11.7A5,5,0,0,1,279,150a4.35,4.35,0,0,1-2.61.81,6.29,6.29,0,0,1-1.44-.16v-2.24a4.84,4.84,0,0,0,1.11.12,2.08,2.08,0,0,0,1.32-.46,3,3,0,0,0,.87-1.39l.17-.51Z"/><path class="f" d="M291.27,146.41a5.37,5.37,0,0,1-3.92-1.38,5.24,5.24,0,0,1-1.41-3.92,5.75,5.75,0,0,1,1.31-4,4.63,4.63,0,0,1,3.6-1.42,4.52,4.52,0,0,1,3.42,1.25,4.72,4.72,0,0,1,1.23,3.46v1.37h-6.69a2.76,2.76,0,0,0,.71,1.89,2.53,2.53,0,0,0,1.88.67,7.81,7.81,0,0,0,1.77-.19,8.91,8.91,0,0,0,1.74-.62v2.19a6.87,6.87,0,0,1-1.58.55A10,10,0,0,1,291.27,146.41Zm-.4-8.74a1.79,1.79,0,0,0-1.41.57,2.58,2.58,0,0,0-.58,1.62h4a2.41,2.41,0,0,0-.55-1.62A1.85,1.85,0,0,0,290.87,137.67Z"/><path class="f" d="M302.49,146.41a5.35,5.35,0,0,1-3.91-1.38,5.24,5.24,0,0,1-1.41-3.92,5.75,5.75,0,0,1,1.3-4,4.64,4.64,0,0,1,3.61-1.42,4.55,4.55,0,0,1,3.42,1.25,4.72,4.72,0,0,1,1.22,3.46v1.37H300a2.72,2.72,0,0,0,.71,1.89,2.52,2.52,0,0,0,1.87.67,7.84,7.84,0,0,0,1.78-.19,9.39,9.39,0,0,0,1.74-.62v2.19a6.79,6.79,0,0,1-1.59.55A10,10,0,0,1,302.49,146.41Zm-.4-8.74a1.82,1.82,0,0,0-1.41.57,2.64,2.64,0,0,0-.58,1.62h4a2.31,2.31,0,0,0-.55-1.62A1.84,1.84,0,0,0,302.09,137.67Z"/><path class="f" d="M316.26,143.14a2.84,2.84,0,0,1-1.11,2.43,5.44,5.44,0,0,1-3.31.84,10.57,10.57,0,0,1-1.93-.15,8.72,8.72,0,0,1-1.5-.45v-2.34a10,10,0,0,0,1.78.62,7.06,7.06,0,0,0,1.74.25c1,0,1.54-.3,1.54-.89a.77.77,0,0,0-.2-.54,3.27,3.27,0,0,0-.71-.48c-.33-.17-.78-.38-1.34-.61a8.91,8.91,0,0,1-1.75-.93,2.6,2.6,0,0,1-.82-1,3.23,3.23,0,0,1-.26-1.36,2.47,2.47,0,0,1,1.08-2.14,5.22,5.22,0,0,1,3-.75,8.69,8.69,0,0,1,3.65.81l-.85,2c-.52-.22-1-.4-1.46-.54a4.33,4.33,0,0,0-1.38-.22c-.84,0-1.25.23-1.25.68a.8.8,0,0,0,.4.66,12,12,0,0,0,1.77.83,8.16,8.16,0,0,1,1.78.91,2.75,2.75,0,0,1,.83,1A3,3,0,0,1,316.26,143.14Z"/><path class="f" d="M126.79,214.22l-3.27-10.64h-.08c.12,2.17.18,3.61.18,4.34v6.3H121V200.66H125L128.17,211h.06l3.4-10.37h3.91v13.56h-2.68V207.8c0-.3,0-.65,0-1s.05-1.45.12-3.16h-.08l-3.5,10.62Z"/><path class="f" d="M145.32,214.22l-.54-1.41h-.08a4.06,4.06,0,0,1-1.47,1.25,4.76,4.76,0,0,1-2,.35,3.21,3.21,0,0,1-2.35-.85,3.3,3.3,0,0,1-.86-2.44,2.71,2.71,0,0,1,1.16-2.43,6.72,6.72,0,0,1,3.48-.87l1.8,0v-.46a1.42,1.42,0,0,0-1.62-1.58,7.39,7.39,0,0,0-2.92.76l-.94-1.91a8.41,8.41,0,0,1,4-.94,4.94,4.94,0,0,1,3.2.91,3.36,3.36,0,0,1,1.11,2.76v6.91Zm-.83-4.8-1.1,0a3.46,3.46,0,0,0-1.83.44,1.39,1.39,0,0,0-.61,1.24q0,1.2,1.38,1.2a2.16,2.16,0,0,0,1.57-.57,2,2,0,0,0,.59-1.5Z"/><path class="f" d="M159.79,214.22H157v-6.05a3,3,0,0,0-.4-1.69,1.47,1.47,0,0,0-1.27-.56,1.91,1.91,0,0,0-1.72.79,5,5,0,0,0-.53,2.63v4.88h-2.83V203.85h2.17l.37,1.33h.16a3,3,0,0,1,1.31-1.14,4.51,4.51,0,0,1,1.88-.38,3.6,3.6,0,0,1,2.75,1,3.93,3.93,0,0,1,.94,2.82Z"/><path class="f" d="M169.29,214.22l-.55-1.41h-.07a4.23,4.23,0,0,1-1.47,1.25,4.84,4.84,0,0,1-2,.35,3.22,3.22,0,0,1-2.35-.85,3.3,3.3,0,0,1-.86-2.44,2.73,2.73,0,0,1,1.16-2.43,6.75,6.75,0,0,1,3.48-.87l1.8,0v-.46a1.41,1.41,0,0,0-1.61-1.58,7.39,7.39,0,0,0-2.92.76l-.94-1.91a8.37,8.37,0,0,1,4-.94,4.92,4.92,0,0,1,3.2.91,3.36,3.36,0,0,1,1.11,2.76v6.91Zm-.84-4.8-1.09,0a3.5,3.5,0,0,0-1.84.44,1.4,1.4,0,0,0-.6,1.24c0,.8.46,1.2,1.37,1.2a2.15,2.15,0,0,0,1.57-.57,1.94,1.94,0,0,0,.59-1.5Z"/><path class="f" d="M183.24,214.24a4.32,4.32,0,0,1-1.3,3.39,5.72,5.72,0,0,1-3.89,1.16,11.07,11.07,0,0,1-3.87-.61v-2.27a10.26,10.26,0,0,0,4,.8c1.45,0,2.18-.79,2.18-2.36v-.2l.08-1.27h-.08a3.27,3.27,0,0,1-2.94,1.53,3.34,3.34,0,0,1-2.89-1.44,6.64,6.64,0,0,1-1-3.91,6.54,6.54,0,0,1,1.07-4,3.44,3.44,0,0,1,2.92-1.42,3.49,3.49,0,0,1,3,1.52h.07l.24-1.33h2.39Zm-4.77-2.05a1.91,1.91,0,0,0,1.63-.65,3.55,3.55,0,0,0,.5-2.12v-.35a4.24,4.24,0,0,0-.52-2.38,1.87,1.87,0,0,0-1.66-.73c-1.33,0-2,1-2,3.13a4.36,4.36,0,0,0,.5,2.33A1.68,1.68,0,0,0,178.47,212.19Z"/><path class="f" d="M190.89,214.41A5.35,5.35,0,0,1,187,213a5.24,5.24,0,0,1-1.41-3.92,5.75,5.75,0,0,1,1.3-4,4.64,4.64,0,0,1,3.61-1.42,4.55,4.55,0,0,1,3.42,1.25,4.72,4.72,0,0,1,1.22,3.46v1.37h-6.68a2.72,2.72,0,0,0,.71,1.89,2.5,2.5,0,0,0,1.87.67,7.69,7.69,0,0,0,1.77-.19,9.22,9.22,0,0,0,1.75-.62v2.19a7,7,0,0,1-1.59.55A10,10,0,0,1,190.89,214.41Zm-.4-8.74a1.79,1.79,0,0,0-1.41.57,2.64,2.64,0,0,0-.58,1.62h4a2.31,2.31,0,0,0-.55-1.62A1.85,1.85,0,0,0,190.49,205.67Z"/><path class="f" d="M203.21,203.66a4.3,4.3,0,0,1,1,.08l-.21,2.65a3.37,3.37,0,0,0-.84-.09,3,3,0,0,0-2.11.7,2.51,2.51,0,0,0-.76,1.94v5.28h-2.83V203.85h2.15l.42,1.75h.13a4,4,0,0,1,1.31-1.41A3.17,3.17,0,0,1,203.21,203.66Z"/><path class="f" d="M213.29,211.14a2.84,2.84,0,0,1-1.11,2.43,5.45,5.45,0,0,1-3.32.84,10.73,10.73,0,0,1-1.93-.15,8.35,8.35,0,0,1-1.49-.45v-2.34a10,10,0,0,0,1.78.62,7.06,7.06,0,0,0,1.74.25c1,0,1.54-.3,1.54-.89a.73.73,0,0,0-.21-.54,2.93,2.93,0,0,0-.7-.48c-.34-.17-.78-.38-1.34-.61a9,9,0,0,1-1.76-.93,2.66,2.66,0,0,1-.81-1,3.23,3.23,0,0,1-.26-1.36,2.48,2.48,0,0,1,1.07-2.14,5.27,5.27,0,0,1,3-.75,8.69,8.69,0,0,1,3.65.81l-.86,2c-.52-.22-1-.4-1.45-.54a4.33,4.33,0,0,0-1.38-.22c-.84,0-1.26.23-1.26.68a.81.81,0,0,0,.41.66,11.69,11.69,0,0,0,1.76.83,8.28,8.28,0,0,1,1.79.91,2.86,2.86,0,0,1,.83,1A3,3,0,0,1,213.29,211.14Z"/><path class="f" d="M227,214.22l-.55-1.41h-.07a4.23,4.23,0,0,1-1.47,1.25,4.79,4.79,0,0,1-2,.35,3.25,3.25,0,0,1-2.36-.85,3.29,3.29,0,0,1-.85-2.44,2.72,2.72,0,0,1,1.15-2.43,6.75,6.75,0,0,1,3.48-.87l1.8,0v-.46a1.41,1.41,0,0,0-1.61-1.58,7.39,7.39,0,0,0-2.92.76l-.94-1.91a8.37,8.37,0,0,1,4-.94,4.92,4.92,0,0,1,3.2.91,3.36,3.36,0,0,1,1.12,2.76v6.91Zm-.84-4.8-1.09,0a3.53,3.53,0,0,0-1.84.44,1.4,1.4,0,0,0-.6,1.24c0,.8.46,1.2,1.37,1.2a2.19,2.19,0,0,0,1.58-.57,2,2,0,0,0,.58-1.5Z"/><path class="f" d="M241.48,214.22h-2.83v-6.05a2.91,2.91,0,0,0-.4-1.69,1.45,1.45,0,0,0-1.27-.56,1.89,1.89,0,0,0-1.71.79,4.86,4.86,0,0,0-.53,2.63v4.88h-2.83V203.85h2.16l.38,1.33h.16a3,3,0,0,1,1.3-1.14,4.52,4.52,0,0,1,1.89-.38,3.57,3.57,0,0,1,2.74,1,3.89,3.89,0,0,1,.94,2.82Z"/><path class="f" d="M247.68,214.41a3.35,3.35,0,0,1-2.87-1.42,7.91,7.91,0,0,1,0-7.91,3.44,3.44,0,0,1,2.92-1.42,3.37,3.37,0,0,1,3,1.52h.09a11.7,11.7,0,0,1-.21-2.07v-3.32h2.84v14.43h-2.17l-.55-1.34h-.12A3.23,3.23,0,0,1,247.68,214.41Zm1-2.26a1.9,1.9,0,0,0,1.59-.63,3.69,3.69,0,0,0,.56-2.14v-.31a4.25,4.25,0,0,0-.52-2.39,1.91,1.91,0,0,0-1.67-.72,1.66,1.66,0,0,0-1.47.8,4.25,4.25,0,0,0-.53,2.33,4.09,4.09,0,0,0,.53,2.3A1.72,1.72,0,0,0,248.67,212.15Z"/><path class="f" d="M267.94,214.22l-.55-1.41h-.07a4.23,4.23,0,0,1-1.47,1.25,4.79,4.79,0,0,1-2,.35,3.21,3.21,0,0,1-2.35-.85,3.26,3.26,0,0,1-.86-2.44,2.72,2.72,0,0,1,1.15-2.43,6.76,6.76,0,0,1,3.49-.87l1.8,0v-.46a1.42,1.42,0,0,0-1.62-1.58,7.39,7.39,0,0,0-2.92.76l-.94-1.91a8.4,8.4,0,0,1,4-.94,4.9,4.9,0,0,1,3.2.91,3.33,3.33,0,0,1,1.12,2.76v6.91Zm-.83-4.8-1.1,0a3.53,3.53,0,0,0-1.84.44,1.4,1.4,0,0,0-.6,1.24c0,.8.46,1.2,1.37,1.2a2.19,2.19,0,0,0,1.58-.57,2,2,0,0,0,.59-1.5Z"/><path class="f" d="M278.6,203.66a3.35,3.35,0,0,1,2.88,1.43,6.62,6.62,0,0,1,1,3.93,6.43,6.43,0,0,1-1.08,4,3.73,3.73,0,0,1-5.78.08h-.2l-.47,1.14h-2.16V199.79h2.83v3.36c0,.42,0,1.11-.11,2h.11A3.26,3.26,0,0,1,278.6,203.66Zm-.91,2.26a1.78,1.78,0,0,0-1.53.65,3.69,3.69,0,0,0-.5,2.12V209a4.36,4.36,0,0,0,.5,2.39,1.75,1.75,0,0,0,1.57.73,1.6,1.6,0,0,0,1.39-.8,4.42,4.42,0,0,0,.51-2.34,4.06,4.06,0,0,0-.52-2.29A1.64,1.64,0,0,0,277.69,205.92Z"/><path class="f" d="M294.28,209a5.57,5.57,0,0,1-1.34,4,4.85,4.85,0,0,1-3.72,1.43,5.16,5.16,0,0,1-2.63-.66,4.36,4.36,0,0,1-1.76-1.87,6.44,6.44,0,0,1-.61-2.86,5.55,5.55,0,0,1,1.33-4,4.87,4.87,0,0,1,3.73-1.41,5.16,5.16,0,0,1,2.63.65,4.34,4.34,0,0,1,1.76,1.86A6.23,6.23,0,0,1,294.28,209Zm-7.17,0a4.43,4.43,0,0,0,.5,2.33,1.83,1.83,0,0,0,1.65.79,1.78,1.78,0,0,0,1.63-.79,4.42,4.42,0,0,0,.49-2.33,4.22,4.22,0,0,0-.5-2.31,2.13,2.13,0,0,0-3.27,0A4.35,4.35,0,0,0,287.11,209Z"/><path class="f" d="M298.9,214.22,295,203.85h3l2,5.91a9.06,9.06,0,0,1,.4,2.13h.07a8.2,8.2,0,0,1,.42-2.13l2-5.91h3l-4,10.37Z"/><path class="f" d="M311.93,214.41A5.35,5.35,0,0,1,308,213a5.24,5.24,0,0,1-1.41-3.92,5.75,5.75,0,0,1,1.3-4,4.64,4.64,0,0,1,3.61-1.42,4.55,4.55,0,0,1,3.42,1.25,4.72,4.72,0,0,1,1.23,3.46v1.37h-6.69a2.76,2.76,0,0,0,.71,1.89,2.52,2.52,0,0,0,1.87.67,7.84,7.84,0,0,0,1.78-.19,9.39,9.39,0,0,0,1.74-.62v2.19a6.79,6.79,0,0,1-1.59.55A10,10,0,0,1,311.93,214.41Zm-.39-8.74a1.83,1.83,0,0,0-1.42.57,2.71,2.71,0,0,0-.58,1.62h4a2.31,2.31,0,0,0-.55-1.62A1.83,1.83,0,0,0,311.54,205.67Z"/><path class="f" d="M181.23,277v5.2h-2.88V268.66h4a6.74,6.74,0,0,1,4.09,1,4,4,0,0,1,.67,5.18,4.36,4.36,0,0,1-1.86,1.46l4,5.91H186l-3.24-5.2Zm0-2.34h.93a3.58,3.58,0,0,0,2-.45,1.64,1.64,0,0,0,.65-1.43,1.49,1.49,0,0,0-.67-1.38,4,4,0,0,0-2.05-.4h-.87Z"/><path class="f" d="M203.44,282.22h-3.5l-1.07-1a6.84,6.84,0,0,1-4,1.23,5.68,5.68,0,0,1-3.59-1,3.37,3.37,0,0,1-1.33-2.81,4,4,0,0,1,.56-2.17,5.41,5.41,0,0,1,1.92-1.67,6,6,0,0,1-1-1.53,3.92,3.92,0,0,1-.31-1.59,2.75,2.75,0,0,1,1.08-2.27,4.46,4.46,0,0,1,2.89-.86,4.35,4.35,0,0,1,2.76.8,2.57,2.57,0,0,1,1,2.15,3.41,3.41,0,0,1-.64,2,6.2,6.2,0,0,1-2.07,1.74l2.64,2.57a11.19,11.19,0,0,0,1.14-2.79h2.95a12.86,12.86,0,0,1-.92,2.44,11.08,11.08,0,0,1-1.33,2.12Zm-10.51-3.93a1.55,1.55,0,0,0,.59,1.27,2.4,2.4,0,0,0,1.54.47,4,4,0,0,0,2.11-.56l-3.08-3.06a3.6,3.6,0,0,0-.85.85A1.74,1.74,0,0,0,192.93,278.29Zm3.33-6.58a.93.93,0,0,0-.34-.77,1.28,1.28,0,0,0-.86-.29,1.49,1.49,0,0,0-1,.3,1,1,0,0,0-.36.85,2.86,2.86,0,0,0,.89,1.8,5.43,5.43,0,0,0,1.22-.88A1.41,1.41,0,0,0,196.26,271.71Z"/><path class="f" d="M216.4,275.31a6.69,6.69,0,0,1-1.91,5.13,7.76,7.76,0,0,1-5.5,1.78h-3.85V268.66h4.26a7.15,7.15,0,0,1,5.16,1.75A6.45,6.45,0,0,1,216.4,275.31Zm-3,.08c0-2.92-1.29-4.37-3.86-4.37H208v8.83h1.23C212,279.85,213.41,278.36,213.41,275.39Z"/><path class="f" d="M228.62,282.41A5.37,5.37,0,0,1,224.7,281a5.24,5.24,0,0,1-1.41-3.92,5.79,5.79,0,0,1,1.3-4,4.66,4.66,0,0,1,3.61-1.42,4.54,4.54,0,0,1,3.42,1.25,4.72,4.72,0,0,1,1.23,3.46v1.37h-6.69a2.76,2.76,0,0,0,.71,1.89,2.53,2.53,0,0,0,1.88.67,7.81,7.81,0,0,0,1.77-.19,9.14,9.14,0,0,0,1.74-.62v2.19a6.87,6.87,0,0,1-1.58.55A10.11,10.11,0,0,1,228.62,282.41Zm-.4-8.74a1.79,1.79,0,0,0-1.41.57,2.65,2.65,0,0,0-.59,1.62h4a2.36,2.36,0,0,0-.54-1.62A1.87,1.87,0,0,0,228.22,273.67Z"/><path class="f" d="M244.72,282.22h-2.83v-6.05a2.91,2.91,0,0,0-.4-1.69,1.45,1.45,0,0,0-1.27-.56,1.89,1.89,0,0,0-1.71.79,4.86,4.86,0,0,0-.53,2.63v4.88h-2.83V271.85h2.16l.38,1.33h.16a3,3,0,0,1,1.3-1.14,4.52,4.52,0,0,1,1.89-.38,3.57,3.57,0,0,1,2.74,1,3.89,3.89,0,0,1,.94,2.82Z"/><path class="f" d="M256.7,282.24a4.32,4.32,0,0,1-1.3,3.39,5.72,5.72,0,0,1-3.89,1.16,11.17,11.17,0,0,1-3.88-.61v-2.27a10.34,10.34,0,0,0,4.05.8c1.45,0,2.18-.79,2.18-2.36v-.2l.08-1.27h-.08a3.27,3.27,0,0,1-2.94,1.53A3.34,3.34,0,0,1,248,281a6.64,6.64,0,0,1-1-3.91,6.54,6.54,0,0,1,1.07-4,3.43,3.43,0,0,1,2.92-1.42,3.49,3.49,0,0,1,3,1.52h.07l.23-1.33h2.4Zm-4.77-2.05a1.91,1.91,0,0,0,1.63-.65,3.56,3.56,0,0,0,.49-2.12v-.35a4.25,4.25,0,0,0-.51-2.38,1.88,1.88,0,0,0-1.66-.73c-1.33,0-2,1-2,3.13a4.27,4.27,0,0,0,.5,2.33A1.68,1.68,0,0,0,251.93,280.19Z"/><path class="f" d="M259.54,269.17c0-.92.51-1.38,1.54-1.38s1.54.46,1.54,1.38a1.36,1.36,0,0,1-.39,1,1.62,1.62,0,0,1-1.15.36C260.05,270.56,259.54,270.1,259.54,269.17Zm2.95,13.05h-2.83V271.85h2.83Z"/><path class="f" d="M275,282.22H272.2v-6.05a2.91,2.91,0,0,0-.4-1.69,1.45,1.45,0,0,0-1.27-.56,1.89,1.89,0,0,0-1.71.79,4.86,4.86,0,0,0-.53,2.63v4.88h-2.83V271.85h2.16l.38,1.33h.16a3,3,0,0,1,1.3-1.14,4.52,4.52,0,0,1,1.89-.38,3.59,3.59,0,0,1,2.74,1,3.89,3.89,0,0,1,.94,2.82Z"/><path class="f" d="M282.64,282.41a5.37,5.37,0,0,1-3.92-1.38,5.24,5.24,0,0,1-1.41-3.92,5.75,5.75,0,0,1,1.31-4,4.63,4.63,0,0,1,3.6-1.42,4.52,4.52,0,0,1,3.42,1.25,4.72,4.72,0,0,1,1.23,3.46v1.37h-6.69a2.76,2.76,0,0,0,.71,1.89,2.53,2.53,0,0,0,1.88.67,7.81,7.81,0,0,0,1.77-.19,8.91,8.91,0,0,0,1.74-.62v2.19a6.87,6.87,0,0,1-1.58.55A10,10,0,0,1,282.64,282.41Zm-.4-8.74a1.79,1.79,0,0,0-1.41.57,2.58,2.58,0,0,0-.58,1.62h4a2.41,2.41,0,0,0-.55-1.62A1.85,1.85,0,0,0,282.24,273.67Z"/><path class="f" d="M293.86,282.41A5.35,5.35,0,0,1,290,281a5.24,5.24,0,0,1-1.41-3.92,5.75,5.75,0,0,1,1.3-4,4.64,4.64,0,0,1,3.61-1.42,4.55,4.55,0,0,1,3.42,1.25,4.72,4.72,0,0,1,1.22,3.46v1.37h-6.68a2.72,2.72,0,0,0,.71,1.89,2.52,2.52,0,0,0,1.87.67,7.84,7.84,0,0,0,1.78-.19,9.39,9.39,0,0,0,1.74-.62v2.19a6.79,6.79,0,0,1-1.59.55A10,10,0,0,1,293.86,282.41Zm-.4-8.74a1.82,1.82,0,0,0-1.41.57,2.64,2.64,0,0,0-.58,1.62h4a2.31,2.31,0,0,0-.55-1.62A1.84,1.84,0,0,0,293.46,273.67Z"/><path class="f" d="M306.18,271.66a4.3,4.3,0,0,1,1,.08l-.21,2.65a3.37,3.37,0,0,0-.84-.09,3,3,0,0,0-2.11.7,2.51,2.51,0,0,0-.75,1.94v5.28H300.4V271.85h2.14l.42,1.75h.13a4,4,0,0,1,1.31-1.41A3.17,3.17,0,0,1,306.18,271.66Z"/><path class="f" d="M316.26,279.14a2.84,2.84,0,0,1-1.11,2.43,5.45,5.45,0,0,1-3.32.84,10.73,10.73,0,0,1-1.93-.15,8.61,8.61,0,0,1-1.49-.45v-2.34a10,10,0,0,0,1.78.62,7.06,7.06,0,0,0,1.74.25c1,0,1.54-.3,1.54-.89a.73.73,0,0,0-.21-.54,2.93,2.93,0,0,0-.7-.48c-.34-.17-.78-.38-1.34-.61a9,9,0,0,1-1.76-.93,2.66,2.66,0,0,1-.81-1,3.23,3.23,0,0,1-.26-1.36,2.48,2.48,0,0,1,1.07-2.14,5.27,5.27,0,0,1,3-.75,8.69,8.69,0,0,1,3.65.81l-.86,2a14.76,14.76,0,0,0-1.45-.54,4.33,4.33,0,0,0-1.38-.22c-.84,0-1.26.23-1.26.68a.81.81,0,0,0,.41.66,11.47,11.47,0,0,0,1.77.83,8.41,8.41,0,0,1,1.78.91,2.86,2.86,0,0,1,.83,1A3,3,0,0,1,316.26,279.14Z"/><path class="f" d="M67.17,346.46a3.5,3.5,0,0,1-1.32,2.89,5.72,5.72,0,0,1-3.68,1.06,8.54,8.54,0,0,1-3.84-.82v-2.67a15.12,15.12,0,0,0,2.32.86,6.82,6.82,0,0,0,1.74.25,2.52,2.52,0,0,0,1.46-.36,1.25,1.25,0,0,0,.5-1.07,1.15,1.15,0,0,0-.22-.71,2.44,2.44,0,0,0-.66-.6,16.24,16.24,0,0,0-1.75-.92,8.46,8.46,0,0,1-1.87-1.12,4.41,4.41,0,0,1-1-1.25,3.57,3.57,0,0,1-.37-1.67,3.46,3.46,0,0,1,1.22-2.83,5,5,0,0,1,3.37-1,7.82,7.82,0,0,1,2,.25,13.43,13.43,0,0,1,2,.7l-.93,2.24a11.77,11.77,0,0,0-1.8-.62,5.58,5.58,0,0,0-1.39-.18,1.85,1.85,0,0,0-1.25.38,1.33,1.33,0,0,0-.26,1.66,1.82,1.82,0,0,0,.56.54,14.58,14.58,0,0,0,1.82.95,7.29,7.29,0,0,1,2.61,1.83A3.54,3.54,0,0,1,67.17,346.46Z"/><path class="f" d="M76,350.22l-.54-1.41h-.08a4.06,4.06,0,0,1-1.47,1.25,4.76,4.76,0,0,1-2,.35,3.21,3.21,0,0,1-2.35-.85,3.3,3.3,0,0,1-.86-2.44,2.73,2.73,0,0,1,1.16-2.43,6.75,6.75,0,0,1,3.48-.87l1.8-.05v-.46a1.41,1.41,0,0,0-1.62-1.57,7.4,7.4,0,0,0-2.92.75l-.93-1.91a8.34,8.34,0,0,1,4-.94,4.94,4.94,0,0,1,3.2.91A3.36,3.36,0,0,1,78,343.31v6.91Zm-.83-4.8-1.1,0a3.46,3.46,0,0,0-1.83.44,1.41,1.41,0,0,0-.61,1.24q0,1.2,1.38,1.2a2.16,2.16,0,0,0,1.57-.57,2,2,0,0,0,.59-1.5Z"/><path class="f" d="M83.71,350.22H80.88V335.79h2.83Z"/><path class="f" d="M91.38,350.41A5.37,5.37,0,0,1,87.46,349a5.24,5.24,0,0,1-1.41-3.92,5.79,5.79,0,0,1,1.3-4A4.64,4.64,0,0,1,91,339.66a4.54,4.54,0,0,1,3.42,1.25,4.72,4.72,0,0,1,1.23,3.46v1.37H88.92a2.76,2.76,0,0,0,.71,1.89,2.53,2.53,0,0,0,1.88.67,7.81,7.81,0,0,0,1.77-.19,9.14,9.14,0,0,0,1.74-.62v2.19a6.87,6.87,0,0,1-1.58.55A10.11,10.11,0,0,1,91.38,350.41Zm-.4-8.74a1.79,1.79,0,0,0-1.41.57,2.65,2.65,0,0,0-.59,1.62h4a2.36,2.36,0,0,0-.54-1.62A1.87,1.87,0,0,0,91,341.67Z"/><path class="f" d="M105.14,347.14a2.86,2.86,0,0,1-1.1,2.43,5.47,5.47,0,0,1-3.32.84,10.57,10.57,0,0,1-1.93-.15,8.72,8.72,0,0,1-1.5-.45v-2.34a10,10,0,0,0,1.78.62,7.06,7.06,0,0,0,1.74.25c1,0,1.54-.3,1.54-.89a.77.77,0,0,0-.2-.54,3,3,0,0,0-.71-.48c-.33-.17-.78-.38-1.33-.61a8.75,8.75,0,0,1-1.76-.93,2.6,2.6,0,0,1-.82-1,3.24,3.24,0,0,1-.25-1.36,2.46,2.46,0,0,1,1.07-2.14,5.25,5.25,0,0,1,3-.75,8.65,8.65,0,0,1,3.64.81l-.85,2c-.52-.22-1-.4-1.46-.54a4.33,4.33,0,0,0-1.38-.22c-.84,0-1.25.23-1.25.68a.8.8,0,0,0,.4.66,12,12,0,0,0,1.77.83,8.16,8.16,0,0,1,1.78.91,2.66,2.66,0,0,1,.83,1A3,3,0,0,1,105.14,347.14Z"/><path class="f" d="M110.12,348.23a28.06,28.06,0,0,1-1.63,4.44h-2c.4-1.64.72-3.19.94-4.65H110Z"/><path class="f" d="M126.77,350.24a4.32,4.32,0,0,1-1.3,3.39,5.72,5.72,0,0,1-3.89,1.16,11.07,11.07,0,0,1-3.87-.61v-2.27a10.26,10.26,0,0,0,4,.8c1.45,0,2.18-.79,2.18-2.36v-.2l.08-1.27h-.08a3.27,3.27,0,0,1-2.94,1.53A3.34,3.34,0,0,1,118.1,349a6.64,6.64,0,0,1-1-3.91,6.54,6.54,0,0,1,1.07-4,3.43,3.43,0,0,1,2.92-1.42,3.49,3.49,0,0,1,3,1.52h.07l.24-1.33h2.39ZM122,348.19a1.91,1.91,0,0,0,1.63-.65,3.56,3.56,0,0,0,.49-2.12v-.34a4.26,4.26,0,0,0-.51-2.39A1.88,1.88,0,0,0,122,342c-1.33,0-2,1-2,3.13a4.27,4.27,0,0,0,.5,2.33A1.68,1.68,0,0,0,122,348.19Z"/><path class="f" d="M134.42,350.41a5.35,5.35,0,0,1-3.91-1.38,5.24,5.24,0,0,1-1.41-3.92,5.75,5.75,0,0,1,1.3-4,4.64,4.64,0,0,1,3.61-1.42,4.55,4.55,0,0,1,3.42,1.25,4.72,4.72,0,0,1,1.22,3.46v1.37H132a2.77,2.77,0,0,0,.72,1.89,2.5,2.5,0,0,0,1.87.67,7.69,7.69,0,0,0,1.77-.19,9.22,9.22,0,0,0,1.75-.62v2.19a7.12,7.12,0,0,1-1.59.55A10,10,0,0,1,134.42,350.41Zm-.4-8.74a1.79,1.79,0,0,0-1.41.57,2.64,2.64,0,0,0-.58,1.62h4a2.36,2.36,0,0,0-.55-1.62A1.85,1.85,0,0,0,134,341.67Z"/><path class="f" d="M150.53,350.22H147.7v-6.05a2.91,2.91,0,0,0-.4-1.69,1.47,1.47,0,0,0-1.27-.56,1.92,1.92,0,0,0-1.72.79,5,5,0,0,0-.53,2.63v4.88H141V339.85h2.17l.38,1.33h.15A3,3,0,0,1,145,340a4.51,4.51,0,0,1,1.88-.38,3.6,3.6,0,0,1,2.75,1,3.89,3.89,0,0,1,.94,2.82Z"/><path class="f" d="M158.14,350.41a5.37,5.37,0,0,1-3.92-1.38,5.24,5.24,0,0,1-1.41-3.92,5.79,5.79,0,0,1,1.3-4,4.64,4.64,0,0,1,3.61-1.42,4.54,4.54,0,0,1,3.42,1.25,4.72,4.72,0,0,1,1.23,3.46v1.37h-6.69a2.76,2.76,0,0,0,.71,1.89,2.53,2.53,0,0,0,1.88.67,7.81,7.81,0,0,0,1.77-.19,9.14,9.14,0,0,0,1.74-.62v2.19a6.87,6.87,0,0,1-1.58.55A10.11,10.11,0,0,1,158.14,350.41Zm-.4-8.74a1.79,1.79,0,0,0-1.41.57,2.65,2.65,0,0,0-.59,1.62h4a2.36,2.36,0,0,0-.54-1.62A1.87,1.87,0,0,0,157.74,341.67Z"/><path class="f" d="M170.46,339.66a4.26,4.26,0,0,1,.95.08l-.21,2.65a3.37,3.37,0,0,0-.84-.09,3,3,0,0,0-2.11.7,2.51,2.51,0,0,0-.75,1.94v5.28h-2.83V339.85h2.14l.42,1.75h.14a3.83,3.83,0,0,1,1.3-1.41A3.18,3.18,0,0,1,170.46,339.66Z"/><path class="f" d="M179.7,350.22l-.55-1.41h-.08a4.06,4.06,0,0,1-1.47,1.25,4.76,4.76,0,0,1-2,.35,3.22,3.22,0,0,1-2.35-.85,3.3,3.3,0,0,1-.86-2.44,2.73,2.73,0,0,1,1.16-2.43,6.75,6.75,0,0,1,3.48-.87l1.8-.05v-.46a1.41,1.41,0,0,0-1.61-1.57,7.4,7.4,0,0,0-2.93.75l-.93-1.91a8.37,8.37,0,0,1,4-.94,4.92,4.92,0,0,1,3.2.91,3.36,3.36,0,0,1,1.11,2.76v6.91Zm-.84-4.8-1.09,0a3.47,3.47,0,0,0-1.84.44,1.4,1.4,0,0,0-.6,1.24c0,.8.45,1.2,1.37,1.2a2.15,2.15,0,0,0,1.57-.57,1.94,1.94,0,0,0,.59-1.5Z"/><path class="f" d="M187.42,350.22h-2.83V335.79h2.83Z"/><path class="f" d="M208.09,350.22h-3.5l-1.07-1.05a6.8,6.8,0,0,1-4,1.24,5.7,5.7,0,0,1-3.59-1,3.38,3.38,0,0,1-1.32-2.81,4,4,0,0,1,.56-2.17,5.32,5.32,0,0,1,1.92-1.67,6,6,0,0,1-1-1.53,3.92,3.92,0,0,1-.31-1.59,2.75,2.75,0,0,1,1.08-2.27,4.46,4.46,0,0,1,2.89-.86,4.35,4.35,0,0,1,2.76.8,2.57,2.57,0,0,1,1,2.15,3.41,3.41,0,0,1-.64,2,6.31,6.31,0,0,1-2.07,1.74l2.64,2.57a11.19,11.19,0,0,0,1.14-2.79h2.95a12.86,12.86,0,0,1-.92,2.44,10.7,10.7,0,0,1-1.33,2.11Zm-10.52-3.93a1.53,1.53,0,0,0,.6,1.27,2.38,2.38,0,0,0,1.54.47,3.93,3.93,0,0,0,2.1-.56l-3.08-3.06a3.74,3.74,0,0,0-.84.85A1.75,1.75,0,0,0,197.57,346.29Zm3.34-6.58a1,1,0,0,0-.34-.77,1.27,1.27,0,0,0-.86-.28,1.47,1.47,0,0,0-1,.29,1,1,0,0,0-.36.85,2.9,2.9,0,0,0,.88,1.8,5.52,5.52,0,0,0,1.23-.88A1.41,1.41,0,0,0,200.91,339.71Z"/><path class="f" d="M223.93,345a5.56,5.56,0,0,1-1.33,4,4.87,4.87,0,0,1-3.72,1.43,5.17,5.17,0,0,1-2.64-.66,4.34,4.34,0,0,1-1.75-1.87,6.31,6.31,0,0,1-.61-2.86,5.55,5.55,0,0,1,1.32-3.95,4.88,4.88,0,0,1,3.73-1.41,5.19,5.19,0,0,1,2.64.65,4.32,4.32,0,0,1,1.75,1.86A6.23,6.23,0,0,1,223.93,345Zm-7.17,0a4.33,4.33,0,0,0,.51,2.33,1.8,1.8,0,0,0,1.64.79,1.76,1.76,0,0,0,1.63-.79A4.41,4.41,0,0,0,221,345a4.31,4.31,0,0,0-.5-2.31,1.84,1.84,0,0,0-1.65-.77,1.81,1.81,0,0,0-1.63.76A4.35,4.35,0,0,0,216.76,345Z"/><path class="f" d="M230.64,348.16a6,6,0,0,0,1.78-.33v2.11a6.46,6.46,0,0,1-2.6.47,3.19,3.19,0,0,1-2.47-.86,3.71,3.71,0,0,1-.77-2.57v-5h-1.36v-1.2l1.56-.95.82-2.19h1.81v2.21h2.9V342h-2.9v5a1.12,1.12,0,0,0,.33.89A1.37,1.37,0,0,0,230.64,348.16Z"/><path class="f" d="M244.09,350.22h-2.83v-6.05c0-1.5-.55-2.25-1.67-2.25a1.88,1.88,0,0,0-1.71.81,4.85,4.85,0,0,0-.53,2.61v4.88h-2.83V335.79h2.83v2.94c0,.23,0,.77-.07,1.61l-.06.84h.15a3.26,3.26,0,0,1,3-1.52,3.68,3.68,0,0,1,2.78,1,3.92,3.92,0,0,1,.94,2.82Z"/><path class="f" d="M251.7,350.41a5.37,5.37,0,0,1-3.92-1.38,5.24,5.24,0,0,1-1.41-3.92,5.75,5.75,0,0,1,1.31-4,4.63,4.63,0,0,1,3.6-1.42,4.56,4.56,0,0,1,3.43,1.25,4.76,4.76,0,0,1,1.22,3.46v1.37h-6.69a2.72,2.72,0,0,0,.72,1.89,2.5,2.5,0,0,0,1.87.67,7.81,7.81,0,0,0,1.77-.19,8.91,8.91,0,0,0,1.74-.62v2.19a6.87,6.87,0,0,1-1.58.55A10,10,0,0,1,251.7,350.41Zm-.4-8.74a1.79,1.79,0,0,0-1.41.57,2.64,2.64,0,0,0-.58,1.62h4a2.41,2.41,0,0,0-.55-1.62A1.85,1.85,0,0,0,251.3,341.67Z"/><path class="f" d="M264,339.66a4.26,4.26,0,0,1,1,.08l-.21,2.65a3.34,3.34,0,0,0-.83-.09,3,3,0,0,0-2.11.7,2.48,2.48,0,0,0-.76,1.94v5.28h-2.83V339.85h2.14l.42,1.75h.14a3.92,3.92,0,0,1,1.3-1.41A3.2,3.2,0,0,1,264,339.66Z"/><path class="f" d="M277.58,339.66a4.3,4.3,0,0,1,1,.08l-.21,2.65a3.37,3.37,0,0,0-.84-.09,3,3,0,0,0-2.11.7,2.51,2.51,0,0,0-.76,1.94v5.28h-2.83V339.85h2.15l.41,1.75h.14a4,4,0,0,1,1.31-1.41A3.15,3.15,0,0,1,277.58,339.66Z"/><path class="f" d="M289.66,345a5.56,5.56,0,0,1-1.33,4,4.85,4.85,0,0,1-3.72,1.43,5.17,5.17,0,0,1-2.64-.66,4.34,4.34,0,0,1-1.75-1.87,6.31,6.31,0,0,1-.61-2.86,5.55,5.55,0,0,1,1.32-3.95,4.88,4.88,0,0,1,3.73-1.41,5.17,5.17,0,0,1,2.64.65,4.32,4.32,0,0,1,1.75,1.86A6.23,6.23,0,0,1,289.66,345Zm-7.17,0a4.33,4.33,0,0,0,.51,2.33,1.8,1.8,0,0,0,1.64.79,1.76,1.76,0,0,0,1.63-.79,4.41,4.41,0,0,0,.5-2.33,4.31,4.31,0,0,0-.5-2.31,1.84,1.84,0,0,0-1.65-.77,1.81,1.81,0,0,0-1.63.76A4.35,4.35,0,0,0,282.49,345Z"/><path class="f" d="M294.83,350.22H292V335.79h2.83Z"/><path class="f" d="M302.49,350.41a5.35,5.35,0,0,1-3.91-1.38,5.24,5.24,0,0,1-1.41-3.92,5.75,5.75,0,0,1,1.3-4,4.64,4.64,0,0,1,3.61-1.42,4.55,4.55,0,0,1,3.42,1.25,4.72,4.72,0,0,1,1.22,3.46v1.37H300a2.72,2.72,0,0,0,.71,1.89,2.5,2.5,0,0,0,1.87.67,7.69,7.69,0,0,0,1.77-.19,9.22,9.22,0,0,0,1.75-.62v2.19a7,7,0,0,1-1.59.55A10,10,0,0,1,302.49,350.41Zm-.4-8.74a1.79,1.79,0,0,0-1.41.57,2.64,2.64,0,0,0-.58,1.62h4a2.31,2.31,0,0,0-.55-1.62A1.85,1.85,0,0,0,302.09,341.67Z"/><path class="f" d="M316.26,347.14a2.84,2.84,0,0,1-1.11,2.43,5.45,5.45,0,0,1-3.32.84,10.53,10.53,0,0,1-1.92-.15,8.46,8.46,0,0,1-1.5-.45v-2.34a10,10,0,0,0,1.78.62,7.06,7.06,0,0,0,1.74.25c1,0,1.54-.3,1.54-.89a.73.73,0,0,0-.21-.54,2.93,2.93,0,0,0-.7-.48c-.33-.17-.78-.38-1.34-.61a9,9,0,0,1-1.76-.93,2.66,2.66,0,0,1-.81-1,3.23,3.23,0,0,1-.26-1.36,2.48,2.48,0,0,1,1.07-2.14,5.27,5.27,0,0,1,3-.75,8.69,8.69,0,0,1,3.65.81l-.85,2c-.52-.22-1-.4-1.46-.54a4.33,4.33,0,0,0-1.38-.22c-.84,0-1.26.23-1.26.68a.81.81,0,0,0,.41.66,12,12,0,0,0,1.77.83,8.16,8.16,0,0,1,1.78.91,2.86,2.86,0,0,1,.83,1A3,3,0,0,1,316.26,347.14Z"/><path d="M690.83,146.41H677.62v-3l4.6-4.65c.94-1,1.68-1.77,2.24-2.4a7.61,7.61,0,0,0,1.18-1.65,3.43,3.43,0,0,0,.35-1.52,1.73,1.73,0,0,0-.58-1.44,2.37,2.37,0,0,0-1.47-.46,4.15,4.15,0,0,0-1.94.5,11.77,11.77,0,0,0-2.07,1.43l-2.42-2.84a17.73,17.73,0,0,1,1.72-1.36,8,8,0,0,1,2.15-1,9.55,9.55,0,0,1,3-.41,7.33,7.33,0,0,1,3.23.67,5.09,5.09,0,0,1,2.08,1.79,4.74,4.74,0,0,1,.72,2.59,6.7,6.7,0,0,1-.59,2.83A10.06,10.06,0,0,1,688,138c-.78.83-1.74,1.76-2.86,2.8l-1.93,1.77v.16h7.6Z"/><path d="M705.18,132a4.33,4.33,0,0,1-.55,2.24,4.63,4.63,0,0,1-1.47,1.55,6.69,6.69,0,0,1-2,.89v.08a6.17,6.17,0,0,1,3.41,1.37,3.82,3.82,0,0,1,1.19,3,5.27,5.27,0,0,1-.8,2.84,5.56,5.56,0,0,1-2.49,2,10.63,10.63,0,0,1-4.32.75,15.37,15.37,0,0,1-3-.26,14.19,14.19,0,0,1-2.48-.75v-3.72a10.73,10.73,0,0,0,2.5.92,10.62,10.62,0,0,0,2.39.3,4.35,4.35,0,0,0,2.74-.64,2.16,2.16,0,0,0,.77-1.75,2,2,0,0,0-.36-1.2,2.35,2.35,0,0,0-1.29-.75,9.77,9.77,0,0,0-2.59-.26h-1.27V135.2h1.3a8.15,8.15,0,0,0,2.44-.28,2.28,2.28,0,0,0,1.21-.8,2,2,0,0,0,.35-1.15c0-1.22-.8-1.82-2.39-1.82a5.22,5.22,0,0,0-2.28.47,16.89,16.89,0,0,0-1.54.8l-1.95-3a10.72,10.72,0,0,1,2.6-1.31,10.89,10.89,0,0,1,3.69-.54,7.87,7.87,0,0,1,4.52,1.15A3.69,3.69,0,0,1,705.18,132Z"/><path d="M711.94,127.58a4.1,4.1,0,0,1,3.4,1.53,6.62,6.62,0,0,1,1.22,4.27,7.15,7.15,0,0,1-1.14,4.31,4,4,0,0,1-3.48,1.54,4,4,0,0,1-3.33-1.54,6.88,6.88,0,0,1-1.2-4.31,7.13,7.13,0,0,1,1.12-4.27A4,4,0,0,1,711.94,127.58Zm0,2.87c-.4,0-.68.25-.85.75a7.71,7.71,0,0,0-.24,2.21,8.09,8.09,0,0,0,.24,2.24c.17.52.45.78.85.78s.68-.26.84-.78a7.67,7.67,0,0,0,.25-2.24,7.31,7.31,0,0,0-.25-2.21Q712.59,130.45,712,130.45Zm13.57-2.6-10.3,18.56h-3.38l10.3-18.56Zm-.1,7.15a4.1,4.1,0,0,1,3.4,1.52,6.62,6.62,0,0,1,1.22,4.27,7.17,7.17,0,0,1-1.14,4.31,4,4,0,0,1-3.48,1.54,4,4,0,0,1-3.33-1.54,6.9,6.9,0,0,1-1.2-4.31,7.13,7.13,0,0,1,1.12-4.27A3.94,3.94,0,0,1,725.46,135Zm0,2.83c-.4,0-.68.26-.85.78a10.3,10.3,0,0,0,0,4.42c.17.52.45.78.85.78.73,0,1.09-1,1.09-3S726.24,137.83,725.51,137.83Z"/><path d="M688,213.74h-4.47v-10c0-.22,0-.56,0-1s0-.93,0-1.43,0-1,0-1.35a7,7,0,0,1-.57.61c-.24.23-.47.44-.67.61l-2.14,1.74L678,200.14l6.17-5H688Z"/><path d="M694.52,213.74l6.68-14.87h-8.63v-3.69h13.34v2.7l-6.79,15.86Z"/><path d="M711.94,194.92a4.13,4.13,0,0,1,3.4,1.52,6.63,6.63,0,0,1,1.22,4.28,7.13,7.13,0,0,1-1.14,4.3,4,4,0,0,1-3.48,1.55,4,4,0,0,1-3.33-1.55,6.87,6.87,0,0,1-1.2-4.3,7.15,7.15,0,0,1,1.12-4.28A4,4,0,0,1,711.94,194.92Zm0,2.86c-.4,0-.68.25-.85.75a7.76,7.76,0,0,0-.24,2.21,8,8,0,0,0,.24,2.24c.17.52.45.78.85.78s.68-.26.84-.78a7.62,7.62,0,0,0,.25-2.24,7.35,7.35,0,0,0-.25-2.21Q712.59,197.78,712,197.78Zm13.57-2.6-10.3,18.56h-3.38l10.3-18.56Zm-.1,7.15a4.1,4.1,0,0,1,3.4,1.52,6.63,6.63,0,0,1,1.22,4.28,7.13,7.13,0,0,1-1.14,4.3,4,4,0,0,1-3.48,1.55,4,4,0,0,1-3.33-1.55,6.87,6.87,0,0,1-1.2-4.3,7.15,7.15,0,0,1,1.12-4.28A3.94,3.94,0,0,1,725.46,202.33Zm0,2.83c-.4,0-.68.26-.85.78a10.3,10.3,0,0,0,0,4.42c.17.52.45.78.85.78.73,0,1.09-1,1.09-3S726.24,205.16,725.51,205.16Z"/><path d="M688,281.08h-4.47v-10c0-.23,0-.57,0-1s0-.93,0-1.43,0-.95,0-1.35a5.84,5.84,0,0,1-.57.61c-.24.24-.47.44-.67.61l-2.14,1.74L678,267.48l6.17-5H688Z"/><path d="M694.52,281.08l6.68-14.88h-8.63v-3.69h13.34v2.71l-6.79,15.86Z"/><path d="M711.94,262.25a4.13,4.13,0,0,1,3.4,1.52,6.65,6.65,0,0,1,1.22,4.28,7.11,7.11,0,0,1-1.14,4.3,4,4,0,0,1-3.48,1.55,4,4,0,0,1-3.33-1.55,6.85,6.85,0,0,1-1.2-4.3,7.17,7.17,0,0,1,1.12-4.28A4,4,0,0,1,711.94,262.25Zm0,2.86c-.4,0-.68.25-.85.76a7.71,7.71,0,0,0-.24,2.21,8,8,0,0,0,.24,2.23c.17.52.45.78.85.78s.68-.26.84-.78a7.55,7.55,0,0,0,.25-2.23,7.31,7.31,0,0,0-.25-2.21C712.67,265.36,712.39,265.11,712,265.11Zm13.57-2.6-10.3,18.57h-3.38l10.3-18.57Zm-.1,7.15a4.13,4.13,0,0,1,3.4,1.52,6.65,6.65,0,0,1,1.22,4.28,7.11,7.11,0,0,1-1.14,4.3,4,4,0,0,1-3.48,1.55,4,4,0,0,1-3.33-1.55,6.85,6.85,0,0,1-1.2-4.3,7.17,7.17,0,0,1,1.12-4.28A4,4,0,0,1,725.46,269.66Zm0,2.84c-.4,0-.68.26-.85.78a10.3,10.3,0,0,0,0,4.42c.17.52.45.78.85.78.73,0,1.09-1,1.09-3S726.24,272.5,725.51,272.5Z"/><path d="M690.15,334a4.33,4.33,0,0,1-.55,2.24,4.63,4.63,0,0,1-1.47,1.55,6.69,6.69,0,0,1-2,.89v.08a6.13,6.13,0,0,1,3.41,1.37,3.78,3.78,0,0,1,1.2,3,5.19,5.19,0,0,1-.81,2.84,5.53,5.53,0,0,1-2.48,2,10.68,10.68,0,0,1-4.33.75,15.26,15.26,0,0,1-3-.26,14,14,0,0,1-2.49-.75v-3.72a11.16,11.16,0,0,0,4.89,1.22,4.4,4.4,0,0,0,2.75-.64,2.15,2.15,0,0,0,.76-1.75,2,2,0,0,0-.36-1.2,2.28,2.28,0,0,0-1.29-.75,9.72,9.72,0,0,0-2.59-.26h-1.27V337.2h1.3a8.1,8.1,0,0,0,2.44-.28,2.24,2.24,0,0,0,1.21-.8,1.91,1.91,0,0,0,.35-1.15c0-1.22-.79-1.82-2.39-1.82a5.15,5.15,0,0,0-2.27.47,16,16,0,0,0-1.55.8l-2-3a10.38,10.38,0,0,1,6.29-1.85,7.91,7.91,0,0,1,4.53,1.15A3.7,3.7,0,0,1,690.15,334Z"/><path d="M705.85,337.88a18.64,18.64,0,0,1-.45,4.17,9.51,9.51,0,0,1-1.54,3.45,7.24,7.24,0,0,1-2.91,2.32,10.84,10.84,0,0,1-4.59.85c-.36,0-.79,0-1.28,0s-.91-.07-1.24-.12V345a11,11,0,0,0,2.29.23,7.26,7.26,0,0,0,3.42-.66,3.7,3.7,0,0,0,1.7-1.86,8.25,8.25,0,0,0,.57-2.76h-.15a5,5,0,0,1-1.38,1.54,4.36,4.36,0,0,1-2.55.62,4.82,4.82,0,0,1-3.77-1.56,6.4,6.4,0,0,1-1.4-4.42,6.48,6.48,0,0,1,1.71-4.77,6.37,6.37,0,0,1,4.71-1.73,6.93,6.93,0,0,1,3.48.89,6.06,6.06,0,0,1,2.47,2.71A10.44,10.44,0,0,1,705.85,337.88Zm-6.76-4.73a2.06,2.06,0,0,0-1.63.7,3.24,3.24,0,0,0-.63,2.21,3,3,0,0,0,.55,1.92,2,2,0,0,0,1.66.71,2.23,2.23,0,0,0,1.74-.75,2.29,2.29,0,0,0,.68-1.57,4.62,4.62,0,0,0-.26-1.52,2.92,2.92,0,0,0-.78-1.22A1.89,1.89,0,0,0,699.09,333.15Z"/><path d="M711.94,329.58a4.1,4.1,0,0,1,3.4,1.53,6.62,6.62,0,0,1,1.22,4.27,7.15,7.15,0,0,1-1.14,4.31,4,4,0,0,1-3.48,1.54,4,4,0,0,1-3.33-1.54,6.88,6.88,0,0,1-1.2-4.31,7.13,7.13,0,0,1,1.12-4.27A4,4,0,0,1,711.94,329.58Zm0,2.87c-.4,0-.68.25-.85.75a7.71,7.71,0,0,0-.24,2.21,8,8,0,0,0,.24,2.23c.17.53.45.79.85.79s.68-.26.84-.79a7.55,7.55,0,0,0,.25-2.23,7.31,7.31,0,0,0-.25-2.21Q712.59,332.45,712,332.45Zm13.57-2.6-10.3,18.56h-3.38l10.3-18.56Zm-.1,7.15a4.1,4.1,0,0,1,3.4,1.52,6.62,6.62,0,0,1,1.22,4.27,7.17,7.17,0,0,1-1.14,4.31,4,4,0,0,1-3.48,1.54,4,4,0,0,1-3.33-1.54,6.9,6.9,0,0,1-1.2-4.31,7.13,7.13,0,0,1,1.12-4.27A3.94,3.94,0,0,1,725.46,337Zm0,2.83c-.4,0-.68.26-.85.78a10.3,10.3,0,0,0,0,4.42c.17.52.45.78.85.78.73,0,1.09-1,1.09-3S726.24,339.83,725.51,339.83Z"/><path class="g" d="M651.2,430.94h-8.48v-1.78l3-3.08c.9-.92,1.49-1.57,1.76-1.92a4.21,4.21,0,0,0,.6-1,2.59,2.59,0,0,0,.18-.95,1.38,1.38,0,0,0-.4-1.09,1.53,1.53,0,0,0-1.07-.35,3,3,0,0,0-1.37.32,6.53,6.53,0,0,0-1.39.92l-1.39-1.65a8.84,8.84,0,0,1,1.48-1.08,5.84,5.84,0,0,1,1.29-.49,6.71,6.71,0,0,1,1.56-.17,4.57,4.57,0,0,1,2,.42,3.2,3.2,0,0,1,1.35,1.16,3.1,3.1,0,0,1,.48,1.71,4.29,4.29,0,0,1-.29,1.57,6.13,6.13,0,0,1-.91,1.51,23.69,23.69,0,0,1-2.18,2.2l-1.56,1.47v.12h5.28Z"/><path class="g" d="M660.86,424.88a8.48,8.48,0,0,1-1,4.7,3.63,3.63,0,0,1-3.21,1.53,3.58,3.58,0,0,1-3.17-1.58,8.32,8.32,0,0,1-1.07-4.65,8.56,8.56,0,0,1,1-4.74,4,4,0,0,1,6.37.07A8.33,8.33,0,0,1,660.86,424.88Zm-5.94,0a9.41,9.41,0,0,0,.39,3.2,1.35,1.35,0,0,0,2.59,0,9,9,0,0,0,.4-3.18,9.13,9.13,0,0,0-.4-3.21,1.36,1.36,0,0,0-1.29-1,1.34,1.34,0,0,0-1.3,1A9.43,9.43,0,0,0,654.92,424.88Z"/><path class="g" d="M670.64,430.94h-8.48v-1.78l3.05-3.08c.9-.92,1.49-1.57,1.77-1.92a4.5,4.5,0,0,0,.59-1,2.41,2.41,0,0,0,.19-.95,1.38,1.38,0,0,0-.41-1.09,1.53,1.53,0,0,0-1.07-.35,3,3,0,0,0-1.37.32,6.79,6.79,0,0,0-1.39.92l-1.39-1.65a9.27,9.27,0,0,1,1.48-1.08,6,6,0,0,1,1.29-.49,6.84,6.84,0,0,1,1.56-.17,4.57,4.57,0,0,1,2,.42,3.2,3.2,0,0,1,1.35,1.16,3.1,3.1,0,0,1,.48,1.71,4.1,4.1,0,0,1-.29,1.57,6.13,6.13,0,0,1-.91,1.51,23.69,23.69,0,0,1-2.18,2.2l-1.56,1.47v.12h5.28Z"/><path class="g" d="M680.3,424.88a8.48,8.48,0,0,1-1,4.7,3.63,3.63,0,0,1-3.21,1.53,3.58,3.58,0,0,1-3.17-1.58,8.33,8.33,0,0,1-1.06-4.65,8.57,8.57,0,0,1,1-4.74,4,4,0,0,1,6.37.07A8.33,8.33,0,0,1,680.3,424.88Zm-5.94,0a9.41,9.41,0,0,0,.39,3.2,1.35,1.35,0,0,0,2.59,0,9,9,0,0,0,.4-3.18,9.13,9.13,0,0,0-.4-3.21,1.35,1.35,0,0,0-2.59,0A9.43,9.43,0,0,0,674.36,424.88Z"/><path class="g" d="M689.6,431.11a3,3,0,0,1-2.56-1.27,5.8,5.8,0,0,1-.94-3.52,5.88,5.88,0,0,1,.95-3.56,3.09,3.09,0,0,1,2.62-1.27,3,3,0,0,1,2.67,1.36h.09a10.09,10.09,0,0,1-.19-1.85v-3h2.54v12.91h-1.95l-.49-1.2h-.1A2.92,2.92,0,0,1,689.6,431.11Zm.89-2a1.75,1.75,0,0,0,1.43-.56,3.34,3.34,0,0,0,.49-1.92v-.27a3.75,3.75,0,0,0-.46-2.14,1.7,1.7,0,0,0-1.5-.65,1.48,1.48,0,0,0-1.31.72,3.73,3.73,0,0,0-.47,2.08,3.61,3.61,0,0,0,.47,2.06A1.56,1.56,0,0,0,690.49,429.09Z"/><path class="g" d="M703.32,430.94l-.49-1.26h-.07a3.78,3.78,0,0,1-1.31,1.12,4.26,4.26,0,0,1-1.77.31,2.88,2.88,0,0,1-2.1-.76,3,3,0,0,1-.77-2.18,2.45,2.45,0,0,1,1-2.18,6,6,0,0,1,3.12-.77l1.61-.05v-.41a1.26,1.26,0,0,0-1.44-1.41,6.53,6.53,0,0,0-2.62.67l-.84-1.71a7.54,7.54,0,0,1,3.56-.84,4.37,4.37,0,0,1,2.86.82,3,3,0,0,1,1,2.47v6.18Zm-.75-4.3-1,0a3,3,0,0,0-1.64.4,1.24,1.24,0,0,0-.54,1.11c0,.71.41,1.07,1.23,1.07a1.93,1.93,0,0,0,1.4-.51,1.78,1.78,0,0,0,.53-1.34Z"/><path class="g" d="M711.6,429.09a5.33,5.33,0,0,0,1.6-.29v1.89a5.78,5.78,0,0,1-2.33.42,2.85,2.85,0,0,1-2.21-.77,3.35,3.35,0,0,1-.7-2.3v-4.48h-1.21v-1.07l1.4-.84.73-2h1.62v2h2.6v1.9h-2.6V428a1,1,0,0,0,.3.79A1.15,1.15,0,0,0,711.6,429.09Z"/><path class="g" d="M721,430.94l-.49-1.26h-.06a3.8,3.8,0,0,1-1.32,1.12,4.21,4.21,0,0,1-1.76.31,2.92,2.92,0,0,1-2.11-.76,3,3,0,0,1-.76-2.18,2.45,2.45,0,0,1,1-2.18,6,6,0,0,1,3.12-.77l1.61-.05v-.41a1.26,1.26,0,0,0-1.45-1.41,6.52,6.52,0,0,0-2.61.67l-.84-1.71a7.53,7.53,0,0,1,3.55-.84,4.4,4.4,0,0,1,2.87.82,3,3,0,0,1,1,2.47v6.18Zm-.74-4.3-1,0a3.07,3.07,0,0,0-1.65.4,1.24,1.24,0,0,0-.54,1.11c0,.71.41,1.07,1.23,1.07a1.94,1.94,0,0,0,1.41-.51,1.78,1.78,0,0,0,.53-1.34Z"/></svg>