<?xml version="1.0" encoding="UTF-8"?><svg xmlns="http://www.w3.org/2000/svg" viewBox="0 0 800 480"><defs><style>.cls-1{fill:#0071bc;}.cls-2{fill:#999;}.cls-3{fill:#98d5f4;}.cls-4{fill:#333;}.cls-5{fill:none;stroke:gray;stroke-miterlimit:10;stroke-width:.93px;}</style></defs><g id="_2022"><line class="cls-5" x1="336.01" y1="380.09" x2="336.01" y2="100.09"/><g><rect class="cls-3" x="336" y="244.05" width="284.61" height="72.95"/><rect class="cls-1" x="336" y="163" width="292" height="72.95"/></g></g><g id="Numbers"><g><path d="M655.49,208.41l6.68-14.87h-8.63v-3.69h13.34v2.7l-6.79,15.86h-4.6Z"/><path d="M681.85,197.88c0,1.47-.15,2.86-.46,4.17-.3,1.31-.82,2.46-1.53,3.44-.72,.99-1.69,1.76-2.91,2.33-1.22,.56-2.75,.84-4.59,.84-.36,0-.79-.01-1.29-.04-.49-.03-.91-.07-1.23-.12v-3.54c.71,.16,1.47,.23,2.29,.23,1.47,0,2.61-.22,3.42-.66,.81-.44,1.37-1.06,1.7-1.86,.33-.8,.52-1.72,.57-2.76h-.16c-.35,.61-.81,1.12-1.38,1.53-.57,.42-1.42,.62-2.55,.62-1.58,0-2.83-.52-3.77-1.56-.94-1.04-1.4-2.51-1.4-4.42,0-2.03,.57-3.62,1.72-4.77,1.14-1.15,2.71-1.73,4.71-1.73,1.28,0,2.44,.29,3.48,.88,1.04,.59,1.86,1.5,2.47,2.72,.61,1.22,.91,2.78,.91,4.67Zm-6.76-4.73c-.68,0-1.22,.23-1.64,.7-.42,.47-.62,1.21-.62,2.21,0,.81,.18,1.46,.55,1.92,.36,.47,.92,.7,1.66,.7s1.29-.25,1.74-.74c.45-.49,.68-1.02,.68-1.57,0-.52-.09-1.03-.26-1.52s-.43-.9-.78-1.22-.79-.48-1.33-.48Z"/><path d="M687.94,189.58c1.46,0,2.59,.51,3.41,1.52,.81,1.01,1.22,2.44,1.22,4.28s-.38,3.27-1.14,4.3c-.76,1.03-1.92,1.55-3.48,1.55-1.42,0-2.53-.52-3.33-1.55-.8-1.03-1.2-2.47-1.2-4.3s.37-3.26,1.12-4.28c.75-1.01,1.88-1.52,3.41-1.52Zm.05,2.86c-.4,0-.68,.25-.84,.75-.17,.5-.25,1.24-.25,2.21s.08,1.72,.25,2.24,.45,.78,.84,.78,.68-.26,.85-.78c.16-.52,.25-1.27,.25-2.24s-.08-1.71-.25-2.21c-.17-.5-.45-.75-.85-.75Zm13.57-2.6l-10.3,18.56h-3.38l10.3-18.56h3.38Zm-.1,7.15c1.46,0,2.59,.51,3.41,1.52s1.22,2.44,1.22,4.28-.38,3.27-1.14,4.3-1.92,1.55-3.48,1.55c-1.42,0-2.53-.52-3.33-1.55-.8-1.03-1.2-2.47-1.2-4.3s.37-3.26,1.12-4.28,1.88-1.52,3.41-1.52Zm.05,2.83c-.4,0-.68,.26-.84,.78-.17,.52-.25,1.26-.25,2.21s.08,1.69,.25,2.21c.16,.52,.45,.78,.84,.78,.73,0,1.09-1,1.09-2.99s-.36-2.99-1.09-2.99Z"/></g><g><path d="M655.49,292.41l6.68-14.87h-8.63v-3.69h13.34v2.7l-6.79,15.86h-4.6Z"/><path d="M670.52,292.41l6.68-14.87h-8.63v-3.69h13.34v2.7l-6.79,15.86h-4.6Z"/><path d="M687.94,273.58c1.46,0,2.59,.51,3.41,1.52,.81,1.01,1.22,2.44,1.22,4.28s-.38,3.27-1.14,4.3c-.76,1.03-1.92,1.55-3.48,1.55-1.42,0-2.53-.52-3.33-1.55-.8-1.03-1.2-2.47-1.2-4.3s.37-3.26,1.12-4.28c.75-1.01,1.88-1.52,3.41-1.52Zm.05,2.86c-.4,0-.68,.25-.84,.75-.17,.5-.25,1.24-.25,2.21s.08,1.72,.25,2.24,.45,.78,.84,.78,.68-.26,.85-.78c.16-.52,.25-1.27,.25-2.24s-.08-1.71-.25-2.21c-.17-.5-.45-.75-.85-.75Zm13.57-2.6l-10.3,18.56h-3.38l10.3-18.56h3.38Zm-.1,7.15c1.46,0,2.59,.51,3.41,1.52s1.22,2.44,1.22,4.28-.38,3.27-1.14,4.3-1.92,1.55-3.48,1.55c-1.42,0-2.53-.52-3.33-1.55-.8-1.03-1.2-2.47-1.2-4.3s.37-3.26,1.12-4.28,1.88-1.52,3.41-1.52Zm.05,2.83c-.4,0-.68,.26-.84,.78-.17,.52-.25,1.26-.25,2.21s.08,1.69,.25,2.21c.16,.52,.45,.78,.84,.78,.73,0,1.09-1,1.09-2.99s-.36-2.99-1.09-2.99Z"/></g></g><g id="Labels-EN"><g><path class="cls-4" d="M162.6,208.22l-.98-3.23h-4.95l-.98,3.23h-3.1l4.79-13.62h3.52l4.81,13.62h-3.1Zm-1.67-5.64c-.91-2.93-1.42-4.58-1.54-4.96-.11-.38-.2-.69-.25-.91-.2,.79-.79,2.75-1.75,5.87h3.53Z"/><path class="cls-4" d="M170.02,208.22h-2.83v-14.44h2.83v14.44Z"/><path class="cls-4" d="M175.82,208.22h-2.83v-14.44h2.83v14.44Z"/><path class="cls-4" d="M194.98,194.66v8.78c0,1-.22,1.88-.67,2.63-.45,.75-1.1,1.33-1.94,1.73-.85,.4-1.85,.6-3.01,.6-1.74,0-3.1-.45-4.06-1.34-.96-.89-1.45-2.12-1.45-3.67v-8.74h2.87v8.3c0,1.05,.21,1.81,.63,2.3,.42,.49,1.12,.73,2.09,.73s1.62-.25,2.05-.74c.42-.49,.64-1.26,.64-2.31v-8.28h2.87Z"/><path class="cls-4" d="M206.31,204.46c0,1.22-.44,2.19-1.32,2.89-.88,.71-2.11,1.06-3.68,1.06-1.45,0-2.73-.27-3.84-.82v-2.67c.92,.41,1.69,.7,2.32,.86,.63,.17,1.21,.25,1.74,.25,.63,0,1.11-.12,1.45-.36,.34-.24,.5-.6,.5-1.08,0-.27-.07-.5-.22-.71-.15-.21-.37-.41-.65-.6-.29-.19-.87-.5-1.76-.92-.83-.39-1.45-.76-1.86-1.12-.41-.36-.75-.78-.99-1.25-.25-.48-.37-1.03-.37-1.67,0-1.2,.41-2.14,1.22-2.83,.81-.69,1.94-1.03,3.37-1.03,.71,0,1.38,.08,2.02,.25,.64,.17,1.31,.4,2.01,.71l-.93,2.24c-.72-.3-1.32-.5-1.79-.62-.47-.12-.94-.18-1.4-.18-.54,0-.96,.13-1.25,.38-.29,.25-.44,.58-.44,.99,0,.25,.06,.47,.18,.66,.12,.19,.3,.37,.56,.55,.26,.18,.86,.49,1.82,.95,1.27,.61,2.14,1.21,2.61,1.82,.47,.61,.71,1.36,.71,2.24Z"/><path class="cls-4" d="M218.17,208.41c-1.67,0-2.97-.46-3.92-1.38-.94-.92-1.41-2.23-1.41-3.92s.43-3.08,1.3-4.03c.87-.95,2.07-1.42,3.6-1.42s2.61,.42,3.42,1.25,1.22,1.99,1.22,3.46v1.37h-6.69c.03,.8,.27,1.43,.71,1.88,.45,.45,1.07,.68,1.87,.68,.62,0,1.21-.06,1.77-.19s1.14-.34,1.74-.62v2.19c-.49,.25-1.02,.43-1.59,.55-.56,.12-1.25,.18-2.06,.18Zm-.4-8.74c-.6,0-1.07,.19-1.41,.57-.34,.38-.53,.92-.58,1.62h3.97c-.01-.7-.2-1.24-.55-1.62-.35-.38-.83-.57-1.43-.57Z"/><path class="cls-4" d="M233.99,208.22h-2.83v-6.06c0-.75-.12-1.31-.38-1.68-.25-.37-.64-.56-1.18-.56-.72,0-1.25,.27-1.58,.8-.33,.53-.49,1.41-.49,2.63v4.88h-2.83v-10.37h2.16l.38,1.33h.16c.28-.48,.68-.85,1.21-1.12,.53-.27,1.13-.4,1.81-.4,1.55,0,2.6,.51,3.15,1.52h.25c.28-.48,.69-.86,1.23-1.12,.54-.27,1.15-.4,1.83-.4,1.17,0,2.06,.3,2.67,.9s.9,1.57,.9,2.9v6.76h-2.84v-6.06c0-.75-.12-1.31-.38-1.68-.25-.37-.64-.56-1.18-.56-.69,0-1.21,.25-1.55,.74-.34,.5-.51,1.28-.51,2.36v5.2Z"/><path class="cls-4" d="M249.06,208.41c-1.22,0-2.17-.44-2.87-1.33h-.15c.1,.87,.15,1.37,.15,1.5v4.2h-2.83v-14.94h2.3l.4,1.35h.13c.66-1.03,1.64-1.54,2.94-1.54,1.22,0,2.18,.47,2.88,1.42s1.04,2.26,1.04,3.94c0,1.11-.16,2.07-.49,2.89-.32,.82-.79,1.44-1.39,1.86s-1.3,.64-2.12,.64Zm-.83-8.49c-.7,0-1.21,.21-1.53,.65-.32,.43-.49,1.14-.5,2.13v.31c0,1.11,.17,1.91,.5,2.39,.33,.48,.85,.72,1.57,.72,1.27,0,1.9-1.04,1.9-3.14,0-1.02-.16-1.79-.47-2.3-.31-.51-.8-.77-1.47-.77Z"/><path class="cls-4" d="M258.22,208.22h-2.83v-14.44h2.83v14.44Z"/><path class="cls-4" d="M270.61,203.02c0,1.69-.45,3.01-1.34,3.96-.89,.95-2.13,1.43-3.72,1.43-1,0-1.87-.22-2.63-.65-.76-.44-1.34-1.06-1.75-1.88s-.61-1.77-.61-2.86c0-1.69,.44-3.01,1.33-3.95,.88-.94,2.13-1.41,3.73-1.41,1,0,1.87,.22,2.63,.65,.76,.43,1.34,1.05,1.75,1.86,.41,.81,.61,1.76,.61,2.85Zm-7.17,0c0,1.03,.17,1.8,.51,2.33,.34,.53,.89,.79,1.65,.79s1.3-.26,1.63-.78c.33-.52,.5-1.3,.5-2.33s-.17-1.8-.5-2.31c-.33-.51-.88-.77-1.64-.77s-1.3,.26-1.63,.77c-.33,.51-.5,1.28-.5,2.31Z"/><path class="cls-4" d="M271.28,197.85h3.1l1.96,5.84c.17,.51,.28,1.11,.34,1.8h.06c.07-.64,.2-1.24,.4-1.8l1.92-5.84h3.03l-4.39,11.7c-.4,1.08-.98,1.89-1.72,2.43-.75,.54-1.62,.81-2.61,.81-.49,0-.97-.05-1.44-.16v-2.25c.34,.08,.71,.12,1.11,.12,.5,0,.94-.15,1.31-.46,.37-.31,.67-.77,.88-1.39l.17-.51-4.12-10.3Z"/><path class="cls-4" d="M288.27,208.41c-1.67,0-2.97-.46-3.92-1.38-.94-.92-1.41-2.23-1.41-3.92s.43-3.08,1.3-4.03c.87-.95,2.07-1.42,3.6-1.42s2.61,.42,3.42,1.25,1.22,1.99,1.22,3.46v1.37h-6.69c.03,.8,.27,1.43,.71,1.88,.45,.45,1.07,.68,1.87,.68,.62,0,1.21-.06,1.77-.19s1.14-.34,1.74-.62v2.19c-.49,.25-1.02,.43-1.59,.55-.56,.12-1.25,.18-2.06,.18Zm-.4-8.74c-.6,0-1.07,.19-1.41,.57-.34,.38-.53,.92-.58,1.62h3.97c-.01-.7-.2-1.24-.55-1.62-.35-.38-.83-.57-1.43-.57Z"/><path class="cls-4" d="M299.49,208.41c-1.67,0-2.97-.46-3.92-1.38-.94-.92-1.41-2.23-1.41-3.92s.43-3.08,1.3-4.03c.87-.95,2.07-1.42,3.6-1.42s2.61,.42,3.42,1.25,1.22,1.99,1.22,3.46v1.37h-6.69c.03,.8,.27,1.43,.71,1.88,.45,.45,1.07,.68,1.87,.68,.62,0,1.21-.06,1.77-.19s1.14-.34,1.74-.62v2.19c-.49,.25-1.02,.43-1.59,.55-.56,.12-1.25,.18-2.06,.18Zm-.4-8.74c-.6,0-1.07,.19-1.41,.57-.34,.38-.53,.92-.58,1.62h3.97c-.01-.7-.2-1.24-.55-1.62-.35-.38-.83-.57-1.43-.57Z"/><path class="cls-4" d="M313.26,205.14c0,1.06-.37,1.87-1.11,2.43-.74,.56-1.84,.83-3.32,.83-.75,0-1.4-.05-1.93-.15-.53-.1-1.03-.25-1.49-.45v-2.34c.53,.25,1.12,.45,1.78,.62,.66,.17,1.24,.25,1.74,.25,1.03,0,1.54-.3,1.54-.89,0-.22-.07-.4-.2-.54-.14-.14-.37-.3-.71-.47-.33-.18-.78-.38-1.34-.62-.8-.33-1.38-.64-1.76-.93-.37-.28-.65-.61-.82-.98-.17-.37-.25-.82-.25-1.36,0-.92,.36-1.63,1.07-2.14,.71-.5,1.73-.76,3.04-.76s2.46,.27,3.65,.82l-.85,2.04c-.52-.22-1-.4-1.46-.55-.45-.14-.91-.21-1.38-.21-.83,0-1.25,.23-1.25,.68,0,.25,.13,.47,.4,.66,.27,.19,.86,.46,1.77,.83,.81,.33,1.4,.63,1.78,.92,.38,.28,.66,.61,.83,.98,.18,.37,.27,.81,.27,1.33Z"/><path class="cls-4" d="M123.79,289.22l-3.27-10.64h-.08c.12,2.17,.18,3.61,.18,4.33v6.31h-2.57v-13.56h3.92l3.21,10.37h.06l3.41-10.37h3.91v13.56h-2.68v-6.42c0-.3,0-.65,.01-1.05,0-.4,.05-1.45,.13-3.15h-.08l-3.5,10.62h-2.63Z"/><path class="cls-4" d="M142.32,289.22l-.55-1.41h-.07c-.48,.6-.97,1.02-1.47,1.25-.5,.23-1.16,.35-1.97,.35-1,0-1.78-.28-2.35-.85-.57-.57-.86-1.38-.86-2.43s.38-1.91,1.16-2.44c.77-.52,1.93-.81,3.48-.87l1.8-.06v-.45c0-1.05-.54-1.58-1.61-1.58-.83,0-1.8,.25-2.92,.75l-.94-1.91c1.19-.62,2.52-.94,3.97-.94s2.46,.3,3.2,.91c.74,.61,1.11,1.53,1.11,2.76v6.91h-1.98Zm-.83-4.81l-1.09,.04c-.82,.02-1.43,.17-1.84,.45-.4,.27-.6,.69-.6,1.24,0,.8,.46,1.2,1.37,1.2,.66,0,1.18-.19,1.57-.57,.39-.38,.59-.88,.59-1.5v-.85Z"/><path class="cls-4" d="M156.79,289.22h-2.83v-6.06c0-.75-.13-1.31-.4-1.68-.27-.37-.69-.56-1.27-.56-.79,0-1.36,.26-1.72,.79-.35,.53-.53,1.41-.53,2.63v4.88h-2.83v-10.37h2.16l.38,1.33h.16c.32-.5,.75-.88,1.3-1.14,.55-.26,1.18-.39,1.89-.39,1.21,0,2.12,.33,2.75,.98,.62,.65,.94,1.59,.94,2.82v6.76Z"/><path class="cls-4" d="M166.29,289.22l-.55-1.41h-.07c-.48,.6-.97,1.02-1.47,1.25-.5,.23-1.16,.35-1.97,.35-1,0-1.78-.28-2.35-.85-.57-.57-.86-1.38-.86-2.43s.38-1.91,1.16-2.44c.77-.52,1.93-.81,3.48-.87l1.8-.06v-.45c0-1.05-.54-1.58-1.61-1.58-.83,0-1.8,.25-2.92,.75l-.94-1.91c1.19-.62,2.52-.94,3.97-.94s2.46,.3,3.2,.91c.74,.61,1.11,1.53,1.11,2.76v6.91h-1.98Zm-.83-4.81l-1.09,.04c-.82,.02-1.43,.17-1.84,.45-.4,.27-.6,.69-.6,1.24,0,.8,.46,1.2,1.37,1.2,.66,0,1.18-.19,1.57-.57,.39-.38,.59-.88,.59-1.5v-.85Z"/><path class="cls-4" d="M180.24,289.24c0,1.49-.44,2.62-1.3,3.39-.87,.77-2.16,1.16-3.88,1.16-1.52,0-2.81-.2-3.88-.61v-2.26c1.26,.53,2.6,.8,4.04,.8s2.18-.79,2.18-2.36v-.2l.08-1.27h-.08c-.66,1.02-1.64,1.53-2.94,1.53s-2.21-.48-2.89-1.44c-.68-.96-1.03-2.26-1.03-3.92s.35-3.03,1.06-3.98c.71-.95,1.68-1.42,2.93-1.42s2.28,.51,3.01,1.52h.07l.23-1.33h2.39v10.39Zm-4.77-2.05c.76,0,1.31-.22,1.63-.65,.33-.44,.49-1.14,.49-2.12v-.34c0-1.11-.17-1.9-.51-2.39-.34-.49-.9-.73-1.66-.73-1.33,0-2,1.05-2,3.14,0,1.04,.17,1.82,.5,2.33,.33,.51,.85,.77,1.54,.77Z"/><path class="cls-4" d="M187.89,289.41c-1.67,0-2.97-.46-3.92-1.38-.94-.92-1.41-2.23-1.41-3.92s.43-3.08,1.3-4.03c.87-.95,2.07-1.42,3.6-1.42s2.61,.42,3.42,1.25,1.22,1.99,1.22,3.46v1.37h-6.69c.03,.8,.27,1.43,.71,1.88,.45,.45,1.07,.68,1.87,.68,.62,0,1.21-.06,1.77-.19s1.14-.34,1.74-.62v2.19c-.49,.25-1.02,.43-1.59,.55-.56,.12-1.25,.18-2.06,.18Zm-.4-8.74c-.6,0-1.07,.19-1.41,.57-.34,.38-.53,.92-.58,1.62h3.97c-.01-.7-.2-1.24-.55-1.62-.35-.38-.83-.57-1.43-.57Z"/><path class="cls-4" d="M200.21,278.66c.38,0,.7,.03,.96,.08l-.21,2.65c-.23-.06-.51-.09-.83-.09-.9,0-1.61,.23-2.11,.7-.5,.46-.76,1.11-.76,1.95v5.28h-2.83v-10.37h2.14l.42,1.74h.14c.32-.58,.76-1.05,1.3-1.41,.55-.36,1.14-.53,1.79-.53Z"/><path class="cls-4" d="M210.29,286.14c0,1.06-.37,1.87-1.11,2.43-.74,.56-1.84,.83-3.32,.83-.75,0-1.4-.05-1.93-.15-.53-.1-1.03-.25-1.49-.45v-2.34c.53,.25,1.12,.45,1.78,.62,.66,.17,1.24,.25,1.74,.25,1.03,0,1.54-.3,1.54-.89,0-.22-.07-.4-.2-.54-.14-.14-.37-.3-.71-.47-.33-.18-.78-.38-1.34-.62-.8-.33-1.38-.64-1.76-.93-.37-.28-.65-.61-.82-.98-.17-.37-.25-.82-.25-1.36,0-.92,.36-1.63,1.07-2.14,.71-.5,1.73-.76,3.04-.76s2.46,.27,3.65,.82l-.85,2.04c-.52-.22-1-.4-1.46-.55-.45-.14-.91-.21-1.38-.21-.83,0-1.25,.23-1.25,.68,0,.25,.13,.47,.4,.66,.27,.19,.86,.46,1.77,.83,.81,.33,1.4,.63,1.78,.92,.38,.28,.66,.61,.83,.98,.18,.37,.27,.81,.27,1.33Z"/><path class="cls-4" d="M224.02,289.22l-.55-1.41h-.07c-.48,.6-.97,1.02-1.47,1.25-.5,.23-1.16,.35-1.97,.35-1,0-1.78-.28-2.35-.85-.57-.57-.86-1.38-.86-2.43s.38-1.91,1.16-2.44c.77-.52,1.93-.81,3.48-.87l1.8-.06v-.45c0-1.05-.54-1.58-1.61-1.58-.83,0-1.8,.25-2.92,.75l-.94-1.91c1.19-.62,2.52-.94,3.97-.94s2.46,.3,3.2,.91c.74,.61,1.11,1.53,1.11,2.76v6.91h-1.98Zm-.83-4.81l-1.09,.04c-.82,.02-1.43,.17-1.84,.45-.4,.27-.6,.69-.6,1.24,0,.8,.46,1.2,1.37,1.2,.66,0,1.18-.19,1.57-.57,.39-.38,.59-.88,.59-1.5v-.85Z"/><path class="cls-4" d="M238.48,289.22h-2.83v-6.06c0-.75-.13-1.31-.4-1.68-.27-.37-.69-.56-1.27-.56-.79,0-1.36,.26-1.72,.79-.35,.53-.53,1.41-.53,2.63v4.88h-2.83v-10.37h2.16l.38,1.33h.16c.32-.5,.75-.88,1.3-1.14,.55-.26,1.18-.39,1.89-.39,1.21,0,2.12,.33,2.75,.98,.62,.65,.94,1.59,.94,2.82v6.76Z"/><path class="cls-4" d="M244.68,289.41c-1.22,0-2.18-.47-2.87-1.42-.7-.95-1.04-2.26-1.04-3.93s.35-3.03,1.06-3.98c.71-.95,1.68-1.42,2.93-1.42,1.3,0,2.3,.51,2.99,1.52h.09c-.14-.77-.21-1.46-.21-2.07v-3.32h2.84v14.44h-2.17l-.55-1.35h-.12c-.64,1.02-1.62,1.53-2.94,1.53Zm.99-2.25c.72,0,1.25-.21,1.59-.63,.34-.42,.52-1.13,.55-2.14v-.31c0-1.11-.17-1.91-.51-2.39-.34-.48-.9-.72-1.67-.72-.63,0-1.12,.27-1.47,.8-.35,.54-.52,1.31-.52,2.33s.18,1.79,.53,2.3c.35,.51,.86,.77,1.51,.77Z"/><path class="cls-4" d="M264.94,289.22l-.55-1.41h-.07c-.48,.6-.97,1.02-1.47,1.25-.5,.23-1.16,.35-1.97,.35-1,0-1.78-.28-2.35-.85-.57-.57-.86-1.38-.86-2.43s.38-1.91,1.16-2.44c.77-.52,1.93-.81,3.48-.87l1.8-.06v-.45c0-1.05-.54-1.58-1.61-1.58-.83,0-1.8,.25-2.92,.75l-.94-1.91c1.19-.62,2.52-.94,3.97-.94s2.46,.3,3.2,.91c.74,.61,1.11,1.53,1.11,2.76v6.91h-1.98Zm-.83-4.81l-1.09,.04c-.82,.02-1.43,.17-1.84,.45-.4,.27-.6,.69-.6,1.24,0,.8,.46,1.2,1.37,1.2,.66,0,1.18-.19,1.57-.57,.39-.38,.59-.88,.59-1.5v-.85Z"/><path class="cls-4" d="M275.6,278.66c1.22,0,2.18,.48,2.88,1.43,.69,.96,1.04,2.27,1.04,3.93s-.36,3.04-1.07,3.98c-.71,.94-1.69,1.41-2.92,1.41s-2.17-.44-2.87-1.33h-.2l-.47,1.14h-2.16v-14.44h2.83v3.36c0,.43-.04,1.11-.11,2.05h.11c.66-1.03,1.64-1.54,2.94-1.54Zm-.91,2.26c-.7,0-1.21,.21-1.53,.65-.32,.43-.49,1.14-.5,2.13v.31c0,1.11,.17,1.91,.5,2.39,.33,.48,.85,.72,1.57,.72,.58,0,1.04-.27,1.39-.8,.34-.54,.52-1.31,.52-2.33s-.17-1.79-.52-2.3c-.35-.51-.82-.77-1.42-.77Z"/><path class="cls-4" d="M291.28,284.02c0,1.69-.45,3.01-1.34,3.96-.89,.95-2.13,1.43-3.72,1.43-1,0-1.87-.22-2.63-.65-.76-.44-1.34-1.06-1.75-1.88s-.61-1.77-.61-2.86c0-1.69,.44-3.01,1.33-3.95,.88-.94,2.13-1.41,3.73-1.41,1,0,1.87,.22,2.63,.65,.76,.43,1.34,1.05,1.75,1.86,.41,.81,.61,1.76,.61,2.85Zm-7.17,0c0,1.03,.17,1.8,.51,2.33,.34,.53,.89,.79,1.65,.79s1.3-.26,1.63-.78c.33-.52,.5-1.3,.5-2.33s-.17-1.8-.5-2.31c-.33-.51-.88-.77-1.64-.77s-1.3,.26-1.63,.77c-.33,.51-.5,1.28-.5,2.31Z"/><path class="cls-4" d="M295.9,289.22l-3.95-10.37h2.96l2,5.91c.21,.64,.34,1.35,.4,2.12h.07c.04-.7,.18-1.41,.42-2.12l2-5.91h2.96l-3.95,10.37h-2.9Z"/><path class="cls-4" d="M308.94,289.41c-1.67,0-2.97-.46-3.92-1.38-.94-.92-1.41-2.23-1.41-3.92s.43-3.08,1.3-4.03c.87-.95,2.07-1.42,3.6-1.42s2.61,.42,3.42,1.25,1.22,1.99,1.22,3.46v1.37h-6.69c.03,.8,.27,1.43,.71,1.88,.45,.45,1.07,.68,1.87,.68,.62,0,1.21-.06,1.77-.19s1.14-.34,1.74-.62v2.19c-.49,.25-1.02,.43-1.59,.55-.56,.12-1.25,.18-2.06,.18Zm-.4-8.74c-.6,0-1.07,.19-1.41,.57-.34,.38-.53,.92-.58,1.62h3.97c-.01-.7-.2-1.24-.55-1.62-.35-.38-.83-.57-1.43-.57Z"/></g><g><path class="cls-2" d="M117.39,411.01l-.34,3.05,3.1-.86,.27,2.09-2.82,.2,1.85,2.46-1.88,1-1.29-2.6-1.14,2.58-1.96-.99,1.83-2.46-2.8-.22,.32-2.08,3.03,.86-.34-3.05h2.17Z"/><path class="cls-2" d="M129.9,423.93l-.88-2.89h-4.42l-.88,2.89h-2.77l4.28-12.19h3.15l4.3,12.19h-2.77Zm-1.49-5.05c-.81-2.62-1.27-4.1-1.37-4.44-.1-.34-.18-.61-.22-.81-.18,.71-.71,2.46-1.57,5.25h3.16Z"/><path class="cls-2" d="M139.13,416.55h-2.19v7.38h-2.53v-7.38h-1.39v-1.22l1.39-.68v-.68c0-1.06,.26-1.83,.78-2.32,.52-.49,1.35-.73,2.5-.73,.87,0,1.65,.13,2.33,.39l-.65,1.86c-.51-.16-.98-.24-1.41-.24-.36,0-.62,.11-.78,.32-.16,.21-.24,.49-.24,.82v.58h2.19v1.9Z"/><path class="cls-2" d="M145.76,414.47c.34,0,.63,.03,.86,.08l-.19,2.37c-.21-.06-.45-.08-.75-.08-.81,0-1.44,.21-1.89,.62-.45,.42-.68,1-.68,1.74v4.72h-2.53v-9.28h1.92l.37,1.56h.12c.29-.52,.68-.94,1.17-1.26,.49-.32,1.02-.48,1.6-.48Z"/><path class="cls-2" d="M148.19,412.25c0-.82,.46-1.24,1.38-1.24s1.38,.41,1.38,1.24c0,.39-.12,.7-.34,.92s-.57,.33-1.03,.33c-.92,0-1.38-.42-1.38-1.25Zm2.64,11.68h-2.53v-9.28h2.53v9.28Z"/><path class="cls-2" d="M157.26,424.09c-2.89,0-4.33-1.59-4.33-4.76,0-1.58,.39-2.78,1.18-3.62s1.91-1.25,3.38-1.25c1.07,0,2.04,.21,2.89,.63l-.75,1.96c-.4-.16-.77-.29-1.11-.39-.34-.1-.69-.15-1.03-.15-1.32,0-1.97,.93-1.97,2.8s.66,2.72,1.97,2.72c.49,0,.94-.06,1.35-.19s.83-.33,1.25-.61v2.17c-.41,.26-.82,.44-1.24,.54s-.94,.15-1.58,.15Z"/><path class="cls-2" d="M168.12,423.93l-.49-1.26h-.07c-.43,.54-.87,.91-1.32,1.12-.45,.21-1.04,.31-1.76,.31-.89,0-1.59-.25-2.1-.76s-.77-1.23-.77-2.17,.34-1.71,1.03-2.18c.69-.47,1.73-.73,3.12-.78l1.61-.05v-.41c0-.94-.48-1.41-1.44-1.41-.74,0-1.61,.22-2.61,.67l-.84-1.71c1.07-.56,2.25-.84,3.55-.84s2.2,.27,2.86,.81c.66,.54,1,1.37,1,2.47v6.18h-1.77Zm-.75-4.3l-.98,.03c-.74,.02-1.28,.16-1.64,.4s-.54,.61-.54,1.11c0,.71,.41,1.07,1.23,1.07,.59,0,1.05-.17,1.41-.51s.53-.79,.53-1.34v-.76Z"/><path class="cls-2" d="M181.06,423.93h-2.53v-5.42c0-.67-.12-1.17-.36-1.51s-.62-.5-1.14-.5c-.71,0-1.22,.24-1.54,.71-.32,.47-.47,1.26-.47,2.35v4.37h-2.53v-9.28h1.93l.34,1.19h.14c.28-.45,.67-.79,1.17-1.02s1.06-.34,1.69-.34c1.08,0,1.9,.29,2.46,.88,.56,.58,.84,1.43,.84,2.53v6.05Z"/><path class="cls-2" d="M195.72,423.93l-.88-2.89h-4.42l-.88,2.89h-2.77l4.28-12.19h3.15l4.3,12.19h-2.77Zm-1.49-5.05c-.81-2.62-1.27-4.1-1.37-4.44-.1-.34-.18-.61-.22-.81-.18,.71-.71,2.46-1.57,5.25h3.16Z"/><path class="cls-2" d="M208.12,423.93h-2.53v-5.42c0-.67-.11-1.17-.34-1.51-.22-.33-.58-.5-1.06-.5-.65,0-1.12,.24-1.41,.71-.29,.48-.44,1.26-.44,2.35v4.37h-2.53v-9.28h1.93l.34,1.19h.14c.25-.43,.61-.76,1.08-1,.47-.24,1.01-.36,1.62-.36,1.39,0,2.33,.45,2.82,1.36h.22c.25-.43,.62-.77,1.1-1s1.03-.36,1.64-.36c1.05,0,1.85,.27,2.39,.81s.81,1.4,.81,2.59v6.05h-2.54v-5.42c0-.67-.11-1.17-.34-1.51-.22-.33-.58-.5-1.06-.5-.62,0-1.08,.22-1.39,.66-.31,.44-.46,1.15-.46,2.11v4.66Z"/><path class="cls-2" d="M220.71,424.09c-1.49,0-2.66-.41-3.5-1.24-.84-.83-1.26-1.99-1.26-3.5s.39-2.76,1.17-3.61,1.85-1.27,3.22-1.27,2.33,.37,3.06,1.12,1.1,1.78,1.1,3.1v1.23h-5.99c.03,.72,.24,1.28,.64,1.69s.96,.61,1.68,.61c.56,0,1.09-.06,1.59-.17s1.02-.3,1.56-.56v1.96c-.44,.22-.92,.39-1.42,.49-.5,.11-1.12,.16-1.84,.16Zm-.36-7.82c-.54,0-.96,.17-1.26,.51-.3,.34-.48,.82-.52,1.45h3.55c-.01-.62-.17-1.11-.49-1.45-.31-.34-.74-.51-1.28-.51Z"/><path class="cls-2" d="M231.73,414.47c.34,0,.63,.03,.86,.08l-.19,2.37c-.21-.06-.45-.08-.75-.08-.81,0-1.44,.21-1.89,.62-.45,.42-.68,1-.68,1.74v4.72h-2.53v-9.28h1.92l.37,1.56h.12c.29-.52,.68-.94,1.17-1.26,.49-.32,1.02-.48,1.6-.48Z"/><path class="cls-2" d="M234.17,412.25c0-.82,.46-1.24,1.38-1.24s1.38,.41,1.38,1.24c0,.39-.12,.7-.34,.92s-.57,.33-1.03,.33c-.92,0-1.38-.42-1.38-1.25Zm2.64,11.68h-2.53v-9.28h2.53v9.28Z"/><path class="cls-2" d="M243.23,424.09c-2.89,0-4.33-1.59-4.33-4.76,0-1.58,.39-2.78,1.18-3.62s1.91-1.25,3.38-1.25c1.07,0,2.04,.21,2.89,.63l-.75,1.96c-.4-.16-.77-.29-1.11-.39-.34-.1-.69-.15-1.03-.15-1.32,0-1.97,.93-1.97,2.8s.66,2.72,1.97,2.72c.49,0,.94-.06,1.35-.19s.83-.33,1.25-.61v2.17c-.41,.26-.82,.44-1.24,.54s-.94,.15-1.58,.15Z"/><path class="cls-2" d="M254.09,423.93l-.49-1.26h-.07c-.43,.54-.87,.91-1.32,1.12-.45,.21-1.04,.31-1.76,.31-.89,0-1.59-.25-2.1-.76s-.77-1.23-.77-2.17,.34-1.71,1.03-2.18c.69-.47,1.73-.73,3.12-.78l1.61-.05v-.41c0-.94-.48-1.41-1.44-1.41-.74,0-1.61,.22-2.61,.67l-.84-1.71c1.07-.56,2.25-.84,3.55-.84s2.2,.27,2.86,.81c.66,.54,1,1.37,1,2.47v6.18h-1.77Zm-.75-4.3l-.98,.03c-.74,.02-1.28,.16-1.64,.4s-.54,.61-.54,1.11c0,.71,.41,1.07,1.23,1.07,.59,0,1.05-.17,1.41-.51s.53-.79,.53-1.34v-.76Z"/><path class="cls-2" d="M267.04,423.93h-2.53v-5.42c0-.67-.12-1.17-.36-1.51s-.62-.5-1.14-.5c-.71,0-1.22,.24-1.54,.71-.32,.47-.47,1.26-.47,2.35v4.37h-2.53v-9.28h1.93l.34,1.19h.14c.28-.45,.67-.79,1.17-1.02s1.06-.34,1.69-.34c1.08,0,1.9,.29,2.46,.88,.56,.58,.84,1.43,.84,2.53v6.05Z"/><path class="cls-2" d="M272.12,422.14c-.29,1.12-.78,2.44-1.46,3.98h-1.83c.36-1.47,.64-2.86,.84-4.17h2.32l.12,.19Z"/><path class="cls-2" d="M286.54,423.93l-.88-2.89h-4.42l-.88,2.89h-2.77l4.28-12.19h3.15l4.3,12.19h-2.77Zm-1.49-5.05c-.81-2.62-1.27-4.1-1.37-4.44-.1-.34-.18-.61-.22-.81-.18,.71-.71,2.46-1.57,5.25h3.16Z"/><path class="cls-2" d="M297.11,421.17c0,.95-.33,1.68-.99,2.17s-1.65,.75-2.97,.75c-.68,0-1.25-.05-1.73-.14-.48-.09-.92-.23-1.34-.4v-2.09c.47,.22,1,.41,1.59,.56,.59,.15,1.11,.22,1.56,.22,.92,0,1.38-.27,1.38-.8,0-.2-.06-.36-.18-.49-.12-.12-.33-.27-.63-.42-.3-.16-.7-.34-1.2-.55-.71-.3-1.24-.58-1.57-.83-.33-.25-.58-.55-.73-.88s-.23-.73-.23-1.22c0-.82,.32-1.46,.96-1.91,.64-.45,1.54-.68,2.72-.68s2.21,.24,3.26,.73l-.76,1.83c-.46-.2-.9-.36-1.3-.49-.4-.13-.82-.19-1.24-.19-.75,0-1.12,.2-1.12,.61,0,.23,.12,.42,.36,.59,.24,.17,.77,.41,1.58,.74,.73,.29,1.26,.57,1.59,.82,.34,.25,.59,.55,.75,.88,.16,.33,.24,.73,.24,1.19Z"/><path class="cls-2" d="M298.98,412.25c0-.82,.46-1.24,1.38-1.24s1.38,.41,1.38,1.24c0,.39-.12,.7-.34,.92s-.57,.33-1.03,.33c-.92,0-1.38-.42-1.38-1.25Zm2.64,11.68h-2.53v-9.28h2.53v9.28Z"/><path class="cls-2" d="M310.17,423.93l-.49-1.26h-.07c-.43,.54-.87,.91-1.32,1.12-.45,.21-1.04,.31-1.76,.31-.89,0-1.59-.25-2.1-.76s-.77-1.23-.77-2.17,.34-1.71,1.03-2.18c.69-.47,1.73-.73,3.12-.78l1.61-.05v-.41c0-.94-.48-1.41-1.44-1.41-.74,0-1.61,.22-2.61,.67l-.84-1.71c1.07-.56,2.25-.84,3.55-.84s2.2,.27,2.86,.81c.66,.54,1,1.37,1,2.47v6.18h-1.77Zm-.75-4.3l-.98,.03c-.74,.02-1.28,.16-1.64,.4s-.54,.61-.54,1.11c0,.71,.41,1.07,1.23,1.07,.59,0,1.05-.17,1.41-.51s.53-.79,.53-1.34v-.76Z"/><path class="cls-2" d="M323.11,423.93h-2.53v-5.42c0-.67-.12-1.17-.36-1.51s-.62-.5-1.14-.5c-.71,0-1.22,.24-1.54,.71-.32,.47-.47,1.26-.47,2.35v4.37h-2.53v-9.28h1.93l.34,1.19h.14c.28-.45,.67-.79,1.17-1.02s1.06-.34,1.69-.34c1.08,0,1.9,.29,2.46,.88,.56,.58,.84,1.43,.84,2.53v6.05Z"/><path class="cls-2" d="M337.76,423.93l-.88-2.89h-4.42l-.88,2.89h-2.77l4.28-12.19h3.15l4.3,12.19h-2.77Zm-1.49-5.05c-.81-2.62-1.27-4.1-1.37-4.44-.1-.34-.18-.61-.22-.81-.18,.71-.71,2.46-1.57,5.25h3.16Z"/><path class="cls-2" d="M350.17,423.93h-2.53v-5.42c0-.67-.11-1.17-.34-1.51-.22-.33-.58-.5-1.06-.5-.65,0-1.12,.24-1.41,.71-.29,.48-.44,1.26-.44,2.35v4.37h-2.53v-9.28h1.93l.34,1.19h.14c.25-.43,.61-.76,1.08-1,.47-.24,1.01-.36,1.62-.36,1.39,0,2.33,.45,2.82,1.36h.22c.25-.43,.62-.77,1.1-1s1.03-.36,1.64-.36c1.05,0,1.85,.27,2.39,.81s.81,1.4,.81,2.59v6.05h-2.54v-5.42c0-.67-.11-1.17-.34-1.51-.22-.33-.58-.5-1.06-.5-.62,0-1.08,.22-1.39,.66-.31,.44-.46,1.15-.46,2.11v4.66Z"/><path class="cls-2" d="M362.75,424.09c-1.49,0-2.66-.41-3.5-1.24-.84-.83-1.26-1.99-1.26-3.5s.39-2.76,1.17-3.61,1.85-1.27,3.22-1.27,2.33,.37,3.06,1.12,1.1,1.78,1.1,3.1v1.23h-5.99c.03,.72,.24,1.28,.64,1.69s.96,.61,1.68,.61c.56,0,1.09-.06,1.59-.17s1.02-.3,1.56-.56v1.96c-.44,.22-.92,.39-1.42,.49-.5,.11-1.12,.16-1.84,.16Zm-.36-7.82c-.54,0-.96,.17-1.26,.51-.3,.34-.48,.82-.52,1.45h3.55c-.01-.62-.17-1.11-.49-1.45-.31-.34-.74-.51-1.28-.51Z"/><path class="cls-2" d="M373.78,414.47c.34,0,.63,.03,.86,.08l-.19,2.37c-.21-.06-.45-.08-.75-.08-.81,0-1.44,.21-1.89,.62-.45,.42-.68,1-.68,1.74v4.72h-2.53v-9.28h1.92l.37,1.56h.12c.29-.52,.68-.94,1.17-1.26,.49-.32,1.02-.48,1.6-.48Z"/><path class="cls-2" d="M376.21,412.25c0-.82,.46-1.24,1.38-1.24s1.38,.41,1.38,1.24c0,.39-.12,.7-.34,.92s-.57,.33-1.03,.33c-.92,0-1.38-.42-1.38-1.25Zm2.64,11.68h-2.53v-9.28h2.53v9.28Z"/><path class="cls-2" d="M385.27,424.09c-2.89,0-4.33-1.59-4.33-4.76,0-1.58,.39-2.78,1.18-3.62s1.91-1.25,3.38-1.25c1.07,0,2.04,.21,2.89,.63l-.75,1.96c-.4-.16-.77-.29-1.11-.39-.34-.1-.69-.15-1.03-.15-1.32,0-1.97,.93-1.97,2.8s.66,2.72,1.97,2.72c.49,0,.94-.06,1.35-.19s.83-.33,1.25-.61v2.17c-.41,.26-.82,.44-1.24,.54s-.94,.15-1.58,.15Z"/><path class="cls-2" d="M396.14,423.93l-.49-1.26h-.07c-.43,.54-.87,.91-1.32,1.12-.45,.21-1.04,.31-1.76,.31-.89,0-1.59-.25-2.1-.76s-.77-1.23-.77-2.17,.34-1.71,1.03-2.18c.69-.47,1.73-.73,3.12-.78l1.61-.05v-.41c0-.94-.48-1.41-1.44-1.41-.74,0-1.61,.22-2.61,.67l-.84-1.71c1.07-.56,2.25-.84,3.55-.84s2.2,.27,2.86,.81c.66,.54,1,1.37,1,2.47v6.18h-1.77Zm-.75-4.3l-.98,.03c-.74,.02-1.28,.16-1.64,.4s-.54,.61-.54,1.11c0,.71,.41,1.07,1.23,1.07,.59,0,1.05-.17,1.41-.51s.53-.79,.53-1.34v-.76Z"/><path class="cls-2" d="M409.08,423.93h-2.53v-5.42c0-.67-.12-1.17-.36-1.51s-.62-.5-1.14-.5c-.71,0-1.22,.24-1.54,.71-.32,.47-.47,1.26-.47,2.35v4.37h-2.53v-9.28h1.93l.34,1.19h.14c.28-.45,.67-.79,1.17-1.02s1.06-.34,1.69-.34c1.08,0,1.9,.29,2.46,.88,.56,.58,.84,1.43,.84,2.53v6.05Z"/><path class="cls-2" d="M414.17,422.14c-.29,1.12-.78,2.44-1.46,3.98h-1.83c.36-1.47,.64-2.86,.84-4.17h2.32l.12,.19Z"/><path class="cls-2" d="M429.53,415.58c0,1.31-.41,2.3-1.22,3-.82,.69-1.98,1.04-3.48,1.04h-1.1v4.32h-2.57v-12.14h3.88c1.47,0,2.59,.32,3.36,.95s1.15,1.58,1.15,2.83Zm-5.81,1.93h.85c.79,0,1.38-.16,1.78-.47s.59-.77,.59-1.37-.16-1.05-.49-1.34-.85-.43-1.55-.43h-1.17v3.6Z"/><path class="cls-2" d="M437.52,423.93l-.49-1.26h-.07c-.43,.54-.87,.91-1.32,1.12-.45,.21-1.04,.31-1.76,.31-.89,0-1.59-.25-2.1-.76s-.77-1.23-.77-2.17,.34-1.71,1.03-2.18c.69-.47,1.73-.73,3.12-.78l1.61-.05v-.41c0-.94-.48-1.41-1.44-1.41-.74,0-1.61,.22-2.61,.67l-.84-1.71c1.07-.56,2.25-.84,3.55-.84s2.2,.27,2.86,.81c.66,.54,1,1.37,1,2.47v6.18h-1.77Zm-.75-4.3l-.98,.03c-.74,.02-1.28,.16-1.64,.4s-.54,.61-.54,1.11c0,.71,.41,1.07,1.23,1.07,.59,0,1.05-.17,1.41-.51s.53-.79,.53-1.34v-.76Z"/><path class="cls-2" d="M445.66,424.09c-2.89,0-4.33-1.59-4.33-4.76,0-1.58,.39-2.78,1.18-3.62s1.91-1.25,3.38-1.25c1.07,0,2.04,.21,2.89,.63l-.75,1.96c-.4-.16-.77-.29-1.11-.39-.34-.1-.69-.15-1.03-.15-1.32,0-1.97,.93-1.97,2.8s.66,2.72,1.97,2.72c.49,0,.94-.06,1.35-.19s.83-.33,1.25-.61v2.17c-.41,.26-.82,.44-1.24,.54s-.94,.15-1.58,.15Z"/><path class="cls-2" d="M450.53,412.25c0-.82,.46-1.24,1.38-1.24s1.38,.41,1.38,1.24c0,.39-.12,.7-.34,.92s-.57,.33-1.03,.33c-.92,0-1.38-.42-1.38-1.25Zm2.64,11.68h-2.53v-9.28h2.53v9.28Z"/><path class="cls-2" d="M460.95,416.55h-2.19v7.38h-2.53v-7.38h-1.39v-1.22l1.39-.68v-.68c0-1.06,.26-1.83,.78-2.32,.52-.49,1.35-.73,2.5-.73,.87,0,1.65,.13,2.33,.39l-.65,1.86c-.51-.16-.98-.24-1.41-.24-.36,0-.62,.11-.78,.32-.16,.21-.24,.49-.24,.82v.58h2.19v1.9Z"/><path class="cls-2" d="M462.3,412.25c0-.82,.46-1.24,1.38-1.24s1.38,.41,1.38,1.24c0,.39-.12,.7-.34,.92s-.57,.33-1.03,.33c-.92,0-1.38-.42-1.38-1.25Zm2.64,11.68h-2.53v-9.28h2.53v9.28Z"/><path class="cls-2" d="M471.36,424.09c-2.89,0-4.33-1.59-4.33-4.76,0-1.58,.39-2.78,1.18-3.62s1.91-1.25,3.38-1.25c1.07,0,2.04,.21,2.89,.63l-.75,1.96c-.4-.16-.77-.29-1.11-.39-.34-.1-.69-.15-1.03-.15-1.32,0-1.97,.93-1.97,2.8s.66,2.72,1.97,2.72c.49,0,.94-.06,1.35-.19s.83-.33,1.25-.61v2.17c-.41,.26-.82,.44-1.24,.54s-.94,.15-1.58,.15Z"/><path class="cls-2" d="M485.49,423.93h-5.52v-1.46l1.48-.68v-7.85l-1.48-.68v-1.46h5.52v1.46l-1.48,.68v7.85l1.48,.68v1.46Z"/><path class="cls-2" d="M493.84,421.17c0,.95-.33,1.68-.99,2.17s-1.65,.75-2.97,.75c-.68,0-1.25-.05-1.73-.14-.48-.09-.92-.23-1.34-.4v-2.09c.47,.22,1,.41,1.59,.56,.59,.15,1.11,.22,1.56,.22,.92,0,1.38-.27,1.38-.8,0-.2-.06-.36-.18-.49-.12-.12-.33-.27-.63-.42-.3-.16-.7-.34-1.2-.55-.71-.3-1.24-.58-1.57-.83-.33-.25-.58-.55-.73-.88s-.23-.73-.23-1.22c0-.82,.32-1.46,.96-1.91,.64-.45,1.54-.68,2.72-.68s2.21,.24,3.26,.73l-.76,1.83c-.46-.2-.9-.36-1.3-.49-.4-.13-.82-.19-1.24-.19-.75,0-1.12,.2-1.12,.61,0,.23,.12,.42,.36,.59,.24,.17,.77,.41,1.58,.74,.73,.29,1.26,.57,1.59,.82,.34,.25,.59,.55,.75,.88,.16,.33,.24,.73,.24,1.19Z"/><path class="cls-2" d="M498.35,423.93h-2.53v-12.92h2.53v12.92Z"/><path class="cls-2" d="M506.9,423.93l-.49-1.26h-.07c-.43,.54-.87,.91-1.32,1.12-.45,.21-1.04,.31-1.76,.31-.89,0-1.59-.25-2.1-.76s-.77-1.23-.77-2.17,.34-1.71,1.03-2.18c.69-.47,1.73-.73,3.12-.78l1.61-.05v-.41c0-.94-.48-1.41-1.44-1.41-.74,0-1.61,.22-2.61,.67l-.84-1.71c1.07-.56,2.25-.84,3.55-.84s2.2,.27,2.86,.81c.66,.54,1,1.37,1,2.47v6.18h-1.77Zm-.75-4.3l-.98,.03c-.74,.02-1.28,.16-1.64,.4s-.54,.61-.54,1.11c0,.71,.41,1.07,1.23,1.07,.59,0,1.05-.17,1.41-.51s.53-.79,.53-1.34v-.76Z"/><path class="cls-2" d="M519.84,423.93h-2.53v-5.42c0-.67-.12-1.17-.36-1.51s-.62-.5-1.14-.5c-.71,0-1.22,.24-1.54,.71-.32,.47-.47,1.26-.47,2.35v4.37h-2.53v-9.28h1.93l.34,1.19h.14c.28-.45,.67-.79,1.17-1.02s1.06-.34,1.69-.34c1.08,0,1.9,.29,2.46,.88,.56,.58,.84,1.43,.84,2.53v6.05Z"/><path class="cls-2" d="M525.38,424.09c-1.09,0-1.95-.42-2.57-1.27-.62-.85-.93-2.02-.93-3.52s.32-2.71,.95-3.56,1.51-1.27,2.62-1.27c1.17,0,2.06,.45,2.67,1.36h.08c-.13-.69-.19-1.31-.19-1.85v-2.97h2.54v12.92h-1.94l-.49-1.2h-.11c-.58,.91-1.45,1.37-2.63,1.37Zm.89-2.02c.65,0,1.12-.19,1.42-.56,.3-.38,.47-1.01,.49-1.92v-.27c0-1-.15-1.71-.46-2.14-.31-.43-.81-.65-1.5-.65-.56,0-1,.24-1.32,.72s-.47,1.17-.47,2.09,.16,1.6,.47,2.05c.32,.46,.77,.68,1.35,.68Z"/><path class="cls-2" d="M537.4,424.09c-1.49,0-2.66-.41-3.5-1.24-.84-.83-1.26-1.99-1.26-3.5s.39-2.76,1.17-3.61,1.85-1.27,3.22-1.27,2.33,.37,3.06,1.12,1.1,1.78,1.1,3.1v1.23h-5.99c.03,.72,.24,1.28,.64,1.69s.96,.61,1.68,.61c.56,0,1.09-.06,1.59-.17s1.02-.3,1.56-.56v1.96c-.44,.22-.92,.39-1.42,.49-.5,.11-1.12,.16-1.84,.16Zm-.36-7.82c-.54,0-.96,.17-1.26,.51-.3,.34-.48,.82-.52,1.45h3.55c-.01-.62-.17-1.11-.49-1.45-.31-.34-.74-.51-1.28-.51Z"/><path class="cls-2" d="M548.42,414.47c.34,0,.63,.03,.86,.08l-.19,2.37c-.21-.06-.45-.08-.75-.08-.81,0-1.44,.21-1.89,.62-.45,.42-.68,1-.68,1.74v4.72h-2.53v-9.28h1.92l.37,1.56h.12c.29-.52,.68-.94,1.17-1.26,.49-.32,1.02-.48,1.6-.48Z"/><path class="cls-2" d="M553.45,422.14c-.29,1.12-.78,2.44-1.46,3.98h-1.83c.36-1.47,.64-2.86,.84-4.17h2.32l.12,.19Z"/><path class="cls-2" d="M131.98,444.33h-2.57v-5.24h-4.81v5.24h-2.57v-12.14h2.57v4.76h4.81v-4.76h2.57v12.14Z"/><path class="cls-2" d="M134.74,432.65c0-.82,.46-1.24,1.38-1.24s1.38,.41,1.38,1.24c0,.39-.12,.7-.34,.92s-.57,.33-1.03,.33c-.92,0-1.38-.42-1.38-1.25Zm2.64,11.68h-2.53v-9.28h2.53v9.28Z"/><path class="cls-2" d="M146.51,441.57c0,.95-.33,1.68-.99,2.17s-1.65,.75-2.97,.75c-.68,0-1.25-.05-1.73-.14-.48-.09-.92-.23-1.34-.4v-2.09c.47,.22,1,.41,1.59,.56,.59,.15,1.11,.22,1.56,.22,.92,0,1.38-.27,1.38-.8,0-.2-.06-.36-.18-.49-.12-.12-.33-.27-.63-.42-.3-.16-.7-.34-1.2-.55-.71-.3-1.24-.58-1.57-.83-.33-.25-.58-.55-.73-.88s-.23-.73-.23-1.22c0-.82,.32-1.46,.96-1.91,.64-.45,1.54-.68,2.72-.68s2.21,.24,3.26,.73l-.76,1.83c-.46-.2-.9-.36-1.3-.49-.4-.13-.82-.19-1.24-.19-.75,0-1.12,.2-1.12,.61,0,.23,.12,.42,.36,.59,.24,.17,.77,.41,1.58,.74,.73,.29,1.26,.57,1.59,.82,.34,.25,.59,.55,.75,.88,.16,.33,.24,.73,.24,1.19Z"/><path class="cls-2" d="M153.58,444.5c-1.09,0-1.95-.4-2.57-1.19h-.13c.09,.78,.13,1.22,.13,1.35v3.76h-2.53v-13.36h2.06l.36,1.2h.12c.59-.92,1.47-1.38,2.63-1.38,1.1,0,1.95,.42,2.57,1.27s.93,2.02,.93,3.53c0,.99-.15,1.85-.44,2.58-.29,.73-.7,1.29-1.24,1.67-.54,.38-1.17,.57-1.89,.57Zm-.75-7.6c-.62,0-1.08,.19-1.37,.58-.29,.38-.44,1.02-.45,1.91v.27c0,1,.15,1.71,.44,2.14s.77,.65,1.41,.65c1.13,0,1.7-.93,1.7-2.8,0-.91-.14-1.6-.42-2.05-.28-.46-.72-.69-1.32-.69Z"/><path class="cls-2" d="M165.14,444.33l-.49-1.26h-.07c-.43,.54-.87,.91-1.32,1.12-.45,.21-1.04,.31-1.76,.31-.89,0-1.59-.25-2.1-.76s-.77-1.23-.77-2.17,.34-1.71,1.03-2.18c.69-.47,1.73-.73,3.12-.78l1.61-.05v-.41c0-.94-.48-1.41-1.44-1.41-.74,0-1.61,.22-2.61,.67l-.84-1.71c1.07-.56,2.25-.84,3.55-.84s2.2,.27,2.86,.81c.66,.54,1,1.37,1,2.47v6.18h-1.77Zm-.75-4.3l-.98,.03c-.74,.02-1.28,.16-1.64,.4s-.54,.61-.54,1.11c0,.71,.41,1.07,1.23,1.07,.59,0,1.05-.17,1.41-.51s.53-.79,.53-1.34v-.76Z"/><path class="cls-2" d="M178.08,444.33h-2.53v-5.42c0-.67-.12-1.17-.36-1.51s-.62-.5-1.14-.5c-.71,0-1.22,.24-1.54,.71-.32,.47-.47,1.26-.47,2.35v4.37h-2.53v-9.28h1.93l.34,1.19h.14c.28-.45,.67-.79,1.17-1.02s1.06-.34,1.69-.34c1.08,0,1.9,.29,2.46,.88,.56,.58,.84,1.43,.84,2.53v6.05Z"/><path class="cls-2" d="M180.58,432.65c0-.82,.46-1.24,1.38-1.24s1.38,.41,1.38,1.24c0,.39-.12,.7-.34,.92s-.57,.33-1.03,.33c-.92,0-1.38-.42-1.38-1.25Zm2.64,11.68h-2.53v-9.28h2.53v9.28Z"/><path class="cls-2" d="M189.64,444.5c-2.89,0-4.33-1.59-4.33-4.76,0-1.58,.39-2.78,1.18-3.62s1.91-1.25,3.38-1.25c1.07,0,2.04,.21,2.89,.63l-.75,1.96c-.4-.16-.77-.29-1.11-.39-.34-.1-.69-.15-1.03-.15-1.32,0-1.97,.93-1.97,2.8s.66,2.72,1.97,2.72c.49,0,.94-.06,1.35-.19s.83-.33,1.25-.61v2.17c-.41,.26-.82,.44-1.24,.54s-.94,.15-1.58,.15Z"/><path class="cls-2" d="M206.66,444.33l-.88-2.89h-4.42l-.88,2.89h-2.77l4.28-12.19h3.15l4.3,12.19h-2.77Zm-1.49-5.05c-.81-2.62-1.27-4.1-1.37-4.44-.1-.34-.18-.61-.22-.81-.18,.71-.71,2.46-1.57,5.25h3.16Z"/><path class="cls-2" d="M219.07,444.33h-2.53v-5.42c0-.67-.11-1.17-.34-1.51-.22-.33-.58-.5-1.06-.5-.65,0-1.12,.24-1.41,.71-.29,.48-.44,1.26-.44,2.35v4.37h-2.53v-9.28h1.93l.34,1.19h.14c.25-.43,.61-.76,1.08-1,.47-.24,1.01-.36,1.62-.36,1.39,0,2.33,.45,2.82,1.36h.22c.25-.43,.62-.77,1.1-1s1.03-.36,1.64-.36c1.05,0,1.85,.27,2.39,.81s.81,1.4,.81,2.59v6.05h-2.54v-5.42c0-.67-.11-1.17-.34-1.51-.22-.33-.58-.5-1.06-.5-.62,0-1.08,.22-1.39,.66-.31,.44-.46,1.15-.46,2.11v4.66Z"/><path class="cls-2" d="M231.65,444.5c-1.49,0-2.66-.41-3.5-1.24-.84-.83-1.26-1.99-1.26-3.5s.39-2.76,1.17-3.61,1.85-1.27,3.22-1.27,2.33,.37,3.06,1.12,1.1,1.78,1.1,3.1v1.23h-5.99c.03,.72,.24,1.28,.64,1.69s.96,.61,1.68,.61c.56,0,1.09-.06,1.59-.17s1.02-.3,1.56-.56v1.96c-.44,.22-.92,.39-1.42,.49-.5,.11-1.12,.16-1.84,.16Zm-.36-7.82c-.54,0-.96,.17-1.26,.51-.3,.34-.48,.82-.52,1.45h3.55c-.01-.62-.17-1.11-.49-1.45-.31-.34-.74-.51-1.28-.51Z"/><path class="cls-2" d="M242.67,434.87c.34,0,.63,.03,.86,.08l-.19,2.37c-.21-.06-.45-.08-.75-.08-.81,0-1.44,.21-1.89,.62-.45,.42-.68,1-.68,1.74v4.72h-2.53v-9.28h1.92l.37,1.56h.12c.29-.52,.68-.94,1.17-1.26,.49-.32,1.02-.48,1.6-.48Z"/><path class="cls-2" d="M245.11,432.65c0-.82,.46-1.24,1.38-1.24s1.38,.41,1.38,1.24c0,.39-.12,.7-.34,.92s-.57,.33-1.03,.33c-.92,0-1.38-.42-1.38-1.25Zm2.64,11.68h-2.53v-9.28h2.53v9.28Z"/><path class="cls-2" d="M254.17,444.5c-2.89,0-4.33-1.59-4.33-4.76,0-1.58,.39-2.78,1.18-3.62s1.91-1.25,3.38-1.25c1.07,0,2.04,.21,2.89,.63l-.75,1.96c-.4-.16-.77-.29-1.11-.39-.34-.1-.69-.15-1.03-.15-1.32,0-1.97,.93-1.97,2.8s.66,2.72,1.97,2.72c.49,0,.94-.06,1.35-.19s.83-.33,1.25-.61v2.17c-.41,.26-.82,.44-1.24,.54s-.94,.15-1.58,.15Z"/><path class="cls-2" d="M265.04,444.33l-.49-1.26h-.07c-.43,.54-.87,.91-1.32,1.12-.45,.21-1.04,.31-1.76,.31-.89,0-1.59-.25-2.1-.76s-.77-1.23-.77-2.17,.34-1.71,1.03-2.18c.69-.47,1.73-.73,3.12-.78l1.61-.05v-.41c0-.94-.48-1.41-1.44-1.41-.74,0-1.61,.22-2.61,.67l-.84-1.71c1.07-.56,2.25-.84,3.55-.84s2.2,.27,2.86,.81c.66,.54,1,1.37,1,2.47v6.18h-1.77Zm-.75-4.3l-.98,.03c-.74,.02-1.28,.16-1.64,.4s-.54,.61-.54,1.11c0,.71,.41,1.07,1.23,1.07,.59,0,1.05-.17,1.41-.51s.53-.79,.53-1.34v-.76Z"/><path class="cls-2" d="M277.98,444.33h-2.53v-5.42c0-.67-.12-1.17-.36-1.51s-.62-.5-1.14-.5c-.71,0-1.22,.24-1.54,.71-.32,.47-.47,1.26-.47,2.35v4.37h-2.53v-9.28h1.93l.34,1.19h.14c.28-.45,.67-.79,1.17-1.02s1.06-.34,1.69-.34c1.08,0,1.9,.29,2.46,.88,.56,.58,.84,1.43,.84,2.53v6.05Z"/><path class="cls-2" d="M283.07,442.54c-.29,1.12-.78,2.44-1.46,3.98h-1.83c.36-1.47,.64-2.86,.84-4.17h2.32l.12,.19Z"/><path class="cls-2" d="M300.81,444.33h-3.27l-5.28-9.18h-.08c.11,1.62,.16,2.78,.16,3.47v5.71h-2.3v-12.14h3.25l5.27,9.09h.06c-.08-1.58-.12-2.69-.12-3.34v-5.74h2.32v12.14Z"/><path class="cls-2" d="M309.56,444.33l-.49-1.26h-.07c-.43,.54-.87,.91-1.32,1.12-.45,.21-1.04,.31-1.76,.31-.89,0-1.59-.25-2.1-.76s-.77-1.23-.77-2.17,.34-1.71,1.03-2.18c.69-.47,1.73-.73,3.12-.78l1.61-.05v-.41c0-.94-.48-1.41-1.44-1.41-.74,0-1.61,.22-2.61,.67l-.84-1.71c1.07-.56,2.25-.84,3.55-.84s2.2,.27,2.86,.81c.66,.54,1,1.37,1,2.47v6.18h-1.77Zm-.75-4.3l-.98,.03c-.74,.02-1.28,.16-1.64,.4s-.54,.61-.54,1.11c0,.71,.41,1.07,1.23,1.07,.59,0,1.05-.17,1.41-.51s.53-.79,.53-1.34v-.76Z"/><path class="cls-2" d="M317.85,442.48c.44,0,.97-.1,1.59-.29v1.88c-.63,.28-1.41,.42-2.32,.42-1.01,0-1.75-.26-2.21-.77s-.69-1.28-.69-2.3v-4.47h-1.21v-1.07l1.39-.85,.73-1.96h1.62v1.98h2.6v1.9h-2.6v4.47c0,.36,.1,.62,.3,.8s.47,.26,.8,.26Z"/><path class="cls-2" d="M321.21,432.65c0-.82,.46-1.24,1.38-1.24s1.38,.41,1.38,1.24c0,.39-.12,.7-.34,.92s-.57,.33-1.03,.33c-.92,0-1.38-.42-1.38-1.25Zm2.64,11.68h-2.53v-9.28h2.53v9.28Z"/><path class="cls-2" d="M328.71,444.33l-3.54-9.28h2.65l1.79,5.29c.18,.58,.3,1.21,.36,1.9h.07c.03-.62,.16-1.26,.37-1.9l1.78-5.29h2.65l-3.54,9.28h-2.6Z"/><path class="cls-2" d="M340.37,444.5c-1.49,0-2.66-.41-3.5-1.24-.84-.83-1.26-1.99-1.26-3.5s.39-2.76,1.17-3.61,1.85-1.27,3.22-1.27,2.33,.37,3.06,1.12,1.1,1.78,1.1,3.1v1.23h-5.99c.03,.72,.24,1.28,.64,1.69s.96,.61,1.68,.61c.56,0,1.09-.06,1.59-.17s1.02-.3,1.56-.56v1.96c-.44,.22-.92,.39-1.42,.49-.5,.11-1.12,.16-1.84,.16Zm-.36-7.82c-.54,0-.96,.17-1.26,.51-.3,.34-.48,.82-.52,1.45h3.55c-.01-.62-.17-1.11-.49-1.45-.31-.34-.74-.51-1.28-.51Z"/><path class="cls-2" d="M358.26,444.33l-.88-2.89h-4.42l-.88,2.89h-2.77l4.28-12.19h3.15l4.3,12.19h-2.77Zm-1.49-5.05c-.81-2.62-1.27-4.1-1.37-4.44-.1-.34-.18-.61-.22-.81-.18,.71-.71,2.46-1.57,5.25h3.16Z"/><path class="cls-2" d="M370.67,444.33h-2.53v-5.42c0-.67-.11-1.17-.34-1.51-.22-.33-.58-.5-1.06-.5-.65,0-1.12,.24-1.41,.71-.29,.48-.44,1.26-.44,2.35v4.37h-2.53v-9.28h1.93l.34,1.19h.14c.25-.43,.61-.76,1.08-1,.47-.24,1.01-.36,1.62-.36,1.39,0,2.33,.45,2.82,1.36h.22c.25-.43,.62-.77,1.1-1s1.03-.36,1.64-.36c1.05,0,1.85,.27,2.39,.81s.81,1.4,.81,2.59v6.05h-2.54v-5.42c0-.67-.11-1.17-.34-1.51-.22-.33-.58-.5-1.06-.5-.62,0-1.08,.22-1.39,.66-.31,.44-.46,1.15-.46,2.11v4.66Z"/><path class="cls-2" d="M383.25,444.5c-1.49,0-2.66-.41-3.5-1.24-.84-.83-1.26-1.99-1.26-3.5s.39-2.76,1.17-3.61,1.85-1.27,3.22-1.27,2.33,.37,3.06,1.12,1.1,1.78,1.1,3.1v1.23h-5.99c.03,.72,.24,1.28,.64,1.69s.96,.61,1.68,.61c.56,0,1.09-.06,1.59-.17s1.02-.3,1.56-.56v1.96c-.44,.22-.92,.39-1.42,.49-.5,.11-1.12,.16-1.84,.16Zm-.36-7.82c-.54,0-.96,.17-1.26,.51-.3,.34-.48,.82-.52,1.45h3.55c-.01-.62-.17-1.11-.49-1.45-.31-.34-.74-.51-1.28-.51Z"/><path class="cls-2" d="M394.28,434.87c.34,0,.63,.03,.86,.08l-.19,2.37c-.21-.06-.45-.08-.75-.08-.81,0-1.44,.21-1.89,.62-.45,.42-.68,1-.68,1.74v4.72h-2.53v-9.28h1.92l.37,1.56h.12c.29-.52,.68-.94,1.17-1.26,.49-.32,1.02-.48,1.6-.48Z"/><path class="cls-2" d="M396.71,432.65c0-.82,.46-1.24,1.38-1.24s1.38,.41,1.38,1.24c0,.39-.12,.7-.34,.92s-.57,.33-1.03,.33c-.92,0-1.38-.42-1.38-1.25Zm2.64,11.68h-2.53v-9.28h2.53v9.28Z"/><path class="cls-2" d="M405.78,444.5c-2.89,0-4.33-1.59-4.33-4.76,0-1.58,.39-2.78,1.18-3.62s1.91-1.25,3.38-1.25c1.07,0,2.04,.21,2.89,.63l-.75,1.96c-.4-.16-.77-.29-1.11-.39-.34-.1-.69-.15-1.03-.15-1.32,0-1.97,.93-1.97,2.8s.66,2.72,1.97,2.72c.49,0,.94-.06,1.35-.19s.83-.33,1.25-.61v2.17c-.41,.26-.82,.44-1.24,.54s-.94,.15-1.58,.15Z"/><path class="cls-2" d="M416.64,444.33l-.49-1.26h-.07c-.43,.54-.87,.91-1.32,1.12-.45,.21-1.04,.31-1.76,.31-.89,0-1.59-.25-2.1-.76s-.77-1.23-.77-2.17,.34-1.71,1.03-2.18c.69-.47,1.73-.73,3.12-.78l1.61-.05v-.41c0-.94-.48-1.41-1.44-1.41-.74,0-1.61,.22-2.61,.67l-.84-1.71c1.07-.56,2.25-.84,3.55-.84s2.2,.27,2.86,.81c.66,.54,1,1.37,1,2.47v6.18h-1.77Zm-.75-4.3l-.98,.03c-.74,.02-1.28,.16-1.64,.4s-.54,.61-.54,1.11c0,.71,.41,1.07,1.23,1.07,.59,0,1.05-.17,1.41-.51s.53-.79,.53-1.34v-.76Z"/><path class="cls-2" d="M429.58,444.33h-2.53v-5.42c0-.67-.12-1.17-.36-1.51s-.62-.5-1.14-.5c-.71,0-1.22,.24-1.54,.71-.32,.47-.47,1.26-.47,2.35v4.37h-2.53v-9.28h1.93l.34,1.19h.14c.28-.45,.67-.79,1.17-1.02s1.06-.34,1.69-.34c1.08,0,1.9,.29,2.46,.88,.56,.58,.84,1.43,.84,2.53v6.05Z"/></g><g><path class="cls-2" d="M637.2,430.94h-8.48v-1.79l3.05-3.08c.9-.92,1.49-1.56,1.77-1.92,.28-.36,.48-.69,.6-.99,.12-.3,.18-.62,.18-.95,0-.49-.13-.85-.4-1.09s-.63-.36-1.08-.36c-.47,0-.93,.11-1.37,.32-.44,.22-.9,.52-1.39,.92l-1.39-1.65c.6-.51,1.09-.87,1.49-1.08,.39-.21,.82-.37,1.29-.49s.99-.17,1.56-.17c.76,0,1.43,.14,2.01,.42,.58,.28,1.03,.66,1.35,1.16,.32,.5,.48,1.07,.48,1.71,0,.56-.1,1.08-.29,1.57-.2,.49-.5,.99-.91,1.51s-1.14,1.25-2.18,2.2l-1.56,1.47v.12h5.29v2.16Z"/><path class="cls-2" d="M646.86,424.88c0,2.12-.35,3.69-1.04,4.71s-1.76,1.53-3.21,1.53-2.46-.53-3.17-1.58-1.07-2.6-1.07-4.66,.35-3.72,1.04-4.74c.69-1.02,1.76-1.52,3.2-1.52s2.46,.53,3.17,1.59,1.08,2.62,1.08,4.66Zm-5.94,0c0,1.49,.13,2.56,.39,3.2,.26,.64,.69,.97,1.3,.97s1.03-.33,1.29-.98c.27-.65,.4-1.71,.4-3.19s-.13-2.56-.4-3.21-.7-.98-1.29-.98-1.04,.33-1.29,.98-.39,1.72-.39,3.21Z"/><path class="cls-2" d="M656.64,430.94h-8.48v-1.79l3.05-3.08c.9-.92,1.49-1.56,1.77-1.92,.28-.36,.48-.69,.6-.99,.12-.3,.18-.62,.18-.95,0-.49-.13-.85-.4-1.09s-.63-.36-1.08-.36c-.47,0-.93,.11-1.37,.32-.44,.22-.9,.52-1.39,.92l-1.39-1.65c.6-.51,1.09-.87,1.49-1.08,.39-.21,.82-.37,1.29-.49s.99-.17,1.56-.17c.76,0,1.43,.14,2.01,.42,.58,.28,1.03,.66,1.35,1.16,.32,.5,.48,1.07,.48,1.71,0,.56-.1,1.08-.29,1.57-.2,.49-.5,.99-.91,1.51s-1.14,1.25-2.18,2.2l-1.56,1.47v.12h5.29v2.16Z"/><path class="cls-2" d="M666.36,430.94h-8.48v-1.79l3.05-3.08c.9-.92,1.49-1.56,1.77-1.92,.28-.36,.48-.69,.6-.99,.12-.3,.18-.62,.18-.95,0-.49-.13-.85-.4-1.09s-.63-.36-1.08-.36c-.47,0-.93,.11-1.37,.32-.44,.22-.9,.52-1.39,.92l-1.39-1.65c.6-.51,1.09-.87,1.49-1.08,.39-.21,.82-.37,1.29-.49s.99-.17,1.56-.17c.76,0,1.43,.14,2.01,.42,.58,.28,1.03,.66,1.35,1.16,.32,.5,.48,1.07,.48,1.71,0,.56-.1,1.08-.29,1.57-.2,.49-.5,.99-.91,1.51s-1.14,1.25-2.18,2.2l-1.56,1.47v.12h5.29v2.16Z"/><path class="cls-2" d="M675.6,431.11c-1.09,0-1.95-.42-2.57-1.27-.62-.85-.93-2.02-.93-3.52s.32-2.71,.95-3.56,1.51-1.27,2.62-1.27c1.17,0,2.06,.45,2.67,1.36h.08c-.13-.69-.19-1.31-.19-1.85v-2.97h2.54v12.92h-1.94l-.49-1.2h-.11c-.58,.91-1.45,1.37-2.63,1.37Zm.89-2.02c.65,0,1.12-.19,1.42-.56,.3-.38,.47-1.01,.49-1.92v-.27c0-1-.15-1.71-.46-2.14-.31-.43-.81-.65-1.5-.65-.56,0-1,.24-1.32,.72s-.47,1.17-.47,2.09,.16,1.6,.47,2.05c.32,.46,.77,.68,1.35,.68Z"/><path class="cls-2" d="M689.32,430.94l-.49-1.26h-.07c-.43,.54-.87,.91-1.32,1.12-.45,.21-1.04,.31-1.76,.31-.89,0-1.59-.25-2.1-.76s-.77-1.23-.77-2.17,.34-1.71,1.03-2.18c.69-.47,1.73-.73,3.12-.78l1.61-.05v-.41c0-.94-.48-1.41-1.44-1.41-.74,0-1.61,.22-2.61,.67l-.84-1.71c1.07-.56,2.25-.84,3.55-.84s2.2,.27,2.86,.81c.66,.54,1,1.37,1,2.47v6.18h-1.77Zm-.75-4.3l-.98,.03c-.74,.02-1.28,.16-1.64,.4s-.54,.61-.54,1.11c0,.71,.41,1.07,1.23,1.07,.59,0,1.05-.17,1.41-.51s.53-.79,.53-1.34v-.76Z"/><path class="cls-2" d="M697.6,429.09c.44,0,.97-.1,1.59-.29v1.88c-.63,.28-1.41,.42-2.32,.42-1.01,0-1.75-.26-2.21-.77s-.69-1.28-.69-2.3v-4.47h-1.21v-1.07l1.39-.85,.73-1.96h1.62v1.98h2.6v1.9h-2.6v4.47c0,.36,.1,.62,.3,.8s.47,.26,.8,.26Z"/><path class="cls-2" d="M706.96,430.94l-.49-1.26h-.07c-.43,.54-.87,.91-1.32,1.12-.45,.21-1.04,.31-1.76,.31-.89,0-1.59-.25-2.1-.76s-.77-1.23-.77-2.17,.34-1.71,1.03-2.18c.69-.47,1.73-.73,3.12-.78l1.61-.05v-.41c0-.94-.48-1.41-1.44-1.41-.74,0-1.61,.22-2.61,.67l-.84-1.71c1.07-.56,2.25-.84,3.55-.84s2.2,.27,2.86,.81c.66,.54,1,1.37,1,2.47v6.18h-1.77Zm-.75-4.3l-.98,.03c-.74,.02-1.28,.16-1.64,.4s-.54,.61-.54,1.11c0,.71,.41,1.07,1.23,1.07,.59,0,1.05-.17,1.41-.51s.53-.79,.53-1.34v-.76Z"/></g></g></svg>