<svg xmlns="http://www.w3.org/2000/svg" viewBox="0 0 800 480"><defs><style>.a{fill:#e6e6e6;}.b{fill:#29abe2;}.c{fill:#98d5f4;}.d{fill:#0071bc;}</style></defs><path class="a" d="M380.89,278.59,220.17,226.37c23.07-71,86.05-116.77,160.72-116.77Z"/><path class="b" d="M380.89,278.59,213.15,258a163,163,0,0,1,7-31.63Z"/><path class="c" d="M380.89,278.59l8.84-168.76a169,169,0,1,1-177.6,159.92c.19-3.73.57-8.05,1-11.75Z"/><path class="d" d="M380.89,278.59v-169c3.73,0,5.12,0,8.84.23Z"/><path d="M366,44a8.87,8.87,0,0,1-.71,3.67,5.34,5.34,0,0,1-2.1,2.44,7.5,7.5,0,0,1-7.05,0,5.23,5.23,0,0,1-2.09-2.45A9.12,9.12,0,0,1,353.4,44a9,9,0,0,1,.69-3.66,5.13,5.13,0,0,1,2.09-2.43,6.65,6.65,0,0,1,3.57-.87,6.52,6.52,0,0,1,3.49.87,5.24,5.24,0,0,1,2.09,2.43A8.88,8.88,0,0,1,366,44Zm-10.47,0a6.38,6.38,0,0,0,1,3.83,4.22,4.22,0,0,0,6.3,0,6.52,6.52,0,0,0,1-3.83,6.45,6.45,0,0,0-1-3.82,3.57,3.57,0,0,0-3.13-1.39,3.63,3.63,0,0,0-3.17,1.39A6.31,6.31,0,0,0,355.57,44Z"/><path d="M372.44,49.36a4.65,4.65,0,0,0,1.54-.24v1.52a4,4,0,0,1-.87.25A6,6,0,0,1,372,51a4,4,0,0,1-1.53-.29,2.3,2.3,0,0,1-1.11-1,3.79,3.79,0,0,1-.42-1.95V42.1h-1.42v-.91l1.5-.76.7-2.16H371v2.3h2.92V42.1H371v5.63a1.6,1.6,0,0,0,.41,1.23A1.45,1.45,0,0,0,372.44,49.36Z"/><path d="M378.05,36.37v3.85c0,.32,0,.64,0,1s-.05.58-.08.78h.14a3,3,0,0,1,1.32-1.17,4.29,4.29,0,0,1,1.79-.38,3.91,3.91,0,0,1,2.77.89,3.75,3.75,0,0,1,1,2.85v6.67h-2V44.42c0-1.59-.7-2.39-2.11-2.39a2.37,2.37,0,0,0-2.17.95,5.13,5.13,0,0,0-.58,2.68v5.15h-2V36.37Z"/><path d="M392,40.38a4.11,4.11,0,0,1,3.17,1.24A4.75,4.75,0,0,1,396.36,45v1.1h-6.88a3.53,3.53,0,0,0,.83,2.42,2.92,2.92,0,0,0,2.21.83,7.75,7.75,0,0,0,1.76-.18,9.34,9.34,0,0,0,1.59-.54v1.67a7.37,7.37,0,0,1-1.56.53,9.91,9.91,0,0,1-1.86.16,5.65,5.65,0,0,1-2.62-.59,4.17,4.17,0,0,1-1.78-1.75,5.88,5.88,0,0,1-.64-2.89,6.72,6.72,0,0,1,.58-2.92A4.35,4.35,0,0,1,389.61,41,4.57,4.57,0,0,1,392,40.38Zm0,1.55a2.28,2.28,0,0,0-1.74.71,3.25,3.25,0,0,0-.77,2h4.83a3.36,3.36,0,0,0-.58-2A2,2,0,0,0,392,41.93Z"/><path d="M403.92,40.38a6.43,6.43,0,0,1,1.12.09l-.2,1.88a3.93,3.93,0,0,0-1-.13,2.87,2.87,0,0,0-1.44.38,2.83,2.83,0,0,0-1.08,1.09,3.45,3.45,0,0,0-.41,1.72v5.4h-2V40.57h1.6l.26,1.82h.08A4.75,4.75,0,0,1,402.08,41,3,3,0,0,1,403.92,40.38Z"/><path d="M413.75,47.92a2.65,2.65,0,0,1-1.1,2.3,5.18,5.18,0,0,1-3.06.78,9.92,9.92,0,0,1-1.86-.15,5.71,5.71,0,0,1-1.41-.48V48.6a8.81,8.81,0,0,0,1.57.58,6.4,6.4,0,0,0,1.75.26,2.92,2.92,0,0,0,1.65-.36,1.15,1.15,0,0,0,.5-1,1.06,1.06,0,0,0-.19-.62,2.23,2.23,0,0,0-.71-.57,12.43,12.43,0,0,0-1.53-.67,12.5,12.5,0,0,1-1.66-.78,3.1,3.1,0,0,1-1-.95,2.5,2.5,0,0,1-.36-1.39,2.3,2.3,0,0,1,1.07-2,5,5,0,0,1,2.84-.71,7.66,7.66,0,0,1,1.76.19,8.43,8.43,0,0,1,1.61.53l-.67,1.54a12.35,12.35,0,0,0-1.37-.49,5.29,5.29,0,0,0-1.42-.2c-1.24,0-1.86.36-1.86,1.09a1,1,0,0,0,.21.62,2.36,2.36,0,0,0,.76.54c.37.17.87.39,1.52.64a11.5,11.5,0,0,1,1.6.75,3.08,3.08,0,0,1,1,.94A2.5,2.5,0,0,1,413.75,47.92Z"/><path d="M209,87.82a3.87,3.87,0,0,0-3.16,1.39A5.85,5.85,0,0,0,204.68,93a6.09,6.09,0,0,0,1.06,3.8A3.81,3.81,0,0,0,209,98.23a8.43,8.43,0,0,0,1.69-.16,16,16,0,0,0,1.64-.43v1.77a8.55,8.55,0,0,1-1.63.44,11.17,11.17,0,0,1-1.94.15,6.38,6.38,0,0,1-3.47-.87,5.16,5.16,0,0,1-2-2.43,9.23,9.23,0,0,1-.68-3.68,8.34,8.34,0,0,1,.75-3.62,5.76,5.76,0,0,1,2.2-2.46,6.63,6.63,0,0,1,3.53-.89,9,9,0,0,1,2,.22,8,8,0,0,1,1.79.62l-.76,1.71a10,10,0,0,0-1.42-.54A5.42,5.42,0,0,0,209,87.82Z"/><path d="M217,85.37v3.85c0,.32,0,.64,0,1s-.05.58-.07.78H217a3.11,3.11,0,0,1,1.32-1.17,4.3,4.3,0,0,1,1.8-.38,3.88,3.88,0,0,1,2.76.89,3.71,3.71,0,0,1,1,2.85v6.67h-2V93.42c0-1.59-.71-2.39-2.11-2.39a2.35,2.35,0,0,0-2.17,1,5.12,5.12,0,0,0-.59,2.68v5.15h-2V85.37Z"/><path d="M228,85.67a1.25,1.25,0,0,1,.8.27,1.32,1.32,0,0,1,0,1.77,1.3,1.3,0,0,1-1.61,0,1.29,1.29,0,0,1,0-1.77A1.26,1.26,0,0,1,228,85.67Zm1,3.9V99.81h-2V89.57Z"/><path d="M237.32,89.38a3.85,3.85,0,0,1,2.74.89,3.79,3.79,0,0,1,.95,2.87v6.67h-2V93.42c0-1.59-.7-2.39-2.11-2.39a2.36,2.36,0,0,0-2.15.93,5,5,0,0,0-.6,2.68v5.17h-2V89.57h1.6l.29,1.36h.11a2.93,2.93,0,0,1,1.36-1.17A4.38,4.38,0,0,1,237.32,89.38Z"/><path d="M248.08,89.38a4.26,4.26,0,0,1,2.87.84,3.37,3.37,0,0,1,1,2.65v6.94h-1.42l-.4-1.43H250a4.6,4.6,0,0,1-1.39,1.23,4.39,4.39,0,0,1-2,.39,3.51,3.51,0,0,1-2.3-.75,2.9,2.9,0,0,1-.91-2.35,2.69,2.69,0,0,1,1.19-2.38,6.87,6.87,0,0,1,3.62-.89l1.75,0V93a2,2,0,0,0-.52-1.59A2.06,2.06,0,0,0,248,91a5,5,0,0,0-1.5.23,11.16,11.16,0,0,0-1.39.55l-.64-1.46a8.21,8.21,0,0,1,1.66-.64A7.49,7.49,0,0,1,248.08,89.38Zm1.84,5.51-1.37,0a4.59,4.59,0,0,0-2.42.59,1.67,1.67,0,0,0-.68,1.41,1.36,1.36,0,0,0,.48,1.16,2,2,0,0,0,1.23.36,2.92,2.92,0,0,0,2-.67,2.43,2.43,0,0,0,.79-2Z"/><path d="M176.51,210.24V219a5.46,5.46,0,0,1-.58,2.54,4.24,4.24,0,0,1-1.78,1.78,6.19,6.19,0,0,1-3,.66,5.21,5.21,0,0,1-3.92-1.38,5,5,0,0,1-1.34-3.64v-8.74h2v8.65q0,3.36,3.31,3.36a3.08,3.08,0,0,0,2.48-.91,3.73,3.73,0,0,0,.77-2.47v-8.63Z"/><path d="M187.79,220.14a3.38,3.38,0,0,1-1.31,2.83,5.64,5.64,0,0,1-3.59,1,11.46,11.46,0,0,1-2.09-.18,6.27,6.27,0,0,1-1.65-.53v-1.93a12.4,12.4,0,0,0,1.79.61,7.74,7.74,0,0,0,2.09.28,3.35,3.35,0,0,0,2.05-.53,1.74,1.74,0,0,0,.68-1.43,1.76,1.76,0,0,0-.3-1,2.93,2.93,0,0,0-1-.8,14.78,14.78,0,0,0-1.76-.79,9.15,9.15,0,0,1-1.77-.89,3.51,3.51,0,0,1-1.65-3.14,3.15,3.15,0,0,1,1.22-2.62,5,5,0,0,1,3.19-.95,8.79,8.79,0,0,1,2,.23,11.5,11.5,0,0,1,1.8.59l-.65,1.69a11.4,11.4,0,0,0-1.59-.53,6.51,6.51,0,0,0-1.66-.21,2.58,2.58,0,0,0-1.71.49,1.61,1.61,0,0,0-.59,1.29,1.89,1.89,0,0,0,.29,1.06,2.67,2.67,0,0,0,.91.78,15.23,15.23,0,0,0,1.65.75,11.81,11.81,0,0,1,2,1,3.17,3.17,0,0,1,1.64,3Z"/><path d="M553.05,359.81h-2V348h-4.07v-1.77h10.18V348h-4.06Z"/><path d="M561.41,349.38a4.27,4.27,0,0,1,2.88.84,3.37,3.37,0,0,1,1,2.65v6.94h-1.43l-.4-1.43h-.07a4.62,4.62,0,0,1-1.4,1.23,4.34,4.34,0,0,1-2,.39,3.5,3.5,0,0,1-2.3-.75,2.87,2.87,0,0,1-.91-2.35,2.68,2.68,0,0,1,1.18-2.38,6.9,6.9,0,0,1,3.62-.89l1.75-.05V353a1.75,1.75,0,0,0-2-2.06,5,5,0,0,0-1.5.23,10.44,10.44,0,0,0-1.38.55l-.65-1.46a8.45,8.45,0,0,1,1.66-.64A7.55,7.55,0,0,1,561.41,349.38Zm1.84,5.51-1.37,0a4.53,4.53,0,0,0-2.42.59,1.68,1.68,0,0,0-.67,1.41,1.38,1.38,0,0,0,.47,1.16,2,2,0,0,0,1.24.36,2.9,2.9,0,0,0,2-.67,2.43,2.43,0,0,0,.79-2Z"/><path d="M569.37,345.67a1.27,1.27,0,0,1,.8.27,1.32,1.32,0,0,1,0,1.77,1.22,1.22,0,0,1-.8.28,1.24,1.24,0,0,1-.82-.28,1.32,1.32,0,0,1,0-1.77A1.28,1.28,0,0,1,569.37,345.67Zm1,3.9v10.24h-2V349.57Z"/><path d="M581.89,359.79l-1.46-5.11c-.09-.33-.19-.71-.31-1.13s-.21-.83-.3-1.22l-.21-.9h-.07c0,.21-.11.51-.19.9s-.19.79-.3,1.22-.21.8-.31,1.15l-1.52,5.09H575l-2.84-10.24h2.06l1.33,5.18c.14.54.27,1.1.39,1.7s.2,1.09.25,1.46h.08c0-.22.09-.51.16-.87s.15-.72.23-1.07a7.77,7.77,0,0,1,.24-.87l1.63-5.53h2.2l1.6,5.53c.08.25.16.55.25.9s.16.69.23,1,.12.63.15.86H583c0-.2.07-.48.14-.84s.14-.73.23-1.14.19-.79.28-1.16l1.37-5.18h2l-2.87,10.24Z"/><path d="M592.82,349.38a4.27,4.27,0,0,1,2.88.84,3.4,3.4,0,0,1,.95,2.65v6.94h-1.42l-.4-1.43h-.08a4.48,4.48,0,0,1-1.39,1.23,4.36,4.36,0,0,1-2,.39,3.47,3.47,0,0,1-2.29-.75,2.87,2.87,0,0,1-.92-2.35,2.69,2.69,0,0,1,1.19-2.38,6.87,6.87,0,0,1,3.62-.89l1.75-.05V353a2.08,2.08,0,0,0-.51-1.59,2.11,2.11,0,0,0-1.45-.47,5,5,0,0,0-1.5.23,11.16,11.16,0,0,0-1.39.55l-.64-1.46a8.21,8.21,0,0,1,1.66-.64A7.49,7.49,0,0,1,592.82,349.38Zm1.84,5.51-1.37,0a4.53,4.53,0,0,0-2.42.59,1.69,1.69,0,0,0-.68,1.41,1.36,1.36,0,0,0,.48,1.16,2,2,0,0,0,1.23.36,2.91,2.91,0,0,0,2-.67,2.43,2.43,0,0,0,.79-2Z"/><path d="M604.94,349.38a3.81,3.81,0,0,1,2.73.89,3.76,3.76,0,0,1,1,2.87v6.67h-2v-6.39c0-1.59-.7-2.39-2.11-2.39a2.37,2.37,0,0,0-2.16.93,5,5,0,0,0-.59,2.68v5.17h-2V349.57h1.6l.28,1.36h.12a2.93,2.93,0,0,1,1.36-1.17A4.35,4.35,0,0,1,604.94,349.38Z"/><path d="M375.53,83.41h-4.47v-10c0-.23,0-.56,0-1s0-.93,0-1.43,0-1,0-1.36a5.92,5.92,0,0,1-.57.61c-.25.24-.47.44-.68.62l-2.13,1.74-2.21-2.76,6.16-5h3.82Z"/><path d="M384.42,64.58a4.12,4.12,0,0,1,3.41,1.53,6.68,6.68,0,0,1,1.22,4.27,7.15,7.15,0,0,1-1.14,4.31,4.07,4.07,0,0,1-3.49,1.54,4,4,0,0,1-3.33-1.54,6.94,6.94,0,0,1-1.19-4.31A7.06,7.06,0,0,1,381,66.11,3.93,3.93,0,0,1,384.42,64.58Zm.05,2.87c-.39,0-.68.25-.84.75a7.31,7.31,0,0,0-.25,2.21,7.67,7.67,0,0,0,.25,2.24c.16.52.45.78.84.78s.69-.26.85-.78a8,8,0,0,0,.25-2.24,7.65,7.65,0,0,0-.25-2.21C385.16,67.7,384.87,67.45,384.47,67.45Zm13.58-2.6-10.3,18.56h-3.38l10.3-18.56ZM397.94,72a4.12,4.12,0,0,1,3.41,1.52,6.68,6.68,0,0,1,1.22,4.27,7.17,7.17,0,0,1-1.14,4.31,4.07,4.07,0,0,1-3.49,1.54,3.94,3.94,0,0,1-3.32-1.54,6.9,6.9,0,0,1-1.2-4.31,7.06,7.06,0,0,1,1.12-4.27A3.92,3.92,0,0,1,397.94,72Zm.06,2.83c-.4,0-.69.26-.85.78a9.89,9.89,0,0,0,0,4.42c.16.52.45.78.85.78.72,0,1.09-1,1.09-3S398.72,74.83,398,74.83Z"/><path d="M214.83,132.41H201.62v-3l4.6-4.65c.94-1,1.68-1.77,2.24-2.4a7.61,7.61,0,0,0,1.18-1.65,3.43,3.43,0,0,0,.35-1.52,1.73,1.73,0,0,0-.58-1.44,2.37,2.37,0,0,0-1.47-.46,4.15,4.15,0,0,0-1.94.5,11.77,11.77,0,0,0-2.07,1.43l-2.42-2.84a17.73,17.73,0,0,1,1.72-1.36,8,8,0,0,1,2.15-1,9.55,9.55,0,0,1,3-.41,7.33,7.33,0,0,1,3.23.67,5.09,5.09,0,0,1,2.08,1.79,4.74,4.74,0,0,1,.72,2.59,6.7,6.7,0,0,1-.59,2.83A10.06,10.06,0,0,1,212,124c-.78.83-1.74,1.76-2.86,2.8l-1.93,1.77v.16h7.6Z"/><path d="M229.83,123.13a17.84,17.84,0,0,1-.64,5.12,6.39,6.39,0,0,1-2.08,3.28,6.05,6.05,0,0,1-3.86,1.14,5.47,5.47,0,0,1-5-2.52,13.33,13.33,0,0,1-1.57-7,18,18,0,0,1,.64-5.14,6.38,6.38,0,0,1,2.08-3.29,6.05,6.05,0,0,1,3.86-1.14,5.47,5.47,0,0,1,5,2.52A13.19,13.19,0,0,1,229.83,123.13Zm-8.76,0a16.6,16.6,0,0,0,.45,4.48,1.77,1.77,0,0,0,1.73,1.5c.85,0,1.42-.5,1.73-1.5a16.6,16.6,0,0,0,.45-4.48,16.89,16.89,0,0,0-.45-4.49c-.31-1-.88-1.52-1.73-1.52s-1.43.51-1.73,1.52A16.89,16.89,0,0,0,221.07,123.13Z"/><path d="M235.94,113.58a4.1,4.1,0,0,1,3.4,1.53,6.62,6.62,0,0,1,1.22,4.27,7.15,7.15,0,0,1-1.14,4.31,4,4,0,0,1-3.48,1.54,4,4,0,0,1-3.33-1.54,6.88,6.88,0,0,1-1.2-4.31,7.13,7.13,0,0,1,1.12-4.27A4,4,0,0,1,235.94,113.58Zm.05,2.87c-.4,0-.68.25-.85.75a7.71,7.71,0,0,0-.24,2.21,8.09,8.09,0,0,0,.24,2.24c.17.52.45.78.85.78s.68-.26.84-.78a7.67,7.67,0,0,0,.25-2.24,7.31,7.31,0,0,0-.25-2.21Q236.59,116.45,236,116.45Zm13.57-2.6-10.3,18.56h-3.38l10.3-18.56Zm-.1,7.15a4.1,4.1,0,0,1,3.4,1.52,6.62,6.62,0,0,1,1.22,4.27,7.17,7.17,0,0,1-1.14,4.31,4,4,0,0,1-3.48,1.54,4,4,0,0,1-3.33-1.54,6.9,6.9,0,0,1-1.2-4.31,7.13,7.13,0,0,1,1.12-4.27A3.94,3.94,0,0,1,249.46,121Zm0,2.83c-.4,0-.68.26-.85.78a10.3,10.3,0,0,0,0,4.42c.17.52.45.78.85.78.73,0,1.09-1,1.09-3S250.24,123.83,249.51,123.83Z"/><path d="M170.66,242a4.42,4.42,0,0,1-.54,2.24,4.83,4.83,0,0,1-1.47,1.55,6.91,6.91,0,0,1-2,.89v.08a6.1,6.1,0,0,1,3.4,1.37,3.79,3.79,0,0,1,1.2,3,5.19,5.19,0,0,1-.81,2.84,5.48,5.48,0,0,1-2.48,2,10.68,10.68,0,0,1-4.33.75,15.26,15.26,0,0,1-3-.26,13.93,13.93,0,0,1-2.48-.75v-3.72a11.07,11.07,0,0,0,4.89,1.22,4.37,4.37,0,0,0,2.74-.64,2.16,2.16,0,0,0,.77-1.75,2,2,0,0,0-.37-1.2,2.28,2.28,0,0,0-1.29-.75,9.63,9.63,0,0,0-2.58-.26H161V245.2h1.3a8.17,8.17,0,0,0,2.45-.28,2.32,2.32,0,0,0,1.21-.8,2,2,0,0,0,.35-1.15c0-1.22-.8-1.82-2.39-1.82a5.22,5.22,0,0,0-2.28.47,17.3,17.3,0,0,0-1.55.8l-1.95-3a11.1,11.1,0,0,1,2.6-1.31,10.91,10.91,0,0,1,3.7-.54,7.9,7.9,0,0,1,4.52,1.15A3.68,3.68,0,0,1,170.66,242Z"/><path d="M177.42,237.58a4.12,4.12,0,0,1,3.41,1.53,6.68,6.68,0,0,1,1.22,4.27,7.15,7.15,0,0,1-1.14,4.31,4.07,4.07,0,0,1-3.49,1.54,4,4,0,0,1-3.33-1.54,6.94,6.94,0,0,1-1.19-4.31,7.06,7.06,0,0,1,1.12-4.27A3.93,3.93,0,0,1,177.42,237.58Zm.05,2.87c-.39,0-.68.25-.84.75a7.31,7.31,0,0,0-.25,2.21,7.67,7.67,0,0,0,.25,2.24c.16.52.45.78.84.78s.69-.26.85-.78a8,8,0,0,0,.25-2.24,7.65,7.65,0,0,0-.25-2.21C178.16,240.7,177.87,240.45,177.47,240.45Zm13.58-2.6-10.3,18.56h-3.38l10.3-18.56Zm-.11,7.15a4.12,4.12,0,0,1,3.41,1.52,6.68,6.68,0,0,1,1.22,4.27,7.17,7.17,0,0,1-1.14,4.31,4.07,4.07,0,0,1-3.49,1.54,3.94,3.94,0,0,1-3.32-1.54,6.9,6.9,0,0,1-1.2-4.31,7.06,7.06,0,0,1,1.12-4.27A3.92,3.92,0,0,1,190.94,245Zm.06,2.83c-.4,0-.69.26-.85.78a9.89,9.89,0,0,0,0,4.42c.16.52.45.78.85.78.72,0,1.09-1,1.09-3S191.72,247.83,191,247.83Z"/><path d="M554.49,388.41l6.68-14.87h-8.63v-3.69h13.34v2.7l-6.79,15.86Z"/><path d="M567.65,380.53a21.13,21.13,0,0,1,.23-3.17,12.47,12.47,0,0,1,.82-3,7.87,7.87,0,0,1,1.65-2.47,7.32,7.32,0,0,1,2.73-1.69,11.77,11.77,0,0,1,4.06-.61c.36,0,.8,0,1.31.05a10.16,10.16,0,0,1,1.26.16v3.48c-.35-.07-.72-.12-1.13-.17s-.86-.06-1.37-.06a6.84,6.84,0,0,0-3.27.65,3.75,3.75,0,0,0-1.68,1.84,8.08,8.08,0,0,0-.58,2.79h.15a4.66,4.66,0,0,1,1.43-1.54,4.25,4.25,0,0,1,2.42-.62,4.92,4.92,0,0,1,3.85,1.56,6.36,6.36,0,0,1,1.4,4.39A6.47,6.47,0,0,1,579.2,387a6.33,6.33,0,0,1-4.69,1.72,7,7,0,0,1-3.5-.87,6.05,6.05,0,0,1-2.45-2.68A10.11,10.11,0,0,1,567.65,380.53Zm6.78,4.6a2,2,0,0,0,1.6-.7,3.3,3.3,0,0,0,.61-2.21,3.1,3.1,0,0,0-.52-1.9,1.93,1.93,0,0,0-1.64-.7,2.26,2.26,0,0,0-1.79.73,2.34,2.34,0,0,0-.65,1.59,4.54,4.54,0,0,0,.26,1.49,2.94,2.94,0,0,0,.79,1.22A1.93,1.93,0,0,0,574.43,385.13Z"/><path d="M586.94,369.58a4.1,4.1,0,0,1,3.4,1.53,6.62,6.62,0,0,1,1.22,4.27,7.15,7.15,0,0,1-1.14,4.31,4,4,0,0,1-3.48,1.54,4,4,0,0,1-3.33-1.54,6.88,6.88,0,0,1-1.2-4.31,7.13,7.13,0,0,1,1.12-4.27A4,4,0,0,1,586.94,369.58Zm0,2.87c-.4,0-.68.25-.85.75a7.71,7.71,0,0,0-.24,2.21,8,8,0,0,0,.24,2.23c.17.53.45.79.85.79s.68-.26.84-.79a7.55,7.55,0,0,0,.25-2.23,7.31,7.31,0,0,0-.25-2.21Q587.59,372.45,587,372.45Zm13.57-2.6-10.3,18.56h-3.38l10.3-18.56Zm-.1,7.15a4.1,4.1,0,0,1,3.4,1.52,6.62,6.62,0,0,1,1.22,4.27,7.17,7.17,0,0,1-1.14,4.31,4,4,0,0,1-3.48,1.54,4,4,0,0,1-3.33-1.54,6.9,6.9,0,0,1-1.2-4.31,7.13,7.13,0,0,1,1.12-4.27A3.94,3.94,0,0,1,600.46,377Zm0,2.83c-.4,0-.68.26-.85.78a10.3,10.3,0,0,0,0,4.42c.17.52.45.78.85.78.73,0,1.09-1,1.09-3S601.24,379.83,600.51,379.83Z"/></svg>