<svg xmlns="http://www.w3.org/2000/svg" viewBox="0 0 800 260"><defs><style>.a{fill:#0071bc;}.b{fill:#98d5f4;}.c{fill:none;stroke:gray;stroke-miterlimit:10;}.d{fill:#333;}.e{fill:#999;}</style></defs><rect class="a" x="324.01" y="52.54" width="311.99" height="65.59"/><rect class="b" x="324.01" y="125.41" width="140.4" height="65.59"/><line class="c" x1="324.5" y1="225" x2="324.5" y2="19"/><path class="d" d="M48.78,95.22H41V81.66h7.82V84H43.84v3h4.59v2.36H43.84v3.5h4.94Z"/><path class="d" d="M53.51,89.93l-3.34-5.08h3.21l2,3.3,2-3.3h3.21l-3.37,5.08,3.53,5.29H57.57l-2.18-3.55L53.2,95.22H50Z"/><path class="d" d="M66.74,93.15a6,6,0,0,0,1.78-.32v2.11a6.46,6.46,0,0,1-2.6.47,3.17,3.17,0,0,1-2.47-.86A3.71,3.71,0,0,1,62.67,92V87H61.32v-1.2l1.56-1,.81-2.19H65.5v2.21h2.91V87H65.5v5a1.12,1.12,0,0,0,.34.89A1.36,1.36,0,0,0,66.74,93.15Z"/><path class="d" d="M75.31,95.41A5.37,5.37,0,0,1,71.39,94,5.24,5.24,0,0,1,70,90.11a5.75,5.75,0,0,1,1.31-4,4.63,4.63,0,0,1,3.6-1.42,4.56,4.56,0,0,1,3.43,1.25,4.76,4.76,0,0,1,1.22,3.46v1.37H72.85a2.72,2.72,0,0,0,.72,1.89,2.5,2.5,0,0,0,1.87.67,7.81,7.81,0,0,0,1.77-.19A9.22,9.22,0,0,0,79,92.49v2.19a7.12,7.12,0,0,1-1.59.55A10,10,0,0,1,75.31,95.41Zm-.4-8.74a1.79,1.79,0,0,0-1.41.57,2.64,2.64,0,0,0-.58,1.62h4a2.41,2.41,0,0,0-.55-1.62A1.85,1.85,0,0,0,74.91,86.67Z"/><path class="d" d="M87.63,84.66a4.26,4.26,0,0,1,1,.08l-.21,2.65a3.29,3.29,0,0,0-.83-.09,3,3,0,0,0-2.11.7,2.49,2.49,0,0,0-.76,2v5.27H81.84V84.85H84l.42,1.75h.14a3.92,3.92,0,0,1,1.3-1.41A3.2,3.2,0,0,1,87.63,84.66Z"/><path class="d" d="M100,95.22H97.21v-6a2.91,2.91,0,0,0-.4-1.69,1.45,1.45,0,0,0-1.27-.56,1.89,1.89,0,0,0-1.71.79,4.86,4.86,0,0,0-.53,2.63v4.88H90.47V84.85h2.16L93,86.18h.16A3,3,0,0,1,94.47,85a4.56,4.56,0,0,1,1.89-.38,3.61,3.61,0,0,1,2.75,1,3.93,3.93,0,0,1,.93,2.82Z"/><path class="d" d="M109.54,95.22,109,93.81h-.08a4.06,4.06,0,0,1-1.47,1.25,4.76,4.76,0,0,1-2,.35,3.21,3.21,0,0,1-2.35-.85,3.3,3.3,0,0,1-.86-2.44,2.72,2.72,0,0,1,1.15-2.43,6.79,6.79,0,0,1,3.49-.87l1.8,0v-.46a1.42,1.42,0,0,0-1.62-1.58,7.39,7.39,0,0,0-2.92.76l-.94-1.91a8.41,8.41,0,0,1,4-.94,4.94,4.94,0,0,1,3.2.91,3.36,3.36,0,0,1,1.11,2.76v6.91Zm-.83-4.8-1.1,0a3.46,3.46,0,0,0-1.83.44,1.39,1.39,0,0,0-.61,1.24q0,1.2,1.38,1.2a2.16,2.16,0,0,0,1.57-.57,2,2,0,0,0,.59-1.5Z"/><path class="d" d="M117.26,95.22h-2.83V80.79h2.83Z"/><path class="d" d="M134.45,95.22h-2.83v-6a3.09,3.09,0,0,0-.37-1.69,1.34,1.34,0,0,0-1.19-.56,1.71,1.71,0,0,0-1.57.8,5.18,5.18,0,0,0-.49,2.62v4.88h-2.83V84.85h2.16l.38,1.33h.16a2.83,2.83,0,0,1,1.2-1.12,3.92,3.92,0,0,1,1.81-.4A3.27,3.27,0,0,1,134,86.18h.25a2.72,2.72,0,0,1,1.22-1.12,4.11,4.11,0,0,1,1.84-.4,3.61,3.61,0,0,1,2.66.9,3.94,3.94,0,0,1,.91,2.9v6.76h-2.84v-6a3,3,0,0,0-.38-1.69,1.32,1.32,0,0,0-1.18-.56,1.77,1.77,0,0,0-1.55.74,4.17,4.17,0,0,0-.52,2.36Z"/><path class="d" d="M150.41,95.22l-.55-1.41h-.07a4.23,4.23,0,0,1-1.47,1.25,4.79,4.79,0,0,1-2,.35,3.25,3.25,0,0,1-2.36-.85,3.29,3.29,0,0,1-.85-2.44,2.72,2.72,0,0,1,1.15-2.43,6.75,6.75,0,0,1,3.48-.87l1.8,0v-.46A1.41,1.41,0,0,0,148,86.73a7.39,7.39,0,0,0-2.92.76l-.94-1.91a8.37,8.37,0,0,1,4-.94,4.92,4.92,0,0,1,3.2.91,3.36,3.36,0,0,1,1.11,2.76v6.91Zm-.84-4.8-1.09,0a3.5,3.5,0,0,0-1.84.44,1.4,1.4,0,0,0-.6,1.24c0,.8.46,1.2,1.37,1.2a2.19,2.19,0,0,0,1.58-.57,2,2,0,0,0,.58-1.5Z"/><path class="d" d="M161.09,84.66a4.26,4.26,0,0,1,.95.08l-.21,2.65a3.34,3.34,0,0,0-.83-.09,3,3,0,0,0-2.12.7,2.52,2.52,0,0,0-.75,2v5.27H155.3V84.85h2.14l.42,1.75H158a3.83,3.83,0,0,1,1.3-1.41A3.18,3.18,0,0,1,161.09,84.66Z"/><path class="d" d="M166.65,89.58,167.88,88l2.9-3.16H174l-4.12,4.5,4.37,5.87H171L168,91l-1.21,1v3.22h-2.83V80.79h2.83v6.44l-.15,2.35Z"/><path class="d" d="M180.22,95.41A5.37,5.37,0,0,1,176.3,94a5.24,5.24,0,0,1-1.41-3.92,5.75,5.75,0,0,1,1.31-4,4.62,4.62,0,0,1,3.6-1.42,4.52,4.52,0,0,1,3.42,1.25,4.72,4.72,0,0,1,1.23,3.46v1.37h-6.69a2.76,2.76,0,0,0,.71,1.89,2.53,2.53,0,0,0,1.88.67,7.81,7.81,0,0,0,1.77-.19,8.91,8.91,0,0,0,1.74-.62v2.19a6.87,6.87,0,0,1-1.58.55A10.11,10.11,0,0,1,180.22,95.41Zm-.4-8.74a1.79,1.79,0,0,0-1.41.57,2.65,2.65,0,0,0-.59,1.62h4a2.36,2.36,0,0,0-.54-1.62A1.87,1.87,0,0,0,179.82,86.67Z"/><path class="d" d="M191.12,93.15a6,6,0,0,0,1.78-.32v2.11a6.46,6.46,0,0,1-2.6.47,3.19,3.19,0,0,1-2.47-.86,3.71,3.71,0,0,1-.77-2.57V87H185.7v-1.2l1.56-1,.82-2.19h1.8v2.21h2.91V87h-2.91v5a1.12,1.12,0,0,0,.34.89A1.36,1.36,0,0,0,191.12,93.15Z"/><path class="d" d="M205.7,84.66a3.34,3.34,0,0,1,2.88,1.43,6.62,6.62,0,0,1,1,3.93,6.5,6.5,0,0,1-1.07,4,3.48,3.48,0,0,1-2.92,1.41,3.43,3.43,0,0,1-2.87-1.33h-.19l-.48,1.14h-2.16V80.79h2.83v3.36c0,.42,0,1.11-.11,2h.11A3.26,3.26,0,0,1,205.7,84.66Zm-.91,2.26a1.76,1.76,0,0,0-1.53.65,3.69,3.69,0,0,0-.5,2.12V90a4.36,4.36,0,0,0,.5,2.39,1.75,1.75,0,0,0,1.57.73,1.6,1.6,0,0,0,1.39-.8,4.42,4.42,0,0,0,.51-2.34,4.06,4.06,0,0,0-.52-2.29A1.63,1.63,0,0,0,204.79,86.92Z"/><path class="d" d="M216.65,95.41A5.37,5.37,0,0,1,212.73,94a5.24,5.24,0,0,1-1.41-3.92,5.75,5.75,0,0,1,1.31-4,4.63,4.63,0,0,1,3.6-1.42,4.56,4.56,0,0,1,3.43,1.25,4.76,4.76,0,0,1,1.22,3.46v1.37h-6.69a2.72,2.72,0,0,0,.72,1.89,2.5,2.5,0,0,0,1.87.67,7.81,7.81,0,0,0,1.77-.19,8.91,8.91,0,0,0,1.74-.62v2.19a6.87,6.87,0,0,1-1.58.55A10,10,0,0,1,216.65,95.41Zm-.4-8.74a1.79,1.79,0,0,0-1.41.57,2.64,2.64,0,0,0-.58,1.62h4a2.41,2.41,0,0,0-.55-1.62A1.85,1.85,0,0,0,216.25,86.67Z"/><path class="d" d="M232.75,95.22h-2.83v-6a3,3,0,0,0-.39-1.69,1.47,1.47,0,0,0-1.28-.56,1.89,1.89,0,0,0-1.71.79,5,5,0,0,0-.53,2.63v4.88h-2.83V84.85h2.16l.38,1.33h.16a3.06,3.06,0,0,1,1.3-1.14,4.59,4.59,0,0,1,1.89-.38,3.61,3.61,0,0,1,2.75,1,3.93,3.93,0,0,1,.93,2.82Z"/><path class="d" d="M239.88,95.41q-4.84,0-4.84-5.32a5.71,5.71,0,0,1,1.31-4,5,5,0,0,1,3.78-1.39,7.2,7.2,0,0,1,3.23.7l-.84,2.19a12.55,12.55,0,0,0-1.24-.44,4.16,4.16,0,0,0-1.15-.17c-1.47,0-2.21,1-2.21,3.13s.74,3.05,2.21,3.05a5.2,5.2,0,0,0,1.51-.22,5.41,5.41,0,0,0,1.39-.68v2.42a4.49,4.49,0,0,1-1.38.6A7.91,7.91,0,0,1,239.88,95.41Z"/><path class="d" d="M255,95.22h-2.83v-6c0-1.5-.56-2.25-1.67-2.25a1.88,1.88,0,0,0-1.71.81,4.85,4.85,0,0,0-.53,2.61v4.88h-2.83V80.79h2.83v2.94c0,.23,0,.77-.07,1.61l-.06.84h.15a3.26,3.26,0,0,1,3-1.52,3.68,3.68,0,0,1,2.78,1,3.92,3.92,0,0,1,.94,2.82Z"/><path class="d" d="M267.21,95.22h-2.83v-6a3.09,3.09,0,0,0-.37-1.69,1.34,1.34,0,0,0-1.19-.56,1.7,1.7,0,0,0-1.57.8,5.16,5.16,0,0,0-.5,2.62v4.88h-2.83V84.85h2.17l.38,1.33h.15a2.86,2.86,0,0,1,1.21-1.12,3.92,3.92,0,0,1,1.81-.4,3.24,3.24,0,0,1,3.15,1.52H267a2.79,2.79,0,0,1,1.23-1.12,4.08,4.08,0,0,1,1.84-.4,3.61,3.61,0,0,1,2.66.9,3.94,3.94,0,0,1,.91,2.9v6.76h-2.84v-6a3.09,3.09,0,0,0-.38-1.69,1.32,1.32,0,0,0-1.18-.56,1.77,1.77,0,0,0-1.55.74,4.17,4.17,0,0,0-.52,2.36Z"/><path class="d" d="M283.17,95.22l-.55-1.41h-.07a4.23,4.23,0,0,1-1.47,1.25,4.79,4.79,0,0,1-2,.35,3.25,3.25,0,0,1-2.36-.85,3.29,3.29,0,0,1-.85-2.44,2.72,2.72,0,0,1,1.15-2.43,6.75,6.75,0,0,1,3.48-.87l1.8,0v-.46a1.41,1.41,0,0,0-1.61-1.58,7.39,7.39,0,0,0-2.92.76l-.94-1.91a8.37,8.37,0,0,1,4-.94,4.92,4.92,0,0,1,3.2.91,3.36,3.36,0,0,1,1.11,2.76v6.91Zm-.84-4.8-1.09,0a3.5,3.5,0,0,0-1.84.44,1.4,1.4,0,0,0-.6,1.24c0,.8.46,1.2,1.37,1.2a2.19,2.19,0,0,0,1.58-.57,2,2,0,0,0,.58-1.5Z"/><path class="d" d="M293.85,84.66a4.26,4.26,0,0,1,.95.08l-.21,2.65a3.37,3.37,0,0,0-.84-.09,3,3,0,0,0-2.11.7,2.52,2.52,0,0,0-.75,2v5.27h-2.83V84.85h2.14l.42,1.75h.14a3.83,3.83,0,0,1,1.3-1.41A3.18,3.18,0,0,1,293.85,84.66Z"/><path class="d" d="M299.41,89.58,300.64,88l2.9-3.16h3.19l-4.12,4.5L307,95.22h-3.26l-3-4.2-1.21,1v3.22h-2.83V80.79h2.83v6.44l-.15,2.35Z"/><path class="d" d="M181.9,159.46a3.5,3.5,0,0,1-1.32,2.89,5.7,5.7,0,0,1-3.68,1.06,8.6,8.6,0,0,1-3.84-.82v-2.67a14.81,14.81,0,0,0,2.33.86,6.7,6.7,0,0,0,1.74.25,2.48,2.48,0,0,0,1.45-.36,1.22,1.22,0,0,0,.5-1.07,1.15,1.15,0,0,0-.22-.71,2.39,2.39,0,0,0-.65-.6,17.86,17.86,0,0,0-1.76-.92,8.46,8.46,0,0,1-1.87-1.12,4.32,4.32,0,0,1-1-1.26,3.9,3.9,0,0,1,.85-4.49,5,5,0,0,1,3.37-1,7.82,7.82,0,0,1,2,.26,13.43,13.43,0,0,1,2,.7l-.93,2.24a12.09,12.09,0,0,0-1.79-.62,5.72,5.72,0,0,0-1.4-.18,1.87,1.87,0,0,0-1.25.38,1.25,1.25,0,0,0-.44,1,1.22,1.22,0,0,0,.18.67,1.94,1.94,0,0,0,.56.54,15.4,15.4,0,0,0,1.82.95,7.29,7.29,0,0,1,2.61,1.83A3.54,3.54,0,0,1,181.9,159.46Z"/><path class="d" d="M184,150.17c0-.92.51-1.38,1.54-1.38s1.54.46,1.54,1.38a1.36,1.36,0,0,1-.39,1,1.62,1.62,0,0,1-1.15.36C184.53,151.56,184,151.1,184,150.17ZM187,163.22h-2.83V152.85H187Z"/><path class="d" d="M192.77,163.22h-2.83V148.79h2.83Z"/><path class="d" d="M195.62,150.17c0-.92.51-1.38,1.54-1.38s1.54.46,1.54,1.38a1.36,1.36,0,0,1-.39,1,1.62,1.62,0,0,1-1.15.36C196.13,151.56,195.62,151.1,195.62,150.17Zm2.95,13.05h-2.83V152.85h2.83Z"/><path class="d" d="M205.75,163.41q-4.84,0-4.84-5.32a5.71,5.71,0,0,1,1.31-4,5,5,0,0,1,3.78-1.39,7.2,7.2,0,0,1,3.23.7l-.84,2.19a12.55,12.55,0,0,0-1.24-.44,4.16,4.16,0,0,0-1.15-.17c-1.47,0-2.21,1-2.21,3.13s.74,3.05,2.21,3.05a5.2,5.2,0,0,0,1.51-.22,5.41,5.41,0,0,0,1.39-.68v2.42a4.49,4.49,0,0,1-1.38.6A7.91,7.91,0,0,1,205.75,163.41Z"/><path class="d" d="M220.73,158a5.56,5.56,0,0,1-1.33,4,4.85,4.85,0,0,1-3.72,1.43,5.17,5.17,0,0,1-2.64-.66,4.34,4.34,0,0,1-1.75-1.87,6.31,6.31,0,0,1-.61-2.86,5.55,5.55,0,0,1,1.32-4,4.88,4.88,0,0,1,3.73-1.41,5.17,5.17,0,0,1,2.64.65,4.32,4.32,0,0,1,1.75,1.86A6.23,6.23,0,0,1,220.73,158Zm-7.17,0a4.33,4.33,0,0,0,.51,2.33,1.8,1.8,0,0,0,1.64.79,1.76,1.76,0,0,0,1.63-.79,4.41,4.41,0,0,0,.5-2.33,4.31,4.31,0,0,0-.5-2.31,2.14,2.14,0,0,0-3.28,0A4.35,4.35,0,0,0,213.56,158Z"/><path class="d" d="M232.64,163.22h-2.83v-6.05a3,3,0,0,0-.39-1.69,1.47,1.47,0,0,0-1.28-.56,1.89,1.89,0,0,0-1.71.79,5,5,0,0,0-.53,2.63v4.88h-2.83V152.85h2.16l.38,1.33h.16a3.06,3.06,0,0,1,1.3-1.14,4.59,4.59,0,0,1,1.89-.38,3.61,3.61,0,0,1,2.75,1,3.93,3.93,0,0,1,.93,2.82Z"/><path class="d" d="M246.46,163.22l-3.27-10.64h-.08c.12,2.17.18,3.61.18,4.34v6.3h-2.57V149.66h3.91L247.84,160h.06l3.4-10.37h3.92v13.56h-2.68V156.8c0-.3,0-.65,0-1s0-1.45.12-3.16h-.08l-3.5,10.62Z"/><path class="d" d="M267.83,158a5.56,5.56,0,0,1-1.33,4,4.85,4.85,0,0,1-3.72,1.43,5.17,5.17,0,0,1-2.64-.66,4.34,4.34,0,0,1-1.75-1.87,6.31,6.31,0,0,1-.61-2.86,5.55,5.55,0,0,1,1.32-4,4.88,4.88,0,0,1,3.73-1.41,5.17,5.17,0,0,1,2.64.65,4.32,4.32,0,0,1,1.75,1.86A6.23,6.23,0,0,1,267.83,158Zm-7.17,0a4.33,4.33,0,0,0,.51,2.33,1.8,1.8,0,0,0,1.64.79,1.76,1.76,0,0,0,1.63-.79,4.41,4.41,0,0,0,.5-2.33,4.31,4.31,0,0,0-.5-2.31,2.14,2.14,0,0,0-3.28,0A4.35,4.35,0,0,0,260.66,158Z"/><path class="d" d="M274.54,161.15a5.94,5.94,0,0,0,1.78-.32v2.11a6.43,6.43,0,0,1-2.6.47,3.19,3.19,0,0,1-2.47-.86,3.76,3.76,0,0,1-.77-2.57v-5h-1.36v-1.2l1.56-.95.82-2.19h1.81v2.21h2.9V155h-2.9v5a1.09,1.09,0,0,0,.34.89A1.32,1.32,0,0,0,274.54,161.15Z"/><path class="d" d="M278.3,150.17c0-.92.51-1.38,1.54-1.38s1.54.46,1.54,1.38a1.36,1.36,0,0,1-.39,1,1.62,1.62,0,0,1-1.15.36C278.81,151.56,278.3,151.1,278.3,150.17Zm2.95,13.05h-2.83V152.85h2.83Z"/><path class="d" d="M293.64,158a5.56,5.56,0,0,1-1.33,4,4.85,4.85,0,0,1-3.72,1.43,5.17,5.17,0,0,1-2.64-.66,4.34,4.34,0,0,1-1.75-1.87,6.31,6.31,0,0,1-.61-2.86,5.55,5.55,0,0,1,1.32-4,4.88,4.88,0,0,1,3.73-1.41,5.17,5.17,0,0,1,2.64.65,4.32,4.32,0,0,1,1.75,1.86A6.23,6.23,0,0,1,293.64,158Zm-7.17,0a4.33,4.33,0,0,0,.51,2.33,1.82,1.82,0,0,0,1.64.79,1.76,1.76,0,0,0,1.63-.79,4.41,4.41,0,0,0,.5-2.33,4.31,4.31,0,0,0-.5-2.31,2.14,2.14,0,0,0-3.28,0A4.35,4.35,0,0,0,286.47,158Z"/><path class="d" d="M305.56,163.22h-2.83v-6.05a3,3,0,0,0-.4-1.69,1.47,1.47,0,0,0-1.27-.56,1.91,1.91,0,0,0-1.72.79,5,5,0,0,0-.53,2.63v4.88H296V152.85h2.16l.38,1.33h.16A3,3,0,0,1,300,153a4.51,4.51,0,0,1,1.88-.38,3.6,3.6,0,0,1,2.75,1,3.93,3.93,0,0,1,.94,2.82Z"/><path d="M666.83,98.41H653.62v-3l4.6-4.65c.94-1,1.68-1.77,2.24-2.4a7.61,7.61,0,0,0,1.18-1.65A3.43,3.43,0,0,0,662,85.2a1.73,1.73,0,0,0-.58-1.44,2.37,2.37,0,0,0-1.47-.46,4.15,4.15,0,0,0-1.94.5,11.77,11.77,0,0,0-2.07,1.43l-2.42-2.84A17.73,17.73,0,0,1,655.23,81a8,8,0,0,1,2.15-1,9.55,9.55,0,0,1,3-.41,7.33,7.33,0,0,1,3.23.67A5.09,5.09,0,0,1,665.66,82a4.74,4.74,0,0,1,.72,2.59,6.7,6.7,0,0,1-.59,2.83A10.06,10.06,0,0,1,664,90c-.78.83-1.74,1.76-2.86,2.8l-1.93,1.77v.16h7.6Z"/><path d="M681.83,89.13a17.84,17.84,0,0,1-.64,5.12,6.39,6.39,0,0,1-2.08,3.28,6.05,6.05,0,0,1-3.86,1.14,5.47,5.47,0,0,1-5-2.52,13.33,13.33,0,0,1-1.57-7,18,18,0,0,1,.64-5.14,6.38,6.38,0,0,1,2.08-3.29,6.05,6.05,0,0,1,3.86-1.14,5.47,5.47,0,0,1,5,2.52A13.19,13.19,0,0,1,681.83,89.13Zm-8.76,0a16.6,16.6,0,0,0,.45,4.48,1.77,1.77,0,0,0,1.73,1.5c.85,0,1.42-.5,1.73-1.5a16.6,16.6,0,0,0,.45-4.48,16.89,16.89,0,0,0-.45-4.49c-.31-1-.88-1.52-1.73-1.52s-1.43.51-1.73,1.52A16.89,16.89,0,0,0,673.07,89.13Z"/><path d="M687.94,79.58a4.1,4.1,0,0,1,3.4,1.53,6.62,6.62,0,0,1,1.23,4.27,7.14,7.14,0,0,1-1.15,4.31,4,4,0,0,1-3.48,1.54,4,4,0,0,1-3.33-1.54,6.88,6.88,0,0,1-1.2-4.31,7.13,7.13,0,0,1,1.12-4.27A4,4,0,0,1,687.94,79.58Zm0,2.87c-.4,0-.68.25-.85.75a7.71,7.71,0,0,0-.24,2.21,8,8,0,0,0,.24,2.23c.17.53.45.79.85.79s.68-.26.84-.79a7.55,7.55,0,0,0,.25-2.23,7.31,7.31,0,0,0-.25-2.21Q688.59,82.45,688,82.45Zm13.57-2.6L691.27,98.41h-3.38l10.29-18.56Zm-.1,7.15a4.1,4.1,0,0,1,3.4,1.52,6.62,6.62,0,0,1,1.23,4.27,7.17,7.17,0,0,1-1.15,4.31,4,4,0,0,1-3.48,1.54,4,4,0,0,1-3.33-1.54,6.9,6.9,0,0,1-1.2-4.31,7.13,7.13,0,0,1,1.12-4.27A3.94,3.94,0,0,1,701.46,87Zm0,2.83q-.6,0-.84.78a9.89,9.89,0,0,0,0,4.42q.24.78.84.78c.73,0,1.09-1,1.09-3S702.24,89.83,701.51,89.83Z"/><path d="M681.85,160.88a18.64,18.64,0,0,1-.45,4.17,9.51,9.51,0,0,1-1.54,3.45,7.24,7.24,0,0,1-2.91,2.32,10.84,10.84,0,0,1-4.59.85c-.36,0-.79,0-1.28,0s-.91-.07-1.24-.12V168a11,11,0,0,0,2.29.23,7.26,7.26,0,0,0,3.42-.66,3.7,3.7,0,0,0,1.7-1.86,8.25,8.25,0,0,0,.57-2.76h-.15a5,5,0,0,1-1.38,1.54,4.36,4.36,0,0,1-2.55.62,4.82,4.82,0,0,1-3.77-1.56,6.4,6.4,0,0,1-1.4-4.42,6.48,6.48,0,0,1,1.71-4.77,6.37,6.37,0,0,1,4.71-1.73,6.93,6.93,0,0,1,3.48.89,6.06,6.06,0,0,1,2.47,2.71A10.44,10.44,0,0,1,681.85,160.88Zm-6.76-4.73a2.06,2.06,0,0,0-1.63.7,3.24,3.24,0,0,0-.63,2.21,3,3,0,0,0,.55,1.92,2,2,0,0,0,1.66.71,2.23,2.23,0,0,0,1.74-.75,2.29,2.29,0,0,0,.68-1.57,4.62,4.62,0,0,0-.26-1.52,2.92,2.92,0,0,0-.78-1.22A1.89,1.89,0,0,0,675.09,156.15Z"/><path d="M687.94,152.58a4.1,4.1,0,0,1,3.4,1.53,6.62,6.62,0,0,1,1.22,4.27,7.15,7.15,0,0,1-1.14,4.31,4,4,0,0,1-3.48,1.54,4,4,0,0,1-3.33-1.54,6.88,6.88,0,0,1-1.2-4.31,7.13,7.13,0,0,1,1.12-4.27A4,4,0,0,1,687.94,152.58Zm0,2.87c-.4,0-.68.25-.85.75a7.71,7.71,0,0,0-.24,2.21,8,8,0,0,0,.24,2.23c.17.53.45.79.85.79s.68-.26.84-.79a7.55,7.55,0,0,0,.25-2.23,7.31,7.31,0,0,0-.25-2.21Q688.59,155.45,688,155.45Zm13.57-2.6-10.3,18.56h-3.38l10.3-18.56Zm-.1,7.15a4.1,4.1,0,0,1,3.4,1.52,6.62,6.62,0,0,1,1.22,4.27,7.17,7.17,0,0,1-1.14,4.31,4,4,0,0,1-3.48,1.54,4,4,0,0,1-3.33-1.54,6.9,6.9,0,0,1-1.2-4.31,7.13,7.13,0,0,1,1.12-4.27A3.94,3.94,0,0,1,701.46,160Zm0,2.83c-.4,0-.68.26-.85.78a10.3,10.3,0,0,0,0,4.42c.17.52.45.78.85.78.73,0,1.09-1,1.09-3S702.24,162.83,701.51,162.83Z"/><path class="e" d="M51.39,220l-.34,3.06,3.1-.87.27,2.1-2.82.2L53.45,227l-1.89,1-1.29-2.59L49.13,228l-2-1L49,224.5l-2.81-.22.33-2.08,3,.87L49.21,220Z"/><path class="e" d="M63.46,228.27v4.66H60.89V220.79h3.53a6,6,0,0,1,3.66.9,3.59,3.59,0,0,1,.6,4.64A3.82,3.82,0,0,1,67,227.64l3.57,5.29H67.73l-2.9-4.66Zm0-2.09h.83a3.19,3.19,0,0,0,1.8-.41,1.43,1.43,0,0,0,.58-1.27,1.33,1.33,0,0,0-.59-1.23,3.55,3.55,0,0,0-1.84-.37h-.78Z"/><path class="e" d="M77.8,232.93l-.49-1.26h-.06a3.76,3.76,0,0,1-1.32,1.11,4.21,4.21,0,0,1-1.76.31,2.86,2.86,0,0,1-2.11-.76,2.93,2.93,0,0,1-.77-2.17,2.45,2.45,0,0,1,1-2.18,6,6,0,0,1,3.12-.78l1.61,0v-.4a1.27,1.27,0,0,0-1.45-1.42A6.56,6.56,0,0,0,73,226l-.84-1.71a7.53,7.53,0,0,1,3.55-.84,4.46,4.46,0,0,1,2.87.81,3,3,0,0,1,1,2.48v6.18Zm-.74-4.3-1,0a3.16,3.16,0,0,0-1.65.4,1.24,1.24,0,0,0-.54,1.11c0,.72.41,1.07,1.23,1.07a1.93,1.93,0,0,0,1.41-.5,1.8,1.8,0,0,0,.53-1.35Z"/><path class="e" d="M85.12,233.09a3,3,0,0,1-2.57-1.26,7.1,7.1,0,0,1,0-7.08,3.1,3.1,0,0,1,2.62-1.28,3.06,3.06,0,0,1,2.68,1.36h.08a10,10,0,0,1-.19-1.85v-3h2.54v12.92H88.35l-.49-1.2h-.11A2.91,2.91,0,0,1,85.12,233.09Zm.88-2a1.72,1.72,0,0,0,1.43-.57,3.28,3.28,0,0,0,.49-1.91v-.28a3.78,3.78,0,0,0-.46-2.14,1.73,1.73,0,0,0-1.5-.65,1.48,1.48,0,0,0-1.31.72,3.76,3.76,0,0,0-.47,2.09,3.65,3.65,0,0,0,.47,2A1.55,1.55,0,0,0,86,231.08Z"/><path class="e" d="M98.07,225.55h-2.2v7.38H93.34v-7.38H92v-1.22l1.39-.68V223a3.05,3.05,0,0,1,.78-2.32,3.62,3.62,0,0,1,2.5-.73,6.47,6.47,0,0,1,2.33.39l-.64,1.86a4.75,4.75,0,0,0-1.42-.24.91.91,0,0,0-.77.32,1.27,1.27,0,0,0-.25.82v.58h2.2Z"/><path class="e" d="M108,228.27a5,5,0,0,1-1.19,3.55,4.35,4.35,0,0,1-3.33,1.27,4.67,4.67,0,0,1-2.36-.58,3.93,3.93,0,0,1-1.57-1.68,5.71,5.71,0,0,1-.55-2.56,5,5,0,0,1,1.19-3.53,4.33,4.33,0,0,1,3.34-1.27,4.63,4.63,0,0,1,2.35.59,3.76,3.76,0,0,1,1.57,1.66A5.57,5.57,0,0,1,108,228.27Zm-6.41,0a4,4,0,0,0,.45,2.09,1.61,1.61,0,0,0,1.47.7,1.59,1.59,0,0,0,1.46-.7,4,4,0,0,0,.44-2.09,3.77,3.77,0,0,0-.45-2.06,1.91,1.91,0,0,0-2.93,0A3.84,3.84,0,0,0,101.54,228.27Z"/><path class="e" d="M115.22,223.47a4.05,4.05,0,0,1,.86.08l-.19,2.37a3.25,3.25,0,0,0-.75-.08,2.71,2.71,0,0,0-1.89.62,2.27,2.27,0,0,0-.68,1.75v4.72H110v-9.28H112l.37,1.56h.13a3.51,3.51,0,0,1,1.16-1.26A2.88,2.88,0,0,1,115.22,223.47Z"/><path class="e" d="M120.54,233.09a3,3,0,0,1-2.57-1.26,7.1,7.1,0,0,1,0-7.08,3.1,3.1,0,0,1,2.62-1.28,3,3,0,0,1,2.67,1.36h.09a10,10,0,0,1-.19-1.85v-3h2.54v12.92h-1.95l-.49-1.2h-.1A2.91,2.91,0,0,1,120.54,233.09Zm.88-2a1.73,1.73,0,0,0,1.43-.57,3.28,3.28,0,0,0,.49-1.91v-.28a3.78,3.78,0,0,0-.46-2.14,1.73,1.73,0,0,0-1.5-.65,1.48,1.48,0,0,0-1.31.72,3.76,3.76,0,0,0-.47,2.09,3.57,3.57,0,0,0,.47,2A1.55,1.55,0,0,0,121.42,231.08Z"/><path class="e" d="M140.61,232.93h-8.49v-1.79l3-3.08q1.35-1.38,1.77-1.92a4.51,4.51,0,0,0,.6-1,2.55,2.55,0,0,0,.18-1,1.4,1.4,0,0,0-.4-1.08,1.57,1.57,0,0,0-1.08-.36,3.16,3.16,0,0,0-1.37.32,8.1,8.1,0,0,0-1.39.92l-1.39-1.65a8.85,8.85,0,0,1,1.49-1.08,5.29,5.29,0,0,1,1.28-.48,6.84,6.84,0,0,1,1.56-.17,4.71,4.71,0,0,1,2,.41,3.22,3.22,0,0,1,1.35,1.17,3,3,0,0,1,.49,1.71,4.14,4.14,0,0,1-.3,1.57,6,6,0,0,1-.91,1.51,22.63,22.63,0,0,1-2.18,2.19l-1.56,1.47v.12h5.29Z"/><path class="e" d="M150.26,226.86a8.52,8.52,0,0,1-1,4.71,3.62,3.62,0,0,1-3.21,1.52,3.58,3.58,0,0,1-3.17-1.57,8.37,8.37,0,0,1-1.06-4.66,8.59,8.59,0,0,1,1-4.74,3.62,3.62,0,0,1,3.2-1.52,3.55,3.55,0,0,1,3.17,1.6A8.29,8.29,0,0,1,150.26,226.86Zm-5.94,0a9.33,9.33,0,0,0,.39,3.2,1.35,1.35,0,0,0,2.59,0,13,13,0,0,0,0-6.4,1.35,1.35,0,0,0-2.59,0A9.7,9.7,0,0,0,144.32,226.86Z"/><path class="e" d="M157.91,232.93h-2.57v-7l0-1.16,0-1.26c-.43.43-.73.71-.89.84l-1.4,1.12-1.23-1.54,3.91-3.12h2.11Z"/><path class="e" d="M169.72,226a8.14,8.14,0,0,1-1.51,5.36,5.72,5.72,0,0,1-4.58,1.76A8.41,8.41,0,0,1,162,233v-2.06a5.78,5.78,0,0,0,1.46.17,5.2,5.2,0,0,0,2.12-.37,2.76,2.76,0,0,0,1.27-1.19,5.22,5.22,0,0,0,.5-2.23h-.1a2.84,2.84,0,0,1-1.11,1.1,3.53,3.53,0,0,1-1.58.31,3.23,3.23,0,0,1-2.5-1,4.13,4.13,0,0,1-.91-2.83,4.2,4.2,0,0,1,1.11-3.08,4,4,0,0,1,3-1.14,4.35,4.35,0,0,1,2.35.63,4.06,4.06,0,0,1,1.55,1.83A7,7,0,0,1,169.72,226Zm-4.39-3.26a1.51,1.51,0,0,0-1.25.55,2.41,2.41,0,0,0-.45,1.57,2.2,2.2,0,0,0,.41,1.4,1.49,1.49,0,0,0,1.24.52,1.9,1.9,0,0,0,1.33-.52,1.56,1.56,0,0,0,.56-1.17,2.64,2.64,0,0,0-.52-1.67A1.61,1.61,0,0,0,165.33,222.71Z"/><path class="e" d="M186.34,226.75a6,6,0,0,1-1.71,4.58,6.93,6.93,0,0,1-4.93,1.6h-3.43V220.79h3.81a6.42,6.42,0,0,1,4.61,1.57A5.78,5.78,0,0,1,186.34,226.75Zm-2.68.06q0-3.92-3.45-3.91h-1.37v7.9H180Q183.65,230.8,183.66,226.81Z"/><path class="e" d="M194.55,232.93l-.49-1.26H194a3.76,3.76,0,0,1-1.32,1.11,4.21,4.21,0,0,1-1.76.31,2.84,2.84,0,0,1-2.1-.76,2.89,2.89,0,0,1-.77-2.17,2.44,2.44,0,0,1,1-2.18,6,6,0,0,1,3.12-.78l1.61,0v-.4a1.27,1.27,0,0,0-1.45-1.42,6.56,6.56,0,0,0-2.61.68l-.84-1.71a7.53,7.53,0,0,1,3.55-.84,4.46,4.46,0,0,1,2.87.81,3,3,0,0,1,1,2.48v6.18Zm-.75-4.3-1,0a3.12,3.12,0,0,0-1.64.4,1.24,1.24,0,0,0-.54,1.11c0,.72.41,1.07,1.23,1.07a1.92,1.92,0,0,0,1.4-.5,1.8,1.8,0,0,0,.53-1.35Z"/><path class="e" d="M202.83,231.08a5.61,5.61,0,0,0,1.59-.29v1.88a5.69,5.69,0,0,1-2.32.42,2.85,2.85,0,0,1-2.21-.76,3.31,3.31,0,0,1-.7-2.31v-4.47H198v-1.07l1.4-.85.73-2h1.62v2h2.59v1.9h-2.59V230a1,1,0,0,0,.3.8A1.2,1.2,0,0,0,202.83,231.08Z"/><path class="e" d="M212.19,232.93l-.49-1.26h-.06a3.76,3.76,0,0,1-1.32,1.11,4.21,4.21,0,0,1-1.76.31,2.86,2.86,0,0,1-2.11-.76,2.93,2.93,0,0,1-.77-2.17,2.45,2.45,0,0,1,1-2.18,6,6,0,0,1,3.11-.78l1.62,0v-.4a1.27,1.27,0,0,0-1.45-1.42,6.56,6.56,0,0,0-2.61.68l-.84-1.71a7.53,7.53,0,0,1,3.55-.84,4.41,4.41,0,0,1,2.86.81,3,3,0,0,1,1,2.48v6.18Zm-.74-4.3-1,0a3.16,3.16,0,0,0-1.65.4,1.24,1.24,0,0,0-.54,1.11c0,.72.41,1.07,1.23,1.07a1.93,1.93,0,0,0,1.41-.5,1.8,1.8,0,0,0,.53-1.35Z"/><path class="d" d="M314.81,73.17,314.49,76l2.91-.81.26,2-2.66.18,1.75,2.32-1.78,1-1.22-2.45-1.07,2.43-1.84-.93,1.73-2.32-2.64-.2.3-2,2.85.81-.32-2.87Z"/></svg>