<?xml version="1.0" encoding="UTF-8"?><svg xmlns="http://www.w3.org/2000/svg" viewBox="0 0 800 240"><defs><style>.cls-1{fill:#0071bc;}.cls-2{fill:#98d5f4;}.cls-3{fill:#333;}.cls-4{fill:none;stroke:gray;stroke-miterlimit:10;}</style></defs><g id="_2022"><line class="cls-4" x1="324.01" y1="225" x2="324.01" y2="19"/><g><rect class="cls-2" x="324.01" y="128.88" width="164.78" height="63.12"/><rect class="cls-1" x="324.01" y="58.74" width="302.09" height="63.12"/></g></g><g id="Numbers"><g><path d="M684.99,95.41h-4.47v-10.01c0-.23,0-.56,.01-1.01,0-.45,.02-.93,.03-1.43,0-.5,.02-.95,.04-1.35-.14,.17-.33,.38-.57,.61-.24,.23-.47,.44-.68,.61l-2.13,1.74-2.21-2.76,6.16-4.96h3.82v18.56Z"/><path d="M700.02,95.41h-4.47v-10.01c0-.23,0-.56,.01-1.01,0-.45,.02-.93,.03-1.43,0-.5,.02-.95,.04-1.35-.14,.17-.33,.38-.57,.61-.24,.23-.47,.44-.68,.61l-2.13,1.74-2.21-2.76,6.16-4.96h3.82v18.56Z"/></g><path d="M689.62,163.53c0-1.06,.08-2.12,.23-3.17,.16-1.06,.43-2.05,.82-2.98,.39-.93,.94-1.75,1.65-2.47,.71-.72,1.62-1.28,2.73-1.69,1.11-.41,2.46-.61,4.06-.61,.36,0,.8,.02,1.31,.05,.51,.04,.93,.09,1.26,.16v3.48c-.35-.07-.72-.12-1.13-.17s-.86-.07-1.37-.07c-1.4,0-2.5,.22-3.28,.65-.78,.43-1.34,1.05-1.68,1.85-.34,.8-.53,1.73-.58,2.78h.16c.35-.61,.82-1.12,1.43-1.54,.61-.42,1.41-.62,2.42-.62,1.63,0,2.91,.52,3.85,1.56s1.4,2.5,1.4,4.39c0,2.06-.58,3.67-1.73,4.81s-2.72,1.72-4.69,1.72c-1.3,0-2.47-.29-3.5-.87-1.03-.58-1.85-1.47-2.46-2.68-.61-1.2-.91-2.73-.91-4.59Zm6.79,4.6c.66,0,1.19-.23,1.6-.7,.41-.47,.61-1.21,.61-2.21,0-.8-.17-1.43-.52-1.9s-.89-.7-1.64-.7-1.36,.24-1.79,.73c-.43,.48-.65,1.01-.65,1.59,0,.5,.09,1,.26,1.49,.17,.49,.44,.9,.79,1.22,.35,.32,.8,.48,1.34,.48Z"/></g><g id="Labels-EN"><g><path class="cls-3" d="M173.96,95.22l-3.27-10.64h-.08c.12,2.17,.18,3.61,.18,4.33v6.31h-2.57v-13.56h3.92l3.21,10.37h.06l3.41-10.37h3.91v13.56h-2.68v-6.42c0-.3,0-.65,.01-1.05,0-.4,.05-1.45,.13-3.15h-.08l-3.5,10.62h-2.63Z"/><path class="cls-3" d="M192.5,95.22l-.55-1.41h-.07c-.48,.6-.97,1.02-1.47,1.25-.5,.23-1.16,.35-1.97,.35-1,0-1.78-.28-2.35-.85-.57-.57-.86-1.38-.86-2.43s.38-1.91,1.16-2.44c.77-.52,1.93-.81,3.48-.87l1.8-.06v-.45c0-1.05-.54-1.58-1.61-1.58-.83,0-1.8,.25-2.92,.75l-.94-1.91c1.19-.62,2.52-.94,3.97-.94s2.46,.3,3.2,.91c.74,.61,1.11,1.53,1.11,2.77v6.91h-1.98Zm-.83-4.81l-1.09,.04c-.82,.03-1.43,.17-1.84,.45-.4,.27-.6,.69-.6,1.24,0,.8,.46,1.2,1.37,1.2,.66,0,1.18-.19,1.57-.57,.39-.38,.59-.88,.59-1.5v-.85Z"/><path class="cls-3" d="M206.96,95.22h-2.83v-6.06c0-.75-.13-1.31-.4-1.68s-.69-.56-1.27-.56c-.79,0-1.36,.26-1.72,.79-.35,.53-.53,1.41-.53,2.63v4.88h-2.83v-10.37h2.16l.38,1.33h.16c.32-.5,.75-.88,1.3-1.14s1.18-.39,1.89-.39c1.21,0,2.12,.33,2.75,.98,.62,.65,.94,1.59,.94,2.83v6.76Z"/><path class="cls-3" d="M216.46,95.22l-.55-1.41h-.07c-.48,.6-.97,1.02-1.47,1.25-.5,.23-1.16,.35-1.97,.35-1,0-1.78-.28-2.35-.85-.57-.57-.86-1.38-.86-2.43s.38-1.91,1.16-2.44c.77-.52,1.93-.81,3.48-.87l1.8-.06v-.45c0-1.05-.54-1.58-1.61-1.58-.83,0-1.8,.25-2.92,.75l-.94-1.91c1.19-.62,2.52-.94,3.97-.94s2.46,.3,3.2,.91c.74,.61,1.11,1.53,1.11,2.77v6.91h-1.98Zm-.83-4.81l-1.09,.04c-.82,.03-1.43,.17-1.84,.45-.4,.27-.6,.69-.6,1.24,0,.8,.46,1.2,1.37,1.2,.66,0,1.18-.19,1.57-.57,.39-.38,.59-.88,.59-1.5v-.85Z"/><path class="cls-3" d="M230.42,95.24c0,1.49-.44,2.62-1.3,3.39-.87,.77-2.16,1.16-3.88,1.16-1.52,0-2.81-.2-3.88-.61v-2.26c1.26,.53,2.6,.8,4.04,.8s2.18-.79,2.18-2.36v-.2l.08-1.27h-.08c-.66,1.02-1.64,1.53-2.94,1.53s-2.21-.48-2.89-1.44c-.68-.96-1.03-2.26-1.03-3.91s.35-3.03,1.06-3.98c.71-.95,1.68-1.42,2.93-1.42s2.28,.51,3.01,1.52h.07l.23-1.33h2.39v10.39Zm-4.77-2.05c.76,0,1.31-.22,1.63-.65,.33-.44,.49-1.14,.49-2.12v-.34c0-1.11-.17-1.9-.51-2.39-.34-.49-.9-.73-1.66-.73-1.33,0-2,1.05-2,3.14,0,1.04,.17,1.81,.5,2.33,.33,.51,.85,.77,1.54,.77Z"/><path class="cls-3" d="M238.07,95.41c-1.67,0-2.97-.46-3.92-1.38s-1.41-2.23-1.41-3.92,.43-3.08,1.3-4.03c.87-.95,2.07-1.42,3.6-1.42s2.61,.42,3.42,1.25,1.22,1.99,1.22,3.46v1.37h-6.69c.03,.8,.27,1.43,.71,1.88,.45,.45,1.07,.68,1.87,.68,.62,0,1.21-.06,1.77-.19s1.14-.34,1.74-.62v2.19c-.49,.25-1.02,.43-1.59,.55-.56,.12-1.25,.18-2.06,.18Zm-.4-8.74c-.6,0-1.07,.19-1.41,.57-.34,.38-.53,.92-.58,1.62h3.97c-.01-.7-.2-1.24-.55-1.62-.35-.38-.83-.57-1.43-.57Z"/><path class="cls-3" d="M250.39,84.66c.38,0,.7,.03,.96,.08l-.21,2.65c-.23-.06-.51-.09-.83-.09-.9,0-1.61,.23-2.11,.7-.5,.46-.76,1.11-.76,1.95v5.28h-2.83v-10.37h2.14l.42,1.74h.14c.32-.58,.76-1.05,1.3-1.41,.55-.36,1.14-.53,1.79-.53Z"/><path class="cls-3" d="M260.46,92.14c0,1.06-.37,1.87-1.11,2.43-.74,.56-1.84,.83-3.32,.83-.75,0-1.4-.05-1.93-.15-.53-.1-1.03-.25-1.49-.45v-2.34c.53,.25,1.12,.45,1.78,.62,.66,.17,1.24,.25,1.74,.25,1.03,0,1.54-.3,1.54-.89,0-.22-.07-.4-.2-.54-.14-.14-.37-.3-.71-.47-.33-.18-.78-.38-1.34-.62-.8-.33-1.38-.64-1.76-.93-.37-.28-.65-.61-.82-.98-.17-.37-.25-.82-.25-1.36,0-.92,.36-1.63,1.07-2.14,.71-.5,1.73-.76,3.04-.76s2.46,.27,3.65,.82l-.85,2.04c-.52-.22-1-.4-1.46-.55-.45-.14-.91-.21-1.38-.21-.83,0-1.25,.23-1.25,.68,0,.25,.13,.47,.4,.66,.27,.19,.86,.46,1.77,.83,.81,.33,1.4,.63,1.78,.92,.38,.28,.66,.61,.83,.98,.18,.37,.27,.81,.27,1.33Z"/><path class="cls-3" d="M277.04,90.02c0,1.69-.45,3.01-1.34,3.96-.89,.95-2.13,1.43-3.72,1.43-1,0-1.87-.22-2.63-.65-.76-.44-1.34-1.06-1.75-1.88s-.61-1.77-.61-2.86c0-1.7,.44-3.01,1.33-3.95,.88-.94,2.13-1.41,3.73-1.41,1,0,1.87,.22,2.63,.65,.76,.43,1.34,1.05,1.75,1.86,.41,.81,.61,1.76,.61,2.85Zm-7.17,0c0,1.03,.17,1.8,.51,2.33s.89,.79,1.65,.79,1.3-.26,1.63-.78c.33-.52,.5-1.3,.5-2.33s-.17-1.8-.5-2.31-.88-.77-1.64-.77-1.3,.25-1.63,.76c-.33,.51-.5,1.28-.5,2.32Z"/><path class="cls-3" d="M288.95,95.22h-2.83v-6.06c0-.75-.13-1.31-.4-1.68s-.69-.56-1.27-.56c-.79,0-1.36,.26-1.72,.79-.35,.53-.53,1.41-.53,2.63v4.88h-2.83v-10.37h2.16l.38,1.33h.16c.32-.5,.75-.88,1.3-1.14s1.18-.39,1.89-.39c1.21,0,2.12,.33,2.75,.98,.62,.65,.94,1.59,.94,2.83v6.76Z"/><path class="cls-3" d="M294.69,95.22h-2.83v-14.44h2.83v14.44Z"/><path class="cls-3" d="M296.17,84.85h3.1l1.96,5.84c.17,.51,.28,1.11,.34,1.8h.06c.07-.64,.2-1.24,.4-1.8l1.92-5.84h3.03l-4.39,11.7c-.4,1.08-.98,1.89-1.72,2.43-.75,.54-1.62,.81-2.61,.81-.49,0-.97-.05-1.44-.16v-2.25c.34,.08,.71,.12,1.11,.12,.5,0,.94-.15,1.31-.46,.37-.31,.67-.77,.88-1.39l.17-.51-4.12-10.3Z"/><path class="cls-3" d="M185.37,163.22l-.98-3.23h-4.95l-.98,3.23h-3.1l4.79-13.62h3.52l4.81,13.62h-3.1Zm-1.67-5.64c-.91-2.92-1.42-4.58-1.54-4.96-.11-.38-.2-.69-.25-.91-.2,.79-.79,2.75-1.75,5.87h3.53Z"/><path class="cls-3" d="M192.78,163.22h-2.83v-14.44h2.83v14.44Z"/><path class="cls-3" d="M198.58,163.22h-2.83v-14.44h2.83v14.44Z"/><path class="cls-3" d="M211.17,163.41c-1.67,0-2.97-.46-3.92-1.38s-1.41-2.23-1.41-3.92,.43-3.08,1.3-4.03c.87-.95,2.07-1.42,3.6-1.42s2.61,.42,3.42,1.25,1.22,1.99,1.22,3.46v1.37h-6.69c.03,.8,.27,1.43,.71,1.88,.45,.45,1.07,.68,1.87,.68,.62,0,1.21-.06,1.77-.19s1.14-.34,1.74-.62v2.19c-.49,.25-1.02,.43-1.59,.55-.56,.12-1.25,.18-2.06,.18Zm-.4-8.74c-.6,0-1.07,.19-1.41,.57-.34,.38-.53,.92-.58,1.62h3.97c-.01-.7-.2-1.24-.55-1.62-.35-.38-.83-.57-1.43-.57Z"/><path class="cls-3" d="M226.99,163.22h-2.83v-6.06c0-.75-.12-1.31-.38-1.68-.25-.37-.64-.56-1.18-.56-.72,0-1.25,.27-1.58,.8-.33,.53-.49,1.41-.49,2.62v4.88h-2.83v-10.37h2.16l.38,1.33h.16c.28-.48,.68-.85,1.21-1.12,.53-.27,1.13-.4,1.81-.4,1.55,0,2.6,.51,3.15,1.52h.25c.28-.48,.69-.86,1.23-1.12,.54-.27,1.15-.4,1.83-.4,1.17,0,2.06,.3,2.67,.91s.9,1.57,.9,2.9v6.76h-2.84v-6.06c0-.75-.12-1.31-.38-1.68-.25-.37-.64-.56-1.18-.56-.69,0-1.21,.25-1.55,.74-.34,.5-.51,1.28-.51,2.36v5.2Z"/><path class="cls-3" d="M242.06,163.41c-1.22,0-2.17-.44-2.87-1.33h-.15c.1,.87,.15,1.37,.15,1.5v4.2h-2.83v-14.94h2.3l.4,1.35h.13c.66-1.03,1.64-1.54,2.94-1.54,1.22,0,2.18,.47,2.88,1.42s1.04,2.26,1.04,3.94c0,1.11-.16,2.07-.49,2.88-.32,.82-.79,1.44-1.39,1.87-.6,.43-1.3,.64-2.12,.64Zm-.83-8.49c-.7,0-1.21,.21-1.53,.65-.32,.43-.49,1.14-.5,2.13v.31c0,1.11,.17,1.91,.5,2.39,.33,.48,.85,.72,1.57,.72,1.27,0,1.9-1.04,1.9-3.13,0-1.02-.16-1.79-.47-2.3-.31-.51-.8-.77-1.47-.77Z"/><path class="cls-3" d="M251.22,163.22h-2.83v-14.44h2.83v14.44Z"/><path class="cls-3" d="M263.61,158.02c0,1.69-.45,3.01-1.34,3.96-.89,.95-2.13,1.43-3.72,1.43-1,0-1.87-.22-2.63-.65-.76-.44-1.34-1.06-1.75-1.88s-.61-1.77-.61-2.86c0-1.7,.44-3.01,1.33-3.95,.88-.94,2.13-1.41,3.73-1.41,1,0,1.87,.22,2.63,.65,.76,.43,1.34,1.05,1.75,1.86,.41,.81,.61,1.76,.61,2.85Zm-7.17,0c0,1.03,.17,1.8,.51,2.33s.89,.79,1.65,.79,1.3-.26,1.63-.78c.33-.52,.5-1.3,.5-2.33s-.17-1.8-.5-2.31-.88-.77-1.64-.77-1.3,.25-1.63,.76c-.33,.51-.5,1.28-.5,2.32Z"/><path class="cls-3" d="M264.28,152.85h3.1l1.96,5.84c.17,.51,.28,1.11,.34,1.8h.06c.07-.64,.2-1.24,.4-1.8l1.92-5.84h3.03l-4.39,11.7c-.4,1.08-.98,1.89-1.72,2.43-.75,.54-1.62,.81-2.61,.81-.49,0-.97-.05-1.44-.16v-2.25c.34,.08,.71,.12,1.11,.12,.5,0,.94-.15,1.31-.46,.37-.31,.67-.77,.88-1.39l.17-.51-4.12-10.3Z"/><path class="cls-3" d="M281.27,163.41c-1.67,0-2.97-.46-3.92-1.38s-1.41-2.23-1.41-3.92,.43-3.08,1.3-4.03c.87-.95,2.07-1.42,3.6-1.42s2.61,.42,3.42,1.25,1.22,1.99,1.22,3.46v1.37h-6.69c.03,.8,.27,1.43,.71,1.88,.45,.45,1.07,.68,1.87,.68,.62,0,1.21-.06,1.77-.19s1.14-.34,1.74-.62v2.19c-.49,.25-1.02,.43-1.59,.55-.56,.12-1.25,.18-2.06,.18Zm-.4-8.74c-.6,0-1.07,.19-1.41,.57-.34,.38-.53,.92-.58,1.62h3.97c-.01-.7-.2-1.24-.55-1.62-.35-.38-.83-.57-1.43-.57Z"/><path class="cls-3" d="M292.49,163.41c-1.67,0-2.97-.46-3.92-1.38s-1.41-2.23-1.41-3.92,.43-3.08,1.3-4.03c.87-.95,2.07-1.42,3.6-1.42s2.61,.42,3.42,1.25,1.22,1.99,1.22,3.46v1.37h-6.69c.03,.8,.27,1.43,.71,1.88,.45,.45,1.07,.68,1.87,.68,.62,0,1.21-.06,1.77-.19s1.14-.34,1.74-.62v2.19c-.49,.25-1.02,.43-1.59,.55-.56,.12-1.25,.18-2.06,.18Zm-.4-8.74c-.6,0-1.07,.19-1.41,.57-.34,.38-.53,.92-.58,1.62h3.97c-.01-.7-.2-1.24-.55-1.62-.35-.38-.83-.57-1.43-.57Z"/><path class="cls-3" d="M306.26,160.14c0,1.06-.37,1.87-1.11,2.43-.74,.56-1.84,.83-3.32,.83-.75,0-1.4-.05-1.93-.15-.53-.1-1.03-.25-1.49-.45v-2.34c.53,.25,1.12,.45,1.78,.62,.66,.17,1.24,.25,1.74,.25,1.03,0,1.54-.3,1.54-.89,0-.22-.07-.4-.2-.54-.14-.14-.37-.3-.71-.47-.33-.18-.78-.38-1.34-.62-.8-.33-1.38-.64-1.76-.93-.37-.28-.65-.61-.82-.98-.17-.37-.25-.82-.25-1.36,0-.92,.36-1.63,1.07-2.14,.71-.5,1.73-.76,3.04-.76s2.46,.27,3.65,.82l-.85,2.04c-.52-.22-1-.4-1.46-.55-.45-.14-.91-.21-1.38-.21-.83,0-1.25,.23-1.25,.68,0,.25,.13,.47,.4,.66,.27,.19,.86,.46,1.77,.83,.81,.33,1.4,.63,1.78,.92,.38,.28,.66,.61,.83,.98,.18,.37,.27,.81,.27,1.33Z"/></g></g></svg>