<?xml version="1.0" encoding="UTF-8"?><svg xmlns="http://www.w3.org/2000/svg" viewBox="0 0 800 480"><defs><style>.cls-1{fill:#0071bc;}.cls-2{fill:#e6e6e6;}.cls-3{fill:#999;}.cls-4{fill:#98d5f4;}.cls-5{fill:#333;}.cls-6{fill:#29abe2;}.cls-7{fill:none;stroke:gray;stroke-miterlimit:10;}</style></defs><g id="_2022"><line class="cls-7" x1="339.01" y1="400.96" x2="339.01" y2="79.22"/><g><rect class="cls-2" x="339.01" y="307.66" width="329.55" height="57.91"/><rect class="cls-6" x="339.01" y="243.31" width="123.58" height="57.91"/><rect class="cls-4" x="339.01" y="178.96" width="148.3" height="57.91"/><rect class="cls-1" x="339.01" y="114.62" width="173.02" height="57.91"/></g></g><g id="Numbers"><g><path d="M690.83,146.41h-13.21v-2.99l4.6-4.65c.94-.97,1.68-1.77,2.24-2.39s.95-1.17,1.18-1.65c.23-.48,.35-.98,.35-1.52,0-.66-.2-1.14-.58-1.44-.39-.3-.88-.46-1.47-.46-.66,0-1.3,.17-1.94,.49s-1.32,.81-2.07,1.43l-2.42-2.83c.54-.48,1.11-.94,1.72-1.36,.61-.42,1.32-.77,2.14-1.04,.82-.27,1.82-.4,2.98-.4,1.25,0,2.32,.22,3.22,.66s1.59,1.04,2.08,1.79c.48,.75,.73,1.62,.73,2.59,0,1.04-.2,1.98-.6,2.83-.4,.85-.99,1.69-1.77,2.52-.78,.83-1.73,1.77-2.86,2.81l-1.92,1.77v.16h7.59v3.69Z"/><path d="M703.04,146.41h-4.47v-10.01c0-.23,0-.56,.01-1.01s.02-.93,.03-1.43c0-.5,.02-.95,.04-1.35-.14,.17-.33,.38-.57,.61-.24,.23-.47,.44-.68,.61l-2.13,1.74-2.21-2.76,6.16-4.97h3.82v18.56Z"/><path d="M711.94,127.58c1.46,0,2.59,.51,3.41,1.52,.81,1.01,1.22,2.44,1.22,4.28s-.38,3.27-1.14,4.3c-.76,1.03-1.92,1.55-3.48,1.55-1.42,0-2.53-.52-3.33-1.55-.8-1.03-1.2-2.47-1.2-4.3s.37-3.26,1.12-4.28c.75-1.01,1.88-1.52,3.41-1.52Zm.05,2.86c-.4,0-.68,.25-.84,.75-.17,.5-.25,1.24-.25,2.21s.08,1.72,.25,2.24,.45,.78,.84,.78,.68-.26,.85-.78c.16-.52,.25-1.27,.25-2.24s-.08-1.71-.25-2.21c-.17-.5-.45-.75-.85-.75Zm13.57-2.6l-10.3,18.56h-3.38l10.3-18.56h3.38Zm-.1,7.15c1.46,0,2.59,.51,3.41,1.52s1.22,2.44,1.22,4.28-.38,3.27-1.14,4.3-1.92,1.55-3.48,1.55c-1.42,0-2.53-.52-3.33-1.55-.8-1.03-1.2-2.47-1.2-4.3s.37-3.26,1.12-4.28,1.88-1.52,3.41-1.52Zm.05,2.83c-.4,0-.68,.26-.84,.78-.17,.52-.25,1.26-.25,2.21s.08,1.69,.25,2.21c.16,.52,.45,.78,.84,.78,.73,0,1.09-1,1.09-2.99s-.36-2.99-1.09-2.99Z"/></g><g><path d="M688.02,213.74h-4.47v-10.01c0-.23,0-.56,.01-1.01s.02-.93,.03-1.43c0-.5,.02-.95,.04-1.35-.14,.17-.33,.38-.57,.61-.24,.23-.47,.44-.68,.61l-2.13,1.74-2.21-2.76,6.16-4.97h3.82v18.56Z"/><path d="M699.28,194.94c1.14,0,2.17,.16,3.08,.49,.91,.33,1.63,.83,2.17,1.5,.54,.67,.81,1.5,.81,2.48,0,1.13-.31,2.05-.92,2.77-.62,.72-1.4,1.3-2.35,1.76,.62,.35,1.23,.75,1.81,1.2s1.06,.98,1.44,1.6c.38,.62,.57,1.33,.57,2.15,0,1.53-.58,2.76-1.73,3.7-1.15,.95-2.79,1.42-4.9,1.42s-3.86-.46-4.97-1.38c-1.11-.92-1.66-2.14-1.66-3.67,0-1.28,.33-2.3,1-3.05s1.5-1.37,2.48-1.86c-.8-.52-1.48-1.15-2.05-1.88-.57-.74-.86-1.66-.86-2.77,0-.97,.27-1.79,.82-2.46,.55-.67,1.28-1.17,2.2-1.5,.92-.33,1.94-.49,3.07-.49Zm-2.57,13.78c0,.61,.21,1.1,.64,1.48,.42,.38,1.04,.57,1.86,.57,.88,0,1.54-.18,1.96-.55,.42-.36,.64-.84,.64-1.43,0-.43-.12-.82-.38-1.16-.25-.34-.56-.63-.92-.88-.36-.25-.7-.47-1.01-.66l-.34-.21c-.71,.35-1.3,.75-1.75,1.2-.46,.45-.69,1-.69,1.64Zm2.55-10.58c-.54,0-.99,.15-1.35,.44-.36,.29-.55,.69-.55,1.2,0,.54,.19,.99,.56,1.35,.37,.36,.82,.68,1.34,.94,.49-.23,.93-.51,1.33-.86,.4-.35,.6-.82,.6-1.43,0-.5-.19-.9-.56-1.2-.37-.29-.83-.44-1.37-.44Z"/><path d="M711.94,194.92c1.46,0,2.59,.51,3.41,1.52,.81,1.01,1.22,2.44,1.22,4.28s-.38,3.27-1.14,4.3c-.76,1.03-1.92,1.55-3.48,1.55-1.42,0-2.53-.52-3.33-1.55-.8-1.03-1.2-2.47-1.2-4.3s.37-3.26,1.12-4.28c.75-1.01,1.88-1.52,3.41-1.52Zm.05,2.86c-.4,0-.68,.25-.84,.75-.17,.5-.25,1.24-.25,2.21s.08,1.72,.25,2.24,.45,.78,.84,.78,.68-.26,.85-.78c.16-.52,.25-1.27,.25-2.24s-.08-1.71-.25-2.21c-.17-.5-.45-.75-.85-.75Zm13.57-2.6l-10.3,18.56h-3.38l10.3-18.56h3.38Zm-.1,7.15c1.46,0,2.59,.51,3.41,1.52s1.22,2.44,1.22,4.28-.38,3.27-1.14,4.3-1.92,1.55-3.48,1.55c-1.42,0-2.53-.52-3.33-1.55-.8-1.03-1.2-2.47-1.2-4.3s.37-3.26,1.12-4.28,1.88-1.52,3.41-1.52Zm.05,2.83c-.4,0-.68,.26-.84,.78-.17,.52-.25,1.26-.25,2.21s.08,1.69,.25,2.21c.16,.52,.45,.78,.84,.78,.73,0,1.09-1,1.09-2.99s-.36-2.99-1.09-2.99Z"/></g><g><path d="M688.02,281.08h-4.47v-10.01c0-.23,0-.56,.01-1.01,0-.45,.02-.93,.03-1.43s.02-.95,.04-1.35c-.14,.17-.33,.38-.57,.61s-.47,.44-.68,.61l-2.13,1.74-2.21-2.76,6.16-4.97h3.82v18.56Z"/><path d="M699.82,269.06c1.09,0,2.07,.23,2.94,.68,.87,.45,1.55,1.11,2.05,1.98,.5,.87,.75,1.92,.75,3.15,0,2.06-.62,3.66-1.87,4.78-1.25,1.13-3.11,1.69-5.59,1.69-1.02,0-1.97-.09-2.83-.26-.87-.17-1.63-.42-2.29-.75v-3.72c.64,.33,1.42,.61,2.33,.85,.91,.23,1.75,.35,2.54,.35,1.06,0,1.87-.22,2.43-.66,.56-.44,.84-1.11,.84-2.01,0-.81-.28-1.44-.84-1.88-.56-.44-1.43-.66-2.59-.66-.47,0-.95,.05-1.43,.14-.49,.1-.9,.19-1.25,.27l-1.69-.86,.7-9.62h10.3v3.72h-6.5l-.29,3.09c.29-.05,.6-.11,.91-.17s.77-.09,1.38-.09Z"/><path d="M711.94,262.25c1.46,0,2.59,.51,3.41,1.52,.81,1.01,1.22,2.44,1.22,4.28s-.38,3.27-1.14,4.3c-.76,1.03-1.92,1.55-3.48,1.55-1.42,0-2.53-.52-3.33-1.55-.8-1.03-1.2-2.46-1.2-4.3s.37-3.26,1.12-4.28c.75-1.01,1.88-1.52,3.41-1.52Zm.05,2.86c-.4,0-.68,.25-.84,.75s-.25,1.24-.25,2.21,.08,1.72,.25,2.24c.17,.52,.45,.78,.84,.78s.68-.26,.85-.78c.16-.52,.25-1.26,.25-2.24s-.08-1.71-.25-2.21c-.17-.5-.45-.75-.85-.75Zm13.57-2.6l-10.3,18.56h-3.38l10.3-18.56h3.38Zm-.1,7.15c1.46,0,2.59,.51,3.41,1.52,.81,1.01,1.22,2.44,1.22,4.28s-.38,3.27-1.14,4.3-1.92,1.55-3.48,1.55c-1.42,0-2.53-.52-3.33-1.55-.8-1.03-1.2-2.46-1.2-4.3s.37-3.26,1.12-4.28c.75-1.01,1.88-1.52,3.41-1.52Zm.05,2.83c-.4,0-.68,.26-.84,.78-.17,.52-.25,1.26-.25,2.21s.08,1.69,.25,2.21c.16,.52,.45,.78,.84,.78,.73,0,1.09-1,1.09-2.99s-.36-2.99-1.09-2.99Z"/></g><g><path d="M691.32,344.69h-2.13v3.72h-4.34v-3.72h-7.7v-3.17l7.96-11.67h4.08v11.46h2.13v3.38Zm-6.47-3.38v-2.68c0-.35,0-.77,.03-1.27,.02-.5,.03-.96,.05-1.38s.04-.68,.05-.78h-.13c-.16,.36-.31,.69-.47,.97-.16,.29-.35,.6-.57,.95l-2.78,4.19h3.82Z"/><path d="M705.83,339.13c0,1.99-.21,3.7-.64,5.12s-1.12,2.51-2.08,3.28-2.25,1.14-3.86,1.14c-2.29,0-3.96-.84-5-2.52-1.05-1.68-1.57-4.02-1.57-7.02,0-1.99,.21-3.71,.64-5.13,.42-1.43,1.12-2.53,2.08-3.29,.96-.76,2.25-1.14,3.86-1.14,2.27,0,3.93,.84,4.99,2.52,1.06,1.68,1.59,4.03,1.59,7.05Zm-8.76,0c0,1.99,.15,3.49,.46,4.49,.3,1,.88,1.5,1.73,1.5s1.43-.5,1.73-1.5c.3-1,.46-2.49,.46-4.49s-.15-3.47-.46-4.48c-.3-1.01-.88-1.52-1.73-1.52s-1.43,.51-1.73,1.52c-.3,1.01-.46,2.51-.46,4.48Z"/><path d="M711.94,329.58c1.46,0,2.59,.51,3.41,1.52,.81,1.01,1.22,2.44,1.22,4.28s-.38,3.27-1.14,4.3c-.76,1.03-1.92,1.55-3.48,1.55-1.42,0-2.53-.52-3.33-1.55-.8-1.03-1.2-2.46-1.2-4.3s.37-3.26,1.12-4.28c.75-1.01,1.88-1.52,3.41-1.52Zm.05,2.86c-.4,0-.68,.25-.84,.75-.17,.5-.25,1.24-.25,2.21s.08,1.72,.25,2.24c.17,.52,.45,.78,.84,.78s.68-.26,.85-.78c.16-.52,.25-1.26,.25-2.24s-.08-1.71-.25-2.21c-.17-.5-.45-.75-.85-.75Zm13.57-2.6l-10.3,18.56h-3.38l10.3-18.56h3.38Zm-.1,7.15c1.46,0,2.59,.51,3.41,1.52,.81,1.01,1.22,2.44,1.22,4.28s-.38,3.27-1.14,4.3-1.92,1.55-3.48,1.55c-1.42,0-2.53-.52-3.33-1.55-.8-1.03-1.2-2.46-1.2-4.3s.37-3.26,1.12-4.28c.75-1.01,1.88-1.52,3.41-1.52Zm.05,2.83c-.4,0-.68,.26-.84,.78-.17,.52-.25,1.26-.25,2.21s.08,1.69,.25,2.21c.16,.52,.45,.78,.84,.78,.73,0,1.09-1,1.09-2.99s-.36-2.99-1.09-2.99Z"/></g></g><g id="Labels-EN"><g><path class="cls-5" d="M195.37,146.22l-.98-3.23h-4.95l-.98,3.23h-3.1l4.79-13.62h3.52l4.81,13.62h-3.1Zm-1.67-5.64c-.91-2.93-1.42-4.58-1.54-4.96-.11-.38-.2-.69-.25-.91-.2,.79-.79,2.75-1.75,5.87h3.53Z"/><path class="cls-5" d="M202.78,146.22h-2.83v-14.44h2.83v14.44Z"/><path class="cls-5" d="M208.58,146.22h-2.83v-14.44h2.83v14.44Z"/><path class="cls-5" d="M221.17,146.41c-1.67,0-2.97-.46-3.92-1.38-.94-.92-1.41-2.23-1.41-3.92s.43-3.08,1.3-4.03c.87-.95,2.07-1.42,3.6-1.42s2.61,.42,3.42,1.25,1.22,1.99,1.22,3.46v1.37h-6.69c.03,.8,.27,1.43,.71,1.88,.45,.45,1.07,.68,1.87,.68,.62,0,1.21-.06,1.77-.19s1.14-.34,1.74-.62v2.19c-.49,.25-1.02,.43-1.59,.55-.56,.12-1.25,.18-2.06,.18Zm-.4-8.74c-.6,0-1.07,.19-1.41,.57-.34,.38-.53,.92-.58,1.62h3.97c-.01-.7-.2-1.24-.55-1.62-.35-.38-.83-.57-1.43-.57Z"/><path class="cls-5" d="M236.99,146.22h-2.83v-6.06c0-.75-.12-1.31-.38-1.68-.25-.37-.64-.56-1.18-.56-.72,0-1.25,.27-1.58,.8-.33,.53-.49,1.41-.49,2.63v4.88h-2.83v-10.37h2.16l.38,1.33h.16c.28-.48,.68-.85,1.21-1.12,.53-.27,1.13-.4,1.81-.4,1.55,0,2.6,.51,3.15,1.52h.25c.28-.48,.69-.86,1.23-1.12,.54-.27,1.15-.4,1.83-.4,1.17,0,2.06,.3,2.67,.9s.9,1.57,.9,2.9v6.76h-2.84v-6.06c0-.75-.12-1.31-.38-1.68-.25-.37-.64-.56-1.18-.56-.69,0-1.21,.25-1.55,.74-.34,.5-.51,1.28-.51,2.36v5.2Z"/><path class="cls-5" d="M252.06,146.41c-1.22,0-2.17-.44-2.87-1.33h-.15c.1,.87,.15,1.37,.15,1.5v4.2h-2.83v-14.94h2.3l.4,1.35h.13c.66-1.03,1.64-1.54,2.94-1.54,1.22,0,2.18,.47,2.88,1.42s1.04,2.26,1.04,3.94c0,1.11-.16,2.07-.49,2.89-.32,.82-.79,1.44-1.39,1.86s-1.3,.64-2.12,.64Zm-.83-8.49c-.7,0-1.21,.21-1.53,.65-.32,.43-.49,1.14-.5,2.13v.31c0,1.11,.17,1.91,.5,2.39,.33,.48,.85,.72,1.57,.72,1.27,0,1.9-1.04,1.9-3.14,0-1.02-.16-1.79-.47-2.3-.31-.51-.8-.77-1.47-.77Z"/><path class="cls-5" d="M261.22,146.22h-2.83v-14.44h2.83v14.44Z"/><path class="cls-5" d="M273.61,141.02c0,1.69-.45,3.01-1.34,3.96-.89,.95-2.13,1.43-3.72,1.43-1,0-1.87-.22-2.63-.65-.76-.44-1.34-1.06-1.75-1.88s-.61-1.77-.61-2.86c0-1.69,.44-3.01,1.33-3.95,.88-.94,2.13-1.41,3.73-1.41,1,0,1.87,.22,2.63,.65,.76,.43,1.34,1.05,1.75,1.86,.41,.81,.61,1.76,.61,2.85Zm-7.17,0c0,1.03,.17,1.8,.51,2.33,.34,.53,.89,.79,1.65,.79s1.3-.26,1.63-.78c.33-.52,.5-1.3,.5-2.33s-.17-1.8-.5-2.31c-.33-.51-.88-.77-1.64-.77s-1.3,.26-1.63,.77c-.33,.51-.5,1.28-.5,2.31Z"/><path class="cls-5" d="M274.28,135.85h3.1l1.96,5.84c.17,.51,.28,1.11,.34,1.8h.06c.07-.64,.2-1.24,.4-1.8l1.92-5.84h3.03l-4.39,11.7c-.4,1.08-.98,1.89-1.72,2.43-.75,.54-1.62,.81-2.61,.81-.49,0-.97-.05-1.44-.16v-2.25c.34,.08,.71,.12,1.11,.12,.5,0,.94-.15,1.31-.46,.37-.31,.67-.77,.88-1.39l.17-.51-4.12-10.3Z"/><path class="cls-5" d="M291.27,146.41c-1.67,0-2.97-.46-3.92-1.38-.94-.92-1.41-2.23-1.41-3.92s.43-3.08,1.3-4.03c.87-.95,2.07-1.42,3.6-1.42s2.61,.42,3.42,1.25,1.22,1.99,1.22,3.46v1.37h-6.69c.03,.8,.27,1.43,.71,1.88,.45,.45,1.07,.68,1.87,.68,.62,0,1.21-.06,1.77-.19s1.14-.34,1.74-.62v2.19c-.49,.25-1.02,.43-1.59,.55-.56,.12-1.25,.18-2.06,.18Zm-.4-8.74c-.6,0-1.07,.19-1.41,.57-.34,.38-.53,.92-.58,1.62h3.97c-.01-.7-.2-1.24-.55-1.62-.35-.38-.83-.57-1.43-.57Z"/><path class="cls-5" d="M302.49,146.41c-1.67,0-2.97-.46-3.92-1.38-.94-.92-1.41-2.23-1.41-3.92s.43-3.08,1.3-4.03c.87-.95,2.07-1.42,3.6-1.42s2.61,.42,3.42,1.25,1.22,1.99,1.22,3.46v1.37h-6.69c.03,.8,.27,1.43,.71,1.88,.45,.45,1.07,.68,1.87,.68,.62,0,1.21-.06,1.77-.19s1.14-.34,1.74-.62v2.19c-.49,.25-1.02,.43-1.59,.55-.56,.12-1.25,.18-2.06,.18Zm-.4-8.74c-.6,0-1.07,.19-1.41,.57-.34,.38-.53,.92-.58,1.62h3.97c-.01-.7-.2-1.24-.55-1.62-.35-.38-.83-.57-1.43-.57Z"/><path class="cls-5" d="M316.26,143.14c0,1.06-.37,1.87-1.11,2.43-.74,.56-1.84,.83-3.32,.83-.75,0-1.4-.05-1.93-.15-.53-.1-1.03-.25-1.49-.45v-2.34c.53,.25,1.12,.45,1.78,.62,.66,.17,1.24,.25,1.74,.25,1.03,0,1.54-.3,1.54-.89,0-.22-.07-.4-.2-.54-.14-.14-.37-.3-.71-.47-.33-.18-.78-.38-1.34-.62-.8-.33-1.38-.64-1.76-.93-.37-.28-.65-.61-.82-.98-.17-.37-.25-.82-.25-1.36,0-.92,.36-1.63,1.07-2.14,.71-.5,1.73-.76,3.04-.76s2.46,.27,3.65,.82l-.85,2.04c-.52-.22-1-.4-1.46-.55-.45-.14-.91-.21-1.38-.21-.83,0-1.25,.23-1.25,.68,0,.25,.13,.47,.4,.66,.27,.19,.86,.46,1.77,.83,.81,.33,1.4,.63,1.78,.92,.38,.28,.66,.61,.83,.98,.18,.37,.27,.81,.27,1.33Z"/><path class="cls-5" d="M126.79,214.22l-3.27-10.64h-.08c.12,2.17,.18,3.61,.18,4.33v6.31h-2.57v-13.56h3.92l3.21,10.37h.06l3.41-10.37h3.91v13.56h-2.68v-6.42c0-.3,0-.65,.01-1.05,0-.4,.05-1.45,.13-3.15h-.08l-3.5,10.62h-2.63Z"/><path class="cls-5" d="M145.32,214.22l-.55-1.41h-.07c-.48,.6-.97,1.02-1.47,1.25-.5,.23-1.16,.35-1.97,.35-1,0-1.78-.28-2.35-.85-.57-.57-.86-1.38-.86-2.43s.38-1.91,1.16-2.44c.77-.52,1.93-.81,3.48-.87l1.8-.06v-.45c0-1.05-.54-1.58-1.61-1.58-.83,0-1.8,.25-2.92,.75l-.94-1.91c1.19-.62,2.52-.94,3.97-.94s2.46,.3,3.2,.91c.74,.61,1.11,1.53,1.11,2.76v6.91h-1.98Zm-.83-4.81l-1.09,.04c-.82,.02-1.43,.17-1.84,.45-.4,.27-.6,.69-.6,1.24,0,.8,.46,1.2,1.37,1.2,.66,0,1.18-.19,1.57-.57,.39-.38,.59-.88,.59-1.5v-.85Z"/><path class="cls-5" d="M159.79,214.22h-2.83v-6.06c0-.75-.13-1.31-.4-1.68-.27-.37-.69-.56-1.27-.56-.79,0-1.36,.26-1.72,.79-.35,.53-.53,1.41-.53,2.63v4.88h-2.83v-10.37h2.16l.38,1.33h.16c.32-.5,.75-.88,1.3-1.14,.55-.26,1.18-.39,1.89-.39,1.21,0,2.12,.33,2.75,.98,.62,.65,.94,1.59,.94,2.82v6.76Z"/><path class="cls-5" d="M169.29,214.22l-.55-1.41h-.07c-.48,.6-.97,1.02-1.47,1.25-.5,.23-1.16,.35-1.97,.35-1,0-1.78-.28-2.35-.85-.57-.57-.86-1.38-.86-2.43s.38-1.91,1.16-2.44c.77-.52,1.93-.81,3.48-.87l1.8-.06v-.45c0-1.05-.54-1.58-1.61-1.58-.83,0-1.8,.25-2.92,.75l-.94-1.91c1.19-.62,2.52-.94,3.97-.94s2.46,.3,3.2,.91c.74,.61,1.11,1.53,1.11,2.76v6.91h-1.98Zm-.83-4.81l-1.09,.04c-.82,.02-1.43,.17-1.84,.45-.4,.27-.6,.69-.6,1.24,0,.8,.46,1.2,1.37,1.2,.66,0,1.18-.19,1.57-.57,.39-.38,.59-.88,.59-1.5v-.85Z"/><path class="cls-5" d="M183.24,214.24c0,1.49-.44,2.62-1.3,3.39-.87,.77-2.16,1.16-3.88,1.16-1.52,0-2.81-.2-3.88-.61v-2.26c1.26,.53,2.6,.8,4.04,.8s2.18-.79,2.18-2.36v-.2l.08-1.27h-.08c-.66,1.02-1.64,1.53-2.94,1.53s-2.21-.48-2.89-1.44c-.68-.96-1.03-2.26-1.03-3.92s.35-3.03,1.06-3.98c.71-.95,1.68-1.42,2.93-1.42s2.28,.51,3.01,1.52h.07l.23-1.33h2.39v10.39Zm-4.77-2.05c.76,0,1.31-.22,1.63-.65,.33-.44,.49-1.14,.49-2.12v-.34c0-1.11-.17-1.9-.51-2.39-.34-.49-.9-.73-1.66-.73-1.33,0-2,1.05-2,3.14,0,1.04,.17,1.82,.5,2.33,.33,.51,.85,.77,1.54,.77Z"/><path class="cls-5" d="M190.89,214.41c-1.67,0-2.97-.46-3.92-1.38-.94-.92-1.41-2.23-1.41-3.92s.43-3.08,1.3-4.03c.87-.95,2.07-1.42,3.6-1.42s2.61,.42,3.42,1.25,1.22,1.99,1.22,3.46v1.37h-6.69c.03,.8,.27,1.43,.71,1.88,.45,.45,1.07,.68,1.87,.68,.62,0,1.21-.06,1.77-.19s1.14-.34,1.74-.62v2.19c-.49,.25-1.02,.43-1.59,.55-.56,.12-1.25,.18-2.06,.18Zm-.4-8.74c-.6,0-1.07,.19-1.41,.57-.34,.38-.53,.92-.58,1.62h3.97c-.01-.7-.2-1.24-.55-1.62-.35-.38-.83-.57-1.43-.57Z"/><path class="cls-5" d="M203.21,203.66c.38,0,.7,.03,.96,.08l-.21,2.65c-.23-.06-.51-.09-.83-.09-.9,0-1.61,.23-2.11,.7-.5,.46-.76,1.11-.76,1.95v5.28h-2.83v-10.37h2.14l.42,1.74h.14c.32-.58,.76-1.05,1.3-1.41,.55-.36,1.14-.53,1.79-.53Z"/><path class="cls-5" d="M213.29,211.14c0,1.06-.37,1.87-1.11,2.43-.74,.56-1.84,.83-3.32,.83-.75,0-1.4-.05-1.93-.15-.53-.1-1.03-.25-1.49-.45v-2.34c.53,.25,1.12,.45,1.78,.62,.66,.17,1.24,.25,1.74,.25,1.03,0,1.54-.3,1.54-.89,0-.22-.07-.4-.2-.54-.14-.14-.37-.3-.71-.47-.33-.18-.78-.38-1.34-.62-.8-.33-1.38-.64-1.76-.93-.37-.28-.65-.61-.82-.98-.17-.37-.25-.82-.25-1.36,0-.92,.36-1.63,1.07-2.14,.71-.5,1.73-.76,3.04-.76s2.46,.27,3.65,.82l-.85,2.04c-.52-.22-1-.4-1.46-.55-.45-.14-.91-.21-1.38-.21-.83,0-1.25,.23-1.25,.68,0,.25,.13,.47,.4,.66,.27,.19,.86,.46,1.77,.83,.81,.33,1.4,.63,1.78,.92,.38,.28,.66,.61,.83,.98,.18,.37,.27,.81,.27,1.33Z"/><path class="cls-5" d="M227.02,214.22l-.55-1.41h-.07c-.48,.6-.97,1.02-1.47,1.25-.5,.23-1.16,.35-1.97,.35-1,0-1.78-.28-2.35-.85-.57-.57-.86-1.38-.86-2.43s.38-1.91,1.16-2.44c.77-.52,1.93-.81,3.48-.87l1.8-.06v-.45c0-1.05-.54-1.58-1.61-1.58-.83,0-1.8,.25-2.92,.75l-.94-1.91c1.19-.62,2.52-.94,3.97-.94s2.46,.3,3.2,.91c.74,.61,1.11,1.53,1.11,2.76v6.91h-1.98Zm-.83-4.81l-1.09,.04c-.82,.02-1.43,.17-1.84,.45-.4,.27-.6,.69-.6,1.24,0,.8,.46,1.2,1.37,1.2,.66,0,1.18-.19,1.57-.57,.39-.38,.59-.88,.59-1.5v-.85Z"/><path class="cls-5" d="M241.48,214.22h-2.83v-6.06c0-.75-.13-1.31-.4-1.68-.27-.37-.69-.56-1.27-.56-.79,0-1.36,.26-1.72,.79-.35,.53-.53,1.41-.53,2.63v4.88h-2.83v-10.37h2.16l.38,1.33h.16c.32-.5,.75-.88,1.3-1.14,.55-.26,1.18-.39,1.89-.39,1.21,0,2.12,.33,2.75,.98,.62,.65,.94,1.59,.94,2.82v6.76Z"/><path class="cls-5" d="M247.68,214.41c-1.22,0-2.18-.47-2.87-1.42-.7-.95-1.04-2.26-1.04-3.93s.35-3.03,1.06-3.98c.71-.95,1.68-1.42,2.93-1.42,1.3,0,2.3,.51,2.99,1.52h.09c-.14-.77-.21-1.46-.21-2.07v-3.32h2.84v14.44h-2.17l-.55-1.35h-.12c-.64,1.02-1.62,1.53-2.94,1.53Zm.99-2.25c.72,0,1.25-.21,1.59-.63,.34-.42,.52-1.13,.55-2.14v-.31c0-1.11-.17-1.91-.51-2.39-.34-.48-.9-.72-1.67-.72-.63,0-1.12,.27-1.47,.8-.35,.54-.52,1.31-.52,2.33s.18,1.79,.53,2.3c.35,.51,.86,.77,1.51,.77Z"/><path class="cls-5" d="M267.94,214.22l-.55-1.41h-.07c-.48,.6-.97,1.02-1.47,1.25-.5,.23-1.16,.35-1.97,.35-1,0-1.78-.28-2.35-.85-.57-.57-.86-1.38-.86-2.43s.38-1.91,1.16-2.44c.77-.52,1.93-.81,3.48-.87l1.8-.06v-.45c0-1.05-.54-1.58-1.61-1.58-.83,0-1.8,.25-2.92,.75l-.94-1.91c1.19-.62,2.52-.94,3.97-.94s2.46,.3,3.2,.91c.74,.61,1.11,1.53,1.11,2.76v6.91h-1.98Zm-.83-4.81l-1.09,.04c-.82,.02-1.43,.17-1.84,.45-.4,.27-.6,.69-.6,1.24,0,.8,.46,1.2,1.37,1.2,.66,0,1.18-.19,1.57-.57,.39-.38,.59-.88,.59-1.5v-.85Z"/><path class="cls-5" d="M278.6,203.66c1.22,0,2.18,.48,2.88,1.43,.69,.96,1.04,2.27,1.04,3.93s-.36,3.04-1.07,3.98c-.71,.94-1.69,1.41-2.92,1.41s-2.17-.44-2.87-1.33h-.2l-.47,1.14h-2.16v-14.44h2.83v3.36c0,.43-.04,1.11-.11,2.05h.11c.66-1.03,1.64-1.54,2.94-1.54Zm-.91,2.26c-.7,0-1.21,.21-1.53,.65-.32,.43-.49,1.14-.5,2.13v.31c0,1.11,.17,1.91,.5,2.39,.33,.48,.85,.72,1.57,.72,.58,0,1.04-.27,1.39-.8,.34-.54,.52-1.31,.52-2.33s-.17-1.79-.52-2.3c-.35-.51-.82-.77-1.42-.77Z"/><path class="cls-5" d="M294.28,209.02c0,1.69-.45,3.01-1.34,3.96-.89,.95-2.13,1.43-3.72,1.43-1,0-1.87-.22-2.63-.65-.76-.44-1.34-1.06-1.75-1.88s-.61-1.77-.61-2.86c0-1.69,.44-3.01,1.33-3.95,.88-.94,2.13-1.41,3.73-1.41,1,0,1.87,.22,2.63,.65,.76,.43,1.34,1.05,1.75,1.86,.41,.81,.61,1.76,.61,2.85Zm-7.17,0c0,1.03,.17,1.8,.51,2.33,.34,.53,.89,.79,1.65,.79s1.3-.26,1.63-.78c.33-.52,.5-1.3,.5-2.33s-.17-1.8-.5-2.31c-.33-.51-.88-.77-1.64-.77s-1.3,.26-1.63,.77c-.33,.51-.5,1.28-.5,2.31Z"/><path class="cls-5" d="M298.9,214.22l-3.95-10.37h2.96l2,5.91c.21,.64,.34,1.35,.4,2.12h.07c.04-.7,.18-1.41,.42-2.12l2-5.91h2.96l-3.95,10.37h-2.9Z"/><path class="cls-5" d="M311.94,214.41c-1.67,0-2.97-.46-3.92-1.38-.94-.92-1.41-2.23-1.41-3.92s.43-3.08,1.3-4.03c.87-.95,2.07-1.42,3.6-1.42s2.61,.42,3.42,1.25,1.22,1.99,1.22,3.46v1.37h-6.69c.03,.8,.27,1.43,.71,1.88,.45,.45,1.07,.68,1.87,.68,.62,0,1.21-.06,1.77-.19s1.14-.34,1.74-.62v2.19c-.49,.25-1.02,.43-1.59,.55-.56,.12-1.25,.18-2.06,.18Zm-.4-8.74c-.6,0-1.07,.19-1.41,.57-.34,.38-.53,.92-.58,1.62h3.97c-.01-.7-.2-1.24-.55-1.62-.35-.38-.83-.57-1.43-.57Z"/><path class="cls-5" d="M181.23,277.02v5.2h-2.88v-13.56h3.95c1.84,0,3.21,.34,4.09,1.01,.88,.67,1.33,1.69,1.33,3.06,0,.8-.22,1.51-.66,2.13-.44,.62-1.06,1.11-1.86,1.46l3.99,5.91h-3.19l-3.24-5.2h-1.53Zm0-2.34h.93c.91,0,1.58-.15,2.01-.45,.43-.3,.65-.78,.65-1.43s-.22-1.1-.66-1.37c-.44-.27-1.13-.41-2.05-.41h-.87v3.66Z"/><path class="cls-5" d="M203.44,282.22h-3.5l-1.07-1.05c-1.18,.82-2.52,1.23-4.01,1.23s-2.71-.35-3.59-1.04c-.88-.69-1.33-1.63-1.33-2.81,0-.85,.19-1.57,.56-2.17,.37-.6,1.02-1.15,1.92-1.67-.46-.53-.8-1.04-1.01-1.53-.21-.49-.32-1.02-.32-1.59,0-.94,.36-1.7,1.08-2.27s1.68-.86,2.89-.86,2.07,.27,2.76,.8c.69,.54,1.03,1.25,1.03,2.15,0,.74-.21,1.41-.64,2.02-.43,.61-1.12,1.19-2.07,1.74l2.63,2.57c.44-.72,.82-1.65,1.14-2.79h2.95c-.22,.83-.53,1.65-.92,2.44-.39,.79-.83,1.5-1.33,2.11l2.79,2.72Zm-10.51-3.93c0,.53,.2,.96,.6,1.27,.4,.32,.91,.47,1.54,.47,.78,0,1.48-.19,2.11-.57l-3.08-3.06c-.36,.27-.64,.56-.85,.85-.21,.3-.31,.64-.31,1.03Zm3.33-6.58c0-.33-.11-.59-.33-.77-.22-.19-.51-.28-.86-.28-.42,0-.74,.1-.98,.3-.24,.2-.36,.48-.36,.84,0,.54,.29,1.14,.88,1.8,.53-.3,.94-.59,1.22-.88,.28-.29,.43-.62,.43-1.01Z"/><path class="cls-5" d="M216.4,275.31c0,2.23-.64,3.94-1.91,5.13-1.27,1.19-3.11,1.78-5.51,1.78h-3.84v-13.56h4.26c2.21,0,3.93,.58,5.16,1.75s1.84,2.8,1.84,4.9Zm-2.99,.07c0-2.91-1.29-4.37-3.86-4.37h-1.53v8.83h1.23c2.77,0,4.16-1.49,4.16-4.46Z"/><path class="cls-5" d="M228.62,282.41c-1.67,0-2.97-.46-3.92-1.38-.94-.92-1.41-2.23-1.41-3.92s.43-3.08,1.3-4.03c.87-.95,2.07-1.42,3.6-1.42s2.61,.42,3.42,1.25,1.22,1.99,1.22,3.46v1.37h-6.69c.03,.8,.27,1.43,.71,1.88,.45,.45,1.07,.68,1.87,.68,.62,0,1.21-.06,1.77-.19s1.14-.34,1.74-.62v2.19c-.49,.25-1.02,.43-1.59,.55-.56,.12-1.25,.18-2.06,.18Zm-.4-8.74c-.6,0-1.07,.19-1.41,.57-.34,.38-.53,.92-.58,1.62h3.97c-.01-.7-.2-1.24-.55-1.62-.35-.38-.83-.57-1.43-.57Z"/><path class="cls-5" d="M244.72,282.22h-2.83v-6.06c0-.75-.13-1.31-.4-1.68-.27-.37-.69-.56-1.27-.56-.79,0-1.36,.26-1.72,.79-.35,.53-.53,1.41-.53,2.63v4.88h-2.83v-10.37h2.16l.38,1.33h.16c.32-.5,.75-.88,1.3-1.14,.55-.26,1.18-.39,1.89-.39,1.21,0,2.12,.33,2.75,.98,.62,.65,.94,1.59,.94,2.82v6.76Z"/><path class="cls-5" d="M256.7,282.24c0,1.49-.44,2.62-1.3,3.39-.87,.77-2.16,1.16-3.88,1.16-1.52,0-2.81-.2-3.88-.61v-2.26c1.26,.53,2.6,.8,4.04,.8s2.18-.79,2.18-2.36v-.2l.08-1.27h-.08c-.66,1.02-1.64,1.53-2.94,1.53s-2.21-.48-2.89-1.44c-.68-.96-1.03-2.26-1.03-3.92s.35-3.03,1.06-3.98c.71-.95,1.68-1.42,2.93-1.42s2.28,.51,3.01,1.52h.07l.23-1.33h2.39v10.39Zm-4.77-2.05c.76,0,1.31-.22,1.63-.65,.33-.44,.49-1.14,.49-2.12v-.34c0-1.11-.17-1.9-.51-2.39-.34-.49-.9-.73-1.66-.73-1.33,0-2,1.05-2,3.14,0,1.04,.17,1.82,.5,2.33,.33,.51,.85,.77,1.54,.77Z"/><path class="cls-5" d="M259.54,269.17c0-.92,.51-1.38,1.54-1.38s1.54,.46,1.54,1.38c0,.44-.13,.78-.38,1.02-.26,.24-.64,.37-1.15,.37-1.03,0-1.54-.46-1.54-1.39Zm2.95,13.05h-2.83v-10.37h2.83v10.37Z"/><path class="cls-5" d="M275.03,282.22h-2.83v-6.06c0-.75-.13-1.31-.4-1.68-.27-.37-.69-.56-1.27-.56-.79,0-1.36,.26-1.72,.79-.35,.53-.53,1.41-.53,2.63v4.88h-2.83v-10.37h2.16l.38,1.33h.16c.32-.5,.75-.88,1.3-1.14,.55-.26,1.18-.39,1.89-.39,1.21,0,2.12,.33,2.75,.98,.62,.65,.94,1.59,.94,2.82v6.76Z"/><path class="cls-5" d="M282.64,282.41c-1.67,0-2.97-.46-3.92-1.38-.94-.92-1.41-2.23-1.41-3.92s.43-3.08,1.3-4.03c.87-.95,2.07-1.42,3.6-1.42s2.61,.42,3.42,1.25,1.22,1.99,1.22,3.46v1.37h-6.69c.03,.8,.27,1.43,.71,1.88,.45,.45,1.07,.68,1.87,.68,.62,0,1.21-.06,1.77-.19s1.14-.34,1.74-.62v2.19c-.49,.25-1.02,.43-1.59,.55-.56,.12-1.25,.18-2.06,.18Zm-.4-8.74c-.6,0-1.07,.19-1.41,.57-.34,.38-.53,.92-.58,1.62h3.97c-.01-.7-.2-1.24-.55-1.62-.35-.38-.83-.57-1.43-.57Z"/><path class="cls-5" d="M293.86,282.41c-1.67,0-2.97-.46-3.92-1.38-.94-.92-1.41-2.23-1.41-3.92s.43-3.08,1.3-4.03c.87-.95,2.07-1.42,3.6-1.42s2.61,.42,3.42,1.25,1.22,1.99,1.22,3.46v1.37h-6.69c.03,.8,.27,1.43,.71,1.88,.45,.45,1.07,.68,1.87,.68,.62,0,1.21-.06,1.77-.19s1.14-.34,1.74-.62v2.19c-.49,.25-1.02,.43-1.59,.55-.56,.12-1.25,.18-2.06,.18Zm-.4-8.74c-.6,0-1.07,.19-1.41,.57-.34,.38-.53,.92-.58,1.62h3.97c-.01-.7-.2-1.24-.55-1.62-.35-.38-.83-.57-1.43-.57Z"/><path class="cls-5" d="M306.18,271.66c.38,0,.7,.03,.96,.08l-.21,2.65c-.23-.06-.51-.09-.83-.09-.9,0-1.61,.23-2.11,.7-.5,.46-.76,1.11-.76,1.95v5.28h-2.83v-10.37h2.14l.42,1.74h.14c.32-.58,.76-1.05,1.3-1.41,.55-.36,1.14-.53,1.79-.53Z"/><path class="cls-5" d="M316.26,279.14c0,1.06-.37,1.87-1.11,2.43-.74,.56-1.84,.83-3.32,.83-.75,0-1.4-.05-1.93-.15-.53-.1-1.03-.25-1.49-.45v-2.34c.53,.25,1.12,.45,1.78,.62,.66,.17,1.24,.25,1.74,.25,1.03,0,1.54-.3,1.54-.89,0-.22-.07-.4-.2-.54-.14-.14-.37-.3-.71-.47-.33-.18-.78-.38-1.34-.62-.8-.33-1.38-.64-1.76-.93-.37-.28-.65-.61-.82-.98-.17-.37-.25-.82-.25-1.36,0-.92,.36-1.63,1.07-2.14,.71-.5,1.73-.76,3.04-.76s2.46,.27,3.65,.82l-.85,2.04c-.52-.22-1-.4-1.46-.55-.45-.14-.91-.21-1.38-.21-.83,0-1.25,.23-1.25,.68,0,.25,.13,.47,.4,.66,.27,.19,.86,.46,1.77,.83,.81,.33,1.4,.63,1.78,.92,.38,.28,.66,.61,.83,.98,.18,.37,.27,.81,.27,1.33Z"/><path class="cls-5" d="M67.17,346.46c0,1.22-.44,2.19-1.32,2.89-.88,.71-2.11,1.06-3.68,1.06-1.45,0-2.73-.27-3.84-.82v-2.67c.92,.41,1.69,.7,2.32,.86,.63,.17,1.21,.25,1.74,.25,.63,0,1.11-.12,1.45-.36,.34-.24,.5-.6,.5-1.08,0-.27-.07-.5-.22-.71s-.37-.41-.65-.6c-.29-.19-.87-.5-1.76-.92-.83-.39-1.45-.76-1.86-1.12s-.75-.78-.99-1.25c-.25-.48-.37-1.03-.37-1.67,0-1.2,.41-2.14,1.22-2.83,.81-.69,1.94-1.03,3.37-1.03,.71,0,1.38,.08,2.02,.25,.64,.17,1.31,.4,2.01,.71l-.93,2.24c-.72-.3-1.32-.5-1.79-.62-.47-.12-.94-.18-1.4-.18-.54,0-.96,.13-1.25,.38-.29,.25-.44,.58-.44,.99,0,.25,.06,.48,.18,.66,.12,.19,.3,.37,.56,.55,.26,.18,.86,.49,1.82,.95,1.27,.61,2.14,1.21,2.61,1.82,.47,.61,.71,1.36,.71,2.24Z"/><path class="cls-5" d="M75.99,350.22l-.55-1.41h-.07c-.48,.6-.97,1.02-1.47,1.25-.5,.23-1.16,.35-1.97,.35-1,0-1.78-.28-2.35-.85-.57-.57-.86-1.38-.86-2.43s.38-1.91,1.16-2.44c.77-.52,1.93-.81,3.48-.87l1.8-.06v-.46c0-1.05-.54-1.58-1.61-1.58-.83,0-1.8,.25-2.92,.75l-.94-1.91c1.19-.62,2.52-.94,3.97-.94s2.46,.3,3.2,.91c.74,.61,1.11,1.53,1.11,2.76v6.91h-1.98Zm-.83-4.81l-1.09,.04c-.82,.02-1.43,.17-1.84,.45s-.6,.69-.6,1.24c0,.8,.46,1.2,1.37,1.2,.66,0,1.18-.19,1.57-.57,.39-.38,.59-.88,.59-1.5v-.85Z"/><path class="cls-5" d="M83.71,350.22h-2.83v-14.44h2.83v14.44Z"/><path class="cls-5" d="M91.38,350.41c-1.67,0-2.97-.46-3.92-1.38-.94-.92-1.41-2.23-1.41-3.91s.43-3.08,1.3-4.03c.87-.95,2.07-1.42,3.6-1.42s2.61,.42,3.42,1.25,1.22,1.99,1.22,3.46v1.37h-6.69c.03,.8,.27,1.43,.71,1.88s1.07,.68,1.87,.68c.62,0,1.21-.07,1.77-.2s1.14-.34,1.74-.62v2.19c-.49,.25-1.02,.43-1.59,.55-.56,.12-1.25,.18-2.06,.18Zm-.4-8.74c-.6,0-1.07,.19-1.41,.57-.34,.38-.53,.92-.58,1.62h3.97c-.01-.7-.2-1.24-.55-1.62-.35-.38-.83-.57-1.43-.57Z"/><path class="cls-5" d="M105.14,347.14c0,1.06-.37,1.87-1.11,2.43-.74,.56-1.84,.83-3.32,.83-.75,0-1.4-.05-1.93-.15-.53-.1-1.03-.25-1.49-.45v-2.34c.53,.25,1.12,.46,1.78,.62,.66,.17,1.24,.25,1.74,.25,1.03,0,1.54-.3,1.54-.89,0-.22-.07-.4-.2-.54-.14-.14-.37-.3-.71-.47-.33-.18-.78-.38-1.34-.62-.8-.33-1.38-.64-1.76-.93-.37-.29-.65-.61-.82-.98-.17-.37-.25-.82-.25-1.36,0-.92,.36-1.63,1.07-2.14,.71-.5,1.73-.76,3.04-.76s2.46,.27,3.65,.82l-.85,2.04c-.52-.22-1-.41-1.46-.55-.45-.14-.91-.21-1.38-.21-.83,0-1.25,.23-1.25,.68,0,.25,.13,.47,.4,.66,.27,.19,.86,.46,1.77,.83,.81,.33,1.4,.63,1.78,.92,.38,.29,.66,.61,.83,.98,.18,.37,.27,.81,.27,1.33Z"/><path class="cls-5" d="M110.12,348.23c-.32,1.25-.87,2.73-1.63,4.44h-2.04c.4-1.65,.71-3.2,.94-4.66h2.6l.14,.21Z"/><path class="cls-5" d="M126.77,350.24c0,1.49-.44,2.62-1.3,3.39-.87,.77-2.16,1.16-3.88,1.16-1.52,0-2.81-.2-3.88-.61v-2.26c1.26,.53,2.6,.8,4.04,.8s2.18-.79,2.18-2.36v-.2l.08-1.27h-.08c-.66,1.02-1.64,1.53-2.94,1.53s-2.21-.48-2.89-1.44c-.68-.96-1.03-2.26-1.03-3.92s.35-3.03,1.06-3.97c.71-.95,1.68-1.42,2.93-1.42s2.28,.51,3.01,1.52h.07l.23-1.33h2.39v10.39Zm-4.77-2.05c.76,0,1.31-.22,1.63-.65,.33-.44,.49-1.14,.49-2.12v-.34c0-1.11-.17-1.9-.51-2.39-.34-.49-.9-.73-1.66-.73-1.33,0-2,1.04-2,3.13,0,1.04,.17,1.82,.5,2.33,.33,.51,.85,.77,1.54,.77Z"/><path class="cls-5" d="M134.42,350.41c-1.67,0-2.97-.46-3.92-1.38-.94-.92-1.41-2.23-1.41-3.91s.43-3.08,1.3-4.03c.87-.95,2.07-1.42,3.6-1.42s2.61,.42,3.42,1.25,1.22,1.99,1.22,3.46v1.37h-6.69c.03,.8,.27,1.43,.71,1.88s1.07,.68,1.87,.68c.62,0,1.21-.07,1.77-.2s1.14-.34,1.74-.62v2.19c-.49,.25-1.02,.43-1.59,.55-.56,.12-1.25,.18-2.06,.18Zm-.4-8.74c-.6,0-1.07,.19-1.41,.57-.34,.38-.53,.92-.58,1.62h3.97c-.01-.7-.2-1.24-.55-1.62-.35-.38-.83-.57-1.43-.57Z"/><path class="cls-5" d="M150.53,350.22h-2.83v-6.06c0-.75-.13-1.31-.4-1.68-.27-.37-.69-.56-1.27-.56-.79,0-1.36,.26-1.72,.79-.35,.53-.53,1.41-.53,2.63v4.88h-2.83v-10.37h2.16l.38,1.33h.16c.32-.5,.75-.88,1.3-1.14s1.18-.38,1.89-.38c1.21,0,2.12,.33,2.75,.98,.62,.65,.94,1.59,.94,2.82v6.76Z"/><path class="cls-5" d="M158.14,350.41c-1.67,0-2.97-.46-3.92-1.38-.94-.92-1.41-2.23-1.41-3.91s.43-3.08,1.3-4.03c.87-.95,2.07-1.42,3.6-1.42s2.61,.42,3.42,1.25,1.22,1.99,1.22,3.46v1.37h-6.69c.03,.8,.27,1.43,.71,1.88s1.07,.68,1.87,.68c.62,0,1.21-.07,1.77-.2s1.14-.34,1.74-.62v2.19c-.49,.25-1.02,.43-1.59,.55-.56,.12-1.25,.18-2.06,.18Zm-.4-8.74c-.6,0-1.07,.19-1.41,.57-.34,.38-.53,.92-.58,1.62h3.97c-.01-.7-.2-1.24-.55-1.62-.35-.38-.83-.57-1.43-.57Z"/><path class="cls-5" d="M170.46,339.66c.38,0,.7,.03,.96,.08l-.21,2.65c-.23-.06-.51-.09-.83-.09-.9,0-1.61,.23-2.11,.7-.5,.46-.76,1.11-.76,1.95v5.28h-2.83v-10.37h2.14l.42,1.74h.14c.32-.58,.76-1.05,1.3-1.41,.55-.36,1.14-.53,1.79-.53Z"/><path class="cls-5" d="M179.7,350.22l-.55-1.41h-.07c-.48,.6-.97,1.02-1.47,1.25-.5,.23-1.16,.35-1.97,.35-1,0-1.78-.28-2.35-.85-.57-.57-.86-1.38-.86-2.43s.38-1.91,1.16-2.44c.77-.52,1.93-.81,3.48-.87l1.8-.06v-.46c0-1.05-.54-1.58-1.61-1.58-.83,0-1.8,.25-2.92,.75l-.94-1.91c1.19-.62,2.52-.94,3.97-.94s2.46,.3,3.2,.91c.74,.61,1.11,1.53,1.11,2.76v6.91h-1.98Zm-.83-4.81l-1.09,.04c-.82,.02-1.43,.17-1.84,.45s-.6,.69-.6,1.24c0,.8,.46,1.2,1.37,1.2,.66,0,1.18-.19,1.57-.57,.39-.38,.59-.88,.59-1.5v-.85Z"/><path class="cls-5" d="M187.42,350.22h-2.83v-14.44h2.83v14.44Z"/><path class="cls-5" d="M208.08,350.22h-3.5l-1.07-1.05c-1.18,.82-2.52,1.23-4.01,1.23s-2.71-.35-3.59-1.04c-.88-.69-1.33-1.63-1.33-2.81,0-.85,.19-1.57,.56-2.17,.37-.6,1.02-1.16,1.92-1.67-.46-.53-.8-1.04-1.01-1.53-.21-.49-.32-1.02-.32-1.59,0-.94,.36-1.7,1.08-2.27s1.68-.86,2.89-.86,2.07,.27,2.76,.8c.69,.54,1.03,1.25,1.03,2.15,0,.74-.21,1.41-.64,2.02-.43,.61-1.12,1.19-2.07,1.74l2.63,2.57c.44-.72,.82-1.66,1.14-2.79h2.95c-.22,.83-.53,1.65-.92,2.44-.39,.79-.83,1.5-1.33,2.11l2.79,2.72Zm-10.51-3.93c0,.53,.2,.96,.6,1.27,.4,.31,.91,.47,1.54,.47,.78,0,1.48-.19,2.11-.57l-3.08-3.06c-.36,.27-.64,.56-.85,.85-.21,.3-.31,.64-.31,1.03Zm3.33-6.58c0-.33-.11-.58-.33-.77-.22-.19-.51-.28-.86-.28-.42,0-.74,.1-.98,.3-.24,.2-.36,.48-.36,.84,0,.54,.29,1.14,.88,1.8,.53-.3,.94-.59,1.22-.88,.28-.29,.43-.62,.43-1.01Z"/><path class="cls-5" d="M223.93,345.02c0,1.69-.45,3.01-1.34,3.96s-2.13,1.43-3.72,1.43c-1,0-1.87-.22-2.63-.65-.76-.44-1.34-1.06-1.75-1.88s-.61-1.77-.61-2.86c0-1.69,.44-3.01,1.33-3.95,.88-.94,2.13-1.41,3.73-1.41,1,0,1.87,.22,2.63,.65,.76,.43,1.34,1.05,1.75,1.87s.61,1.76,.61,2.85Zm-7.17,0c0,1.03,.17,1.8,.51,2.33s.89,.79,1.65,.79,1.3-.26,1.63-.78c.33-.52,.5-1.3,.5-2.33s-.17-1.8-.5-2.31-.88-.77-1.64-.77-1.3,.26-1.63,.77c-.33,.51-.5,1.28-.5,2.31Z"/><path class="cls-5" d="M230.64,348.16c.5,0,1.09-.11,1.78-.33v2.11c-.71,.31-1.57,.47-2.6,.47-1.13,0-1.96-.29-2.47-.86-.52-.57-.77-1.43-.77-2.57v-5h-1.36v-1.2l1.56-.95,.82-2.19h1.81v2.21h2.9v2.12h-2.9v5c0,.4,.11,.7,.34,.89,.23,.19,.52,.29,.89,.29Z"/><path class="cls-5" d="M244.09,350.22h-2.83v-6.06c0-1.5-.56-2.24-1.67-2.24-.79,0-1.36,.27-1.72,.81s-.53,1.41-.53,2.62v4.88h-2.83v-14.44h2.83v2.94c0,.23-.02,.77-.07,1.61l-.07,.84h.15c.63-1.01,1.63-1.52,3.01-1.52,1.22,0,2.14,.33,2.77,.98,.63,.66,.95,1.6,.95,2.82v6.76Z"/><path class="cls-5" d="M251.7,350.41c-1.67,0-2.97-.46-3.92-1.38-.94-.92-1.41-2.23-1.41-3.91s.43-3.08,1.3-4.03c.87-.95,2.07-1.42,3.6-1.42s2.61,.42,3.42,1.25,1.22,1.99,1.22,3.46v1.37h-6.69c.03,.8,.27,1.43,.71,1.88s1.07,.68,1.87,.68c.62,0,1.21-.07,1.77-.2s1.14-.34,1.74-.62v2.19c-.49,.25-1.02,.43-1.59,.55-.56,.12-1.25,.18-2.06,.18Zm-.4-8.74c-.6,0-1.07,.19-1.41,.57-.34,.38-.53,.92-.58,1.62h3.97c-.01-.7-.2-1.24-.55-1.62-.35-.38-.83-.57-1.43-.57Z"/><path class="cls-5" d="M264.02,339.66c.38,0,.7,.03,.96,.08l-.21,2.65c-.23-.06-.51-.09-.83-.09-.9,0-1.61,.23-2.11,.7-.5,.46-.76,1.11-.76,1.95v5.28h-2.83v-10.37h2.14l.42,1.74h.14c.32-.58,.76-1.05,1.3-1.41,.55-.36,1.14-.53,1.79-.53Z"/><path class="cls-5" d="M277.58,339.66c.38,0,.7,.03,.96,.08l-.21,2.65c-.23-.06-.51-.09-.83-.09-.9,0-1.61,.23-2.11,.7-.5,.46-.76,1.11-.76,1.95v5.28h-2.83v-10.37h2.14l.42,1.74h.14c.32-.58,.76-1.05,1.3-1.41,.55-.36,1.14-.53,1.79-.53Z"/><path class="cls-5" d="M289.66,345.02c0,1.69-.45,3.01-1.34,3.96s-2.13,1.43-3.72,1.43c-1,0-1.87-.22-2.63-.65-.76-.44-1.34-1.06-1.75-1.88s-.61-1.77-.61-2.86c0-1.69,.44-3.01,1.33-3.95,.88-.94,2.13-1.41,3.73-1.41,1,0,1.87,.22,2.63,.65,.76,.43,1.34,1.05,1.75,1.87s.61,1.76,.61,2.85Zm-7.17,0c0,1.03,.17,1.8,.51,2.33s.89,.79,1.65,.79,1.3-.26,1.63-.78c.33-.52,.5-1.3,.5-2.33s-.17-1.8-.5-2.31-.88-.77-1.64-.77-1.3,.26-1.63,.77c-.33,.51-.5,1.28-.5,2.31Z"/><path class="cls-5" d="M294.83,350.22h-2.83v-14.44h2.83v14.44Z"/><path class="cls-5" d="M302.49,350.41c-1.67,0-2.97-.46-3.92-1.38-.94-.92-1.41-2.23-1.41-3.91s.43-3.08,1.3-4.03c.87-.95,2.07-1.42,3.6-1.42s2.61,.42,3.42,1.25,1.22,1.99,1.22,3.46v1.37h-6.69c.03,.8,.27,1.43,.71,1.88s1.07,.68,1.87,.68c.62,0,1.21-.07,1.77-.2s1.14-.34,1.74-.62v2.19c-.49,.25-1.02,.43-1.59,.55-.56,.12-1.25,.18-2.06,.18Zm-.4-8.74c-.6,0-1.07,.19-1.41,.57-.34,.38-.53,.92-.58,1.62h3.97c-.01-.7-.2-1.24-.55-1.62-.35-.38-.83-.57-1.43-.57Z"/><path class="cls-5" d="M316.26,347.14c0,1.06-.37,1.87-1.11,2.43-.74,.56-1.84,.83-3.32,.83-.75,0-1.4-.05-1.93-.15-.53-.1-1.03-.25-1.49-.45v-2.34c.53,.25,1.12,.46,1.78,.62,.66,.17,1.24,.25,1.74,.25,1.03,0,1.54-.3,1.54-.89,0-.22-.07-.4-.2-.54-.14-.14-.37-.3-.71-.47-.33-.18-.78-.38-1.34-.62-.8-.33-1.38-.64-1.76-.93-.37-.29-.65-.61-.82-.98-.17-.37-.25-.82-.25-1.36,0-.92,.36-1.63,1.07-2.14,.71-.5,1.73-.76,3.04-.76s2.46,.27,3.65,.82l-.85,2.04c-.52-.22-1-.41-1.46-.55-.45-.14-.91-.21-1.38-.21-.83,0-1.25,.23-1.25,.68,0,.25,.13,.47,.4,.66,.27,.19,.86,.46,1.77,.83,.81,.33,1.4,.63,1.78,.92,.38,.29,.66,.61,.83,.98,.18,.37,.27,.81,.27,1.33Z"/></g><g><path class="cls-3" d="M651.2,430.94h-8.48v-1.79l3.05-3.08c.9-.92,1.49-1.56,1.77-1.92,.28-.36,.48-.69,.6-.99,.12-.3,.18-.62,.18-.95,0-.49-.13-.85-.4-1.09s-.63-.36-1.08-.36c-.47,0-.93,.11-1.37,.32-.44,.22-.9,.52-1.39,.92l-1.39-1.65c.6-.51,1.09-.87,1.49-1.08,.39-.21,.82-.37,1.29-.49s.99-.17,1.56-.17c.76,0,1.43,.14,2.01,.42,.58,.28,1.03,.66,1.35,1.16,.32,.5,.48,1.07,.48,1.71,0,.56-.1,1.08-.29,1.57-.2,.49-.5,.99-.91,1.51s-1.14,1.25-2.18,2.2l-1.56,1.47v.12h5.29v2.16Z"/><path class="cls-3" d="M660.86,424.88c0,2.12-.35,3.69-1.04,4.71s-1.76,1.53-3.21,1.53-2.46-.53-3.17-1.58-1.07-2.6-1.07-4.66,.35-3.72,1.04-4.74c.69-1.02,1.76-1.52,3.2-1.52s2.46,.53,3.17,1.59,1.08,2.62,1.08,4.66Zm-5.94,0c0,1.49,.13,2.56,.39,3.2,.26,.64,.69,.97,1.3,.97s1.03-.33,1.29-.98c.27-.65,.4-1.71,.4-3.19s-.13-2.56-.4-3.21-.7-.98-1.29-.98-1.04,.33-1.29,.98-.39,1.72-.39,3.21Z"/><path class="cls-3" d="M670.64,430.94h-8.48v-1.79l3.05-3.08c.9-.92,1.49-1.56,1.77-1.92,.28-.36,.48-.69,.6-.99,.12-.3,.18-.62,.18-.95,0-.49-.13-.85-.4-1.09s-.63-.36-1.08-.36c-.47,0-.93,.11-1.37,.32-.44,.22-.9,.52-1.39,.92l-1.39-1.65c.6-.51,1.09-.87,1.49-1.08,.39-.21,.82-.37,1.29-.49s.99-.17,1.56-.17c.76,0,1.43,.14,2.01,.42,.58,.28,1.03,.66,1.35,1.16,.32,.5,.48,1.07,.48,1.71,0,.56-.1,1.08-.29,1.57-.2,.49-.5,.99-.91,1.51s-1.14,1.25-2.18,2.2l-1.56,1.47v.12h5.29v2.16Z"/><path class="cls-3" d="M680.36,430.94h-8.48v-1.79l3.05-3.08c.9-.92,1.49-1.56,1.77-1.92,.28-.36,.48-.69,.6-.99,.12-.3,.18-.62,.18-.95,0-.49-.13-.85-.4-1.09s-.63-.36-1.08-.36c-.47,0-.93,.11-1.37,.32-.44,.22-.9,.52-1.39,.92l-1.39-1.65c.6-.51,1.09-.87,1.49-1.08,.39-.21,.82-.37,1.29-.49s.99-.17,1.56-.17c.76,0,1.43,.14,2.01,.42,.58,.28,1.03,.66,1.35,1.16,.32,.5,.48,1.07,.48,1.71,0,.56-.1,1.08-.29,1.57-.2,.49-.5,.99-.91,1.51s-1.14,1.25-2.18,2.2l-1.56,1.47v.12h5.29v2.16Z"/><path class="cls-3" d="M689.6,431.11c-1.09,0-1.95-.42-2.57-1.27-.62-.85-.93-2.02-.93-3.52s.32-2.71,.95-3.56,1.51-1.27,2.62-1.27c1.17,0,2.06,.45,2.67,1.36h.08c-.13-.69-.19-1.31-.19-1.85v-2.97h2.54v12.92h-1.94l-.49-1.2h-.11c-.58,.91-1.45,1.37-2.63,1.37Zm.89-2.02c.65,0,1.12-.19,1.42-.56,.3-.38,.47-1.01,.49-1.92v-.27c0-1-.15-1.71-.46-2.14-.31-.43-.81-.65-1.5-.65-.56,0-1,.24-1.32,.72s-.47,1.17-.47,2.09,.16,1.6,.47,2.05c.32,.46,.77,.68,1.35,.68Z"/><path class="cls-3" d="M703.32,430.94l-.49-1.26h-.07c-.43,.54-.87,.91-1.32,1.12-.45,.21-1.04,.31-1.76,.31-.89,0-1.59-.25-2.1-.76s-.77-1.23-.77-2.17,.34-1.71,1.03-2.18c.69-.47,1.73-.73,3.12-.78l1.61-.05v-.41c0-.94-.48-1.41-1.44-1.41-.74,0-1.61,.22-2.61,.67l-.84-1.71c1.07-.56,2.25-.84,3.55-.84s2.2,.27,2.86,.81c.66,.54,1,1.37,1,2.47v6.18h-1.77Zm-.75-4.3l-.98,.03c-.74,.02-1.28,.16-1.64,.4s-.54,.61-.54,1.11c0,.71,.41,1.07,1.23,1.07,.59,0,1.05-.17,1.41-.51s.53-.79,.53-1.34v-.76Z"/><path class="cls-3" d="M711.6,429.09c.44,0,.97-.1,1.59-.29v1.88c-.63,.28-1.41,.42-2.32,.42-1.01,0-1.75-.26-2.21-.77s-.69-1.28-.69-2.3v-4.47h-1.21v-1.07l1.39-.85,.73-1.96h1.62v1.98h2.6v1.9h-2.6v4.47c0,.36,.1,.62,.3,.8s.47,.26,.8,.26Z"/><path class="cls-3" d="M720.96,430.94l-.49-1.26h-.07c-.43,.54-.87,.91-1.32,1.12-.45,.21-1.04,.31-1.76,.31-.89,0-1.59-.25-2.1-.76s-.77-1.23-.77-2.17,.34-1.71,1.03-2.18c.69-.47,1.73-.73,3.12-.78l1.61-.05v-.41c0-.94-.48-1.41-1.44-1.41-.74,0-1.61,.22-2.61,.67l-.84-1.71c1.07-.56,2.25-.84,3.55-.84s2.2,.27,2.86,.81c.66,.54,1,1.37,1,2.47v6.18h-1.77Zm-.75-4.3l-.98,.03c-.74,.02-1.28,.16-1.64,.4s-.54,.61-.54,1.11c0,.71,.41,1.07,1.23,1.07,.59,0,1.05-.17,1.41-.51s.53-.79,.53-1.34v-.76Z"/></g></g></svg>