<?xml version="1.0" encoding="UTF-8"?><svg xmlns="http://www.w3.org/2000/svg" viewBox="0 0 800 480"><defs><style>.cls-1{fill:#0071bc;}.cls-2{fill:#98d5f4;}.cls-3{fill:#4d4d4d;}.cls-4{fill:none;stroke:gray;stroke-miterlimit:10;}</style></defs><g id="_021"><line class="cls-4" x1="185" y1="421.65" x2="618" y2="421.65"/><g><g><rect class="cls-2" x="228" y="153.02" width="90.85" height="104.77"/><rect class="cls-2" x="354.17" y="116.9" width="90.85" height="126.14"/><rect class="cls-2" x="480.35" y="89" width="90.85" height="124.23"/></g><g><rect class="cls-1" x="228" y="257.79" width="90.85" height="163.77"/><rect class="cls-1" x="354.17" y="243.04" width="90.85" height="178.52"/><rect class="cls-1" x="480.35" y="213.23" width="90.85" height="208.33"/></g></g></g><g id="Numbers"><g><path class="cls-3" d="M259.64,456.41h-11.68v-2.65l4.07-4.12c.83-.86,1.49-1.56,1.98-2.12,.49-.55,.84-1.04,1.05-1.46s.31-.87,.31-1.35c0-.58-.17-1.01-.52-1.28-.34-.27-.78-.4-1.3-.4-.58,0-1.15,.14-1.71,.44-.56,.29-1.17,.71-1.83,1.26l-2.14-2.51c.48-.43,.98-.83,1.52-1.21,.54-.38,1.17-.68,1.9-.92,.73-.24,1.61-.36,2.63-.36,1.1,0,2.05,.2,2.85,.59,.8,.39,1.41,.92,1.84,1.59,.43,.67,.64,1.43,.64,2.29,0,.92-.18,1.76-.53,2.51-.35,.75-.87,1.49-1.56,2.23-.69,.74-1.53,1.56-2.53,2.48l-1.7,1.56v.14h6.72v3.27Z"/><path class="cls-3" d="M272.91,448.2c0,1.76-.19,3.27-.56,4.53-.38,1.26-.99,2.22-1.84,2.9-.85,.68-1.99,1.01-3.42,1.01-2.02,0-3.5-.74-4.43-2.23s-1.39-3.56-1.39-6.21c0-1.76,.19-3.28,.56-4.54,.38-1.27,.99-2.24,1.84-2.91,.85-.67,1.99-1.01,3.42-1.01,2.01,0,3.48,.74,4.42,2.23,.93,1.49,1.4,3.57,1.4,6.23Zm-7.75,0c0,1.76,.13,3.09,.4,3.97,.27,.88,.78,1.32,1.53,1.32s1.26-.44,1.53-1.32c.27-.88,.4-2.21,.4-3.97s-.13-3.07-.4-3.97c-.27-.9-.78-1.35-1.53-1.35s-1.26,.45-1.53,1.35-.4,2.22-.4,3.97Z"/><path class="cls-3" d="M283.74,456.41h-3.96v-8.85c0-.2,0-.5,.01-.9,0-.4,.01-.82,.02-1.26,0-.45,.02-.84,.03-1.2-.12,.15-.29,.33-.51,.54-.21,.21-.41,.39-.6,.54l-1.89,1.54-1.96-2.44,5.45-4.39h3.38v16.42Z"/><path class="cls-3" d="M299.52,447.09c0,1.3-.13,2.53-.4,3.69-.27,1.16-.72,2.17-1.36,3.05-.64,.87-1.5,1.56-2.58,2.06-1.08,.5-2.43,.75-4.06,.75-.32,0-.7-.01-1.14-.03-.44-.02-.8-.06-1.09-.1v-3.13c.63,.14,1.3,.21,2.02,.21,1.3,0,2.31-.2,3.02-.59,.71-.39,1.22-.94,1.51-1.64s.46-1.52,.51-2.44h-.14c-.31,.54-.71,.99-1.22,1.36-.51,.37-1.26,.55-2.25,.55-1.4,0-2.51-.46-3.34-1.38-.83-.92-1.24-2.22-1.24-3.91,0-1.79,.51-3.2,1.52-4.22,1.01-1.02,2.4-1.53,4.16-1.53,1.13,0,2.16,.26,3.08,.78s1.65,1.32,2.18,2.4c.54,1.08,.81,2.46,.81,4.13Zm-5.98-4.19c-.6,0-1.08,.21-1.45,.62-.37,.41-.55,1.07-.55,1.96,0,.72,.16,1.29,.48,1.7s.81,.62,1.47,.62,1.14-.22,1.54-.65c.4-.44,.6-.9,.6-1.39,0-.46-.08-.91-.23-1.35-.15-.44-.38-.8-.69-1.08s-.7-.43-1.17-.43Z"/></g><g><path class="cls-3" d="M385.64,456.41h-11.68v-2.65l4.07-4.12c.83-.86,1.49-1.56,1.98-2.12,.49-.55,.84-1.04,1.05-1.46s.31-.87,.31-1.35c0-.58-.17-1.01-.52-1.28-.34-.27-.78-.4-1.3-.4-.58,0-1.15,.14-1.71,.44-.56,.29-1.17,.71-1.83,1.26l-2.14-2.51c.48-.43,.98-.83,1.52-1.21,.54-.38,1.17-.68,1.9-.92,.73-.24,1.61-.36,2.63-.36,1.1,0,2.05,.2,2.85,.59,.8,.39,1.41,.92,1.84,1.59,.43,.67,.64,1.43,.64,2.29,0,.92-.18,1.76-.53,2.51-.35,.75-.87,1.49-1.56,2.23-.69,.74-1.53,1.56-2.53,2.48l-1.7,1.56v.14h6.72v3.27Z"/><path class="cls-3" d="M398.91,448.2c0,1.76-.19,3.27-.56,4.53-.38,1.26-.99,2.22-1.84,2.9-.85,.68-1.99,1.01-3.42,1.01-2.02,0-3.5-.74-4.43-2.23s-1.39-3.56-1.39-6.21c0-1.76,.19-3.28,.56-4.54,.38-1.27,.99-2.24,1.84-2.91,.85-.67,1.99-1.01,3.42-1.01,2.01,0,3.48,.74,4.42,2.23,.93,1.49,1.4,3.57,1.4,6.23Zm-7.75,0c0,1.76,.13,3.09,.4,3.97,.27,.88,.78,1.32,1.53,1.32s1.26-.44,1.53-1.32c.27-.88,.4-2.21,.4-3.97s-.13-3.07-.4-3.97c-.27-.9-.78-1.35-1.53-1.35s-1.26,.45-1.53,1.35-.4,2.22-.4,3.97Z"/><path class="cls-3" d="M412.22,456.41h-11.68v-2.65l4.07-4.12c.83-.86,1.49-1.56,1.98-2.12,.49-.55,.84-1.04,1.05-1.46s.31-.87,.31-1.35c0-.58-.17-1.01-.52-1.28-.34-.27-.78-.4-1.3-.4-.58,0-1.15,.14-1.71,.44-.56,.29-1.17,.71-1.83,1.26l-2.14-2.51c.48-.43,.98-.83,1.52-1.21,.54-.38,1.17-.68,1.9-.92,.73-.24,1.61-.36,2.63-.36,1.1,0,2.05,.2,2.85,.59,.8,.39,1.41,.92,1.84,1.59,.43,.67,.64,1.43,.64,2.29,0,.92-.18,1.76-.53,2.51-.35,.75-.87,1.49-1.56,2.23-.69,.74-1.53,1.56-2.53,2.48l-1.7,1.56v.14h6.72v3.27Z"/><path class="cls-3" d="M425.49,448.2c0,1.76-.19,3.27-.56,4.53-.38,1.26-.99,2.22-1.84,2.9-.85,.68-1.99,1.01-3.42,1.01-2.02,0-3.5-.74-4.43-2.23s-1.39-3.56-1.39-6.21c0-1.76,.19-3.28,.56-4.54,.38-1.27,.99-2.24,1.84-2.91,.85-.67,1.99-1.01,3.42-1.01,2.01,0,3.48,.74,4.42,2.23,.93,1.49,1.4,3.57,1.4,6.23Zm-7.75,0c0,1.76,.13,3.09,.4,3.97,.27,.88,.78,1.32,1.53,1.32s1.26-.44,1.53-1.32c.27-.88,.4-2.21,.4-3.97s-.13-3.07-.4-3.97c-.27-.9-.78-1.35-1.53-1.35s-1.26,.45-1.53,1.35-.4,2.22-.4,3.97Z"/></g><g><path class="cls-3" d="M514.64,456.41h-11.68v-2.65l4.07-4.12c.83-.86,1.49-1.56,1.98-2.12,.49-.55,.84-1.04,1.05-1.46s.31-.87,.31-1.35c0-.58-.17-1.01-.52-1.28-.34-.27-.78-.4-1.3-.4-.58,0-1.15,.14-1.71,.44-.56,.29-1.17,.71-1.83,1.26l-2.14-2.51c.48-.43,.98-.83,1.52-1.21,.54-.38,1.17-.68,1.9-.92,.73-.24,1.61-.36,2.63-.36,1.1,0,2.05,.2,2.85,.59,.8,.39,1.41,.92,1.84,1.59,.43,.67,.64,1.43,.64,2.29,0,.92-.18,1.76-.53,2.51-.35,.75-.87,1.49-1.56,2.23-.69,.74-1.53,1.56-2.53,2.48l-1.7,1.56v.14h6.72v3.27Z"/><path class="cls-3" d="M527.91,448.2c0,1.76-.19,3.27-.56,4.53-.38,1.26-.99,2.22-1.84,2.9-.85,.68-1.99,1.01-3.42,1.01-2.02,0-3.5-.74-4.43-2.23s-1.39-3.56-1.39-6.21c0-1.76,.19-3.28,.56-4.54,.38-1.27,.99-2.24,1.84-2.91,.85-.67,1.99-1.01,3.42-1.01,2.01,0,3.48,.74,4.42,2.23,.93,1.49,1.4,3.57,1.4,6.23Zm-7.75,0c0,1.76,.13,3.09,.4,3.97,.27,.88,.78,1.32,1.53,1.32s1.26-.44,1.53-1.32c.27-.88,.4-2.21,.4-3.97s-.13-3.07-.4-3.97c-.27-.9-.78-1.35-1.53-1.35s-1.26,.45-1.53,1.35-.4,2.22-.4,3.97Z"/><path class="cls-3" d="M541.22,456.41h-11.68v-2.65l4.07-4.12c.83-.86,1.49-1.56,1.98-2.12,.49-.55,.84-1.04,1.05-1.46s.31-.87,.31-1.35c0-.58-.17-1.01-.52-1.28-.34-.27-.78-.4-1.3-.4-.58,0-1.15,.14-1.71,.44-.56,.29-1.17,.71-1.83,1.26l-2.14-2.51c.48-.43,.98-.83,1.52-1.21,.54-.38,1.17-.68,1.9-.92,.73-.24,1.61-.36,2.63-.36,1.1,0,2.05,.2,2.85,.59,.8,.39,1.41,.92,1.84,1.59,.43,.67,.64,1.43,.64,2.29,0,.92-.18,1.76-.53,2.51-.35,.75-.87,1.49-1.56,2.23-.69,.74-1.53,1.56-2.53,2.48l-1.7,1.56v.14h6.72v3.27Z"/><path class="cls-3" d="M552.03,456.41h-3.96v-8.85c0-.2,0-.5,.01-.9,0-.4,.01-.82,.02-1.26,0-.45,.02-.84,.03-1.2-.12,.15-.29,.33-.51,.54-.21,.21-.41,.39-.6,.54l-1.89,1.54-1.96-2.44,5.45-4.39h3.38v16.42Z"/></g><g><path d="M379.27,88.95c0,.87-.18,1.61-.55,2.24-.36,.62-.85,1.14-1.47,1.55s-1.3,.71-2.04,.9v.08c1.47,.19,2.61,.65,3.41,1.37,.8,.72,1.2,1.71,1.2,2.98,0,1.04-.27,1.99-.81,2.83-.54,.85-1.36,1.53-2.48,2.03s-2.56,.75-4.33,.75c-1.11,0-2.09-.09-2.95-.26s-1.69-.42-2.48-.75v-3.72c.8,.42,1.63,.72,2.5,.92,.87,.2,1.66,.3,2.39,.3,1.32,0,2.23-.21,2.74-.64,.51-.42,.77-1.01,.77-1.75,0-.47-.12-.87-.36-1.2-.24-.33-.67-.58-1.29-.75s-1.48-.26-2.59-.26h-1.27v-3.35h1.3c1.06,0,1.87-.1,2.44-.29,.57-.19,.97-.45,1.21-.79,.23-.34,.35-.72,.35-1.16,0-1.21-.8-1.82-2.39-1.82-.85,0-1.61,.16-2.28,.47s-1.18,.58-1.55,.81l-1.95-2.99c.75-.52,1.61-.96,2.6-1.31,.99-.35,2.22-.53,3.69-.53,1.91,0,3.42,.38,4.52,1.14,1.11,.76,1.66,1.84,1.66,3.22Z"/><path d="M386.81,100.03l.18,.29c-.16,.62-.36,1.33-.6,2.11-.24,.78-.51,1.56-.79,2.34-.29,.78-.57,1.49-.84,2.13h-3.12c.24-1.11,.48-2.29,.71-3.54,.23-1.25,.41-2.36,.53-3.33h3.93Z"/><path d="M402.65,94.13c0,1.99-.21,3.7-.64,5.12s-1.12,2.51-2.08,3.28-2.25,1.14-3.86,1.14c-2.29,0-3.96-.84-5-2.52-1.05-1.68-1.57-4.02-1.57-7.02,0-1.99,.21-3.71,.64-5.13,.42-1.43,1.12-2.53,2.08-3.29,.96-.76,2.25-1.14,3.86-1.14,2.27,0,3.93,.84,4.99,2.52,1.06,1.68,1.59,4.03,1.59,7.05Zm-8.76,0c0,1.99,.15,3.49,.46,4.49,.3,1,.88,1.5,1.73,1.5s1.43-.5,1.73-1.5c.3-1,.46-2.49,.46-4.49s-.15-3.47-.46-4.48c-.3-1.01-.88-1.52-1.73-1.52s-1.43,.51-1.73,1.52c-.3,1.01-.46,2.51-.46,4.48Z"/><path d="M417.02,88.95c0,.87-.18,1.61-.55,2.24-.36,.62-.85,1.14-1.47,1.55s-1.3,.71-2.04,.9v.08c1.47,.19,2.61,.65,3.41,1.37,.8,.72,1.2,1.71,1.2,2.98,0,1.04-.27,1.99-.81,2.83-.54,.85-1.36,1.53-2.48,2.03s-2.56,.75-4.33,.75c-1.11,0-2.09-.09-2.95-.26s-1.69-.42-2.48-.75v-3.72c.8,.42,1.63,.72,2.5,.92,.87,.2,1.66,.3,2.39,.3,1.32,0,2.23-.21,2.74-.64,.51-.42,.77-1.01,.77-1.75,0-.47-.12-.87-.36-1.2-.24-.33-.67-.58-1.29-.75s-1.48-.26-2.59-.26h-1.27v-3.35h1.3c1.06,0,1.87-.1,2.44-.29,.57-.19,.97-.45,1.21-.79,.23-.34,.35-.72,.35-1.16,0-1.21-.8-1.82-2.39-1.82-.85,0-1.61,.16-2.28,.47s-1.18,.58-1.55,.81l-1.95-2.99c.75-.52,1.61-.96,2.6-1.31,.99-.35,2.22-.53,3.69-.53,1.91,0,3.42,.38,4.52,1.14,1.11,.76,1.66,1.84,1.66,3.22Z"/><path d="M419.52,95.53c0-1.06,.08-2.12,.23-3.17,.16-1.06,.43-2.05,.82-2.98,.39-.93,.94-1.75,1.65-2.47,.71-.72,1.62-1.28,2.73-1.69,1.11-.41,2.46-.61,4.06-.61,.36,0,.8,.02,1.31,.05,.51,.04,.93,.09,1.26,.16v3.48c-.35-.07-.72-.12-1.13-.17s-.86-.07-1.37-.07c-1.4,0-2.5,.22-3.28,.65-.78,.43-1.34,1.05-1.68,1.85-.34,.8-.53,1.73-.58,2.78h.16c.35-.61,.82-1.12,1.43-1.54,.61-.42,1.41-.62,2.42-.62,1.63,0,2.91,.52,3.85,1.56s1.4,2.5,1.4,4.39c0,2.06-.58,3.67-1.73,4.81s-2.72,1.72-4.69,1.72c-1.3,0-2.47-.29-3.5-.87-1.03-.58-1.85-1.47-2.46-2.68-.61-1.2-.91-2.73-.91-4.59Zm6.79,4.6c.66,0,1.19-.23,1.6-.7,.41-.47,.61-1.21,.61-2.21,0-.8-.17-1.43-.52-1.9s-.89-.7-1.64-.7-1.36,.24-1.79,.73c-.43,.48-.65,1.01-.65,1.59,0,.5,.09,1,.26,1.49,.17,.49,.44,.9,.79,1.22,.35,.32,.8,.48,1.34,.48Z"/></g><g><path d="M505.27,61.95c0,.87-.18,1.61-.55,2.24-.36,.62-.85,1.14-1.47,1.55s-1.3,.71-2.04,.9v.08c1.47,.19,2.61,.65,3.41,1.37,.8,.72,1.2,1.71,1.2,2.98,0,1.04-.27,1.99-.81,2.83-.54,.85-1.36,1.53-2.48,2.03s-2.56,.75-4.33,.75c-1.11,0-2.09-.09-2.95-.26s-1.69-.42-2.48-.75v-3.72c.8,.42,1.63,.72,2.5,.92,.87,.2,1.66,.3,2.39,.3,1.32,0,2.23-.21,2.74-.64,.51-.42,.77-1.01,.77-1.75,0-.47-.12-.87-.36-1.2-.24-.33-.67-.58-1.29-.75s-1.48-.26-2.59-.26h-1.27v-3.35h1.3c1.06,0,1.87-.1,2.44-.29,.57-.19,.97-.45,1.21-.79,.23-.34,.35-.72,.35-1.16,0-1.21-.8-1.82-2.39-1.82-.85,0-1.61,.16-2.28,.47s-1.18,.58-1.55,.81l-1.95-2.99c.75-.52,1.61-.96,2.6-1.31,.99-.35,2.22-.53,3.69-.53,1.91,0,3.42,.38,4.52,1.14,1.11,.76,1.66,1.84,1.66,3.22Z"/><path d="M512.81,73.03l.18,.29c-.16,.62-.36,1.33-.6,2.11-.24,.78-.51,1.56-.79,2.34-.29,.78-.57,1.49-.84,2.13h-3.12c.24-1.11,.48-2.29,.71-3.54,.23-1.25,.41-2.36,.53-3.33h3.93Z"/><path d="M528,61.95c0,.87-.18,1.61-.55,2.24-.36,.62-.85,1.14-1.47,1.55s-1.3,.71-2.04,.9v.08c1.47,.19,2.61,.65,3.41,1.37,.8,.72,1.2,1.71,1.2,2.98,0,1.04-.27,1.99-.81,2.83-.54,.85-1.36,1.53-2.48,2.03s-2.56,.75-4.33,.75c-1.11,0-2.09-.09-2.95-.26s-1.69-.42-2.48-.75v-3.72c.8,.42,1.63,.72,2.5,.92,.87,.2,1.66,.3,2.39,.3,1.32,0,2.23-.21,2.74-.64,.51-.42,.77-1.01,.77-1.75,0-.47-.12-.87-.36-1.2-.24-.33-.67-.58-1.29-.75s-1.48-.26-2.59-.26h-1.27v-3.35h1.3c1.06,0,1.87-.1,2.44-.29,.57-.19,.97-.45,1.21-.79,.23-.34,.35-.72,.35-1.16,0-1.21-.8-1.82-2.39-1.82-.85,0-1.61,.16-2.28,.47s-1.18,.58-1.55,.81l-1.95-2.99c.75-.52,1.61-.96,2.6-1.31,.99-.35,2.22-.53,3.69-.53,1.91,0,3.42,.38,4.52,1.14,1.11,.76,1.66,1.84,1.66,3.22Z"/><path d="M540.89,76.41h-4.47v-10.01c0-.23,0-.56,.01-1.01,0-.45,.02-.93,.03-1.43,0-.5,.02-.95,.04-1.35-.14,.17-.33,.38-.57,.61-.24,.23-.47,.44-.68,.61l-2.13,1.74-2.21-2.76,6.16-4.96h3.82v18.56Z"/><path d="M559.22,72.69h-2.13v3.72h-4.34v-3.72h-7.7v-3.17l7.96-11.67h4.08v11.46h2.13v3.38Zm-6.47-3.38v-2.68c0-.35,0-.77,.03-1.27,.02-.5,.03-.96,.05-1.38s.04-.68,.05-.78h-.13c-.16,.36-.31,.69-.47,.97-.16,.29-.35,.6-.57,.95l-2.78,4.19h3.82Z"/></g><g><path d="M253.95,140.41h-13.21v-2.99l4.6-4.65c.94-.97,1.68-1.77,2.24-2.39s.95-1.17,1.18-1.65c.23-.48,.35-.98,.35-1.52,0-.66-.2-1.14-.58-1.44-.39-.3-.88-.46-1.47-.46-.66,0-1.3,.17-1.94,.49-.63,.33-1.32,.81-2.07,1.43l-2.42-2.83c.54-.48,1.11-.94,1.72-1.36,.61-.42,1.32-.77,2.14-1.04,.82-.27,1.82-.4,2.98-.4,1.25,0,2.32,.22,3.22,.66s1.59,1.04,2.08,1.79c.48,.75,.73,1.62,.73,2.59,0,1.04-.2,1.99-.6,2.83-.4,.85-.99,1.69-1.77,2.52-.78,.83-1.73,1.77-2.86,2.81l-1.92,1.77v.16h7.59v3.69Z"/><path d="M260.81,137.03l.18,.29c-.16,.62-.36,1.33-.6,2.11-.24,.78-.51,1.56-.79,2.34-.29,.78-.57,1.49-.84,2.13h-3.12c.24-1.11,.48-2.29,.71-3.54,.23-1.25,.41-2.36,.53-3.33h3.93Z"/><path d="M263.46,132.53c0-1.06,.08-2.12,.23-3.17,.16-1.06,.43-2.05,.82-2.98,.39-.93,.94-1.75,1.65-2.47,.71-.72,1.62-1.28,2.73-1.69,1.11-.41,2.46-.61,4.06-.61,.36,0,.8,.02,1.31,.05,.51,.04,.93,.09,1.26,.16v3.48c-.35-.07-.72-.12-1.13-.17s-.86-.07-1.37-.07c-1.4,0-2.5,.22-3.28,.65-.78,.43-1.34,1.05-1.68,1.85-.34,.8-.53,1.73-.58,2.78h.16c.35-.61,.82-1.12,1.43-1.54,.61-.42,1.41-.62,2.42-.62,1.63,0,2.91,.52,3.85,1.56s1.4,2.5,1.4,4.39c0,2.06-.58,3.67-1.73,4.81s-2.72,1.72-4.69,1.72c-1.3,0-2.47-.29-3.5-.87-1.03-.58-1.85-1.47-2.46-2.68-.61-1.2-.91-2.73-.91-4.59Zm6.79,4.6c.66,0,1.19-.23,1.6-.7,.41-.47,.61-1.21,.61-2.21,0-.8-.17-1.43-.52-1.9s-.89-.7-1.64-.7-1.36,.24-1.79,.73c-.43,.48-.65,1.01-.65,1.59,0,.5,.09,1,.26,1.49,.17,.49,.44,.9,.79,1.22,.35,.32,.8,.48,1.34,.48Z"/><path d="M280.36,140.41l6.68-14.87h-8.63v-3.69h13.34v2.7l-6.79,15.86h-4.6Z"/><path d="M293.52,132.53c0-1.06,.08-2.12,.23-3.17,.16-1.06,.43-2.05,.82-2.98,.39-.93,.94-1.75,1.65-2.47,.71-.72,1.62-1.28,2.73-1.69,1.11-.41,2.46-.61,4.06-.61,.36,0,.8,.02,1.31,.05,.51,.04,.93,.09,1.26,.16v3.48c-.35-.07-.72-.12-1.13-.17s-.86-.07-1.37-.07c-1.4,0-2.5,.22-3.28,.65-.78,.43-1.34,1.05-1.68,1.85-.34,.8-.53,1.73-.58,2.78h.16c.35-.61,.82-1.12,1.43-1.54,.61-.42,1.41-.62,2.42-.62,1.63,0,2.91,.52,3.85,1.56s1.4,2.5,1.4,4.39c0,2.06-.58,3.67-1.73,4.81s-2.72,1.72-4.69,1.72c-1.3,0-2.47-.29-3.5-.87-1.03-.58-1.85-1.47-2.46-2.68-.61-1.2-.91-2.73-.91-4.59Zm6.79,4.6c.66,0,1.19-.23,1.6-.7,.41-.47,.61-1.21,.61-2.21,0-.8-.17-1.43-.52-1.9s-.89-.7-1.64-.7-1.36,.24-1.79,.73c-.43,.48-.65,1.01-.65,1.59,0,.5,.09,1,.26,1.49,.17,.49,.44,.9,.79,1.22,.35,.32,.8,.48,1.34,.48Z"/></g><rect class="cls-2" x="64" y="34" width="14" height="14"/><rect class="cls-1" x="64" y="71" width="14" height="14"/></g><g id="Labels-EN"><g><path d="M92.42,34.66c1.77,0,3.06,.36,3.88,1.07,.81,.72,1.22,1.71,1.22,2.99,0,.76-.17,1.47-.5,2.13s-.9,1.19-1.68,1.61c-.79,.41-1.85,.62-3.19,.62h-1.46v5.15h-2.05v-13.57h3.8Zm-.15,1.73h-1.6v4.96h1.23c1.15,0,2.02-.19,2.61-.58,.59-.39,.88-1.04,.88-1.97,0-.81-.25-1.42-.76-1.81-.51-.4-1.3-.6-2.38-.6Z"/><path d="M104.05,37.79c1.34,0,2.4,.41,3.17,1.24,.77,.83,1.16,1.96,1.16,3.39v1.1h-6.88c.03,1.05,.3,1.86,.83,2.41,.53,.56,1.26,.84,2.21,.84,.66,0,1.25-.06,1.76-.18,.51-.12,1.04-.3,1.59-.54v1.67c-.52,.24-1.04,.42-1.56,.52s-1.14,.16-1.86,.16c-.99,0-1.86-.2-2.62-.59-.76-.39-1.35-.97-1.78-1.75-.42-.77-.64-1.73-.64-2.89s.19-2.13,.58-2.93,.92-1.41,1.62-1.83c.69-.42,1.5-.64,2.42-.64Zm0,1.56c-.72,0-1.3,.23-1.74,.7-.44,.47-.69,1.13-.77,2h4.83c-.01-.8-.21-1.45-.58-1.95-.37-.5-.95-.75-1.74-.75Z"/><path d="M116.08,37.79c1.19,0,2.1,.3,2.74,.89,.63,.6,.95,1.55,.95,2.87v6.67h-2v-6.38c0-1.6-.7-2.39-2.11-2.39-1.04,0-1.76,.31-2.16,.93s-.6,1.51-.6,2.68v5.17h-2.01v-10.24h1.6l.29,1.37h.11c.33-.53,.78-.92,1.36-1.18,.58-.25,1.19-.38,1.83-.38Z"/><path d="M126.38,48.41c-1.24,0-2.24-.44-2.98-1.33-.75-.89-1.12-2.21-1.12-3.95s.38-3.09,1.14-3.99,1.76-1.35,3-1.35c.77,0,1.41,.15,1.9,.44,.49,.29,.89,.65,1.2,1.06h.11c-.03-.18-.06-.44-.09-.78s-.06-.64-.06-.89v-3.84h2.01v14.44h-1.58l-.34-1.37h-.09c-.29,.43-.68,.8-1.18,1.1-.49,.3-1.13,.46-1.92,.46Zm.48-1.65c.99,0,1.68-.27,2.08-.82s.6-1.37,.62-2.49v-.3c0-1.2-.19-2.12-.58-2.75-.39-.63-1.1-.95-2.14-.95-.82,0-1.44,.33-1.86,.99s-.63,1.57-.63,2.74,.21,2.04,.63,2.66c.42,.62,1.05,.93,1.88,.93Z"/><path d="M135.67,34.09c.3,0,.57,.09,.8,.27,.23,.18,.34,.47,.34,.89s-.11,.7-.34,.88c-.23,.18-.49,.28-.8,.28s-.59-.09-.82-.28c-.23-.18-.34-.48-.34-.88s.11-.71,.34-.89c.23-.18,.5-.27,.82-.27Zm.99,3.89v10.24h-2.01v-10.24h2.01Z"/><path d="M145,37.79c1.19,0,2.1,.3,2.74,.89,.63,.6,.95,1.55,.95,2.87v6.67h-2v-6.38c0-1.6-.7-2.39-2.11-2.39-1.04,0-1.76,.31-2.16,.93s-.6,1.51-.6,2.68v5.17h-2.01v-10.24h1.6l.29,1.37h.11c.33-.53,.78-.92,1.36-1.18,.58-.25,1.19-.38,1.83-.38Z"/><path d="M155.31,37.79c.66,0,1.25,.13,1.79,.38,.53,.25,.98,.64,1.35,1.16h.09l.23-1.35h1.63v10.37c0,2.95-1.58,4.43-4.73,4.43-.73,0-1.41-.05-2.03-.15-.62-.1-1.19-.26-1.71-.48v-1.77c.53,.27,1.12,.47,1.78,.6,.65,.13,1.35,.2,2.08,.2,.82,0,1.47-.24,1.93-.71,.46-.47,.69-1.14,.69-2v-.34c0-.16,0-.38,.02-.65s.03-.47,.04-.61h-.08c-.36,.53-.79,.92-1.3,1.17-.51,.25-1.11,.37-1.78,.37-1.29,0-2.3-.47-3.03-1.4-.73-.93-1.09-2.23-1.09-3.89s.36-2.95,1.09-3.91c.73-.96,1.74-1.43,3.03-1.43Zm.42,1.67c-.8,0-1.41,.31-1.83,.94s-.64,1.54-.64,2.75,.21,2.1,.64,2.72c.42,.62,1.05,.93,1.87,.93,.94,0,1.62-.26,2.06-.77,.44-.51,.66-1.35,.66-2.52v-.38c0-1.32-.22-2.26-.67-2.82-.44-.56-1.14-.85-2.09-.85Z"/><path d="M95.14,76.93h4.9v6.76c-.72,.24-1.46,.42-2.21,.54-.75,.12-1.61,.18-2.57,.18-2.08,0-3.67-.62-4.78-1.84s-1.66-2.94-1.66-5.13c0-1.42,.28-2.65,.83-3.7,.55-1.04,1.35-1.85,2.4-2.42,1.05-.57,2.32-.85,3.82-.85,.75,0,1.46,.08,2.15,.23s1.32,.35,1.9,.59l-.74,1.71c-.47-.21-1-.39-1.58-.54-.58-.15-1.18-.22-1.8-.22-1,0-1.87,.21-2.59,.64-.73,.42-1.29,1.03-1.67,1.81-.39,.79-.58,1.71-.58,2.77s.16,1.91,.48,2.7c.32,.79,.82,1.4,1.5,1.84,.68,.44,1.58,.67,2.68,.67,.54,0,1-.03,1.38-.09,.37-.06,.72-.12,1.04-.2v-3.69h-2.87v-1.77Z"/><path d="M108.12,73.79c.41,0,.78,.03,1.12,.09l-.21,1.88c-.33-.09-.67-.13-1.03-.13-.52,0-1,.13-1.44,.38s-.8,.62-1.07,1.09c-.27,.48-.41,1.05-.41,1.72v5.4h-2.01v-10.24h1.6l.27,1.82h.08c.32-.54,.74-1.02,1.27-1.42,.53-.4,1.15-.6,1.84-.6Z"/><path d="M114.73,73.79c1.28,0,2.24,.28,2.88,.85,.64,.56,.96,1.45,.96,2.65v6.93h-1.42l-.4-1.42h-.08c-.44,.56-.91,.97-1.4,1.22-.49,.26-1.16,.39-2.02,.39-.92,0-1.69-.25-2.3-.75-.61-.5-.91-1.28-.91-2.35s.4-1.85,1.19-2.38c.79-.54,2-.83,3.62-.88l1.75-.06v-.57c0-.75-.17-1.28-.51-1.59-.34-.31-.82-.47-1.44-.47-.52,0-1.02,.08-1.5,.23s-.94,.34-1.39,.55l-.65-1.46c.48-.25,1.04-.46,1.66-.64,.63-.17,1.28-.26,1.97-.26Zm1.84,5.51l-1.37,.04c-1.17,.05-1.97,.25-2.42,.59-.45,.34-.67,.81-.67,1.41,0,.53,.16,.92,.48,1.16,.32,.24,.73,.36,1.23,.36,.79,0,1.44-.22,1.97-.67,.53-.44,.79-1.11,.79-2v-.89Z"/><path d="M126.85,73.79c1.19,0,2.1,.3,2.74,.89,.63,.6,.95,1.55,.95,2.87v6.67h-2v-6.38c0-1.6-.7-2.39-2.11-2.39-1.04,0-1.76,.31-2.16,.93s-.6,1.51-.6,2.68v5.17h-2.01v-10.24h1.6l.29,1.37h.11c.33-.53,.78-.92,1.36-1.18,.58-.25,1.19-.38,1.83-.38Z"/><path d="M137.32,82.78c.57,0,1.08-.08,1.54-.25v1.52c-.21,.1-.51,.19-.87,.26-.37,.07-.73,.11-1.1,.11-.56,0-1.07-.1-1.53-.29-.46-.19-.83-.52-1.11-.99-.28-.47-.42-1.12-.42-1.96v-5.66h-1.42v-.91l1.5-.76,.7-2.17h1.24v2.3h2.93v1.54h-2.93v5.62c0,.56,.14,.97,.41,1.24s.63,.4,1.07,.4Z"/><path d="M144.94,73.79c1.34,0,2.4,.41,3.17,1.24,.77,.83,1.16,1.96,1.16,3.39v1.1h-6.88c.03,1.05,.3,1.86,.83,2.41,.53,.56,1.26,.84,2.21,.84,.66,0,1.25-.06,1.76-.18,.51-.12,1.04-.3,1.59-.54v1.67c-.52,.24-1.04,.42-1.56,.52s-1.14,.16-1.86,.16c-.99,0-1.86-.2-2.62-.59-.76-.39-1.35-.97-1.78-1.75-.42-.77-.64-1.73-.64-2.89s.19-2.13,.58-2.93,.92-1.41,1.62-1.83c.69-.42,1.5-.64,2.42-.64Zm0,1.56c-.72,0-1.3,.23-1.74,.7-.44,.47-.69,1.13-.77,2h4.83c-.01-.8-.21-1.45-.58-1.95-.37-.5-.95-.75-1.74-.75Z"/><path d="M155.3,84.41c-1.24,0-2.24-.44-2.98-1.33-.75-.89-1.12-2.21-1.12-3.95s.38-3.09,1.14-3.99,1.76-1.35,3-1.35c.77,0,1.41,.15,1.9,.44,.49,.29,.89,.65,1.2,1.06h.11c-.03-.18-.06-.44-.09-.78s-.06-.64-.06-.89v-3.84h2.01v14.44h-1.58l-.34-1.37h-.09c-.29,.43-.68,.8-1.18,1.1-.49,.3-1.13,.46-1.92,.46Zm.48-1.65c.99,0,1.68-.27,2.08-.82s.6-1.37,.62-2.49v-.3c0-1.2-.19-2.12-.58-2.75-.39-.63-1.1-.95-2.14-.95-.82,0-1.44,.33-1.86,.99s-.63,1.57-.63,2.74,.21,2.04,.63,2.66c.42,.62,1.05,.93,1.88,.93Z"/></g></g></svg>