<?xml version="1.0" encoding="UTF-8"?><svg xmlns="http://www.w3.org/2000/svg" viewBox="0 0 800 480"><defs><style>.cls-1{fill:#0071bc;}.cls-2{fill:#e6e6e6;}.cls-3{fill:#98d5f4;}.cls-4{fill:#29abe2;}</style></defs><g id="_021"><g><path class="cls-1" d="M380.95,278.28l-23.52-167.35c7.39-1.04,16.05-1.64,23.52-1.64v168.99Z"/><path class="cls-4" d="M380.95,278.28l-157.77-60.56c22.74-59.25,71.4-97.95,134.25-106.79l23.52,167.35Z"/><path class="cls-3" d="M380.95,278.28l8.84-168.76c93.21,4.88,164.8,84.4,159.92,177.61s-84.4,164.8-177.61,159.92-164.8-84.4-159.92-177.61c.98-18.64,4.3-34.29,10.99-51.72l157.77,60.56Z"/><path class="cls-2" d="M380.95,278.28V109.28c3.73,0,5.12,.04,8.84,.23l-8.84,168.76Z"/></g></g><g id="Numbers"><g><path d="M387.53,83.41h-4.47v-10.01c0-.23,0-.56,.01-1.01s.02-.93,.03-1.43c0-.5,.02-.95,.04-1.35-.14,.17-.33,.38-.57,.61-.24,.23-.47,.44-.68,.61l-2.13,1.74-2.21-2.76,6.16-4.97h3.82v18.56Z"/><path d="M396.42,64.58c1.46,0,2.59,.51,3.41,1.52,.81,1.01,1.22,2.44,1.22,4.28s-.38,3.27-1.14,4.3c-.76,1.03-1.92,1.55-3.48,1.55-1.42,0-2.53-.52-3.33-1.55-.8-1.03-1.2-2.47-1.2-4.3s.37-3.26,1.12-4.28c.75-1.01,1.88-1.52,3.41-1.52Zm.05,2.86c-.4,0-.68,.25-.84,.75-.17,.5-.25,1.24-.25,2.21s.08,1.72,.25,2.24,.45,.78,.84,.78,.68-.26,.85-.78c.16-.52,.25-1.27,.25-2.24s-.08-1.71-.25-2.21c-.17-.5-.45-.75-.85-.75Zm13.57-2.6l-10.3,18.56h-3.38l10.3-18.56h3.38Zm-.1,7.15c1.46,0,2.59,.51,3.41,1.52s1.22,2.44,1.22,4.28-.38,3.27-1.14,4.3-1.92,1.55-3.48,1.55c-1.42,0-2.53-.52-3.33-1.55-.8-1.03-1.2-2.47-1.2-4.3s.37-3.26,1.12-4.28,1.88-1.52,3.41-1.52Zm.05,2.83c-.4,0-.68,.26-.84,.78-.17,.52-.25,1.26-.25,2.21s.08,1.69,.25,2.21c.16,.52,.45,.78,.84,.78,.73,0,1.09-1,1.09-2.99s-.36-2.99-1.09-2.99Z"/></g><g><path d="M208.02,139.41h-4.47v-10.01c0-.23,0-.56,.01-1.01s.02-.93,.03-1.43c0-.5,.02-.95,.04-1.35-.14,.17-.33,.38-.57,.61-.24,.23-.47,.44-.68,.61l-2.13,1.74-2.21-2.76,6.16-4.97h3.82v18.56Z"/><path d="M214.52,139.41l6.68-14.87h-8.63v-3.69h13.34v2.7l-6.79,15.86h-4.6Z"/><path d="M231.94,120.58c1.46,0,2.59,.51,3.41,1.52,.81,1.01,1.22,2.44,1.22,4.28s-.38,3.27-1.14,4.3c-.76,1.03-1.92,1.55-3.48,1.55-1.42,0-2.53-.52-3.33-1.55-.8-1.03-1.2-2.47-1.2-4.3s.37-3.26,1.12-4.28c.75-1.01,1.88-1.52,3.41-1.52Zm.05,2.86c-.4,0-.68,.25-.84,.75-.17,.5-.25,1.24-.25,2.21s.08,1.72,.25,2.24,.45,.78,.84,.78,.68-.26,.85-.78c.16-.52,.25-1.27,.25-2.24s-.08-1.71-.25-2.21c-.17-.5-.45-.75-.85-.75Zm13.57-2.6l-10.3,18.56h-3.38l10.3-18.56h3.38Zm-.1,7.15c1.46,0,2.59,.51,3.41,1.52s1.22,2.44,1.22,4.28-.38,3.27-1.14,4.3-1.92,1.55-3.48,1.55c-1.42,0-2.53-.52-3.33-1.55-.8-1.03-1.2-2.47-1.2-4.3s.37-3.26,1.12-4.28,1.88-1.52,3.41-1.52Zm.05,2.83c-.4,0-.68,.26-.84,.78-.17,.52-.25,1.26-.25,2.21s.08,1.69,.25,2.21c.16,.52,.45,.78,.84,.78,.73,0,1.09-1,1.09-2.99s-.36-2.99-1.09-2.99Z"/></g><g><path d="M332.34,94.41h-13.21v-2.99l4.6-4.65c.94-.97,1.68-1.77,2.24-2.39s.95-1.17,1.18-1.65c.23-.48,.35-.98,.35-1.52,0-.66-.2-1.14-.58-1.44-.39-.3-.88-.46-1.47-.46-.66,0-1.3,.17-1.94,.49s-1.32,.81-2.07,1.43l-2.42-2.83c.54-.48,1.11-.94,1.72-1.36,.61-.42,1.32-.77,2.14-1.04,.82-.27,1.82-.4,2.98-.4,1.25,0,2.32,.22,3.22,.66s1.59,1.04,2.08,1.79c.48,.75,.73,1.62,.73,2.59,0,1.04-.2,1.98-.6,2.83-.4,.85-.99,1.69-1.77,2.52-.78,.83-1.73,1.77-2.86,2.81l-1.92,1.77v.16h7.59v3.69Z"/><path d="M338.42,75.58c1.46,0,2.59,.51,3.41,1.52,.81,1.01,1.22,2.44,1.22,4.28s-.38,3.27-1.14,4.3c-.76,1.03-1.92,1.55-3.48,1.55-1.42,0-2.53-.52-3.33-1.55-.8-1.03-1.2-2.47-1.2-4.3s.37-3.26,1.12-4.28c.75-1.01,1.88-1.52,3.41-1.52Zm.05,2.86c-.4,0-.68,.25-.84,.75-.17,.5-.25,1.24-.25,2.21s.08,1.72,.25,2.24,.45,.78,.84,.78,.68-.26,.85-.78c.16-.52,.25-1.27,.25-2.24s-.08-1.71-.25-2.21c-.17-.5-.45-.75-.85-.75Zm13.57-2.6l-10.3,18.56h-3.38l10.3-18.56h3.38Zm-.1,7.15c1.46,0,2.59,.51,3.41,1.52s1.22,2.44,1.22,4.28-.38,3.27-1.14,4.3-1.92,1.55-3.48,1.55c-1.42,0-2.53-.52-3.33-1.55-.8-1.03-1.2-2.47-1.2-4.3s.37-3.26,1.12-4.28,1.88-1.52,3.41-1.52Zm.05,2.83c-.4,0-.68,.26-.84,.78-.17,.52-.25,1.26-.25,2.21s.08,1.69,.25,2.21c.16,.52,.45,.78,.84,.78,.73,0,1.09-1,1.09-2.99s-.36-2.99-1.09-2.99Z"/></g><g><path d="M559.25,369.61c1.14,0,2.17,.16,3.08,.49,.91,.33,1.63,.83,2.17,1.49,.54,.67,.81,1.5,.81,2.48,0,1.13-.31,2.05-.92,2.77-.62,.72-1.4,1.3-2.35,1.76,.62,.35,1.23,.75,1.81,1.2,.58,.45,1.06,.98,1.44,1.6,.38,.62,.57,1.33,.57,2.14,0,1.53-.58,2.76-1.73,3.71-1.15,.95-2.79,1.42-4.9,1.42s-3.86-.46-4.97-1.38c-1.11-.92-1.66-2.14-1.66-3.67,0-1.28,.33-2.3,1-3.05s1.5-1.37,2.48-1.86c-.8-.52-1.48-1.15-2.05-1.88-.57-.74-.86-1.66-.86-2.77,0-.97,.27-1.79,.82-2.46,.55-.67,1.28-1.17,2.2-1.49,.92-.33,1.94-.49,3.07-.49Zm-2.57,13.78c0,.61,.21,1.1,.64,1.48,.42,.38,1.04,.57,1.86,.57,.88,0,1.54-.18,1.96-.55s.64-.84,.64-1.43c0-.43-.12-.82-.38-1.16-.25-.34-.56-.63-.92-.88-.36-.25-.7-.47-1.01-.66l-.34-.21c-.71,.35-1.3,.75-1.75,1.2-.46,.45-.69,1-.69,1.64Zm2.55-10.58c-.54,0-.99,.15-1.35,.44-.36,.29-.55,.69-.55,1.2,0,.54,.19,.99,.56,1.35,.37,.36,.82,.68,1.34,.94,.49-.23,.93-.51,1.33-.86,.4-.35,.6-.82,.6-1.43,0-.5-.19-.9-.56-1.2-.37-.29-.83-.44-1.37-.44Z"/><path d="M580.83,379.13c0,1.99-.21,3.7-.64,5.12s-1.12,2.51-2.08,3.28-2.25,1.14-3.86,1.14c-2.29,0-3.96-.84-5-2.52-1.05-1.68-1.57-4.02-1.57-7.02,0-1.99,.21-3.71,.64-5.13,.42-1.43,1.12-2.53,2.08-3.29,.96-.76,2.25-1.14,3.86-1.14,2.27,0,3.93,.84,4.99,2.52,1.06,1.68,1.59,4.03,1.59,7.05Zm-8.76,0c0,1.99,.15,3.49,.46,4.49,.3,1,.88,1.5,1.73,1.5s1.43-.5,1.73-1.5c.3-1,.46-2.49,.46-4.49s-.15-3.47-.46-4.48c-.3-1.01-.88-1.52-1.73-1.52s-1.43,.51-1.73,1.52c-.3,1.01-.46,2.51-.46,4.48Z"/><path d="M586.94,369.58c1.46,0,2.59,.51,3.41,1.52,.81,1.01,1.22,2.44,1.22,4.28s-.38,3.27-1.14,4.3c-.76,1.03-1.92,1.55-3.48,1.55-1.42,0-2.53-.52-3.33-1.55-.8-1.03-1.2-2.46-1.2-4.3s.37-3.26,1.12-4.28c.75-1.01,1.88-1.52,3.41-1.52Zm.05,2.86c-.4,0-.68,.25-.84,.75-.17,.5-.25,1.24-.25,2.21s.08,1.72,.25,2.24c.17,.52,.45,.78,.84,.78s.68-.26,.85-.78c.16-.52,.25-1.26,.25-2.24s-.08-1.71-.25-2.21c-.17-.5-.45-.75-.85-.75Zm13.57-2.6l-10.3,18.56h-3.38l10.3-18.56h3.38Zm-.1,7.15c1.46,0,2.59,.51,3.41,1.52,.81,1.01,1.22,2.44,1.22,4.28s-.38,3.27-1.14,4.3-1.92,1.55-3.48,1.55c-1.42,0-2.53-.52-3.33-1.55-.8-1.03-1.2-2.46-1.2-4.3s.37-3.26,1.12-4.28c.75-1.01,1.88-1.52,3.41-1.52Zm.05,2.83c-.4,0-.68,.26-.84,.78-.17,.52-.25,1.26-.25,2.21s.08,1.69,.25,2.21c.16,.52,.45,.78,.84,.78,.73,0,1.09-1,1.09-2.99s-.36-2.99-1.09-2.99Z"/></g></g><g id="Labels-EN"><g><path d="M378.04,44.01c0,1.41-.24,2.63-.7,3.68-.47,1.04-1.17,1.86-2.11,2.44-.94,.58-2.1,.87-3.5,.87s-2.62-.29-3.55-.87c-.94-.58-1.63-1.4-2.09-2.45s-.68-2.28-.68-3.69,.23-2.61,.68-3.66,1.15-1.86,2.09-2.43c.94-.58,2.13-.86,3.57-.86s2.55,.29,3.49,.86c.93,.58,1.63,1.39,2.1,2.43,.47,1.04,.7,2.27,.7,3.68Zm-10.47,0c0,1.62,.34,2.9,1.01,3.84,.67,.94,1.72,1.41,3.15,1.41s2.5-.47,3.15-1.41c.66-.94,.99-2.22,.99-3.84s-.33-2.89-.99-3.82c-.66-.92-1.7-1.39-3.13-1.39s-2.5,.46-3.17,1.39c-.67,.92-1.01,2.2-1.01,3.82Z"/><path d="M384.44,49.36c.57,0,1.08-.08,1.54-.25v1.52c-.21,.1-.51,.19-.87,.26-.37,.07-.73,.1-1.1,.1-.56,0-1.07-.09-1.53-.29-.46-.19-.83-.52-1.11-.99-.28-.47-.42-1.12-.42-1.96v-5.66h-1.42v-.91l1.5-.76,.7-2.17h1.24v2.3h2.93v1.54h-2.93v5.62c0,.56,.14,.97,.41,1.24,.27,.27,.63,.4,1.07,.4Z"/><path d="M390.05,36.37v3.86c0,.32-.01,.63-.04,.95-.03,.32-.05,.58-.08,.78h.13c.33-.52,.77-.91,1.32-1.17,.55-.26,1.15-.39,1.79-.39,1.2,0,2.12,.3,2.76,.89,.64,.6,.96,1.55,.96,2.85v6.67h-2v-6.38c0-1.6-.7-2.39-2.11-2.39-1.05,0-1.77,.32-2.17,.95-.39,.63-.59,1.53-.59,2.68v5.15h-2.01v-14.44h2.01Z"/><path d="M404.03,40.38c1.34,0,2.4,.42,3.17,1.24,.77,.83,1.16,1.96,1.16,3.39v1.1h-6.88c.03,1.05,.3,1.86,.83,2.41,.53,.56,1.26,.84,2.21,.84,.66,0,1.25-.06,1.76-.18,.51-.12,1.04-.3,1.59-.54v1.67c-.52,.24-1.04,.42-1.56,.52s-1.14,.16-1.86,.16c-.99,0-1.86-.2-2.62-.59-.76-.39-1.35-.98-1.78-1.75-.42-.77-.64-1.74-.64-2.89s.19-2.13,.58-2.93,.92-1.41,1.62-1.83,1.5-.64,2.42-.64Zm0,1.56c-.72,0-1.3,.23-1.74,.7-.44,.47-.69,1.13-.77,2h4.83c-.01-.8-.21-1.45-.58-1.95-.37-.5-.95-.75-1.74-.75Z"/><path d="M415.92,40.38c.41,0,.78,.03,1.12,.1l-.21,1.88c-.33-.09-.67-.13-1.03-.13-.52,0-1,.13-1.44,.38s-.8,.62-1.07,1.09c-.27,.48-.41,1.05-.41,1.72v5.4h-2.01v-10.24h1.6l.27,1.82h.08c.32-.54,.74-1.02,1.27-1.42s1.15-.6,1.84-.6Z"/><path d="M425.75,47.92c0,1.01-.36,1.78-1.09,2.3s-1.75,.78-3.07,.78c-.72,0-1.34-.05-1.85-.15-.51-.1-.98-.26-1.42-.48v-1.77c.44,.22,.97,.41,1.57,.58s1.19,.26,1.76,.26c.76,0,1.31-.12,1.64-.36,.33-.24,.5-.56,.5-.97,0-.23-.06-.43-.19-.62-.13-.18-.36-.37-.71-.57-.35-.2-.86-.42-1.53-.67-.66-.25-1.21-.51-1.66-.78-.45-.27-.79-.58-1.04-.95-.24-.37-.36-.83-.36-1.39,0-.89,.36-1.57,1.07-2.04,.71-.48,1.66-.71,2.84-.71,.62,0,1.21,.06,1.76,.19,.55,.13,1.09,.3,1.61,.53l-.67,1.54c-.44-.19-.9-.35-1.37-.48-.47-.13-.94-.2-1.42-.2-1.24,0-1.86,.36-1.86,1.08,0,.24,.07,.45,.22,.63,.15,.18,.4,.35,.76,.53,.36,.18,.87,.39,1.51,.65,.62,.24,1.16,.49,1.61,.75s.79,.57,1.04,.94c.24,.37,.36,.83,.36,1.39Z"/></g><g><path d="M204.99,94.82c-1.34,0-2.4,.47-3.16,1.4-.77,.93-1.15,2.21-1.15,3.83s.35,2.88,1.06,3.8c.71,.92,1.79,1.39,3.23,1.39,.58,0,1.14-.05,1.68-.16,.54-.11,1.09-.25,1.64-.43v1.77c-.53,.2-1.08,.35-1.63,.45-.56,.1-1.2,.14-1.94,.14-1.39,0-2.55-.29-3.47-.86-.92-.58-1.6-1.39-2.05-2.43-.45-1.04-.67-2.27-.67-3.68s.25-2.57,.75-3.62c.5-1.04,1.23-1.87,2.19-2.46s2.14-.89,3.53-.89c.68,0,1.35,.07,2,.22,.65,.15,1.25,.35,1.8,.62l-.76,1.71c-.44-.2-.92-.38-1.42-.54-.51-.16-1.05-.24-1.63-.24Z"/><path d="M213.01,92.37v3.86c0,.32-.01,.63-.04,.95-.03,.32-.05,.58-.08,.78h.13c.33-.52,.77-.91,1.32-1.17,.55-.26,1.15-.39,1.79-.39,1.2,0,2.12,.3,2.76,.89,.64,.6,.96,1.55,.96,2.85v6.67h-2v-6.38c0-1.6-.7-2.39-2.11-2.39-1.05,0-1.77,.32-2.17,.95-.39,.63-.59,1.53-.59,2.68v5.15h-2.01v-14.44h2.01Z"/><path d="M223.99,92.67c.3,0,.57,.09,.8,.27,.23,.18,.34,.48,.34,.89s-.11,.7-.34,.88c-.23,.18-.49,.28-.8,.28s-.59-.09-.82-.28c-.23-.18-.34-.48-.34-.88s.11-.72,.34-.89c.23-.18,.5-.27,.82-.27Zm.99,3.9v10.24h-2.01v-10.24h2.01Z"/><path d="M233.32,96.38c1.19,0,2.1,.3,2.74,.89,.63,.6,.95,1.55,.95,2.87v6.67h-2v-6.38c0-1.6-.7-2.39-2.11-2.39-1.04,0-1.76,.31-2.16,.93-.4,.62-.6,1.51-.6,2.68v5.17h-2.01v-10.24h1.6l.29,1.37h.11c.33-.53,.78-.92,1.36-1.18,.58-.25,1.19-.38,1.83-.38Z"/><path d="M244.08,96.38c1.28,0,2.24,.28,2.88,.85s.96,1.45,.96,2.65v6.94h-1.42l-.4-1.42h-.08c-.44,.56-.91,.97-1.4,1.23-.49,.26-1.16,.39-2.02,.39-.92,0-1.69-.25-2.3-.75-.61-.5-.91-1.28-.91-2.35s.4-1.85,1.19-2.38c.79-.54,2-.83,3.62-.88l1.75-.06v-.57c0-.75-.17-1.28-.51-1.59-.34-.31-.82-.47-1.44-.47-.52,0-1.02,.08-1.5,.23s-.94,.34-1.39,.55l-.65-1.46c.48-.25,1.04-.47,1.66-.64,.63-.17,1.28-.26,1.97-.26Zm1.84,5.51l-1.37,.04c-1.17,.05-1.97,.25-2.42,.59-.45,.34-.67,.81-.67,1.41,0,.53,.16,.92,.48,1.16,.32,.24,.73,.36,1.23,.36,.79,0,1.44-.22,1.97-.67,.53-.44,.79-1.11,.79-1.99v-.89Z"/></g><g><path d="M337.51,48.24v8.78c0,.94-.19,1.78-.58,2.54-.39,.75-.98,1.35-1.78,1.79-.8,.44-1.8,.66-3.02,.66-1.72,0-3.03-.46-3.92-1.38-.89-.92-1.34-2.13-1.34-3.64v-8.74h2.05v8.65c0,2.24,1.1,3.36,3.31,3.36,1.14,0,1.97-.3,2.48-.91,.51-.61,.77-1.43,.77-2.47v-8.63h2.03Z"/><path d="M348.79,58.14c0,1.2-.44,2.15-1.31,2.83s-2.07,1.03-3.59,1.03c-.75,0-1.44-.06-2.09-.18-.65-.12-1.2-.29-1.65-.52v-1.94c.51,.23,1.1,.43,1.79,.62,.68,.18,1.38,.28,2.09,.28,.91,0,1.6-.18,2.05-.53s.68-.83,.68-1.43c0-.42-.1-.77-.3-1.05-.2-.29-.53-.55-.98-.8-.45-.25-1.04-.51-1.76-.79-.66-.25-1.25-.55-1.77-.89-.52-.34-.92-.77-1.22-1.27-.29-.51-.44-1.13-.44-1.86,0-1.11,.41-1.99,1.22-2.62,.81-.63,1.87-.95,3.19-.95,.73,0,1.42,.08,2.04,.23,.63,.15,1.23,.35,1.79,.59l-.65,1.69c-.52-.22-1.05-.39-1.59-.53-.54-.14-1.09-.21-1.66-.21-.75,0-1.32,.16-1.71,.49-.39,.33-.59,.76-.59,1.29,0,.42,.09,.77,.29,1.05,.19,.29,.49,.54,.91,.78,.42,.23,.97,.48,1.65,.75,.76,.3,1.41,.62,1.95,.96,.54,.34,.95,.74,1.23,1.22s.42,1.07,.42,1.78Z"/></g><g><path d="M553.05,359.81h-2.05v-11.8h-4.07v-1.77h10.18v1.77h-4.07v11.8Z"/><path d="M561.41,349.38c1.28,0,2.24,.28,2.88,.85s.96,1.45,.96,2.65v6.93h-1.42l-.4-1.42h-.08c-.44,.56-.91,.96-1.4,1.22-.49,.26-1.16,.39-2.02,.39-.92,0-1.69-.25-2.3-.75-.61-.5-.91-1.28-.91-2.35s.4-1.85,1.19-2.38c.79-.54,2-.83,3.62-.88l1.75-.06v-.57c0-.75-.17-1.28-.51-1.59-.34-.31-.82-.46-1.44-.46-.52,0-1.02,.08-1.5,.23-.48,.15-.94,.34-1.39,.55l-.65-1.46c.48-.25,1.04-.47,1.66-.64,.63-.17,1.28-.26,1.97-.26Zm1.84,5.51l-1.37,.04c-1.17,.05-1.97,.25-2.42,.59-.45,.34-.67,.81-.67,1.41,0,.53,.16,.92,.48,1.16,.32,.24,.73,.36,1.23,.36,.79,0,1.44-.22,1.97-.67,.53-.44,.79-1.11,.79-1.99v-.89Z"/><path d="M569.37,345.67c.3,0,.57,.09,.8,.27,.23,.18,.34,.47,.34,.89s-.11,.7-.34,.88c-.23,.18-.49,.28-.8,.28s-.59-.09-.82-.28c-.23-.18-.34-.48-.34-.88s.11-.71,.34-.89c.23-.18,.5-.27,.82-.27Zm.99,3.9v10.24h-2.01v-10.24h2.01Z"/><path d="M581.89,359.79l-1.46-5.11c-.09-.33-.19-.71-.3-1.13-.11-.42-.22-.83-.3-1.22-.09-.39-.16-.69-.21-.9h-.08c-.04,.22-.1,.52-.19,.9-.09,.39-.19,.79-.29,1.22s-.21,.81-.31,1.15l-1.52,5.09h-2.24l-2.83-10.24h2.05l1.33,5.19c.14,.53,.27,1.1,.39,1.7,.12,.6,.21,1.09,.26,1.45h.08c.04-.22,.09-.5,.16-.87,.07-.36,.15-.72,.23-1.07,.08-.35,.16-.65,.24-.87l1.63-5.53h2.2l1.6,5.53c.08,.25,.16,.55,.25,.9,.09,.35,.17,.69,.24,1.04s.12,.63,.14,.86h.08c.03-.2,.07-.48,.13-.84s.14-.73,.24-1.14c.1-.4,.19-.79,.28-1.16l1.37-5.19h2.03l-2.87,10.24h-2.3Z"/><path d="M592.82,349.38c1.28,0,2.24,.28,2.88,.85s.96,1.45,.96,2.65v6.93h-1.42l-.4-1.42h-.08c-.44,.56-.91,.96-1.4,1.22-.49,.26-1.16,.39-2.02,.39-.92,0-1.69-.25-2.3-.75-.61-.5-.91-1.28-.91-2.35s.4-1.85,1.19-2.38c.79-.54,2-.83,3.62-.88l1.75-.06v-.57c0-.75-.17-1.28-.51-1.59-.34-.31-.82-.46-1.44-.46-.52,0-1.02,.08-1.5,.23-.48,.15-.94,.34-1.39,.55l-.65-1.46c.48-.25,1.04-.47,1.66-.64,.63-.17,1.28-.26,1.97-.26Zm1.84,5.51l-1.37,.04c-1.17,.05-1.97,.25-2.42,.59-.45,.34-.67,.81-.67,1.41,0,.53,.16,.92,.48,1.16,.32,.24,.73,.36,1.23,.36,.79,0,1.44-.22,1.97-.67,.53-.44,.79-1.11,.79-1.99v-.89Z"/><path d="M604.94,349.38c1.19,0,2.1,.3,2.74,.89,.63,.6,.95,1.55,.95,2.87v6.67h-2v-6.38c0-1.6-.7-2.39-2.11-2.39-1.04,0-1.76,.31-2.16,.93-.4,.62-.6,1.51-.6,2.68v5.17h-2.01v-10.24h1.6l.29,1.37h.11c.33-.53,.78-.92,1.36-1.18,.58-.25,1.19-.38,1.83-.38Z"/></g></g></svg>