<svg xmlns="http://www.w3.org/2000/svg" viewBox="0 0 800 480"><defs><style>.a{fill:#e6e6e6;}.b{fill:#29abe2;}.c{fill:#98d5f4;}.d{fill:#0071bc;}.e{font-size:26px;font-family:NotoSans-ExtraBold, Noto Sans;font-weight:800;}.f{font-size:19px;font-family:NotoSansCJKtc-Regular-B5pc-H, Noto Sans CJK TC;}</style></defs><path class="a" d="M380.89,278.59,220.17,226.37c23.07-71,86.05-116.77,160.72-116.77Z"/><path class="b" d="M380.89,278.59,213.15,258a163,163,0,0,1,7-31.63Z"/><path class="c" d="M380.89,278.59l8.84-168.76a169,169,0,1,1-177.6,159.92c.19-3.73.57-8.05,1-11.75Z"/><path class="d" d="M380.89,278.59v-169c3.73,0,5.12,0,8.84.23Z"/><text class="e" transform="translate(364.22 83.41)">1%</text><text class="e" transform="translate(200.71 132.41)">20%</text><text class="e" transform="translate(157.22 256.41)">3%</text><text class="e" transform="translate(551.71 388.41)">76%</text><text class="f" transform="translate(364.41 50.81)">其他</text><text class="f" transform="translate(208.41 99.81)">中国</text><text class="f" transform="translate(157.41 223.81)">美国</text><text class="f" transform="translate(559.41 355.81)">台湾</text></svg>