<?xml version="1.0" encoding="UTF-8"?><svg xmlns="http://www.w3.org/2000/svg" viewBox="0 0 800 240"><defs><style>.cls-1{fill:#0071bc;}.cls-2{fill:#98d5f4;}.cls-3{fill:#333;}.cls-4{fill:none;stroke:gray;stroke-miterlimit:10;}</style></defs><g id="_021"><line class="cls-4" x1="324.01" y1="225" x2="324.01" y2="19"/><g><rect class="cls-2" x="324.01" y="128.88" width="164.78" height="63.12"/><rect class="cls-1" x="324.01" y="58.74" width="302.09" height="63.12"/></g></g><g id="Numbers"><g><path d="M684.99,95.41h-4.47v-10.01c0-.23,0-.56,.01-1.01,0-.45,.02-.93,.03-1.43,0-.5,.02-.95,.04-1.35-.14,.17-.33,.38-.57,.61-.24,.23-.47,.44-.68,.61l-2.13,1.74-2.21-2.76,6.16-4.96h3.82v18.56Z"/><path d="M700.02,95.41h-4.47v-10.01c0-.23,0-.56,.01-1.01,0-.45,.02-.93,.03-1.43,0-.5,.02-.95,.04-1.35-.14,.17-.33,.38-.57,.61-.24,.23-.47,.44-.68,.61l-2.13,1.74-2.21-2.76,6.16-4.96h3.82v18.56Z"/></g><path d="M689.62,163.53c0-1.06,.08-2.12,.23-3.17,.16-1.06,.43-2.05,.82-2.98,.39-.93,.94-1.75,1.65-2.47,.71-.72,1.62-1.28,2.73-1.69,1.11-.41,2.46-.61,4.06-.61,.36,0,.8,.02,1.31,.05,.51,.04,.93,.09,1.26,.16v3.48c-.35-.07-.72-.12-1.13-.17s-.86-.07-1.37-.07c-1.4,0-2.5,.22-3.28,.65-.78,.43-1.34,1.05-1.68,1.85-.34,.8-.53,1.73-.58,2.78h.16c.35-.61,.82-1.12,1.43-1.54,.61-.42,1.41-.62,2.42-.62,1.63,0,2.91,.52,3.85,1.56s1.4,2.5,1.4,4.39c0,2.06-.58,3.67-1.73,4.81s-2.72,1.72-4.69,1.72c-1.3,0-2.47-.29-3.5-.87-1.03-.58-1.85-1.47-2.46-2.68-.61-1.2-.91-2.73-.91-4.59Zm6.79,4.6c.66,0,1.19-.23,1.6-.7,.41-.47,.61-1.21,.61-2.21,0-.8-.17-1.43-.52-1.9s-.89-.7-1.64-.7-1.36,.24-1.79,.73c-.43,.48-.65,1.01-.65,1.59,0,.5,.09,1,.26,1.49,.17,.49,.44,.9,.79,1.22,.35,.32,.8,.48,1.34,.48Z"/></g><g id="Labels-CHS"><g><path class="cls-3" d="M219.32,88.57c-.08,.61-.11,1.5-.08,2-4.69,.91-5.49,1.14-6,1.42-.11-.44-.47-1.52-.74-2.11,.53-.11,.97-.51,1.62-1.2,.29-.28,.85-.95,1.5-1.79-1.71,.21-2.2,.32-2.51,.48-.11-.42-.48-1.52-.72-2.09,.38-.11,.72-.49,1.14-1.12,.42-.61,1.73-2.95,2.41-5.11l2.13,.99c-.74,1.71-1.79,3.5-2.83,4.98l1.79-.13c.42-.63,.82-1.29,1.14-1.94l1.98,1.27c-1.04,1.67-2.32,3.38-3.65,4.82l2.83-.47Zm0,5.66c-2.17,.65-4.48,1.27-6.29,1.77l-.44-2.26c1.65-.29,4.08-.89,6.48-1.46l.25,1.96Zm9.92-5.59c-.95-.68-2.79-1.67-4.43-2.43-1.42,.99-3.04,1.77-4.69,2.36-.29-.59-.87-1.46-1.35-1.94,2.81-.84,5.57-2.47,7.22-4.52h-5.95v-2.05h7.43l.42-.1,1.6,.84c-.7,1.54-1.71,2.87-2.91,4.01,1.48,.65,3.1,1.41,3.99,2.01l-1.33,1.82Zm-3.34,5.72h4.45v2.09h-11.27v-2.09h4.54v-3.5h-3.4v-2.05h9.18v2.05h-3.5v3.5Z"/><path class="cls-3" d="M238.18,93.08c-2.09,.74-4.37,1.46-6.19,2.05l-.51-2.3c.67-.17,1.44-.38,2.32-.63v-4.46h-1.92v-2.07h1.92v-3.34h-2.09v-2.11h6.27v2.11h-2.03v3.34h1.71v2.07h-1.71v3.8c.63-.19,1.25-.38,1.86-.59l.38,2.13Zm11.28,1.16v2.05h-12.21v-2.05h5.24v-1.8h-3.93v-2.03h3.93v-1.63h-3.8v-8.83h9.92v8.83h-3.82v1.63h4.03v2.03h-4.03v1.8h4.67Zm-8.74-10.81h1.96v-1.58h-1.96v1.58Zm0,3.42h1.96v-1.63h-1.96v1.63Zm5.74-5h-1.88v1.58h1.88v-1.58Zm0,3.36h-1.88v1.63h1.88v-1.63Z"/><path class="cls-3" d="M253.21,91.9c-.13,1.67-.44,3.48-.84,4.64-.38-.21-1.22-.48-1.69-.59,.46-1.12,.67-2.81,.78-4.33l1.75,.28Zm-2.51-7.26c.38-.11,.7-.46,1.1-1.03,.38-.51,1.58-2.6,2.26-4.58l2.07,.84c-.68,1.54-1.6,3.15-2.56,4.48l1.33-.1c.49-.8,.99-1.65,1.37-2.51l1.88,1.2c-1.08,1.94-2.49,3.89-3.95,5.53l1.99-.28c-.17-.46-.34-.89-.53-1.27l1.52-.57c.61,1.2,1.2,2.75,1.37,3.78l-1.65,.66c-.04-.27-.09-.59-.19-.93-4.03,.72-4.73,.87-5.15,1.12-.11-.4-.46-1.44-.72-2,.51-.13,.93-.55,1.54-1.25,.25-.27,.7-.8,1.24-1.54-1.48,.17-1.92,.28-2.2,.44-.11-.44-.46-1.42-.7-1.99Zm4.48,6.84c.23,1.22,.44,2.77,.49,3.78l-1.63,.42c-.02-1.03-.21-2.62-.4-3.82l1.54-.38Zm12.84-5.81c-.47,2.85-1.33,5.24-2.53,7.14,.82,.89,1.79,1.6,2.91,2.09-.49,.42-1.16,1.27-1.5,1.88-1.06-.55-1.98-1.27-2.75-2.17-.82,.91-1.71,1.65-2.72,2.28-.34-.53-.93-1.29-1.42-1.69,1.03-.57,1.98-1.39,2.79-2.41-.57-.97-1.06-2.09-1.48-3.27-.38,2.89-1.06,5.34-2.34,7.26-.34-.36-1.41-1.12-1.94-1.41,.3-.4,.57-.85,.8-1.33l-1.31,.47c-.15-.8-.53-2.09-.87-3.06l1.5-.49c.32,.85,.67,1.9,.87,2.7,1.27-2.91,1.54-6.95,1.56-11.61h-1.58v-2.13h6.46l.32-.09,1.58,.21c-.19,1.63-.53,3.55-.85,5.21h.7l.36-.08,1.44,.49Zm-6.25-3.61c-.02,1.1-.06,2.17-.09,3.19h1.73c.21-1.01,.4-2.18,.55-3.19h-2.19Zm.82,5.21c.34,1.29,.84,2.53,1.48,3.61,.59-1.08,1.06-2.3,1.41-3.61h-2.89Z"/><path class="cls-3" d="M277.76,91.52c-2.51,1.12-5.32,2.32-7.47,3.21l-.76-2.41c.72-.25,1.58-.55,2.53-.93l-.38-11.09,2.36-.09,.34,10.28c.95-.4,1.92-.8,2.87-1.18l.51,2.22Zm7.87,5.34c-.7-1.23-2.15-2.98-3.55-4.58-1.39,1.98-3.27,3.5-5.78,4.62-.32-.49-1.25-1.52-1.8-2,6.02-2.28,7.98-6.88,8.68-14.68l2.49,.23c-.4,3.89-1.08,7.07-2.32,9.65,1.58,1.63,3.34,3.55,4.22,4.88l-1.94,1.88Zm-7.12-9.75c-.47-1.31-1.69-3.3-2.83-4.71l2.05-1.03c1.24,1.39,2.43,3.25,3,4.56l-2.22,1.18Z"/><path class="cls-3" d="M306.12,93.67v2.28h-17.27v-2.28h6.8v-14.3h2.43v5.43h6.71v2.3h-6.71v6.57h8.04Z"/><path class="cls-3" d="M241.6,166.39h7.03v2.01h-16.17v-2.01h6.78v-2.3h-4.92v-1.96h4.92v-2.17h-3.99v-1.63c-.82,.55-1.63,1.03-2.41,1.42-.32-.55-.87-1.33-1.39-1.82,2.11-.85,4.46-2.43,6.25-4.12h-2.53v-2.09h6.5c1.63,2.39,4.67,4.79,7.9,5.97-.48,.49-1.18,1.42-1.52,2.07-.82-.38-1.61-.84-2.39-1.35v1.56h-4.07v2.17h4.98v1.96h-4.98v2.3Zm3.42-8.42c-1.75-1.24-3.32-2.7-4.56-4.16-1.25,1.46-2.94,2.94-4.67,4.16h9.23Z"/><path class="cls-3" d="M259.79,155.6c-.4,.91-.78,1.9-1.16,2.7h2.22v2.05h-10.03v-2.05h2.43c-.19-.78-.55-1.86-.95-2.66l1.54-.38h-2.55v-2.03h3.59c-.15-.55-.38-1.14-.61-1.65l2.07-.59c.34,.7,.68,1.56,.91,2.24h3.21v2.03h-2.22l1.54,.34Zm-8.09,6.12h8.43v7.05h-2.22v-.76h-4.07v.86h-2.15v-7.14Zm2.15,2.01v2.32h4.07v-2.32h-4.07Zm.46-8.47c.46,.85,.85,1.97,1.04,2.72l-1.14,.32h2.26c.4-.89,.82-2.11,1.06-3.04h-3.23Zm14.06-2.34c-.65,1.82-1.42,4.01-2.15,5.64,1.52,1.71,1.8,3.21,1.8,4.45,0,1.37-.3,2.3-1.01,2.79-.34,.25-.76,.38-1.25,.46-.42,.06-.97,.08-1.46,.04-.04-.59-.21-1.48-.55-2.09,.42,.04,.8,.04,1.06,.04s.49-.06,.7-.19c.32-.19,.44-.66,.44-1.31,0-1.03-.4-2.39-1.84-3.91,.53-1.39,1.12-3.32,1.56-4.77h-2.13v14.74h-1.98v-16.78h4.9l.32-.08,1.58,.97Z"/><path class="cls-3" d="M279.6,161.37v1.69c0,2.01-1.14,4.43-8,5.98-.29-.49-.99-1.37-1.56-1.84,6.52-1.18,7.09-2.93,7.09-4.2v-1.63h2.47Zm6-2.96v6.71h-2.47v-4.64h-9.18v4.88h-2.36v-6.95h14Zm-.85-6.52v5.3h-12.35v-5.3h12.35Zm-9.97,3.38h7.45v-1.46h-7.45v1.46Zm5.49,9.42c2.03,.59,5.15,1.67,6.74,2.39l-1.16,1.92c-1.48-.74-4.52-1.94-6.69-2.64l1.1-1.67Z"/><path class="cls-3" d="M306.16,165.29v2.28h-17.27v-2.28h7.24v-9.82h-6.21v-2.36h15.18v2.36h-6.38v9.82h7.45Z"/></g></g></svg>