<svg xmlns="http://www.w3.org/2000/svg" viewBox="0 0 800 480"><defs><style>.a{fill:#98d5f4;}.b{fill:#0071bc;}.c{fill:none;stroke:gray;stroke-miterlimit:10;stroke-width:0.93px;}.d{fill:#333;}.e{fill:#999;}</style></defs><rect class="a" x="336" y="243.97" width="211" height="73.03"/><rect class="b" x="336" y="162.83" width="291.95" height="73.03"/><line class="c" x1="336.01" y1="380.09" x2="336.01" y2="100.09"/><path d="M655.49,208.41l6.68-14.87h-8.63v-3.69h13.34v2.7l-6.79,15.86Z"/><path d="M681.85,197.88a18.64,18.64,0,0,1-.45,4.17,9.51,9.51,0,0,1-1.54,3.45,7.24,7.24,0,0,1-2.91,2.32,10.84,10.84,0,0,1-4.59.85c-.36,0-.79,0-1.28,0s-.91-.07-1.24-.12V205a11,11,0,0,0,2.29.23,7.26,7.26,0,0,0,3.42-.66,3.7,3.7,0,0,0,1.7-1.86,8.25,8.25,0,0,0,.57-2.76h-.15a5,5,0,0,1-1.38,1.54,4.36,4.36,0,0,1-2.55.62,4.82,4.82,0,0,1-3.77-1.56,6.4,6.4,0,0,1-1.4-4.42,6.48,6.48,0,0,1,1.71-4.77,6.37,6.37,0,0,1,4.71-1.73,6.93,6.93,0,0,1,3.48.89,6.06,6.06,0,0,1,2.47,2.71A10.44,10.44,0,0,1,681.85,197.88Zm-6.76-4.73a2.06,2.06,0,0,0-1.63.7,3.24,3.24,0,0,0-.63,2.21,3,3,0,0,0,.55,1.92,2,2,0,0,0,1.66.71,2.23,2.23,0,0,0,1.74-.75,2.29,2.29,0,0,0,.68-1.57,4.62,4.62,0,0,0-.26-1.52,2.92,2.92,0,0,0-.78-1.22A1.89,1.89,0,0,0,675.09,193.15Z"/><path d="M687.94,189.58a4.1,4.1,0,0,1,3.4,1.53,6.62,6.62,0,0,1,1.22,4.27,7.15,7.15,0,0,1-1.14,4.31,4,4,0,0,1-3.48,1.54,4,4,0,0,1-3.33-1.54,6.88,6.88,0,0,1-1.2-4.31,7.13,7.13,0,0,1,1.12-4.27A4,4,0,0,1,687.94,189.58Zm0,2.87c-.4,0-.68.25-.85.75a7.71,7.71,0,0,0-.24,2.21,8.09,8.09,0,0,0,.24,2.24c.17.52.45.78.85.78s.68-.26.84-.78a7.67,7.67,0,0,0,.25-2.24,7.31,7.31,0,0,0-.25-2.21Q688.59,192.45,688,192.45Zm13.57-2.6-10.3,18.56h-3.38l10.3-18.56Zm-.1,7.15a4.1,4.1,0,0,1,3.4,1.52,6.62,6.62,0,0,1,1.22,4.27,7.17,7.17,0,0,1-1.14,4.31,4,4,0,0,1-3.48,1.54,4,4,0,0,1-3.33-1.54,6.9,6.9,0,0,1-1.2-4.31,7.13,7.13,0,0,1,1.12-4.27A3.94,3.94,0,0,1,701.46,197Zm0,2.83c-.4,0-.68.26-.85.78a10.3,10.3,0,0,0,0,4.42c.17.52.45.78.85.78.73,0,1.09-1,1.09-3S702.24,199.83,701.51,199.83Z"/><path d="M660.79,280.4a6.24,6.24,0,0,1,2.94.67,5,5,0,0,1,2.06,2,6.2,6.2,0,0,1,.75,3.15,6.11,6.11,0,0,1-1.87,4.78q-1.87,1.69-5.59,1.69a14.76,14.76,0,0,1-2.84-.26,9.25,9.25,0,0,1-2.28-.75v-3.72a10.9,10.9,0,0,0,2.32.84,10,10,0,0,0,2.54.35,3.86,3.86,0,0,0,2.43-.66,2.4,2.4,0,0,0,.84-2,2.26,2.26,0,0,0-.84-1.89,4.18,4.18,0,0,0-2.59-.66,7.87,7.87,0,0,0-1.43.14l-1.25.27-1.69-.85.71-9.62h10.29v3.71h-6.5l-.28,3.1.91-.17A7.79,7.79,0,0,1,660.79,280.4Z"/><path d="M670.52,292.41l6.68-14.87h-8.63v-3.69h13.34v2.7l-6.79,15.86Z"/><path d="M687.94,273.58a4.1,4.1,0,0,1,3.4,1.53,6.62,6.62,0,0,1,1.22,4.27,7.15,7.15,0,0,1-1.14,4.31,4,4,0,0,1-3.48,1.54,4,4,0,0,1-3.33-1.54,6.88,6.88,0,0,1-1.2-4.31,7.13,7.13,0,0,1,1.12-4.27A4,4,0,0,1,687.94,273.58Zm0,2.87c-.4,0-.68.25-.85.75a7.71,7.71,0,0,0-.24,2.21,8.09,8.09,0,0,0,.24,2.24c.17.52.45.78.85.78s.68-.26.84-.78a7.67,7.67,0,0,0,.25-2.24,7.31,7.31,0,0,0-.25-2.21Q688.59,276.45,688,276.45Zm13.57-2.6-10.3,18.56h-3.38l10.3-18.56Zm-.1,7.15a4.1,4.1,0,0,1,3.4,1.52,6.62,6.62,0,0,1,1.22,4.27,7.17,7.17,0,0,1-1.14,4.31,4,4,0,0,1-3.48,1.54,4,4,0,0,1-3.33-1.54,6.9,6.9,0,0,1-1.2-4.31,7.13,7.13,0,0,1,1.12-4.27A3.94,3.94,0,0,1,701.46,281Zm0,2.83c-.4,0-.68.26-.85.78a10.3,10.3,0,0,0,0,4.42c.17.52.45.78.85.78.73,0,1.09-1,1.09-3S702.24,283.83,701.51,283.83Z"/><path class="d" d="M203.8,203.23a15.79,15.79,0,0,1-1.61,6.74,9.88,9.88,0,0,0-1.85-1.42c1.22-2.19,1.29-5.38,1.29-7.85v-6.86h0a31.73,31.73,0,0,0,6.44-1.35l1.45,1.92a30.83,30.83,0,0,1-5.66,1.12v1.35h4.88v6.35Zm.08-4.33v2.31h2.69V198.9Zm14.45,1.74H216.6v9.1h-2.24v-9.1h-2c-.08,3-.72,6.92-3.38,9.29a11.31,11.31,0,0,0-1.77-1.54c2.62-2.35,2.85-5.88,2.85-8.62v-5.91a30.44,30.44,0,0,0,6.53-1.5l1.47,2a30.93,30.93,0,0,1-5.68,1.25v2.89h5.92Z"/><path class="d" d="M226.73,196.54A11.74,11.74,0,0,1,226,198h8.84v9.39c0,1.12-.21,1.72-1,2.07a8.36,8.36,0,0,1-3.36.38,9.42,9.42,0,0,0-.69-2.19c1,.06,2.07.06,2.4.06s.43-.12.43-.38v-1.14h-7.14a6.62,6.62,0,0,1-2.11,3.78,7.67,7.67,0,0,0-1.63-1.73c1.63-1.42,1.76-3.46,1.76-5.22v-1.54a15.48,15.48,0,0,1-2.35,2.07,13.83,13.83,0,0,0-1.48-1.75,14.33,14.33,0,0,0,4.56-5.3h-4.13v-2.13h5.1c.3-.78.55-1.54.76-2.3l2.33.54c-.19.58-.4,1.17-.61,1.76h9.27v2.13Zm5.87,7.81v-1.24h-6.82c0,.4,0,.8,0,1.24Zm0-4.31h-6.82v1.19h6.82Z"/><path class="d" d="M249.36,205.18a60.49,60.49,0,0,1,6.86,2.8l-1.06,1.93a63.09,63.09,0,0,0-7.6-3.3l.85-1.43h-.68c-.91,2.34-2.95,3.84-8,4.68a5.76,5.76,0,0,0-1.12-2c3.82-.51,5.6-1.36,6.5-2.64h-5.66v-1.91h6.4c0-.31.11-.65.15-1h-7v-2h7.29v-1h-5.62v-1.9h5.62v-1h-6.7v-2h3.61a11,11,0,0,0-1.07-1.67l2-.8a8.33,8.33,0,0,1,1.42,2.22l-.55.25h4.18a16.74,16.74,0,0,0,1.35-2.47l2.43.63c-.42.66-.85,1.29-1.27,1.84h3.65v2h-6.73v1h5.81v1.9h-5.81v1h7.56v2h-7.81c0,.34-.09.66-.15,1h7.41v1.91Z"/><path class="d" d="M274.44,192.87v17H272v-.95H260.78v.95h-2.3v-17Zm-2.41,14v-11.9H260.78v11.9Zm-.67-3v1.84h-9.84v-1.84h3.82v-2.24h-3.13v-1.9h3.13V198h-3.61v-2h9.33v2h-3.63v1.78h3.21v1.9h-1a14.81,14.81,0,0,1,1.42,1.69l-1,.55Zm-3.93,0h1.9a13.7,13.7,0,0,0-1.29-1.65l1.16-.59h-1.77Z"/><path class="d" d="M286.6,202.37v1.69c0,2-1.14,4.43-8,6a8.28,8.28,0,0,0-1.55-1.85c6.51-1.17,7.08-2.92,7.08-4.19v-1.64Zm6-3v6.7h-2.46v-4.63H281v4.88H278.6v-7Zm-.85-6.52v5.3H279.4v-5.3Zm-10,3.38h7.44v-1.46h-7.44Zm5.49,9.43a63.19,63.19,0,0,1,6.74,2.39L292.85,210a59.7,59.7,0,0,0-6.68-2.64Z"/><path class="d" d="M313.16,206.29v2.28H295.89v-2.28h7.24v-9.83h-6.21v-2.35H312.1v2.35h-6.38v9.83Z"/><path class="d" d="M226.32,279.57a11.6,11.6,0,0,0-.08,2c-4.69.91-5.49,1.14-6,1.42a20,20,0,0,0-.74-2.1,3.54,3.54,0,0,0,1.61-1.2,22.49,22.49,0,0,0,1.5-1.79,9,9,0,0,0-2.51.48,19.44,19.44,0,0,0-.72-2.09c.38-.12.72-.5,1.14-1.12a24.06,24.06,0,0,0,2.41-5.11l2.13,1a28.61,28.61,0,0,1-2.83,5l1.79-.13a21.35,21.35,0,0,0,1.14-1.94l2,1.27a32.56,32.56,0,0,1-3.65,4.83Zm0,5.67c-2.17.64-4.49,1.27-6.29,1.76l-.44-2.26c1.65-.28,4.08-.89,6.48-1.46Zm9.91-5.59a32.69,32.69,0,0,0-4.42-2.43,19.69,19.69,0,0,1-4.7,2.35,8.19,8.19,0,0,0-1.35-1.93,15,15,0,0,0,7.22-4.52H227v-2.06h7.42l.42-.09,1.6.83a12.91,12.91,0,0,1-2.91,4,28.69,28.69,0,0,1,4,2Zm-3.34,5.72h4.44v2.09H226.07v-2.09h4.54v-3.5h-3.4v-2.05h9.17v2.05h-3.49Z"/><path class="d" d="M245.18,284.08c-2.09.74-4.37,1.46-6.19,2.05l-.51-2.3c.66-.17,1.44-.38,2.31-.63v-4.46h-1.91v-2.07h1.91v-3.35H238.7v-2.1H245v2.1h-2v3.35h1.71v2.07h-1.71v3.8c.63-.19,1.25-.38,1.86-.59Zm11.29,1.16v2.05H244.25v-2.05h5.25v-1.81h-3.94v-2h3.94v-1.64h-3.8v-8.83h9.91v8.83h-3.82v1.64h4v2h-4v1.81Zm-8.74-10.81h2v-1.58h-2Zm0,3.42h2v-1.64h-2Zm5.73-5h-1.88v1.58h1.88Zm0,3.36h-1.88v1.64h1.88Z"/><path class="d" d="M274.5,276.86a15.1,15.1,0,0,1-3.73,7,14.43,14.43,0,0,0,4.66,1.94,11.06,11.06,0,0,0-1.58,2.14,14.17,14.17,0,0,1-5-2.47,17.69,17.69,0,0,1-5.64,2.66,8.26,8.26,0,0,0-1.31-2.11,15,15,0,0,0,5.19-2.24,17.45,17.45,0,0,1-3.08-5.37h-.29a14.37,14.37,0,0,1-4.63,9.19,9.6,9.6,0,0,0-1.63-2c3.76-3.21,4.14-8,4.14-11.07v-1.44h-3v-2.21h12c-.3,1.75-.7,3.76-1.06,5.34h2.85l.41-.09ZM264,274.58c0,.53,0,1.08,0,1.67H267c.27-.95.53-2.05.78-3.13H264Zm2.26,3.82a12.05,12.05,0,0,0,2.62,3.91,11.09,11.09,0,0,0,2.53-3.91Z"/><path class="d" d="M284.76,282.52c-2.51,1.12-5.32,2.32-7.47,3.21l-.76-2.41c.72-.25,1.58-.55,2.53-.93l-.38-11.1,2.36-.09.34,10.27,2.87-1.17Zm7.86,5.34a32.64,32.64,0,0,0-3.55-4.58,13.73,13.73,0,0,1-5.77,4.62,13.75,13.75,0,0,0-1.81-2c6-2.28,8-6.88,8.68-14.68l2.49.22a29.2,29.2,0,0,1-2.32,9.65,41.31,41.31,0,0,1,4.22,4.89Zm-7.12-9.75a19.28,19.28,0,0,0-2.83-4.71l2.05-1a19.28,19.28,0,0,1,3,4.56Z"/><path class="d" d="M313.12,284.67V287H295.86v-2.28h6.8V270.36h2.43v5.43h6.7v2.3h-6.7v6.58Z"/><path class="e" d="M113.41,416l1.12-1.94-2-.9.41-1.25,2.18.49.22-2.25h1.34l.2,2.25L119,412l.41,1.25-2,.9,1.14,1.94-1.07.78-1.5-1.7-1.5,1.7Z"/><path class="e" d="M129.58,409.62h2v7.92a8.32,8.32,0,0,1-4.94,8.11,8.06,8.06,0,0,0-1.45-1.53,6.55,6.55,0,0,0,3.45-2.95l-3.55.62-.37-2c1.2-.13,2.9-.34,4.67-.57a7.25,7.25,0,0,0,.19-1.64h-4.05V415.7h4.05v-2h-4.23v-1.89h4.23Zm10.95,11.89h-4.9v3.91h-2v-15.8h2v2.17h4.59v1.89h-4.59v2h4.21v1.84h-4.21v2.09h4.9Z"/><path class="e" d="M156.13,413.3a21.55,21.55,0,0,1-2.28,1.25,15.24,15.24,0,0,0,3.64.83,7.11,7.11,0,0,0-1.1,1.6c-3.28-.53-5.6-1.84-7.06-4a13.6,13.6,0,0,1-2.12,1.11v1.14l3.06-.45a14.93,14.93,0,0,0,0,1.52,30.34,30.34,0,0,0-4.61.93h10.54v6.22c0,.87-.15,1.35-.71,1.63a5.84,5.84,0,0,1-2.41.29,6.36,6.36,0,0,0-.46-1.49v.37h-4.47v.58h-1.62V421.5l-.76.18a3.53,3.53,0,0,0-.82-1.2c1.61-.29,2.13-.75,2.3-1.67h-2.4v6.6H143v-8.18h2.45a4.68,4.68,0,0,0-.75-1.21,1.55,1.55,0,0,0,.75-1.29c-.94.29-1.9.53-2.84.73a10.51,10.51,0,0,0-1-1.46,21.11,21.11,0,0,0,5.62-1.49h-5.08V411h6.77a6.62,6.62,0,0,0-.45-1.1l2-.41a11.9,11.9,0,0,1,.66,1.51h6v1.52h-2.11Zm-1.82,5.51H152V419c0,.28,0,.44.29.44H153a3.71,3.71,0,0,0,.93-.12c0,.42.05.83.1,1.24a3.24,3.24,0,0,1-1,.1h-1.26c-1.24,0-1.48-.58-1.48-1.68v-.19h-1.44a2.88,2.88,0,0,1-1.14,2.11h4.9v2.74a13,13,0,0,0,1.39,0c.2,0,.27-.05.27-.25Zm-3.35,3.3h-2.78V423H151Zm0-9.6a5.73,5.73,0,0,0,1.44,1.27c.77-.39,1.58-.87,2.21-1.27Z"/><path class="e" d="M168.32,421.21a53.18,53.18,0,0,1,6.14,2.5l-1,1.73a56,56,0,0,0-6.79-3l.76-1.27h-.61c-.82,2.09-2.64,3.43-7.17,4.18a5.36,5.36,0,0,0-1-1.82c3.42-.46,5-1.22,5.82-2.36h-5.07v-1.72h5.73c.05-.27.1-.58.13-.88H159v-1.75h6.53V416h-5v-1.7h5v-.87h-6V411.6h3.23a10,10,0,0,0-1-1.49l1.81-.71a7.65,7.65,0,0,1,1.27,2l-.49.22h3.74a17.15,17.15,0,0,0,1.21-2.2l2.17.56c-.37.59-.76,1.15-1.14,1.64h3.26v1.79h-6v.87h5.2V416h-5.2v.9h6.76v1.75h-7c0,.3-.09.59-.14.88h6.63v1.72Z"/><path class="e" d="M190.76,410.19v15.22H188.6v-.85H178.54v.85h-2.06V410.19Zm-2.16,12.5V412.05H178.54v10.64Zm-.59-2.64v1.65H179.2v-1.65h3.42v-2h-2.81v-1.7h2.81v-1.6h-3.23V413h8.34v1.77h-3.24v1.6h2.87v1.7h-.93a13.06,13.06,0,0,1,1.27,1.51l-.88.49Zm-3.52,0h1.7a13.9,13.9,0,0,0-1.16-1.48l1-.52h-1.58Z"/><path class="e" d="M201.64,409.55c0,.71,0,1.63-.12,2.65.24,2.3,1.28,8.7,7.21,11.32a5.31,5.31,0,0,0-1.48,1.75,13.17,13.17,0,0,1-6.65-8,13.83,13.83,0,0,1-6.25,8.14,6.6,6.6,0,0,0-1.68-1.65c6.9-3.68,6.57-11.3,6.64-14.17Z"/><path class="e" d="M216.16,418.74l-1.82,1.57a31.59,31.59,0,0,0-3.65-3.74l1.76-1.55A32.53,32.53,0,0,1,216.16,418.74Z"/><path class="e" d="M234,422.64v1.93H218.23v-1.93h4.64V412.47h-4.06v-2h14.72v2h-4.28v7.6a31.27,31.27,0,0,0,2-5.86l2,.64a47.63,47.63,0,0,1-2.23,5.92l-1.8-.63v2.5Zm-13.36-8.4c.78,1.89,1.75,4.37,2.18,5.88l-2,.83a59.79,59.79,0,0,0-2-6.05Zm4.45,8.4h2V412.47h-2Z"/><path class="e" d="M249.63,413.3a21.55,21.55,0,0,1-2.28,1.25,15.24,15.24,0,0,0,3.64.83,7.11,7.11,0,0,0-1.1,1.6c-3.28-.53-5.6-1.84-7.06-4a13.6,13.6,0,0,1-2.12,1.11v1.14l3.06-.45a14.93,14.93,0,0,0,0,1.52,30.34,30.34,0,0,0-4.61.93h10.54v6.22c0,.87-.15,1.35-.71,1.63a5.84,5.84,0,0,1-2.41.29,6.36,6.36,0,0,0-.46-1.49v.37h-4.47v.58h-1.62V421.5l-.76.18a3.53,3.53,0,0,0-.82-1.2c1.61-.29,2.13-.75,2.3-1.67h-2.4v6.6h-1.89v-8.18h2.45a4.68,4.68,0,0,0-.75-1.21,1.55,1.55,0,0,0,.75-1.29c-.94.29-1.9.53-2.84.73a10.51,10.51,0,0,0-1-1.46,21.11,21.11,0,0,0,5.62-1.49h-5.08V411h6.77a6.62,6.62,0,0,0-.45-1.1l2-.41a11.9,11.9,0,0,1,.66,1.51h6v1.52h-2.11Zm-1.82,5.51h-2.33V419c0,.28,0,.44.29.44h.77a3.71,3.71,0,0,0,.93-.12c0,.42.05.83.1,1.24a3.24,3.24,0,0,1-1,.1h-1.26c-1.24,0-1.48-.58-1.48-1.68v-.19h-1.44a2.88,2.88,0,0,1-1.14,2.11h4.9v2.74a13,13,0,0,0,1.39,0c.2,0,.27-.05.27-.25Zm-3.35,3.3h-2.78V423h2.78Zm0-9.6a5.73,5.73,0,0,0,1.44,1.27c.77-.39,1.58-.87,2.21-1.27Z"/><path class="e" d="M261.82,421.21a53.18,53.18,0,0,1,6.14,2.5l-1,1.73a56,56,0,0,0-6.79-3l.76-1.27h-.61c-.82,2.09-2.64,3.43-7.17,4.18a5.36,5.36,0,0,0-1-1.82c3.42-.46,5-1.22,5.82-2.36h-5.07v-1.72h5.73c0-.27.1-.58.13-.88h-6.25v-1.75h6.53V416h-5v-1.7h5v-.87h-6V411.6h3.23a10,10,0,0,0-1-1.49l1.81-.71a7.65,7.65,0,0,1,1.27,2l-.49.22h3.74a17.15,17.15,0,0,0,1.21-2.2l2.17.56c-.37.59-.76,1.15-1.14,1.64h3.26v1.79h-6v.87h5.2V416h-5.2v.9h6.76v1.75h-7c0,.3-.09.59-.14.88h6.63v1.72Z"/><path class="e" d="M284.26,410.19v15.22H282.1v-.85H272v.85H270V410.19Zm-2.16,12.5V412.05H272v10.64Zm-.59-2.64v1.65H272.7v-1.65h3.42v-2h-2.81v-1.7h2.81v-1.6h-3.23V413h8.34v1.77H278v1.6h2.87v1.7h-.93a13.06,13.06,0,0,1,1.27,1.51l-.88.49Zm-3.52,0h1.7a13.9,13.9,0,0,0-1.16-1.48l1-.52H278Z"/><path class="e" d="M295.14,409.55c0,.71-.05,1.63-.12,2.65.24,2.3,1.28,8.7,7.21,11.32a5.31,5.31,0,0,0-1.48,1.75,13.17,13.17,0,0,1-6.65-8,13.83,13.83,0,0,1-6.25,8.14,6.6,6.6,0,0,0-1.68-1.65c6.9-3.68,6.57-11.3,6.64-14.17Z"/><path class="e" d="M309.66,418.74l-1.82,1.57a31.59,31.59,0,0,0-3.65-3.74L306,415A32.53,32.53,0,0,1,309.66,418.74Z"/><path class="e" d="M321.37,415.85c1.12,3.44,3.21,6.29,6.39,7.67a7.85,7.85,0,0,0-1.51,1.89c-3.13-1.55-5.08-4.27-6.39-7.79a12.91,12.91,0,0,1-1.72,3.69l.48-.32a21.06,21.06,0,0,1,3,3.06l-1.8,1.31a20.37,20.37,0,0,0-2.53-2.91,12.62,12.62,0,0,1-4.12,3,6.89,6.89,0,0,0-1.51-1.72,10.22,10.22,0,0,0,6.44-7.84h-5.93v-2.09h6.22c.14-1.47.12-2.92.14-4.21h2.23c0,1.31,0,2.74-.17,4.21h6.74v2.09Z"/><path class="e" d="M344.37,419.8h-6.68v5.61h-2.11V419.8H329v-2.06h6.61v-5.15h-5.72v-2h13.53v2h-5.7v5.15h6.68Zm-11.62-6.67a15.79,15.79,0,0,1,1.36,3.47l-2,.61a16.7,16.7,0,0,0-1.24-3.53Zm6.3,3.54a19.5,19.5,0,0,0,1.48-3.59l2.16.55a33.2,33.2,0,0,1-1.87,3.55Z"/><path class="e" d="M348.9,417.69a20.81,20.81,0,0,0-3.25-2.12l1.14-1.45a21.42,21.42,0,0,1,3.31,2ZM346,423.78a50.8,50.8,0,0,0,2.75-5.53l1.6,1.21c-.75,1.83-1.65,3.82-2.53,5.52Zm3.59-10.27a17.71,17.71,0,0,0-3.17-2.23l1.19-1.41a19,19,0,0,1,3.25,2.06Zm12,8.33h-4.4v3.57h-2.11v-3.57h-4.4V419.9h4.4v-1.75h-3.3v-1.89h3.3v-1.73h-3.88v-1.91h2a11.56,11.56,0,0,0-1.27-2.43l1.8-.69a11.47,11.47,0,0,1,1.53,2.77l-.88.35h2.53a20.36,20.36,0,0,0,1.36-3.11l2,.58c-.43.87-.89,1.77-1.33,2.53h2.3v1.91h-4.08v1.73h3.45v1.89h-3.45v1.75h4.4Z"/><path class="e" d="M378.12,416.81a7.93,7.93,0,0,1,0,.83c-.24,4.49-.49,6.27-1,6.9a2,2,0,0,1-1.46.73,19.77,19.77,0,0,1-2.28,0,3.33,3.33,0,0,0-.15-.82H372v-.44H363.7v-4.29h1.82v2.62h2.24V419.1h1.86v3.28H372v-2.65h1.83v3.81h.92a.75.75,0,0,0,.61-.2c.34-.36.56-1.67.75-4.76H364.93v-7.68h3.94a8.8,8.8,0,0,0,.36-1.43l2.41.19c-.19.42-.39.85-.61,1.24h5.06s0,.46,0,.68c-.16,2.51-.31,3.72-.7,4.16a1.61,1.61,0,0,1-1.07.56,10.82,10.82,0,0,1-1.65.07,5,5,0,0,0-.49-1.78c.51,0,.92.07,1.14.07a.56.56,0,0,0,.46-.17,4,4,0,0,0,.35-1.81H366.9v4.12Zm-7.16-.72a19.5,19.5,0,0,0-3.52-1.78l1-1.26a19.21,19.21,0,0,1,3.55,1.63Z"/><path class="e" d="M390.24,419.63c.75,2.11,1.85,3.57,2.79,3.57.42,0,.59-.72.69-2.4a5.16,5.16,0,0,0,1.75.95c-.28,2.82-1,3.45-2.55,3.45-2.12,0-3.91-2.34-4.84-5.57h-4.44v3.18l4.05-.85a13.36,13.36,0,0,0,.22,1.92c-5,1.15-5.83,1.32-6.36,1.61a6.21,6.21,0,0,0-.9-1.78,1.75,1.75,0,0,0,.87-1.46V410.3h12.37v5.52h-4.43a17.06,17.06,0,0,0,.27,1.92h5.37v1.89Zm-6.6-7.46V414h8.2v-1.78Zm4,5.57a17.06,17.06,0,0,1-.26-1.92h-3.74v1.92Z"/><path class="e" d="M403.16,418.74l-1.82,1.57a31.59,31.59,0,0,0-3.65-3.74l1.76-1.55A32.53,32.53,0,0,1,403.16,418.74Z"/><path class="e" d="M134.49,435.4v1.86h4.25v11.05h-2.06v-.94H127v1h-2V437.26h4V435.4h-4.86v-1.93h15.19v1.93Zm2.19,10.12v-2.11h-2c-1.77,0-2.16-.58-2.16-2.5v-1.8h-1.79a5.13,5.13,0,0,1-3.14,4.76A5.86,5.86,0,0,0,127,443v2.53ZM127,439.11v3.06a3.43,3.43,0,0,0,2-3.06Zm5.61-3.71H130.8v1.86h1.77Zm1.92,3.71v1.8c0,.56.07.61.54.61h1.35a1.05,1.05,0,0,0,.3,0v-2.38Z"/><path class="e" d="M146.12,445.89c-1.75.44-3.64.87-5.14,1.21l-.35-1.87c.56-.09,1.2-.22,1.94-.38v-4H141.1v-1.8h1.47v-3.67h-1.64v-1.84h5.22v1.84h-1.73v3.67h1.32v1.8h-1.32v3.56l1.49-.34Zm4-6c0,3.47-.43,6.54-3.66,8.53A6.2,6.2,0,0,0,145.2,447c2.55-1.55,3-3.82,3.11-6.46l-.78.37a29.46,29.46,0,0,0-1.87-4l1.48-.58c.39.68.8,1.46,1.17,2.17v-6h1.79Zm6.56,6.08v1.87h-7.09V446h3v-4.6h-1.91v-1.8h1.91V435.4h-2.11v-1.83h5.9v1.83h-1.85v4.19h1.64v1.8h-1.64V446Z"/><path class="e" d="M173.27,441.08h-3.42v4.86c0,1.18-.24,1.74-1,2.08a7.84,7.84,0,0,1-3.19.4,9.08,9.08,0,0,0-.75-2.12c1,0,2,0,2.33,0s.44-.09.44-.38v-4.48a21.86,21.86,0,0,1-8.33,6.11,9.51,9.51,0,0,0-1.43-1.76,20.57,20.57,0,0,0,7.53-4.73h-6c.42-1.53.93-3.89,1.29-5.91h-1.46v-2h13.2v2h-2.63v4h3.42ZM163,435.17c-.27,1.27-.57,2.72-.86,4h5.61v-4Z"/><path class="e" d="M189.25,436.3a22.59,22.59,0,0,1-2.28,1.25,15.13,15.13,0,0,0,3.64.83,7.15,7.15,0,0,0-1.11,1.6c-3.28-.53-5.59-1.84-7.05-4a13.72,13.72,0,0,1-2.13,1.11v1.14l3.06-.45a14.78,14.78,0,0,0,0,1.52,30,30,0,0,0-4.61.93h10.54v6.22c0,.87-.15,1.35-.72,1.63a5.81,5.81,0,0,1-2.41.29,5.54,5.54,0,0,0-.46-1.49v.37h-4.47v.58h-1.61V444.5l-.77.18a3.36,3.36,0,0,0-.81-1.2c1.61-.29,2.12-.75,2.29-1.67H178v6.6h-1.88v-8.18h2.44a5,5,0,0,0-.74-1.21,1.54,1.54,0,0,0,.74-1.29c-.93.29-1.9.53-2.83.73a10.6,10.6,0,0,0-1-1.46,21.29,21.29,0,0,0,5.63-1.49h-5.08V434H182a7.63,7.63,0,0,0-.44-1.1l2-.41a12,12,0,0,1,.67,1.51h6v1.52h-2.1Zm-1.82,5.51H185.1V442c0,.28,0,.44.29.44h.76a3.79,3.79,0,0,0,.94-.12c0,.42,0,.83.1,1.24a3.28,3.28,0,0,1-1,.1h-1.26c-1.24,0-1.48-.58-1.48-1.68v-.19H182a2.84,2.84,0,0,1-1.13,2.11h4.89v2.74a13.21,13.21,0,0,0,1.4,0c.2,0,.27-.05.27-.25Zm-3.35,3.3h-2.79V446h2.79Zm0-9.6a5.79,5.79,0,0,0,1.45,1.27c.76-.39,1.58-.87,2.21-1.27Z"/><path class="e" d="M201.44,444.21a53,53,0,0,1,6.13,2.5l-.95,1.73a56.91,56.91,0,0,0-6.8-3l.77-1.27H200c-.81,2.09-2.63,3.43-7.17,4.18a5.17,5.17,0,0,0-1-1.82c3.41-.46,5-1.22,5.81-2.36h-5.06v-1.72h5.72a7.71,7.71,0,0,0,.14-.88h-6.25v-1.75h6.52V439h-5v-1.7h5v-.87h-6V434.6h3.23a9.19,9.19,0,0,0-.95-1.49l1.8-.71a7.45,7.45,0,0,1,1.28,2l-.5.22h3.74a15,15,0,0,0,1.21-2.2l2.18.56c-.38.59-.77,1.15-1.14,1.64h3.26v1.79h-6v.87H206V439h-5.2v.9h6.77v1.75h-7c0,.3-.08.59-.13.88H207v1.72Z"/><path class="e" d="M223.88,433.19v15.22h-2.16v-.85H211.65v.85H209.6V433.19Zm-2.16,12.5V435.05H211.65v10.64Zm-.6-2.64v1.65h-8.8v-1.65h3.41v-2h-2.8v-1.7h2.8v-1.6H212.5V436h8.35v1.77H217.6v1.6h2.88v1.7h-.94a13.23,13.23,0,0,1,1.28,1.51l-.89.49Zm-3.52,0h1.7a13.77,13.77,0,0,0-1.15-1.48l1-.52H217.6Z"/><path class="e" d="M234.76,432.55c0,.71,0,1.63-.12,2.65.24,2.3,1.27,8.7,7.2,11.32a5.27,5.27,0,0,0-1.47,1.75,13.13,13.13,0,0,1-6.65-8,13.85,13.85,0,0,1-6.26,8.14,6.44,6.44,0,0,0-1.68-1.65c6.9-3.68,6.58-11.3,6.65-14.17Z"/><path class="e" d="M249.27,441.74l-1.81,1.57a31.66,31.66,0,0,0-3.66-3.74l1.77-1.55A31.62,31.62,0,0,1,249.27,441.74Z"/><path class="e" d="M260.94,444.21a53,53,0,0,1,6.13,2.5l-.95,1.73a56.91,56.91,0,0,0-6.8-3l.77-1.27h-.62c-.81,2.09-2.63,3.43-7.17,4.18a5.17,5.17,0,0,0-1-1.82c3.41-.46,5-1.22,5.81-2.36h-5.06v-1.72h5.72a7.71,7.71,0,0,0,.14-.88h-6.25v-1.75h6.52V439h-5v-1.7h5v-.87h-6V434.6h3.23a9.19,9.19,0,0,0-.95-1.49l1.8-.71a7.45,7.45,0,0,1,1.28,2l-.5.22h3.74a15,15,0,0,0,1.21-2.2l2.18.56c-.38.59-.77,1.15-1.14,1.64h3.26v1.79h-6v.87h5.2V439h-5.2v.9H267v1.75h-7c0,.3-.08.59-.13.88h6.62v1.72Z"/><path class="e" d="M271.07,440.4a19.88,19.88,0,0,0-2.79-1.73l1.12-1.48a22,22,0,0,1,2.88,1.58Zm1.32,2.38c-.56,1.82-1.3,3.77-2,5.44l-1.84-1a47.28,47.28,0,0,0,2.21-5.45Zm-.68-6.82a20,20,0,0,0-2.78-1.81l1.19-1.48a20.17,20.17,0,0,1,2.82,1.66Zm11.87-3v15.45h-1.94v-6.71l-.81.39a15.51,15.51,0,0,0-.87-2.35v8.18h-1.89v-6.28l-1,.43a19.19,19.19,0,0,0-.75-2.67c-.05,3.13-.37,6.41-2.17,9a7.3,7.3,0,0,0-1.74-1.18,10.79,10.79,0,0,0,1.87-5.42l-1.1.41a17.63,17.63,0,0,0-1-4l1.43-.51a17.56,17.56,0,0,1,.83,2.38c0-.49,0-1,0-1.44V433h1.9v5.13l.89-.34c.32.75.63,1.6.88,2.4v-6.87H280v4.47l.58-.25c.37.69.76,1.51,1.1,2.27v-6.83Z"/><path class="e" d="M288.68,438.19c0,2.84-.24,7.11-1.73,9.84a8.18,8.18,0,0,0-1.79-1c1.41-2.53,1.53-6.22,1.53-8.84v-4.91h14.18v1.84H288.68Zm4.08,5.9a24.15,24.15,0,0,1-2.89,3.69,16,16,0,0,0-1.7-1.09,14,14,0,0,0,2.67-3.21Zm3-1.12v3.45c0,.92-.17,1.41-.82,1.68a7,7,0,0,1-2.72.29,6.81,6.81,0,0,0-.56-1.78h1.8c.26,0,.33-.05.33-.25V443H289.8v-6.63h3a9.14,9.14,0,0,0,.53-1.21l2.43.29c-.21.31-.41.63-.61.92h4.55V443Zm-4-4h5.85v-1.09h-5.85Zm0,2.52h5.85v-1.11h-5.85Zm6.36,2c.9,1,2.23,2.48,2.89,3.4l-1.73,1c-.6-.9-1.86-2.43-2.77-3.56Z"/><path class="e" d="M308,433.21a26.2,26.2,0,0,1-1.63,3.54v11.64h-2v-8.5c-.36.43-.72.85-1.06,1.23a12.73,12.73,0,0,0-1.12-2.16A17.69,17.69,0,0,0,306,432.6ZM318.24,446v1.92h-11V446h4.52v-3.42h-3.59v-1.9h3.59v-3h-4.15v-1.92h4.57a12.83,12.83,0,0,0-1.2-2.64l1.87-.63a14,14,0,0,1,1.34,2.64l-1.75.63H318v1.92h-4.14v3h3.67v1.9h-3.67V446Z"/><path class="e" d="M329.85,442.63c.75,2.11,1.86,3.57,2.79,3.57.43,0,.6-.72.7-2.4a5.16,5.16,0,0,0,1.75.95c-.29,2.82-1,3.45-2.55,3.45-2.12,0-3.91-2.34-4.84-5.57h-4.44v3.18l4-.85a12,12,0,0,0,.23,1.92c-5,1.15-5.84,1.32-6.36,1.61a6.77,6.77,0,0,0-.9-1.78,1.76,1.76,0,0,0,.86-1.46V433.3h12.38v5.52h-4.44a17.06,17.06,0,0,0,.27,1.92h5.37v1.89Zm-6.59-7.46V437h8.19v-1.78Zm4,5.57a17.06,17.06,0,0,1-.25-1.92h-3.74v1.92Z"/><path class="e" d="M628.77,429.5c3.42-3.06,5.44-5.42,5.44-7.36a1.8,1.8,0,0,0-1.89-2,3.24,3.24,0,0,0-2.31,1.29L628.65,420a5.12,5.12,0,0,1,4-1.9,3.69,3.69,0,0,1,4,3.87c0,2.28-1.89,4.73-4.19,7,.63-.07,1.47-.13,2-.13h2.74v2.1h-8.43Z"/><path class="e" d="M638.8,424.6c0-4.35,1.7-6.47,4.27-6.47s4.25,2.14,4.25,6.47-1.7,6.58-4.25,6.58S638.8,428.94,638.8,424.6Zm6.15,0c0-3.52-.81-4.54-1.88-4.54s-1.91,1-1.91,4.54.82,4.63,1.91,4.63S645,428.14,645,424.6Z"/><path class="e" d="M648.79,429.5c3.42-3.06,5.44-5.42,5.44-7.36a1.8,1.8,0,0,0-1.88-2,3.24,3.24,0,0,0-2.31,1.29L648.68,420a5.09,5.09,0,0,1,4-1.9,3.69,3.69,0,0,1,4,3.87c0,2.28-1.88,4.73-4.18,7,.63-.07,1.46-.13,2-.13h2.74v2.1h-8.44Z"/><path class="e" d="M658.83,424.6c0-4.35,1.7-6.47,4.26-6.47s4.25,2.14,4.25,6.47-1.7,6.58-4.25,6.58S658.83,428.94,658.83,424.6Zm6.15,0c0-3.52-.82-4.54-1.89-4.54s-1.9,1-1.9,4.54.81,4.63,1.9,4.63S665,428.14,665,424.6Z"/><path class="e" d="M683.32,419.57c.92.9,2.72,1.33,5,1.45a6.84,6.84,0,0,0-1.12,1.61,8.1,8.1,0,0,1-4.45-1.72c-.65.75-2.06,1.42-4.91,1.74a6.27,6.27,0,0,0-.68-1.11h-4.51V420h5.14v1c3.24-.34,3.67-1.1,3.67-1.73V419h-1a7.48,7.48,0,0,1-1.19,1.47,9.72,9.72,0,0,0-1.5-1,6.85,6.85,0,0,0,2-3l1.77.39c-.09.26-.19.51-.29.75h4.83l.3-.08,1.38.42a14.87,14.87,0,0,1-1.56,2.69l-1.57-.58a9.56,9.56,0,0,0,.6-1h-1.89v.53Zm.46,10c1.56.57,3.23,1.25,4.23,1.75l-1.82,1.09a29.76,29.76,0,0,0-4.42-2l1-.83H678l1.48.68a22.49,22.49,0,0,1-5.31,2.21A13.89,13.89,0,0,0,672.7,431a19.82,19.82,0,0,0,4.64-1.41h-2.45v-6.9h11.37v6.9Zm-6.38-10.71h-4.35v-1.48h4.35Zm-.56,5.74h7.36v-.73h-7.36Zm0,1.87h7.36v-.73h-7.36Zm0,1.91h7.36v-.77h-7.36Z"/><path class="e" d="M694.71,424.76c.34.45,1.62,2.58,1.87,3.11l-1.39,1.51a29.21,29.21,0,0,0-1.13-2.84v5.88H692.2v-6.07a11,11,0,0,1-1.91,4.47,15.7,15.7,0,0,0-.92-2.41,9.37,9.37,0,0,0,1.65-3.7l1.18.4v-1.05h-2.57v-1.89h2.57v-5.62h1.86v5.62h2.52v1.89h-2.52v1.15Zm-4.32-2.88a15.89,15.89,0,0,0-.78-3.92l1.41-.36a15.74,15.74,0,0,1,.89,3.89Zm6.5-4c-.45,1.36-.94,3-1.36,3.95l-1.3-.36a25.61,25.61,0,0,0,1-3.95Zm6.59,9.95v4.59h-1.9v-4.25l-4.74.85-.31-1.89,5.05-.9v-9.69h1.9v9.35l1.74-.33.3,1.89Zm-5.81-6.17a14.46,14.46,0,0,1,2.85,2l-1,1.61a14.59,14.59,0,0,0-2.78-2.1Zm2.46-.62a13.72,13.72,0,0,0-2.63-2.21l1-1.36a12.64,12.64,0,0,1,2.7,2.06Z"/></svg>