<?xml version="1.0" encoding="UTF-8"?><svg xmlns="http://www.w3.org/2000/svg" viewBox="0 0 800 480"><defs><style>.cls-1{fill:#0071bc;}.cls-2{fill:#999;}.cls-3{fill:#98d5f4;}.cls-4{fill:#333;}.cls-5{fill:none;stroke:gray;stroke-miterlimit:10;stroke-width:.93px;}</style></defs><g id="_021"><line class="cls-5" x1="336.01" y1="380.09" x2="336.01" y2="100.09"/><g><rect class="cls-3" x="336" y="244.05" width="229.95" height="72.95"/><rect class="cls-1" x="336" y="163" width="292" height="72.95"/></g></g><g id="Numbers"><g><path d="M660.25,189.61c1.14,0,2.17,.16,3.08,.49,.91,.33,1.63,.83,2.17,1.5,.54,.67,.81,1.5,.81,2.48,0,1.13-.31,2.05-.92,2.77-.62,.72-1.4,1.3-2.35,1.76,.62,.35,1.23,.75,1.81,1.2s1.06,.98,1.44,1.6c.38,.62,.57,1.33,.57,2.15,0,1.53-.58,2.76-1.73,3.7-1.15,.95-2.79,1.42-4.9,1.42s-3.86-.46-4.97-1.38c-1.11-.92-1.66-2.14-1.66-3.67,0-1.28,.33-2.3,1-3.05s1.5-1.37,2.48-1.86c-.8-.52-1.48-1.15-2.05-1.88-.57-.74-.86-1.66-.86-2.77,0-.97,.27-1.79,.82-2.46,.55-.67,1.28-1.17,2.2-1.5,.92-.33,1.94-.49,3.07-.49Zm-2.57,13.78c0,.61,.21,1.1,.64,1.48,.42,.38,1.04,.57,1.86,.57,.88,0,1.54-.18,1.96-.55,.42-.36,.64-.84,.64-1.43,0-.43-.12-.82-.38-1.16-.25-.34-.56-.63-.92-.88-.36-.25-.7-.47-1.01-.66l-.34-.21c-.71,.35-1.3,.75-1.75,1.2-.46,.45-.69,1-.69,1.64Zm2.55-10.58c-.54,0-.99,.15-1.35,.44-.36,.29-.55,.69-.55,1.2,0,.54,.19,.99,.56,1.35,.37,.36,.82,.68,1.34,.94,.49-.23,.93-.51,1.33-.86,.4-.35,.6-.82,.6-1.43,0-.5-.19-.9-.56-1.2-.37-.29-.83-.44-1.37-.44Z"/><path d="M681.83,199.13c0,1.99-.21,3.7-.64,5.12-.42,1.42-1.12,2.51-2.08,3.28s-2.25,1.14-3.86,1.14c-2.29,0-3.96-.84-5-2.52-1.05-1.68-1.57-4.02-1.57-7.02,0-1.99,.21-3.7,.64-5.13,.42-1.43,1.12-2.53,2.08-3.29,.96-.76,2.25-1.14,3.86-1.14,2.27,0,3.93,.84,4.99,2.52,1.06,1.68,1.59,4.03,1.59,7.05Zm-8.76,0c0,1.99,.15,3.49,.46,4.49,.3,1,.88,1.5,1.73,1.5s1.43-.5,1.73-1.5c.3-1,.46-2.49,.46-4.49s-.15-3.47-.46-4.48c-.3-1.01-.88-1.52-1.73-1.52s-1.43,.51-1.73,1.52c-.3,1.01-.46,2.51-.46,4.48Z"/><path d="M687.94,189.58c1.46,0,2.59,.51,3.41,1.52,.81,1.01,1.22,2.44,1.22,4.28s-.38,3.27-1.14,4.3c-.76,1.03-1.92,1.55-3.48,1.55-1.42,0-2.53-.52-3.33-1.55-.8-1.03-1.2-2.47-1.2-4.3s.37-3.26,1.12-4.28c.75-1.01,1.88-1.52,3.41-1.52Zm.05,2.86c-.4,0-.68,.25-.84,.75-.17,.5-.25,1.24-.25,2.21s.08,1.72,.25,2.24,.45,.78,.84,.78,.68-.26,.85-.78c.16-.52,.25-1.27,.25-2.24s-.08-1.71-.25-2.21c-.17-.5-.45-.75-.85-.75Zm13.57-2.6l-10.3,18.56h-3.38l10.3-18.56h3.38Zm-.1,7.15c1.46,0,2.59,.51,3.41,1.52s1.22,2.44,1.22,4.28-.38,3.27-1.14,4.3-1.92,1.55-3.48,1.55c-1.42,0-2.53-.52-3.33-1.55-.8-1.03-1.2-2.47-1.2-4.3s.37-3.26,1.12-4.28,1.88-1.52,3.41-1.52Zm.05,2.83c-.4,0-.68,.26-.84,.78-.17,.52-.25,1.26-.25,2.21s.08,1.69,.25,2.21c.16,.52,.45,.78,.84,.78,.73,0,1.09-1,1.09-2.99s-.36-2.99-1.09-2.99Z"/></g><g><path d="M653.62,284.53c0-1.06,.08-2.11,.23-3.17,.16-1.06,.43-2.05,.82-2.98s.94-1.75,1.65-2.47c.71-.72,1.62-1.28,2.73-1.69,1.11-.41,2.46-.61,4.06-.61,.36,0,.8,.02,1.31,.05,.51,.04,.93,.09,1.26,.16v3.48c-.35-.07-.72-.13-1.13-.17-.41-.04-.86-.06-1.37-.06-1.4,0-2.5,.22-3.28,.65-.78,.43-1.34,1.05-1.68,1.85-.34,.8-.53,1.73-.58,2.78h.16c.35-.61,.82-1.12,1.43-1.53,.61-.42,1.41-.62,2.42-.62,1.63,0,2.91,.52,3.85,1.56s1.4,2.5,1.4,4.39c0,2.06-.58,3.67-1.73,4.81s-2.72,1.72-4.69,1.72c-1.3,0-2.47-.29-3.5-.87-1.03-.58-1.85-1.47-2.46-2.68-.61-1.2-.91-2.73-.91-4.59Zm6.79,4.6c.66,0,1.19-.23,1.6-.7,.41-.47,.61-1.2,.61-2.21,0-.8-.17-1.43-.52-1.9-.35-.47-.89-.7-1.64-.7s-1.36,.24-1.79,.73c-.43,.49-.65,1.01-.65,1.59,0,.5,.09,1,.26,1.5,.17,.49,.44,.9,.79,1.22,.35,.32,.8,.48,1.34,.48Z"/><path d="M681.18,277.95c0,.87-.18,1.61-.55,2.24-.36,.62-.85,1.14-1.47,1.55s-1.3,.71-2.04,.9v.08c1.47,.19,2.61,.65,3.41,1.37,.8,.72,1.2,1.71,1.2,2.98,0,1.04-.27,1.98-.81,2.83-.54,.85-1.36,1.53-2.48,2.03s-2.56,.75-4.33,.75c-1.11,0-2.09-.09-2.95-.26s-1.69-.42-2.48-.75v-3.72c.8,.42,1.63,.72,2.5,.92,.87,.2,1.66,.3,2.39,.3,1.32,0,2.23-.21,2.74-.64,.51-.42,.77-1.01,.77-1.75,0-.47-.12-.87-.36-1.2-.24-.33-.67-.58-1.29-.75s-1.48-.26-2.59-.26h-1.27v-3.35h1.3c1.06,0,1.87-.1,2.44-.29,.57-.19,.97-.45,1.21-.79,.23-.34,.35-.72,.35-1.16,0-1.21-.8-1.82-2.39-1.82-.85,0-1.61,.16-2.28,.47s-1.18,.58-1.55,.81l-1.95-2.99c.75-.52,1.61-.96,2.6-1.31,.99-.35,2.22-.53,3.69-.53,1.91,0,3.42,.38,4.52,1.14,1.11,.76,1.66,1.84,1.66,3.22Z"/><path d="M687.94,273.58c1.46,0,2.59,.51,3.41,1.52,.81,1.01,1.22,2.44,1.22,4.28s-.38,3.27-1.14,4.3c-.76,1.03-1.92,1.55-3.48,1.55-1.42,0-2.53-.52-3.33-1.55-.8-1.03-1.2-2.47-1.2-4.3s.37-3.26,1.12-4.28c.75-1.01,1.88-1.52,3.41-1.52Zm.05,2.86c-.4,0-.68,.25-.84,.75-.17,.5-.25,1.24-.25,2.21s.08,1.72,.25,2.24,.45,.78,.84,.78,.68-.26,.85-.78c.16-.52,.25-1.27,.25-2.24s-.08-1.71-.25-2.21c-.17-.5-.45-.75-.85-.75Zm13.57-2.6l-10.3,18.56h-3.38l10.3-18.56h3.38Zm-.1,7.15c1.46,0,2.59,.51,3.41,1.52s1.22,2.44,1.22,4.28-.38,3.27-1.14,4.3-1.92,1.55-3.48,1.55c-1.42,0-2.53-.52-3.33-1.55-.8-1.03-1.2-2.47-1.2-4.3s.37-3.26,1.12-4.28,1.88-1.52,3.41-1.52Zm.05,2.83c-.4,0-.68,.26-.84,.78-.17,.52-.25,1.26-.25,2.21s.08,1.69,.25,2.21c.16,.52,.45,.78,.84,.78,.73,0,1.09-1,1.09-2.99s-.36-2.99-1.09-2.99Z"/></g></g><g id="Labels-CHS"><g><path class="cls-4" d="M203.8,203.23c-.15,2.37-.55,4.98-1.61,6.74-.38-.4-1.35-1.16-1.84-1.42,1.22-2.18,1.29-5.38,1.29-7.85v-6.86h.02c2.26-.27,4.81-.76,6.44-1.35l1.44,1.92c-1.65,.53-3.7,.89-5.66,1.12v1.35h4.88v6.35h-4.96Zm.08-4.33v2.32h2.7v-2.32h-2.7Zm14.46,1.75h-1.73v9.1h-2.24v-9.1h-1.98c-.08,3.02-.72,6.92-3.38,9.29-.36-.44-1.29-1.23-1.77-1.54,2.62-2.36,2.85-5.89,2.85-8.62v-5.91c2.32-.3,4.88-.85,6.54-1.5l1.46,1.96c-1.65,.57-3.72,.99-5.68,1.25v2.89h5.93v2.18Z"/><path class="cls-4" d="M226.73,196.54c-.21,.51-.47,1.01-.76,1.5h8.83v9.38c0,1.12-.21,1.73-.99,2.07-.74,.36-1.82,.38-3.36,.38-.1-.63-.4-1.58-.68-2.18,.97,.06,2.07,.06,2.39,.06,.32-.02,.44-.11,.44-.38v-1.14h-7.14c-.32,1.42-.93,2.81-2.11,3.78-.3-.47-1.16-1.42-1.63-1.73,1.63-1.42,1.77-3.46,1.77-5.22v-1.54c-.72,.76-1.48,1.46-2.36,2.07-.34-.51-1.04-1.33-1.48-1.75,1.92-1.27,3.44-3.19,4.56-5.3h-4.12v-2.13h5.09c.3-.78,.55-1.54,.76-2.3l2.34,.53c-.19,.59-.4,1.18-.61,1.77h9.27v2.13h-10.2Zm5.87,7.81v-1.23h-6.82c0,.4-.02,.8-.04,1.23h6.86Zm0-4.31h-6.82v1.2h6.82v-1.2Z"/><path class="cls-4" d="M249.36,205.18c2.28,.8,5.28,1.96,6.86,2.79l-1.06,1.94c-1.67-.95-5.15-2.41-7.6-3.31l.86-1.42h-.68c-.91,2.34-2.94,3.84-8.02,4.67-.15-.61-.68-1.56-1.12-2.03,3.82-.51,5.6-1.37,6.5-2.64h-5.66v-1.92h6.4c.06-.3,.11-.65,.15-.99h-6.99v-1.96h7.29v-1.01h-5.62v-1.9h5.62v-.97h-6.71v-1.99h3.61c-.29-.57-.68-1.18-1.06-1.67l2.01-.8c.59,.67,1.18,1.58,1.42,2.22l-.55,.25h4.18c.48-.74,1.04-1.73,1.35-2.47l2.43,.63c-.42,.67-.86,1.29-1.27,1.84h3.65v1.99h-6.72v.97h5.81v1.9h-5.81v1.01h7.56v1.96h-7.81c-.04,.34-.09,.67-.15,.99h7.41v1.92h-6.27Z"/><path class="cls-4" d="M274.44,192.87v17h-2.41v-.95h-11.25v.95h-2.3v-17h15.96Zm-2.41,13.96v-11.89h-11.25v11.89h11.25Zm-.67-2.94v1.84h-9.84v-1.84h3.82v-2.24h-3.13v-1.9h3.13v-1.79h-3.61v-1.98h9.33v1.98h-3.63v1.79h3.21v1.9h-1.04c.51,.53,1.12,1.23,1.42,1.69l-.99,.55h1.33Zm-3.93,0h1.9c-.32-.51-.86-1.16-1.29-1.65l1.16-.59h-1.77v2.24Z"/><path class="cls-4" d="M286.6,202.37v1.69c0,2.01-1.14,4.43-8,5.98-.29-.49-.99-1.37-1.56-1.84,6.52-1.18,7.09-2.93,7.09-4.2v-1.63h2.47Zm6-2.96v6.71h-2.47v-4.64h-9.18v4.88h-2.36v-6.95h14Zm-.85-6.52v5.3h-12.35v-5.3h12.35Zm-9.97,3.38h7.45v-1.46h-7.45v1.46Zm5.49,9.42c2.03,.59,5.15,1.67,6.74,2.39l-1.16,1.92c-1.48-.74-4.52-1.94-6.69-2.64l1.1-1.67Z"/><path class="cls-4" d="M313.16,206.29v2.28h-17.27v-2.28h7.24v-9.82h-6.21v-2.36h15.18v2.36h-6.38v9.82h7.45Z"/><path class="cls-4" d="M226.32,279.57c-.08,.61-.11,1.5-.08,1.99-4.69,.91-5.49,1.14-6,1.42-.11-.44-.47-1.52-.74-2.11,.53-.11,.97-.51,1.62-1.2,.29-.28,.85-.95,1.5-1.79-1.71,.21-2.2,.32-2.51,.48-.11-.42-.48-1.52-.72-2.09,.38-.11,.72-.49,1.14-1.12,.42-.61,1.73-2.94,2.41-5.11l2.13,.99c-.74,1.71-1.79,3.5-2.83,4.98l1.79-.13c.42-.63,.82-1.29,1.14-1.94l1.98,1.27c-1.04,1.67-2.32,3.38-3.65,4.83l2.83-.47Zm0,5.66c-2.17,.65-4.48,1.27-6.29,1.77l-.44-2.26c1.65-.28,4.08-.89,6.48-1.46l.25,1.96Zm9.92-5.59c-.95-.68-2.79-1.67-4.43-2.43-1.42,.99-3.04,1.77-4.69,2.36-.29-.59-.87-1.46-1.35-1.94,2.81-.84,5.57-2.47,7.22-4.52h-5.95v-2.05h7.43l.42-.1,1.6,.84c-.7,1.54-1.71,2.87-2.91,4.01,1.48,.65,3.1,1.41,3.99,2.01l-1.33,1.82Zm-3.34,5.72h4.45v2.09h-11.27v-2.09h4.54v-3.5h-3.4v-2.05h9.18v2.05h-3.5v3.5Z"/><path class="cls-4" d="M245.18,284.08c-2.09,.74-4.37,1.46-6.19,2.05l-.51-2.3c.67-.17,1.44-.38,2.32-.63v-4.46h-1.92v-2.07h1.92v-3.34h-2.09v-2.11h6.27v2.11h-2.03v3.34h1.71v2.07h-1.71v3.8c.63-.19,1.25-.38,1.86-.59l.38,2.13Zm11.28,1.16v2.05h-12.21v-2.05h5.24v-1.8h-3.93v-2.03h3.93v-1.63h-3.8v-8.83h9.92v8.83h-3.82v1.63h4.03v2.03h-4.03v1.8h4.67Zm-8.74-10.81h1.96v-1.58h-1.96v1.58Zm0,3.42h1.96v-1.63h-1.96v1.63Zm5.74-5h-1.88v1.58h1.88v-1.58Zm0,3.36h-1.88v1.63h1.88v-1.63Z"/><path class="cls-4" d="M260.21,282.9c-.13,1.67-.44,3.48-.84,4.64-.38-.21-1.22-.48-1.69-.59,.46-1.12,.67-2.81,.78-4.33l1.75,.28Zm-2.51-7.26c.38-.11,.7-.46,1.1-1.03,.38-.51,1.58-2.6,2.26-4.58l2.07,.84c-.68,1.54-1.6,3.15-2.56,4.48l1.33-.1c.49-.8,.99-1.65,1.37-2.51l1.88,1.2c-1.08,1.94-2.49,3.89-3.95,5.53l1.99-.28c-.17-.46-.34-.89-.53-1.27l1.52-.57c.61,1.2,1.2,2.75,1.37,3.78l-1.65,.67c-.04-.27-.09-.59-.19-.93-4.03,.72-4.73,.87-5.15,1.12-.11-.4-.46-1.44-.72-1.99,.51-.13,.93-.55,1.54-1.25,.25-.27,.7-.8,1.24-1.54-1.48,.17-1.92,.28-2.2,.44-.11-.44-.46-1.42-.7-1.99Zm4.48,6.84c.23,1.22,.44,2.77,.49,3.78l-1.63,.42c-.02-1.03-.21-2.62-.4-3.82l1.54-.38Zm12.84-5.81c-.47,2.85-1.33,5.24-2.53,7.14,.82,.89,1.79,1.6,2.91,2.09-.49,.42-1.16,1.27-1.5,1.88-1.06-.55-1.98-1.27-2.75-2.17-.82,.91-1.71,1.65-2.72,2.28-.34-.53-.93-1.29-1.42-1.69,1.03-.57,1.98-1.39,2.79-2.41-.57-.97-1.06-2.09-1.48-3.27-.38,2.89-1.06,5.34-2.34,7.26-.34-.36-1.41-1.12-1.94-1.41,.3-.4,.57-.85,.8-1.33l-1.31,.47c-.15-.8-.53-2.09-.87-3.06l1.5-.49c.32,.85,.67,1.9,.87,2.7,1.27-2.91,1.54-6.95,1.56-11.61h-1.58v-2.13h6.46l.32-.09,1.58,.21c-.19,1.63-.53,3.55-.85,5.21h.7l.36-.08,1.44,.49Zm-6.25-3.61c-.02,1.1-.06,2.17-.09,3.19h1.73c.21-1.01,.4-2.18,.55-3.19h-2.19Zm.82,5.21c.34,1.29,.84,2.53,1.48,3.61,.59-1.08,1.06-2.3,1.41-3.61h-2.89Z"/><path class="cls-4" d="M284.76,282.52c-2.51,1.12-5.32,2.32-7.47,3.21l-.76-2.41c.72-.25,1.58-.55,2.53-.93l-.38-11.09,2.36-.1,.34,10.28c.95-.4,1.92-.8,2.87-1.18l.51,2.22Zm7.87,5.34c-.7-1.23-2.15-2.98-3.55-4.58-1.39,1.98-3.27,3.5-5.78,4.62-.32-.49-1.25-1.52-1.8-1.99,6.02-2.28,7.98-6.88,8.68-14.69l2.49,.23c-.4,3.89-1.08,7.07-2.32,9.65,1.58,1.63,3.34,3.55,4.22,4.88l-1.94,1.88Zm-7.12-9.75c-.47-1.31-1.69-3.31-2.83-4.71l2.05-1.03c1.24,1.39,2.43,3.25,3,4.56l-2.22,1.18Z"/><path class="cls-4" d="M313.12,284.67v2.28h-17.27v-2.28h6.8v-14.31h2.43v5.43h6.71v2.3h-6.71v6.57h8.04Z"/></g><g><path class="cls-2" d="M113.41,416.04l1.12-1.94-2.02-.9,.41-1.26,2.18,.49,.22-2.24h1.34l.2,2.24,2.18-.49,.41,1.26-2.04,.9,1.14,1.94-1.07,.78-1.5-1.7-1.5,1.7-1.07-.78Z"/><path class="cls-2" d="M129.58,409.62h2.01v7.92c0,2.77-.83,6.14-4.95,8.11-.32-.49-.97-1.14-1.45-1.53,1.72-.66,2.79-1.77,3.45-2.94l-3.55,.61-.37-2.02c1.21-.14,2.91-.34,4.67-.58,.14-.6,.19-1.16,.19-1.63v-.02h-4.05v-1.84h4.05v-2.02h-4.23v-1.89h4.23v-2.18Zm10.95,11.9h-4.9v3.91h-2.02v-15.81h2.02v2.18h4.59v1.89h-4.59v2.02h4.21v1.84h-4.21v2.09h4.9v1.89Z"/><path class="cls-2" d="M156.13,413.3c-.7,.44-1.5,.87-2.28,1.24,1.05,.39,2.26,.68,3.64,.83-.39,.39-.85,1.1-1.11,1.6-3.28-.53-5.59-1.84-7.05-4-.63,.41-1.34,.78-2.12,1.11v1.14l3.06-.44c-.02,.46,0,1.14,.03,1.51-3.2,.54-4.15,.75-4.61,.93h10.54v6.22c0,.87-.15,1.34-.71,1.63-.58,.27-1.36,.29-2.41,.29-.05-.44-.25-1.04-.46-1.5v.37h-4.47v.58h-1.61v-3.33c-.24,.05-.49,.12-.77,.19-.1-.34-.49-.92-.82-1.21,1.61-.29,2.12-.75,2.29-1.67h-2.4v6.59h-1.89v-8.18h2.45c-.17-.39-.49-.95-.75-1.21,.32-.19,.71-.61,.75-1.29-.94,.29-1.9,.53-2.84,.73-.2-.37-.7-1.12-1-1.46,1.97-.29,4.08-.77,5.63-1.5h-5.08v-1.51h6.77c-.12-.39-.29-.8-.44-1.11l2.02-.41c.24,.46,.49,1.02,.66,1.51h6.02v1.51h-2.11l1.07,.8Zm-1.82,5.51h-2.33v.2c0,.29,.02,.44,.29,.44h.76c.24,0,.7-.03,.94-.12,.02,.42,.05,.83,.1,1.24-.22,.08-.65,.1-1,.1h-1.26c-1.24,0-1.48-.58-1.48-1.68v-.19h-1.45c-.14,.92-.42,1.6-1.14,2.11h4.9v2.74c.61,.03,1.21,.03,1.39,.02,.2,0,.27-.05,.27-.25v-4.61Zm-3.35,3.3h-2.79v.93h2.79v-.93Zm-.02-9.6c.39,.49,.87,.9,1.45,1.27,.76-.39,1.58-.87,2.21-1.27h-3.66Z"/><path class="cls-2" d="M168.32,421.21c2.04,.71,4.73,1.75,6.14,2.5l-.95,1.73c-1.5-.85-4.61-2.16-6.8-2.96l.76-1.27h-.61c-.82,2.09-2.63,3.43-7.17,4.18-.14-.54-.61-1.39-1-1.82,3.42-.46,5.01-1.22,5.81-2.36h-5.07v-1.72h5.73c.05-.27,.1-.58,.14-.88h-6.25v-1.75h6.53v-.9h-5.03v-1.7h5.03v-.87h-6v-1.79h3.23c-.25-.51-.61-1.05-.95-1.5l1.8-.71c.53,.59,1.05,1.41,1.27,1.99l-.49,.22h3.74c.42-.66,.93-1.55,1.21-2.21l2.18,.56c-.37,.59-.77,1.16-1.14,1.65h3.26v1.79h-6.02v.87h5.2v1.7h-5.2v.9h6.76v1.75h-6.99c-.03,.31-.08,.59-.14,.88h6.63v1.72h-5.61Z"/><path class="cls-2" d="M190.76,410.19v15.21h-2.16v-.85h-10.06v.85h-2.06v-15.21h14.28Zm-2.16,12.49v-10.64h-10.06v10.64h10.06Zm-.59-2.63v1.65h-8.81v-1.65h3.42v-2.01h-2.8v-1.7h2.8v-1.6h-3.23v-1.77h8.35v1.77h-3.25v1.6h2.87v1.7h-.93c.46,.48,1,1.11,1.27,1.51l-.88,.49h1.19Zm-3.52,0h1.7c-.29-.46-.76-1.04-1.16-1.48l1.04-.53h-1.58v2.01Z"/><path class="cls-2" d="M201.64,409.55c-.02,.71-.05,1.63-.12,2.65,.24,2.29,1.28,8.7,7.21,11.32-.63,.49-1.21,1.17-1.48,1.75-3.77-1.8-5.66-5.12-6.65-8.04-.93,2.99-2.72,6.07-6.25,8.14-.36-.54-1-1.19-1.68-1.65,6.9-3.69,6.58-11.3,6.65-14.18h2.33Z"/><path class="cls-2" d="M216.16,418.74l-1.82,1.56c-1.04-1.27-2.48-2.74-3.65-3.74l1.77-1.55c1.21,.99,2.84,2.67,3.71,3.72Z"/><path class="cls-2" d="M233.99,422.64v1.94h-15.76v-1.94h4.64v-10.17h-4.06v-2.01h14.72v2.01h-4.28v7.6c.75-1.56,1.6-3.94,2.04-5.86l1.99,.65c-.65,2.11-1.5,4.39-2.23,5.92l-1.8-.63v2.5h4.74Zm-13.36-8.4c.78,1.89,1.75,4.37,2.18,5.88l-1.96,.83c-.37-1.55-1.26-4.11-2.01-6.05l1.79-.66Zm4.45,8.4h1.96v-10.17h-1.96v10.17Z"/><path class="cls-2" d="M249.63,413.3c-.7,.44-1.5,.87-2.28,1.24,1.05,.39,2.26,.68,3.64,.83-.39,.39-.85,1.1-1.11,1.6-3.28-.53-5.59-1.84-7.05-4-.63,.41-1.34,.78-2.12,1.11v1.14l3.06-.44c-.02,.46,0,1.14,.03,1.51-3.2,.54-4.15,.75-4.61,.93h10.54v6.22c0,.87-.15,1.34-.71,1.63-.58,.27-1.36,.29-2.41,.29-.05-.44-.25-1.04-.46-1.5v.37h-4.47v.58h-1.61v-3.33c-.24,.05-.49,.12-.77,.19-.1-.34-.49-.92-.82-1.21,1.61-.29,2.12-.75,2.29-1.67h-2.4v6.59h-1.89v-8.18h2.45c-.17-.39-.49-.95-.75-1.21,.32-.19,.71-.61,.75-1.29-.94,.29-1.9,.53-2.84,.73-.2-.37-.7-1.12-1-1.46,1.97-.29,4.08-.77,5.63-1.5h-5.08v-1.51h6.77c-.12-.39-.29-.8-.44-1.11l2.02-.41c.24,.46,.49,1.02,.66,1.51h6.02v1.51h-2.11l1.07,.8Zm-1.82,5.51h-2.33v.2c0,.29,.02,.44,.29,.44h.76c.24,0,.7-.03,.94-.12,.02,.42,.05,.83,.1,1.24-.22,.08-.65,.1-1,.1h-1.26c-1.24,0-1.48-.58-1.48-1.68v-.19h-1.45c-.14,.92-.42,1.6-1.14,2.11h4.9v2.74c.61,.03,1.21,.03,1.39,.02,.2,0,.27-.05,.27-.25v-4.61Zm-3.35,3.3h-2.79v.93h2.79v-.93Zm-.02-9.6c.39,.49,.87,.9,1.45,1.27,.76-.39,1.58-.87,2.21-1.27h-3.66Z"/><path class="cls-2" d="M261.82,421.21c2.04,.71,4.73,1.75,6.14,2.5l-.95,1.73c-1.5-.85-4.61-2.16-6.8-2.96l.76-1.27h-.61c-.82,2.09-2.63,3.43-7.17,4.18-.14-.54-.61-1.39-1-1.82,3.42-.46,5.01-1.22,5.81-2.36h-5.07v-1.72h5.73c.05-.27,.1-.58,.14-.88h-6.25v-1.75h6.53v-.9h-5.03v-1.7h5.03v-.87h-6v-1.79h3.23c-.25-.51-.61-1.05-.95-1.5l1.8-.71c.53,.59,1.05,1.41,1.27,1.99l-.49,.22h3.74c.42-.66,.93-1.55,1.21-2.21l2.18,.56c-.37,.59-.77,1.16-1.14,1.65h3.26v1.79h-6.02v.87h5.2v1.7h-5.2v.9h6.76v1.75h-6.99c-.03,.31-.08,.59-.14,.88h6.63v1.72h-5.61Z"/><path class="cls-2" d="M284.26,410.19v15.21h-2.16v-.85h-10.06v.85h-2.06v-15.21h14.28Zm-2.16,12.49v-10.64h-10.06v10.64h10.06Zm-.59-2.63v1.65h-8.81v-1.65h3.42v-2.01h-2.8v-1.7h2.8v-1.6h-3.23v-1.77h8.35v1.77h-3.25v1.6h2.87v1.7h-.93c.46,.48,1,1.11,1.27,1.51l-.88,.49h1.19Zm-3.52,0h1.7c-.29-.46-.76-1.04-1.16-1.48l1.04-.53h-1.58v2.01Z"/><path class="cls-2" d="M295.14,409.55c-.02,.71-.05,1.63-.12,2.65,.24,2.29,1.28,8.7,7.21,11.32-.63,.49-1.21,1.17-1.48,1.75-3.77-1.8-5.66-5.12-6.65-8.04-.93,2.99-2.72,6.07-6.25,8.14-.36-.54-1-1.19-1.68-1.65,6.9-3.69,6.58-11.3,6.65-14.18h2.33Z"/><path class="cls-2" d="M309.66,418.74l-1.82,1.56c-1.04-1.27-2.48-2.74-3.65-3.74l1.77-1.55c1.21,.99,2.84,2.67,3.71,3.72Z"/><path class="cls-2" d="M321.37,415.85c1.12,3.43,3.21,6.29,6.39,7.67-.51,.42-1.21,1.31-1.51,1.89-3.13-1.55-5.08-4.27-6.39-7.79-.39,1.29-.92,2.53-1.72,3.69l.48-.32c1.02,.9,2.38,2.19,2.97,3.06l-1.8,1.31c-.49-.78-1.58-1.96-2.53-2.91-1.04,1.14-2.38,2.16-4.11,2.96-.32-.53-.93-1.27-1.51-1.72,4.18-1.8,5.81-4.76,6.44-7.84h-5.93v-2.09h6.22c.14-1.48,.12-2.92,.14-4.22h2.23c-.02,1.31-.03,2.74-.17,4.22h6.75v2.09h-5.93Z"/><path class="cls-2" d="M344.37,419.8h-6.68v5.61h-2.11v-5.61h-6.61v-2.06h6.61v-5.15h-5.73v-2.01h13.53v2.01h-5.69v5.15h6.68v2.06Zm-11.63-6.66c.56,1.09,1.17,2.52,1.36,3.47l-1.97,.61c-.17-.9-.7-2.4-1.24-3.54l1.85-.54Zm6.31,3.54c.54-.99,1.16-2.48,1.48-3.59l2.16,.54c-.61,1.31-1.31,2.69-1.87,3.55l-1.77-.51Z"/><path class="cls-2" d="M348.9,417.69c-.68-.61-2.16-1.53-3.25-2.12l1.14-1.44c1.05,.53,2.57,1.34,3.32,1.95l-1.21,1.62Zm-2.91,6.08c.8-1.34,1.9-3.52,2.75-5.52l1.6,1.21c-.75,1.84-1.65,3.83-2.53,5.52l-1.82-1.21Zm3.59-10.27c-.65-.65-2.09-1.63-3.16-2.23l1.19-1.41c1.07,.54,2.53,1.43,3.25,2.06l-1.27,1.58Zm11.98,8.33h-4.4v3.57h-2.11v-3.57h-4.4v-1.94h4.4v-1.75h-3.3v-1.89h3.3v-1.73h-3.88v-1.9h2.04c-.27-.75-.76-1.7-1.28-2.43l1.8-.7c.61,.83,1.27,1.97,1.53,2.77l-.88,.36h2.53c.49-.9,1.05-2.16,1.36-3.11l1.99,.58c-.43,.87-.88,1.77-1.33,2.53h2.29v1.9h-4.08v1.73h3.45v1.89h-3.45v1.75h4.4v1.94Z"/><path class="cls-2" d="M378.12,416.81s0,.58-.03,.83c-.24,4.49-.49,6.27-1.02,6.9-.42,.49-.87,.66-1.46,.73-.53,.07-1.38,.05-2.28,.03-.02-.24-.07-.53-.15-.82h-1.22v-.44h-8.24v-4.28h1.82v2.62h2.24v-3.28h1.85v3.28h2.33v-2.65h1.84v3.81c.39,.02,.71,.02,.92,.02,.27,0,.44-.03,.61-.2,.34-.36,.56-1.67,.75-4.76h-11.13v-7.68h3.94c.15-.49,.31-1,.36-1.43l2.41,.19c-.19,.42-.39,.85-.61,1.24h5.07s0,.46-.02,.68c-.15,2.52-.31,3.72-.7,4.17-.32,.36-.65,.49-1.07,.56-.36,.07-.99,.07-1.65,.07-.05-.56-.22-1.29-.49-1.79,.51,.05,.92,.07,1.14,.07,.2,0,.34-.03,.46-.17,.15-.17,.27-.68,.36-1.8h-7.22v4.11h11.22Zm-7.16-.71c-.76-.54-2.33-1.33-3.52-1.79l1-1.26c1.16,.39,2.74,1.1,3.55,1.63l-1.04,1.41Z"/><path class="cls-2" d="M390.24,419.63c.75,2.11,1.85,3.57,2.79,3.57,.42,0,.59-.71,.7-2.4,.46,.41,1.19,.78,1.75,.95-.29,2.82-1.02,3.45-2.55,3.45-2.12,0-3.91-2.35-4.84-5.58h-4.44v3.18l4.04-.85c.02,.58,.12,1.46,.22,1.92-5,1.16-5.83,1.33-6.36,1.61-.14-.51-.6-1.39-.9-1.78,.37-.24,.87-.71,.87-1.46v-11.95h12.38v5.52h-4.44c.05,.66,.15,1.29,.27,1.92h5.37v1.89h-4.86Zm-6.59-7.46v1.79h8.19v-1.79h-8.19Zm3.99,5.58c-.12-.63-.2-1.26-.25-1.92h-3.74v1.92h3.99Z"/><path class="cls-2" d="M403.16,418.74l-1.82,1.56c-1.04-1.27-2.48-2.74-3.65-3.74l1.77-1.55c1.21,.99,2.84,2.67,3.71,3.72Z"/><path class="cls-2" d="M134.49,435.4v1.85h4.25v11.05h-2.06v-.93h-9.72v.97h-1.97v-11.08h4.01v-1.85h-4.86v-1.94h15.2v1.94h-4.84Zm2.19,10.11v-2.11h-1.96c-1.77,0-2.16-.58-2.16-2.5v-1.8h-1.79c-.1,1.79-.75,3.65-3.14,4.76-.12-.22-.41-.58-.68-.88v2.53h9.72Zm-9.72-6.41v3.06c1.55-.83,1.94-1.92,2.02-3.06h-2.02Zm5.61-3.71h-1.77v1.85h1.77v-1.85Zm1.92,3.71v1.8c0,.56,.07,.61,.54,.61h1.34c.15,0,.24-.02,.31-.03v-2.38h-2.19Z"/><path class="cls-2" d="M146.12,445.89c-1.75,.44-3.64,.87-5.13,1.21l-.36-1.87c.56-.08,1.21-.22,1.94-.37v-3.96h-1.46v-1.8h1.46v-3.67h-1.63v-1.84h5.22v1.84h-1.73v3.67h1.33v1.8h-1.33v3.55l1.5-.34,.2,1.78Zm3.98-5.98c0,3.47-.42,6.54-3.65,8.53-.24-.44-.85-1.16-1.24-1.46,2.55-1.55,3.04-3.82,3.11-6.46l-.78,.37c-.37-1.05-1.17-2.74-1.87-3.98l1.48-.58c.39,.68,.8,1.46,1.17,2.18v-5.98h1.78v7.38Zm6.56,6.09v1.87h-7.09v-1.87h3.01v-4.61h-1.9v-1.8h1.9v-4.18h-2.11v-1.84h5.9v1.84h-1.85v4.18h1.65v1.8h-1.65v4.61h2.14Z"/><path class="cls-2" d="M173.27,441.08h-3.42v4.86c0,1.17-.24,1.73-.97,2.07-.7,.34-1.73,.41-3.2,.41-.1-.61-.46-1.56-.75-2.12,.97,.03,2.01,.03,2.33,.02,.32,0,.44-.08,.44-.37v-4.49c-2.14,2.6-5.24,4.86-8.33,6.12-.32-.51-.95-1.34-1.43-1.77,2.75-.95,5.61-2.75,7.53-4.73h-6.04c.43-1.53,.94-3.89,1.29-5.92h-1.46v-1.96h13.21v1.96h-2.63v3.96h3.42v1.95Zm-10.3-5.92c-.27,1.27-.58,2.72-.87,3.96h5.61v-3.96h-4.74Z"/><path class="cls-2" d="M189.25,436.3c-.7,.44-1.5,.87-2.28,1.24,1.05,.39,2.26,.68,3.64,.83-.39,.39-.85,1.1-1.11,1.6-3.28-.53-5.59-1.84-7.05-4-.63,.41-1.34,.78-2.12,1.11v1.14l3.06-.44c-.02,.46,0,1.14,.03,1.51-3.2,.54-4.15,.75-4.61,.93h10.54v6.22c0,.87-.15,1.34-.71,1.63-.58,.27-1.36,.29-2.41,.29-.05-.44-.25-1.04-.46-1.5v.37h-4.47v.58h-1.61v-3.33c-.24,.05-.49,.12-.77,.19-.1-.34-.49-.92-.82-1.21,1.61-.29,2.12-.75,2.29-1.67h-2.4v6.59h-1.89v-8.18h2.45c-.17-.39-.49-.95-.75-1.21,.32-.19,.71-.61,.75-1.29-.94,.29-1.9,.53-2.84,.73-.2-.37-.7-1.12-1-1.46,1.97-.29,4.08-.77,5.63-1.5h-5.08v-1.51h6.77c-.12-.39-.29-.8-.44-1.11l2.02-.41c.24,.46,.49,1.02,.66,1.51h6.02v1.51h-2.11l1.07,.8Zm-1.82,5.51h-2.33v.2c0,.29,.02,.44,.29,.44h.76c.24,0,.7-.03,.94-.12,.02,.42,.05,.83,.1,1.24-.22,.08-.65,.1-1,.1h-1.26c-1.24,0-1.48-.58-1.48-1.68v-.19h-1.45c-.14,.92-.42,1.6-1.14,2.11h4.9v2.74c.61,.03,1.21,.03,1.39,.02,.2,0,.27-.05,.27-.25v-4.61Zm-3.35,3.3h-2.79v.93h2.79v-.93Zm-.02-9.6c.39,.49,.87,.9,1.45,1.27,.76-.39,1.58-.87,2.21-1.27h-3.66Z"/><path class="cls-2" d="M201.44,444.21c2.04,.71,4.73,1.75,6.14,2.5l-.95,1.73c-1.5-.85-4.61-2.16-6.8-2.96l.76-1.27h-.61c-.82,2.09-2.63,3.43-7.17,4.18-.14-.54-.61-1.39-1-1.82,3.42-.46,5.01-1.22,5.81-2.36h-5.07v-1.72h5.73c.05-.27,.1-.58,.14-.88h-6.25v-1.75h6.53v-.9h-5.03v-1.7h5.03v-.87h-6v-1.79h3.23c-.25-.51-.61-1.05-.95-1.5l1.8-.71c.53,.59,1.05,1.41,1.27,1.99l-.49,.22h3.74c.42-.66,.93-1.55,1.21-2.21l2.18,.56c-.37,.59-.77,1.16-1.14,1.65h3.26v1.79h-6.02v.87h5.2v1.7h-5.2v.9h6.76v1.75h-6.99c-.03,.31-.08,.59-.14,.88h6.63v1.72h-5.61Z"/><path class="cls-2" d="M223.88,433.19v15.21h-2.16v-.85h-10.06v.85h-2.06v-15.21h14.28Zm-2.16,12.49v-10.64h-10.06v10.64h10.06Zm-.59-2.63v1.65h-8.81v-1.65h3.42v-2.01h-2.8v-1.7h2.8v-1.6h-3.23v-1.77h8.35v1.77h-3.25v1.6h2.87v1.7h-.93c.46,.48,1,1.11,1.27,1.51l-.88,.49h1.19Zm-3.52,0h1.7c-.29-.46-.76-1.04-1.16-1.48l1.04-.53h-1.58v2.01Z"/><path class="cls-2" d="M234.76,432.55c-.02,.71-.05,1.63-.12,2.65,.24,2.29,1.28,8.7,7.21,11.32-.63,.49-1.21,1.17-1.48,1.75-3.77-1.8-5.66-5.12-6.65-8.04-.93,2.99-2.72,6.07-6.25,8.14-.36-.54-1-1.19-1.68-1.65,6.9-3.69,6.58-11.3,6.65-14.18h2.33Z"/><path class="cls-2" d="M249.27,441.74l-1.82,1.56c-1.04-1.27-2.48-2.74-3.65-3.74l1.77-1.55c1.21,.99,2.84,2.67,3.71,3.72Z"/><path class="cls-2" d="M260.94,444.21c2.04,.71,4.73,1.75,6.14,2.5l-.95,1.73c-1.5-.85-4.61-2.16-6.8-2.96l.76-1.27h-.61c-.82,2.09-2.63,3.43-7.17,4.18-.14-.54-.61-1.39-1-1.82,3.42-.46,5.01-1.22,5.81-2.36h-5.07v-1.72h5.73c.05-.27,.1-.58,.14-.88h-6.25v-1.75h6.53v-.9h-5.03v-1.7h5.03v-.87h-6v-1.79h3.23c-.25-.51-.61-1.05-.95-1.5l1.8-.71c.53,.59,1.05,1.41,1.27,1.99l-.49,.22h3.74c.42-.66,.93-1.55,1.21-2.21l2.18,.56c-.37,.59-.77,1.16-1.14,1.65h3.26v1.79h-6.02v.87h5.2v1.7h-5.2v.9h6.76v1.75h-6.99c-.03,.31-.08,.59-.14,.88h6.63v1.72h-5.61Z"/><path class="cls-2" d="M271.07,440.4c-.61-.49-1.87-1.26-2.79-1.73l1.12-1.48c.9,.42,2.21,1.11,2.87,1.58l-1.21,1.63Zm1.33,2.38c-.56,1.82-1.31,3.77-2.01,5.44l-1.84-1.04c.65-1.33,1.55-3.47,2.21-5.46l1.63,1.05Zm-.68-6.82c-.6-.53-1.87-1.31-2.79-1.82l1.19-1.48c.88,.44,2.18,1.16,2.82,1.67l-1.22,1.63Zm11.86-3.03v15.45h-1.94v-6.71l-.82,.39c-.15-.65-.49-1.51-.87-2.35v8.18h-1.89v-6.27l-1.02,.42c-.14-.73-.42-1.72-.75-2.67-.05,3.13-.37,6.41-2.18,9.03-.41-.39-1.19-.93-1.73-1.17,1.17-1.61,1.67-3.48,1.87-5.42l-1.11,.41c-.1-1.1-.56-2.77-1.04-4.03l1.43-.51c.32,.73,.61,1.56,.83,2.38,.02-.49,.02-.97,.02-1.45v-5.66h1.9v5.13l.88-.34c.32,.75,.63,1.6,.88,2.4v-6.87h1.89v4.47l.58-.25c.37,.7,.76,1.51,1.1,2.28v-6.83h1.94Z"/><path class="cls-2" d="M288.68,438.19c0,2.84-.24,7.11-1.73,9.84-.39-.32-1.27-.82-1.78-1,1.41-2.53,1.53-6.22,1.53-8.84v-4.91h14.18v1.84h-12.19v3.08Zm4.08,5.9c-.82,1.29-1.99,2.79-2.89,3.69-.41-.31-1.21-.83-1.7-1.09,.97-.83,2.02-2.11,2.67-3.21l1.92,.61Zm2.96-1.12v3.45c0,.92-.17,1.41-.82,1.68-.63,.29-1.51,.29-2.72,.29-.07-.54-.32-1.28-.56-1.79,.75,.02,1.58,.02,1.8,.02,.25,0,.32-.05,.32-.25v-3.4h-3.94v-6.63h3.01c.22-.42,.41-.85,.53-1.21l2.43,.29c-.2,.31-.41,.63-.61,.92h4.56v6.63h-4Zm-3.94-4.03h5.85v-1.09h-5.85v1.09Zm0,2.52h5.85v-1.1h-5.85v1.1Zm6.36,2.01c.9,1.02,2.23,2.48,2.89,3.4l-1.73,.99c-.59-.9-1.85-2.43-2.77-3.55l1.62-.83Z"/><path class="cls-2" d="M308.01,433.21c-.44,1.19-1,2.4-1.63,3.54v11.64h-2.04v-8.5c-.36,.42-.71,.85-1.05,1.22-.19-.49-.77-1.65-1.12-2.16,1.55-1.53,3.03-3.94,3.88-6.36l1.97,.61Zm10.23,12.75v1.92h-10.96v-1.92h4.52v-3.42h-3.59v-1.9h3.59v-2.99h-4.15v-1.92h4.57c-.2-.71-.71-1.8-1.21-2.63l1.87-.63c.51,.8,1.1,1.9,1.34,2.63l-1.75,.63h5.52v1.92h-4.15v2.99h3.67v1.9h-3.67v3.42h4.39Z"/><path class="cls-2" d="M329.85,442.63c.75,2.11,1.85,3.57,2.79,3.57,.42,0,.59-.71,.7-2.4,.46,.41,1.19,.78,1.75,.95-.29,2.82-1.02,3.45-2.55,3.45-2.12,0-3.91-2.35-4.84-5.58h-4.44v3.18l4.04-.85c.02,.58,.12,1.46,.22,1.92-5,1.16-5.83,1.33-6.36,1.61-.14-.51-.6-1.39-.9-1.78,.37-.24,.87-.71,.87-1.46v-11.95h12.38v5.52h-4.44c.05,.66,.15,1.29,.27,1.92h5.37v1.89h-4.86Zm-6.59-7.46v1.79h8.19v-1.79h-8.19Zm3.99,5.58c-.12-.63-.2-1.26-.25-1.92h-3.74v1.92h3.99Z"/></g><g><path class="cls-2" d="M628.77,429.5c3.42-3.06,5.44-5.42,5.44-7.36,0-1.28-.7-2.04-1.89-2.04-.92,0-1.68,.59-2.31,1.29l-1.36-1.36c1.16-1.22,2.28-1.9,3.99-1.9,2.38,0,3.96,1.53,3.96,3.88s-1.89,4.73-4.18,6.97c.63-.07,1.46-.14,2.04-.14h2.74v2.11h-8.43v-1.45Z"/><path class="cls-2" d="M638.8,424.6c0-4.35,1.7-6.48,4.27-6.48s4.25,2.14,4.25,6.48-1.7,6.58-4.25,6.58-4.27-2.24-4.27-6.58Zm6.15,0c0-3.52-.82-4.54-1.89-4.54s-1.9,1.02-1.9,4.54,.82,4.62,1.9,4.62,1.89-1.09,1.89-4.62Z"/><path class="cls-2" d="M648.79,429.5c3.42-3.06,5.44-5.42,5.44-7.36,0-1.28-.7-2.04-1.89-2.04-.92,0-1.68,.59-2.31,1.29l-1.36-1.36c1.16-1.22,2.28-1.9,3.99-1.9,2.38,0,3.96,1.53,3.96,3.88s-1.89,4.73-4.18,6.97c.63-.07,1.46-.14,2.04-.14h2.74v2.11h-8.43v-1.45Z"/><path class="cls-2" d="M659.47,428.92h2.7v-7.96h-2.28v-1.55c1.26-.24,2.12-.56,2.92-1.05h1.85v10.56h2.36v2.02h-7.56v-2.02Z"/><path class="cls-2" d="M683.32,419.57c.92,.9,2.72,1.33,5.01,1.45-.41,.39-.88,1.12-1.12,1.61-1.9-.24-3.38-.78-4.45-1.72-.65,.75-2.06,1.41-4.91,1.73-.14-.32-.41-.75-.68-1.11h-4.5v-1.55h5.13v1.04c3.25-.34,3.67-1.1,3.67-1.73v-.25h-1.02c-.36,.56-.76,1.07-1.19,1.46-.32-.31-1.07-.8-1.5-1.04,.9-.75,1.6-1.87,1.99-3.03l1.77,.39c-.08,.25-.19,.51-.29,.75h4.83l.31-.08,1.38,.42c-.44,.93-1.02,2.01-1.56,2.69l-1.56-.58c.19-.27,.41-.63,.59-.99h-1.89v.53Zm.46,10c1.56,.58,3.23,1.26,4.23,1.75l-1.82,1.09c-.97-.56-2.74-1.39-4.42-2.01l1.04-.83h-4.79l1.48,.68c-1.39,.88-3.59,1.73-5.3,2.21-.34-.39-1.05-1.14-1.5-1.48,1.63-.31,3.45-.82,4.64-1.41h-2.45v-6.9h11.37v6.9h-2.48Zm-6.38-10.71h-4.35v-1.48h4.35v1.48Zm-.56,5.75h7.36v-.73h-7.36v.73Zm0,1.87h7.36v-.73h-7.36v.73Zm0,1.9h7.36v-.77h-7.36v.77Z"/><path class="cls-2" d="M694.71,424.76c.34,.46,1.61,2.58,1.87,3.11l-1.39,1.51c-.24-.75-.7-1.9-1.12-2.84v5.88h-1.87v-6.07c-.39,1.7-1.02,3.49-1.9,4.47-.17-.71-.61-1.73-.92-2.41,.71-.85,1.38-2.41,1.65-3.71l1.17,.41v-1.05h-2.57v-1.89h2.57v-5.63h1.87v5.63h2.52v1.89h-2.52v1.16l.65-.46Zm-4.32-2.87c-.03-1.05-.37-2.69-.78-3.93l1.41-.36c.46,1.24,.82,2.84,.88,3.89l-1.51,.39Zm6.49-4.01c-.44,1.36-.94,2.96-1.36,3.94l-1.29-.36c.37-1.07,.77-2.75,.95-3.94l1.7,.36Zm6.59,9.94v4.59h-1.9v-4.25l-4.74,.85-.31-1.89,5.05-.9v-9.69h1.9v9.35l1.73-.32,.31,1.89-2.04,.37Zm-5.81-6.17c.99,.53,2.24,1.36,2.86,1.95l-1.02,1.62c-.56-.61-1.8-1.53-2.79-2.11l.95-1.46Zm2.46-.61c-.53-.66-1.7-1.58-2.63-2.21l.97-1.36c.95,.56,2.16,1.43,2.7,2.06l-1.04,1.51Z"/></g></g></svg>