<svg xmlns="http://www.w3.org/2000/svg" viewBox="0 0 800 480"><defs><style>.a{fill:#0071bc;}.b{fill:#29abe2;}.c{fill:#98d5f4;}.d{fill:#e6e6e6;}</style></defs><path class="a" d="M381,278.59,348.75,112.7A164,164,0,0,1,381,109.6Z"/><path class="b" d="M381,278.59,213.27,258c9.09-74.11,62.19-131,135.48-145.3Z"/><path class="c" d="M381,278.59l8.84-168.76a169,169,0,1,1-177.6,159.92c.19-3.73.57-8.05,1-11.75Z"/><path class="d" d="M381,278.59v-169c3.73,0,5.12,0,8.84.23Z"/><path d="M387.53,83.41h-4.47v-10c0-.23,0-.56,0-1s0-.93,0-1.43,0-1,0-1.36a5.92,5.92,0,0,1-.57.61c-.25.24-.47.44-.68.62l-2.13,1.74-2.21-2.76,6.16-5h3.82Z"/><path d="M396.42,64.58a4.12,4.12,0,0,1,3.41,1.53,6.68,6.68,0,0,1,1.22,4.27,7.15,7.15,0,0,1-1.14,4.31,4.07,4.07,0,0,1-3.49,1.54,4,4,0,0,1-3.33-1.54,6.94,6.94,0,0,1-1.19-4.31A7.06,7.06,0,0,1,393,66.11,3.93,3.93,0,0,1,396.42,64.58Zm.05,2.87c-.39,0-.68.25-.84.75a7.31,7.31,0,0,0-.25,2.21,7.67,7.67,0,0,0,.25,2.24c.16.52.45.78.84.78s.69-.26.85-.78a8,8,0,0,0,.25-2.24,7.65,7.65,0,0,0-.25-2.21C397.16,67.7,396.87,67.45,396.47,67.45Zm13.58-2.6-10.3,18.56h-3.38l10.3-18.56ZM409.94,72a4.12,4.12,0,0,1,3.41,1.52,6.68,6.68,0,0,1,1.22,4.27,7.17,7.17,0,0,1-1.14,4.31,4.07,4.07,0,0,1-3.49,1.54,3.94,3.94,0,0,1-3.32-1.54,6.9,6.9,0,0,1-1.2-4.31,7.06,7.06,0,0,1,1.12-4.27A3.92,3.92,0,0,1,409.94,72Zm.06,2.83c-.4,0-.69.26-.85.78a9.89,9.89,0,0,0,0,4.42c.16.52.45.78.85.78.72,0,1.09-1,1.09-3S410.72,74.83,410,74.83Z"/><path d="M193.83,162.41H180.62v-3l4.6-4.65c.94-1,1.68-1.77,2.24-2.4a7.61,7.61,0,0,0,1.18-1.65,3.43,3.43,0,0,0,.35-1.52,1.73,1.73,0,0,0-.58-1.44,2.37,2.37,0,0,0-1.47-.46,4.15,4.15,0,0,0-1.94.5,11.77,11.77,0,0,0-2.07,1.43l-2.42-2.84a17.73,17.73,0,0,1,1.72-1.36,8,8,0,0,1,2.15-1,9.55,9.55,0,0,1,3-.41,7.33,7.33,0,0,1,3.23.67,5.09,5.09,0,0,1,2.08,1.79,4.74,4.74,0,0,1,.72,2.59,6.7,6.7,0,0,1-.59,2.83A10.06,10.06,0,0,1,191,154c-.78.83-1.74,1.76-2.86,2.8l-1.93,1.77v.16h7.6Z"/><path d="M208.83,153.13a17.84,17.84,0,0,1-.64,5.12,6.39,6.39,0,0,1-2.08,3.28,6.05,6.05,0,0,1-3.86,1.14,5.47,5.47,0,0,1-5-2.52,13.33,13.33,0,0,1-1.57-7,18,18,0,0,1,.64-5.14,6.38,6.38,0,0,1,2.08-3.29,6.05,6.05,0,0,1,3.86-1.14,5.47,5.47,0,0,1,5,2.52A13.19,13.19,0,0,1,208.83,153.13Zm-8.76,0a16.6,16.6,0,0,0,.45,4.48,1.77,1.77,0,0,0,1.73,1.5c.85,0,1.42-.5,1.73-1.5a16.6,16.6,0,0,0,.45-4.48,16.89,16.89,0,0,0-.45-4.49c-.31-1-.88-1.52-1.73-1.52s-1.43.51-1.73,1.52A16.89,16.89,0,0,0,200.07,153.13Z"/><path d="M214.94,143.58a4.1,4.1,0,0,1,3.4,1.53,6.62,6.62,0,0,1,1.22,4.27,7.15,7.15,0,0,1-1.14,4.31,4,4,0,0,1-3.48,1.54,4,4,0,0,1-3.33-1.54,6.88,6.88,0,0,1-1.2-4.31,7.13,7.13,0,0,1,1.12-4.27A4,4,0,0,1,214.94,143.58Zm.05,2.87c-.4,0-.68.25-.85.75a7.71,7.71,0,0,0-.24,2.21,8.09,8.09,0,0,0,.24,2.24c.17.52.45.78.85.78s.68-.26.84-.78a7.67,7.67,0,0,0,.25-2.24,7.31,7.31,0,0,0-.25-2.21Q215.59,146.45,215,146.45Zm13.57-2.6-10.3,18.56h-3.38l10.3-18.56Zm-.1,7.15a4.1,4.1,0,0,1,3.4,1.52,6.62,6.62,0,0,1,1.22,4.27,7.17,7.17,0,0,1-1.14,4.31,4,4,0,0,1-3.48,1.54,4,4,0,0,1-3.33-1.54,6.9,6.9,0,0,1-1.2-4.31,7.13,7.13,0,0,1,1.12-4.27A3.94,3.94,0,0,1,228.46,151Zm0,2.83c-.4,0-.68.26-.85.78a10.3,10.3,0,0,0,0,4.42c.17.52.45.78.85.78.73,0,1.09-1,1.09-3S229.24,153.83,228.51,153.83Z"/><path d="M331.66,80a4.42,4.42,0,0,1-.54,2.24,4.83,4.83,0,0,1-1.47,1.55,6.91,6.91,0,0,1-2,.89v.08a6.1,6.1,0,0,1,3.4,1.37,3.79,3.79,0,0,1,1.2,3,5.19,5.19,0,0,1-.81,2.84,5.48,5.48,0,0,1-2.48,2,10.68,10.68,0,0,1-4.33.75,15.26,15.26,0,0,1-2.95-.26,13.93,13.93,0,0,1-2.48-.75V89.94a11.07,11.07,0,0,0,4.89,1.22,4.37,4.37,0,0,0,2.74-.64,2.16,2.16,0,0,0,.77-1.75,2,2,0,0,0-.37-1.2,2.28,2.28,0,0,0-1.29-.75,9.63,9.63,0,0,0-2.58-.26H322V83.2h1.3a8.17,8.17,0,0,0,2.45-.28,2.32,2.32,0,0,0,1.21-.8,2,2,0,0,0,.35-1.15c0-1.22-.8-1.82-2.39-1.82a5.22,5.22,0,0,0-2.28.47,17.3,17.3,0,0,0-1.55.8l-1.95-3a11.1,11.1,0,0,1,2.6-1.31,10.91,10.91,0,0,1,3.7-.54A7.9,7.9,0,0,1,330,76.73,3.68,3.68,0,0,1,331.66,80Z"/><path d="M338.42,75.58a4.12,4.12,0,0,1,3.41,1.53,6.68,6.68,0,0,1,1.22,4.27,7.15,7.15,0,0,1-1.14,4.31,4.07,4.07,0,0,1-3.49,1.54,4,4,0,0,1-3.33-1.54,6.94,6.94,0,0,1-1.19-4.31A7.06,7.06,0,0,1,335,77.11,3.93,3.93,0,0,1,338.42,75.58Zm.05,2.87c-.39,0-.68.25-.84.75a7.31,7.31,0,0,0-.25,2.21,7.67,7.67,0,0,0,.25,2.24c.16.52.45.78.84.78s.69-.26.85-.78a8,8,0,0,0,.25-2.24,7.65,7.65,0,0,0-.25-2.21C339.16,78.7,338.87,78.45,338.47,78.45Zm13.58-2.6-10.3,18.56h-3.38l10.3-18.56ZM351.94,83a4.12,4.12,0,0,1,3.41,1.52,6.68,6.68,0,0,1,1.22,4.27,7.17,7.17,0,0,1-1.14,4.31,4.07,4.07,0,0,1-3.49,1.54,3.94,3.94,0,0,1-3.32-1.54,6.9,6.9,0,0,1-1.2-4.31,7.06,7.06,0,0,1,1.12-4.27A3.92,3.92,0,0,1,351.94,83Zm.06,2.83c-.4,0-.69.26-.85.78a9.89,9.89,0,0,0,0,4.42c.16.52.45.78.85.78.72,0,1.09-1,1.09-3S352.72,85.83,352,85.83Z"/><path d="M554.49,388.41l6.68-14.87h-8.63v-3.69h13.34v2.7l-6.79,15.86Z"/><path d="M567.65,380.53a21.13,21.13,0,0,1,.23-3.17,12.47,12.47,0,0,1,.82-3,7.87,7.87,0,0,1,1.65-2.47,7.32,7.32,0,0,1,2.73-1.69,11.77,11.77,0,0,1,4.06-.61c.36,0,.8,0,1.31.05a10.16,10.16,0,0,1,1.26.16v3.48c-.35-.07-.72-.12-1.13-.17s-.86-.06-1.37-.06a6.84,6.84,0,0,0-3.27.65,3.75,3.75,0,0,0-1.68,1.84,8.08,8.08,0,0,0-.58,2.79h.15a4.66,4.66,0,0,1,1.43-1.54,4.25,4.25,0,0,1,2.42-.62,4.92,4.92,0,0,1,3.85,1.56,6.36,6.36,0,0,1,1.4,4.39A6.47,6.47,0,0,1,579.2,387a6.33,6.33,0,0,1-4.69,1.72,7,7,0,0,1-3.5-.87,6.05,6.05,0,0,1-2.45-2.68A10.11,10.11,0,0,1,567.65,380.53Zm6.78,4.6a2,2,0,0,0,1.6-.7,3.3,3.3,0,0,0,.61-2.21,3.1,3.1,0,0,0-.52-1.9,1.93,1.93,0,0,0-1.64-.7,2.26,2.26,0,0,0-1.79.73,2.34,2.34,0,0,0-.65,1.59,4.54,4.54,0,0,0,.26,1.49,2.94,2.94,0,0,0,.79,1.22A1.93,1.93,0,0,0,574.43,385.13Z"/><path d="M586.94,369.58a4.1,4.1,0,0,1,3.4,1.53,6.62,6.62,0,0,1,1.22,4.27,7.15,7.15,0,0,1-1.14,4.31,4,4,0,0,1-3.48,1.54,4,4,0,0,1-3.33-1.54,6.88,6.88,0,0,1-1.2-4.31,7.13,7.13,0,0,1,1.12-4.27A4,4,0,0,1,586.94,369.58Zm0,2.87c-.4,0-.68.25-.85.75a7.71,7.71,0,0,0-.24,2.21,8,8,0,0,0,.24,2.23c.17.53.45.79.85.79s.68-.26.84-.79a7.55,7.55,0,0,0,.25-2.23,7.31,7.31,0,0,0-.25-2.21Q587.59,372.45,587,372.45Zm13.57-2.6-10.3,18.56h-3.38l10.3-18.56Zm-.1,7.15a4.1,4.1,0,0,1,3.4,1.52,6.62,6.62,0,0,1,1.22,4.27,7.17,7.17,0,0,1-1.14,4.31,4,4,0,0,1-3.48,1.54,4,4,0,0,1-3.33-1.54,6.9,6.9,0,0,1-1.2-4.31,7.13,7.13,0,0,1,1.12-4.27A3.94,3.94,0,0,1,600.46,377Zm0,2.83c-.4,0-.68.26-.85.78a10.3,10.3,0,0,0,0,4.42c.17.52.45.78.85.78.73,0,1.09-1,1.09-3S601.24,379.83,600.51,379.83Z"/><path d="M384.54,49.42a33.19,33.19,0,0,1-6.28,2.81,9.93,9.93,0,0,0-.93-1.08,25,25,0,0,0,6-2.6Zm9.75-1.22H377.51V46.89H381V38.46h-2.94V37.13H381V34.94h1.39v2.19h7V34.94h1.4v2.19h3v1.33h-3v8.43h3.48Zm-11.91-9.74v1.88h7V38.46Zm0,5.15h7v-2h-7Zm0,3.28h7V44.82h-7Zm5.87,1.75a47.91,47.91,0,0,1,6.1,2.62l-1.26.93a41,41,0,0,0-5.79-2.66Z"/><path d="M401.83,35.4a28,28,0,0,1-2,4.14V52.23h-1.35V41.61a17.57,17.57,0,0,1-1.88,2.28,7.25,7.25,0,0,0-.8-1.37A21.32,21.32,0,0,0,400.52,35Zm9.05,15.41c1.14,0,1.35-.52,1.5-2.74a3.83,3.83,0,0,0,1.29.53c-.25,2.64-.68,3.48-2.75,3.48h-5c-2.24,0-2.91-.53-2.91-2.62V43.23l-1.88.72-.53-1.24,2.41-1V36.83h1.33v4.42l2.79-1.1V34.94h1.3v4.72l3.15-1.22.27-.21,1,.32-.06.27a85.26,85.26,0,0,1-.55,8.61l-1.16-.35c.19-1.78.31-4.69.35-7.16l-3,1.18v6.95h-1.3V41.61l-2.79,1.1v6.75c0,1.1.27,1.35,1.6,1.35Z"/><path d="M204.49,117.29v8.89h-1.44V125.1H197.6v6.15h-1.47V125.1H190.7v1.17h-1.39v-9h6.82v-3.38h1.47v3.38Zm-8.36,6.42v-5H190.7v5Zm6.92,0v-5H197.6v5Z"/><path d="M223.7,114.78v16.49h-1.46v-1H209.53v1h-1.41V114.78ZM222.24,129V116.09H209.53V129Zm-1.1-2.95v1.2H210.78v-1.2h4.37v-3.19h-3.57v-1.21h3.57V119h-4.1v-1.27h9.71V119h-4.28v2.7h3.8v1.21h-3.8v3.19Zm-2.57-2.84a11.66,11.66,0,0,1,1.92,2.07l-1,.57a13.64,13.64,0,0,0-1.84-2.15Z"/><path d="M336.38,54.19v1.25h-7.92a12.58,12.58,0,0,1-.23,1.47h7.85v1.23h-8.19c-.89,2.6-2.92,4.22-7.9,5.07a4.84,4.84,0,0,0-.74-1.27c4.39-.63,6.25-1.84,7.1-3.8H320V56.91h6.78a10.71,10.71,0,0,0,.25-1.47h-7.45V54.19h7.62v-1.6h-5.91V51.36h5.91V49.82h-6.95V48.55h4a10.87,10.87,0,0,0-1.47-2.21l1.22-.49a9.31,9.31,0,0,1,1.67,2.39l-.68.31h5a21.39,21.39,0,0,0,1.64-2.7l1.44.44c-.46.78-1,1.59-1.52,2.26h4.05v1.27h-7v1.54h6.08v1.23h-6.08v1.6Zm-7.77,4.16a47.69,47.69,0,0,1,7.76,3.76l-.67,1.22A45.23,45.23,0,0,0,328,59.39Z"/><path d="M354.7,46.78V63.27h-1.46v-1H340.53v1h-1.41V46.78ZM353.24,61V48.09H340.53V61Zm-1.1-2.95v1.2H341.78v-1.2h4.37V54.87h-3.57V53.66h3.57V51h-4.1V49.69h9.71V51h-4.28v2.7h3.8v1.21h-3.8v3.19Zm-2.57-2.84a11.66,11.66,0,0,1,1.92,2.07l-1,.57a13.64,13.64,0,0,0-1.84-2.15Z"/><path d="M571.89,342.07a30.42,30.42,0,0,1,5,5.51l-1.2.86a12,12,0,0,0-1.16-1.64c-10.84.61-11.95.65-12.69.91a10,10,0,0,0-.45-1.38,3.78,3.78,0,0,0,1.54-1.12,32.08,32.08,0,0,0,4.37-5.36l1.38.63a41.83,41.83,0,0,1-4.86,5.58l9.69-.47a34.87,34.87,0,0,0-2.76-2.8Zm-9,7.24H575v7.9h-1.48v-1h-9.18v1h-1.42Zm1.42,1.35v4.2h9.18v-4.2Z"/><path d="M581.24,349a17.14,17.14,0,0,0-2.07-3l1.1-.62a15.44,15.44,0,0,1,2.15,2.9Zm-1.57,6.95c.62-1.44,1.48-3.91,2.11-6l1.14.79c-.56,1.94-1.32,4.28-2,6Zm1.4-15.75a18,18,0,0,1,2.26,3l-1.17.76a17.7,17.7,0,0,0-2.19-3.07Zm6.08,3.61a11.76,11.76,0,0,1-2.58,3.21,5.48,5.48,0,0,0-1-.74,8.82,8.82,0,0,0,2.4-2.81Zm.63-.95h-3.36v-1.2h5.35a9.68,9.68,0,0,0-.68-1.63l1.27-.34a9.77,9.77,0,0,1,.88,2h5.26v1.2h-4.07v4.54h-1.29v-4.54h-2.07v4.54h-1.29Zm8.09,10a5.37,5.37,0,0,1-.09.59c-.38,2-.76,3-1.31,3.4a1.79,1.79,0,0,1-1.26.4,17.54,17.54,0,0,1-2.45,0,2.81,2.81,0,0,0-.38-1.19c1,.09,2,.11,2.34.11a1,1,0,0,0,.68-.15,3.57,3.57,0,0,0,.88-2H584.7a28.63,28.63,0,0,0,.95-3.53h8.11v-1.39H584.7V348h10.39v3.59h-8.32c-.11.44-.23.9-.34,1.31Zm-1.75-9.42a12.59,12.59,0,0,1,2.45,2.83l-1.06.67A12.84,12.84,0,0,0,593.1,344Z"/></svg>