<?xml version="1.0" encoding="UTF-8"?><svg xmlns="http://www.w3.org/2000/svg" viewBox="0 0 800 480"><defs><style>.cls-1{fill:#0071bc;}.cls-2{fill:#98d5f4;}.cls-3{fill:#4d4d4d;}.cls-4{fill:none;stroke:gray;stroke-miterlimit:10;}</style></defs><g id="_2022"><line class="cls-4" x1="185" y1="421.65" x2="618" y2="421.65"/><g><g><rect class="cls-2" x="228" y="156.01" width="90.85" height="109.95"/><rect class="cls-2" x="354.17" y="131.69" width="90.85" height="108.29"/><rect class="cls-2" x="480.35" y="103" width="90.85" height="104.7"/></g><g><rect class="cls-1" x="228" y="265.95" width="90.85" height="155.61"/><rect class="cls-1" x="354.17" y="239.98" width="90.85" height="181.59"/><rect class="cls-1" x="480.35" y="207.7" width="90.85" height="213.86"/></g></g></g><g id="Numbers"><g><path class="cls-3" d="M259.64,456.41h-11.68v-2.65l4.07-4.12c.83-.86,1.49-1.56,1.98-2.12,.49-.55,.84-1.04,1.05-1.46s.31-.87,.31-1.35c0-.58-.17-1.01-.52-1.28-.34-.27-.78-.4-1.3-.4-.58,0-1.15,.14-1.71,.44-.56,.29-1.17,.71-1.83,1.26l-2.14-2.51c.48-.43,.98-.83,1.52-1.21,.54-.38,1.17-.68,1.9-.92,.73-.24,1.61-.36,2.63-.36,1.1,0,2.05,.2,2.85,.59,.8,.39,1.41,.92,1.84,1.59,.43,.67,.64,1.43,.64,2.29,0,.92-.18,1.76-.53,2.51-.35,.75-.87,1.49-1.56,2.23-.69,.74-1.53,1.56-2.53,2.48l-1.7,1.56v.14h6.72v3.27Z"/><path class="cls-3" d="M272.91,448.2c0,1.76-.19,3.27-.56,4.53-.38,1.26-.99,2.22-1.84,2.9-.85,.68-1.99,1.01-3.42,1.01-2.02,0-3.5-.74-4.43-2.23s-1.39-3.56-1.39-6.21c0-1.76,.19-3.28,.56-4.54,.38-1.27,.99-2.24,1.84-2.91,.85-.67,1.99-1.01,3.42-1.01,2.01,0,3.48,.74,4.42,2.23,.93,1.49,1.4,3.57,1.4,6.23Zm-7.75,0c0,1.76,.13,3.09,.4,3.97,.27,.88,.78,1.32,1.53,1.32s1.26-.44,1.53-1.32c.27-.88,.4-2.21,.4-3.97s-.13-3.07-.4-3.97c-.27-.9-.78-1.35-1.53-1.35s-1.26,.45-1.53,1.35-.4,2.22-.4,3.97Z"/><path class="cls-3" d="M286.22,456.41h-11.68v-2.65l4.07-4.12c.83-.86,1.49-1.56,1.98-2.12,.49-.55,.84-1.04,1.05-1.46s.31-.87,.31-1.35c0-.58-.17-1.01-.52-1.28-.34-.27-.78-.4-1.3-.4-.58,0-1.15,.14-1.71,.44-.56,.29-1.17,.71-1.83,1.26l-2.14-2.51c.48-.43,.98-.83,1.52-1.21,.54-.38,1.17-.68,1.9-.92,.73-.24,1.61-.36,2.63-.36,1.1,0,2.05,.2,2.85,.59,.8,.39,1.41,.92,1.84,1.59,.43,.67,.64,1.43,.64,2.29,0,.92-.18,1.76-.53,2.51-.35,.75-.87,1.49-1.56,2.23-.69,.74-1.53,1.56-2.53,2.48l-1.7,1.56v.14h6.72v3.27Z"/><path class="cls-3" d="M299.49,448.2c0,1.76-.19,3.27-.56,4.53-.38,1.26-.99,2.22-1.84,2.9-.85,.68-1.99,1.01-3.42,1.01-2.02,0-3.5-.74-4.43-2.23s-1.39-3.56-1.39-6.21c0-1.76,.19-3.28,.56-4.54,.38-1.27,.99-2.24,1.84-2.91,.85-.67,1.99-1.01,3.42-1.01,2.01,0,3.48,.74,4.42,2.23,.93,1.49,1.4,3.57,1.4,6.23Zm-7.75,0c0,1.76,.13,3.09,.4,3.97,.27,.88,.78,1.32,1.53,1.32s1.26-.44,1.53-1.32c.27-.88,.4-2.21,.4-3.97s-.13-3.07-.4-3.97c-.27-.9-.78-1.35-1.53-1.35s-1.26,.45-1.53,1.35-.4,2.22-.4,3.97Z"/></g><g><path class="cls-3" d="M385.64,456.41h-11.68v-2.65l4.07-4.12c.83-.86,1.49-1.56,1.98-2.12,.49-.55,.84-1.04,1.05-1.46s.31-.87,.31-1.35c0-.58-.17-1.01-.52-1.28-.34-.27-.78-.4-1.3-.4-.58,0-1.15,.14-1.71,.44-.56,.29-1.17,.71-1.83,1.26l-2.14-2.51c.48-.43,.98-.83,1.52-1.21,.54-.38,1.17-.68,1.9-.92,.73-.24,1.61-.36,2.63-.36,1.1,0,2.05,.2,2.85,.59,.8,.39,1.41,.92,1.84,1.59,.43,.67,.64,1.43,.64,2.29,0,.92-.18,1.76-.53,2.51-.35,.75-.87,1.49-1.56,2.23-.69,.74-1.53,1.56-2.53,2.48l-1.7,1.56v.14h6.72v3.27Z"/><path class="cls-3" d="M398.91,448.2c0,1.76-.19,3.27-.56,4.53-.38,1.26-.99,2.22-1.84,2.9-.85,.68-1.99,1.01-3.42,1.01-2.02,0-3.5-.74-4.43-2.23s-1.39-3.56-1.39-6.21c0-1.76,.19-3.28,.56-4.54,.38-1.27,.99-2.24,1.84-2.91,.85-.67,1.99-1.01,3.42-1.01,2.01,0,3.48,.74,4.42,2.23,.93,1.49,1.4,3.57,1.4,6.23Zm-7.75,0c0,1.76,.13,3.09,.4,3.97,.27,.88,.78,1.32,1.53,1.32s1.26-.44,1.53-1.32c.27-.88,.4-2.21,.4-3.97s-.13-3.07-.4-3.97c-.27-.9-.78-1.35-1.53-1.35s-1.26,.45-1.53,1.35-.4,2.22-.4,3.97Z"/><path class="cls-3" d="M412.22,456.41h-11.68v-2.65l4.07-4.12c.83-.86,1.49-1.56,1.98-2.12,.49-.55,.84-1.04,1.05-1.46s.31-.87,.31-1.35c0-.58-.17-1.01-.52-1.28-.34-.27-.78-.4-1.3-.4-.58,0-1.15,.14-1.71,.44-.56,.29-1.17,.71-1.83,1.26l-2.14-2.51c.48-.43,.98-.83,1.52-1.21,.54-.38,1.17-.68,1.9-.92,.73-.24,1.61-.36,2.63-.36,1.1,0,2.05,.2,2.85,.59,.8,.39,1.41,.92,1.84,1.59,.43,.67,.64,1.43,.64,2.29,0,.92-.18,1.76-.53,2.51-.35,.75-.87,1.49-1.56,2.23-.69,.74-1.53,1.56-2.53,2.48l-1.7,1.56v.14h6.72v3.27Z"/><path class="cls-3" d="M423.03,456.41h-3.96v-8.85c0-.2,0-.5,.01-.9,0-.4,.01-.82,.02-1.26,0-.45,.02-.84,.03-1.2-.12,.15-.29,.33-.51,.54-.21,.21-.41,.39-.6,.54l-1.89,1.54-1.96-2.44,5.45-4.39h3.38v16.42Z"/></g><g><path class="cls-3" d="M514.64,456.41h-11.68v-2.65l4.07-4.12c.83-.86,1.49-1.56,1.98-2.12,.49-.55,.84-1.04,1.05-1.46s.31-.87,.31-1.35c0-.58-.17-1.01-.52-1.28-.34-.27-.78-.4-1.3-.4-.58,0-1.15,.14-1.71,.44-.56,.29-1.17,.71-1.83,1.26l-2.14-2.51c.48-.43,.98-.83,1.52-1.21,.54-.38,1.17-.68,1.9-.92,.73-.24,1.61-.36,2.63-.36,1.1,0,2.05,.2,2.85,.59,.8,.39,1.41,.92,1.84,1.59,.43,.67,.64,1.43,.64,2.29,0,.92-.18,1.76-.53,2.51-.35,.75-.87,1.49-1.56,2.23-.69,.74-1.53,1.56-2.53,2.48l-1.7,1.56v.14h6.72v3.27Z"/><path class="cls-3" d="M527.91,448.2c0,1.76-.19,3.27-.56,4.53-.38,1.26-.99,2.22-1.84,2.9-.85,.68-1.99,1.01-3.42,1.01-2.02,0-3.5-.74-4.43-2.23s-1.39-3.56-1.39-6.21c0-1.76,.19-3.28,.56-4.54,.38-1.27,.99-2.24,1.84-2.91,.85-.67,1.99-1.01,3.42-1.01,2.01,0,3.48,.74,4.42,2.23,.93,1.49,1.4,3.57,1.4,6.23Zm-7.75,0c0,1.76,.13,3.09,.4,3.97,.27,.88,.78,1.32,1.53,1.32s1.26-.44,1.53-1.32c.27-.88,.4-2.21,.4-3.97s-.13-3.07-.4-3.97c-.27-.9-.78-1.35-1.53-1.35s-1.26,.45-1.53,1.35-.4,2.22-.4,3.97Z"/><path class="cls-3" d="M541.22,456.41h-11.68v-2.65l4.07-4.12c.83-.86,1.49-1.56,1.98-2.12,.49-.55,.84-1.04,1.05-1.46s.31-.87,.31-1.35c0-.58-.17-1.01-.52-1.28-.34-.27-.78-.4-1.3-.4-.58,0-1.15,.14-1.71,.44-.56,.29-1.17,.71-1.83,1.26l-2.14-2.51c.48-.43,.98-.83,1.52-1.21,.54-.38,1.17-.68,1.9-.92,.73-.24,1.61-.36,2.63-.36,1.1,0,2.05,.2,2.85,.59,.8,.39,1.41,.92,1.84,1.59,.43,.67,.64,1.43,.64,2.29,0,.92-.18,1.76-.53,2.51-.35,.75-.87,1.49-1.56,2.23-.69,.74-1.53,1.56-2.53,2.48l-1.7,1.56v.14h6.72v3.27Z"/><path class="cls-3" d="M554.52,456.41h-11.68v-2.65l4.07-4.12c.83-.86,1.49-1.56,1.98-2.12,.49-.55,.84-1.04,1.05-1.46s.31-.87,.31-1.35c0-.58-.17-1.01-.52-1.28-.34-.27-.78-.4-1.3-.4-.58,0-1.15,.14-1.71,.44-.56,.29-1.17,.71-1.83,1.26l-2.14-2.51c.48-.43,.98-.83,1.52-1.21,.54-.38,1.17-.68,1.9-.92,.73-.24,1.61-.36,2.63-.36,1.1,0,2.05,.2,2.85,.59,.8,.39,1.41,.92,1.84,1.59,.43,.67,.64,1.43,.64,2.29,0,.92-.18,1.76-.53,2.51-.35,.75-.87,1.49-1.56,2.23-.69,.74-1.53,1.56-2.53,2.48l-1.7,1.56v.14h6.72v3.27Z"/></g><g><path d="M379.27,102.95c0,.87-.18,1.61-.55,2.24-.36,.62-.85,1.14-1.47,1.55s-1.3,.71-2.04,.9v.08c1.47,.19,2.61,.65,3.41,1.37,.8,.72,1.2,1.71,1.2,2.98,0,1.04-.27,1.99-.81,2.83-.54,.85-1.36,1.53-2.48,2.03s-2.56,.75-4.33,.75c-1.11,0-2.09-.09-2.95-.26s-1.69-.42-2.48-.75v-3.72c.8,.42,1.63,.72,2.5,.92,.87,.2,1.66,.3,2.39,.3,1.32,0,2.23-.21,2.74-.64,.51-.42,.77-1.01,.77-1.75,0-.47-.12-.87-.36-1.2-.24-.33-.67-.58-1.29-.75s-1.48-.26-2.59-.26h-1.27v-3.35h1.3c1.06,0,1.87-.1,2.44-.29,.57-.19,.97-.45,1.21-.79,.23-.34,.35-.72,.35-1.16,0-1.21-.8-1.82-2.39-1.82-.85,0-1.61,.16-2.28,.47s-1.18,.58-1.55,.81l-1.95-2.99c.75-.52,1.61-.96,2.6-1.31,.99-.35,2.22-.53,3.69-.53,1.91,0,3.42,.38,4.52,1.14,1.11,.76,1.66,1.84,1.66,3.22Z"/><path d="M386.81,114.03l.18,.29c-.16,.62-.36,1.33-.6,2.11-.24,.78-.51,1.56-.79,2.34-.29,.78-.57,1.49-.84,2.13h-3.12c.24-1.11,.48-2.29,.71-3.54,.23-1.25,.41-2.36,.53-3.33h3.93Z"/><path d="M402,102.95c0,.87-.18,1.61-.55,2.24-.36,.62-.85,1.14-1.47,1.55s-1.3,.71-2.04,.9v.08c1.47,.19,2.61,.65,3.41,1.37,.8,.72,1.2,1.71,1.2,2.98,0,1.04-.27,1.99-.81,2.83-.54,.85-1.36,1.53-2.48,2.03s-2.56,.75-4.33,.75c-1.11,0-2.09-.09-2.95-.26s-1.69-.42-2.48-.75v-3.72c.8,.42,1.63,.72,2.5,.92,.87,.2,1.66,.3,2.39,.3,1.32,0,2.23-.21,2.74-.64,.51-.42,.77-1.01,.77-1.75,0-.47-.12-.87-.36-1.2-.24-.33-.67-.58-1.29-.75s-1.48-.26-2.59-.26h-1.27v-3.35h1.3c1.06,0,1.87-.1,2.44-.29,.57-.19,.97-.45,1.21-.79,.23-.34,.35-.72,.35-1.16,0-1.21-.8-1.82-2.39-1.82-.85,0-1.61,.16-2.28,.47s-1.18,.58-1.55,.81l-1.95-2.99c.75-.52,1.61-.96,2.6-1.31,.99-.35,2.22-.53,3.69-.53,1.91,0,3.42,.38,4.52,1.14,1.11,.76,1.66,1.84,1.66,3.22Z"/><path d="M414.89,117.41h-4.47v-10.01c0-.23,0-.56,.01-1.01,0-.45,.02-.93,.03-1.43,0-.5,.02-.95,.04-1.35-.14,.17-.33,.38-.57,.61-.24,.23-.47,.44-.68,.61l-2.13,1.74-2.21-2.76,6.16-4.96h3.82v18.56Z"/><path d="M433.22,113.69h-2.13v3.72h-4.34v-3.72h-7.7v-3.17l7.96-11.67h4.08v11.46h2.13v3.38Zm-6.47-3.38v-2.68c0-.35,0-.77,.03-1.27,.02-.5,.03-.96,.05-1.38s.04-.68,.05-.78h-.13c-.16,.36-.31,.69-.47,.97-.16,.29-.35,.6-.57,.95l-2.78,4.19h3.82Z"/></g><g><path d="M505.27,74.95c0,.87-.18,1.61-.55,2.24-.36,.62-.85,1.14-1.47,1.55s-1.3,.71-2.04,.9v.08c1.47,.19,2.61,.65,3.41,1.37,.8,.72,1.2,1.71,1.2,2.98,0,1.04-.27,1.99-.81,2.83-.54,.85-1.36,1.53-2.48,2.03s-2.56,.75-4.33,.75c-1.11,0-2.09-.09-2.95-.26s-1.69-.42-2.48-.75v-3.72c.8,.42,1.63,.72,2.5,.92,.87,.2,1.66,.3,2.39,.3,1.32,0,2.23-.21,2.74-.64,.51-.42,.77-1.01,.77-1.75,0-.47-.12-.87-.36-1.2-.24-.33-.67-.58-1.29-.75s-1.48-.26-2.59-.26h-1.27v-3.35h1.3c1.06,0,1.87-.1,2.44-.29,.57-.19,.97-.45,1.21-.79,.23-.34,.35-.72,.35-1.16,0-1.21-.8-1.82-2.39-1.82-.85,0-1.61,.16-2.28,.47s-1.18,.58-1.55,.81l-1.95-2.99c.75-.52,1.61-.96,2.6-1.31,.99-.35,2.22-.53,3.69-.53,1.91,0,3.42,.38,4.52,1.14,1.11,.76,1.66,1.84,1.66,3.22Z"/><path d="M512.81,86.03l.18,.29c-.16,.62-.36,1.33-.6,2.11-.24,.78-.51,1.56-.79,2.34-.29,.78-.57,1.49-.84,2.13h-3.12c.24-1.11,.48-2.29,.71-3.54,.23-1.25,.41-2.36,.53-3.33h3.93Z"/><path d="M515.46,81.53c0-1.06,.08-2.12,.23-3.17,.16-1.06,.43-2.05,.82-2.98,.39-.93,.94-1.75,1.65-2.47,.71-.72,1.62-1.28,2.73-1.69,1.11-.41,2.46-.61,4.06-.61,.36,0,.8,.02,1.31,.05,.51,.04,.93,.09,1.26,.16v3.48c-.35-.07-.72-.12-1.13-.17s-.86-.07-1.37-.07c-1.4,0-2.5,.22-3.28,.65-.78,.43-1.34,1.05-1.68,1.85-.34,.8-.53,1.73-.58,2.78h.16c.35-.61,.82-1.12,1.43-1.54,.61-.42,1.41-.62,2.42-.62,1.63,0,2.91,.52,3.85,1.56s1.4,2.5,1.4,4.39c0,2.06-.58,3.67-1.73,4.81s-2.72,1.72-4.69,1.72c-1.3,0-2.47-.29-3.5-.87-1.03-.58-1.85-1.47-2.46-2.68-.61-1.2-.91-2.73-.91-4.59Zm6.79,4.6c.66,0,1.19-.23,1.6-.7,.41-.47,.61-1.21,.61-2.21,0-.8-.17-1.43-.52-1.9s-.89-.7-1.64-.7-1.36,.24-1.79,.73c-.43,.48-.65,1.01-.65,1.59,0,.5,.09,1,.26,1.49,.17,.49,.44,.9,.79,1.22,.35,.32,.8,.48,1.34,.48Z"/><path d="M544.19,85.69h-2.13v3.72h-4.34v-3.72h-7.7v-3.17l7.96-11.67h4.08v11.46h2.13v3.38Zm-6.47-3.38v-2.68c0-.35,0-.77,.03-1.27,.02-.5,.03-.96,.05-1.38s.04-.68,.05-.78h-.13c-.16,.36-.31,.69-.47,.97-.16,.29-.35,.6-.57,.95l-2.78,4.19h3.82Z"/><path d="M558.73,89.41h-13.21v-2.99l4.6-4.65c.94-.97,1.68-1.77,2.24-2.39s.95-1.17,1.18-1.65c.23-.48,.35-.98,.35-1.52,0-.66-.2-1.14-.58-1.44-.39-.3-.88-.46-1.47-.46-.66,0-1.3,.17-1.94,.49-.63,.33-1.32,.81-2.07,1.43l-2.42-2.83c.54-.48,1.11-.94,1.72-1.36,.61-.42,1.32-.77,2.14-1.04,.82-.27,1.82-.4,2.98-.4,1.25,0,2.32,.22,3.22,.66s1.59,1.04,2.08,1.79c.48,.75,.73,1.62,.73,2.59,0,1.04-.2,1.99-.6,2.83-.4,.85-.99,1.69-1.77,2.52-.78,.83-1.73,1.77-2.86,2.81l-1.92,1.77v.16h7.59v3.69Z"/></g><g><path d="M253.27,126.95c0,.87-.18,1.61-.55,2.24-.36,.62-.85,1.14-1.47,1.55s-1.3,.71-2.04,.9v.08c1.47,.19,2.61,.65,3.41,1.37,.8,.72,1.2,1.71,1.2,2.98,0,1.04-.27,1.99-.81,2.83-.54,.85-1.36,1.53-2.48,2.03s-2.56,.75-4.33,.75c-1.11,0-2.09-.09-2.95-.26s-1.69-.42-2.48-.75v-3.72c.8,.42,1.63,.72,2.5,.92,.87,.2,1.66,.3,2.39,.3,1.32,0,2.23-.21,2.74-.64,.51-.42,.77-1.01,.77-1.75,0-.47-.12-.87-.36-1.2-.24-.33-.67-.58-1.29-.75s-1.48-.26-2.59-.26h-1.27v-3.35h1.3c1.06,0,1.87-.1,2.44-.29,.57-.19,.97-.45,1.21-.79,.23-.34,.35-.72,.35-1.16,0-1.21-.8-1.82-2.39-1.82-.85,0-1.61,.16-2.28,.47s-1.18,.58-1.55,.81l-1.95-2.99c.75-.52,1.61-.96,2.6-1.31,.99-.35,2.22-.53,3.69-.53,1.91,0,3.42,.38,4.52,1.14,1.11,.76,1.66,1.84,1.66,3.22Z"/><path d="M260.81,138.03l.18,.29c-.16,.62-.36,1.33-.6,2.11-.24,.78-.51,1.56-.79,2.34-.29,.78-.57,1.49-.84,2.13h-3.12c.24-1.11,.48-2.29,.71-3.54,.23-1.25,.41-2.36,.53-3.33h3.93Z"/><path d="M276.65,132.13c0,1.99-.21,3.7-.64,5.12s-1.12,2.51-2.08,3.28-2.25,1.14-3.86,1.14c-2.29,0-3.96-.84-5-2.52-1.05-1.68-1.57-4.02-1.57-7.02,0-1.99,.21-3.71,.64-5.13,.42-1.43,1.12-2.53,2.08-3.29,.96-.76,2.25-1.14,3.86-1.14,2.27,0,3.93,.84,4.99,2.52,1.06,1.68,1.59,4.03,1.59,7.05Zm-8.76,0c0,1.99,.15,3.49,.46,4.49,.3,1,.88,1.5,1.73,1.5s1.43-.5,1.73-1.5c.3-1,.46-2.49,.46-4.49s-.15-3.47-.46-4.48c-.3-1.01-.88-1.52-1.73-1.52s-1.43,.51-1.73,1.52c-.3,1.01-.46,2.51-.46,4.48Z"/><path d="M291.02,126.95c0,.87-.18,1.61-.55,2.24-.36,.62-.85,1.14-1.47,1.55s-1.3,.71-2.04,.9v.08c1.47,.19,2.61,.65,3.41,1.37,.8,.72,1.2,1.71,1.2,2.98,0,1.04-.27,1.99-.81,2.83-.54,.85-1.36,1.53-2.48,2.03s-2.56,.75-4.33,.75c-1.11,0-2.09-.09-2.95-.26s-1.69-.42-2.48-.75v-3.72c.8,.42,1.63,.72,2.5,.92,.87,.2,1.66,.3,2.39,.3,1.32,0,2.23-.21,2.74-.64,.51-.42,.77-1.01,.77-1.75,0-.47-.12-.87-.36-1.2-.24-.33-.67-.58-1.29-.75s-1.48-.26-2.59-.26h-1.27v-3.35h1.3c1.06,0,1.87-.1,2.44-.29,.57-.19,.97-.45,1.21-.79,.23-.34,.35-.72,.35-1.16,0-1.21-.8-1.82-2.39-1.82-.85,0-1.61,.16-2.28,.47s-1.18,.58-1.55,.81l-1.95-2.99c.75-.52,1.61-.96,2.6-1.31,.99-.35,2.22-.53,3.69-.53,1.91,0,3.42,.38,4.52,1.14,1.11,.76,1.66,1.84,1.66,3.22Z"/><path d="M293.52,133.53c0-1.06,.08-2.12,.23-3.17,.16-1.06,.43-2.05,.82-2.98,.39-.93,.94-1.75,1.65-2.47,.71-.72,1.62-1.28,2.73-1.69,1.11-.41,2.46-.61,4.06-.61,.36,0,.8,.02,1.31,.05,.51,.04,.93,.09,1.26,.16v3.48c-.35-.07-.72-.12-1.13-.17s-.86-.07-1.37-.07c-1.4,0-2.5,.22-3.28,.65-.78,.43-1.34,1.05-1.68,1.85-.34,.8-.53,1.73-.58,2.78h.16c.35-.61,.82-1.12,1.43-1.54,.61-.42,1.41-.62,2.42-.62,1.63,0,2.91,.52,3.85,1.56s1.4,2.5,1.4,4.39c0,2.06-.58,3.67-1.73,4.81s-2.72,1.72-4.69,1.72c-1.3,0-2.47-.29-3.5-.87-1.03-.58-1.85-1.47-2.46-2.68-.61-1.2-.91-2.73-.91-4.59Zm6.79,4.6c.66,0,1.19-.23,1.6-.7,.41-.47,.61-1.21,.61-2.21,0-.8-.17-1.43-.52-1.9s-.89-.7-1.64-.7-1.36,.24-1.79,.73c-.43,.48-.65,1.01-.65,1.59,0,.5,.09,1,.26,1.49,.17,.49,.44,.9,.79,1.22,.35,.32,.8,.48,1.34,.48Z"/></g><rect class="cls-2" x="64" y="34" width="14" height="14"/><rect class="cls-1" x="64" y="71" width="14" height="14"/></g><g id="Labels-CHS"><g><path d="M93,45.98c.36,.23,.76,.59,1.39,.97,1.23,.78,2.81,.91,4.96,.91s5.05-.15,6.88-.36c-.15,.38-.38,1.06-.42,1.46-1.33,.09-4.69,.21-6.52,.21-2.34,0-3.91-.23-5.22-1.04-.76-.51-1.39-1.14-1.79-1.14-.65,0-1.58,1.12-2.54,2.41l-.93-1.27c1.01-1.06,1.98-1.92,2.81-2.24v-5.39h-2.6v-1.33h3.99v6.82Zm-.51-9.31c-.59-.88-1.84-2.24-2.89-3.19l1.01-.76c1.04,.91,2.34,2.22,2.94,3.06l-1.06,.89Zm5.83,5.19c-.28,1.8-1.01,3.63-2.68,4.9-.19-.27-.72-.8-1.03-1.01,1.42-1.06,2.05-2.47,2.32-3.89h-2.6v-1.37h2.75c.04-.4,.04-.78,.04-1.18v-2.2h-2.68v-1.37h2.68v-3.02h1.39v3.02h3.13v-3.02h1.39v3.02h2.43v1.37h-2.43v3.38h2.81v1.37h-2.81v4.81h-1.39v-4.81h-3.33Zm.19-2.53c0,.38,0,.76-.04,1.16h3.17v-3.38h-3.13v2.22Z"/><path d="M114.16,36.86c-.59,.97-1.31,1.94-2.09,2.87v9.99h-1.41v-8.44c-.72,.74-1.44,1.43-2.15,1.98-.21-.29-.7-.89-.99-1.18,1.96-1.39,4.01-3.57,5.32-5.72l1.31,.49Zm-.74-4.01c-1.24,1.67-3.17,3.51-4.86,4.71-.21-.3-.59-.86-.84-1.12,1.58-1.06,3.4-2.77,4.35-4.12l1.35,.53Zm11.64,7.16h-2.87v7.85c0,.87-.21,1.31-.84,1.54-.65,.21-1.71,.21-3.57,.21-.06-.38-.25-.97-.46-1.37,1.35,.04,2.6,.04,2.96,.02,.36-.02,.47-.1,.47-.42v-7.83h-6.34v-1.35h10.64v1.35Zm-.55-5.21h-9.27v-1.33h9.27v1.33Z"/><path d="M143.06,35.71v8.89h-1.44v-1.08h-5.45v6.16h-1.46v-6.16h-5.43v1.18h-1.39v-8.98h6.82v-3.38h1.46v3.38h6.9Zm-8.36,6.42v-5.03h-5.43v5.03h5.43Zm6.92,0v-5.03h-5.45v5.03h5.45Z"/><path d="M101.93,83.75c2.07,0,2.37-.63,2.64-3.68,.38,.27,1.01,.49,1.42,.57-.36,3.48-.99,4.5-4.08,4.5h-7.1c-3.04,0-3.99-.53-3.99-2.87v-9.5h1.42v3.12h9.92v-4.98h-12.35v-1.39h13.79v8.7h-1.44v-.95h-9.92v5.02c0,1.2,.42,1.46,2.47,1.46h7.22Z"/><path d="M114.33,73.7c-.51,.59-1.18,1.16-1.88,1.69,.95,1.56,1.12,3.19,1.12,4.86,0,2.17-.21,3.82-.97,4.69-.25,.29-.59,.47-1.01,.53-.63,.13-1.31,.13-2.09,.09-.02-.4-.19-.89-.44-1.25,.85,.06,1.58,.06,1.98,0,.29-.02,.46-.11,.61-.3,.44-.55,.61-1.92,.61-3.82,0-.25,0-.51-.02-.8-1.03,1.14-2.39,2.24-3.61,2.91-.17-.34-.53-.8-.85-1.08,1.54-.63,3.34-2.05,4.27-3.34-.13-.61-.36-1.18-.67-1.75-.87,.59-1.8,1.08-2.72,1.52-.19-.29-.57-.68-.85-.93,1.01-.44,2-.97,2.89-1.56-.46-.59-1.1-1.14-1.88-1.67l.91-.72c.82,.53,1.48,1.08,1.98,1.67,.57-.47,1.08-.93,1.46-1.39l1.16,.65Zm-1.65-2.56h-4.45v-1.29h4.45v-1.5h1.41v1.5h4.9v-1.5h1.39v1.5h4.43v1.29h-4.43v1.44h-1.37v-1.44h-4.92v1.54h-1.41v-1.54Zm7.31,6.57c.84,3.17,2.43,5.66,5.03,6.8-.3,.27-.72,.78-.93,1.16-2.24-1.18-3.78-3.27-4.75-5.98-.59,2.13-1.92,4.27-4.75,6.04-.25-.3-.68-.68-1.03-.91,3.44-2.11,4.48-4.77,4.81-7.11h-4.29v-1.33h4.41c.02-.23,.02-.44,.02-.67v-2.75h1.33v3.42h4.98v1.33h-4.83Zm1.37-4.67c.99,.65,2.13,1.6,2.64,2.3l-.99,.78c-.51-.7-1.61-1.69-2.6-2.36l.95-.72Z"/><path d="M132.37,73.03c-.44,.78-.99,1.58-1.56,2.34v10.3h-1.39v-8.7c-.72,.78-1.48,1.48-2.22,2.05-.11-.29-.49-1.01-.74-1.35,1.71-1.25,3.55-3.17,4.67-5.13l1.23,.49Zm-.23-4.12c-1.12,1.62-2.96,3.38-4.64,4.5-.15-.32-.49-.85-.74-1.14,1.5-.97,3.19-2.55,4.03-3.88l1.35,.51Zm11.89,11.57h-2.83v3.65c0,.76-.17,1.12-.72,1.35-.57,.21-1.46,.23-2.89,.23-.06-.4-.27-.91-.46-1.29,1.06,.04,2.01,.04,2.28,.02,.3-.02,.38-.09,.38-.34v-3.61h-7.62v-1.21h7.62v-1.62h-7.18v-1.22h11.08v1.22h-2.49v1.62h2.83v1.21Zm-1.23-5.32h-9.02v-6.23h9.02v6.23Zm-7.98,5.64c.87,.78,1.92,1.9,2.41,2.64l-1.08,.76c-.46-.76-1.48-1.92-2.34-2.75l1.01-.65Zm6.57-10.81h-6.25v1.52h6.25v-1.52Zm0,2.55h-6.25v1.54h6.25v-1.54Z"/></g></g></svg>