<?xml version="1.0" encoding="UTF-8"?><svg xmlns="http://www.w3.org/2000/svg" viewBox="0 0 800 260"><defs><style>.cls-1{fill:#0071bc;}.cls-2{fill:#999;}.cls-3{fill:#98d5f4;}.cls-4{fill:#333;}.cls-5{fill:none;stroke:gray;stroke-miterlimit:10;}</style></defs><g id="_021"><line class="cls-5" x1="324.5" y1="225" x2="324.5" y2="19"/><g><rect class="cls-3" x="324.01" y="125.41" width="202.66" height="65.59"/><rect class="cls-1" x="324.01" y="52.54" width="303.99" height="65.59"/></g></g><g id="Numbers"><g><path d="M664.02,98.41h-4.47v-10.01c0-.23,0-.56,.01-1.01,0-.45,.02-.93,.03-1.43,0-.5,.02-.95,.04-1.35-.14,.17-.33,.38-.57,.61-.24,.23-.47,.44-.68,.61l-2.13,1.74-2.21-2.76,6.16-4.96h3.82v18.56Z"/><path d="M675.28,79.61c1.14,0,2.17,.16,3.08,.49,.91,.33,1.63,.83,2.17,1.49,.54,.67,.81,1.5,.81,2.48,0,1.13-.31,2.05-.92,2.77-.62,.72-1.4,1.3-2.35,1.76,.62,.35,1.23,.75,1.81,1.2,.58,.45,1.06,.98,1.44,1.6,.38,.62,.57,1.33,.57,2.14,0,1.53-.58,2.76-1.73,3.71-1.15,.95-2.79,1.42-4.9,1.42s-3.86-.46-4.97-1.38c-1.11-.92-1.66-2.14-1.66-3.67,0-1.28,.33-2.3,1-3.05s1.5-1.37,2.48-1.86c-.8-.52-1.48-1.15-2.05-1.88-.57-.74-.86-1.66-.86-2.77,0-.97,.27-1.79,.82-2.46,.55-.67,1.28-1.17,2.2-1.49,.92-.33,1.94-.49,3.07-.49Zm-2.57,13.78c0,.61,.21,1.1,.64,1.48,.42,.38,1.04,.57,1.86,.57,.88,0,1.54-.18,1.96-.55s.64-.84,.64-1.43c0-.43-.12-.82-.38-1.16-.25-.34-.56-.63-.92-.88-.36-.25-.7-.47-1.01-.66l-.34-.21c-.71,.35-1.3,.75-1.75,1.2-.46,.45-.69,1-.69,1.64Zm2.55-10.58c-.54,0-.99,.15-1.35,.44-.36,.29-.55,.69-.55,1.2,0,.54,.19,.99,.56,1.35,.37,.36,.82,.68,1.34,.94,.49-.23,.93-.51,1.33-.86,.4-.35,.6-.82,.6-1.43,0-.5-.19-.9-.56-1.2-.37-.29-.83-.44-1.37-.44Z"/><path d="M687.94,79.58c1.46,0,2.59,.51,3.41,1.52,.81,1.01,1.22,2.44,1.22,4.28s-.38,3.27-1.14,4.3c-.76,1.03-1.92,1.55-3.48,1.55-1.42,0-2.53-.52-3.33-1.55-.8-1.03-1.2-2.46-1.2-4.3s.37-3.26,1.12-4.28c.75-1.01,1.88-1.52,3.41-1.52Zm.05,2.86c-.4,0-.68,.25-.84,.75-.17,.5-.25,1.24-.25,2.21s.08,1.72,.25,2.24c.17,.52,.45,.78,.84,.78s.68-.26,.85-.78c.16-.52,.25-1.26,.25-2.24s-.08-1.71-.25-2.21c-.17-.5-.45-.75-.85-.75Zm13.57-2.6l-10.3,18.56h-3.38l10.3-18.56h3.38Zm-.1,7.15c1.46,0,2.59,.51,3.41,1.52,.81,1.01,1.22,2.44,1.22,4.28s-.38,3.27-1.14,4.3-1.92,1.55-3.48,1.55c-1.42,0-2.53-.52-3.33-1.55-.8-1.03-1.2-2.46-1.2-4.3s.37-3.26,1.12-4.28c.75-1.01,1.88-1.52,3.41-1.52Zm.05,2.83c-.4,0-.68,.26-.84,.78-.17,.52-.25,1.26-.25,2.21s.08,1.69,.25,2.21c.16,.52,.45,.78,.84,.78,.73,0,1.09-1,1.09-2.99s-.36-2.99-1.09-2.99Z"/></g><g><path d="M664.02,171.41h-4.47v-10.01c0-.23,0-.56,.01-1.01,0-.45,.02-.93,.03-1.43,0-.5,.02-.95,.04-1.35-.14,.17-.33,.38-.57,.61-.24,.23-.47,.44-.68,.61l-2.13,1.74-2.21-2.76,6.16-4.96h3.82v18.56Z"/><path d="M681.85,171.41h-13.21v-2.99l4.6-4.65c.94-.97,1.68-1.77,2.24-2.39s.95-1.17,1.18-1.65c.23-.48,.35-.98,.35-1.52,0-.66-.2-1.14-.58-1.44-.39-.3-.88-.46-1.47-.46-.66,0-1.3,.17-1.94,.49-.63,.33-1.32,.81-2.07,1.43l-2.42-2.83c.54-.48,1.11-.94,1.72-1.36,.61-.42,1.32-.77,2.14-1.04,.82-.27,1.82-.4,2.98-.4,1.25,0,2.32,.22,3.22,.66s1.59,1.04,2.08,1.79c.48,.75,.73,1.62,.73,2.59,0,1.04-.2,1.99-.6,2.83-.4,.85-.99,1.69-1.77,2.52-.78,.83-1.73,1.77-2.86,2.81l-1.92,1.77v.16h7.59v3.69Z"/><path d="M687.94,152.58c1.46,0,2.59,.51,3.41,1.52,.81,1.01,1.22,2.44,1.22,4.28s-.38,3.27-1.14,4.3c-.76,1.03-1.92,1.55-3.48,1.55-1.42,0-2.53-.52-3.33-1.55-.8-1.03-1.2-2.46-1.2-4.3s.37-3.26,1.12-4.28c.75-1.01,1.88-1.52,3.41-1.52Zm.05,2.86c-.4,0-.68,.25-.84,.75-.17,.5-.25,1.24-.25,2.21s.08,1.72,.25,2.24c.17,.52,.45,.78,.84,.78s.68-.26,.85-.78c.16-.52,.25-1.26,.25-2.24s-.08-1.71-.25-2.21c-.17-.5-.45-.75-.85-.75Zm13.57-2.6l-10.3,18.56h-3.38l10.3-18.56h3.38Zm-.1,7.15c1.46,0,2.59,.51,3.41,1.52,.81,1.01,1.22,2.44,1.22,4.28s-.38,3.27-1.14,4.3-1.92,1.55-3.48,1.55c-1.42,0-2.53-.52-3.33-1.55-.8-1.03-1.2-2.46-1.2-4.3s.37-3.26,1.12-4.28c.75-1.01,1.88-1.52,3.41-1.52Zm.05,2.83c-.4,0-.68,.26-.84,.78-.17,.52-.25,1.26-.25,2.21s.08,1.69,.25,2.21c.16,.52,.45,.78,.84,.78,.73,0,1.09-1,1.09-2.99s-.36-2.99-1.09-2.99Z"/></g></g><g id="Labels-CHS"><g><path class="cls-4" d="M248.99,93.74v2.26h-16.98v-2.26h4.9v-14.36h2.34v14.36h2.49v-14.36h2.34v10.47c.95-1.8,2.09-4.5,2.72-6.67l2.03,.97c-.83,2.39-2.03,5.07-3.02,6.9l-1.73-.88v3.57h4.92Zm-14.48-2.81c-.42-1.82-1.41-4.86-2.28-7.2l2.07-.61c.89,2.22,2,5.21,2.47,7.01l-2.26,.8Z"/><path class="cls-4" d="M263.2,87.85c1.37,1.14,3.25,2.07,5.21,2.57-.48,.46-1.16,1.33-1.5,1.94-1.14-.38-2.22-.89-3.21-1.54v6h-2.36v-6.69h1.42c-.85-.68-1.62-1.43-2.22-2.28h-1.96c-.63,.84-1.42,1.58-2.28,2.26h1.61v1.31c0,1.8-.55,4.2-4.33,5.59-.3-.55-1.06-1.41-1.56-1.82,3.17-1.04,3.55-2.64,3.55-3.86v-.68c-1.08,.74-2.24,1.33-3.46,1.77-.32-.55-.99-1.39-1.48-1.86,1.9-.55,3.78-1.54,5.13-2.7h-3.02v-8.07h13.54v8.07h-3.1Zm-8.19-4.88h3.32v-1.37h-3.32v1.37Zm0,3.06h3.32v-1.37h-3.32v1.37Zm8.93-4.43h-3.32v1.37h3.32v-1.37Zm0,3.06h-3.32v1.37h3.32v-1.37Z"/><path class="cls-4" d="M283.84,89.9c1.01,.91,2.34,1.73,3.71,2.2-.49,.4-1.18,1.2-1.5,1.75-1.03-.47-2.05-1.18-2.98-1.99v1.41h-3.46v1.23h6.19v1.86h-14.46v-1.86h5.96v-1.23h-3.36v-1.18c-.93,.78-1.96,1.46-3.02,1.94-.32-.53-.97-1.33-1.44-1.73,1.39-.51,2.79-1.39,3.84-2.39h-3.67v-1.84h3.63v-5.66h-2.62v-1.82h2.62v-1.42h2.26v1.42h5.95v-1.42h2.32v1.42h2.6v1.82h-2.6v5.66h3.51v1.84h-3.48Zm-1.2,1.58c-.51-.49-.97-1.03-1.37-1.58h-5.36c-.38,.55-.85,1.08-1.35,1.58h2.74v-1.18h2.3v1.18h3.04Zm-7.11-9.08v.84h5.95v-.84h-5.95Zm0,3.23h5.95v-.84h-5.95v.84Zm0,2.43h5.95v-.85h-5.95v.85Z"/><path class="cls-4" d="M290.95,85.46c-.42-1.22-1.44-3.19-2.28-4.65l2.03-.91c.87,1.41,1.96,3.31,2.47,4.5l-2.22,1.06Zm-2.26,9.57c.82-1.58,1.92-4.1,2.77-6.5l2.11,1.03c-.78,2.24-1.69,4.56-2.51,6.46l-2.37-.99Zm17.67,.63h-9.67v1.24h-2.07v-9.88c-.44,.57-.89,1.12-1.35,1.6-.34-.44-1.14-1.27-1.58-1.65,1.96-1.79,3.59-4.69,4.5-7.69l2.09,.51c-.3,.89-.65,1.77-1.03,2.62h3.4c-.34-.74-.85-1.63-1.29-2.34l1.94-.88c.61,.84,1.27,1.96,1.61,2.7l-.99,.51h4.12v1.96h-3.74v1.8h3.38v1.94h-3.38v1.77h3.34v1.94h-3.34v1.84h4.05v2.01Zm-6.25-11.3h-3.42v1.8h3.42v-1.8Zm0,3.74h-3.42v1.77h3.42v-1.77Zm-3.42,5.55h3.42v-1.84h-3.42v1.84Z"/><path class="cls-4" d="M181.9,159.46c0,1.22-.44,2.19-1.32,2.89-.88,.71-2.11,1.06-3.68,1.06-1.45,0-2.73-.27-3.84-.82v-2.67c.92,.41,1.69,.7,2.32,.86,.63,.17,1.21,.25,1.74,.25,.63,0,1.11-.12,1.45-.36,.34-.24,.5-.6,.5-1.08,0-.27-.07-.5-.22-.71s-.37-.41-.65-.6c-.29-.19-.87-.5-1.76-.92-.83-.39-1.45-.76-1.86-1.12s-.75-.78-.99-1.25c-.25-.48-.37-1.03-.37-1.67,0-1.2,.41-2.14,1.22-2.83,.81-.69,1.94-1.03,3.37-1.03,.71,0,1.38,.08,2.02,.25,.64,.17,1.31,.4,2.01,.71l-.93,2.24c-.72-.3-1.32-.5-1.79-.62-.47-.12-.94-.18-1.4-.18-.54,0-.96,.13-1.25,.38-.29,.25-.44,.58-.44,.99,0,.25,.06,.47,.18,.66,.12,.19,.3,.37,.56,.55,.26,.18,.86,.49,1.82,.95,1.27,.61,2.14,1.21,2.61,1.82,.47,.61,.71,1.36,.71,2.24Z"/><path class="cls-4" d="M184.02,150.17c0-.92,.51-1.38,1.54-1.38s1.54,.46,1.54,1.38c0,.44-.13,.78-.38,1.03s-.64,.37-1.15,.37c-1.03,0-1.54-.46-1.54-1.39Zm2.95,13.05h-2.83v-10.37h2.83v10.37Z"/><path class="cls-4" d="M192.77,163.22h-2.83v-14.44h2.83v14.44Z"/><path class="cls-4" d="M195.62,150.17c0-.92,.51-1.38,1.54-1.38s1.54,.46,1.54,1.38c0,.44-.13,.78-.38,1.03s-.64,.37-1.15,.37c-1.03,0-1.54-.46-1.54-1.39Zm2.95,13.05h-2.83v-10.37h2.83v10.37Z"/><path class="cls-4" d="M205.75,163.41c-3.23,0-4.84-1.77-4.84-5.32,0-1.76,.44-3.11,1.32-4.04,.88-.93,2.14-1.4,3.78-1.4,1.2,0,2.28,.24,3.23,.71l-.84,2.19c-.45-.18-.86-.33-1.24-.44-.38-.11-.77-.17-1.15-.17-1.47,0-2.21,1.04-2.21,3.13s.74,3.04,2.21,3.04c.54,0,1.05-.07,1.51-.22s.93-.37,1.39-.68v2.42c-.46,.29-.92,.49-1.39,.6-.47,.11-1.06,.17-1.77,.17Z"/><path class="cls-4" d="M220.73,158.02c0,1.69-.45,3.01-1.34,3.96-.89,.95-2.13,1.43-3.72,1.43-1,0-1.87-.22-2.63-.65-.76-.44-1.34-1.06-1.75-1.88s-.61-1.77-.61-2.86c0-1.7,.44-3.01,1.33-3.95,.88-.94,2.13-1.41,3.73-1.41,1,0,1.87,.22,2.63,.65,.76,.43,1.34,1.05,1.75,1.86,.41,.81,.61,1.76,.61,2.85Zm-7.17,0c0,1.03,.17,1.8,.51,2.33s.89,.79,1.65,.79,1.3-.26,1.63-.78c.33-.52,.5-1.3,.5-2.33s-.17-1.8-.5-2.31-.88-.77-1.64-.77-1.3,.25-1.63,.76c-.33,.51-.5,1.28-.5,2.32Z"/><path class="cls-4" d="M232.64,163.22h-2.83v-6.06c0-.75-.13-1.31-.4-1.68s-.69-.56-1.27-.56c-.79,0-1.36,.26-1.72,.79-.35,.53-.53,1.41-.53,2.63v4.88h-2.83v-10.37h2.16l.38,1.33h.16c.32-.5,.75-.88,1.3-1.14s1.18-.39,1.89-.39c1.21,0,2.12,.33,2.75,.98,.62,.65,.94,1.59,.94,2.83v6.76Z"/><path class="cls-4" d="M246.46,163.22l-3.27-10.64h-.08c.12,2.17,.18,3.61,.18,4.33v6.31h-2.57v-13.56h3.92l3.21,10.37h.06l3.41-10.37h3.91v13.56h-2.68v-6.42c0-.3,0-.65,.01-1.05,0-.4,.05-1.45,.13-3.15h-.08l-3.5,10.62h-2.63Z"/><path class="cls-4" d="M267.83,158.02c0,1.69-.45,3.01-1.34,3.96-.89,.95-2.13,1.43-3.72,1.43-1,0-1.87-.22-2.63-.65-.76-.44-1.34-1.06-1.75-1.88s-.61-1.77-.61-2.86c0-1.7,.44-3.01,1.33-3.95,.88-.94,2.13-1.41,3.73-1.41,1,0,1.87,.22,2.63,.65,.76,.43,1.34,1.05,1.75,1.86,.41,.81,.61,1.76,.61,2.85Zm-7.17,0c0,1.03,.17,1.8,.51,2.33s.89,.79,1.65,.79,1.3-.26,1.63-.78c.33-.52,.5-1.3,.5-2.33s-.17-1.8-.5-2.31-.88-.77-1.64-.77-1.3,.25-1.63,.76c-.33,.51-.5,1.28-.5,2.32Z"/><path class="cls-4" d="M274.54,161.15c.5,0,1.09-.11,1.78-.32v2.11c-.71,.32-1.57,.47-2.6,.47-1.13,0-1.96-.29-2.47-.86-.52-.57-.77-1.43-.77-2.57v-5h-1.36v-1.2l1.56-.95,.82-2.19h1.81v2.21h2.9v2.12h-2.9v5c0,.4,.11,.7,.34,.89,.23,.19,.52,.29,.89,.29Z"/><path class="cls-4" d="M278.3,150.17c0-.92,.51-1.38,1.54-1.38s1.54,.46,1.54,1.38c0,.44-.13,.78-.38,1.03s-.64,.37-1.15,.37c-1.03,0-1.54-.46-1.54-1.39Zm2.95,13.05h-2.83v-10.37h2.83v10.37Z"/><path class="cls-4" d="M293.64,158.02c0,1.69-.45,3.01-1.34,3.96-.89,.95-2.13,1.43-3.72,1.43-1,0-1.87-.22-2.63-.65-.76-.44-1.34-1.06-1.75-1.88s-.61-1.77-.61-2.86c0-1.7,.44-3.01,1.33-3.95,.88-.94,2.13-1.41,3.73-1.41,1,0,1.87,.22,2.63,.65,.76,.43,1.34,1.05,1.75,1.86,.41,.81,.61,1.76,.61,2.85Zm-7.17,0c0,1.03,.17,1.8,.51,2.33s.89,.79,1.65,.79,1.3-.26,1.63-.78c.33-.52,.5-1.3,.5-2.33s-.17-1.8-.5-2.31-.88-.77-1.64-.77-1.3,.25-1.63,.76c-.33,.51-.5,1.28-.5,2.32Z"/><path class="cls-4" d="M305.56,163.22h-2.83v-6.06c0-.75-.13-1.31-.4-1.68s-.69-.56-1.27-.56c-.79,0-1.36,.26-1.72,.79-.35,.53-.53,1.41-.53,2.63v4.88h-2.83v-10.37h2.16l.38,1.33h.16c.32-.5,.75-.88,1.3-1.14s1.18-.39,1.89-.39c1.21,0,2.12,.33,2.75,.98,.62,.65,.94,1.59,.94,2.83v6.76Z"/></g><path class="cls-4" d="M310.48,80.51l1.25-2.17-2.26-1.01,.46-1.41,2.43,.55,.25-2.51h1.5l.23,2.51,2.43-.55,.46,1.41-2.28,1.01,1.27,2.17-1.2,.87-1.67-1.9-1.67,1.9-1.2-.87Z"/><g><path class="cls-2" d="M47.41,225.04l1.12-1.94-2.02-.9,.41-1.26,2.18,.49,.22-2.24h1.34l.2,2.24,2.18-.49,.41,1.26-2.04,.9,1.14,1.94-1.07,.78-1.5-1.7-1.5,1.7-1.07-.78Z"/><path class="cls-2" d="M66.54,232.93l-2.58-4.76h-1.75v4.76h-2.52v-12.58h4.39c2.63,0,4.73,.92,4.73,3.81,0,1.89-.95,3.06-2.4,3.62l2.94,5.15h-2.8Zm-4.33-6.75h1.63c1.62,0,2.5-.68,2.5-2.02s-.88-1.82-2.5-1.82h-1.63v3.84Z"/><path class="cls-2" d="M70.46,230.34c0-2.04,1.65-3.11,5.47-3.52-.03-.93-.44-1.65-1.62-1.65-.88,0-1.73,.39-2.62,.9l-.9-1.65c1.12-.7,2.48-1.26,3.98-1.26,2.41,0,3.65,1.44,3.65,4.2v5.56h-2.04l-.19-1.02h-.05c-.83,.71-1.79,1.26-2.87,1.26-1.7,0-2.82-1.21-2.82-2.82Zm5.47-.07v-1.92c-2.31,.31-3.09,.93-3.09,1.78,0,.75,.53,1.07,1.26,1.07s1.24-.34,1.84-.93Z"/><path class="cls-2" d="M80.44,228.19c0-3.11,1.94-5.01,4-5.01,1.07,0,1.73,.41,2.41,1.04l-.1-1.5v-3.35h2.5v13.56h-2.02l-.2-.99h-.05c-.7,.68-1.65,1.22-2.63,1.22-2.36,0-3.89-1.87-3.89-4.98Zm6.31,1.94v-4.18c-.58-.53-1.17-.71-1.77-.71-1.07,0-1.97,1.02-1.97,2.92s.71,2.96,1.97,2.96c.66,0,1.22-.27,1.77-.99Z"/><path class="cls-2" d="M97.02,221.3c-.32-.12-.7-.2-1-.2-.75,0-1.16,.44-1.16,1.5v.82h1.79v1.97h-1.79v7.55h-2.5v-7.55h-1.27v-1.85l1.27-.1v-.78c0-1.99,.92-3.52,3.31-3.52,.73,0,1.38,.17,1.8,.34l-.46,1.84Z"/><path class="cls-2" d="M97.46,228.19c0-3.18,2.19-5.01,4.57-5.01s4.57,1.84,4.57,5.01-2.19,4.98-4.57,4.98-4.57-1.84-4.57-4.98Zm6.59,0c0-1.8-.73-2.97-2.02-2.97s-2.02,1.17-2.02,2.97,.73,2.94,2.02,2.94,2.02-1.16,2.02-2.94Z"/><path class="cls-2" d="M108.7,223.41h2.04l.17,1.68h.07c.7-1.24,1.72-1.92,2.7-1.92,.53,0,.83,.08,1.12,.2l-.44,2.16c-.32-.1-.59-.15-.99-.15-.75,0-1.65,.49-2.19,1.87v5.68h-2.48v-9.52Z"/><path class="cls-2" d="M115.36,228.19c0-3.11,1.94-5.01,4-5.01,1.07,0,1.73,.41,2.41,1.04l-.1-1.5v-3.35h2.5v13.56h-2.02l-.2-.99h-.05c-.7,.68-1.65,1.22-2.63,1.22-2.36,0-3.89-1.87-3.89-4.98Zm6.31,1.94v-4.18c-.58-.53-1.17-.71-1.77-.71-1.07,0-1.97,1.02-1.97,2.92s.71,2.96,1.97,2.96c.66,0,1.22-.27,1.77-.99Z"/><path class="cls-2" d="M130.1,231.48c3.42-3.06,5.44-5.42,5.44-7.36,0-1.28-.7-2.04-1.89-2.04-.92,0-1.68,.59-2.31,1.29l-1.36-1.36c1.16-1.22,2.28-1.9,3.99-1.9,2.38,0,3.96,1.53,3.96,3.88s-1.89,4.73-4.18,6.97c.63-.07,1.46-.14,2.04-.14h2.74v2.11h-8.43v-1.45Z"/><path class="cls-2" d="M140.13,226.59c0-4.35,1.7-6.48,4.27-6.48s4.25,2.14,4.25,6.48-1.7,6.58-4.25,6.58-4.27-2.24-4.27-6.58Zm6.15,0c0-3.52-.82-4.54-1.89-4.54s-1.9,1.02-1.9,4.54,.82,4.62,1.9,4.62,1.89-1.09,1.89-4.62Z"/><path class="cls-2" d="M150.12,231.48c3.42-3.06,5.44-5.42,5.44-7.36,0-1.28-.7-2.04-1.89-2.04-.92,0-1.68,.59-2.31,1.29l-1.36-1.36c1.16-1.22,2.28-1.9,3.99-1.9,2.38,0,3.96,1.53,3.96,3.88s-1.89,4.73-4.18,6.97c.63-.07,1.46-.14,2.04-.14h2.74v2.11h-8.43v-1.45Z"/><path class="cls-2" d="M160.8,230.91h2.7v-7.96h-2.28v-1.55c1.26-.24,2.12-.56,2.92-1.05h1.85v10.56h2.36v2.02h-7.56v-2.02Z"/><path class="cls-2" d="M182.81,228.85c-.59,2.96-2.07,4.76-8.04,5.59-.14-.46-.56-1.27-.9-1.7,5.39-.58,6.46-1.8,6.97-3.89h1.97Zm-3.45-4.5c-1.6,.59-3.31,1.21-4.71,1.68l-.61-1.85c1.28-.34,3.16-.95,4.98-1.56l.34,1.73Zm-1.41-2.14c-.75-.58-2.26-1.41-3.42-1.87l1-1.36c1.14,.41,2.69,1.14,3.47,1.72l-1.05,1.51Zm7.65,8.84v-2.63h-7.53v2.82h-1.99v-4.66h11.63v4.47h-2.11Zm-.43-9.57c-.05,.17-.1,.34-.15,.49,.87,1.39,2.48,2.41,4.52,2.84-.41,.36-.94,1.07-1.17,1.58-1.73-.53-3.11-1.5-4.08-2.8-.78,1.24-2.07,2.26-4.32,2.97-.19-.44-.66-1.12-1.04-1.46,2.82-.78,3.77-2.12,4.23-3.62h-1.33c-.48,.73-1.04,1.39-1.79,2.01-.31-.42-.97-1.04-1.39-1.26,1.33-1,2.12-2.35,2.5-3.55l1.9,.29c-.12,.34-.27,.7-.41,1.04h4.83l.34-.08,1.48,.36c-.36,1-.8,2.12-1.19,2.89l-1.77-.46c.14-.34,.31-.76,.46-1.22h-1.63Zm-2.12,9.18c1.94,.49,4.79,1.43,6.29,2.09l-1.26,1.6c-1.38-.65-4.18-1.68-6.2-2.26l1.17-1.43Z"/><path class="cls-2" d="M196.04,226.74c.34,.46,1.61,2.58,1.87,3.11l-1.39,1.51c-.24-.75-.7-1.9-1.12-2.84v5.88h-1.87v-6.07c-.39,1.7-1.02,3.49-1.9,4.47-.17-.71-.61-1.73-.92-2.41,.71-.85,1.38-2.41,1.65-3.71l1.17,.41v-1.05h-2.57v-1.89h2.57v-5.63h1.87v5.63h2.52v1.89h-2.52v1.16l.65-.46Zm-4.32-2.87c-.03-1.05-.37-2.69-.78-3.93l1.41-.36c.46,1.24,.82,2.84,.88,3.89l-1.51,.39Zm6.49-4.01c-.44,1.36-.94,2.96-1.36,3.94l-1.29-.36c.37-1.07,.77-2.75,.95-3.94l1.7,.36Zm6.59,9.94v4.59h-1.9v-4.25l-4.74,.85-.31-1.89,5.05-.9v-9.69h1.9v9.35l1.73-.32,.31,1.89-2.04,.37Zm-5.81-6.17c.99,.53,2.24,1.36,2.86,1.96l-1.02,1.61c-.56-.61-1.8-1.53-2.79-2.11l.95-1.46Zm2.46-.61c-.53-.66-1.7-1.58-2.63-2.21l.97-1.36c.95,.56,2.16,1.43,2.7,2.06l-1.04,1.51Z"/></g></g></svg>