<svg xmlns="http://www.w3.org/2000/svg" viewBox="0 0 800 260"><defs><style>.a{fill:none;stroke:gray;stroke-miterlimit:10;}.b{fill:#98d5f4;}.c{fill:#0071bc;}.d{fill:#333;}.e{fill:#999;}</style></defs><line class="a" x1="324.5" y1="225" x2="324.5" y2="19"/><rect class="b" x="324.01" y="125.41" width="210.45" height="65.59"/><rect class="c" x="324.01" y="52.54" width="303.99" height="65.59"/><path d="M664,98.41h-4.47v-10c0-.23,0-.56,0-1s0-.92,0-1.42,0-1,0-1.36a5,5,0,0,1-.57.61c-.24.24-.47.44-.67.62l-2.14,1.74L654,84.81l6.17-5H664Z"/><path d="M681.18,84a4.33,4.33,0,0,1-.55,2.24,4.63,4.63,0,0,1-1.47,1.55,6.69,6.69,0,0,1-2,.89v.08a6.17,6.17,0,0,1,3.41,1.37,3.81,3.81,0,0,1,1.19,3,5.27,5.27,0,0,1-.8,2.84,5.56,5.56,0,0,1-2.49,2,10.63,10.63,0,0,1-4.32.75,15.37,15.37,0,0,1-3-.26,14.19,14.19,0,0,1-2.48-.75V93.94a10.73,10.73,0,0,0,2.5.92,10.62,10.62,0,0,0,2.39.3,4.35,4.35,0,0,0,2.74-.64,2.16,2.16,0,0,0,.77-1.75,2,2,0,0,0-.36-1.2,2.35,2.35,0,0,0-1.29-.75,9.77,9.77,0,0,0-2.59-.26h-1.27V87.2h1.3a8.15,8.15,0,0,0,2.44-.28,2.28,2.28,0,0,0,1.21-.8,2,2,0,0,0,.35-1.15c0-1.22-.8-1.82-2.39-1.82a5.22,5.22,0,0,0-2.28.47,16.89,16.89,0,0,0-1.54.8l-1.95-3a10.72,10.72,0,0,1,2.6-1.31,10.89,10.89,0,0,1,3.69-.54,7.87,7.87,0,0,1,4.52,1.15A3.69,3.69,0,0,1,681.18,84Z"/><path d="M687.94,79.58a4.1,4.1,0,0,1,3.4,1.53,6.62,6.62,0,0,1,1.22,4.27,7.15,7.15,0,0,1-1.14,4.31,4,4,0,0,1-3.48,1.54,4,4,0,0,1-3.33-1.54,6.88,6.88,0,0,1-1.2-4.31,7.13,7.13,0,0,1,1.12-4.27A4,4,0,0,1,687.94,79.58Zm0,2.87c-.4,0-.68.25-.85.75a7.71,7.71,0,0,0-.24,2.21,8,8,0,0,0,.24,2.23c.17.53.45.79.85.79s.68-.26.84-.79a7.55,7.55,0,0,0,.25-2.23,7.31,7.31,0,0,0-.25-2.21Q688.59,82.45,688,82.45Zm13.57-2.6-10.3,18.56h-3.38l10.3-18.56Zm-.1,7.15a4.1,4.1,0,0,1,3.4,1.52,6.62,6.62,0,0,1,1.22,4.27,7.17,7.17,0,0,1-1.14,4.31,4,4,0,0,1-3.48,1.54,4,4,0,0,1-3.33-1.54,6.9,6.9,0,0,1-1.2-4.31,7.13,7.13,0,0,1,1.12-4.27A3.94,3.94,0,0,1,701.46,87Zm0,2.83c-.4,0-.68.26-.85.78a10.3,10.3,0,0,0,0,4.42c.17.52.45.78.85.78.73,0,1.09-1,1.09-3S702.24,89.83,701.51,89.83Z"/><path d="M681.85,160.88a18.64,18.64,0,0,1-.45,4.17,9.51,9.51,0,0,1-1.54,3.45,7.24,7.24,0,0,1-2.91,2.32,10.84,10.84,0,0,1-4.59.85c-.36,0-.79,0-1.28,0s-.91-.07-1.24-.12V168a11,11,0,0,0,2.29.23,7.26,7.26,0,0,0,3.42-.66,3.7,3.7,0,0,0,1.7-1.86,8.25,8.25,0,0,0,.57-2.76h-.15a5,5,0,0,1-1.38,1.54,4.36,4.36,0,0,1-2.55.62,4.82,4.82,0,0,1-3.77-1.56,6.4,6.4,0,0,1-1.4-4.42,6.48,6.48,0,0,1,1.71-4.77,6.37,6.37,0,0,1,4.71-1.73,6.93,6.93,0,0,1,3.48.89,6.06,6.06,0,0,1,2.47,2.71A10.44,10.44,0,0,1,681.85,160.88Zm-6.76-4.73a2.06,2.06,0,0,0-1.63.7,3.24,3.24,0,0,0-.63,2.21,3,3,0,0,0,.55,1.92,2,2,0,0,0,1.66.71,2.23,2.23,0,0,0,1.74-.75,2.29,2.29,0,0,0,.68-1.57,4.62,4.62,0,0,0-.26-1.52,2.92,2.92,0,0,0-.78-1.22A1.89,1.89,0,0,0,675.09,156.15Z"/><path d="M687.94,152.58a4.1,4.1,0,0,1,3.4,1.53,6.62,6.62,0,0,1,1.22,4.27,7.15,7.15,0,0,1-1.14,4.31,4,4,0,0,1-3.48,1.54,4,4,0,0,1-3.33-1.54,6.88,6.88,0,0,1-1.2-4.31,7.13,7.13,0,0,1,1.12-4.27A4,4,0,0,1,687.94,152.58Zm0,2.87c-.4,0-.68.25-.85.75a7.71,7.71,0,0,0-.24,2.21,8,8,0,0,0,.24,2.23c.17.53.45.79.85.79s.68-.26.84-.79a7.55,7.55,0,0,0,.25-2.23,7.31,7.31,0,0,0-.25-2.21Q688.59,155.45,688,155.45Zm13.57-2.6-10.3,18.56h-3.38l10.3-18.56Zm-.1,7.15a4.1,4.1,0,0,1,3.4,1.52,6.62,6.62,0,0,1,1.22,4.27,7.17,7.17,0,0,1-1.14,4.31,4,4,0,0,1-3.48,1.54,4,4,0,0,1-3.33-1.54,6.9,6.9,0,0,1-1.2-4.31,7.13,7.13,0,0,1,1.12-4.27A3.94,3.94,0,0,1,701.46,160Zm0,2.83c-.4,0-.68.26-.85.78a10.3,10.3,0,0,0,0,4.42c.17.52.45.78.85.78.73,0,1.09-1,1.09-3S702.24,162.83,701.51,162.83Z"/><path class="d" d="M249,93.74V96H232V93.74h4.9V79.38h2.34V93.74h2.48V79.38h2.34V89.85a40.08,40.08,0,0,0,2.72-6.67l2,1a50.22,50.22,0,0,1-3,6.89l-1.73-.87v3.57Zm-14.47-2.81a69.67,69.67,0,0,0-2.28-7.2l2.07-.61c.89,2.23,2,5.21,2.47,7Z"/><path class="d" d="M263.2,87.85a13.62,13.62,0,0,0,5.21,2.57,9.65,9.65,0,0,0-1.5,1.94,14.61,14.61,0,0,1-3.21-1.54v6h-2.36V90.13h1.43a11.19,11.19,0,0,1-2.23-2.28h-2a12.84,12.84,0,0,1-2.28,2.26h1.61v1.31c0,1.81-.55,4.2-4.33,5.59A7.93,7.93,0,0,0,252,95.19c3.18-1,3.56-2.65,3.56-3.86v-.68a15.67,15.67,0,0,1-3.46,1.76,10.69,10.69,0,0,0-1.48-1.86,14.21,14.21,0,0,0,5.13-2.7h-3V79.78H266.3v8.07ZM255,83h3.32V81.6H255ZM255,86h3.32V84.66H255ZM264,81.6h-3.33V83H264Zm0,3.06h-3.33V86H264Z"/><path class="d" d="M283.84,89.9a11,11,0,0,0,3.7,2.21,7.89,7.89,0,0,0-1.5,1.75,13,13,0,0,1-3-2v1.41H279.6V94.5h6.19v1.86H271.34V94.5h6V93.27h-3.36V92.09a13.37,13.37,0,0,1-3,1.94,8.55,8.55,0,0,0-1.44-1.73,11.38,11.38,0,0,0,3.83-2.4h-3.66V88.06h3.63V82.4h-2.63V80.58h2.63V79.15h2.26v1.43h5.94V79.15h2.32v1.43h2.6V82.4h-2.6v5.66h3.51V89.9Zm-1.2,1.58a11.33,11.33,0,0,1-1.37-1.58h-5.35a11.17,11.17,0,0,1-1.35,1.58h2.73V90.3h2.3v1.18Zm-7.1-9.08v.84h5.94V82.4Zm0,3.23h5.94v-.84h-5.94Zm0,2.43h5.94v-.85h-5.94Z"/><path class="d" d="M291,85.46a34.65,34.65,0,0,0-2.28-4.66l2-.91a41.8,41.8,0,0,1,2.47,4.5ZM288.69,95a59.8,59.8,0,0,0,2.77-6.49l2.11,1c-.78,2.24-1.69,4.56-2.51,6.46Zm17.66.63h-9.67V96.9h-2.07V87a16.57,16.57,0,0,1-1.35,1.59A17.37,17.37,0,0,0,291.69,87a17.79,17.79,0,0,0,4.5-7.69l2.09.51c-.31.89-.65,1.77-1,2.62h3.4a23.34,23.34,0,0,0-1.29-2.34l1.94-.87a18.21,18.21,0,0,1,1.61,2.7l-1,.51h4.12v2h-3.74v1.8h3.38V88.1h-3.38v1.77h3.34V91.8h-3.34v1.85h4Zm-6.25-11.3h-3.42v1.8h3.42Zm0,3.74h-3.42v1.77h3.42Zm-3.42,5.55h3.42V91.8h-3.42Z"/><path class="d" d="M181.9,159.46a3.5,3.5,0,0,1-1.32,2.89,5.7,5.7,0,0,1-3.68,1.06,8.6,8.6,0,0,1-3.84-.82v-2.67a14.81,14.81,0,0,0,2.33.86,6.7,6.7,0,0,0,1.74.25,2.48,2.48,0,0,0,1.45-.36,1.22,1.22,0,0,0,.5-1.07,1.15,1.15,0,0,0-.22-.71,2.39,2.39,0,0,0-.65-.6,17.86,17.86,0,0,0-1.76-.92,8.46,8.46,0,0,1-1.87-1.12,4.32,4.32,0,0,1-1-1.26,3.9,3.9,0,0,1,.85-4.49,5,5,0,0,1,3.37-1,7.82,7.82,0,0,1,2,.26,13.43,13.43,0,0,1,2,.7l-.93,2.24a12.09,12.09,0,0,0-1.79-.62,5.72,5.72,0,0,0-1.4-.18,1.87,1.87,0,0,0-1.25.38,1.25,1.25,0,0,0-.44,1,1.22,1.22,0,0,0,.18.67,1.94,1.94,0,0,0,.56.54,15.4,15.4,0,0,0,1.82.95,7.29,7.29,0,0,1,2.61,1.83A3.54,3.54,0,0,1,181.9,159.46Z"/><path class="d" d="M184,150.17c0-.92.51-1.38,1.54-1.38s1.54.46,1.54,1.38a1.36,1.36,0,0,1-.39,1,1.62,1.62,0,0,1-1.15.36C184.53,151.56,184,151.1,184,150.17ZM187,163.22h-2.83V152.85H187Z"/><path class="d" d="M192.77,163.22h-2.83V148.79h2.83Z"/><path class="d" d="M195.62,150.17c0-.92.51-1.38,1.54-1.38s1.54.46,1.54,1.38a1.36,1.36,0,0,1-.39,1,1.62,1.62,0,0,1-1.15.36C196.13,151.56,195.62,151.1,195.62,150.17Zm2.95,13.05h-2.83V152.85h2.83Z"/><path class="d" d="M205.75,163.41q-4.84,0-4.84-5.32a5.71,5.71,0,0,1,1.31-4,5,5,0,0,1,3.78-1.39,7.2,7.2,0,0,1,3.23.7l-.84,2.19a12.55,12.55,0,0,0-1.24-.44,4.16,4.16,0,0,0-1.15-.17c-1.47,0-2.21,1-2.21,3.13s.74,3.05,2.21,3.05a5.2,5.2,0,0,0,1.51-.22,5.41,5.41,0,0,0,1.39-.68v2.42a4.49,4.49,0,0,1-1.38.6A7.91,7.91,0,0,1,205.75,163.41Z"/><path class="d" d="M220.73,158a5.56,5.56,0,0,1-1.33,4,4.85,4.85,0,0,1-3.72,1.43,5.17,5.17,0,0,1-2.64-.66,4.34,4.34,0,0,1-1.75-1.87,6.31,6.31,0,0,1-.61-2.86,5.55,5.55,0,0,1,1.32-4,4.88,4.88,0,0,1,3.73-1.41,5.17,5.17,0,0,1,2.64.65,4.32,4.32,0,0,1,1.75,1.86A6.23,6.23,0,0,1,220.73,158Zm-7.17,0a4.33,4.33,0,0,0,.51,2.33,1.8,1.8,0,0,0,1.64.79,1.76,1.76,0,0,0,1.63-.79,4.41,4.41,0,0,0,.5-2.33,4.31,4.31,0,0,0-.5-2.31,2.14,2.14,0,0,0-3.28,0A4.35,4.35,0,0,0,213.56,158Z"/><path class="d" d="M232.64,163.22h-2.83v-6.05a3,3,0,0,0-.39-1.69,1.47,1.47,0,0,0-1.28-.56,1.89,1.89,0,0,0-1.71.79,5,5,0,0,0-.53,2.63v4.88h-2.83V152.85h2.16l.38,1.33h.16a3.06,3.06,0,0,1,1.3-1.14,4.59,4.59,0,0,1,1.89-.38,3.61,3.61,0,0,1,2.75,1,3.93,3.93,0,0,1,.93,2.82Z"/><path class="d" d="M246.46,163.22l-3.27-10.64h-.08c.12,2.17.18,3.61.18,4.34v6.3h-2.57V149.66h3.91L247.84,160h.06l3.4-10.37h3.92v13.56h-2.68V156.8c0-.3,0-.65,0-1s0-1.45.12-3.16h-.08l-3.5,10.62Z"/><path class="d" d="M267.83,158a5.56,5.56,0,0,1-1.33,4,4.85,4.85,0,0,1-3.72,1.43,5.17,5.17,0,0,1-2.64-.66,4.34,4.34,0,0,1-1.75-1.87,6.31,6.31,0,0,1-.61-2.86,5.55,5.55,0,0,1,1.32-4,4.88,4.88,0,0,1,3.73-1.41,5.17,5.17,0,0,1,2.64.65,4.32,4.32,0,0,1,1.75,1.86A6.23,6.23,0,0,1,267.83,158Zm-7.17,0a4.33,4.33,0,0,0,.51,2.33,1.8,1.8,0,0,0,1.64.79,1.76,1.76,0,0,0,1.63-.79,4.41,4.41,0,0,0,.5-2.33,4.31,4.31,0,0,0-.5-2.31,2.14,2.14,0,0,0-3.28,0A4.35,4.35,0,0,0,260.66,158Z"/><path class="d" d="M274.54,161.15a5.94,5.94,0,0,0,1.78-.32v2.11a6.43,6.43,0,0,1-2.6.47,3.19,3.19,0,0,1-2.47-.86,3.76,3.76,0,0,1-.77-2.57v-5h-1.36v-1.2l1.56-.95.82-2.19h1.81v2.21h2.9V155h-2.9v5a1.09,1.09,0,0,0,.34.89A1.32,1.32,0,0,0,274.54,161.15Z"/><path class="d" d="M278.3,150.17c0-.92.51-1.38,1.54-1.38s1.54.46,1.54,1.38a1.36,1.36,0,0,1-.39,1,1.62,1.62,0,0,1-1.15.36C278.81,151.56,278.3,151.1,278.3,150.17Zm2.95,13.05h-2.83V152.85h2.83Z"/><path class="d" d="M293.64,158a5.56,5.56,0,0,1-1.33,4,4.85,4.85,0,0,1-3.72,1.43,5.17,5.17,0,0,1-2.64-.66,4.34,4.34,0,0,1-1.75-1.87,6.31,6.31,0,0,1-.61-2.86,5.55,5.55,0,0,1,1.32-4,4.88,4.88,0,0,1,3.73-1.41,5.17,5.17,0,0,1,2.64.65,4.32,4.32,0,0,1,1.75,1.86A6.23,6.23,0,0,1,293.64,158Zm-7.17,0a4.33,4.33,0,0,0,.51,2.33,1.82,1.82,0,0,0,1.64.79,1.76,1.76,0,0,0,1.63-.79,4.41,4.41,0,0,0,.5-2.33,4.31,4.31,0,0,0-.5-2.31,2.14,2.14,0,0,0-3.28,0A4.35,4.35,0,0,0,286.47,158Z"/><path class="d" d="M305.56,163.22h-2.83v-6.05a3,3,0,0,0-.4-1.69,1.47,1.47,0,0,0-1.27-.56,1.91,1.91,0,0,0-1.72.79,5,5,0,0,0-.53,2.63v4.88H296V152.85h2.16l.38,1.33h.16A3,3,0,0,1,300,153a4.51,4.51,0,0,1,1.88-.38,3.6,3.6,0,0,1,2.75,1,3.93,3.93,0,0,1,.94,2.82Z"/><path class="d" d="M310.48,80.51l1.25-2.17-2.26-1,.45-1.4,2.44.55L312.6,74h1.5l.23,2.51,2.43-.55.46,1.4-2.28,1,1.27,2.17-1.19.87-1.68-1.9-1.67,1.9Z"/><path class="e" d="M47.41,225l1.12-1.94-2-.9.41-1.25,2.18.49.22-2.25h1.34l.2,2.25L53,221l.41,1.25-2,.9L52.55,225l-1.07.78-1.5-1.7-1.5,1.7Z"/><path class="e" d="M58.87,231.48c3.42-3.06,5.44-5.42,5.44-7.36a1.81,1.81,0,0,0-1.89-2,3.25,3.25,0,0,0-2.31,1.3L58.75,222a5.1,5.1,0,0,1,4-1.91,3.69,3.69,0,0,1,4,3.88c0,2.28-1.89,4.72-4.18,7,.62-.07,1.46-.14,2-.14H67.3v2.11H58.87Z"/><path class="e" d="M68.9,226.59c0-4.35,1.7-6.48,4.27-6.48s4.25,2.14,4.25,6.48-1.7,6.58-4.25,6.58S68.9,230.92,68.9,226.59Zm6.15,0c0-3.52-.81-4.54-1.88-4.54s-1.91,1-1.91,4.54.82,4.62,1.91,4.62S75.05,230.12,75.05,226.59Z"/><path class="e" d="M78.9,231.48c3.41-3.06,5.43-5.42,5.43-7.36a1.8,1.8,0,0,0-1.88-2,3.25,3.25,0,0,0-2.31,1.3L78.78,222a5.07,5.07,0,0,1,4-1.91,3.69,3.69,0,0,1,4,3.88c0,2.28-1.88,4.72-4.18,7,.63-.07,1.46-.14,2-.14h2.74v2.11H78.9Z"/><path class="e" d="M88.91,231.48c3.42-3.06,5.44-5.42,5.44-7.36a1.81,1.81,0,0,0-1.89-2,3.25,3.25,0,0,0-2.31,1.3L88.79,222a5.1,5.1,0,0,1,4-1.91,3.7,3.7,0,0,1,4,3.88c0,2.28-1.89,4.72-4.19,7,.63-.07,1.47-.14,2-.14h2.74v2.11H88.91Z"/><path class="e" d="M111.59,228.85c-.6,3-2.08,4.76-8,5.59a6.54,6.54,0,0,0-.91-1.7c5.39-.58,6.46-1.8,7-3.89Zm-3.46-4.51c-1.59.6-3.31,1.21-4.7,1.69l-.62-1.86c1.28-.34,3.17-.95,5-1.56Zm-1.41-2.14a16.68,16.68,0,0,0-3.41-1.87l1-1.36a16,16,0,0,1,3.47,1.72Zm7.65,8.84v-2.63h-7.53v2.82h-2v-4.66h11.63V231Zm-.42-9.57c0,.17-.1.34-.15.49a6.76,6.76,0,0,0,4.52,2.84,5.78,5.78,0,0,0-1.18,1.58,7.75,7.75,0,0,1-4.08-2.8,7.34,7.34,0,0,1-4.31,3,5.27,5.27,0,0,0-1-1.46c2.82-.78,3.77-2.12,4.23-3.62h-1.32a8.63,8.63,0,0,1-1.79,2,5,5,0,0,0-1.39-1.26,7.25,7.25,0,0,0,2.5-3.55l1.9.29c-.12.34-.27.69-.41,1h4.83l.34-.08,1.48.35a26.44,26.44,0,0,1-1.19,2.89l-1.77-.45c.14-.34.31-.77.46-1.23Zm-2.13,9.18a48.27,48.27,0,0,1,6.29,2.09l-1.25,1.6a51,51,0,0,0-6.21-2.26Z"/><path class="e" d="M124.81,226.74c.34.46,1.62,2.59,1.87,3.11l-1.39,1.52c-.24-.75-.7-1.91-1.12-2.84v5.88H122.3v-6.07a10.75,10.75,0,0,1-1.91,4.47,15.7,15.7,0,0,0-.92-2.41,9.41,9.41,0,0,0,1.65-3.71l1.18.41V226h-2.57v-1.88h2.57v-5.63h1.87v5.63h2.51V226h-2.51v1.16Zm-4.31-2.87a16.39,16.39,0,0,0-.79-3.93l1.41-.36a15.81,15.81,0,0,1,.89,3.9Zm6.49-4c-.44,1.36-.94,2.95-1.36,3.94l-1.29-.36a27,27,0,0,0,1-3.94Zm6.59,9.94v4.59h-1.9v-4.25l-4.74.85-.31-1.89,5.05-.9v-9.69h1.9v9.35l1.74-.32.3,1.89Zm-5.81-6.17a15,15,0,0,1,2.86,2l-1,1.61a15,15,0,0,0-2.79-2.11Zm2.46-.61a13.41,13.41,0,0,0-2.63-2.21l1-1.36a12.64,12.64,0,0,1,2.7,2.06Z"/></svg>