<svg xmlns="http://www.w3.org/2000/svg" viewBox="0 0 800 240"><defs><style>.a{fill:#0071bc;}.b{fill:#98d5f4;}.c{fill:none;stroke:gray;stroke-miterlimit:10;}.d{fill:#333;}</style></defs><rect class="a" x="324.01" y="58.74" width="311.99" height="63.12"/><rect class="b" x="324.01" y="128.88" width="187.19" height="63.12"/><line class="c" x1="324.01" y1="225" x2="324.01" y2="19"/><path d="M685,95.41h-4.47v-10c0-.23,0-.56,0-1s0-.92,0-1.42,0-1,0-1.36a4.3,4.3,0,0,1-.57.61c-.24.24-.47.44-.67.62l-2.14,1.74L675,81.81l6.17-5H685Z"/><path d="M702.8,86.13a17.84,17.84,0,0,1-.64,5.12,6.39,6.39,0,0,1-2.08,3.28,6.05,6.05,0,0,1-3.86,1.14,5.47,5.47,0,0,1-5-2.52,13.33,13.33,0,0,1-1.57-7,18,18,0,0,1,.64-5.14,6.38,6.38,0,0,1,2.08-3.29,6.05,6.05,0,0,1,3.86-1.14,5.47,5.47,0,0,1,5,2.52A13.19,13.19,0,0,1,702.8,86.13Zm-8.76,0a16.6,16.6,0,0,0,.45,4.48,1.75,1.75,0,0,0,3.46,0,16.6,16.6,0,0,0,.45-4.48,16.89,16.89,0,0,0-.45-4.49c-.3-1-.88-1.52-1.73-1.52s-1.43.51-1.73,1.52A16.89,16.89,0,0,0,694,86.13Z"/><path d="M689.62,163.53a22.54,22.54,0,0,1,.23-3.17,12.47,12.47,0,0,1,.82-3,7.87,7.87,0,0,1,1.65-2.47,7.32,7.32,0,0,1,2.73-1.69,11.77,11.77,0,0,1,4.06-.61c.36,0,.8,0,1.31,0a10.16,10.16,0,0,1,1.26.16v3.48c-.35-.07-.72-.12-1.13-.17s-.86-.06-1.37-.06a6.84,6.84,0,0,0-3.27.65,3.75,3.75,0,0,0-1.68,1.84,8.08,8.08,0,0,0-.58,2.79h.15a4.77,4.77,0,0,1,1.43-1.54,4.28,4.28,0,0,1,2.42-.62,4.92,4.92,0,0,1,3.85,1.56,6.36,6.36,0,0,1,1.4,4.39,6.43,6.43,0,0,1-1.73,4.81,6.33,6.33,0,0,1-4.69,1.72,7,7,0,0,1-3.5-.87,6.05,6.05,0,0,1-2.45-2.68A10.11,10.11,0,0,1,689.62,163.53Zm6.78,4.6a2,2,0,0,0,1.6-.7,3.3,3.3,0,0,0,.61-2.21,3.1,3.1,0,0,0-.52-1.9,1.91,1.91,0,0,0-1.63-.7,2.27,2.27,0,0,0-1.8.73,2.34,2.34,0,0,0-.65,1.59,4.54,4.54,0,0,0,.26,1.49,2.94,2.94,0,0,0,.79,1.22A2,2,0,0,0,696.4,168.13Z"/><path class="d" d="M219.32,88.57a11.6,11.6,0,0,0-.08,2c-4.69.91-5.49,1.14-6,1.42a21,21,0,0,0-.74-2.11,3.44,3.44,0,0,0,1.61-1.19,22.49,22.49,0,0,0,1.5-1.79,9,9,0,0,0-2.51.48,19.44,19.44,0,0,0-.72-2.09c.38-.12.72-.5,1.14-1.12a24.06,24.06,0,0,0,2.41-5.11l2.13,1a28.61,28.61,0,0,1-2.83,5l1.79-.13A21.35,21.35,0,0,0,218.16,83l2,1.27a32.56,32.56,0,0,1-3.65,4.83Zm0,5.67c-2.17.64-4.49,1.27-6.29,1.76l-.44-2.26c1.65-.28,4.08-.89,6.48-1.46Zm9.91-5.59a32.69,32.69,0,0,0-4.42-2.43,19.69,19.69,0,0,1-4.7,2.35,8.19,8.19,0,0,0-1.35-1.93A15,15,0,0,0,226,82.12H220V80.06h7.42l.42-.09,1.6.83a12.91,12.91,0,0,1-2.91,4,28.69,28.69,0,0,1,4,2Zm-3.34,5.72h4.44v2.09H219.07V94.37h4.54v-3.5h-3.4V88.82h9.17v2.05h-3.49Z"/><path class="d" d="M238.18,93.08c-2.09.74-4.37,1.46-6.19,2l-.51-2.3c.66-.17,1.44-.38,2.31-.63V87.74h-1.91V85.67h1.91V82.32H231.7v-2.1H238v2.1h-2v3.35h1.71v2.07h-1.71v3.8c.63-.19,1.25-.38,1.86-.59Zm11.29,1.16v2.05H237.25V94.24h5.25V92.43h-3.94v-2h3.94V88.76h-3.8V79.93h9.91v8.83h-3.82V90.4h4v2h-4v1.81Zm-8.74-10.81h2V81.85h-2Zm0,3.42h2V85.21h-2Zm5.73-5h-1.88v1.58h1.88Zm0,3.36h-1.88v1.64h1.88Z"/><path class="d" d="M267.5,85.86a15.1,15.1,0,0,1-3.73,7,14.43,14.43,0,0,0,4.66,1.94,11.06,11.06,0,0,0-1.58,2.14,14.17,14.17,0,0,1-5-2.47,17.69,17.69,0,0,1-5.64,2.66A8.26,8.26,0,0,0,254.94,95a15,15,0,0,0,5.19-2.24,17.45,17.45,0,0,1-3.08-5.37h-.29a14.37,14.37,0,0,1-4.63,9.19,9.6,9.6,0,0,0-1.63-2c3.76-3.21,4.14-8,4.14-11.07V82.12h-3V79.91h12c-.3,1.75-.7,3.76-1.06,5.34h2.85l.41-.09ZM257,83.58c0,.53,0,1.08,0,1.67H260c.27-1,.53-2,.78-3.13H257Zm2.26,3.82a12.05,12.05,0,0,0,2.62,3.91,11.09,11.09,0,0,0,2.53-3.91Z"/><path class="d" d="M277.76,91.52c-2.51,1.12-5.32,2.32-7.47,3.21l-.76-2.41c.72-.25,1.58-.55,2.53-.93l-.38-11.1L274,80.2l.34,10.27,2.87-1.17Zm7.86,5.34a32.64,32.64,0,0,0-3.55-4.58,13.73,13.73,0,0,1-5.77,4.62,13.75,13.75,0,0,0-1.81-2c6-2.28,8-6.88,8.68-14.68l2.49.22a29.2,29.2,0,0,1-2.32,9.65A41.31,41.31,0,0,1,287.56,95Zm-7.12-9.75a19.28,19.28,0,0,0-2.83-4.71l2.05-1a19,19,0,0,1,3,4.55Z"/><path class="d" d="M306.12,93.67V96H288.86V93.67h6.8V79.36h2.43v5.43h6.7v2.3h-6.7v6.58Z"/><path class="d" d="M241.6,166.39h7v2H232.46v-2h6.79v-2.3h-4.92v-2h4.92V160h-4v-1.64a24.21,24.21,0,0,1-2.42,1.43,9.66,9.66,0,0,0-1.38-1.83,21.44,21.44,0,0,0,6.25-4.12h-2.53v-2.09h6.5a17.2,17.2,0,0,0,7.9,6,11.06,11.06,0,0,0-1.52,2.07,18.93,18.93,0,0,1-2.39-1.35V160H241.6v2.16h5v2h-5ZM245,158a24.8,24.8,0,0,1-4.56-4.16,25.85,25.85,0,0,1-4.67,4.16Z"/><path class="d" d="M259.79,155.6c-.4.91-.78,1.9-1.16,2.69h2.22v2.06h-10v-2.06h2.43a14.2,14.2,0,0,0-.95-2.66l1.54-.37h-2.55v-2h3.59a13,13,0,0,0-.6-1.65l2.07-.59a20.66,20.66,0,0,1,.91,2.24h3.21v2h-2.22Zm-8.1,6.11h8.44v7H257.9V168h-4.06v.86h-2.15Zm2.15,2v2.32h4.06v-2.32Zm.45-8.47a13.28,13.28,0,0,1,1.05,2.71l-1.14.32h2.26a20.94,20.94,0,0,0,1.06-3Zm14.06-2.34c-.64,1.82-1.42,4-2.14,5.64A6.32,6.32,0,0,1,268,163a3.18,3.18,0,0,1-1,2.79,2.71,2.71,0,0,1-1.25.45,7,7,0,0,1-1.46,0,5.51,5.51,0,0,0-.55-2.09c.41,0,.79,0,1.06,0a1.27,1.27,0,0,0,.7-.19c.33-.19.44-.66.44-1.31a5.72,5.72,0,0,0-1.84-3.91c.53-1.39,1.12-3.33,1.56-4.77h-2.13V168.8h-2V152h4.9l.33-.08Z"/><path class="d" d="M279.6,161.37v1.69c0,2-1.14,4.43-8,6a8,8,0,0,0-1.55-1.84c6.51-1.18,7.08-2.93,7.08-4.2v-1.64Zm6-3v6.71h-2.46v-4.64H274v4.88H271.6v-7Zm-.85-6.52v5.3H272.4v-5.3Zm-10,3.38h7.44v-1.46h-7.44Zm5.49,9.43a63.19,63.19,0,0,1,6.74,2.39L285.85,169a59.7,59.7,0,0,0-6.68-2.64Z"/><path class="d" d="M306.16,165.29v2.28H288.89v-2.28h7.24v-9.83h-6.21v-2.35H305.1v2.35h-6.38v9.83Z"/></svg>