<?xml version="1.0" encoding="UTF-8"?><svg xmlns="http://www.w3.org/2000/svg" viewBox="0 0 800 480"><defs><style>.cls-1{fill:#0071bc;}.cls-2{fill:#e6e6e6;}.cls-3{fill:#98d5f4;}.cls-4{fill:#29abe2;}</style></defs><g id="_021"><g><path class="cls-1" d="M380.95,278.28l-23.52-167.35c7.39-1.04,16.05-1.64,23.52-1.64v168.99Z"/><path class="cls-4" d="M380.95,278.28l-157.77-60.56c22.74-59.25,71.4-97.95,134.25-106.79l23.52,167.35Z"/><path class="cls-3" d="M380.95,278.28l8.84-168.76c93.21,4.88,164.8,84.4,159.92,177.61s-84.4,164.8-177.61,159.92-164.8-84.4-159.92-177.61c.98-18.64,4.3-34.29,10.99-51.72l157.77,60.56Z"/><path class="cls-2" d="M380.95,278.28V109.28c3.73,0,5.12,.04,8.84,.23l-8.84,168.76Z"/></g></g><g id="Numbers"><g><path d="M387.53,83.41h-4.47v-10.01c0-.23,0-.56,.01-1.01s.02-.93,.03-1.43c0-.5,.02-.95,.04-1.35-.14,.17-.33,.38-.57,.61-.24,.23-.47,.44-.68,.61l-2.13,1.74-2.21-2.76,6.16-4.97h3.82v18.56Z"/><path d="M396.42,64.58c1.46,0,2.59,.51,3.41,1.52,.81,1.01,1.22,2.44,1.22,4.28s-.38,3.27-1.14,4.3c-.76,1.03-1.92,1.55-3.48,1.55-1.42,0-2.53-.52-3.33-1.55-.8-1.03-1.2-2.47-1.2-4.3s.37-3.26,1.12-4.28c.75-1.01,1.88-1.52,3.41-1.52Zm.05,2.86c-.4,0-.68,.25-.84,.75-.17,.5-.25,1.24-.25,2.21s.08,1.72,.25,2.24,.45,.78,.84,.78,.68-.26,.85-.78c.16-.52,.25-1.27,.25-2.24s-.08-1.71-.25-2.21c-.17-.5-.45-.75-.85-.75Zm13.57-2.6l-10.3,18.56h-3.38l10.3-18.56h3.38Zm-.1,7.15c1.46,0,2.59,.51,3.41,1.52s1.22,2.44,1.22,4.28-.38,3.27-1.14,4.3-1.92,1.55-3.48,1.55c-1.42,0-2.53-.52-3.33-1.55-.8-1.03-1.2-2.47-1.2-4.3s.37-3.26,1.12-4.28,1.88-1.52,3.41-1.52Zm.05,2.83c-.4,0-.68,.26-.84,.78-.17,.52-.25,1.26-.25,2.21s.08,1.69,.25,2.21c.16,.52,.45,.78,.84,.78,.73,0,1.09-1,1.09-2.99s-.36-2.99-1.09-2.99Z"/></g><g><path d="M208.02,139.41h-4.47v-10.01c0-.23,0-.56,.01-1.01s.02-.93,.03-1.43c0-.5,.02-.95,.04-1.35-.14,.17-.33,.38-.57,.61-.24,.23-.47,.44-.68,.61l-2.13,1.74-2.21-2.76,6.16-4.97h3.82v18.56Z"/><path d="M214.52,139.41l6.68-14.87h-8.63v-3.69h13.34v2.7l-6.79,15.86h-4.6Z"/><path d="M231.94,120.58c1.46,0,2.59,.51,3.41,1.52,.81,1.01,1.22,2.44,1.22,4.28s-.38,3.27-1.14,4.3c-.76,1.03-1.92,1.55-3.48,1.55-1.42,0-2.53-.52-3.33-1.55-.8-1.03-1.2-2.47-1.2-4.3s.37-3.26,1.12-4.28c.75-1.01,1.88-1.52,3.41-1.52Zm.05,2.86c-.4,0-.68,.25-.84,.75-.17,.5-.25,1.24-.25,2.21s.08,1.72,.25,2.24,.45,.78,.84,.78,.68-.26,.85-.78c.16-.52,.25-1.27,.25-2.24s-.08-1.71-.25-2.21c-.17-.5-.45-.75-.85-.75Zm13.57-2.6l-10.3,18.56h-3.38l10.3-18.56h3.38Zm-.1,7.15c1.46,0,2.59,.51,3.41,1.52s1.22,2.44,1.22,4.28-.38,3.27-1.14,4.3-1.92,1.55-3.48,1.55c-1.42,0-2.53-.52-3.33-1.55-.8-1.03-1.2-2.47-1.2-4.3s.37-3.26,1.12-4.28,1.88-1.52,3.41-1.52Zm.05,2.83c-.4,0-.68,.26-.84,.78-.17,.52-.25,1.26-.25,2.21s.08,1.69,.25,2.21c.16,.52,.45,.78,.84,.78,.73,0,1.09-1,1.09-2.99s-.36-2.99-1.09-2.99Z"/></g><g><path d="M332.34,94.41h-13.21v-2.99l4.6-4.65c.94-.97,1.68-1.77,2.24-2.39s.95-1.17,1.18-1.65c.23-.48,.35-.98,.35-1.52,0-.66-.2-1.14-.58-1.44-.39-.3-.88-.46-1.47-.46-.66,0-1.3,.17-1.94,.49s-1.32,.81-2.07,1.43l-2.42-2.83c.54-.48,1.11-.94,1.72-1.36,.61-.42,1.32-.77,2.14-1.04,.82-.27,1.82-.4,2.98-.4,1.25,0,2.32,.22,3.22,.66s1.59,1.04,2.08,1.79c.48,.75,.73,1.62,.73,2.59,0,1.04-.2,1.98-.6,2.83-.4,.85-.99,1.69-1.77,2.52-.78,.83-1.73,1.77-2.86,2.81l-1.92,1.77v.16h7.59v3.69Z"/><path d="M338.42,75.58c1.46,0,2.59,.51,3.41,1.52,.81,1.01,1.22,2.44,1.22,4.28s-.38,3.27-1.14,4.3c-.76,1.03-1.92,1.55-3.48,1.55-1.42,0-2.53-.52-3.33-1.55-.8-1.03-1.2-2.47-1.2-4.3s.37-3.26,1.12-4.28c.75-1.01,1.88-1.52,3.41-1.52Zm.05,2.86c-.4,0-.68,.25-.84,.75-.17,.5-.25,1.24-.25,2.21s.08,1.72,.25,2.24,.45,.78,.84,.78,.68-.26,.85-.78c.16-.52,.25-1.27,.25-2.24s-.08-1.71-.25-2.21c-.17-.5-.45-.75-.85-.75Zm13.57-2.6l-10.3,18.56h-3.38l10.3-18.56h3.38Zm-.1,7.15c1.46,0,2.59,.51,3.41,1.52s1.22,2.44,1.22,4.28-.38,3.27-1.14,4.3-1.92,1.55-3.48,1.55c-1.42,0-2.53-.52-3.33-1.55-.8-1.03-1.2-2.47-1.2-4.3s.37-3.26,1.12-4.28,1.88-1.52,3.41-1.52Zm.05,2.83c-.4,0-.68,.26-.84,.78-.17,.52-.25,1.26-.25,2.21s.08,1.69,.25,2.21c.16,.52,.45,.78,.84,.78,.73,0,1.09-1,1.09-2.99s-.36-2.99-1.09-2.99Z"/></g><g><path d="M559.25,369.61c1.14,0,2.17,.16,3.08,.49,.91,.33,1.63,.83,2.17,1.49,.54,.67,.81,1.5,.81,2.48,0,1.13-.31,2.05-.92,2.77-.62,.72-1.4,1.3-2.35,1.76,.62,.35,1.23,.75,1.81,1.2,.58,.45,1.06,.98,1.44,1.6,.38,.62,.57,1.33,.57,2.14,0,1.53-.58,2.76-1.73,3.71-1.15,.95-2.79,1.42-4.9,1.42s-3.86-.46-4.97-1.38c-1.11-.92-1.66-2.14-1.66-3.67,0-1.28,.33-2.3,1-3.05s1.5-1.37,2.48-1.86c-.8-.52-1.48-1.15-2.05-1.88-.57-.74-.86-1.66-.86-2.77,0-.97,.27-1.79,.82-2.46,.55-.67,1.28-1.17,2.2-1.49,.92-.33,1.94-.49,3.07-.49Zm-2.57,13.78c0,.61,.21,1.1,.64,1.48,.42,.38,1.04,.57,1.86,.57,.88,0,1.54-.18,1.96-.55s.64-.84,.64-1.43c0-.43-.12-.82-.38-1.16-.25-.34-.56-.63-.92-.88-.36-.25-.7-.47-1.01-.66l-.34-.21c-.71,.35-1.3,.75-1.75,1.2-.46,.45-.69,1-.69,1.64Zm2.55-10.58c-.54,0-.99,.15-1.35,.44-.36,.29-.55,.69-.55,1.2,0,.54,.19,.99,.56,1.35,.37,.36,.82,.68,1.34,.94,.49-.23,.93-.51,1.33-.86,.4-.35,.6-.82,.6-1.43,0-.5-.19-.9-.56-1.2-.37-.29-.83-.44-1.37-.44Z"/><path d="M580.83,379.13c0,1.99-.21,3.7-.64,5.12s-1.12,2.51-2.08,3.28-2.25,1.14-3.86,1.14c-2.29,0-3.96-.84-5-2.52-1.05-1.68-1.57-4.02-1.57-7.02,0-1.99,.21-3.71,.64-5.13,.42-1.43,1.12-2.53,2.08-3.29,.96-.76,2.25-1.14,3.86-1.14,2.27,0,3.93,.84,4.99,2.52,1.06,1.68,1.59,4.03,1.59,7.05Zm-8.76,0c0,1.99,.15,3.49,.46,4.49,.3,1,.88,1.5,1.73,1.5s1.43-.5,1.73-1.5c.3-1,.46-2.49,.46-4.49s-.15-3.47-.46-4.48c-.3-1.01-.88-1.52-1.73-1.52s-1.43,.51-1.73,1.52c-.3,1.01-.46,2.51-.46,4.48Z"/><path d="M586.94,369.58c1.46,0,2.59,.51,3.41,1.52,.81,1.01,1.22,2.44,1.22,4.28s-.38,3.27-1.14,4.3c-.76,1.03-1.92,1.55-3.48,1.55-1.42,0-2.53-.52-3.33-1.55-.8-1.03-1.2-2.46-1.2-4.3s.37-3.26,1.12-4.28c.75-1.01,1.88-1.52,3.41-1.52Zm.05,2.86c-.4,0-.68,.25-.84,.75-.17,.5-.25,1.24-.25,2.21s.08,1.72,.25,2.24c.17,.52,.45,.78,.84,.78s.68-.26,.85-.78c.16-.52,.25-1.26,.25-2.24s-.08-1.71-.25-2.21c-.17-.5-.45-.75-.85-.75Zm13.57-2.6l-10.3,18.56h-3.38l10.3-18.56h3.38Zm-.1,7.15c1.46,0,2.59,.51,3.41,1.52,.81,1.01,1.22,2.44,1.22,4.28s-.38,3.27-1.14,4.3-1.92,1.55-3.48,1.55c-1.42,0-2.53-.52-3.33-1.55-.8-1.03-1.2-2.46-1.2-4.3s.37-3.26,1.12-4.28c.75-1.01,1.88-1.52,3.41-1.52Zm.05,2.83c-.4,0-.68,.26-.84,.78-.17,.52-.25,1.26-.25,2.21s.08,1.69,.25,2.21c.16,.52,.45,.78,.84,.78,.73,0,1.09-1,1.09-2.99s-.36-2.99-1.09-2.99Z"/></g></g><g id="Labels-CHS"><g><path d="M384.54,49.42c-1.69,1.04-4.26,2.13-6.29,2.81-.21-.3-.63-.78-.93-1.08,2.05-.61,4.63-1.69,5.96-2.6l1.25,.87Zm9.75-1.22h-16.77v-1.31h3.48v-8.43h-2.94v-1.33h2.94v-2.18h1.39v2.18h7.03v-2.18h1.41v2.18h3.04v1.33h-3.04v8.43h3.48v1.31Zm-11.91-9.75v1.88h7.03v-1.88h-7.03Zm0,5.15h7.03v-2.05h-7.03v2.05Zm0,3.29h7.03v-2.07h-7.03v2.07Zm5.87,1.75c2.22,.78,4.64,1.82,6.1,2.62l-1.25,.93c-1.35-.8-3.59-1.84-5.79-2.66l.95-.89Z"/><path d="M401.83,35.4c-.53,1.41-1.22,2.83-1.98,4.14v12.69h-1.35v-10.62c-.59,.85-1.24,1.61-1.88,2.28-.13-.32-.53-1.04-.8-1.37,1.86-1.82,3.63-4.65,4.69-7.54l1.31,.42Zm9.04,15.41c1.14,0,1.35-.51,1.5-2.74,.34,.23,.89,.46,1.29,.53-.25,2.64-.68,3.48-2.75,3.48h-5c-2.24,0-2.91-.53-2.91-2.62v-6.23l-1.88,.72-.53-1.23,2.41-.95v-4.94h1.33v4.43l2.79-1.1v-5.21h1.29v4.71l3.15-1.22,.27-.21,1.04,.32-.06,.27c-.06,2.74-.25,6.36-.55,8.61l-1.16-.34c.19-1.79,.3-4.69,.34-7.16l-3.04,1.18v6.95h-1.29v-6.44l-2.79,1.1v6.74c0,1.1,.27,1.35,1.6,1.35h4.94Z"/></g><g><path d="M221.49,97.29v8.89h-1.44v-1.08h-5.45v6.16h-1.46v-6.16h-5.43v1.18h-1.39v-8.99h6.82v-3.38h1.46v3.38h6.9Zm-8.36,6.42v-5.03h-5.43v5.03h5.43Zm6.92,0v-5.03h-5.45v5.03h5.45Z"/><path d="M240.7,94.78v16.49h-1.46v-.95h-12.71v.95h-1.41v-16.49h15.58Zm-1.46,14.23v-12.92h-12.71v12.92h12.71Zm-1.1-2.94v1.2h-10.35v-1.2h4.37v-3.19h-3.57v-1.22h3.57v-2.7h-4.1v-1.27h9.71v1.27h-4.27v2.7h3.8v1.22h-3.8v3.19h4.65Zm-2.56-2.85c.7,.61,1.54,1.48,1.92,2.07l-.97,.57c-.36-.59-1.18-1.5-1.84-2.15l.89-.49Z"/></g><g><path d="M336.38,54.19v1.25h-7.92c-.06,.51-.13,1.01-.23,1.46h7.85v1.23h-8.19c-.89,2.6-2.93,4.22-7.9,5.07-.11-.36-.48-.95-.74-1.27,4.39-.63,6.25-1.84,7.1-3.8h-6.38v-1.23h6.78c.11-.46,.19-.95,.25-1.46h-7.45v-1.25h7.62v-1.6h-5.91v-1.23h5.91v-1.54h-6.95v-1.27h4.01c-.3-.66-.89-1.54-1.46-2.2l1.22-.49c.7,.72,1.37,1.71,1.67,2.39l-.68,.3h5c.57-.78,1.24-1.9,1.63-2.7l1.44,.44c-.46,.78-1.03,1.6-1.52,2.26h4.05v1.27h-6.99v1.54h6.08v1.23h-6.08v1.6h7.81Zm-7.77,4.16c2.6,.99,6.02,2.62,7.75,3.76l-.67,1.22c-1.67-1.18-5.07-2.89-7.69-3.93l.61-1.04Z"/><path d="M354.7,46.78v16.49h-1.46v-.95h-12.71v.95h-1.41v-16.49h15.58Zm-1.46,14.23v-12.92h-12.71v12.92h12.71Zm-1.1-2.94v1.2h-10.35v-1.2h4.37v-3.19h-3.57v-1.22h3.57v-2.7h-4.1v-1.27h9.71v1.27h-4.27v2.7h3.8v1.22h-3.8v3.19h4.65Zm-2.56-2.85c.7,.61,1.54,1.48,1.92,2.07l-.97,.57c-.36-.59-1.18-1.5-1.84-2.15l.89-.49Z"/></g><g><path d="M571.89,342.07c1.84,1.62,4.03,3.93,5.01,5.51l-1.2,.85c-.29-.49-.68-1.04-1.16-1.63-10.85,.61-11.95,.65-12.69,.91-.06-.3-.3-1.01-.46-1.39,.42-.08,.91-.49,1.54-1.12,.68-.61,2.89-3,4.37-5.36l1.39,.63c-1.5,2.05-3.19,4.01-4.86,5.58l9.69-.48c-.87-.99-1.84-1.97-2.75-2.79l1.12-.72Zm-9.02,7.24h12.08v7.9h-1.48v-.99h-9.18v1.03h-1.42v-7.94Zm1.42,1.35v4.2h9.18v-4.2h-9.18Z"/><path d="M581.24,348.99c-.4-.8-1.29-2.07-2.07-2.96l1.1-.63c.8,.87,1.73,2.07,2.15,2.91l-1.18,.68Zm-1.58,6.95c.63-1.44,1.48-3.91,2.11-6l1.14,.8c-.55,1.94-1.31,4.28-1.99,6l-1.25-.8Zm1.41-15.75c.82,.89,1.8,2.15,2.26,2.98l-1.18,.76c-.42-.84-1.37-2.15-2.18-3.08l1.1-.67Zm6.08,3.61c-.63,1.2-1.65,2.41-2.58,3.21-.21-.21-.72-.59-1.01-.74,.97-.74,1.86-1.77,2.39-2.81l1.2,.34Zm.63-.95h-3.36v-1.2h5.36c-.17-.53-.42-1.14-.68-1.63l1.27-.34c.36,.59,.68,1.37,.87,1.98h5.26v1.2h-4.07v4.54h-1.29v-4.54h-2.07v4.54h-1.29v-4.54Zm8.09,10.01s-.04,.4-.09,.59c-.38,2.03-.76,2.98-1.31,3.4-.34,.3-.7,.38-1.25,.4-.47,.04-1.42,.04-2.45-.04-.02-.36-.17-.86-.38-1.2,.97,.1,1.96,.11,2.34,.11,.34,0,.53-.02,.68-.15,.32-.25,.61-.82,.87-2h-9.57c.34-.97,.72-2.37,.95-3.53h8.11v-1.39h-9.06v-1.1h10.39v3.59h-8.32c-.11,.44-.23,.89-.34,1.31h9.44Zm-1.75-9.42c.95,.86,1.99,2,2.45,2.83l-1.06,.67c-.44-.84-1.48-2.05-2.41-2.91l1.03-.59Z"/></g></g></svg>