<?xml version="1.0" encoding="UTF-8"?><svg xmlns="http://www.w3.org/2000/svg" viewBox="0 0 800 480"><defs><style>.cls-1{fill:#0071bc;}.cls-2{fill:#e6e6e6;}.cls-3{fill:#999;}.cls-4{fill:#98d5f4;}.cls-5{fill:#333;}.cls-6{fill:#29abe2;}.cls-7{fill:none;stroke:gray;stroke-miterlimit:10;}</style></defs><g id="_021"><line class="cls-7" x1="339.01" y1="400.96" x2="339.01" y2="79.22"/><g><rect class="cls-2" x="339.01" y="307.66" width="319.99" height="57.91"/><rect class="cls-6" x="339.01" y="243.31" width="124.87" height="57.91"/><rect class="cls-4" x="339.01" y="178.96" width="148.29" height="57.91"/><rect class="cls-1" x="339.01" y="114.62" width="171.7" height="57.91"/></g></g><g id="Numbers"><g><path d="M690.83,146.41h-13.21v-2.99l4.6-4.65c.94-.97,1.68-1.77,2.24-2.39s.95-1.17,1.18-1.65c.23-.48,.35-.98,.35-1.52,0-.66-.2-1.14-.58-1.44-.39-.3-.88-.46-1.47-.46-.66,0-1.3,.17-1.94,.49s-1.32,.81-2.07,1.43l-2.42-2.83c.54-.48,1.11-.94,1.72-1.36,.61-.42,1.32-.77,2.14-1.04,.82-.27,1.82-.4,2.98-.4,1.25,0,2.32,.22,3.22,.66s1.59,1.04,2.08,1.79c.48,.75,.73,1.62,.73,2.59,0,1.04-.2,1.98-.6,2.83-.4,.85-.99,1.69-1.77,2.52-.78,.83-1.73,1.77-2.86,2.81l-1.92,1.77v.16h7.59v3.69Z"/><path d="M705.85,146.41h-13.21v-2.99l4.6-4.65c.94-.97,1.68-1.77,2.24-2.39s.95-1.17,1.18-1.65c.23-.48,.35-.98,.35-1.52,0-.66-.2-1.14-.58-1.44-.39-.3-.88-.46-1.47-.46-.66,0-1.3,.17-1.94,.49s-1.32,.81-2.07,1.43l-2.42-2.83c.54-.48,1.11-.94,1.72-1.36,.61-.42,1.32-.77,2.14-1.04,.82-.27,1.82-.4,2.98-.4,1.25,0,2.32,.22,3.22,.66s1.59,1.04,2.08,1.79c.48,.75,.73,1.62,.73,2.59,0,1.04-.2,1.98-.6,2.83-.4,.85-.99,1.69-1.77,2.52-.78,.83-1.73,1.77-2.86,2.81l-1.92,1.77v.16h7.59v3.69Z"/><path d="M711.94,127.58c1.46,0,2.59,.51,3.41,1.52,.81,1.01,1.22,2.44,1.22,4.28s-.38,3.27-1.14,4.3c-.76,1.03-1.92,1.55-3.48,1.55-1.42,0-2.53-.52-3.33-1.55-.8-1.03-1.2-2.47-1.2-4.3s.37-3.26,1.12-4.28c.75-1.01,1.88-1.52,3.41-1.52Zm.05,2.86c-.4,0-.68,.25-.84,.75-.17,.5-.25,1.24-.25,2.21s.08,1.72,.25,2.24,.45,.78,.84,.78,.68-.26,.85-.78c.16-.52,.25-1.27,.25-2.24s-.08-1.71-.25-2.21c-.17-.5-.45-.75-.85-.75Zm13.57-2.6l-10.3,18.56h-3.38l10.3-18.56h3.38Zm-.1,7.15c1.46,0,2.59,.51,3.41,1.52s1.22,2.44,1.22,4.28-.38,3.27-1.14,4.3-1.92,1.55-3.48,1.55c-1.42,0-2.53-.52-3.33-1.55-.8-1.03-1.2-2.47-1.2-4.3s.37-3.26,1.12-4.28,1.88-1.52,3.41-1.52Zm.05,2.83c-.4,0-.68,.26-.84,.78-.17,.52-.25,1.26-.25,2.21s.08,1.69,.25,2.21c.16,.52,.45,.78,.84,.78,.73,0,1.09-1,1.09-2.99s-.36-2.99-1.09-2.99Z"/></g><g><path d="M688.02,213.74h-4.47v-10.01c0-.23,0-.56,.01-1.01s.02-.93,.03-1.43c0-.5,.02-.95,.04-1.35-.14,.17-.33,.38-.57,.61-.24,.23-.47,.44-.68,.61l-2.13,1.74-2.21-2.76,6.16-4.97h3.82v18.56Z"/><path d="M705.85,203.21c0,1.47-.15,2.86-.46,4.17-.3,1.31-.82,2.46-1.53,3.44-.72,.99-1.69,1.76-2.91,2.33-1.22,.56-2.75,.84-4.59,.84-.36,0-.79-.01-1.29-.04-.49-.03-.91-.07-1.23-.12v-3.54c.71,.16,1.47,.23,2.29,.23,1.47,0,2.61-.22,3.42-.66,.81-.44,1.37-1.06,1.7-1.86,.33-.8,.52-1.72,.57-2.76h-.16c-.35,.61-.81,1.12-1.38,1.53-.57,.42-1.42,.62-2.55,.62-1.58,0-2.83-.52-3.77-1.56-.94-1.04-1.4-2.51-1.4-4.42,0-2.03,.57-3.62,1.72-4.77,1.14-1.15,2.71-1.73,4.71-1.73,1.28,0,2.44,.29,3.48,.88,1.04,.59,1.86,1.5,2.47,2.72,.61,1.22,.91,2.78,.91,4.67Zm-6.76-4.73c-.68,0-1.22,.23-1.64,.7-.42,.47-.62,1.21-.62,2.21,0,.81,.18,1.46,.55,1.92,.36,.47,.92,.7,1.66,.7s1.29-.25,1.74-.74c.45-.49,.68-1.02,.68-1.57,0-.52-.09-1.03-.26-1.52s-.43-.9-.78-1.22-.79-.48-1.33-.48Z"/><path d="M711.94,194.92c1.46,0,2.59,.51,3.41,1.52,.81,1.01,1.22,2.44,1.22,4.28s-.38,3.27-1.14,4.3c-.76,1.03-1.92,1.55-3.48,1.55-1.42,0-2.53-.52-3.33-1.55-.8-1.03-1.2-2.47-1.2-4.3s.37-3.26,1.12-4.28c.75-1.01,1.88-1.52,3.41-1.52Zm.05,2.86c-.4,0-.68,.25-.84,.75-.17,.5-.25,1.24-.25,2.21s.08,1.72,.25,2.24,.45,.78,.84,.78,.68-.26,.85-.78c.16-.52,.25-1.27,.25-2.24s-.08-1.71-.25-2.21c-.17-.5-.45-.75-.85-.75Zm13.57-2.6l-10.3,18.56h-3.38l10.3-18.56h3.38Zm-.1,7.15c1.46,0,2.59,.51,3.41,1.52s1.22,2.44,1.22,4.28-.38,3.27-1.14,4.3-1.92,1.55-3.48,1.55c-1.42,0-2.53-.52-3.33-1.55-.8-1.03-1.2-2.47-1.2-4.3s.37-3.26,1.12-4.28,1.88-1.52,3.41-1.52Zm.05,2.83c-.4,0-.68,.26-.84,.78-.17,.52-.25,1.26-.25,2.21s.08,1.69,.25,2.21c.16,.52,.45,.78,.84,.78,.73,0,1.09-1,1.09-2.99s-.36-2.99-1.09-2.99Z"/></g><g><path d="M688.02,281.08h-4.47v-10.01c0-.23,0-.56,.01-1.01,0-.45,.02-.93,.03-1.43s.02-.95,.04-1.35c-.14,.17-.33,.38-.57,.61s-.47,.44-.68,.61l-2.13,1.74-2.21-2.76,6.16-4.97h3.82v18.56Z"/><path d="M692.65,273.2c0-1.06,.08-2.12,.23-3.17,.16-1.06,.43-2.05,.82-2.98,.39-.93,.94-1.75,1.65-2.47,.71-.72,1.62-1.28,2.73-1.69,1.11-.41,2.46-.61,4.06-.61,.36,0,.8,.02,1.31,.05,.51,.04,.93,.09,1.26,.16v3.48c-.35-.07-.72-.12-1.13-.17-.41-.04-.86-.06-1.37-.06-1.4,0-2.5,.22-3.28,.65-.78,.43-1.34,1.05-1.68,1.85-.34,.8-.53,1.73-.58,2.78h.16c.35-.61,.82-1.12,1.43-1.53,.61-.42,1.41-.62,2.42-.62,1.63,0,2.91,.52,3.85,1.56s1.4,2.5,1.4,4.39c0,2.06-.58,3.67-1.73,4.81-1.15,1.14-2.72,1.72-4.69,1.72-1.3,0-2.47-.29-3.5-.87-1.03-.58-1.85-1.47-2.46-2.68-.61-1.21-.91-2.73-.91-4.59Zm6.79,4.6c.66,0,1.19-.23,1.6-.7,.41-.47,.61-1.2,.61-2.21,0-.8-.17-1.43-.52-1.9-.35-.47-.89-.7-1.64-.7s-1.36,.24-1.79,.73c-.43,.49-.65,1.01-.65,1.59,0,.5,.09,1,.26,1.5,.17,.49,.44,.9,.79,1.22,.35,.32,.8,.48,1.34,.48Z"/><path d="M711.94,262.25c1.46,0,2.59,.51,3.41,1.52,.81,1.01,1.22,2.44,1.22,4.28s-.38,3.27-1.14,4.3c-.76,1.03-1.92,1.55-3.48,1.55-1.42,0-2.53-.52-3.33-1.55-.8-1.03-1.2-2.46-1.2-4.3s.37-3.26,1.12-4.28c.75-1.01,1.88-1.52,3.41-1.52Zm.05,2.86c-.4,0-.68,.25-.84,.75s-.25,1.24-.25,2.21,.08,1.72,.25,2.24c.17,.52,.45,.78,.84,.78s.68-.26,.85-.78c.16-.52,.25-1.26,.25-2.24s-.08-1.71-.25-2.21c-.17-.5-.45-.75-.85-.75Zm13.57-2.6l-10.3,18.56h-3.38l10.3-18.56h3.38Zm-.1,7.15c1.46,0,2.59,.51,3.41,1.52,.81,1.01,1.22,2.44,1.22,4.28s-.38,3.27-1.14,4.3-1.92,1.55-3.48,1.55c-1.42,0-2.53-.52-3.33-1.55-.8-1.03-1.2-2.46-1.2-4.3s.37-3.26,1.12-4.28c.75-1.01,1.88-1.52,3.41-1.52Zm.05,2.83c-.4,0-.68,.26-.84,.78-.17,.52-.25,1.26-.25,2.21s.08,1.69,.25,2.21c.16,.52,.45,.78,.84,.78,.73,0,1.09-1,1.09-2.99s-.36-2.99-1.09-2.99Z"/></g><g><path d="M691.32,344.69h-2.13v3.72h-4.34v-3.72h-7.7v-3.17l7.96-11.67h4.08v11.46h2.13v3.38Zm-6.47-3.38v-2.68c0-.35,0-.77,.03-1.27,.02-.5,.03-.96,.05-1.38s.04-.68,.05-.78h-.13c-.16,.36-.31,.69-.47,.97-.16,.29-.35,.6-.57,.95l-2.78,4.19h3.82Z"/><path d="M703.04,348.41h-4.47v-10.01c0-.23,0-.56,.01-1.01,0-.45,.02-.93,.03-1.43,0-.5,.02-.95,.04-1.35-.14,.17-.33,.38-.57,.61-.24,.23-.47,.44-.68,.61l-2.13,1.74-2.21-2.76,6.16-4.96h3.82v18.56Z"/><path d="M711.94,329.58c1.46,0,2.59,.51,3.41,1.52,.81,1.01,1.22,2.44,1.22,4.28s-.38,3.27-1.14,4.3c-.76,1.03-1.92,1.55-3.48,1.55-1.42,0-2.53-.52-3.33-1.55-.8-1.03-1.2-2.46-1.2-4.3s.37-3.26,1.12-4.28c.75-1.01,1.88-1.52,3.41-1.52Zm.05,2.86c-.4,0-.68,.25-.84,.75-.17,.5-.25,1.24-.25,2.21s.08,1.72,.25,2.24c.17,.52,.45,.78,.84,.78s.68-.26,.85-.78c.16-.52,.25-1.26,.25-2.24s-.08-1.71-.25-2.21c-.17-.5-.45-.75-.85-.75Zm13.57-2.6l-10.3,18.56h-3.38l10.3-18.56h3.38Zm-.1,7.15c1.46,0,2.59,.51,3.41,1.52,.81,1.01,1.22,2.44,1.22,4.28s-.38,3.27-1.14,4.3-1.92,1.55-3.48,1.55c-1.42,0-2.53-.52-3.33-1.55-.8-1.03-1.2-2.46-1.2-4.3s.37-3.26,1.12-4.28c.75-1.01,1.88-1.52,3.41-1.52Zm.05,2.83c-.4,0-.68,.26-.84,.78-.17,.52-.25,1.26-.25,2.21s.08,1.69,.25,2.21c.16,.52,.45,.78,.84,.78,.73,0,1.09-1,1.09-2.99s-.36-2.99-1.09-2.99Z"/></g></g><g id="Labels-CHS"><g><path class="cls-5" d="M247.29,151.39h7.03v2.01h-16.17v-2.01h6.78v-2.3h-4.92v-1.96h4.92v-2.17h-3.99v-1.63c-.82,.55-1.63,1.03-2.41,1.42-.32-.55-.87-1.33-1.39-1.82,2.11-.85,4.46-2.43,6.25-4.12h-2.53v-2.09h6.5c1.63,2.39,4.67,4.79,7.9,5.97-.48,.49-1.18,1.42-1.52,2.07-.82-.38-1.61-.84-2.39-1.35v1.56h-4.07v2.17h4.98v1.96h-4.98v2.3Zm3.42-8.42c-1.75-1.23-3.32-2.7-4.56-4.16-1.25,1.46-2.94,2.94-4.67,4.16h9.23Z"/><path class="cls-5" d="M265.47,140.6c-.4,.91-.78,1.9-1.16,2.7h2.22v2.05h-10.03v-2.05h2.43c-.19-.78-.55-1.86-.95-2.66l1.54-.38h-2.55v-2.03h3.59c-.15-.55-.38-1.14-.61-1.65l2.07-.59c.34,.7,.68,1.56,.91,2.24h3.21v2.03h-2.22l1.54,.34Zm-8.09,6.12h8.43v7.05h-2.22v-.76h-4.07v.85h-2.15v-7.14Zm2.15,2.01v2.32h4.07v-2.32h-4.07Zm.46-8.47c.46,.85,.85,1.98,1.04,2.72l-1.14,.32h2.26c.4-.89,.82-2.11,1.06-3.04h-3.23Zm14.06-2.34c-.65,1.82-1.42,4.01-2.15,5.64,1.52,1.71,1.8,3.21,1.8,4.45,0,1.37-.3,2.3-1.01,2.79-.34,.25-.76,.38-1.25,.46-.42,.06-.97,.08-1.46,.04-.04-.59-.21-1.48-.55-2.09,.42,.04,.8,.04,1.06,.04s.49-.06,.7-.19c.32-.19,.44-.67,.44-1.31,0-1.03-.4-2.39-1.84-3.91,.53-1.39,1.12-3.32,1.56-4.77h-2.13v14.74h-1.98v-16.77h4.9l.32-.08,1.58,.97Z"/><path class="cls-5" d="M285.29,146.37v1.69c0,2.01-1.14,4.43-8,5.98-.29-.49-.99-1.37-1.56-1.84,6.52-1.18,7.09-2.93,7.09-4.2v-1.63h2.47Zm6-2.96v6.71h-2.47v-4.64h-9.18v4.88h-2.36v-6.95h14Zm-.85-6.52v5.3h-12.35v-5.3h12.35Zm-9.97,3.38h7.45v-1.46h-7.45v1.46Zm5.49,9.42c2.03,.59,5.15,1.67,6.74,2.39l-1.16,1.92c-1.48-.74-4.52-1.94-6.69-2.64l1.1-1.67Z"/><path class="cls-5" d="M311.85,150.29v2.28h-17.27v-2.28h7.24v-9.82h-6.21v-2.36h15.18v2.36h-6.38v9.82h7.45Z"/><path class="cls-5" d="M229.32,209.57c-.08,.61-.11,1.5-.08,1.99-4.69,.91-5.49,1.14-6,1.42-.11-.44-.47-1.52-.74-2.11,.53-.11,.97-.51,1.62-1.2,.29-.28,.85-.95,1.5-1.79-1.71,.21-2.2,.32-2.51,.48-.11-.42-.48-1.52-.72-2.09,.38-.11,.72-.49,1.14-1.12,.42-.61,1.73-2.94,2.41-5.11l2.13,.99c-.74,1.71-1.79,3.5-2.83,4.98l1.79-.13c.42-.63,.82-1.29,1.14-1.94l1.98,1.27c-1.04,1.67-2.32,3.38-3.65,4.83l2.83-.47Zm0,5.66c-2.17,.65-4.48,1.27-6.29,1.77l-.44-2.26c1.65-.28,4.08-.89,6.48-1.46l.25,1.96Zm9.92-5.59c-.95-.68-2.79-1.67-4.43-2.43-1.42,.99-3.04,1.77-4.69,2.36-.29-.59-.87-1.46-1.35-1.94,2.81-.84,5.57-2.47,7.22-4.52h-5.95v-2.05h7.43l.42-.1,1.6,.84c-.7,1.54-1.71,2.87-2.91,4.01,1.48,.65,3.1,1.41,3.99,2.01l-1.33,1.82Zm-3.34,5.72h4.45v2.09h-11.27v-2.09h4.54v-3.5h-3.4v-2.05h9.18v2.05h-3.5v3.5Z"/><path class="cls-5" d="M248.18,214.08c-2.09,.74-4.37,1.46-6.19,2.05l-.51-2.3c.67-.17,1.44-.38,2.32-.63v-4.46h-1.92v-2.07h1.92v-3.34h-2.09v-2.11h6.27v2.11h-2.03v3.34h1.71v2.07h-1.71v3.8c.63-.19,1.25-.38,1.86-.59l.38,2.13Zm11.28,1.16v2.05h-12.21v-2.05h5.24v-1.8h-3.93v-2.03h3.93v-1.63h-3.8v-8.83h9.92v8.83h-3.82v1.63h4.03v2.03h-4.03v1.8h4.67Zm-8.74-10.81h1.96v-1.58h-1.96v1.58Zm0,3.42h1.96v-1.63h-1.96v1.63Zm5.74-5h-1.88v1.58h1.88v-1.58Zm0,3.36h-1.88v1.63h1.88v-1.63Z"/><path class="cls-5" d="M263.21,212.9c-.13,1.67-.44,3.48-.84,4.64-.38-.21-1.22-.48-1.69-.59,.46-1.12,.67-2.81,.78-4.33l1.75,.28Zm-2.51-7.26c.38-.11,.7-.46,1.1-1.03,.38-.51,1.58-2.6,2.26-4.58l2.07,.84c-.68,1.54-1.6,3.15-2.56,4.48l1.33-.1c.49-.8,.99-1.65,1.37-2.51l1.88,1.2c-1.08,1.94-2.49,3.89-3.95,5.53l1.99-.28c-.17-.46-.34-.89-.53-1.27l1.52-.57c.61,1.2,1.2,2.75,1.37,3.78l-1.65,.67c-.04-.27-.09-.59-.19-.93-4.03,.72-4.73,.87-5.15,1.12-.11-.4-.46-1.44-.72-1.99,.51-.13,.93-.55,1.54-1.25,.25-.27,.7-.8,1.24-1.54-1.48,.17-1.92,.28-2.2,.44-.11-.44-.46-1.42-.7-1.99Zm4.48,6.84c.23,1.22,.44,2.77,.49,3.78l-1.63,.42c-.02-1.03-.21-2.62-.4-3.82l1.54-.38Zm12.84-5.81c-.47,2.85-1.33,5.24-2.53,7.14,.82,.89,1.79,1.6,2.91,2.09-.49,.42-1.16,1.27-1.5,1.88-1.06-.55-1.98-1.27-2.75-2.17-.82,.91-1.71,1.65-2.72,2.28-.34-.53-.93-1.29-1.42-1.69,1.03-.57,1.98-1.39,2.79-2.41-.57-.97-1.06-2.09-1.48-3.27-.38,2.89-1.06,5.34-2.34,7.26-.34-.36-1.41-1.12-1.94-1.41,.3-.4,.57-.85,.8-1.33l-1.31,.47c-.15-.8-.53-2.09-.87-3.06l1.5-.49c.32,.85,.67,1.9,.87,2.7,1.27-2.91,1.54-6.95,1.56-11.61h-1.58v-2.13h6.46l.32-.09,1.58,.21c-.19,1.63-.53,3.55-.85,5.21h.7l.36-.08,1.44,.49Zm-6.25-3.61c-.02,1.1-.06,2.17-.09,3.19h1.73c.21-1.01,.4-2.18,.55-3.19h-2.19Zm.82,5.21c.34,1.29,.84,2.53,1.48,3.61,.59-1.08,1.06-2.3,1.41-3.61h-2.89Z"/><path class="cls-5" d="M287.76,212.52c-2.51,1.12-5.32,2.32-7.47,3.21l-.76-2.41c.72-.25,1.58-.55,2.53-.93l-.38-11.09,2.36-.1,.34,10.28c.95-.4,1.92-.8,2.87-1.18l.51,2.22Zm7.87,5.34c-.7-1.23-2.15-2.98-3.55-4.58-1.39,1.98-3.27,3.5-5.78,4.62-.32-.49-1.25-1.52-1.8-1.99,6.02-2.28,7.98-6.88,8.68-14.69l2.49,.23c-.4,3.89-1.08,7.07-2.32,9.65,1.58,1.63,3.34,3.55,4.22,4.88l-1.94,1.88Zm-7.12-9.75c-.47-1.31-1.69-3.31-2.83-4.71l2.05-1.03c1.24,1.39,2.43,3.25,3,4.56l-2.22,1.18Z"/><path class="cls-5" d="M316.12,214.67v2.28h-17.27v-2.28h6.8v-14.31h2.43v5.43h6.71v2.3h-6.71v6.57h8.04Z"/><path class="cls-5" d="M245.96,267.08c-.25,1.27-.59,2.56-1.01,3.78h3.55v8.74h-3.63v1.39h-1.88v-5.91c-.25,.36-.51,.72-.78,1.04-.08-.61-.46-2.05-.76-2.7,1.16-1.56,1.94-3.86,2.41-6.35h-2.01v-2.05h6.9v2.05h-2.79Zm.63,5.77h-1.71v4.75h1.71v-4.75Zm12.77,1.14h-1.99v7.9h-2.15v-7.9h-2.17c-.11,2.79-.67,5.96-2.62,8.04-.38-.4-1.2-1.03-1.71-1.31,1.63-1.77,2.11-4.41,2.22-6.73h-1.77v-2.13h1.8v-4.69h-1.31v-2.09h9.31v2.09h-1.61v4.69h1.99v2.13Zm-4.14-2.13v-4.69h-2.13v4.69h2.13Z"/><path class="cls-5" d="M276.72,272.51c-.76,2.36-1.98,4.2-3.53,5.62,1.5,.8,3.27,1.39,5.34,1.73-.49,.49-1.1,1.42-1.41,2.05-2.32-.48-4.24-1.25-5.85-2.32-1.63,1.04-3.51,1.79-5.57,2.32-.25-.61-.76-1.48-1.18-1.99,1.79-.38,3.44-.99,4.9-1.82-.8-.76-1.46-1.61-2.05-2.58-1.29,1.99-3.02,3.63-5.32,4.92-.3-.49-1.1-1.42-1.65-1.82,3.36-1.8,5.4-4.64,6.63-8.3h-2.47c-1.03,0-1.82,.15-1.99,.44-.13-.48-.49-1.5-.74-2.05,.29-.1,.57-.36,.82-.78,.25-.4,.95-1.88,1.31-3.36l2.39,.38c-.32,1.08-.82,2.24-1.33,3.21h2.62c.3-1.29,.55-2.68,.72-4.14l2.53,.42c-.17,1.29-.38,2.55-.63,3.72h7.62v2.17h-8.17c-.17,.55-.34,1.04-.53,1.56h5.55l.42-.09,1.58,.74Zm-7.88,1.54c.65,1.04,1.44,1.98,2.39,2.77,.93-.8,1.69-1.73,2.28-2.77h-4.67Zm6.02-6.06c-.48-.7-1.46-1.88-2.2-2.74l1.75-1.04c.74,.8,1.77,1.9,2.28,2.6l-1.82,1.18Z"/><path class="cls-5" d="M297.16,278.29v2.28h-17.27v-2.28h7.24v-9.82h-6.21v-2.36h15.18v2.36h-6.38v9.82h7.45Z"/><path class="cls-5" d="M304.57,276.75c-.25-.63-.72-1.56-1.18-2.41v7.56h-2.15v-7.07c-.55,1.58-1.18,3.06-1.88,4.1-.19-.68-.67-1.67-.97-2.24,.89-1.25,1.79-3.27,2.34-5.09h-2.09v-2.11h2.6v-2.28c-.61,.11-1.22,.23-1.79,.3-.09-.51-.36-1.27-.61-1.75,1.94-.34,4.08-.91,5.49-1.58l1.2,1.86c-.67,.27-1.39,.49-2.15,.68v2.75h2.13v2.11h-2.13v.3c.49,.55,2.03,2.53,2.38,3l-1.2,1.84Zm11.63,2.75v2.01h-10.98v-2.01h4.58v-1.73h-3.61v-1.94h3.61v-1.54c-1.01,.08-2.03,.13-2.98,.17-.08-.49-.32-1.25-.55-1.71,2.74-.17,5.83-.53,7.75-1.03l1.39,1.71c-1.01,.25-2.17,.44-3.36,.61v1.79h3.4v1.94h-3.4v1.73h4.16Zm-.91-8.02h-9v-6.54h9v6.54Zm-2.18-4.64h-4.73v2.74h4.73v-2.74Z"/><path class="cls-5" d="M154.49,342.74v2.26h-16.98v-2.26h4.9v-14.36h2.34v14.36h2.49v-14.36h2.34v10.47c.95-1.8,2.09-4.5,2.72-6.67l2.03,.97c-.83,2.39-2.03,5.07-3.02,6.9l-1.73-.87v3.57h4.92Zm-14.48-2.81c-.42-1.82-1.41-4.86-2.28-7.2l2.07-.61c.89,2.22,2,5.21,2.47,7.01l-2.26,.8Z"/><path class="cls-5" d="M172.56,330.75c-1.14,1.65-2.77,2.94-4.73,3.95,1.8,.4,3.86,.63,6.06,.72-.46,.49-.97,1.39-1.25,1.98-2.91-.21-5.49-.67-7.64-1.46-2.43,.84-5.11,1.37-7.79,1.69-.15-.57-.53-1.46-.87-1.98,2.07-.17,4.14-.49,6.04-.99-.74-.44-1.39-.97-1.99-1.58-.65,.46-1.35,.91-2.15,1.31-.27-.53-.89-1.39-1.31-1.75,2.68-1.22,4.45-2.93,5.42-4.54l2.3,.47c-.28,.46-.59,.91-.93,1.35h7.11l.32-.09,1.42,.91Zm-.23,7.9s-.06,.61-.11,.91c-.42,3.23-.89,4.75-1.6,5.36-.55,.51-1.16,.67-2.01,.7-.7,.04-1.92,.04-3.17-.02-.04-.59-.32-1.41-.7-1.94,1.23,.11,2.6,.13,3.17,.13,.4,0,.67-.02,.91-.21,.38-.3,.74-1.23,1.03-3.02h-5.07c-1.29,2.77-3.53,4.31-6.97,5.26-.23-.48-.89-1.42-1.31-1.86,2.77-.57,4.69-1.6,5.79-3.4h-4.54v-1.92h5.38c.11-.51,.23-1.03,.3-1.61l2.34,.19c-.09,.51-.19,.97-.32,1.42h6.9Zm-10.49-6.72c.78,.8,1.82,1.44,3.13,1.96,1.52-.55,2.85-1.23,3.89-2.07h-6.9l-.13,.11Z"/><path class="cls-5" d="M182.33,338.43l-2.03,1.75c-1.16-1.42-2.77-3.06-4.08-4.18l1.98-1.73c1.35,1.1,3.17,2.98,4.14,4.16Z"/><path class="cls-5" d="M202.24,335.6v2.45h-17.48v-2.45h17.48Z"/><path class="cls-5" d="M220.93,336.49c-.49,2.45-1.37,4.33-2.55,5.79,.91,.65,2,1.14,3.17,1.5-.49,.44-1.14,1.29-1.44,1.88-1.27-.46-2.38-1.04-3.34-1.82-1.08,.85-2.34,1.46-3.72,1.9-.25-.49-.85-1.39-1.27-1.77-.08,.68-.32,1.06-.84,1.35-.63,.32-1.58,.34-2.93,.34-.06-.53-.34-1.41-.59-1.92,.8,.04,1.71,.04,2,.04,.27-.02,.36-.1,.36-.38v-5.51c-1.01,.11-2.03,.23-2.98,.32-.11,2.58-.49,5.57-1.46,7.67-.38-.34-1.27-.95-1.73-1.14,.8-1.82,1.1-4.16,1.2-6.35l-1.04,.11-.19-2.05,1.29-.08v-6.29h1.98c.21-.67,.42-1.42,.51-2.03l2.28,.27c-.27,.65-.51,1.24-.72,1.77h2.89v5.76l.38-.04,.04,1.77-.42,.06v5.78c0,.19,0,.36-.02,.53,1.33-.36,2.47-.87,3.48-1.54-1.03-1.14-1.82-2.49-2.47-4.03l1.2-.36h-1.33v-1.98h6.63l.36-.06,1.29,.49Zm-12.69,5.68c-.3-.78-.91-2-1.46-2.91l1.41-.68c.59,.86,1.22,2.01,1.54,2.75l-1.48,.84Zm-1.39-5.91c.91-.08,1.92-.15,2.93-.23v-4.16h-2.93v1.18l1.29-.65c.55,.8,1.16,1.84,1.46,2.53l-1.44,.8c-.27-.66-.82-1.69-1.31-2.51v3.04Zm8.38-4.6c0,1.48-.27,3.21-1.75,4.22-.32-.38-1.22-1.14-1.65-1.42,1.22-.8,1.33-1.84,1.33-2.85v-2.6h6.29v3.69c0,.51,.02,.7,.25,.7h.7c.23,0,.65-.04,.89-.13,.04,.55,.08,1.27,.15,1.79-.27,.11-.68,.13-1.04,.13h-.93c-1.77,0-2.11-.76-2.11-2.53v-1.73h-2.13v.74Zm-.36,6.36c.47,1.08,1.12,2.09,1.96,2.95,.68-.8,1.24-1.79,1.6-2.95h-3.55Z"/><path class="cls-5" d="M228.54,336.19c.76,.76,2.47,2.75,2.89,3.27l-1.29,1.88c-.36-.65-.97-1.6-1.6-2.49v7.01h-2.28v-6.76c-.76,1.79-1.65,3.42-2.66,4.54-.21-.67-.76-1.56-1.14-2.13,1.29-1.37,2.51-3.55,3.25-5.64h-2.83v-2.09h3.38v-2.47c-.93,.15-1.84,.29-2.72,.4-.09-.51-.36-1.27-.61-1.77,2.47-.34,5.24-.95,6.97-1.63l1.46,1.77c-.84,.3-1.82,.57-2.83,.8v2.91h2.75v2.09h-2.75v.32Zm10.85-6.27v14.91h-2.34v-1.37h-3.04v1.5h-2.22v-15.05h7.6Zm-2.34,11.38v-9.21h-3.04v9.21h3.04Z"/><path class="cls-5" d="M247.71,341.79l1.8,1.42c-1.71,.99-4.29,2.03-6.31,2.64-.34-.47-.97-1.23-1.46-1.67,1.96-.53,4.45-1.56,5.79-2.39h-5.55v-2.07h3.21v-7.62h-2.64v-2.07h2.64v-1.84h2.24v1.84h5.98v-1.84h2.3v1.84h2.77v2.07h-2.77v7.62h3.25v2.07h-11.27Zm-.27-9.69v1.18h5.98v-1.18h-5.98Zm0,4.33h5.98v-1.27h-5.98v1.27Zm0,3.29h5.98v-1.39h-5.98v1.39Zm5.6,2.2c2.15,.74,4.6,1.75,6.02,2.47l-2.17,1.42c-1.22-.72-3.38-1.75-5.47-2.51l1.62-1.39Z"/><path class="cls-5" d="M266.75,328.87c-.51,1.35-1.16,2.72-1.88,4.05v12.92h-2.17v-9.58c-.4,.51-.8,.97-1.18,1.39-.21-.55-.84-1.8-1.24-2.36,1.73-1.71,3.38-4.39,4.33-7.1l2.13,.68Zm8.23,14.8c1.12,0,1.33-.47,1.46-2.6,.51,.34,1.41,.7,2,.84-.29,2.83-.95,3.78-3.29,3.78h-4.31c-2.64,0-3.4-.68-3.4-3.32v-5.32l-1.44,.57-.85-1.99,2.3-.89v-4.48h2.13v3.63l1.9-.74v-4.92h2.03v4.12l2.55-.99,.19-.13,1.69,.51-.08,.36c-.09,2.72-.34,6.29-.76,8.64l-1.86-.53c.21-1.6,.34-4.1,.42-6.42l-2.15,.87v6.72h-2.03v-5.95l-1.9,.78v6.16c0,1.12,.19,1.31,1.44,1.31h3.97Z"/><path class="cls-5" d="M295.81,343.33c0,1.23-.3,1.84-1.18,2.2-.87,.34-2.18,.38-4.07,.38-.11-.63-.53-1.6-.85-2.18,1.33,.08,2.89,.06,3.31,.06,.4-.02,.55-.13,.55-.49v-1.5h-9.5c-.49,1.58-1.41,3.08-2.96,4.18-.3-.44-1.14-1.27-1.6-1.58,2.72-1.92,2.98-4.71,2.98-7.01v-2.83c-.32,.29-.67,.55-1.01,.82-.34-.53-1.1-1.33-1.6-1.65,2.41-1.63,4.05-3.8,4.94-5.66l2.41,.42c-.11,.23-.25,.48-.38,.7h3.76l.36-.09,1.54,1.01c-.42,.74-.97,1.58-1.54,2.36h4.83v10.89Zm-11.15-5.28c-.02,.59-.06,1.2-.15,1.8h3.42v-1.8h-3.27Zm1.04-7.03c-.34,.47-.7,.97-1.1,1.42h3.91c.3-.44,.63-.95,.89-1.42h-3.71Zm-1.03,5.13h3.25v-1.73h-3.25v1.73Zm8.89-1.73h-3.5v1.73h3.5v-1.73Zm0,5.43v-1.8h-3.5v1.8h3.5Z"/><path class="cls-5" d="M311.85,343.48c1.82,0,2.11-.42,2.36-2.77,.57,.32,1.5,.68,2.13,.8-.4,3.12-1.18,4.03-4.37,4.03h-6.5c-3.53,0-4.62-.68-4.62-3.4v-6.92c-.38,.3-.76,.57-1.12,.84-.21-.53-.82-1.65-1.22-2.17,2.24-1.35,4.54-3.53,5.81-5.89l2.05,.78c-.15,.27-.32,.55-.47,.82h4.37l.44-.11,1.44,1.08c-.65,.91-1.46,1.94-2.34,2.83h4.64v7.14h-2.22v-.65h-9.19v2.24c0,1.16,.32,1.35,2.39,1.35h6.42Zm-7.39-11.87c-.51,.63-1.03,1.22-1.6,1.79h4.26c.55-.51,1.1-1.14,1.6-1.79h-4.25Zm-1.42,6.14h3.53v-2.26h-3.53v2.26Zm9.19-2.26h-3.46v2.26h3.46v-2.26Z"/></g><g><path class="cls-3" d="M642.77,429.5c3.42-3.06,5.44-5.42,5.44-7.36,0-1.28-.7-2.04-1.89-2.04-.92,0-1.68,.59-2.31,1.29l-1.36-1.36c1.16-1.22,2.28-1.9,3.99-1.9,2.38,0,3.96,1.53,3.96,3.88s-1.89,4.73-4.18,6.97c.63-.07,1.46-.14,2.04-.14h2.74v2.11h-8.43v-1.45Z"/><path class="cls-3" d="M652.8,424.6c0-4.35,1.7-6.48,4.27-6.48s4.25,2.14,4.25,6.48-1.7,6.58-4.25,6.58-4.27-2.24-4.27-6.58Zm6.15,0c0-3.52-.82-4.54-1.89-4.54s-1.9,1.02-1.9,4.54,.82,4.62,1.9,4.62,1.89-1.09,1.89-4.62Z"/><path class="cls-3" d="M662.79,429.5c3.42-3.06,5.44-5.42,5.44-7.36,0-1.28-.7-2.04-1.89-2.04-.92,0-1.68,.59-2.31,1.29l-1.36-1.36c1.16-1.22,2.28-1.9,3.99-1.9,2.38,0,3.96,1.53,3.96,3.88s-1.89,4.73-4.18,6.97c.63-.07,1.46-.14,2.04-.14h2.74v2.11h-8.43v-1.45Z"/><path class="cls-3" d="M673.47,428.92h2.7v-7.96h-2.28v-1.55c1.26-.24,2.12-.56,2.92-1.05h1.85v10.56h2.36v2.02h-7.56v-2.02Z"/><path class="cls-3" d="M697.32,419.57c.92,.9,2.72,1.33,5.01,1.45-.41,.39-.88,1.12-1.12,1.61-1.9-.24-3.38-.78-4.45-1.72-.65,.75-2.06,1.41-4.91,1.73-.14-.32-.41-.75-.68-1.11h-4.5v-1.55h5.13v1.04c3.25-.34,3.67-1.1,3.67-1.73v-.25h-1.02c-.36,.56-.76,1.07-1.19,1.46-.32-.31-1.07-.8-1.5-1.04,.9-.75,1.6-1.87,1.99-3.03l1.77,.39c-.08,.25-.19,.51-.29,.75h4.83l.31-.08,1.38,.42c-.44,.93-1.02,2.01-1.56,2.69l-1.56-.58c.19-.27,.41-.63,.59-.99h-1.89v.53Zm.46,10c1.56,.58,3.23,1.26,4.23,1.75l-1.82,1.09c-.97-.56-2.74-1.39-4.42-2.01l1.04-.83h-4.79l1.48,.68c-1.39,.88-3.59,1.73-5.3,2.21-.34-.39-1.05-1.14-1.5-1.48,1.63-.31,3.45-.82,4.64-1.41h-2.45v-6.9h11.37v6.9h-2.48Zm-6.38-10.71h-4.35v-1.48h4.35v1.48Zm-.56,5.75h7.36v-.73h-7.36v.73Zm0,1.87h7.36v-.73h-7.36v.73Zm0,1.9h7.36v-.77h-7.36v.77Z"/><path class="cls-3" d="M708.71,424.76c.34,.46,1.61,2.58,1.87,3.11l-1.39,1.51c-.24-.75-.7-1.9-1.12-2.84v5.88h-1.87v-6.07c-.39,1.7-1.02,3.49-1.9,4.47-.17-.71-.61-1.73-.92-2.41,.71-.85,1.38-2.41,1.65-3.71l1.17,.41v-1.05h-2.57v-1.89h2.57v-5.63h1.87v5.63h2.52v1.89h-2.52v1.16l.65-.46Zm-4.32-2.87c-.03-1.05-.37-2.69-.78-3.93l1.41-.36c.46,1.24,.82,2.84,.88,3.89l-1.51,.39Zm6.49-4.01c-.44,1.36-.94,2.96-1.36,3.94l-1.29-.36c.37-1.07,.77-2.75,.95-3.94l1.7,.36Zm6.59,9.94v4.59h-1.9v-4.25l-4.74,.85-.31-1.89,5.05-.9v-9.69h1.9v9.35l1.73-.32,.31,1.89-2.04,.37Zm-5.81-6.17c.99,.53,2.24,1.36,2.86,1.95l-1.02,1.62c-.56-.61-1.8-1.53-2.79-2.11l.95-1.46Zm2.46-.61c-.53-.66-1.7-1.58-2.63-2.21l.97-1.36c.95,.56,2.16,1.43,2.7,2.06l-1.04,1.51Z"/></g></g></svg>