<svg xmlns="http://www.w3.org/2000/svg" viewBox="0 0 128 128"><defs><style>.a,.b{fill:none;}.b{stroke:#fff;stroke-width:1.25px;}.c{fill:#fff;}.d{isolation:isolate;}</style></defs><rect class="a" x="19.63" y="31.5" width="88.75" height="65" rx="2.5"/><rect class="b" x="20.25" y="32.13" width="87.5" height="63.75" rx="1.88"/><rect class="a" x="35.88" y="42.75" width="60" height="42.5" rx="2.5"/><rect class="b" x="36.5" y="43.38" width="58.75" height="41.25" rx="1.88"/><rect class="a" x="19.63" y="54" width="10" height="28.75"/><rect class="b" x="20.25" y="54.63" width="8.75" height="27.5"/><rect class="c" x="22.13" y="57.75" width="5" height="1.25"/><rect class="c" x="22.13" y="60.25" width="5" height="1.25"/><rect class="c" x="22.13" y="70.25" width="5" height="1.25"/><rect class="c" x="22.13" y="62.75" width="5" height="1.25"/><rect class="c" x="22.13" y="72.75" width="5" height="1.25"/><rect class="c" x="22.13" y="75.25" width="5" height="1.25"/><rect class="c" x="22.13" y="67.75" width="5" height="1.25"/><rect class="c" x="22.13" y="77.75" width="5" height="1.25"/><g class="d"><g class="d"><path class="c" d="M48,67.19,49.64,67a3.7,3.7,0,0,0,.56,1.65,3.07,3.07,0,0,0,1.35,1,5.18,5.18,0,0,0,2.06.4,4.76,4.76,0,0,0,1.79-.31A2.4,2.4,0,0,0,56.56,69a1.93,1.93,0,0,0,.38-1.14,1.75,1.75,0,0,0-.37-1.11A2.73,2.73,0,0,0,55.36,66,22.31,22.31,0,0,0,53,65.31a12.67,12.67,0,0,1-2.6-.84A3.68,3.68,0,0,1,49,63.22a3.09,3.09,0,0,1-.47-1.67,3.37,3.37,0,0,1,.58-1.9,3.49,3.49,0,0,1,1.68-1.34,6.31,6.31,0,0,1,2.46-.46,6.76,6.76,0,0,1,2.64.48,3.8,3.8,0,0,1,1.75,1.41,4.08,4.08,0,0,1,.66,2.12l-1.7.13a2.84,2.84,0,0,0-.93-1.93,3.65,3.65,0,0,0-2.34-.64,3.71,3.71,0,0,0-2.35.59,1.76,1.76,0,0,0-.74,1.42,1.55,1.55,0,0,0,.52,1.19,7.25,7.25,0,0,0,2.68,1,17.5,17.5,0,0,1,3,.85,4.08,4.08,0,0,1,1.73,1.37,3.28,3.28,0,0,1,.56,1.91,3.65,3.65,0,0,1-.61,2,4.07,4.07,0,0,1-1.76,1.47,6.18,6.18,0,0,1-2.59.53,7.76,7.76,0,0,1-3-.53,4.32,4.32,0,0,1-1.94-1.6A4.55,4.55,0,0,1,48,67.19Z"/><path class="c" d="M60.47,67.19,62.15,67a3.7,3.7,0,0,0,.55,1.65,3.07,3.07,0,0,0,1.35,1,5.22,5.22,0,0,0,2.06.4,4.78,4.78,0,0,0,1.8-.31A2.45,2.45,0,0,0,69.07,69a1.93,1.93,0,0,0,.38-1.14,1.81,1.81,0,0,0-.37-1.11A2.79,2.79,0,0,0,67.87,66a22.75,22.75,0,0,0-2.39-.65,12.52,12.52,0,0,1-2.59-.84,3.61,3.61,0,0,1-1.43-1.25A3,3,0,0,1,61,61.55a3.44,3.44,0,0,1,.57-1.9,3.57,3.57,0,0,1,1.69-1.34,6.31,6.31,0,0,1,2.46-.46,6.71,6.71,0,0,1,2.63.48,3.82,3.82,0,0,1,1.76,1.41,4.17,4.17,0,0,1,.65,2.12l-1.7.13a2.76,2.76,0,0,0-.93-1.93,3.65,3.65,0,0,0-2.34-.64,3.74,3.74,0,0,0-2.35.59,1.75,1.75,0,0,0-.73,1.42,1.52,1.52,0,0,0,.52,1.19,7.09,7.09,0,0,0,2.68,1,17.8,17.8,0,0,1,3,.85A4.08,4.08,0,0,1,70.6,65.8a3.35,3.35,0,0,1,.56,1.91,3.66,3.66,0,0,1-.62,2,4,4,0,0,1-1.76,1.47,6.13,6.13,0,0,1-2.58.53,7.81,7.81,0,0,1-3.06-.53,4.34,4.34,0,0,1-1.93-1.6A4.56,4.56,0,0,1,60.47,67.19Z"/><path class="c" d="M73.58,71.5V58.08h4.63a11.16,11.16,0,0,1,2.39.19,4.66,4.66,0,0,1,2,1,5.48,5.48,0,0,1,1.58,2.3,9,9,0,0,1,.53,3.19,9.31,9.31,0,0,1-.36,2.71,6.79,6.79,0,0,1-.91,1.95,4.74,4.74,0,0,1-1.23,1.22,5,5,0,0,1-1.6.67,9.2,9.2,0,0,1-2.15.23Zm1.78-1.58h2.87a7.13,7.13,0,0,0,2.08-.25,3,3,0,0,0,1.2-.7,4.28,4.28,0,0,0,1-1.69,8.54,8.54,0,0,0,.35-2.59,6.27,6.27,0,0,0-.69-3.24,3.45,3.45,0,0,0-1.68-1.51,6.75,6.75,0,0,0-2.3-.28H75.36Z"/></g></g></svg>