<svg xmlns="http://www.w3.org/2000/svg" viewBox="0 0 128 128"><defs><style>.a,.b{fill:none;}.b{stroke:#fff;stroke-width:1.25px;}.c{fill:#fff;}.d{isolation:isolate;}</style></defs><rect class="a" x="27.13" y="32.13" width="73.75" height="63.75"/><rect class="b" x="27.75" y="32.75" width="72.5" height="62.5"/><ellipse class="c" cx="37.13" cy="86.5" rx="2.5" ry="1.88"/><g class="d"><g class="d"><path class="c" d="M42.32,67.33l1.93.23a4.75,4.75,0,0,1-1.69,2.63,5.13,5.13,0,0,1-3.16.93,5,5,0,0,1-3.83-1.49,5.78,5.78,0,0,1-1.42-4.17,6.08,6.08,0,0,1,1.44-4.32,4.84,4.84,0,0,1,3.71-1.53,4.72,4.72,0,0,1,3.61,1.5,6,6,0,0,1,1.4,4.24c0,.11,0,.27,0,.49H36.08a4.21,4.21,0,0,0,1,2.78,3,3,0,0,0,2.3,1,2.88,2.88,0,0,0,1.76-.54A3.62,3.62,0,0,0,42.32,67.33Zm-6.13-3h6.15a3.72,3.72,0,0,0-.71-2.09,2.84,2.84,0,0,0-2.31-1.08,3,3,0,0,0-2.16.86A3.4,3.4,0,0,0,36.19,64.31Z"/><path class="c" d="M46.77,70.88V55.66h3l3.6,10.77c.33,1,.57,1.76.73,2.26.17-.56.44-1.37.81-2.44l3.64-10.59h2.71V70.88H59.35V58.14L54.93,70.88H53.11l-4.4-12.95V70.88Z"/><path class="c" d="M64.47,70.88V55.66h3l3.6,10.77c.33,1,.58,1.76.73,2.26.17-.56.44-1.37.81-2.44l3.64-10.59H79V70.88H77.05V58.14L72.63,70.88H70.81l-4.4-12.95V70.88Z"/><path class="c" d="M93.09,65.54l2,.51a6.76,6.76,0,0,1-2.28,3.78,6.24,6.24,0,0,1-4,1.3,7.21,7.21,0,0,1-4-1,6.19,6.19,0,0,1-2.34-2.9,10.23,10.23,0,0,1-.81-4.07A9,9,0,0,1,82.56,59a6.24,6.24,0,0,1,2.59-2.69,7.53,7.53,0,0,1,3.68-.92,6.18,6.18,0,0,1,3.84,1.17,6,6,0,0,1,2.17,3.26l-2,.47a4.69,4.69,0,0,0-1.54-2.42,4.11,4.11,0,0,0-2.53-.75,4.92,4.92,0,0,0-2.93.84,4.41,4.41,0,0,0-1.65,2.25,9.09,9.09,0,0,0-.48,2.93,9.39,9.39,0,0,0,.56,3.38,4.26,4.26,0,0,0,1.76,2.17,5,5,0,0,0,2.59.71,4.33,4.33,0,0,0,2.86-1A5,5,0,0,0,93.09,65.54Z"/></g></g></svg>