<svg xmlns="http://www.w3.org/2000/svg" viewBox="0 0 128 128"><polygon points="83.31 107.08 98 102.29 96.18 32.48 87.44 25.05 89.91 48.98 88.51 87.11 79.02 92.55 83.31 107.08"/><polygon points="49.78 89.48 30 87.44 33.96 100.31 54.28 103.32 49.64 89.58 49.78 89.48"/><polygon points="80.17 107.08 76.38 92.22 52.96 89.81 57.47 103.79 80.17 107.08"/><path d="M53.32,29.05,32.64,35.12l5.45,22.11L35.61,82.32,30,85.46l22.39,2,4.43-3.36L61,54.43Zm-16.55,9.2,15.32-4.19L56.41,50.5,40.54,52.94Zm18,40.87-15.73-.6,1.84-17.77,15.92-1.1Z"/><path d="M84.8,23.23,81,20.92,55.66,28.36l8.59,24.75L59.67,84.47l-4.22,3.31,21.59,2,8.58-4.46,2-37.3ZM60.16,31.85l20-5.48,4.52,19.77L66,49ZM82.82,80.17l-19.27-.72L66.45,59l18.3-1.26Z"/></svg>