<svg xmlns="http://www.w3.org/2000/svg" viewBox="0 0 128 128"><defs><style>.a{fill:none;}.b{fill:#fff;}.c{isolation:isolate;}</style></defs><rect class="a" x="27.13" y="32.13" width="73.75" height="63.75"/><path class="b" d="M100.88,95.88H27.12V32.12h73.76Zm-72.5-1.26H99.62V33.38H28.38Z"/><ellipse class="b" cx="37.13" cy="86.5" rx="2.5" ry="1.88"/><g class="c"><g class="c"><path class="b" d="M55,55.66h2v8.79a10.25,10.25,0,0,1-.52,3.64,4.51,4.51,0,0,1-1.87,2.2,6.7,6.7,0,0,1-3.56.84,7.29,7.29,0,0,1-3.49-.73,4.17,4.17,0,0,1-1.94-2.14,10.1,10.1,0,0,1-.58-3.81V55.66h2v8.78a8.42,8.42,0,0,0,.37,2.92,2.75,2.75,0,0,0,1.26,1.45,4.39,4.39,0,0,0,2.2.51,4.19,4.19,0,0,0,3.16-1c.63-.67,1-2,1-3.87Z"/><path class="b" d="M60.46,70.87V55.66H70.73v1.8H62.48v4.71h7.14V64H62.48v6.9Z"/><path class="b" d="M72.66,66l1.89-.17a4.22,4.22,0,0,0,.63,1.88,3.49,3.49,0,0,0,1.53,1.18,5.81,5.81,0,0,0,2.34.45,5.76,5.76,0,0,0,2-.34,2.76,2.76,0,0,0,1.31-.94,2.18,2.18,0,0,0,.43-1.3,1.94,1.94,0,0,0-.41-1.25A3,3,0,0,0,81,64.6a25.26,25.26,0,0,0-2.71-.74,14.41,14.41,0,0,1-2.93-1,4.25,4.25,0,0,1-1.63-1.42,3.5,3.5,0,0,1-.53-1.89,3.85,3.85,0,0,1,.65-2.16,4.13,4.13,0,0,1,1.91-1.52,7.37,7.37,0,0,1,2.79-.52,7.65,7.65,0,0,1,3,.55,4.31,4.31,0,0,1,2,1.6,4.72,4.72,0,0,1,.75,2.4l-1.93.14a3.15,3.15,0,0,0-1-2.17,4.08,4.08,0,0,0-2.66-.74,4.25,4.25,0,0,0-2.66.67,2,2,0,0,0-.83,1.61,1.7,1.7,0,0,0,.59,1.35,8.11,8.11,0,0,0,3,1.08,20.72,20.72,0,0,1,3.37,1,4.57,4.57,0,0,1,2,1.56,3.76,3.76,0,0,1,.63,2.16,4.17,4.17,0,0,1-.69,2.29,4.61,4.61,0,0,1-2,1.67,6.91,6.91,0,0,1-2.93.59,8.76,8.76,0,0,1-3.46-.6,4.82,4.82,0,0,1-2.19-1.81A5,5,0,0,1,72.66,66Z"/></g></g></svg>