<svg xmlns="http://www.w3.org/2000/svg" viewBox="0 0 128 128"><path d="M100,81V28.45H28V81ZM34,34.19H94.06v41H34Z"/><path d="M100,83.94l8.46,15.61H19.56L28,83.94Z"/><path d="M76.84,51.15a1,1,0,0,0,0-2ZM55.28,46.68a1,1,0,1,0-1.9.76Zm22.58,9.59a13.29,13.29,0,0,1-13.3,13.29v2A15.34,15.34,0,0,0,79.91,56.27ZM64.56,69.56a13.3,13.3,0,0,1-13.3-13.29h-2A15.34,15.34,0,0,0,64.56,71.61ZM51.26,56.27A13.3,13.3,0,0,1,64.56,43v-2A15.34,15.34,0,0,0,49.22,56.27ZM64.56,43a13.29,13.29,0,0,1,13.3,13.3h2A15.35,15.35,0,0,0,64.56,40.92Zm0,8.18H76.84v-2H64.56Zm-5.19,5.76L55.28,46.68l-1.9.76,4.09,10.23Zm8.77,3L60.67,70l1.64,1.22,7.47-10Zm-3.58,1.43a5.11,5.11,0,0,1-5.11-5.11H57.4a7.17,7.17,0,0,0,7.16,7.16Zm5.12-5.11a5.11,5.11,0,0,1-5.12,5.11v2a7.16,7.16,0,0,0,7.16-7.16Zm-5.12-5.12a5.12,5.12,0,0,1,5.12,5.12h2a7.15,7.15,0,0,0-7.16-7.16Zm0-2a7.16,7.16,0,0,0-7.16,7.16h2.05a5.11,5.11,0,0,1,5.11-5.12Z"/></svg>