<svg xmlns="http://www.w3.org/2000/svg" viewBox="0 0 128 128"><path d="M96.3,25.33H31.7a3.13,3.13,0,0,0-3.13,3.13V46.31a3.13,3.13,0,0,0,3.13,3.12H96.3a3.13,3.13,0,0,0,3.13-3.12V28.46A3.13,3.13,0,0,0,96.3,25.33ZM39.88,43.87H35.63v-2h4.25Zm0-4.92H35.63V37h4.25Zm0-4.92H35.63v-2h4.25Zm7.6,9.84H43.23v-2h4.25Zm0-4.92H43.23V37h4.25Zm0-4.92H43.23v-2h4.25Zm7.61,9.84H50.84v-2h4.25Zm0-4.92H50.84V37h4.25Zm0-4.92H50.84v-2h4.25Zm7.6,9.84H58.44v-2h4.25Zm0-4.92H58.44V37h4.25Zm0-4.92H58.44v-2h4.25Zm12,6.33a2.55,2.55,0,1,1,2.55-2.55A2.56,2.56,0,0,1,74.71,40.36Zm7.61,0a2.55,2.55,0,1,1,2.55-2.55A2.55,2.55,0,0,1,82.32,40.36Zm7.61,0a2.55,2.55,0,1,1,2.54-2.55A2.55,2.55,0,0,1,89.93,40.36Z"/><path d="M96.3,52.33H31.7a3.13,3.13,0,0,0-3.13,3.13V73.31a3.13,3.13,0,0,0,3.13,3.12H96.3a3.13,3.13,0,0,0,3.13-3.12V55.46A3.13,3.13,0,0,0,96.3,52.33ZM39.88,70.87H35.63v-2h4.25Zm0-4.92H35.63V64h4.25Zm0-4.92H35.63v-2h4.25Zm7.6,9.84H43.23v-2h4.25Zm0-4.92H43.23V64h4.25Zm0-4.92H43.23v-2h4.25Zm7.61,9.84H50.84v-2h4.25Zm0-4.92H50.84V64h4.25Zm0-4.92H50.84v-2h4.25Zm7.6,9.84H58.44v-2h4.25Zm0-4.92H58.44V64h4.25Zm0-4.92H58.44v-2h4.25Zm12,6.33a2.55,2.55,0,1,1,2.55-2.55A2.56,2.56,0,0,1,74.71,67.36Zm7.61,0a2.55,2.55,0,1,1,2.55-2.55A2.55,2.55,0,0,1,82.32,67.36Zm7.61,0a2.55,2.55,0,1,1,2.54-2.55A2.55,2.55,0,0,1,89.93,67.36Z"/><path d="M96.3,79.33H31.7a3.13,3.13,0,0,0-3.13,3.13v17.85a3.13,3.13,0,0,0,3.13,3.12H96.3a3.13,3.13,0,0,0,3.13-3.12V82.46A3.13,3.13,0,0,0,96.3,79.33ZM39.88,97.87H35.63v-2h4.25Zm0-4.92H35.63V91h4.25Zm0-4.92H35.63v-2h4.25Zm7.6,9.84H43.23v-2h4.25Zm0-4.92H43.23V91h4.25Zm0-4.92H43.23v-2h4.25Zm7.61,9.84H50.84v-2h4.25Zm0-4.92H50.84V91h4.25Zm0-4.92H50.84v-2h4.25Zm7.6,9.84H58.44v-2h4.25Zm0-4.92H58.44V91h4.25Zm0-4.92H58.44v-2h4.25Zm12,6.33a2.55,2.55,0,1,1,2.55-2.55A2.56,2.56,0,0,1,74.71,94.36Zm7.61,0a2.55,2.55,0,1,1,2.55-2.55A2.55,2.55,0,0,1,82.32,94.36Zm7.61,0a2.55,2.55,0,1,1,2.54-2.55A2.55,2.55,0,0,1,89.93,94.36Z"/></svg>