<svg xmlns="http://www.w3.org/2000/svg" viewBox="0 0 128 128"><defs><style>.a{fill:#0071bc;}</style></defs><path class="a" d="M86.07,40.28H71.66a3.6,3.6,0,0,0-3.61,3.6V94.83a3.6,3.6,0,0,0,3.61,3.61H86.07a3.6,3.6,0,0,0,3.61-3.61V43.88A3.6,3.6,0,0,0,86.07,40.28Zm-4.35,48.4H76V75.86h5.71Zm0-21.71H76V54.14h5.71Z"/><path class="a" d="M103.2,58.08H101V36.19a4.4,4.4,0,0,0-4.39-4.39H85.8A5.82,5.82,0,0,0,80,37.62V41H77.74V37.62a8.07,8.07,0,0,1,8.06-8.06H96.57a6.63,6.63,0,0,1,6.63,6.63Z"/><rect class="a" x="94.26" y="57.54" width="15.89" height="12.54"/><path class="a" d="M96.51,70.84V79H107.9v-8.2Zm4.54,5.39H99.67V73.65h1.38Zm4.23,0H103.9V73.65h1.38Z"/><path class="a" d="M53.54,46.1v-10H32.12V68.66H55.41V49.9ZM37.71,42.68h-2.8V39h2.8Zm4.19,0H39.1V39h2.8Zm4.19,0H43.3V39h2.79Zm4.19,0H47.49V39h2.79Z"/><path class="a" d="M22.94,95.71H33.55V79.64H22.94Zm5.76-5.15V93H25.36V90.56Zm0-8.49V84.5H25.36V82.07Z"/><path class="a" d="M59.83,98.44a3.86,3.86,0,0,0,3.86-3.86V80.78a3.87,3.87,0,0,0-3.86-3.87H38.11V98.44Z"/><rect class="a" x="33.1" y="76.91" width="4.47" height="21.53"/></svg>