<svg xmlns="http://www.w3.org/2000/svg" viewBox="0 0 128 128"><path d="M69.85,56.84H67.5L66,44.43a4.23,4.23,0,0,0-4.21-3.62H24.69a4.23,4.23,0,0,0-4.21,3.62L19,56.84H16.66a2.73,2.73,0,0,0-2.73,2.73h0V74.23A2.73,2.73,0,0,0,16.66,77h3.07v7.51a2.72,2.72,0,0,0,2.73,2.72H25.3A2.72,2.72,0,0,0,28,84.47h0V77H59.28v7.51A2.72,2.72,0,0,0,62,87.19h2.84a2.72,2.72,0,0,0,2.72-2.72h0V77h2.28a2.73,2.73,0,0,0,2.73-2.73h0V59.57a2.73,2.73,0,0,0-2.73-2.73ZM23.13,44.74a1.58,1.58,0,0,1,1.57-1.27H61.82a1.57,1.57,0,0,1,1.56,1.27l1.44,12.1H21.69Zm1.09,26a4,4,0,1,1,4-4h0A4,4,0,0,1,24.22,70.71Zm25.06,0H37.46a4,4,0,0,1,0-8.07H49.28a4,4,0,1,1,0,8.07Zm13.24,0a4,4,0,1,1,4-4h0a4,4,0,0,1-4,4Z"/><path d="M98.84,66c-2.09,0-3.79,1.22-3.79,2.73s1.69,2.73,3.79,2.73,3.79-1.22,3.79-2.73S100.93,66,98.84,66Zm0,3.81c-1.09,0-2-.64-2-1.42s.88-1.42,2-1.42,2,.63,2,1.42-.88,1.42-2,1.42Z"/><path d="M104.81,55a6,6,0,1,0-11,3.23h-.11l5.07,11.37,5.06-11.37h0A5.92,5.92,0,0,0,104.81,55Zm-6,3.7a3.71,3.71,0,1,1,3.7-3.7,3.7,3.7,0,0,1-3.7,3.7Z"/><path d="M101,55a2.11,2.11,0,1,1-2.11-2.11A2.12,2.12,0,0,1,101,55Z"/><path d="M102.05,76.37H77l-2.39,9.57H92.18A45,45,0,0,1,102.05,76.37Z"/><path d="M94.36,85.94h19.71l-2.4-9.57h-6.55A45.45,45.45,0,0,0,94.36,85.94Z"/><path d="M109.59,68H105a3.38,3.38,0,0,1,.17,1c0,2.53-2.85,4.58-6.37,4.58s-6.36-2-6.36-4.58a3.38,3.38,0,0,1,.17-1H79.1l-1.82,7.28h26.29a46.33,46.33,0,0,1,6.9-3.72Z"/><path d="M111.41,75.32l-.51-2a44.82,44.82,0,0,0-4,2Z"/><path d="M98.84,64.5a6.8,6.8,0,0,1,5.82,2.73h4.72L108,61.5H80.74l-1.43,5.73H93A6.8,6.8,0,0,1,98.84,64.5Z"/></svg>