<svg xmlns="http://www.w3.org/2000/svg" viewBox="0 0 128 128"><defs><style>.a{fill:#fff;}</style></defs><path class="a" d="M85.23,77h0L45.78,77a.5.5,0,0,1-.5-.5.5.5,0,0,1,.5-.5h0L85.23,76a.5.5,0,0,1,.5.5A.5.5,0,0,1,85.23,77Z"/><path class="a" d="M24.83,77.42a17.45,17.45,0,0,1-2-.12c-1.24-.27-2.84-.75-3.06-1.86-.16-1.56-.45-5.65-.45-7.56a4.28,4.28,0,0,1,.66-2.47c1.68-3,7.22-10.15,22.08-9.6L57,45.8A5.48,5.48,0,0,1,59.55,45l28.71-.14a4.5,4.5,0,0,1,1.45.17c6.51,1.78,17.05,7.69,15.63,18.65l1.31.71a3,3,0,0,1,1.71,2.08,10.73,10.73,0,0,1-.31,6.58c-.78,2.18-3.85,4.12-4,4.2a.5.5,0,0,1-.53-.85s2.9-1.83,3.57-3.69a9.77,9.77,0,0,0,.28-6,2,2,0,0,0-1.18-1.42l-1.65-.9a.5.5,0,0,1-.26-.52c.78-5.15-1.07-9.58-5.51-13.14A27.77,27.77,0,0,0,89.45,46a4.13,4.13,0,0,0-1.16-.13L59.58,46a4.47,4.47,0,0,0-2.08.66L42.44,56.73a.52.52,0,0,1-.3.08C27.72,56.24,22.41,63,20.8,65.92a3.3,3.3,0,0,0-.52,1.94c0,1.89.28,5.94.43,7.43,0,.1.27.59,2.25,1a16.66,16.66,0,0,0,3.8,0,.5.5,0,0,1,.12,1A17.49,17.49,0,0,1,24.83,77.42Z"/><path class="a" d="M47.43,60.48a.47.47,0,0,1-.38-.19l-3.59-4.43a.5.5,0,0,1,.78-.63l3.43,4.25,43.46-.29V46.46a.5.5,0,0,1,.5-.5.51.51,0,0,1,.5.5V59.69a.51.51,0,0,1-.5.5l-44.19.29Z"/><path class="a" d="M36.31,83.16a7.82,7.82,0,1,1,7.82-7.82A7.82,7.82,0,0,1,36.31,83.16Zm0-14.63a6.82,6.82,0,1,0,6.82,6.81A6.81,6.81,0,0,0,36.31,68.53Z"/><path class="a" d="M94.55,83.16a7.82,7.82,0,1,1,7.82-7.82A7.82,7.82,0,0,1,94.55,83.16Zm0-14.63a6.82,6.82,0,1,0,6.82,6.81A6.82,6.82,0,0,0,94.55,68.53Z"/></svg>