<svg xmlns="http://www.w3.org/2000/svg" viewBox="0 0 128 128"><defs><style>.a{fill:#fff;}.b{fill:none;}</style></defs><path class="a" d="M52.26,55.36H41.35V45.16H52.26Zm-9.91-1h8.91v-8.2H42.35Z"/><path class="a" d="M66.82,58.19H51.26V42.33H66.82Zm-14.56-1H65.82V43.33H52.26Z"/><rect class="a" x="43.62" y="51.88" width="6.36" height="1"/><rect class="a" x="43.62" y="47.64" width="6.36" height="1"/><rect class="b" x="18.75" y="63.08" width="74" height="22"/><path class="a" d="M92.75,85.08h-74v-22h74Zm-73-1h72v-20h-72Z"/><rect class="b" x="29.75" y="71.08" width="15" height="7"/><path class="a" d="M44.75,78.08h-15v-7h15Zm-14-1h13v-5h-13Z"/><rect class="b" x="48.75" y="71.08" width="15" height="7"/><path class="a" d="M63.75,78.08h-15v-7h15Zm-14-1h13v-5h-13Z"/><rect class="b" x="67.75" y="71.08" width="15" height="7"/><path class="a" d="M82.75,78.08h-15v-7h15Zm-14-1h13v-5h-13Z"/><path class="a" d="M107,78.17H92.12a.5.5,0,0,1-.5-.5v-4.5a.5.5,0,0,1,.5-.5H102.8l0-20.38H66.33a.5.5,0,0,1-.5-.5V47.86A.49.49,0,0,1,66,47.5a.5.5,0,0,1,.35-.14H107a.5.5,0,0,1,.5.5l.05,29.81a.48.48,0,0,1-.5.5Zm-14.42-1h13.92l-.05-28.81H66.83v2.93h36.42a.5.5,0,0,1,.5.5l0,21.37a.49.49,0,0,1-.15.36.51.51,0,0,1-.35.15H92.62Z"/></svg>