<svg xmlns="http://www.w3.org/2000/svg" viewBox="0 0 128 128"><rect x="31.36" y="66.12" width="13" height="8.16" rx="1.25"/><rect x="31.36" y="56.7" width="13" height="8.16" rx="1.25"/><rect x="46.36" y="66.12" width="13" height="8.16" rx="1.25"/><rect x="46.36" y="56.7" width="13" height="8.16" rx="1.25"/><rect x="31.36" y="47.28" width="13" height="8.16" rx="1.25"/><path d="M59.36,38.88V35H68l3.1,3.1V33h2a3.89,3.89,0,0,1,3.89,3.89v4.88H83a7.8,7.8,0,1,1,7.68,9.74L81.56,68.12h8.49A3.9,3.9,0,0,1,94,72V74H63.76V72a3.89,3.89,0,0,1,3.9-3.9h5L83.88,47.75a7.25,7.25,0,0,1-.86-2H76.9v4.88A3.89,3.89,0,0,1,73,54.47h-2v-5L68,52.53h-8.6v-3.9h7l4.7-4.7v-.35l-4.7-4.7Zm27.29,4.87a3.9,3.9,0,1,0,3.9-3.89A3.89,3.89,0,0,0,86.65,43.75Z"/><path d="M104.34,82.05V25.56H23.66V82.05h35v8.24c-4.81.32-17.48,1.63-17.48,6.55,0,5.32,15,6.72,22.86,6.72s22.86-1.4,22.86-6.72c0-4.92-12.67-6.23-17.48-6.55V82.05ZM29,76.67V30.94H99V76.67Z"/></svg>