<svg xmlns="http://www.w3.org/2000/svg" viewBox="0 0 128 128"><defs><style>.a{fill:#fff;}</style></defs><path class="a" d="M82.93,97.69H81V93.2h1.92Zm-9,0H72V93.2h1.91Zm-9,0H63V93.2H65Zm-9,0H54.06V93.2H56Zm-9,0H45.07V93.2H47Zm41.72-8H39.29a1,1,0,0,1-.95-1h0V39.29a.94.94,0,0,1,.95-.95H88.71a1,1,0,0,1,1,.95h0V88.71a1,1,0,0,1-1,1ZM40.25,87.75h47.5V40.25H40.25Zm57.44-4.82H93.2V81h4.49Zm-62.89,0H30.31V81H34.8Zm40.43-6.74H52.77a1,1,0,0,1-1-1h0V52.77a1,1,0,0,1,1-1H75.23a1,1,0,0,1,1,1h0V75.23A1,1,0,0,1,75.23,76.19ZM53.72,74.27H74.27V53.72H53.72Zm44-.33H93.2V72h4.49Zm-62.89,0H30.31V72H34.8Zm62.89-9H93.2V63h4.49ZM34.8,65H30.31V63H34.8Zm62.89-9H93.2V54.06h4.49ZM34.8,56H30.31V54.06H34.8Zm62.89-9H93.2V45.07h4.49ZM34.8,47H30.31V45.07H34.8ZM82.93,34.8H81V30.31h1.92Zm-9,0H72V30.31h1.91Zm-9,0H63V30.31H65Zm-9,0H54.06V30.31H56Zm-9,0H45.07V30.31H47Z"/></svg>