<svg xmlns="http://www.w3.org/2000/svg" viewBox="0 0 128 128"><defs><style>.a{isolation:isolate;}</style></defs><path d="M104.34,81.48V25H23.66V81.48h35v8.25c-4.81.32-17.48,1.63-17.48,6.55,0,5.31,15,6.72,22.86,6.72s22.86-1.41,22.86-6.72c0-4.92-12.67-6.23-17.48-6.55V81.48ZM29,76.1V30.38H99V76.1Z"/><g class="a"><g class="a"><path d="M62.07,46.22H57.8v14a2.58,2.58,0,0,1-.54,1.8,1.81,1.81,0,0,1-1.39.59,1.83,1.83,0,0,1-1.42-.6,2.57,2.57,0,0,1-.55-1.79v-14H49.64a2.14,2.14,0,0,1-1.49-.44,1.5,1.5,0,0,1-.49-1.16,1.47,1.47,0,0,1,.51-1.19A2.2,2.2,0,0,1,49.64,43H62.07a2.2,2.2,0,0,1,1.5.44,1.52,1.52,0,0,1,.5,1.18,1.48,1.48,0,0,1-.5,1.16A2.2,2.2,0,0,1,62.07,46.22Z"/><path d="M69.24,45.23l4.37,13,4.39-13c.23-.68.4-1.16.51-1.43a1.92,1.92,0,0,1,.57-.72,1.62,1.62,0,0,1,1.08-.32,1.8,1.8,0,0,1,.93.25,1.92,1.92,0,0,1,.67.66,1.68,1.68,0,0,1,.24.84,2.85,2.85,0,0,1-.08.62,4.6,4.6,0,0,1-.2.66c-.08.22-.15.44-.23.67L76.81,59c-.16.48-.33.94-.5,1.38a5.53,5.53,0,0,1-.58,1.14,2.6,2.6,0,0,1-.87.81,2.66,2.66,0,0,1-1.34.32,2.76,2.76,0,0,1-1.34-.31,2.66,2.66,0,0,1-.88-.82,5.89,5.89,0,0,1-.58-1.15c-.17-.43-.34-.89-.5-1.37l-4.6-12.51-.24-.67a3.91,3.91,0,0,1-.21-.71,2.87,2.87,0,0,1-.09-.65,1.72,1.72,0,0,1,.54-1.22A1.81,1.81,0,0,1,67,42.67a1.56,1.56,0,0,1,1.41.61A8.09,8.09,0,0,1,69.24,45.23Z"/></g></g></svg>