<svg id="icons" xmlns="http://www.w3.org/2000/svg" viewBox="0 0 128 128"><defs><style>.cls-1{fill:#0071bc;}</style></defs><path class="cls-1" d="M17.2,44.27H38a5.2,5.2,0,0,1,5.2,5.2v41.6a5.2,5.2,0,0,1-5.2,5.2H17.2a5.2,5.2,0,0,1-5.2-5.2V49.47a5.2,5.2,0,0,1,5.2-5.2m0,5.2v5.2H38v-5.2ZM38,59.87H17.2v5.2H38Zm-10.6,24h0a2.59,2.59,0,0,0-2.6,2.6h0a2.59,2.59,0,0,0,2.6,2.6h0a2.59,2.59,0,0,0,2.6-2.6h0A2.59,2.59,0,0,0,27.4,83.87Z"/><g id="monitor-svgrepo-com"><g id="Group_22" data-name="Group 22"><path class="cls-1" d="M116.56,79.05V30.35H47v48.7H77.14v7.1c-4.14.28-15.07,1.41-15.07,5.65,0,4.59,12.89,5.8,19.71,5.8s19.71-1.21,19.71-5.8c0-4.24-10.93-5.37-15.07-5.65v-7.1Zm-64-5.65V36H111V73.4Z"/></g></g></svg>