<svg xmlns="http://www.w3.org/2000/svg" viewBox="0 0 128 128"><defs><style>.a,.b{fill:none;}.b{stroke:#fff;stroke-width:1.25px;}.c{fill:#fff;}</style></defs><rect class="a" x="19.63" y="44.63" width="80" height="38.75"/><rect class="b" x="20.25" y="45.25" width="78.75" height="37.5"/><rect class="a" x="73.38" y="50.88" width="18.75" height="26.25" rx="2.5"/><rect class="b" x="74" y="51.5" width="17.5" height="25" rx="1.88"/><rect class="a" x="50.88" y="50.88" width="18.75" height="26.25" rx="2.5"/><rect class="b" x="51.5" y="51.5" width="17.5" height="25" rx="1.88"/><rect class="a" x="28.38" y="67.13" width="18.75" height="10" rx="2.5"/><rect class="b" x="29" y="67.75" width="17.5" height="8.75" rx="1.88"/><rect class="a" x="28.38" y="50.88" width="18.75" height="10" rx="2.5"/><rect class="b" x="29" y="51.5" width="17.5" height="8.75" rx="1.88"/><rect class="a" x="98.38" y="47.12" width="10" height="33.75"/><rect class="b" x="99" y="47.75" width="8.75" height="32.5"/><rect class="c" x="100.88" y="75.87" width="5" height="1.25"/><rect class="c" x="100.88" y="72.12" width="5" height="1.25"/><rect class="c" x="100.88" y="68.37" width="5" height="1.25"/><rect class="c" x="100.88" y="58.37" width="5" height="1.25"/><rect class="c" x="100.88" y="54.62" width="5" height="1.25"/><rect class="c" x="100.88" y="64.62" width="5" height="1.25"/><rect class="c" x="100.88" y="50.87" width="5" height="1.25"/></svg>