<svg xmlns="http://www.w3.org/2000/svg" viewBox="0 0 128 128"><defs><style>.a{fill:#0071bc;}</style></defs><path class="a" d="M88.87,35.27a5.08,5.08,0,0,0-4.81-3.46H43.94a5.08,5.08,0,0,0-4.81,3.46L27.5,69.74h73ZM62.46,38.59A1.41,1.41,0,0,1,64,37.47c.83,0,1.52.5,1.53,1.12l.19,7.7a1.75,1.75,0,0,1-3.45,0Zm10.77,18c-5.47,5.2-14.75,4.67-19.41-1-4.08-5-2.41-11.53,2.78-14.83a1.92,1.92,0,0,1,2.17.09,1.09,1.09,0,0,1-.21,1.78c-.24.16-.47.33-.7.51a6.86,6.86,0,0,0-.23,10.75,9.75,9.75,0,0,0,13.43-.69c3-3.42,2.07-8.11-1.62-10.57h0a1.09,1.09,0,0,1-.26-1.77,1.93,1.93,0,0,1,2.23-.1c.33.22.66.44,1,.69C77.23,45.17,78.07,52,73.23,56.56Z"/><path class="a" d="M99.56,72.48H28.44a2.38,2.38,0,0,0-2.37,2.37v19a2.38,2.38,0,0,0,2.37,2.38H99.56a2.38,2.38,0,0,0,2.37-2.38v-19A2.38,2.38,0,0,0,99.56,72.48ZM37.93,86.7a2.37,2.37,0,1,1,2.37-2.37A2.37,2.37,0,0,1,37.93,86.7Zm19,0H47.41a2.37,2.37,0,1,1,0-4.74h9.48a2.37,2.37,0,0,1,0,4.74Z"/></svg>