<svg xmlns="http://www.w3.org/2000/svg" viewBox="0 0 128 128"><defs><style>.a{fill:none;stroke:#000;stroke-linecap:round;stroke-miterlimit:10;stroke-width:4px;}</style></defs><path class="a" d="M48,30.21a22.6,22.6,0,0,1,16-6.65"/><path class="a" d="M64,23.56a22.72,22.72,0,0,1,16,6.65"/><path class="a" d="M56,38.23a11.21,11.21,0,0,1,16,0"/><path class="a" d="M109.68,59.91a22.64,22.64,0,0,1,6.65,16"/><path class="a" d="M116.33,75.88a22.76,22.76,0,0,1-6.65,16"/><path class="a" d="M101.67,67.89a11.21,11.21,0,0,1,0,16"/><path class="a" d="M18.32,91.88a22.64,22.64,0,0,1-6.65-16"/><path class="a" d="M11.67,75.91a22.74,22.74,0,0,1,6.65-16"/><path class="a" d="M26.33,83.89a11.21,11.21,0,0,1,0-16"/><path d="M90.6,66.6H88.25L86.77,54.18a4.23,4.23,0,0,0-4.21-3.62H45.43a4.24,4.24,0,0,0-4.21,3.62L39.75,66.6H37.4a2.72,2.72,0,0,0-2.72,2.72h0V84a2.72,2.72,0,0,0,2.72,2.73h3.07v7.51A2.73,2.73,0,0,0,43.2,97H46a2.73,2.73,0,0,0,2.73-2.73h0V86.71H80v7.51A2.73,2.73,0,0,0,82.75,97h2.84a2.73,2.73,0,0,0,2.73-2.73h0V86.71H90.6A2.72,2.72,0,0,0,93.32,84h0V69.32A2.72,2.72,0,0,0,90.6,66.6ZM43.87,54.49a1.6,1.6,0,0,1,1.57-1.27H82.56a1.59,1.59,0,0,1,1.57,1.27L85.57,66.6H42.43Zm1.09,26a4,4,0,1,1,4-4h0A4,4,0,0,1,45,80.46Zm25.06,0H58.2a4,4,0,0,1,0-8.07H70a4,4,0,1,1,0,8.07Zm13.25,0a4,4,0,1,1,4-4h0a4,4,0,0,1-4,4h0Z"/></svg>