<svg id="icons" xmlns="http://www.w3.org/2000/svg" viewBox="0 0 128 128"><defs><style>.cls-1{fill:#0071bc;}</style></defs><path class="cls-1" d="M56.37,71.33V58H27.59V94.89H58.88V76.43ZM35.1,66.73H31.34v-5H35.1Zm5.63,0H37v-5h3.76Zm5.63,0H42.61v-5h3.75Zm5.63,0H48.24v-5H52Z"/><path class="cls-1" d="M41.31,33H32.13V52.74H57.51V31.23H44.82ZM38.15,47.58v2.58H34.71V47.58Zm0-3.88v2.59H34.71V43.7Zm0-3.87v2.58H34.71V39.83Zm0-3.87v2.58H34.71V36Z"/><path class="cls-1" d="M94.71,45.61H64.53V25H94.71Zm-28.18-2H92.71V27H66.53ZM90.46,37.1H84.2V29.25h6.26Zm-4.26-2h2.26V31.25H86.2Zm-10.63,2H69.32V29.25h6.25Zm-4.25-2h2.25V31.25H71.32Z"/><path class="cls-1" d="M60.75,66.68a10.2,10.2,0,0,0,10.19,10.2H88.3a10.2,10.2,0,0,0,10.19-10.2V51.21H60.75Z"/><rect class="cls-1" x="60.75" y="43.82" width="37.74" height="6.48"/><path class="cls-1" d="M73.46,80.24A10.88,10.88,0,0,0,62.58,91.12h0A10.88,10.88,0,0,0,73.46,102h27V80.24Zm-.19,18.7a7.64,7.64,0,1,1,7.64-7.64A7.64,7.64,0,0,1,73.27,98.94Z"/></svg>