<svg xmlns="http://www.w3.org/2000/svg" viewBox="0 0 128 128"><defs><style>.a,.b{fill:#0071bc;}.b{fill-rule:evenodd;}</style></defs><path class="a" d="M100.17,51.26a2.49,2.49,0,0,1-2.5-2.5A24.47,24.47,0,0,0,90.5,31.58,2.5,2.5,0,0,1,94,28.05a29.52,29.52,0,0,1,8.63,20.71A2.5,2.5,0,0,1,100.17,51.26Z"/><path class="a" d="M92.27,70.24A2.5,2.5,0,0,1,90.5,66a24.68,24.68,0,0,0,7.17-17.22,2.5,2.5,0,0,1,5,0A29.7,29.7,0,0,1,94.05,69.5,2.48,2.48,0,0,1,92.27,70.24Z"/><path class="a" d="M82.76,60.73A2.5,2.5,0,0,1,81,56.48,10.79,10.79,0,0,0,81,41a2.5,2.5,0,0,1,3.56-3.51,15.79,15.79,0,0,1,0,22.46A2.45,2.45,0,0,1,82.76,60.73Z"/><path class="a" d="M27.87,51.26a2.5,2.5,0,0,1-2.5-2.5A29.52,29.52,0,0,1,34,28.05a2.5,2.5,0,1,1,3.53,3.53,24.5,24.5,0,0,0-7.16,17.18A2.5,2.5,0,0,1,27.87,51.26Z"/><path class="a" d="M35.77,70.24A2.47,2.47,0,0,1,34,69.5a29.66,29.66,0,0,1-8.62-20.74,2.5,2.5,0,0,1,5,0A24.68,24.68,0,0,0,37.54,66a2.5,2.5,0,0,1-1.77,4.26Z"/><path class="a" d="M45.27,60.73A2.48,2.48,0,0,1,43.49,60a15.81,15.81,0,0,1,0-22.46A2.5,2.5,0,0,1,47.05,41a10.82,10.82,0,0,0,0,15.44,2.49,2.49,0,0,1-1.78,4.25Z"/><path class="b" d="M89.41,94.6H86.89L69.39,55.22A11.87,11.87,0,0,0,70.87,54,8.17,8.17,0,0,0,59.53,42.63a8.48,8.48,0,0,0-3.05,3.7,8.29,8.29,0,0,0,1.8,8.89L40.75,94.6H38.23a2.46,2.46,0,0,0,0,4.92h9.32a2.46,2.46,0,0,0,0-4.92h-.81l2-4.51H78.93l2,4.51h-.85a2.46,2.46,0,0,0,0,4.92h9.32a2.46,2.46,0,1,0,0-4.92ZM58.28,84.86H51.36L53.07,81h5.21Zm0-6.72H54.35L56.21,74h2.07Zm15.48,0h-5V74h3.1ZM61.55,48.73a2.78,2.78,0,0,1,.6-1.2,2.83,2.83,0,0,1,1.36-.76,2.66,2.66,0,0,1,1.58,0,3.08,3.08,0,0,1,1.25,1,2.86,2.86,0,0,1,.44,1.53A2.78,2.78,0,0,1,64.05,52a2.86,2.86,0,0,1-1.52-.44,3.16,3.16,0,0,1-1-1.25A2.51,2.51,0,0,1,61.55,48.73Zm1.74,9.21h1.47l4.69,10.57H58.55Zm3.26,26.92h-6V81h6Zm0-6.72h-6V74h6Zm2.25,6.72V81H75l1.72,3.86Z"/></svg>