<svg xmlns="http://www.w3.org/2000/svg" viewBox="0 0 128 128"><path d="M52,33.57H33.52a4.63,4.63,0,0,0-4.63,4.63v65.34a4.63,4.63,0,0,0,4.63,4.63H52a4.63,4.63,0,0,0,4.63-4.63V38.2A4.64,4.64,0,0,0,52,33.57ZM46.42,95.66H39.11V79.2h7.31Zm0-27.86H39.11V51.35h7.31Z"/><path d="M90.2,56.41H87.32V28.34a5.64,5.64,0,0,0-5.63-5.63h-30a7.46,7.46,0,0,0-7.46,7.45v4.29H41.32V30.16A10.35,10.35,0,0,1,51.66,19.83h30a8.52,8.52,0,0,1,8.51,8.51Z"/><rect x="78.73" y="55.72" width="20.38" height="16.08"/><path d="M81.62,72.77V83.29h14.6V72.77Zm5.82,6.92H85.67V76.38h1.77Zm5.43,0H91.1V76.38h1.77Z"/></svg>