<svg xmlns="http://www.w3.org/2000/svg" viewBox="0 0 128 128"><defs><style>.a{fill:none;}.b{fill:#fff;}</style></defs><rect class="a" x="19.63" y="31.5" width="88.75" height="65" rx="2.5"/><path class="b" d="M105.88,96.5H22.12a2.51,2.51,0,0,1-2.5-2.5V34a2.51,2.51,0,0,1,2.5-2.5h83.76a2.51,2.51,0,0,1,2.5,2.5V94A2.51,2.51,0,0,1,105.88,96.5ZM22.12,32.75A1.25,1.25,0,0,0,20.88,34V94a1.25,1.25,0,0,0,1.24,1.25h83.76A1.25,1.25,0,0,0,107.12,94V34a1.25,1.25,0,0,0-1.24-1.25Z"/><rect class="a" x="35.88" y="42.75" width="60" height="42.5" rx="2.5"/><path class="b" d="M93.38,85.25h-55a2.5,2.5,0,0,1-2.5-2.5V45.25a2.5,2.5,0,0,1,2.5-2.5h55a2.51,2.51,0,0,1,2.5,2.5v37.5A2.51,2.51,0,0,1,93.38,85.25ZM38.38,44a1.26,1.26,0,0,0-1.26,1.25v37.5A1.26,1.26,0,0,0,38.38,84h55a1.25,1.25,0,0,0,1.24-1.25V45.25A1.25,1.25,0,0,0,93.38,44Z"/><rect class="a" x="19.63" y="54" width="10" height="28.75"/><path class="b" d="M29.62,82.75h-10V54h10ZM20.88,81.5h7.5V55.25h-7.5Z"/><rect class="b" x="22.13" y="57.75" width="5" height="1.25"/><rect class="b" x="22.13" y="60.25" width="5" height="1.25"/><rect class="b" x="22.13" y="70.25" width="5" height="1.25"/><rect class="b" x="22.13" y="62.75" width="5" height="1.25"/><rect class="b" x="22.13" y="72.75" width="5" height="1.25"/><rect class="b" x="22.13" y="75.25" width="5" height="1.25"/><rect class="b" x="22.13" y="67.75" width="5" height="1.25"/><rect class="b" x="22.13" y="77.75" width="5" height="1.25"/></svg>