<svg xmlns="http://www.w3.org/2000/svg" viewBox="0 0 128 128"><polygon points="92.24 94.15 84.8 89.25 84.8 78.99 92.24 83.9 92.24 94.15"/><path d="M93.84,83.9V94.15h23V83.9Z"/><path d="M54.66,100.44V72.07H15.77v28.37ZM19,75.17H51.46V97.34H19Z"/><path d="M54.66,102.06l4.57,8.43h-48l4.56-8.43Z"/><path d="M108.6,78.13h-4.92V61.41h8.26V17.51H51.76v43.9H78.92v3c-7.61.34-13.39,2-13.39,3.94,0,2.22,7.31,4,16.32,4s16.32-1.8,16.32-4c0-1.94-5.6-3.56-13-3.93V61.41h16V78.13H85.64L93,82.4h23ZM56.72,56.61V22.3H107V56.61Z"/><path d="M87.26,99.32a12.41,12.41,0,0,1-12.4-12.4h2.58a9.84,9.84,0,0,0,9.82,9.82Z"/><path d="M87.26,106.84A20,20,0,0,1,67.34,86.92h2.58a17.36,17.36,0,0,0,17.34,17.34Z"/></svg>