<svg id="icons" xmlns="http://www.w3.org/2000/svg" viewBox="0 0 128 128"><defs><style>.cls-1{fill:#0071bc;}</style></defs><path class="cls-1" d="M114.9,91.14l-1.6-.44a7.28,7.28,0,0,0-.48-1.86L114,87.7a.53.53,0,0,0,.06-.69l-1.43-1.93a.53.53,0,0,0-.68-.14l-1.44.82a7.48,7.48,0,0,0-1.65-1l0-1.66a.53.53,0,0,0-.44-.53l-2.38-.35a.53.53,0,0,0-.58.38l-.44,1.6a7.09,7.09,0,0,0-1.85.47l-1.15-1.21a.54.54,0,0,0-.69-.06l-1.93,1.44a.55.55,0,0,0-.14.68l.83,1.44a7.1,7.1,0,0,0-1,1.64l-1.66,0A.54.54,0,0,0,97,89l-.35,2.39A.54.54,0,0,0,97,92l1.6.44a7.58,7.58,0,0,0,.47,1.86l-1.2,1.14a.53.53,0,0,0-.06.69L99.25,98a.53.53,0,0,0,.68.14l1.44-.82a7.48,7.48,0,0,0,1.65,1l0,1.66a.53.53,0,0,0,.44.53l2.38.35a.54.54,0,0,0,.58-.37l.43-1.61a7.16,7.16,0,0,0,1.86-.47l1.15,1.21a.54.54,0,0,0,.69.06l1.93-1.44a.54.54,0,0,0,.14-.67l-.83-1.45a7.1,7.1,0,0,0,1-1.64l1.66,0a.54.54,0,0,0,.53-.44l.35-2.38A.55.55,0,0,0,114.9,91.14ZM108,94.35a3.48,3.48,0,1,1,.72-4.87A3.47,3.47,0,0,1,108,94.35Z"/><path class="cls-1" d="M79.89,78.59a4.84,4.84,0,1,0,4.84,4.84A4.84,4.84,0,0,0,79.89,78.59Z"/><path class="cls-1" d="M92.67,90.8a14.53,14.53,0,0,0,1.47-3.54l3.29-.39a1.08,1.08,0,0,0,.92-1V81a1.06,1.06,0,0,0-.92-1l-3.29-.4a14.77,14.77,0,0,0-1.47-3.55l2-2.6a1.07,1.07,0,0,0-.08-1.38l-3.4-3.4a1.07,1.07,0,0,0-1.38-.08l-2.6,2a14.67,14.67,0,0,0-3.54-1.46l-.4-3.3a1.06,1.06,0,0,0-1-.91H77.48a1.07,1.07,0,0,0-1,.91l-.39,3.3a14.35,14.35,0,0,0-3.54,1.46l-2.61-2a1.08,1.08,0,0,0-1.38.09l-3.4,3.39a1.07,1.07,0,0,0-.08,1.38l2,2.61a14.67,14.67,0,0,0-1.46,3.54l-3.3.4a1.06,1.06,0,0,0-.91,1v4.81a1.07,1.07,0,0,0,.91,1l3.3.39A14.91,14.91,0,0,0,67.1,90.8l-2,2.61a1.08,1.08,0,0,0,.09,1.38l3.39,3.4a1.07,1.07,0,0,0,1.38.08l2.61-2a14.51,14.51,0,0,0,3.54,1.46l.39,3.3a1.07,1.07,0,0,0,1,.91h4.8a1.06,1.06,0,0,0,1-.91l.4-3.3a14.67,14.67,0,0,0,3.54-1.46l2.61,2a1.09,1.09,0,0,0,1.38-.08l3.39-3.4a1.06,1.06,0,0,0,.08-1.38Zm-12.78-.43a6.95,6.95,0,1,1,7-6.94A6.94,6.94,0,0,1,79.89,90.37Z"/><path class="cls-1" d="M92.67,90.8a14.53,14.53,0,0,0,1.47-3.54l3.29-.39a1.08,1.08,0,0,0,.92-1V81a1.06,1.06,0,0,0-.92-1l-3.29-.4a14.77,14.77,0,0,0-1.47-3.55l2-2.6a1.07,1.07,0,0,0-.08-1.38l-3.4-3.4a1.07,1.07,0,0,0-1.38-.08l-2.6,2a14.67,14.67,0,0,0-3.54-1.46l-.4-3.3a1.06,1.06,0,0,0-1-.91H77.48a1.07,1.07,0,0,0-1,.91l-.39,3.3a14.35,14.35,0,0,0-3.54,1.46l-2.61-2a1.08,1.08,0,0,0-1.38.09l-3.4,3.39a1.07,1.07,0,0,0-.08,1.38l2,2.61a14.67,14.67,0,0,0-1.46,3.54l-3.3.4a1.06,1.06,0,0,0-.91,1v4.81a1.07,1.07,0,0,0,.91,1l3.3.39A14.91,14.91,0,0,0,67.1,90.8l-2,2.61a1.08,1.08,0,0,0,.09,1.38l3.39,3.4a1.07,1.07,0,0,0,1.38.08l2.61-2a14.51,14.51,0,0,0,3.54,1.46l.39,3.3a1.07,1.07,0,0,0,1,.91h4.8a1.06,1.06,0,0,0,1-.91l.4-3.3a14.67,14.67,0,0,0,3.54-1.46l2.61,2a1.09,1.09,0,0,0,1.38-.08l3.39-3.4a1.06,1.06,0,0,0,.08-1.38Zm-12.78-.43a6.95,6.95,0,1,1,7-6.94A6.94,6.94,0,0,1,79.89,90.37Z"/><path class="cls-1" d="M63.73,96.2a3.08,3.08,0,0,1-.25-4l1.26-1.61a15.06,15.06,0,0,1-.62-1.49l-2-.24A3.07,3.07,0,0,1,60,87.6v3.74H52.28V83.61h7.15V81c0-.14,0-.28,0-.41H52.28V72.88H60v6.38A3,3,0,0,1,62.11,78l2-.24c.18-.51.39-1,.62-1.5l-1.26-1.59a3.09,3.09,0,0,1,.25-4l.77-.77h-.79V62.15h7.74v5.12l1.28,1c.49-.23,1-.44,1.5-.62l.24-2a3.09,3.09,0,0,1,2.08-2.52v-37H12.72V96.62H64.15Zm0-66.23h7.74v7.74H63.71Zm0,10.73h7.74v7.74H63.71Zm0,10.73h7.74v7.73H63.71ZM52.28,30H60v7.74H52.28Zm0,10.73H60v7.74H52.28Zm0,10.73H60v7.73H52.28Zm0,10.72H60v7.74H52.28ZM29.42,30h7.74v7.74H29.42Zm0,10.73h7.74v7.74H29.42ZM18,30h7.74v7.74H18ZM18,40.7h7.74v7.74H18Zm0,21.45h7.74v7.74H18Zm0,10.73h7.74v7.74H18Zm30.6,18.46H18V83.61h30.6ZM37.16,72.88v7.74H29.42V72.88Zm-7.74-3V62.15h7.74v7.74ZM48.59,80.62H40.85V72.88h7.74Zm0-10.73H40.85V62.15h7.74Zm0-10.73H18V51.43h30.6Zm0-10.72H40.85V40.7h7.74Zm0-10.73H40.85V30h7.74Z"/></svg>