<svg xmlns="http://www.w3.org/2000/svg" viewBox="0 0 128 128"><path d="M43.75,71.34V66.65H38.13v4.69H33.44V77h4.69v4.69h5.62V77h4.69V71.34Z"/><path d="M86.6,71a3.34,3.34,0,1,0,0,4.73,3.34,3.34,0,0,0,0-4.73Z"/><path d="M95.6,71a3.34,3.34,0,1,0,0,4.73,3.34,3.34,0,0,0,0-4.73Z"/><path d="M87.5,54.54H66.81a6,6,0,0,1,6-5.91A11.63,11.63,0,0,0,84.43,37V34.22H78.81V37a6,6,0,0,1-6,6h0A11.64,11.64,0,0,0,61.18,54.54H40.5A19.61,19.61,0,1,0,58.78,81.26H69.21A19.61,19.61,0,1,0,87.49,54.55Zm0,33.6A14,14,0,0,1,74,77.72l-.55-2.09H54.57L54,77.72A14,14,0,1,1,40.5,60.16h47a14,14,0,0,1,.29,28Z"/><rect x="58.75" y="64.4" width="10.5" height="5.62"/></svg>