<svg xmlns="http://www.w3.org/2000/svg" viewBox="0 0 128 128"><defs><style>.a{fill:none;}.b{fill:#fff;}</style></defs><rect class="a" x="19.63" y="44.63" width="80" height="38.75"/><path class="b" d="M99.62,83.38h-80V44.62h80ZM20.88,82.12h77.5V45.88H20.88Z"/><rect class="a" x="73.38" y="50.88" width="18.75" height="26.25" rx="2.5"/><path class="b" d="M89.62,77.12H75.88a2.5,2.5,0,0,1-2.5-2.5V53.38a2.5,2.5,0,0,1,2.5-2.5H89.62a2.5,2.5,0,0,1,2.5,2.5V74.62A2.5,2.5,0,0,1,89.62,77.12Zm-13.74-25a1.27,1.27,0,0,0-1.26,1.26V74.62a1.27,1.27,0,0,0,1.26,1.26H89.62a1.27,1.27,0,0,0,1.26-1.26V53.38a1.27,1.27,0,0,0-1.26-1.26Z"/><rect class="a" x="50.88" y="50.88" width="18.75" height="26.25" rx="2.5"/><path class="b" d="M67.12,77.12H53.38a2.5,2.5,0,0,1-2.5-2.5V53.38a2.5,2.5,0,0,1,2.5-2.5H67.12a2.5,2.5,0,0,1,2.5,2.5V74.62A2.5,2.5,0,0,1,67.12,77.12Zm-13.74-25a1.27,1.27,0,0,0-1.26,1.26V74.62a1.27,1.27,0,0,0,1.26,1.26H67.12a1.27,1.27,0,0,0,1.26-1.26V53.38a1.27,1.27,0,0,0-1.26-1.26Z"/><rect class="a" x="28.38" y="67.13" width="18.75" height="10" rx="2.5"/><path class="b" d="M44.62,77.12H30.88a2.5,2.5,0,0,1-2.5-2.5v-5a2.51,2.51,0,0,1,2.5-2.5H44.62a2.51,2.51,0,0,1,2.5,2.5v5A2.5,2.5,0,0,1,44.62,77.12ZM30.88,68.38a1.26,1.26,0,0,0-1.26,1.24v5a1.27,1.27,0,0,0,1.26,1.26H44.62a1.27,1.27,0,0,0,1.26-1.26v-5a1.26,1.26,0,0,0-1.26-1.24Z"/><rect class="a" x="28.38" y="50.88" width="18.75" height="10" rx="2.5"/><path class="b" d="M44.62,60.88H30.88a2.51,2.51,0,0,1-2.5-2.5v-5a2.5,2.5,0,0,1,2.5-2.5H44.62a2.5,2.5,0,0,1,2.5,2.5v5A2.51,2.51,0,0,1,44.62,60.88ZM30.88,52.12a1.27,1.27,0,0,0-1.26,1.26v5a1.26,1.26,0,0,0,1.26,1.24H44.62a1.26,1.26,0,0,0,1.26-1.24v-5a1.27,1.27,0,0,0-1.26-1.26Z"/><rect class="a" x="98.38" y="47.12" width="10" height="33.75"/><path class="b" d="M108.38,80.88h-10V47.12h10Zm-8.76-1.26h7.5V48.38h-7.5Z"/><rect class="b" x="100.88" y="75.87" width="5" height="1.25"/><rect class="b" x="100.88" y="72.12" width="5" height="1.25"/><rect class="b" x="100.88" y="68.37" width="5" height="1.25"/><rect class="b" x="100.88" y="58.37" width="5" height="1.25"/><rect class="b" x="100.88" y="54.62" width="5" height="1.25"/><rect class="b" x="100.88" y="64.62" width="5" height="1.25"/><rect class="b" x="100.88" y="50.87" width="5" height="1.25"/></svg>