<svg xmlns="http://www.w3.org/2000/svg" viewBox="0 0 128 128"><defs><style>.a{fill:#fff;}</style></defs><path class="a" d="M43.76,58.59a.82.82,0,0,1,.32-.64,1.31,1.31,0,0,1,.87-.29h3A6.69,6.69,0,0,1,50,58a4,4,0,0,1,1.4.8,2.9,2.9,0,0,1,.79,1.11,3.45,3.45,0,0,1,.25,1.3v.14A2.84,2.84,0,0,1,52,62.84a2.8,2.8,0,0,1-1.35,1A2.93,2.93,0,0,1,52.41,65a3.25,3.25,0,0,1,.47,1.74v.14a4.11,4.11,0,0,1-.21,1.3,2.55,2.55,0,0,1-.72,1.1,4,4,0,0,1-1.4.77,7.26,7.26,0,0,1-2.23.28H44.94a1.15,1.15,0,0,1-.86-.33,1,1,0,0,1-.33-.7Zm2.31,1v3.43h2.26a2.26,2.26,0,0,0,1.36-.49,1.33,1.33,0,0,0,.46-1v-.37a1.29,1.29,0,0,0-.55-1.12,2.88,2.88,0,0,0-1.69-.41Zm0,8.79h2.26A2.71,2.71,0,0,0,50,68a1.38,1.38,0,0,0,.56-1.14v-.3A1.58,1.58,0,0,0,50,65.36a2.54,2.54,0,0,0-1.71-.48H46.07Z"/><path class="a" d="M55.35,58.4a.91.91,0,0,1,.32-.65,1.25,1.25,0,0,1,.87-.28,1.13,1.13,0,0,1,.81.28.87.87,0,0,1,.32.65V69.58a.85.85,0,0,1-.32.64,1.14,1.14,0,0,1-.81.29,1.26,1.26,0,0,1-.87-.29.89.89,0,0,1-.32-.64Z"/><path class="a" d="M65.05,64.71a1,1,0,0,1,.29-.74,1,1,0,0,1,.76-.29h2.43a1.26,1.26,0,0,1,.84.24.93.93,0,0,1,.29.77v3.86a4.12,4.12,0,0,1-.57.75,3.57,3.57,0,0,1-.83.63,4.54,4.54,0,0,1-1.18.44,8.19,8.19,0,0,1-1.63.16,5.94,5.94,0,0,1-2.17-.38,4.5,4.5,0,0,1-1.58-1,4.2,4.2,0,0,1-1-1.52,5.4,5.4,0,0,1-.33-1.86V62.28a5.3,5.3,0,0,1,.32-1.85,4.1,4.1,0,0,1,1-1.54,4.43,4.43,0,0,1,1.56-1,5.51,5.51,0,0,1,2.16-.39,5.73,5.73,0,0,1,2,.33,3.37,3.37,0,0,1,1.35.8,1.13,1.13,0,0,1,.35.77.86.86,0,0,1-.27.62,1.13,1.13,0,0,1-.69.29,1.34,1.34,0,0,1-.89-.26,2.83,2.83,0,0,0-.89-.34,3.71,3.71,0,0,0-1-.13,2.89,2.89,0,0,0-1.89.62,2.42,2.42,0,0,0-.76,2V65.9A3,3,0,0,0,62.92,67a2.11,2.11,0,0,0,.59.8,2.31,2.31,0,0,0,.86.46,3.75,3.75,0,0,0,1,.15,3.55,3.55,0,0,0,.92-.09,2.61,2.61,0,0,0,.67-.27l.35-.25v-2.1H66.1a1,1,0,0,1-.76-.29A1,1,0,0,1,65.05,64.71Z"/><path class="a" d="M79.62,57.66a1.19,1.19,0,0,1,.86.29,1.06,1.06,0,0,1,.28.78,1,1,0,0,1-.28.74,1.15,1.15,0,0,1-.86.29H77V69.6a.85.85,0,0,1-.3.64,1.18,1.18,0,0,1-.82.29,1.24,1.24,0,0,1-.87-.29.82.82,0,0,1-.32-.64V59.76H72.37a1.14,1.14,0,0,1-.82-.29,1,1,0,0,1-.31-.74,1,1,0,0,1,.31-.78,1.18,1.18,0,0,1,.82-.29Z"/><path class="a" d="M90.15,58a1,1,0,0,1,.29.78,1,1,0,0,1-.29.74,1.13,1.13,0,0,1-.84.29H84.88v3.11h3a1.15,1.15,0,0,1,.86.29,1.07,1.07,0,0,1,.29.78,1,1,0,0,1-.29.74,1.19,1.19,0,0,1-.86.29h-3v3.26h4.43a1.13,1.13,0,0,1,.84.29,1,1,0,0,1,.29.78,1,1,0,0,1-.29.74,1.13,1.13,0,0,1-.84.29H83.75a1.28,1.28,0,0,1-.86-.29.81.81,0,0,1-.32-.64V58.59a.82.82,0,0,1,.32-.64,1.28,1.28,0,0,1,.86-.29h5.56A1.17,1.17,0,0,1,90.15,58Z"/><path class="a" d="M92.81,58.59a.86.86,0,0,1,.33-.64,1.28,1.28,0,0,1,.86-.29h2.79a8.24,8.24,0,0,1,2.26.28,4,4,0,0,1,1.49.78,3,3,0,0,1,.82,1.21,4.46,4.46,0,0,1,.26,1.57v.14a3,3,0,0,1-.47,1.73,3.09,3.09,0,0,1-1.63,1.16l2.2,4.49a.66.66,0,0,1,.06.69,1.39,1.39,0,0,1-.61.68,1.2,1.2,0,0,1-.85.11.94.94,0,0,1-.6-.41l-2.21-4.75a1.94,1.94,0,0,1-.34,0h-2v4.28a.79.79,0,0,1-.3.62,1.26,1.26,0,0,1-.83.27,1.21,1.21,0,0,1-.86-.32,1,1,0,0,1-.32-.67Zm2.32,1v3.82h1.66A3.18,3.18,0,0,0,98.72,63a1.45,1.45,0,0,0,.59-1.17v-.38a1.66,1.66,0,0,0-.59-1.33,3,3,0,0,0-1.93-.49Z"/><path class="a" d="M113.51,69.24a.86.86,0,0,1-.11.7,1.2,1.2,0,0,1-.76.5,1.22,1.22,0,0,1-.88-.08.87.87,0,0,1-.48-.53l-.71-2.3h-4.32l-.73,2.31a1,1,0,0,1-.5.54A1.34,1.34,0,0,1,103.4,70a.8.8,0,0,1-.13-.7l3.88-11a1.08,1.08,0,0,1,.44-.59,1.53,1.53,0,0,1,1.67,0,1.12,1.12,0,0,1,.46.59Zm-6.65-3.64H110l-1.52-4.91Z"/><path class="a" d="M20.62,56a3.08,3.08,0,1,1-3.08-3.08A3.08,3.08,0,0,1,20.62,56Z"/><path class="a" d="M29.61,56a3.09,3.09,0,1,1-3.09-3.08h0A3.08,3.08,0,0,1,29.61,56Z"/><path class="a" d="M38.59,56a3.08,3.08,0,1,1-3.08-3.08A3.08,3.08,0,0,1,38.59,56Z"/><path class="a" d="M17.54,69A3.08,3.08,0,1,1,14.46,72,3.08,3.08,0,0,1,17.54,69Z"/><path class="a" d="M17.54,60.92A3.08,3.08,0,1,1,14.46,64a3.08,3.08,0,0,1,3.08-3.08Z"/><path class="a" d="M26.53,69A3.08,3.08,0,1,1,23.45,72,3.08,3.08,0,0,1,26.53,69Z"/><path class="a" d="M26.53,60.92A3.08,3.08,0,1,1,23.45,64a3.08,3.08,0,0,1,3.08-3.08Z"/><path class="a" d="M35.51,69A3.08,3.08,0,1,1,32.43,72,3.08,3.08,0,0,1,35.51,69Z"/><path class="a" d="M35.51,60.92A3.08,3.08,0,1,1,32.43,64a3.08,3.08,0,0,1,3.08-3.08Z"/></svg>