<svg id="icons" xmlns="http://www.w3.org/2000/svg" viewBox="0 0 128 128"><defs><style>.cls-1{fill:#0071bc;}</style></defs><g id="tablet-svgrepo-com"><g id="Group_23" data-name="Group 23"><path id="Path_90" data-name="Path 90" class="cls-1" d="M89.48,23.05h-51a7.28,7.28,0,0,0-7.28,7.28V97.67A7.28,7.28,0,0,0,38.52,105h51a7.28,7.28,0,0,0,7.28-7.28V30.33A7.28,7.28,0,0,0,89.48,23.05ZM64,101a3.13,3.13,0,1,1,3.13-3.14A3.13,3.13,0,0,1,64,101ZM90.39,90a1.59,1.59,0,0,1-1.59,1.59H39.2A1.59,1.59,0,0,1,37.61,90h0V30.85a1.59,1.59,0,0,1,1.59-1.59H88.8a1.59,1.59,0,0,1,1.59,1.58h0Z"/></g></g></svg>