<svg xmlns="http://www.w3.org/2000/svg" viewBox="0 0 128 128"><path d="M46.37,93l14.24-.08v3.29l17.93-.11,0-9.06-50.1.3,0,9.06,17.93-.11Z"/><path d="M79.63,54.86l-.1,51.33L92,106.12l.07-38.91h0l0-5.43h0v-7Z"/><path d="M78.61,58.3l0-10.6L28.82,48h-.29l0,10.6Z"/><path d="M28.43,97.44l0,9.06,17.94-.11v-3.16l14.24-.08v3.15l17.94-.1V97.13Z"/><path d="M92.1,53.77V47.62l-12.46.08v6.14Z"/><path d="M28.47,77.42l50.11-.3,0-17.8-50.1.3Z"/><path d="M36.64,46.94l0-9.1H34.38l-5.9,0V47h.6Z"/><path d="M106,49V46.28L93.09,62.14V64.4Z"/><path d="M92,21.5l-32.58.2v1a34,34,0,0,1,13.09,3l.26.15v3.62l-.7-.29A42.8,42.8,0,0,0,55.84,26l-27.27.17v6.7L92,32.48Z"/><path d="M28.46,86.35l17.93-.12V82.81l14.25-.08v3.42L78.57,86v-7.9l-50.1.3Z"/><path d="M22,86.32l5.4,0,.07-38.07-5.4,0Z"/><path d="M92,33.5l-63.43.38v3l5.83,0,3.3,0h0L92,36.54Z"/></svg>