<svg xmlns="http://www.w3.org/2000/svg" viewBox="0 0 128 128"><defs><style>.a{fill:#fff;}</style></defs><path class="a" d="M5.24,82.82A2.52,2.52,0,0,0,6,82.71a2.15,2.15,0,0,0,.69-.31,1.83,1.83,0,0,0,.48-.52,1.47,1.47,0,0,0,.18-.71,1.45,1.45,0,0,0-.25-.86,2.92,2.92,0,0,0-.66-.7A6.36,6.36,0,0,0,5.52,79l-1.06-.56c-.37-.19-.72-.38-1.07-.59a5.54,5.54,0,0,1-.93-.68,3.32,3.32,0,0,1-.65-.84,2.23,2.23,0,0,1-.25-1.08,2.7,2.7,0,0,1,.22-1.12,2.5,2.5,0,0,1,.67-.9,3.28,3.28,0,0,1,1.08-.6A4.65,4.65,0,0,1,5,72.44a4,4,0,0,1,2.37.62,3.56,3.56,0,0,1,1.26,1.83l-.92.41a4.18,4.18,0,0,0-.4-.89,3,3,0,0,0-.59-.69,2.72,2.72,0,0,0-.8-.44,2.85,2.85,0,0,0-1-.15,2.37,2.37,0,0,0-.87.14,1.83,1.83,0,0,0-.62.36,1.34,1.34,0,0,0-.37.51,1.29,1.29,0,0,0-.13.58,1.23,1.23,0,0,0,.26.76,3.49,3.49,0,0,0,.67.66,9.6,9.6,0,0,0,1,.6l1.1.58c.37.19.74.4,1.1.61a6.54,6.54,0,0,1,1,.7,3.44,3.44,0,0,1,.67.84,2,2,0,0,1,.26,1,3,3,0,0,1-.24,1.18,2.74,2.74,0,0,1-.72,1,3.54,3.54,0,0,1-1.19.65,5.79,5.79,0,0,1-3,.07,3.47,3.47,0,0,1-1-.49,2.93,2.93,0,0,1-.79-.78,4.88,4.88,0,0,1-.54-1l1-.4a3.21,3.21,0,0,0,1.1,1.62,2.9,2.9,0,0,0,.84.43A3.16,3.16,0,0,0,5.24,82.82Z"/><path class="a" d="M12.14,76.58a5.56,5.56,0,0,1,1.53-1.24,3.55,3.55,0,0,1,1.63-.41,1.71,1.71,0,0,1,.8.19,2.08,2.08,0,0,1,.65.53,2.62,2.62,0,0,1,.44.78,3.17,3.17,0,0,1,.16,1v5.86H15.73V77.67a1.83,1.83,0,0,0-.36-1.22,1.19,1.19,0,0,0-.94-.42,2,2,0,0,0-.55.08,3.32,3.32,0,0,0-.59.24,4.38,4.38,0,0,0-.58.37,5.27,5.27,0,0,0-.57.49v6H10.53V71.39l1.15-.47h.46Z"/><path class="a" d="M25.45,83.25H23.83V82.13l-.56.45a6.42,6.42,0,0,1-.6.42,3.82,3.82,0,0,1-.72.31,3,3,0,0,1-.9.11,2.34,2.34,0,0,1-.87-.15,2.09,2.09,0,0,1-.66-.43,2,2,0,0,1-.42-.65,2.36,2.36,0,0,1-.14-.8,2.05,2.05,0,0,1,.21-.94,2.61,2.61,0,0,1,.57-.76,3.84,3.84,0,0,1,.84-.59,9.35,9.35,0,0,1,1-.46c.36-.14.73-.26,1.11-.37s.76-.2,1.12-.29v-.51a3.31,3.31,0,0,0-.11-.94,1.67,1.67,0,0,0-.32-.62,1.07,1.07,0,0,0-.5-.33,1.8,1.8,0,0,0-.65-.1,1.71,1.71,0,0,0-.67.1,1.07,1.07,0,0,0-.41.28,1.25,1.25,0,0,0-.2.4,2.3,2.3,0,0,0,0,.45,2.73,2.73,0,0,1,0,.41.87.87,0,0,1-.13.35.69.69,0,0,1-.24.24.83.83,0,0,1-.4.09.85.85,0,0,1-.62-.27,1,1,0,0,1-.17-.31,1.22,1.22,0,0,1,.2-1.13,2.55,2.55,0,0,1,.71-.6,4.46,4.46,0,0,1,1.05-.4,5.36,5.36,0,0,1,1.26-.15,5.17,5.17,0,0,1,1.36.16,2.25,2.25,0,0,1,.89.44,1.53,1.53,0,0,1,.5.68,2.64,2.64,0,0,1,.15.89ZM23.83,78.5l-.72.25-.74.32a7.69,7.69,0,0,0-.69.39,4,4,0,0,0-.57.45,1.73,1.73,0,0,0-.39.5,1.08,1.08,0,0,0-.15.55A1.52,1.52,0,0,0,21,82a1.46,1.46,0,0,0,.42.32,1.06,1.06,0,0,0,.5.12,2.32,2.32,0,0,0,.52-.07,2.76,2.76,0,0,0,.47-.2,4.48,4.48,0,0,0,.47-.28l.47-.35Z"/><path class="a" d="M27.2,75.1h1.62v1.48a5.56,5.56,0,0,1,1.53-1.24A3.54,3.54,0,0,1,32,74.93a1.81,1.81,0,0,1,.8.19,2,2,0,0,1,.66.53,2.67,2.67,0,0,1,.44.79,2.79,2.79,0,0,1,.16,1v5.86H32.41V77.67A1.79,1.79,0,0,0,32,76.45a1.18,1.18,0,0,0-.93-.42,2.09,2.09,0,0,0-.55.08,3.23,3.23,0,0,0-.58.24,5.87,5.87,0,0,0-.59.37,5.27,5.27,0,0,0-.57.49v6H27.2Z"/><path class="a" d="M35.79,75.1h1.62v1.48a5.56,5.56,0,0,1,1.53-1.24,3.54,3.54,0,0,1,1.62-.41,1.81,1.81,0,0,1,.8.19,2,2,0,0,1,.66.53,2.67,2.67,0,0,1,.44.79,2.79,2.79,0,0,1,.16,1v5.86H41V77.67a1.79,1.79,0,0,0-.37-1.22A1.18,1.18,0,0,0,39.7,76a2,2,0,0,0-.55.08,3.23,3.23,0,0,0-.58.24,5.87,5.87,0,0,0-.59.37,5.27,5.27,0,0,0-.57.49v6H35.79Z"/><path class="a" d="M48.55,83.42a4.3,4.3,0,0,1-1.73-.33,4.08,4.08,0,0,1-1.36-.88,4,4,0,0,1-.9-1.32,3.89,3.89,0,0,1-.32-1.61,4.32,4.32,0,0,1,.32-1.7,4.12,4.12,0,0,1,.9-1.38,4.07,4.07,0,0,1,1.36-.93,4.31,4.31,0,0,1,1.73-.34,4.41,4.41,0,0,1,1.72.31,4.21,4.21,0,0,1,1.36.85,3.86,3.86,0,0,1,.9,1.28,3.79,3.79,0,0,1,.32,1.56,4.56,4.56,0,0,1-.32,1.75,4.51,4.51,0,0,1-.9,1.42,4.34,4.34,0,0,1-1.36,1A4.08,4.08,0,0,1,48.55,83.42Zm.3-.6a1.65,1.65,0,0,0,.87-.24,2.45,2.45,0,0,0,.7-.66,3.56,3.56,0,0,0,.45-1A4.23,4.23,0,0,0,51,79.78a9.23,9.23,0,0,0-.15-1.66,4.25,4.25,0,0,0-.5-1.34,2.43,2.43,0,0,0-.89-.91,2.52,2.52,0,0,0-1.34-.33,1.48,1.48,0,0,0-.79.23,2.44,2.44,0,0,0-.67.65,3.66,3.66,0,0,0-.47,1,4.17,4.17,0,0,0-.17,1.16,7.13,7.13,0,0,0,.19,1.67,4.63,4.63,0,0,0,.55,1.37,2.83,2.83,0,0,0,.88.91,2.06,2.06,0,0,0,1.18.34Z"/><path class="a" d="M54.51,75.1h1.62v1.48a5.56,5.56,0,0,1,1.53-1.24,3.54,3.54,0,0,1,1.62-.41,1.81,1.81,0,0,1,.8.19,2,2,0,0,1,.66.53,2.67,2.67,0,0,1,.44.79,2.79,2.79,0,0,1,.16,1v5.86H59.72V77.67a1.79,1.79,0,0,0-.37-1.22,1.18,1.18,0,0,0-.93-.42,2,2,0,0,0-.55.08,3.72,3.72,0,0,0-.58.24,5.87,5.87,0,0,0-.59.37,5.27,5.27,0,0,0-.57.49v6H54.51Z"/><path class="a" d="M71,82.82a2.63,2.63,0,0,0,.78-.11,2.2,2.2,0,0,0,.68-.31,1.7,1.7,0,0,0,.48-.52,1.38,1.38,0,0,0,.19-.71,1.52,1.52,0,0,0-.25-.86,3.14,3.14,0,0,0-.66-.7,6.36,6.36,0,0,0-.93-.59l-1.07-.56c-.36-.19-.71-.38-1.06-.59a5.16,5.16,0,0,1-.93-.68,3.36,3.36,0,0,1-.66-.84,2.23,2.23,0,0,1-.25-1.08,2.88,2.88,0,0,1,.23-1.12,2.39,2.39,0,0,1,.67-.9,3.19,3.19,0,0,1,1.08-.6,4.65,4.65,0,0,1,1.48-.21,4,4,0,0,1,2.37.62,3.54,3.54,0,0,1,1.25,1.83l-.91.41a4.18,4.18,0,0,0-.4-.89,3,3,0,0,0-.59-.69,2.72,2.72,0,0,0-.8-.44,2.82,2.82,0,0,0-1-.15,2.39,2.39,0,0,0-.88.14,1.83,1.83,0,0,0-.62.36,1.34,1.34,0,0,0-.37.51,1.29,1.29,0,0,0-.13.58,1.23,1.23,0,0,0,.26.76,3.49,3.49,0,0,0,.67.66,9.6,9.6,0,0,0,1,.6l1.1.58c.37.2.74.4,1.1.61a6.54,6.54,0,0,1,1,.7,3.44,3.44,0,0,1,.67.84,2,2,0,0,1,.26,1,3,3,0,0,1-.24,1.18,2.74,2.74,0,0,1-.72,1,3.59,3.59,0,0,1-1.18.65,5.84,5.84,0,0,1-3,.07,3.47,3.47,0,0,1-1.05-.49,3.08,3.08,0,0,1-.79-.78,4.88,4.88,0,0,1-.54-1l1-.4a3.15,3.15,0,0,0,.45.92,3.09,3.09,0,0,0,.65.7,2.9,2.9,0,0,0,.84.43A3.1,3.1,0,0,0,71,82.82Z"/><path class="a" d="M75.62,75.1h1.85L80.61,81l2.57-5.88H84l-4.15,9.57a5.16,5.16,0,0,1-.61,1,3.32,3.32,0,0,1-.73.72,2.59,2.59,0,0,1-.78.43A2.39,2.39,0,0,1,77,87a1.68,1.68,0,0,1-.5-.07,1.33,1.33,0,0,1-.42-.19,1,1,0,0,1-.28-.3.75.75,0,0,1-.1-.38.91.91,0,0,1,.26-.62,1.21,1.21,0,0,1,.3-.2,1.09,1.09,0,0,1,.4-.07,1,1,0,0,1,.41.06,1.59,1.59,0,0,1,.27.12,1,1,0,0,0,.62.19.77.77,0,0,0,.45-.14,1.8,1.8,0,0,0,.36-.37,2.43,2.43,0,0,0,.28-.47c.08-.17.16-.33.22-.48l.55-1.22Z"/><path class="a" d="M87.56,82.86a1.87,1.87,0,0,0,.62-.1,1.64,1.64,0,0,0,.48-.27A1.3,1.3,0,0,0,89,82.1a1,1,0,0,0,.12-.44A1.15,1.15,0,0,0,88.9,81a1.8,1.8,0,0,0-.49-.5,4.13,4.13,0,0,0-.7-.41l-.8-.38c-.27-.13-.54-.26-.8-.41a3.64,3.64,0,0,1-.7-.52,2.35,2.35,0,0,1-.5-.67,2.06,2.06,0,0,1-.18-.91,2,2,0,0,1,.78-1.63,2.7,2.7,0,0,1,.88-.48,3.54,3.54,0,0,1,1.12-.17,4.77,4.77,0,0,1,.76.06,2.32,2.32,0,0,1,.69.22,2.63,2.63,0,0,1,.68.46,5.12,5.12,0,0,1,.7.77l-.59.53a3.41,3.41,0,0,0-1-1.13,2.21,2.21,0,0,0-1.22-.37,2.18,2.18,0,0,0-.63.09,1.75,1.75,0,0,0-.5.23,1,1,0,0,0-.31.35.75.75,0,0,0-.12.41,1.1,1.1,0,0,0,.2.64,2.29,2.29,0,0,0,.54.49,4.6,4.6,0,0,0,.76.4l.87.39c.3.13.59.26.88.41a4.21,4.21,0,0,1,.76.51,2.35,2.35,0,0,1,.53.68,1.82,1.82,0,0,1,.2.89,2.33,2.33,0,0,1-.19,1,2.13,2.13,0,0,1-.58.78,3,3,0,0,1-1,.52,4.47,4.47,0,0,1-1.36.19,4.52,4.52,0,0,1-.74-.06,3,3,0,0,1-.76-.22,3.28,3.28,0,0,1-.76-.46,3.65,3.65,0,0,1-.75-.77l.66-.6a6.33,6.33,0,0,0,.57.71,2.74,2.74,0,0,0,.55.47,2.07,2.07,0,0,0,.58.28A2.37,2.37,0,0,0,87.56,82.86Z"/><path class="a" d="M96.55,82.2a2.4,2.4,0,0,1-.87.89,2.46,2.46,0,0,1-1.33.33,1.61,1.61,0,0,1-.71-.14,1.42,1.42,0,0,1-.5-.38,2,2,0,0,1-.29-.6,3.46,3.46,0,0,1-.09-.78V75.78H91.35v-.4a2.3,2.3,0,0,0,1.12-.25,2,2,0,0,0,.72-.67,3.53,3.53,0,0,0,.44-1,12,12,0,0,0,.28-1.18h.46V75.1H96.2v.68H94.37v5.74a1,1,0,0,0,.07.35,1,1,0,0,0,.19.27.77.77,0,0,0,.28.19.83.83,0,0,0,.34.07,1,1,0,0,0,.5-.14,1.34,1.34,0,0,0,.39-.32Z"/><path class="a" d="M101.34,83.42a3.94,3.94,0,0,1-1.55-.31,4,4,0,0,1-1.26-.85A3.83,3.83,0,0,1,97.67,81a3.68,3.68,0,0,1-.31-1.53,5.63,5.63,0,0,1,.28-1.82,4.36,4.36,0,0,1,.81-1.44,3.72,3.72,0,0,1,1.27-1,4.09,4.09,0,0,1,3.11-.06A3.55,3.55,0,0,1,104,76a3.19,3.19,0,0,1,.74,1.1,3.22,3.22,0,0,1,.27,1.3H98.91a4.86,4.86,0,0,0,.21,1.52,3.59,3.59,0,0,0,.59,1.21,2.69,2.69,0,0,0,.91.8,2.22,2.22,0,0,0,1.16.29,3,3,0,0,0,1-.17,3.66,3.66,0,0,0,.88-.45,3.08,3.08,0,0,0,.67-.63,2.29,2.29,0,0,0,.39-.74l.46.2a3.76,3.76,0,0,1-.56,1.18,5.18,5.18,0,0,1-.91,1,4.61,4.61,0,0,1-1.14.65A3.55,3.55,0,0,1,101.34,83.42ZM103,77.71a2.34,2.34,0,0,0-.16-.86,2.42,2.42,0,0,0-.45-.69,2.22,2.22,0,0,0-.67-.46,2.1,2.1,0,0,0-.82-.16,1.71,1.71,0,0,0-.7.16,2.09,2.09,0,0,0-.6.46,2.35,2.35,0,0,0-.43.69,2.53,2.53,0,0,0-.21.86Z"/><path class="a" d="M106.62,75.1h1.62v1.52a5.32,5.32,0,0,1,.7-.64,6.23,6.23,0,0,1,.8-.54,4.12,4.12,0,0,1,.83-.37,2.35,2.35,0,0,1,.79-.14,2.24,2.24,0,0,1,.73.13,2.6,2.6,0,0,1,1.23.91,1.87,1.87,0,0,1,.29.68,2.77,2.77,0,0,1,.56-.67,4.17,4.17,0,0,1,.78-.54,4.46,4.46,0,0,1,.91-.37,3.41,3.41,0,0,1,1-.14,1.89,1.89,0,0,1,.87.21,2.19,2.19,0,0,1,.7.54,2.67,2.67,0,0,1,.48.81,2.85,2.85,0,0,1,.18,1v5.76h-1.63V77.72a1.82,1.82,0,0,0-.12-.65,1.94,1.94,0,0,0-.31-.54,1.6,1.6,0,0,0-.46-.36A1.26,1.26,0,0,0,116,76a2.57,2.57,0,0,0-.67.09,3.25,3.25,0,0,0-1.23.62,2,2,0,0,0-.41.45v6.06H112V77.72a1.47,1.47,0,0,0-.12-.65,1.64,1.64,0,0,0-.32-.54,1.51,1.51,0,0,0-.47-.36,1.08,1.08,0,0,0-.56-.14,2.3,2.3,0,0,0-.64.09,4,4,0,0,0-.65.26,3.56,3.56,0,0,0-.58.37,2.34,2.34,0,0,0-.45.44v6.06h-1.62Z"/><path class="a" d="M123.5,82.86a1.87,1.87,0,0,0,.62-.1,1.64,1.64,0,0,0,.48-.27,1.34,1.34,0,0,0,.32-.39,1,1,0,0,0,.11-.44,1.15,1.15,0,0,0-.19-.65,1.8,1.8,0,0,0-.49-.5,3.77,3.77,0,0,0-.7-.41l-.8-.38c-.27-.13-.54-.26-.8-.41a4,4,0,0,1-.7-.52,2.32,2.32,0,0,1-.49-.67,2.07,2.07,0,0,1-.19-.91,2.08,2.08,0,0,1,.79-1.63,2.7,2.7,0,0,1,.88-.48,3.54,3.54,0,0,1,1.12-.17,4.74,4.74,0,0,1,.75.06,2.38,2.38,0,0,1,.7.22,2.81,2.81,0,0,1,.68.46,5.72,5.72,0,0,1,.7.77l-.6.53a3.37,3.37,0,0,0-1-1.13,2.22,2.22,0,0,0-1.23-.37,2.16,2.16,0,0,0-.62.09,1.75,1.75,0,0,0-.5.23,1.07,1.07,0,0,0-.32.35.84.84,0,0,0-.11.41,1,1,0,0,0,.2.64,2.11,2.11,0,0,0,.54.49,4.23,4.23,0,0,0,.76.4l.87.39c.3.13.59.26.87.41a3.61,3.61,0,0,1,.76.51,2.39,2.39,0,0,1,.54.68,1.94,1.94,0,0,1,.21.89,2.51,2.51,0,0,1-.2,1,2.13,2.13,0,0,1-.58.78,3,3,0,0,1-1,.52,4.82,4.82,0,0,1-2.1.13,3,3,0,0,1-.76-.22,3.57,3.57,0,0,1-.77-.46,3.86,3.86,0,0,1-.74-.77l.66-.6a6.33,6.33,0,0,0,.57.71,2.74,2.74,0,0,0,.55.47,1.78,1.78,0,0,0,.57.28A2.37,2.37,0,0,0,123.5,82.86Z"/><path class="a" d="M77.82,49.17c0,1.9-1.28,2.58-2.84,1.5L63.82,43c-1.57-1.09-1.29-2,.61-2h9.93a3.46,3.46,0,0,1,3.46,3.46Z"/><path class="a" d="M52.34,58.32c0-1.9,1.28-2.58,2.84-1.5l11.16,7.7c1.57,1.08,1.29,2-.61,2H55.8A3.46,3.46,0,0,1,52.34,63Z"/><path class="a" d="M74.76,65c1.68,1.17,3.06.44,3.06-1.61V61.71c0-3.71-1.38-4.68-3.06-5.84L55.41,42.51c-1.69-1.17-3.07-.44-3.07,1.61v1.66c0,3.71,1.38,4.68,3.07,5.84Z"/><path class="a" d="M74.76,65C67.5,52.78,55.4,42.51,55.4,42.51c-1.68-1.17-3.06-.44-3.06,1.61v1.66c0,3.71,1.38,4.68,3.06,5.84Z"/></svg>