<svg xmlns="http://www.w3.org/2000/svg" viewBox="0 0 128 128"><defs><style>.a{fill:#0071bc;}</style></defs><polygon class="a" points="25.41 57.07 25.41 53.89 17.45 53.89 17.45 86.77 25.41 86.77 25.41 84.48 18.77 84.48 18.77 83.23 25.41 83.23 25.41 81.57 18.77 81.57 18.77 80.33 25.41 80.33 25.41 78.67 18.77 78.67 18.77 77.42 25.41 77.42 25.41 75.76 18.77 75.76 18.77 74.51 25.41 74.51 25.41 72.85 18.77 72.85 18.77 71.61 25.41 71.61 25.41 69.94 18.77 69.94 18.77 68.7 25.41 68.7 25.41 67.04 18.77 67.04 18.77 65.79 25.41 65.79 25.41 64.13 18.77 64.13 18.77 62.88 25.41 62.88 25.41 61.22 18.77 61.22 18.77 59.98 25.41 59.98 25.41 58.31 18.77 58.31 18.77 57.07 25.41 57.07"/><path class="a" d="M18.65,35v16.5h6.77V89.09H18.65V93h91.9V35ZM32.44,89.09a2.32,2.32,0,1,1,2.32-2.32A2.31,2.31,0,0,1,32.44,89.09Zm0-45.32a2.32,2.32,0,1,1,2.32-2.32A2.31,2.31,0,0,1,32.44,43.77Zm38.48,37H39.4V51H70.92Zm14.37,4H77.57V46.37h7.72Zm13,0H90.58V46.37H98.3ZM105,89.09a2.32,2.32,0,1,1,2.32-2.32A2.32,2.32,0,0,1,105,89.09Zm0-45.32a2.32,2.32,0,1,1,2.32-2.32A2.32,2.32,0,0,1,105,43.77Z"/><rect class="a" x="40.29" y="51.92" width="29.75" height="27.99"/></svg>