<svg xmlns="http://www.w3.org/2000/svg" viewBox="0 0 128 128"><defs><style>.a{fill:#0071bc;}</style></defs><path class="a" d="M105.69,53.67V41.61H77.47V53.67H88.82V59h-6V73.71H51.91V66.56H75.68V27.29H22.31V66.56H46.39v7.15H27V97.84h3.68v2.87h4.09V97.84H97.51v2.87h4.09V97.84h3.89V73.71h-5.11V59h-6V53.67Zm-79,8.59V31.59H71.29V62.26ZM39.64,93.35a8.18,8.18,0,1,1,8.18-8.18A8.18,8.18,0,0,1,39.64,93.35Zm36-10H98.53V87H75.68Zm0,5.93H98.53v3.68H75.68ZM98.53,77.39v3.69H75.68V77.39Z"/><path class="a" d="M39.64,78.83A6.34,6.34,0,1,0,46,85.17,6.34,6.34,0,0,0,39.64,78.83Z"/></svg>