<svg xmlns="http://www.w3.org/2000/svg" viewBox="0 0 128 128"><defs><style>.a{fill:#0071bc;}</style></defs><polygon class="a" points="69.64 25.36 69.64 18.81 64.61 18.81 64.61 25.36 60.19 25.36 60.19 18.81 52.57 18.81 52.57 25.36 52.57 26.58 45.25 26.58 39.77 26.58 39.77 32.52 39.77 71.39 41.29 71.39 41.29 102.18 43.73 102.18 43.73 71.39 45.25 71.39 45.25 32.52 52.57 32.52 61.71 32.52 80.46 32.52 80.46 25.36 69.64 25.36"/><path class="a" d="M81.32,32.53H53.38a6.93,6.93,0,0,0-6.91,6.91v62.84a6.93,6.93,0,0,0,6.91,6.91H81.32a6.93,6.93,0,0,0,6.91-6.91V39.44A6.93,6.93,0,0,0,81.32,32.53Zm.36,3.35a2.06,2.06,0,1,1-2.06,2.06A2.06,2.06,0,0,1,81.68,35.88ZM50.51,94a2.06,2.06,0,1,1,2.06-2.06A2.06,2.06,0,0,1,50.51,94Zm2.06-8.69V42.89H81.68V85.26Zm4.08,6.63A2.06,2.06,0,1,1,58.7,94,2.05,2.05,0,0,1,56.65,91.89ZM60.19,106a2.06,2.06,0,1,1,2.06-2.06A2.06,2.06,0,0,1,60.19,106Zm0-5.79a2.06,2.06,0,1,1,2.06-2.06A2.06,2.06,0,0,1,60.19,100.2ZM66.9,89.84a2.06,2.06,0,1,1-2.06,2A2.05,2.05,0,0,1,66.9,89.84ZM67.12,106a2.06,2.06,0,1,1,2.06-2.06A2.05,2.05,0,0,1,67.12,106Zm0-5.79a2.06,2.06,0,1,1,2.06-2.06A2.05,2.05,0,0,1,67.12,100.2ZM74.06,106a2.06,2.06,0,1,1,2.06-2.06A2.06,2.06,0,0,1,74.06,106Zm0-5.79a2.06,2.06,0,1,1,2.06-2.06A2.06,2.06,0,0,1,74.06,100.2Zm1-6.25a2.06,2.06,0,1,1,2.06-2.06A2.06,2.06,0,0,1,75.09,94Zm8.19,0a2.06,2.06,0,1,1,2.06-2.06A2.06,2.06,0,0,1,83.28,94Z"/></svg>