<svg xmlns="http://www.w3.org/2000/svg" viewBox="0 0 128 128"><defs><style>.a{fill:#0071bc;}</style></defs><polygon class="a" points="42.45 93.32 22.71 80.31 22.71 34.68 42.45 47.7 42.45 93.32"/><polygon class="a" points="105.29 46.02 44.41 46.02 24.95 34.68 85.83 34.68 105.29 46.02"/><path class="a" d="M44.41,47.7V93.32h60.88V47.7ZM101.09,89H48.61V87.3h52.48Zm0-30.23v25H98.71v-25H94.83v25H92.45v-25H88.56v25H86.18v-25H82.3v25H79.92v-25H76v25H73.66v-25H69.77v25H67.39v-25H63.51v25H61.13v-25H57.25v25H54.87v-25H51v25H48.61V57.07h52.48Zm0-5.18H48.61V51.89h52.48Z"/></svg>