<svg xmlns="http://www.w3.org/2000/svg" viewBox="0 0 128 128"><defs><style>.a{fill:#0071bc;}</style></defs><polygon class="a" points="90.24 98.58 80.23 93.64 80.23 33.75 90.24 29.43 90.24 98.58"/><path class="a" d="M92.29,29.43V98.57l16.17-4.93V33.75Zm8.16,57.71a3.28,3.28,0,0,1-3.83-3.08,4.07,4.07,0,0,1,3.83-3.75,3.29,3.29,0,0,1,3.84,3.08A4.07,4.07,0,0,1,100.45,87.14Zm5.67-26.28-11.49.55V55.83l11.49.07Zm0-7.19-11.49-.34V47.75l11.49,1Zm0-7.19L94.63,45.25V39.67l11.49,1.84Z"/><polygon class="a" points="59.9 98.58 49.88 93.64 49.88 33.75 59.9 29.43 59.9 98.58"/><path class="a" d="M62,29.43V98.57l16.17-4.93V33.75Zm8.16,57.71a3.28,3.28,0,0,1-3.83-3.08,4.06,4.06,0,0,1,3.83-3.75A3.29,3.29,0,0,1,74,83.39,4.07,4.07,0,0,1,70.11,87.14Zm5.67-26.28-11.5.55V55.83l11.5.07Zm0-7.19-11.5-.34V47.75l11.5,1Zm0-7.19-11.5-1.23V39.67l11.5,1.84Z"/><polygon class="a" points="29.56 98.58 19.54 93.64 19.54 33.75 29.56 29.43 29.56 98.58"/><path class="a" d="M31.61,29.43V98.57l16.16-4.93V33.75Zm8.16,57.71a3.29,3.29,0,0,1-3.84-3.08,4.07,4.07,0,0,1,3.84-3.75,3.28,3.28,0,0,1,3.83,3.08A4.06,4.06,0,0,1,39.77,87.14Zm5.67-26.28-11.5.55V55.83l11.5.07Zm0-7.19-11.5-.34V47.75l11.5,1Zm0-7.19-11.5-1.23V39.67l11.5,1.84Z"/></svg>