<svg xmlns="http://www.w3.org/2000/svg" viewBox="0 0 128 128"><defs><style>.a{fill:#0071bc;}</style></defs><path class="a" d="M52,32.85H33.52a4.63,4.63,0,0,0-4.63,4.63v65.34a4.63,4.63,0,0,0,4.63,4.63H52a4.63,4.63,0,0,0,4.63-4.63V37.48A4.64,4.64,0,0,0,52,32.85ZM46.42,94.94H39.11V78.48h7.31Zm0-27.86H39.11V50.63h7.31Z"/><path class="a" d="M90.2,55.69H87.32V27.62A5.64,5.64,0,0,0,81.69,22h-30a7.46,7.46,0,0,0-7.46,7.45v4.29H41.32V29.44A10.35,10.35,0,0,1,51.66,19.11h30a8.52,8.52,0,0,1,8.51,8.51Z"/><rect class="a" x="78.73" y="55" width="20.38" height="16.08"/><path class="a" d="M81.62,72.05V82.57h14.6V72.05ZM87.44,79H85.67V75.66h1.77Zm5.43,0H91.1V75.66h1.77Z"/></svg>