<svg xmlns="http://www.w3.org/2000/svg" viewBox="0 0 128 128"><defs><style>.a{fill:#0071bc;}</style></defs><path class="a" d="M84.34,54.45v6.49H95.25V54.45ZM94,60H85.57V55.36H94Z"/><path class="a" d="M96.25,54.45v6.49h10.91V54.45ZM105.93,60H97.48V55.36h8.45Z"/><path class="a" d="M84.34,62.18v6.49H95.25V62.18ZM94,67.76H85.57V63.09H94Z"/><path class="a" d="M96.25,62.18v6.49h10.91V62.18Zm9.68,5.58H97.48V63.09h8.45Z"/><path class="a" d="M103.8,75.26l-4.1,4L99,78.51l4.09-4A6.4,6.4,0,0,0,92.72,78H85.38v3.69H93a6.41,6.41,0,1,0,10.85-6.43Z"/><path class="a" d="M88.55,43.77a.64.64,0,0,0-.5.21.79.79,0,0,0-.19.56v2.37a.78.78,0,0,0,.19.56.7.7,0,0,0,1,0,.82.82,0,0,0,.19-.56V44.54a.84.84,0,0,0-.19-.56A.64.64,0,0,0,88.55,43.77Z"/><path class="a" d="M84.34,41.44V50h17.27V41.44Zm5.94,5.48a1.6,1.6,0,0,1-.5,1.24,1.91,1.91,0,0,1-2.46,0,1.6,1.6,0,0,1-.5-1.24V44.53a1.59,1.59,0,0,1,.5-1.24,1.87,1.87,0,0,1,2.46,0,1.59,1.59,0,0,1,.5,1.24Zm3.45,1.65h-1V44l-1.15,1V43.89l1.15-1h1Z"/><path class="a" d="M14.88,31.41V96.59h98.24V31.41Zm94.35,61.66H18.77V34.93h90.46Z"/><path class="a" d="M36.8,54.18a.88.88,0,0,0,.67-.28,1.08,1.08,0,0,0,.25-.75V50a1.08,1.08,0,0,0-.25-.75.86.86,0,0,0-.67-.29.89.89,0,0,0-.68.29,1.08,1.08,0,0,0-.25.75v3.19a1.08,1.08,0,0,0,.25.75A.92.92,0,0,0,36.8,54.18Z"/><path class="a" d="M42.62,54.18a1.06,1.06,0,0,0,.75-.31,1,1,0,0,0,.3-.74,1,1,0,0,0-1.05-1.07,1.06,1.06,0,0,0-1,1.07,1,1,0,0,0,.31.74A1,1,0,0,0,42.62,54.18Z"/><path class="a" d="M42.62,50.85a.93.93,0,0,0,.68-.27,1,1,0,0,0,.26-.69,1,1,0,0,0-.26-.69,1,1,0,0,0-1.36,0,1,1,0,0,0-.27.69.92.92,0,0,0,.95,1Z"/><path class="a" d="M80.8,63.86l-2.57-2.72-3.48,4.11L72.1,62.53l-2.33,3.68-2.61-5.72L62.9,66.25l-4.59-4.13-4.08,4.11-2.7-3-2.65,2.79-3.1-3.44-2.35,2.92L40.85,62l-2.51,4.14H28.06V65h9.65l3.06-5.05,2.71,3.78,2.25-2.8,3.17,3.52,2.64-2.78,2.72,3,4-4,4.46,4,4.66-6.29,2.54,5.57,2-3.14,2.78,2.85,3.49-4.12L81.55,63V45.38a4,4,0,0,0-4-3.94H26.25a4,4,0,0,0-3.94,3.94V81.69a4,4,0,0,0,3.94,4H77.6a4,4,0,0,0,4-4V63.15ZM49.41,48.79c1.32-1.34,2.63-.75,3.68.2,1-1,2.34-1.55,3.67-.2a2.7,2.7,0,0,1,0,3.8l-3.14,2.87a.78.78,0,0,1-1,0l-3.16-2.87A2.7,2.7,0,0,1,49.41,48.79Zm-8.89,2a1.82,1.82,0,0,1-.25-.95,2.11,2.11,0,0,1,.19-.9,2,2,0,0,1,.5-.69,2.33,2.33,0,0,1,.75-.43,2.84,2.84,0,0,1,1.82,0,2.18,2.18,0,0,1,.74.43,2.07,2.07,0,0,1,.51.69,2.26,2.26,0,0,1,.18.9,1.82,1.82,0,0,1-.25.95,2.2,2.2,0,0,1-.61.64,2.62,2.62,0,0,1,.69.68,1.87,1.87,0,0,1,.27,1,2.1,2.1,0,0,1-.69,1.67,2.52,2.52,0,0,1-1.75.61,2.56,2.56,0,0,1-1.75-.61,2.1,2.1,0,0,1-.69-1.67,1.87,1.87,0,0,1,.27-1,2.45,2.45,0,0,1,.68-.68A2.34,2.34,0,0,1,40.52,50.79Zm-6.05-.85a2.13,2.13,0,0,1,.68-1.66,2.54,2.54,0,0,1,3.3,0,2.16,2.16,0,0,1,.67,1.66v3.22a2.16,2.16,0,0,1-.67,1.66,2.54,2.54,0,0,1-3.3,0,2.13,2.13,0,0,1-.68-1.66Zm-5.3-.86,1.55-1.35h1.4v7.64h-1.4V49.23l-1.55,1.35Zm8.37,28.76H28.06V76.72h9.48Zm14.1,0H42.17V76.72h9.47Zm14.11,0H56.28V76.72h9.47Z"/></svg>