<?xml version="1.0" encoding="UTF-8"?><svg xmlns="http://www.w3.org/2000/svg" xmlns:xlink="http://www.w3.org/1999/xlink" viewBox="0 0 1200 600"><defs><style>.cls-1{fill:url(#linear-gradient);}.cls-2{fill:#009fea;}.cls-3{fill:#fff;}.cls-4{fill:#666;}.cls-5{fill:#bf272d;}.cls-6{fill:#1b1464;}.cls-7{fill:#4e70bc;}.cls-8{fill:url(#linear-gradient-4);}.cls-8,.cls-9{mix-blend-mode:multiply;opacity:.25;}.cls-9{fill:url(#linear-gradient-3);}.cls-10{fill:url(#linear-gradient-2);}.cls-11{fill:none;stroke:#b1b1b1;stroke-miterlimit:10;}.cls-12{isolation:isolate;}.cls-13{filter:url(#outer-glow-3);}</style><linearGradient id="linear-gradient" x1="415.31" y1="354.78" x2="996.61" y2="354.78" gradientTransform="matrix(1, 0, 0, 1, 0, 0)" gradientUnits="userSpaceOnUse"><stop offset=".26" stop-color="#fff"/><stop offset=".27" stop-color="#fef5ee"/><stop offset=".31" stop-color="#fddcc0"/><stop offset=".34" stop-color="#fbc699"/><stop offset=".38" stop-color="#fab479"/><stop offset=".42" stop-color="#f9a660"/><stop offset=".46" stop-color="#f99c4e"/><stop offset=".5" stop-color="#f99644"/><stop offset=".55" stop-color="#f99541"/><stop offset=".59" stop-color="#f9ab45"/><stop offset=".64" stop-color="#f9c24a"/><stop offset=".69" stop-color="#f9d34d"/><stop offset=".74" stop-color="#f9dd4f"/><stop offset=".81" stop-color="#f9e150"/><stop offset=".85" stop-color="#f9d746"/><stop offset=".91" stop-color="#f9d03d"/><stop offset="1" stop-color="#f9ce3b"/></linearGradient><linearGradient id="linear-gradient-2" x1="683.82" y1="354.78" x2="1015.44" y2="354.78" xlink:href="#linear-gradient"/><filter id="outer-glow-3" filterUnits="userSpaceOnUse"><feOffset dx="0" dy="0"/><feGaussianBlur result="blur" stdDeviation="10"/><feFlood flood-color="red" flood-opacity=".3"/><feComposite in2="blur" operator="in"/><feComposite in="SourceGraphic"/></filter><linearGradient id="linear-gradient-3" x1="311.89" y1="245.25" x2="339.55" y2="245.25" gradientTransform="matrix(1, 0, 0, 1, 0, 0)" gradientUnits="userSpaceOnUse"><stop offset="0" stop-color="#000"/><stop offset="1" stop-color="#fff"/></linearGradient><linearGradient id="linear-gradient-4" y1="449.56" y2="449.56" xlink:href="#linear-gradient-3"/></defs><g class="cls-12"><g id="Layer_1"><rect class="cls-1" x="427.49" y="310.19" width="614.75" height="89.18"/><polygon class="cls-10" points="1085.78 354.78 1036.77 427.54 1036.77 282.02 1085.78 354.78"/><rect class="cls-7" x="311.89" y="171.7" width="764.4" height="73.55"/><rect class="cls-7" x="882.4" y="65.92" width="90.3" height="52.59"/><rect class="cls-2" x="311.89" y="245.25" width="704.45" height="73.55"/><rect class="cls-7" x="311.89" y="376" width="359.72" height="73.55"/><rect class="cls-2" x="311.89" y="449.56" width="254.8" height="73.55"/><g><path d="M105.12,107.99c-5.4,0-9.5-1.15-13-4.7l4.5-4.5c2.25,2.25,5.3,3,8.6,3,4.1,0,6.3-1.55,6.3-4.4,0-1.25-.35-2.3-1.1-3-.7-.65-1.5-1-3.15-1.25l-4.3-.6c-3.05-.45-5.3-1.4-6.9-2.95-1.7-1.7-2.55-4-2.55-7,0-6.35,4.7-10.8,12.4-10.8,4.9,0,8.45,1.2,11.5,4.15l-4.4,4.35c-2.25-2.15-4.95-2.45-7.3-2.45-3.7,0-5.5,2.05-5.5,4.5,0,.9,.3,1.85,1.05,2.55,.7,.65,1.85,1.2,3.3,1.4l4.2,.6c3.25,.45,5.3,1.35,6.8,2.75,1.9,1.8,2.75,4.4,2.75,7.55,0,6.9-5.75,10.8-13.2,10.8Z"/><path d="M129.47,96.69c0,3.35,2.05,5.8,5.7,5.8,2.85,0,4.25-.8,5.9-2.45l3.95,3.85c-2.65,2.65-5.2,4.1-9.9,4.1-6.15,0-12.05-2.8-12.05-13.35,0-8.5,4.6-13.3,11.35-13.3,7.25,0,11.35,5.3,11.35,12.45v2.9h-16.3Zm9.3-7.25c-.7-1.55-2.15-2.7-4.35-2.7s-3.65,1.15-4.35,2.7c-.4,.95-.55,1.65-.6,2.8h9.9c-.05-1.15-.2-1.85-.6-2.8Z"/><path d="M166.02,117.24v-11.85c-1.7,1.9-3.7,2.6-6.35,2.6s-4.9-.9-6.35-2.35c-2.6-2.6-2.65-7.1-2.65-11s.05-8.35,2.65-10.95c1.45-1.45,3.85-2.35,6.4-2.35,2.75,0,4.65,.75,6.45,2.75v-2.45h6.35v35.6h-6.5Zm-4.45-30.05c-3.9,0-4.4,3.2-4.4,7.45s.5,7.5,4.4,7.5,4.45-3.25,4.45-7.5-.55-7.45-4.45-7.45Z"/><path d="M179.57,107.69v-7.4h7.45v7.4h-7.45Z"/><path d="M219.97,94.29h-6.85v13.4h-6.95v-35.6h13.8c7.35,0,11.75,5.05,11.75,11.1s-4.4,11.1-11.75,11.1Zm-.35-16h-6.5v9.75h6.5c3.15,0,5.15-1.95,5.15-4.85s-2-4.9-5.15-4.9Z"/><path d="M241.67,96.69c0,3.35,2.05,5.8,5.7,5.8,2.85,0,4.25-.8,5.9-2.45l3.95,3.85c-2.65,2.65-5.2,4.1-9.9,4.1-6.15,0-12.05-2.8-12.05-13.35,0-8.5,4.6-13.3,11.35-13.3,7.25,0,11.35,5.3,11.35,12.45v2.9h-16.3Zm9.3-7.25c-.7-1.55-2.15-2.7-4.35-2.7s-3.65,1.15-4.35,2.7c-.4,.95-.55,1.65-.6,2.8h9.9c-.05-1.15-.2-1.85-.6-2.8Z"/><path d="M278.12,88.74c-1-1-1.85-1.55-3.45-1.55-2,0-4.2,1.5-4.2,4.8v15.7h-6.5v-26.05h6.35v2.5c1.25-1.5,3.75-2.8,6.55-2.8,2.55,0,4.35,.65,6.15,2.45l-4.9,4.95Z"/><path d="M294.02,87.34v20.35h-6.5v-20.35h-2.7v-4.95h2.7v-3.25c0-3.7,2.3-7.45,7.6-7.45h3.7v5.5h-2.55c-1.55,0-2.25,.85-2.25,2.35v2.85h4.8v4.95h-4.8Z"/><path d="M321.02,104.79c-1.6,1.7-4.25,3.2-8.1,3.2s-6.45-1.5-8.05-3.2c-2.35-2.45-2.95-5.4-2.95-10.15s.6-7.65,2.95-10.1c1.6-1.7,4.2-3.2,8.05-3.2s6.5,1.5,8.1,3.2c2.35,2.45,2.95,5.4,2.95,10.1s-.6,7.7-2.95,10.15Zm-5.05-16.45c-.75-.75-1.75-1.15-3.05-1.15s-2.25,.4-3,1.15c-1.35,1.35-1.5,3.6-1.5,6.3s.15,5,1.5,6.35c.75,.75,1.7,1.15,3,1.15s2.3-.4,3.05-1.15c1.35-1.35,1.5-3.65,1.5-6.35s-.15-4.95-1.5-6.3Z"/><path d="M344.32,88.74c-1-1-1.85-1.55-3.45-1.55-2,0-4.2,1.5-4.2,4.8v15.7h-6.5v-26.05h6.35v2.5c1.25-1.5,3.75-2.8,6.55-2.8,2.55,0,4.35,.65,6.15,2.45l-4.9,4.95Z"/><path d="M383.22,107.69v-15.75c0-3.55-2.25-4.75-4.3-4.75s-4.35,1.2-4.35,4.6v15.9h-6.5v-15.75c0-3.55-2.25-4.75-4.3-4.75s-4.35,1.2-4.35,4.75v15.75h-6.5v-26.05h6.35v2.4c1.7-1.75,4.1-2.7,6.5-2.7,2.9,0,5.25,1.05,6.9,3.3,2.2-2.3,4.55-3.3,7.8-3.3,2.6,0,4.95,.85,6.4,2.3,2.1,2.1,2.85,4.55,2.85,7.4v16.65h-6.5Z"/><path d="M410.07,107.69v-2.25c-1.75,1.75-3.4,2.5-6.4,2.5s-5.1-.75-6.65-2.3c-1.4-1.45-2.15-3.55-2.15-5.85,0-4.15,2.85-7.55,8.9-7.55h6.15v-1.3c0-2.85-1.4-4.1-4.85-4.1-2.5,0-3.65,.6-5,2.15l-4.15-4.05c2.55-2.8,5.05-3.6,9.4-3.6,7.3,0,11.1,3.1,11.1,9.2v17.15h-6.35Zm-.15-11h-5.15c-2.35,0-3.65,1.1-3.65,2.95s1.2,3,3.75,3c1.8,0,2.95-.15,4.1-1.25,.7-.65,.95-1.7,.95-3.3v-1.4Z"/><path d="M438.57,107.69v-15.75c0-3.55-2.25-4.75-4.3-4.75s-4.35,1.2-4.35,4.75v15.75h-6.5v-26.05h6.35v2.4c1.7-1.8,4.1-2.7,6.5-2.7,2.6,0,4.7,.85,6.15,2.3,2.1,2.1,2.65,4.55,2.65,7.4v16.65h-6.5Z"/><path d="M462.42,107.99c-5.2,0-11.65-2.8-11.65-13.35s6.45-13.3,11.65-13.3c3.6,0,6.3,1.1,8.6,3.5l-4.4,4.4c-1.35-1.45-2.5-2.05-4.2-2.05-1.55,0-2.75,.55-3.7,1.7-1,1.25-1.45,3-1.45,5.75s.45,4.55,1.45,5.8c.95,1.15,2.15,1.7,3.7,1.7,1.7,0,2.85-.6,4.2-2.05l4.4,4.35c-2.3,2.4-5,3.55-8.6,3.55Z"/><path d="M480.27,96.69c0,3.35,2.05,5.8,5.7,5.8,2.85,0,4.25-.8,5.9-2.45l3.95,3.85c-2.65,2.65-5.2,4.1-9.9,4.1-6.15,0-12.05-2.8-12.05-13.35,0-8.5,4.6-13.3,11.35-13.3,7.25,0,11.35,5.3,11.35,12.45v2.9h-16.3Zm9.3-7.25c-.7-1.55-2.15-2.7-4.35-2.7s-3.65,1.15-4.35,2.7c-.4,.95-.55,1.65-.6,2.8h9.9c-.05-1.15-.2-1.85-.6-2.8Z"/><path class="cls-4" d="M513.26,110.42c-.96-.96-1.88-1.86-2.55-2.99-.67-1.16-.75-2.47-.75-3.74v-12.65c0-1.28,.09-2.58,.75-3.74,.67-1.13,1.59-2.03,2.55-2.99l2.52,2.52c-.7,.7-1.13,1.1-1.62,1.94-.29,.52-.43,1.33-.43,2.44v12.3c0,1.1,.14,1.91,.43,2.44,.49,.84,.93,1.25,1.62,1.94l-2.52,2.52Z"/><path class="cls-4" d="M534.47,107.69v-12.04l-3.94,7.83h-2.73l-3.97-7.83v12.04h-4.03v-20.65h3.97l5.39,11.17,5.37-11.17h3.97v20.65h-4.03Z"/><path class="cls-4" d="M551.95,107.69h-8.64v-20.65h8.3c4.03,0,6.38,2.26,6.38,5.8,0,2.29-1.51,3.77-2.55,4.26,1.25,.58,2.84,1.89,2.84,4.64,0,3.86-2.64,5.95-6.32,5.95Zm-.67-17.06h-3.95v4.76h3.95c1.71,0,2.67-.96,2.67-2.38s-.96-2.38-2.67-2.38Zm.26,8.38h-4.21v5.08h4.21c1.83,0,2.7-1.16,2.7-2.55s-.87-2.52-2.7-2.52Z"/><path class="cls-4" d="M563.52,109.84h-3.54l8.27-24.95h3.54l-8.27,24.95Z"/><path class="cls-4" d="M578.75,107.87c-2.38,0-4.53-.26-6.44-2.18l2.47-2.47c1.25,1.25,2.87,1.42,4.03,1.42,1.31,0,2.67-.44,2.67-1.57,0-.75-.41-1.28-1.6-1.39l-2.38-.23c-2.73-.26-4.41-1.45-4.41-4.24,0-3.13,2.76-4.81,5.83-4.81,2.35,0,4.32,.41,5.77,1.77l-2.32,2.35c-.87-.78-2.2-1.02-3.51-1.02-1.51,0-2.15,.7-2.15,1.45,0,.55,.23,1.19,1.57,1.31l2.38,.23c2.99,.29,4.5,1.89,4.5,4.44,0,3.34-2.84,4.93-6.41,4.93Z"/><path class="cls-4" d="M592.87,107.43c-.67,1.13-1.6,2.03-2.55,2.99l-2.55-2.55c.7-.7,1.13-1.07,1.62-1.91,.29-.52,.44-1.33,.44-2.44v-12.3c0-1.1-.15-1.91-.44-2.44-.49-.84-.93-1.22-1.62-1.91l2.55-2.55c.96,.96,1.89,1.86,2.55,2.99,.67,1.16,.75,2.47,.75,3.74v12.65c0,1.28-.09,2.58-.75,3.74Z"/></g><g><path class="cls-7" d="M101.77,256.99c-4.1,0-7.22-.87-9.88-3.57l3.42-3.42c1.71,1.71,4.03,2.28,6.54,2.28,3.12,0,4.79-1.18,4.79-3.34,0-.95-.27-1.75-.84-2.28-.53-.49-1.14-.76-2.39-.95l-3.27-.46c-2.32-.34-4.03-1.06-5.24-2.24-1.29-1.29-1.94-3.04-1.94-5.32,0-4.83,3.57-8.21,9.42-8.21,3.72,0,6.42,.91,8.74,3.15l-3.34,3.31c-1.71-1.63-3.76-1.86-5.55-1.86-2.81,0-4.18,1.56-4.18,3.42,0,.68,.23,1.41,.8,1.94,.53,.49,1.41,.91,2.51,1.06l3.19,.46c2.47,.34,4.03,1.03,5.17,2.09,1.44,1.37,2.09,3.34,2.09,5.74,0,5.24-4.37,8.21-10.03,8.21Z"/><path class="cls-7" d="M136.01,256.77v-15.77l-5.17,10.26h-3.57l-5.21-10.26v15.77h-5.28v-27.05h5.21l7.07,14.63,7.03-14.63h5.21v27.05h-5.28Z"/><path class="cls-7" d="M146.69,256.77v-4.45l10.11-11.74c.99-1.18,1.41-2.01,1.41-3.27,0-2.01-1.18-3.38-3.27-3.38-1.63,0-3.31,.84-3.31,3.46h-4.94c0-4.94,3.61-7.9,8.25-7.9s8.21,3,8.21,7.86c0,2.62-1.03,4.03-2.89,6.19l-7.56,8.78h10.45v4.45h-16.45Z"/><path class="cls-7" d="M167.32,256.77v-4.45l10.11-11.74c.99-1.18,1.41-2.01,1.41-3.27,0-2.01-1.18-3.38-3.27-3.38-1.63,0-3.31,.84-3.31,3.46h-4.94c0-4.94,3.61-7.9,8.25-7.9s8.21,3,8.21,7.86c0,2.62-1.03,4.03-2.89,6.19l-7.56,8.78h10.45v4.45h-16.45Z"/><path class="cls-7" d="M195.97,256.99c-4.79,0-8.43-3-8.43-8.36,0-2.47,1.06-4.75,2.28-7.22l5.7-11.7h5.39l-5.62,11.17c.65-.27,1.37-.34,2.01-.34,3.65,0,7.11,3,7.11,8.02,0,5.32-3.65,8.43-8.43,8.43Zm0-12.35c-2.01,0-3.5,1.44-3.5,3.95s1.48,3.95,3.5,3.95,3.5-1.44,3.5-3.95-1.41-3.95-3.5-3.95Z"/><path class="cls-7" d="M222.91,245.06l-5.74,11.7h-5.36l5.62-11.17c-.65,.27-1.37,.34-2.01,.34-3.65,0-7.14-3-7.14-8.02,0-5.32,3.65-8.43,8.43-8.43s8.44,3,8.44,8.36c0,2.47-1.03,4.75-2.24,7.22Zm-6.19-11.13c-2.01,0-3.5,1.44-3.5,3.95s1.41,3.95,3.5,3.95,3.5-1.44,3.5-3.95-1.48-3.95-3.5-3.95Z"/><path class="cls-7" d="M243.66,256.77l-5.24-9.42-5.21,9.42h-6.04l8.4-13.87-7.87-13.18h6l4.71,8.74,4.75-8.74h5.96l-7.86,13.18,8.43,13.87h-6.04Z"/><path class="cls-7" d="M263.38,234.42v22.34h-5.28v-22.34h-7.07v-4.71h19.42v4.71h-7.07Z"/></g><g><path class="cls-6" d="M101.58,451.01h-3.97v7.77h-4.03v-20.65h8.01c4.26,0,6.82,2.93,6.82,6.44s-2.55,6.44-6.82,6.44Zm-.2-9.28h-3.77v5.66h3.77c1.83,0,2.99-1.13,2.99-2.81s-1.16-2.84-2.99-2.84Z"/><path class="cls-6" d="M119.71,447.79c-.58-.58-1.07-.9-2-.9-1.16,0-2.44,.87-2.44,2.79v9.11h-3.77v-15.11h3.68v1.45c.72-.87,2.17-1.62,3.8-1.62,1.48,0,2.52,.38,3.57,1.42l-2.84,2.87Z"/><path class="cls-6" d="M126.75,452.4c0,1.94,1.19,3.37,3.31,3.37,1.65,0,2.47-.46,3.42-1.42l2.29,2.23c-1.54,1.54-3.02,2.38-5.74,2.38-3.57,0-6.99-1.62-6.99-7.75,0-4.93,2.67-7.72,6.58-7.72,4.21,0,6.58,3.08,6.58,7.22v1.68h-9.46Zm5.4-4.21c-.41-.9-1.25-1.57-2.52-1.57s-2.12,.67-2.52,1.57c-.23,.55-.32,.96-.35,1.62h5.74c-.03-.67-.12-1.07-.35-1.62Z"/><path class="cls-6" d="M145.92,458.78h-2.96l-5.57-15.11h3.97l3.08,9.34,3.05-9.34h3.97l-5.54,15.11Z"/><path class="cls-6" d="M153.64,441.09v-3.08h3.86v3.08h-3.86Zm.06,17.69v-15.11h3.77v15.11h-3.77Z"/><path class="cls-6" d="M172.11,457.1c-.93,.99-2.46,1.86-4.7,1.86s-3.74-.87-4.67-1.86c-1.36-1.42-1.71-3.13-1.71-5.89s.35-4.44,1.71-5.86c.93-.99,2.44-1.86,4.67-1.86s3.77,.87,4.7,1.86c1.36,1.42,1.71,3.13,1.71,5.86s-.35,4.47-1.71,5.89Zm-2.93-9.54c-.43-.44-1.01-.67-1.77-.67s-1.31,.23-1.74,.67c-.78,.78-.87,2.09-.87,3.65s.09,2.9,.87,3.68c.44,.43,.99,.67,1.74,.67s1.33-.23,1.77-.67c.78-.78,.87-2.12,.87-3.68s-.09-2.87-.87-3.65Z"/><path class="cls-6" d="M186.12,458.78v-1.39c-.99,1.04-2.38,1.57-3.77,1.57-1.51,0-2.73-.49-3.57-1.33-1.22-1.22-1.54-2.64-1.54-4.29v-9.66h3.77v9.14c0,2.06,1.3,2.76,2.49,2.76s2.52-.7,2.52-2.76v-9.14h3.77v15.11h-3.68Z"/><path class="cls-6" d="M198.99,458.96c-2.38,0-4.53-.26-6.44-2.18l2.47-2.47c1.25,1.25,2.87,1.42,4.03,1.42,1.31,0,2.67-.44,2.67-1.57,0-.75-.41-1.28-1.6-1.39l-2.38-.23c-2.73-.26-4.41-1.45-4.41-4.24,0-3.13,2.76-4.82,5.83-4.82,2.35,0,4.32,.41,5.77,1.77l-2.32,2.35c-.87-.78-2.2-1.02-3.51-1.02-1.51,0-2.15,.7-2.15,1.45,0,.55,.23,1.19,1.57,1.3l2.38,.23c2.99,.29,4.5,1.89,4.5,4.44,0,3.34-2.84,4.93-6.41,4.93Z"/><path class="cls-6" d="M228.31,456.61c-1.6,1.62-3.51,2.35-5.83,2.35s-4.06-.75-5.57-2.26c-.9-.9-1.45-1.94-1.68-3.1s-.35-2.87-.35-5.13,.12-3.97,.35-5.13c.23-1.19,.78-2.2,1.68-3.1,1.51-1.51,3.36-2.26,5.57-2.26,4.7,0,7.22,3.02,7.77,6.61h-4.06c-.49-2-1.71-3.02-3.71-3.02-1.07,0-1.94,.38-2.58,1.1-.75,.96-.99,1.71-.99,5.8s.17,4.87,.99,5.83c.61,.72,1.48,1.07,2.58,1.07,1.19,0,2.15-.38,2.87-1.16,.61-.7,.93-1.62,.93-2.76v-.78h-3.8v-3.37h7.8v3.02c0,3.02-.55,4.79-1.97,6.29Z"/><path class="cls-6" d="M236.72,452.4c0,1.94,1.19,3.37,3.31,3.37,1.65,0,2.47-.46,3.42-1.42l2.29,2.23c-1.54,1.54-3.02,2.38-5.74,2.38-3.57,0-6.99-1.62-6.99-7.75,0-4.93,2.67-7.72,6.58-7.72,4.21,0,6.58,3.08,6.58,7.22v1.68h-9.46Zm5.4-4.21c-.41-.9-1.25-1.57-2.52-1.57s-2.12,.67-2.52,1.57c-.23,.55-.32,.96-.35,1.62h5.74c-.03-.67-.12-1.07-.35-1.62Z"/><path class="cls-6" d="M258.44,458.78v-9.14c0-2.06-1.3-2.76-2.49-2.76s-2.52,.7-2.52,2.76v9.14h-3.77v-15.11h3.68v1.39c.99-1.04,2.38-1.57,3.77-1.57,1.51,0,2.73,.49,3.57,1.33,1.22,1.22,1.54,2.64,1.54,4.29v9.66h-3.77Z"/><path class="cls-6" d="M266.13,458.78v-4.29h4.32v4.29h-4.32Z"/></g><g class="cls-13"><path class="cls-5" d="M824.23,374.12v-4.45l10.11-11.74c.99-1.18,1.41-2.01,1.41-3.27,0-2.01-1.18-3.38-3.27-3.38-1.63,0-3.31,.84-3.31,3.46h-4.94c0-4.94,3.61-7.9,8.25-7.9s8.21,3,8.21,7.86c0,2.62-1.03,4.03-2.89,6.19l-7.56,8.78h10.45v4.45h-16.45Z"/><path class="cls-5" d="M845.21,374.12v-5.62h5.66v5.62h-5.66Z"/><path class="cls-5" d="M862.88,374.12v-21.73l-5.51,4.79v-5.32l5.51-4.79h4.94v27.05h-4.94Z"/><path class="cls-5" d="M887.73,374.12l-3.65-5.93-3.61,5.93h-5.93l6.84-10.11-6.57-9.69h5.93l3.34,5.66,3.38-5.66h5.93l-6.57,9.69,6.84,10.11h-5.93Z"/><path class="cls-5" d="M911.25,358.66v15.46h-4.94v-15.46h-2.05v-3.76h2.05v-2.47c0-2.81,1.75-5.66,5.77-5.66h2.81v4.18h-1.94c-1.18,0-1.71,.65-1.71,1.79v2.17h3.65v3.76h-3.65Z"/><path class="cls-5" d="M928.24,374.12v-1.71c-1.33,1.33-2.58,1.9-4.86,1.9s-3.88-.57-5.05-1.75c-1.06-1.1-1.63-2.7-1.63-4.45,0-3.15,2.17-5.74,6.76-5.74h4.67v-.99c0-2.17-1.06-3.12-3.68-3.12-1.9,0-2.77,.46-3.8,1.63l-3.15-3.08c1.94-2.13,3.84-2.74,7.14-2.74,5.55,0,8.43,2.36,8.43,6.99v13.03h-4.83Zm-.11-8.36h-3.91c-1.79,0-2.77,.84-2.77,2.24s.91,2.28,2.85,2.28c1.37,0,2.24-.11,3.12-.95,.53-.49,.72-1.29,.72-2.51v-1.06Z"/><path class="cls-5" d="M944.88,374.35c-3.12,0-5.93-.34-8.43-2.85l3.23-3.23c1.63,1.63,3.76,1.86,5.28,1.86,1.71,0,3.5-.57,3.5-2.05,0-.99-.53-1.67-2.09-1.82l-3.12-.3c-3.57-.34-5.78-1.9-5.78-5.55,0-4.1,3.61-6.31,7.64-6.31,3.08,0,5.66,.53,7.56,2.32l-3.04,3.08c-1.14-1.03-2.89-1.33-4.6-1.33-1.98,0-2.81,.91-2.81,1.9,0,.72,.3,1.56,2.05,1.71l3.12,.3c3.91,.38,5.89,2.47,5.89,5.81,0,4.37-3.72,6.46-8.4,6.46Z"/><path class="cls-5" d="M963.24,374.12c-4.03,0-5.74-2.85-5.74-5.66v-9.8h-2.09v-3.76h2.09v-5.85h4.94v5.85h3.5v3.76h-3.5v9.5c0,1.14,.53,1.79,1.71,1.79h1.79v4.18h-2.7Z"/><path class="cls-5" d="M974.18,365.76c0,2.55,1.56,4.41,4.33,4.41,2.17,0,3.23-.61,4.48-1.86l3,2.93c-2.01,2.01-3.95,3.12-7.52,3.12-4.67,0-9.16-2.13-9.16-10.14,0-6.46,3.5-10.11,8.62-10.11,5.51,0,8.62,4.03,8.62,9.46v2.2h-12.39Zm7.07-5.51c-.53-1.18-1.63-2.05-3.31-2.05s-2.77,.87-3.31,2.05c-.3,.72-.42,1.25-.46,2.13h7.52c-.04-.87-.15-1.41-.46-2.13Z"/><path class="cls-5" d="M1001.88,359.72c-.76-.76-1.41-1.18-2.62-1.18-1.52,0-3.19,1.14-3.19,3.65v11.93h-4.94v-19.79h4.83v1.9c.95-1.14,2.85-2.13,4.98-2.13,1.94,0,3.31,.49,4.67,1.86l-3.72,3.76Z"/></g><g><path class="cls-3" d="M650.31,217.27c-1.02,1.02-2.66,1.86-5.02,1.86s-4.1-.83-5.09-1.82c-1.41-1.41-1.73-3.07-1.86-4.74h4.16c.22,1.79,1.06,2.82,2.78,2.82,.8,0,1.47-.22,1.98-.74,.74-.74,.9-1.95,.9-3.39,0-2.62-.77-4.1-2.78-4.1-1.7,0-2.46,.96-2.75,1.86h-3.81v-12.86h12.99v3.74h-9.22v4.9c.61-.58,1.89-1.15,3.42-1.15,1.89,0,3.33,.61,4.26,1.54,1.79,1.79,2.05,3.94,2.05,6.08,0,2.56-.35,4.35-2.02,6.02Z"/><path class="cls-3" d="M656.07,224.22v-9.82h4.58v6.3l-4.58,3.52Z"/><path class="cls-3" d="M670.76,218.94v-18.3l-4.64,4.03v-4.48l4.64-4.03h4.16v22.78h-4.16Z"/><path class="cls-3" d="M688.9,219.13c-3.71,0-6.94-2.43-6.94-6.78v-9.6c0-4.35,3.23-6.78,6.94-6.78s6.91,2.43,6.91,6.78v9.6c0,4.35-3.2,6.78-6.91,6.78Zm2.75-16.32c0-1.92-1.12-3.1-2.75-3.1s-2.78,1.18-2.78,3.1v9.5c0,1.92,1.15,3.07,2.78,3.07s2.75-1.15,2.75-3.07v-9.5Z"/><path class="cls-3" d="M706.28,219.13c-3.71,0-6.94-2.43-6.94-6.78v-9.6c0-4.35,3.23-6.78,6.94-6.78s6.91,2.43,6.91,6.78v9.6c0,4.35-3.2,6.78-6.91,6.78Zm2.75-16.32c0-1.92-1.12-3.1-2.75-3.1s-2.78,1.18-2.78,3.1v9.5c0,1.92,1.15,3.07,2.78,3.07s2.75-1.15,2.75-3.07v-9.5Z"/><path class="cls-3" d="M736.51,218.94v-9.96l-3.26,6.48h-2.26l-3.29-6.48v9.96h-3.34v-17.09h3.29l4.46,9.24,4.44-9.24h3.29v17.09h-3.34Z"/><path class="cls-3" d="M750.98,218.94h-7.15v-17.09h6.86c3.34,0,5.28,1.87,5.28,4.8,0,1.9-1.25,3.12-2.11,3.53,1.03,.48,2.35,1.56,2.35,3.84,0,3.19-2.18,4.92-5.23,4.92Zm-.55-14.11h-3.26v3.94h3.26c1.42,0,2.21-.79,2.21-1.97s-.79-1.97-2.21-1.97Zm.22,6.94h-3.48v4.2h3.48c1.51,0,2.23-.96,2.23-2.11s-.72-2.09-2.23-2.09Z"/><path class="cls-3" d="M760.56,220.71h-2.93l6.84-20.64h2.93l-6.84,20.64Z"/><path class="cls-3" d="M773.16,219.08c-1.97,0-3.74-.22-5.33-1.8l2.04-2.04c1.03,1.03,2.38,1.18,3.34,1.18,1.08,0,2.21-.36,2.21-1.3,0-.62-.34-1.06-1.32-1.15l-1.97-.19c-2.26-.22-3.65-1.2-3.65-3.5,0-2.59,2.28-3.98,4.83-3.98,1.94,0,3.58,.34,4.78,1.46l-1.92,1.94c-.72-.65-1.82-.84-2.9-.84-1.25,0-1.78,.58-1.78,1.2,0,.46,.19,.98,1.3,1.08l1.97,.19c2.47,.24,3.72,1.56,3.72,3.67,0,2.76-2.35,4.08-5.3,4.08Z"/></g><g><path class="cls-3" d="M607.02,290.83v3.23h-4v-3.23h-9.31v-3.94l7.81-15.61h4.54l-7.81,15.61h4.77v-4.26h4v4.26h2.08v3.94h-2.08Z"/><path class="cls-3" d="M612.27,299.34v-9.82h4.58v6.3l-4.58,3.52Z"/><path class="cls-3" d="M627.72,294.06h-4.51l7.39-19.04h-6.02v3.58h-3.97v-7.33h14.5v3.74l-7.39,19.04Z"/><path class="cls-3" d="M645.1,294.25c-3.71,0-6.94-2.43-6.94-6.78v-9.6c0-4.35,3.23-6.78,6.94-6.78s6.91,2.43,6.91,6.78v9.6c0,4.35-3.2,6.78-6.91,6.78Zm2.75-16.32c0-1.92-1.12-3.1-2.75-3.1s-2.78,1.18-2.78,3.1v9.5c0,1.92,1.15,3.07,2.78,3.07s2.75-1.15,2.75-3.07v-9.5Z"/><path class="cls-3" d="M662.47,294.25c-3.71,0-6.94-2.43-6.94-6.78v-9.6c0-4.35,3.23-6.78,6.94-6.78s6.91,2.43,6.91,6.78v9.6c0,4.35-3.2,6.78-6.91,6.78Zm2.75-16.32c0-1.92-1.12-3.1-2.75-3.1s-2.78,1.18-2.78,3.1v9.5c0,1.92,1.15,3.07,2.78,3.07s2.75-1.15,2.75-3.07v-9.5Z"/><path class="cls-3" d="M692.71,294.06v-9.96l-3.26,6.48h-2.26l-3.29-6.48v9.96h-3.34v-17.09h3.29l4.46,9.24,4.44-9.24h3.29v17.09h-3.34Z"/><path class="cls-3" d="M707.18,294.06h-7.15v-17.09h6.86c3.34,0,5.28,1.87,5.28,4.8,0,1.9-1.25,3.12-2.11,3.53,1.03,.48,2.35,1.56,2.35,3.84,0,3.19-2.18,4.92-5.23,4.92Zm-.55-14.11h-3.26v3.94h3.26c1.42,0,2.21-.79,2.21-1.97s-.79-1.97-2.21-1.97Zm.22,6.94h-3.48v4.2h3.48c1.51,0,2.23-.96,2.23-2.11s-.72-2.09-2.23-2.09Z"/><path class="cls-3" d="M716.75,295.84h-2.93l6.84-20.64h2.93l-6.84,20.64Z"/><path class="cls-3" d="M729.35,294.21c-1.97,0-3.74-.22-5.33-1.8l2.04-2.04c1.03,1.03,2.38,1.18,3.34,1.18,1.08,0,2.21-.36,2.21-1.3,0-.62-.34-1.06-1.32-1.15l-1.97-.19c-2.26-.22-3.65-1.2-3.65-3.5,0-2.59,2.28-3.98,4.83-3.98,1.94,0,3.58,.34,4.78,1.46l-1.92,1.94c-.72-.65-1.82-.84-2.9-.84-1.25,0-1.78,.58-1.78,1.2,0,.46,.19,.98,1.3,1.08l1.97,.19c2.47,.24,3.72,1.56,3.72,3.67,0,2.76-2.35,4.08-5.3,4.08Z"/></g><g><path class="cls-3" d="M422.24,422.2v-3.74l8.51-9.89c.83-.99,1.18-1.7,1.18-2.75,0-1.7-.99-2.85-2.75-2.85-1.38,0-2.78,.7-2.78,2.91h-4.16c0-4.16,3.04-6.65,6.94-6.65s6.91,2.53,6.91,6.62c0,2.21-.86,3.39-2.43,5.21l-6.37,7.39h8.8v3.74h-13.86Z"/><path class="cls-3" d="M439.9,427.48v-9.82h4.58v6.3l-4.58,3.52Z"/><path class="cls-3" d="M460.96,418.97v3.23h-4v-3.23h-9.31v-3.94l7.81-15.61h4.54l-7.81,15.61h4.77v-4.26h4v4.26h2.08v3.94h-2.08Z"/><path class="cls-3" d="M472.73,422.39c-3.71,0-6.94-2.43-6.94-6.78v-9.6c0-4.35,3.23-6.78,6.94-6.78s6.91,2.43,6.91,6.78v9.6c0,4.35-3.2,6.78-6.91,6.78Zm2.75-16.32c0-1.92-1.12-3.1-2.75-3.1s-2.78,1.18-2.78,3.1v9.5c0,1.92,1.15,3.07,2.78,3.07s2.75-1.15,2.75-3.07v-9.5Z"/><path class="cls-3" d="M490.11,422.39c-3.71,0-6.94-2.43-6.94-6.78v-9.6c0-4.35,3.23-6.78,6.94-6.78s6.91,2.43,6.91,6.78v9.6c0,4.35-3.2,6.78-6.91,6.78Zm2.75-16.32c0-1.92-1.12-3.1-2.75-3.1s-2.78,1.18-2.78,3.1v9.5c0,1.92,1.15,3.07,2.78,3.07s2.75-1.15,2.75-3.07v-9.5Z"/><path class="cls-3" d="M520.34,422.2v-9.96l-3.26,6.48h-2.26l-3.29-6.48v9.96h-3.34v-17.09h3.29l4.46,9.24,4.44-9.24h3.29v17.09h-3.34Z"/><path class="cls-3" d="M534.81,422.2h-7.15v-17.09h6.86c3.34,0,5.28,1.87,5.28,4.8,0,1.9-1.25,3.12-2.11,3.53,1.03,.48,2.35,1.56,2.35,3.84,0,3.19-2.18,4.92-5.23,4.92Zm-.55-14.11h-3.26v3.94h3.26c1.42,0,2.21-.79,2.21-1.97s-.79-1.97-2.21-1.97Zm.22,6.94h-3.48v4.2h3.48c1.51,0,2.23-.96,2.23-2.11s-.72-2.09-2.23-2.09Z"/><path class="cls-3" d="M544.39,423.97h-2.93l6.84-20.64h2.93l-6.84,20.64Z"/><path class="cls-3" d="M556.99,422.34c-1.97,0-3.74-.22-5.33-1.8l2.04-2.04c1.03,1.03,2.38,1.18,3.34,1.18,1.08,0,2.21-.36,2.21-1.3,0-.62-.34-1.06-1.32-1.15l-1.97-.19c-2.26-.22-3.65-1.2-3.65-3.5,0-2.59,2.28-3.98,4.83-3.98,1.94,0,3.58,.34,4.78,1.46l-1.92,1.94c-.72-.65-1.82-.84-2.9-.84-1.25,0-1.78,.58-1.78,1.2,0,.46,.19,.98,1.3,1.08l1.97,.19c2.47,.24,3.72,1.56,3.72,3.67,0,2.76-2.35,4.08-5.3,4.08Z"/></g><g><path class="cls-3" d="M375.83,500.3v-18.3l-4.64,4.03v-4.48l4.64-4.03h4.16v22.78h-4.16Z"/><path class="cls-3" d="M387.44,505.58v-9.82h4.58v6.3l-4.58,3.52Z"/><path class="cls-3" d="M402.9,500.3h-4.51l7.39-19.04h-6.02v3.58h-3.97v-7.33h14.5v3.74l-7.39,19.04Z"/><path class="cls-3" d="M420.27,500.49c-3.71,0-6.94-2.43-6.94-6.78v-9.6c0-4.35,3.23-6.78,6.94-6.78s6.91,2.43,6.91,6.78v9.6c0,4.35-3.2,6.78-6.91,6.78Zm2.75-16.32c0-1.92-1.12-3.1-2.75-3.1s-2.78,1.18-2.78,3.1v9.5c0,1.92,1.15,3.07,2.78,3.07s2.75-1.15,2.75-3.07v-9.5Z"/><path class="cls-3" d="M437.65,500.49c-3.71,0-6.94-2.43-6.94-6.78v-9.6c0-4.35,3.23-6.78,6.94-6.78s6.91,2.43,6.91,6.78v9.6c0,4.35-3.2,6.78-6.91,6.78Zm2.75-16.32c0-1.92-1.12-3.1-2.75-3.1s-2.78,1.18-2.78,3.1v9.5c0,1.92,1.15,3.07,2.78,3.07s2.75-1.15,2.75-3.07v-9.5Z"/><path class="cls-3" d="M467.88,500.3v-9.96l-3.26,6.48h-2.26l-3.29-6.48v9.96h-3.34v-17.09h3.29l4.46,9.24,4.44-9.24h3.29v17.09h-3.34Z"/><path class="cls-3" d="M482.36,500.3h-7.15v-17.09h6.86c3.34,0,5.28,1.87,5.28,4.8,0,1.9-1.25,3.12-2.11,3.53,1.03,.48,2.35,1.56,2.35,3.84,0,3.19-2.18,4.92-5.23,4.92Zm-.55-14.11h-3.26v3.94h3.26c1.42,0,2.21-.79,2.21-1.97s-.79-1.97-2.21-1.97Zm.22,6.94h-3.48v4.2h3.48c1.51,0,2.23-.96,2.23-2.11s-.72-2.09-2.23-2.09Z"/><path class="cls-3" d="M491.93,502.08h-2.93l6.84-20.64h2.93l-6.84,20.64Z"/><path class="cls-3" d="M504.53,500.44c-1.97,0-3.74-.22-5.33-1.8l2.04-2.04c1.03,1.03,2.38,1.18,3.34,1.18,1.08,0,2.21-.36,2.21-1.3,0-.62-.34-1.06-1.32-1.15l-1.97-.19c-2.26-.22-3.65-1.2-3.65-3.5,0-2.59,2.28-3.98,4.83-3.98,1.94,0,3.58,.34,4.78,1.46l-1.92,1.94c-.72-.65-1.82-.84-2.9-.84-1.25,0-1.78,.58-1.78,1.2,0,.46,.19,.98,1.3,1.08l1.97,.19c2.47,.24,3.72,1.56,3.72,3.67,0,2.76-2.35,4.08-5.3,4.08Z"/></g><line class="cls-11" x1="311.89" y1="154.49" x2="311.89" y2="545.24"/><g><path class="cls-3" d="M911.74,99.33l-3.2-6.53h-2.3v6.53h-3.2v-16.37h6.42c3.33,0,5.31,2.28,5.31,5.01,0,2.3-1.4,3.73-2.99,4.3l3.66,7.06h-3.7Zm-2.48-13.52h-3.01v4.32h3.01c1.4,0,2.32-.9,2.32-2.16s-.92-2.16-2.32-2.16Z"/><path class="cls-3" d="M920.21,94.28c0,1.54,.94,2.67,2.62,2.67,1.31,0,1.96-.37,2.71-1.13l1.82,1.77c-1.22,1.22-2.39,1.89-4.55,1.89-2.83,0-5.54-1.29-5.54-6.14,0-3.91,2.12-6.12,5.22-6.12,3.33,0,5.22,2.44,5.22,5.73v1.33h-7.5Zm4.28-3.33c-.32-.71-.99-1.24-2-1.24s-1.68,.53-2,1.24c-.18,.44-.25,.76-.28,1.29h4.55c-.02-.53-.09-.85-.28-1.29Z"/><path class="cls-3" d="M936.6,99.33v-1.03c-.8,.8-1.56,1.15-2.94,1.15s-2.35-.34-3.06-1.06c-.64-.67-.99-1.63-.99-2.69,0-1.91,1.31-3.47,4.09-3.47h2.83v-.6c0-1.31-.64-1.89-2.23-1.89-1.15,0-1.68,.28-2.3,.99l-1.91-1.86c1.17-1.29,2.32-1.66,4.32-1.66,3.36,0,5.1,1.43,5.1,4.23v7.89h-2.92Zm-.07-5.06h-2.37c-1.08,0-1.68,.51-1.68,1.36s.55,1.38,1.72,1.38c.83,0,1.36-.07,1.89-.58,.32-.3,.44-.78,.44-1.52v-.64Z"/><path class="cls-3" d="M949.37,99.33v-1.13c-.83,.92-1.7,1.27-2.97,1.27-1.17,0-2.28-.41-2.94-1.08-1.2-1.2-1.22-3.27-1.22-5.06s.02-3.84,1.22-5.04c.67-.67,1.75-1.08,2.92-1.08s2.14,.32,2.92,1.2v-5.45h2.99v16.37h-2.92Zm-2.12-9.43c-1.79,0-2.02,1.47-2.02,3.43s.23,3.45,2.02,3.45,2.05-1.5,2.05-3.45-.25-3.43-2.05-3.43Z"/></g><rect class="cls-2" x="987.35" y="65.92" width="90.3" height="52.59"/><g><path class="cls-3" d="M1019.46,99.33h-2.67l-3.01-9.93-3.01,9.93h-2.67l-4.37-16.37h3.33l2.53,10.32,2.99-10.32h2.39l2.99,10.32,2.55-10.32h3.33l-4.39,16.37Z"/><path class="cls-3" d="M1032.18,90.62c-.46-.46-.85-.71-1.59-.71-.92,0-1.93,.69-1.93,2.21v7.22h-2.99v-11.98h2.92v1.15c.58-.69,1.72-1.29,3.01-1.29,1.17,0,2,.3,2.83,1.13l-2.25,2.28Z"/><path class="cls-3" d="M1036.09,85.31v-2.44h3.06v2.44h-3.06Zm.05,14.03v-11.98h2.99v11.98h-2.99Z"/><path class="cls-3" d="M1046.21,99.33c-2.44,0-3.47-1.72-3.47-3.43v-5.93h-1.26v-2.28h1.26v-3.54h2.99v3.54h2.12v2.28h-2.12v5.75c0,.69,.32,1.08,1.03,1.08h1.08v2.53h-1.63Z"/><path class="cls-3" d="M1052.84,94.28c0,1.54,.94,2.67,2.62,2.67,1.31,0,1.96-.37,2.71-1.13l1.82,1.77c-1.22,1.22-2.39,1.89-4.55,1.89-2.83,0-5.54-1.29-5.54-6.14,0-3.91,2.12-6.12,5.22-6.12,3.33,0,5.22,2.44,5.22,5.73v1.33h-7.5Zm4.28-3.33c-.32-.71-.99-1.24-2-1.24s-1.68,.53-2,1.24c-.18,.44-.25,.76-.28,1.29h4.55c-.02-.53-.09-.85-.28-1.29Z"/></g><rect class="cls-9" x="311.89" y="171.7" width="27.66" height="147.1"/><rect class="cls-8" x="311.89" y="376" width="27.66" height="147.1"/></g></g></svg>