<?xml version="1.0" encoding="UTF-8"?><svg xmlns="http://www.w3.org/2000/svg" xmlns:xlink="http://www.w3.org/1999/xlink" viewBox="0 0 600 400"><defs><style>.cls-1{fill:#fff;}.cls-2{fill:#9ecc64;}.cls-3{fill:#1b1464;}.cls-4{fill:#4fac5b;}.cls-5{fill:#4e70bc;}.cls-6{fill:url(#linear-gradient);mix-blend-mode:multiply;opacity:.25;}.cls-7{fill:none;stroke:#b1b1b1;stroke-miterlimit:10;}.cls-8{isolation:isolate;}</style><linearGradient id="linear-gradient" x1="253.72" y1="245.25" x2="281.38" y2="245.25" gradientTransform="matrix(1, 0, 0, 1, 0, 0)" gradientUnits="userSpaceOnUse"><stop offset="0" stop-color="#000"/><stop offset="1" stop-color="#fff"/></linearGradient></defs><g class="cls-8"><g id="Layer_1"><rect class="cls-4" x="253.72" y="171.7" width="144.06" height="73.55"/><rect class="cls-2" x="253.72" y="245.25" width="313.39" height="73.55"/><g><path class="cls-5" d="M61.91,223.83c-4.1,0-7.22-.87-9.88-3.57l3.42-3.42c1.71,1.71,4.03,2.28,6.54,2.28,3.12,0,4.79-1.18,4.79-3.34,0-.95-.27-1.75-.84-2.28-.53-.49-1.14-.76-2.39-.95l-3.27-.46c-2.32-.34-4.03-1.06-5.24-2.24-1.29-1.29-1.94-3.04-1.94-5.32,0-4.83,3.57-8.21,9.42-8.21,3.72,0,6.42,.91,8.74,3.15l-3.34,3.31c-1.71-1.63-3.76-1.86-5.55-1.86-2.81,0-4.18,1.56-4.18,3.42,0,.68,.23,1.41,.8,1.94,.53,.49,1.41,.91,2.51,1.06l3.19,.46c2.47,.34,4.03,1.03,5.17,2.09,1.44,1.37,2.09,3.34,2.09,5.74,0,5.24-4.37,8.21-10.03,8.21Z"/><path class="cls-5" d="M96.14,223.6v-15.77l-5.17,10.26h-3.57l-5.21-10.26v15.77h-5.28v-27.05h5.21l7.07,14.63,7.03-14.63h5.21v27.05h-5.28Z"/><path class="cls-5" d="M106.82,223.6v-4.45l10.11-11.74c.99-1.18,1.41-2.01,1.41-3.27,0-2.01-1.18-3.38-3.27-3.38-1.63,0-3.31,.84-3.31,3.46h-4.94c0-4.94,3.61-7.9,8.25-7.9s8.21,3,8.21,7.86c0,2.62-1.03,4.03-2.89,6.19l-7.56,8.78h10.45v4.45h-16.45Z"/><path class="cls-5" d="M127.46,223.6v-4.45l10.11-11.74c.99-1.18,1.41-2.01,1.41-3.27,0-2.01-1.18-3.38-3.27-3.38-1.63,0-3.31,.84-3.31,3.46h-4.94c0-4.94,3.61-7.9,8.25-7.9s8.21,3,8.21,7.86c0,2.62-1.03,4.03-2.89,6.19l-7.56,8.78h10.45v4.45h-16.45Z"/><path class="cls-5" d="M156.11,223.83c-4.79,0-8.43-3-8.43-8.36,0-2.47,1.06-4.75,2.28-7.22l5.7-11.7h5.39l-5.62,11.17c.65-.27,1.37-.34,2.01-.34,3.65,0,7.11,3,7.11,8.02,0,5.32-3.65,8.43-8.43,8.43Zm0-12.35c-2.01,0-3.5,1.44-3.5,3.95s1.48,3.95,3.5,3.95,3.5-1.44,3.5-3.95-1.41-3.95-3.5-3.95Z"/><path class="cls-5" d="M183.05,211.9l-5.74,11.7h-5.36l5.62-11.17c-.65,.27-1.37,.34-2.01,.34-3.65,0-7.14-3-7.14-8.02,0-5.32,3.65-8.43,8.43-8.43s8.44,3,8.44,8.36c0,2.47-1.03,4.75-2.24,7.22Zm-6.19-11.13c-2.01,0-3.5,1.44-3.5,3.95s1.41,3.95,3.5,3.95,3.5-1.44,3.5-3.95-1.48-3.95-3.5-3.95Z"/><path class="cls-5" d="M203.79,223.6l-5.24-9.42-5.21,9.42h-6.04l8.4-13.87-7.87-13.18h6l4.71,8.74,4.75-8.74h5.96l-7.86,13.18,8.43,13.87h-6.04Z"/><path class="cls-5" d="M223.52,201.26v22.34h-5.28v-22.34h-7.07v-4.71h19.42v4.71h-7.07Z"/></g><g><path class="cls-3" d="M61.72,286.29h-3.97v7.77h-4.03v-20.65h8.01c4.26,0,6.82,2.93,6.82,6.44s-2.55,6.44-6.82,6.44Zm-.2-9.28h-3.77v5.66h3.77c1.83,0,2.99-1.13,2.99-2.81s-1.16-2.84-2.99-2.84Z"/><path class="cls-3" d="M79.84,283.07c-.58-.58-1.07-.9-2-.9-1.16,0-2.44,.87-2.44,2.78v9.11h-3.77v-15.11h3.68v1.45c.72-.87,2.17-1.62,3.8-1.62,1.48,0,2.52,.38,3.57,1.42l-2.84,2.87Z"/><path class="cls-3" d="M86.89,287.68c0,1.94,1.19,3.36,3.31,3.36,1.65,0,2.47-.46,3.42-1.42l2.29,2.23c-1.54,1.54-3.02,2.38-5.74,2.38-3.57,0-6.99-1.62-6.99-7.74,0-4.93,2.67-7.72,6.58-7.72,4.21,0,6.58,3.07,6.58,7.22v1.68h-9.46Zm5.4-4.21c-.41-.9-1.25-1.57-2.52-1.57s-2.12,.67-2.52,1.57c-.23,.55-.32,.96-.35,1.62h5.74c-.03-.67-.12-1.07-.35-1.62Z"/><path class="cls-3" d="M106.06,294.06h-2.96l-5.57-15.11h3.97l3.08,9.34,3.05-9.34h3.97l-5.54,15.11Z"/><path class="cls-3" d="M113.77,276.37v-3.07h3.86v3.07h-3.86Zm.06,17.69v-15.11h3.77v15.11h-3.77Z"/><path class="cls-3" d="M132.25,292.38c-.93,.99-2.46,1.86-4.7,1.86s-3.74-.87-4.67-1.86c-1.36-1.42-1.71-3.13-1.71-5.89s.35-4.44,1.71-5.86c.93-.99,2.44-1.86,4.67-1.86s3.77,.87,4.7,1.86c1.36,1.42,1.71,3.13,1.71,5.86s-.35,4.47-1.71,5.89Zm-2.93-9.54c-.43-.44-1.01-.67-1.77-.67s-1.31,.23-1.74,.67c-.78,.78-.87,2.09-.87,3.65s.09,2.9,.87,3.68c.44,.44,.99,.67,1.74,.67s1.33-.23,1.77-.67c.78-.78,.87-2.12,.87-3.68s-.09-2.87-.87-3.65Z"/><path class="cls-3" d="M146.25,294.06v-1.39c-.99,1.04-2.38,1.57-3.77,1.57-1.51,0-2.73-.49-3.57-1.33-1.22-1.22-1.54-2.64-1.54-4.29v-9.66h3.77v9.14c0,2.06,1.3,2.76,2.49,2.76s2.52-.7,2.52-2.76v-9.14h3.77v15.11h-3.68Z"/><path class="cls-3" d="M159.13,294.24c-2.38,0-4.53-.26-6.44-2.18l2.47-2.47c1.25,1.25,2.87,1.42,4.03,1.42,1.31,0,2.67-.44,2.67-1.57,0-.75-.41-1.28-1.6-1.39l-2.38-.23c-2.73-.26-4.41-1.45-4.41-4.24,0-3.13,2.76-4.81,5.83-4.81,2.35,0,4.32,.41,5.77,1.77l-2.32,2.35c-.87-.78-2.2-1.02-3.51-1.02-1.51,0-2.15,.7-2.15,1.45,0,.55,.23,1.19,1.57,1.31l2.38,.23c2.99,.29,4.5,1.89,4.5,4.44,0,3.34-2.84,4.93-6.41,4.93Z"/><path class="cls-3" d="M188.45,291.89c-1.6,1.62-3.51,2.35-5.83,2.35s-4.06-.75-5.57-2.26c-.9-.9-1.45-1.94-1.68-3.1-.23-1.16-.35-2.87-.35-5.13s.12-3.97,.35-5.13c.23-1.19,.78-2.2,1.68-3.1,1.51-1.51,3.36-2.26,5.57-2.26,4.7,0,7.22,3.02,7.77,6.61h-4.06c-.49-2-1.71-3.02-3.71-3.02-1.07,0-1.94,.38-2.58,1.1-.75,.96-.99,1.71-.99,5.8s.17,4.87,.99,5.83c.61,.73,1.48,1.07,2.58,1.07,1.19,0,2.15-.38,2.87-1.16,.61-.7,.93-1.62,.93-2.76v-.78h-3.8v-3.36h7.8v3.02c0,3.02-.55,4.79-1.97,6.29Z"/><path class="cls-3" d="M196.86,287.68c0,1.94,1.19,3.36,3.31,3.36,1.65,0,2.47-.46,3.42-1.42l2.29,2.23c-1.54,1.54-3.02,2.38-5.74,2.38-3.57,0-6.99-1.62-6.99-7.74,0-4.93,2.67-7.72,6.58-7.72,4.21,0,6.58,3.07,6.58,7.22v1.68h-9.46Zm5.4-4.21c-.41-.9-1.25-1.57-2.52-1.57s-2.12,.67-2.52,1.57c-.23,.55-.32,.96-.35,1.62h5.74c-.03-.67-.12-1.07-.35-1.62Z"/><path class="cls-3" d="M218.58,294.06v-9.14c0-2.06-1.3-2.76-2.49-2.76s-2.52,.7-2.52,2.76v9.14h-3.77v-15.11h3.68v1.39c.99-1.04,2.38-1.57,3.77-1.57,1.51,0,2.73,.49,3.57,1.33,1.22,1.22,1.54,2.64,1.54,4.29v9.66h-3.77Z"/><path class="cls-3" d="M226.26,294.06v-4.29h4.32v4.29h-4.32Z"/></g><g><path class="cls-1" d="M280.97,211.61v-3.62l12.99-5.98v4.38l-7.71,3.42,7.71,3.39v4.38l-12.99-5.98Z"/><path class="cls-1" d="M304.07,218.94v-18.3l-4.64,4.03v-4.48l4.64-4.03h4.16v22.78h-4.16Z"/><path class="cls-1" d="M327.3,217.27c-1.02,1.02-2.66,1.86-5.02,1.86s-4.1-.83-5.09-1.82c-1.41-1.41-1.73-3.07-1.86-4.74h4.16c.22,1.79,1.06,2.82,2.78,2.82,.8,0,1.47-.22,1.98-.74,.74-.74,.9-1.95,.9-3.39,0-2.62-.77-4.1-2.78-4.1-1.7,0-2.46,.96-2.75,1.86h-3.81v-12.86h12.99v3.74h-9.22v4.9c.61-.58,1.89-1.15,3.42-1.15,1.89,0,3.33,.61,4.26,1.54,1.79,1.79,2.05,3.94,2.05,6.08,0,2.56-.35,4.35-2.02,6.02Z"/><path class="cls-1" d="M354.61,218.94v-7.56c0-1.7-1.08-2.28-2.06-2.28s-2.09,.58-2.09,2.21v7.63h-3.12v-7.56c0-1.7-1.08-2.28-2.06-2.28s-2.09,.58-2.09,2.28v7.56h-3.12v-12.5h3.05v1.15c.82-.84,1.97-1.3,3.12-1.3,1.39,0,2.52,.5,3.31,1.58,1.06-1.1,2.18-1.58,3.74-1.58,1.25,0,2.38,.41,3.07,1.1,1.01,1.01,1.37,2.18,1.37,3.55v7.99h-3.12Z"/><path class="cls-1" d="M375.9,218.94h-2.78l-3.14-10.37-3.14,10.37h-2.78l-4.56-17.09h3.48l2.64,10.78,3.12-10.78h2.5l3.12,10.78,2.66-10.78h3.48l-4.58,17.09Z"/></g><g><path class="cls-1" d="M381.96,292.4c-1.02,1.02-2.66,1.86-5.02,1.86s-4.1-.83-5.09-1.82c-1.41-1.41-1.73-3.07-1.86-4.74h4.16c.22,1.79,1.06,2.82,2.78,2.82,.8,0,1.47-.22,1.98-.74,.74-.74,.9-1.95,.9-3.39,0-2.62-.77-4.1-2.78-4.1-1.7,0-2.46,.96-2.75,1.86h-3.81v-12.86h12.99v3.74h-9.22v4.9c.61-.58,1.89-1.15,3.42-1.15,1.89,0,3.33,.61,4.26,1.54,1.79,1.79,2.05,3.94,2.05,6.08,0,2.56-.35,4.35-2.02,6.01Z"/><path class="cls-1" d="M394.25,294.25c-3.71,0-6.94-2.43-6.94-6.78v-9.6c0-4.35,3.23-6.78,6.94-6.78s6.91,2.43,6.91,6.78v9.6c0,4.35-3.2,6.78-6.91,6.78Zm2.75-16.32c0-1.92-1.12-3.1-2.75-3.1s-2.78,1.18-2.78,3.1v9.5c0,1.92,1.15,3.07,2.78,3.07s2.75-1.15,2.75-3.07v-9.5Z"/><path class="cls-1" d="M426.65,294.06v-7.56c0-1.7-1.08-2.28-2.06-2.28s-2.09,.58-2.09,2.21v7.63h-3.12v-7.56c0-1.7-1.08-2.28-2.06-2.28s-2.09,.58-2.09,2.28v7.56h-3.12v-12.5h3.05v1.15c.82-.84,1.97-1.3,3.12-1.3,1.39,0,2.52,.5,3.31,1.58,1.06-1.1,2.18-1.58,3.74-1.58,1.25,0,2.38,.41,3.07,1.1,1.01,1.01,1.37,2.18,1.37,3.55v7.99h-3.12Z"/><path class="cls-1" d="M447.93,294.06h-2.78l-3.14-10.37-3.14,10.37h-2.78l-4.56-17.09h3.48l2.64,10.78,3.12-10.78h2.5l3.12,10.78,2.67-10.78h3.48l-4.58,17.09Z"/></g><line class="cls-7" x1="253.72" y1="154.49" x2="253.72" y2="340.1"/><rect class="cls-6" x="253.72" y="171.7" width="27.66" height="147.1"/><g><path d="M271.67,94.29h-6.85v13.4h-6.95v-35.6h13.8c7.35,0,11.75,5.05,11.75,11.1s-4.4,11.1-11.75,11.1Zm-.35-16h-6.5v9.75h6.5c3.15,0,5.15-1.95,5.15-4.85s-2-4.9-5.15-4.9Z"/><path d="M299.07,107.99c-5.4,0-9.5-1.15-13-4.7l4.5-4.5c2.25,2.25,5.3,3,8.6,3,4.1,0,6.3-1.55,6.3-4.4,0-1.25-.35-2.3-1.1-3-.7-.65-1.5-1-3.15-1.25l-4.3-.6c-3.05-.45-5.3-1.4-6.9-2.95-1.7-1.7-2.55-4-2.55-7,0-6.35,4.7-10.8,12.4-10.8,4.9,0,8.45,1.2,11.5,4.15l-4.4,4.35c-2.25-2.15-4.95-2.45-7.3-2.45-3.7,0-5.5,2.05-5.5,4.5,0,.9,.3,1.85,1.05,2.55,.7,.65,1.85,1.2,3.3,1.4l4.2,.6c3.25,.45,5.3,1.35,6.8,2.75,1.9,1.8,2.75,4.4,2.75,7.55,0,6.9-5.75,10.8-13.2,10.8Z"/><path d="M328.12,107.99c-5.8,0-11.25-3.05-11.35-10.5h6.5c.1,3.2,2.3,4.65,4.85,4.65,2.8,0,4.8-1.75,4.8-4.95,0-2.95-1.8-4.9-5-4.9h-.95v-5.65h.95c3.15,0,4.5-1.95,4.5-4.45,0-3-2-4.55-4.35-4.55s-4.25,1.6-4.4,4.3h-6.5c.15-6.35,4.9-10.15,10.9-10.15,6.3,0,10.85,4.2,10.85,10.2,0,3.85-1.75,6.05-4.1,7.3,2.55,1.35,4.6,3.8,4.6,8.1,0,7.1-5.2,10.6-11.3,10.6Z"/></g></g></g></svg>