<?xml version="1.0" encoding="UTF-8"?><svg xmlns="http://www.w3.org/2000/svg" xmlns:xlink="http://www.w3.org/1999/xlink" viewBox="0 0 1200 600"><defs><style>.cls-1{letter-spacing:-.02em;}.cls-1,.cls-2,.cls-3,.cls-4{font-size:50px;}.cls-5{fill:#666;}.cls-5,.cls-6{font-size:29px;}.cls-7{letter-spacing:-.01em;}.cls-8{letter-spacing:0em;}.cls-9{fill:url(#linear-gradient);}.cls-10{fill:#009fea;}.cls-11,.cls-12{fill:#4e70bc;}.cls-13{letter-spacing:-.03em;}.cls-14{fill:#bf272d;filter:url(#outer-glow-3);}.cls-14,.cls-15,.cls-16,.cls-17,.cls-12,.cls-6{font-family:DINPro-Bold, DINPro;}.cls-14,.cls-12{font-size:38px;}.cls-18{font-size:37.6px;}.cls-19{font-size:32px;}.cls-20{letter-spacing:0em;}.cls-2{letter-spacing:-.02em;}.cls-16,.cls-17{fill:#fff;}.cls-17{font-size:23px;}.cls-21{fill:url(#linear-gradient-4);}.cls-21,.cls-22{mix-blend-mode:multiply;opacity:.25;}.cls-22{fill:url(#linear-gradient-3);}.cls-23{letter-spacing:-.02em;}.cls-24{font-size:24px;}.cls-4{letter-spacing:0em;}.cls-25{fill:url(#linear-gradient-2);}.cls-26{fill:none;stroke:#b1b1b1;stroke-miterlimit:10;}.cls-6{fill:#1b1464;}.cls-27{isolation:isolate;}.cls-28{letter-spacing:0em;}</style><linearGradient id="linear-gradient" x1="415.31" y1="354.78" x2="996.61" y2="354.78" gradientTransform="matrix(1, 0, 0, 1, 0, 0)" gradientUnits="userSpaceOnUse"><stop offset=".26" stop-color="#fff"/><stop offset=".27" stop-color="#fef5ee"/><stop offset=".31" stop-color="#fddcc0"/><stop offset=".34" stop-color="#fbc699"/><stop offset=".38" stop-color="#fab479"/><stop offset=".42" stop-color="#f9a660"/><stop offset=".46" stop-color="#f99c4e"/><stop offset=".5" stop-color="#f99644"/><stop offset=".55" stop-color="#f99541"/><stop offset=".59" stop-color="#f9ab45"/><stop offset=".64" stop-color="#f9c24a"/><stop offset=".69" stop-color="#f9d34d"/><stop offset=".74" stop-color="#f9dd4f"/><stop offset=".81" stop-color="#f9e150"/><stop offset=".85" stop-color="#f9d746"/><stop offset=".91" stop-color="#f9d03d"/><stop offset="1" stop-color="#f9ce3b"/></linearGradient><linearGradient id="linear-gradient-2" x1="683.82" y1="354.78" x2="1015.44" y2="354.78" xlink:href="#linear-gradient"/><filter id="outer-glow-3" filterUnits="userSpaceOnUse"><feOffset dx="0" dy="0"/><feGaussianBlur result="blur" stdDeviation="10"/><feFlood flood-color="red" flood-opacity=".3"/><feComposite in2="blur" operator="in"/><feComposite in="SourceGraphic"/></filter><linearGradient id="linear-gradient-3" x1="311.89" y1="245.25" x2="339.55" y2="245.25" gradientTransform="matrix(1, 0, 0, 1, 0, 0)" gradientUnits="userSpaceOnUse"><stop offset="0" stop-color="#000"/><stop offset="1" stop-color="#fff"/></linearGradient><linearGradient id="linear-gradient-4" y1="449.56" y2="449.56" xlink:href="#linear-gradient-3"/></defs><g class="cls-27"><g id="Layer_1"><rect class="cls-9" x="427.49" y="310.19" width="614.75" height="89.18"/><polygon class="cls-25" points="1085.78 354.78 1036.77 427.54 1036.77 282.02 1085.78 354.78"/><rect class="cls-11" x="311.89" y="171.7" width="764.4" height="73.55"/><rect class="cls-11" x="882.4" y="65.92" width="90.3" height="52.59"/><rect class="cls-10" x="311.89" y="245.25" width="704.45" height="73.55"/><rect class="cls-11" x="311.89" y="376" width="359.72" height="73.55"/><rect class="cls-10" x="311.89" y="449.56" width="254.8" height="73.55"/><text class="cls-15" transform="translate(91.17 107.69)"><tspan class="cls-3" x="0" y="0">Seq. </tspan><tspan class="cls-4" x="110.85" y="0">P</tspan><tspan class="cls-3" x="141.75" y="0">er</tspan><tspan class="cls-2" x="191.9" y="0">f</tspan><tspan class="cls-3" x="208.2" y="0">orman</tspan><tspan class="cls-1" x="357.25" y="0">c</tspan><tspan class="cls-3" x="380.34" y="0">e</tspan><tspan class="cls-18" x="407.74" y="0"> </tspan><tspan class="cls-5" x="416.47" y="0">(MB/s)</tspan></text><text class="cls-12" transform="translate(91.17 256.77)"><tspan x="0" y="0">SM2269XT</tspan></text><text class="cls-6" transform="translate(91.17 458.78)"><tspan x="0" y="0">P</tspan><tspan class="cls-13" x="18.21" y="0">r</tspan><tspan class="cls-7" x="30.51" y="0">e</tspan><tspan x="46.11" y="0">vious Gen.</tspan></text><text class="cls-14" transform="translate(821.99 374.12)"><tspan x="0" y="0">2.1x </tspan><tspan class="cls-23" x="80.94" y="0">f</tspan><tspan x="93.33" y="0">a</tspan><tspan class="cls-28" x="113.62" y="0">s</tspan><tspan class="cls-20" x="132.28" y="0">t</tspan><tspan x="145.54" y="0">er</tspan></text><text class="cls-16" transform="translate(636.52 218.94)"><tspan class="cls-19" x="0" y="0">5,100 </tspan><tspan class="cls-24" x="85.86" y="0">MB/s</tspan></text><text class="cls-16" transform="translate(592.71 294.06)"><tspan class="cls-19" x="0" y="0">4,700 </tspan><tspan class="cls-24" x="85.86" y="0">MB/s</tspan></text><text class="cls-16" transform="translate(420.35 422.2)"><tspan class="cls-19" x="0" y="0">2,400 </tspan><tspan class="cls-24" x="85.86" y="0">MB/s</tspan></text><text class="cls-16" transform="translate(367.89 500.3)"><tspan class="cls-19" x="0" y="0">1,700 </tspan><tspan class="cls-24" x="85.86" y="0">MB/s</tspan></text><line class="cls-26" x1="311.89" y1="154.49" x2="311.89" y2="545.24"/><text class="cls-17" transform="translate(901.14 99.33)"><tspan x="0" y="0">Read</tspan></text><rect class="cls-10" x="987.35" y="65.92" width="90.3" height="52.59"/><text class="cls-17" transform="translate(1003.59 99.33)"><tspan x="0" y="0">Wri</tspan><tspan class="cls-8" x="37.19" y="0">t</tspan><tspan x="45.22" y="0">e</tspan></text><rect class="cls-22" x="311.89" y="171.7" width="27.66" height="147.1"/><rect class="cls-21" x="311.89" y="376" width="27.66" height="147.1"/></g></g></svg>