<?xml version="1.0" encoding="UTF-8"?><svg xmlns="http://www.w3.org/2000/svg" xmlns:xlink="http://www.w3.org/1999/xlink" viewBox="0 0 600 400"><defs><style>.cls-1{fill:#fff;}.cls-2{fill:#9ecc64;}.cls-3{fill:#666;}.cls-4{fill:#1b1464;}.cls-5{fill:#4fac5b;}.cls-6{fill:#4e70bc;}.cls-7{fill:url(#linear-gradient);mix-blend-mode:multiply;opacity:.25;}.cls-8{fill:none;stroke:#b1b1b1;stroke-miterlimit:10;}.cls-9{isolation:isolate;}</style><linearGradient id="linear-gradient" x1="255.76" y1="245.25" x2="283.41" y2="245.25" gradientTransform="matrix(1, 0, 0, 1, 0, 0)" gradientUnits="userSpaceOnUse"><stop offset="0" stop-color="#000"/><stop offset="1" stop-color="#fff"/></linearGradient></defs><g class="cls-9"><g id="Layer_1"><rect class="cls-5" x="255.76" y="171.7" width="219.67" height="73.55"/><rect class="cls-2" x="255.76" y="245.25" width="281.05" height="73.55"/><g><path class="cls-6" d="M63.94,223.83c-4.1,0-7.22-.87-9.88-3.57l3.42-3.42c1.71,1.71,4.03,2.28,6.54,2.28,3.12,0,4.79-1.18,4.79-3.34,0-.95-.27-1.75-.84-2.28-.53-.49-1.14-.76-2.39-.95l-3.27-.46c-2.32-.34-4.03-1.06-5.24-2.24-1.29-1.29-1.94-3.04-1.94-5.32,0-4.83,3.57-8.21,9.42-8.21,3.72,0,6.42,.91,8.74,3.15l-3.34,3.31c-1.71-1.63-3.76-1.86-5.55-1.86-2.81,0-4.18,1.56-4.18,3.42,0,.68,.23,1.41,.8,1.94,.53,.49,1.41,.91,2.51,1.06l3.19,.46c2.47,.34,4.03,1.03,5.17,2.09,1.44,1.37,2.09,3.34,2.09,5.74,0,5.24-4.37,8.21-10.03,8.21Z"/><path class="cls-6" d="M98.18,223.6v-15.77l-5.17,10.26h-3.57l-5.21-10.26v15.77h-5.28v-27.05h5.21l7.07,14.63,7.03-14.63h5.21v27.05h-5.28Z"/><path class="cls-6" d="M108.86,223.6v-4.45l10.11-11.74c.99-1.18,1.41-2.01,1.41-3.27,0-2.01-1.18-3.38-3.27-3.38-1.63,0-3.31,.84-3.31,3.46h-4.94c0-4.94,3.61-7.9,8.25-7.9s8.21,3,8.21,7.86c0,2.62-1.03,4.03-2.89,6.19l-7.56,8.78h10.45v4.45h-16.45Z"/><path class="cls-6" d="M129.49,223.6v-4.45l10.11-11.74c.99-1.18,1.41-2.01,1.41-3.27,0-2.01-1.18-3.38-3.27-3.38-1.63,0-3.31,.84-3.31,3.46h-4.94c0-4.94,3.61-7.9,8.25-7.9s8.21,3,8.21,7.86c0,2.62-1.03,4.03-2.89,6.19l-7.56,8.78h10.45v4.45h-16.45Z"/><path class="cls-6" d="M158.14,223.83c-4.79,0-8.43-3-8.43-8.36,0-2.47,1.06-4.75,2.28-7.22l5.7-11.7h5.39l-5.62,11.17c.65-.27,1.37-.34,2.01-.34,3.65,0,7.11,3,7.11,8.02,0,5.32-3.65,8.43-8.43,8.43Zm0-12.35c-2.01,0-3.5,1.44-3.5,3.95s1.48,3.95,3.5,3.95,3.5-1.44,3.5-3.95-1.41-3.95-3.5-3.95Z"/><path class="cls-6" d="M185.08,211.9l-5.74,11.7h-5.36l5.62-11.17c-.65,.27-1.37,.34-2.01,.34-3.65,0-7.14-3-7.14-8.02,0-5.32,3.65-8.43,8.43-8.43s8.44,3,8.44,8.36c0,2.47-1.03,4.75-2.24,7.22Zm-6.19-11.13c-2.01,0-3.5,1.44-3.5,3.95s1.41,3.95,3.5,3.95,3.5-1.44,3.5-3.95-1.48-3.95-3.5-3.95Z"/><path class="cls-6" d="M205.83,223.6l-5.24-9.42-5.21,9.42h-6.04l8.4-13.87-7.87-13.18h6l4.71,8.74,4.75-8.74h5.96l-7.86,13.18,8.43,13.87h-6.04Z"/><path class="cls-6" d="M225.55,201.26v22.34h-5.28v-22.34h-7.07v-4.71h19.42v4.71h-7.07Z"/></g><g><path class="cls-4" d="M63.75,286.29h-3.97v7.77h-4.03v-20.65h8.01c4.26,0,6.82,2.93,6.82,6.44s-2.55,6.44-6.82,6.44Zm-.2-9.28h-3.77v5.66h3.77c1.83,0,2.99-1.13,2.99-2.81s-1.16-2.84-2.99-2.84Z"/><path class="cls-4" d="M81.88,283.07c-.58-.58-1.07-.9-2-.9-1.16,0-2.44,.87-2.44,2.78v9.11h-3.77v-15.11h3.68v1.45c.72-.87,2.17-1.62,3.8-1.62,1.48,0,2.52,.38,3.57,1.42l-2.84,2.87Z"/><path class="cls-4" d="M88.92,287.68c0,1.94,1.19,3.36,3.31,3.36,1.65,0,2.47-.46,3.42-1.42l2.29,2.23c-1.54,1.54-3.02,2.38-5.74,2.38-3.57,0-6.99-1.62-6.99-7.74,0-4.93,2.67-7.72,6.58-7.72,4.21,0,6.58,3.07,6.58,7.22v1.68h-9.46Zm5.4-4.21c-.41-.9-1.25-1.57-2.52-1.57s-2.12,.67-2.52,1.57c-.23,.55-.32,.96-.35,1.62h5.74c-.03-.67-.12-1.07-.35-1.62Z"/><path class="cls-4" d="M108.09,294.06h-2.96l-5.57-15.11h3.97l3.08,9.34,3.05-9.34h3.97l-5.54,15.11Z"/><path class="cls-4" d="M115.81,276.37v-3.07h3.86v3.07h-3.86Zm.06,17.69v-15.11h3.77v15.11h-3.77Z"/><path class="cls-4" d="M134.28,292.38c-.93,.99-2.46,1.86-4.7,1.86s-3.74-.87-4.67-1.86c-1.36-1.42-1.71-3.13-1.71-5.89s.35-4.44,1.71-5.86c.93-.99,2.44-1.86,4.67-1.86s3.77,.87,4.7,1.86c1.36,1.42,1.71,3.13,1.71,5.86s-.35,4.47-1.71,5.89Zm-2.93-9.54c-.43-.44-1.01-.67-1.77-.67s-1.31,.23-1.74,.67c-.78,.78-.87,2.09-.87,3.65s.09,2.9,.87,3.68c.44,.44,.99,.67,1.74,.67s1.33-.23,1.77-.67c.78-.78,.87-2.12,.87-3.68s-.09-2.87-.87-3.65Z"/><path class="cls-4" d="M148.29,294.06v-1.39c-.99,1.04-2.38,1.57-3.77,1.57-1.51,0-2.73-.49-3.57-1.33-1.22-1.22-1.54-2.64-1.54-4.29v-9.66h3.77v9.14c0,2.06,1.3,2.76,2.49,2.76s2.52-.7,2.52-2.76v-9.14h3.77v15.11h-3.68Z"/><path class="cls-4" d="M161.16,294.24c-2.38,0-4.53-.26-6.44-2.18l2.47-2.47c1.25,1.25,2.87,1.42,4.03,1.42,1.31,0,2.67-.44,2.67-1.57,0-.75-.41-1.28-1.6-1.39l-2.38-.23c-2.73-.26-4.41-1.45-4.41-4.24,0-3.13,2.76-4.81,5.83-4.81,2.35,0,4.32,.41,5.77,1.77l-2.32,2.35c-.87-.78-2.2-1.02-3.51-1.02-1.51,0-2.15,.7-2.15,1.45,0,.55,.23,1.19,1.57,1.31l2.38,.23c2.99,.29,4.5,1.89,4.5,4.44,0,3.34-2.84,4.93-6.41,4.93Z"/><path class="cls-4" d="M190.48,291.89c-1.6,1.62-3.51,2.35-5.83,2.35s-4.06-.75-5.57-2.26c-.9-.9-1.45-1.94-1.68-3.1-.23-1.16-.35-2.87-.35-5.13s.12-3.97,.35-5.13c.23-1.19,.78-2.2,1.68-3.1,1.51-1.51,3.36-2.26,5.57-2.26,4.7,0,7.22,3.02,7.77,6.61h-4.06c-.49-2-1.71-3.02-3.71-3.02-1.07,0-1.94,.38-2.58,1.1-.75,.96-.99,1.71-.99,5.8s.17,4.87,.99,5.83c.61,.73,1.48,1.07,2.58,1.07,1.19,0,2.15-.38,2.87-1.16,.61-.7,.93-1.62,.93-2.76v-.78h-3.8v-3.36h7.8v3.02c0,3.02-.55,4.79-1.97,6.29Z"/><path class="cls-4" d="M198.89,287.68c0,1.94,1.19,3.36,3.31,3.36,1.65,0,2.47-.46,3.42-1.42l2.29,2.23c-1.54,1.54-3.02,2.38-5.74,2.38-3.57,0-6.99-1.62-6.99-7.74,0-4.93,2.67-7.72,6.58-7.72,4.21,0,6.58,3.07,6.58,7.22v1.68h-9.46Zm5.4-4.21c-.41-.9-1.25-1.57-2.52-1.57s-2.12,.67-2.52,1.57c-.23,.55-.32,.96-.35,1.62h5.74c-.03-.67-.12-1.07-.35-1.62Z"/><path class="cls-4" d="M220.61,294.06v-9.14c0-2.06-1.3-2.76-2.49-2.76s-2.52,.7-2.52,2.76v9.14h-3.77v-15.11h3.68v1.39c.99-1.04,2.38-1.57,3.77-1.57,1.51,0,2.73,.49,3.57,1.33,1.22,1.22,1.54,2.64,1.54,4.29v9.66h-3.77Z"/><path class="cls-4" d="M228.3,294.06v-4.29h4.32v4.29h-4.32Z"/></g><g><path class="cls-1" d="M303.18,211.61v-3.62l12.99-5.98v4.38l-7.71,3.42,7.71,3.39v4.38l-12.99-5.98Z"/><path class="cls-1" d="M326.29,218.94v-18.3l-4.64,4.03v-4.48l4.64-4.03h4.16v22.78h-4.16Z"/><path class="cls-1" d="M337.9,218.94v-4.74h4.77v4.74h-4.77Z"/><path class="cls-1" d="M353.49,219.13c-4.03,0-7.1-2.53-7.1-7.04,0-2.08,.9-4,1.92-6.08l4.8-9.85h4.54l-4.74,9.41c.54-.22,1.15-.29,1.7-.29,3.07,0,5.98,2.53,5.98,6.75,0,4.48-3.07,7.1-7.1,7.1Zm0-10.4c-1.7,0-2.94,1.22-2.94,3.33s1.25,3.33,2.94,3.33,2.94-1.22,2.94-3.33-1.18-3.33-2.94-3.33Z"/><path class="cls-1" d="M385.94,218.94v-7.56c0-1.7-1.08-2.28-2.06-2.28s-2.09,.58-2.09,2.21v7.63h-3.12v-7.56c0-1.7-1.08-2.28-2.06-2.28s-2.09,.58-2.09,2.28v7.56h-3.12v-12.5h3.05v1.15c.82-.84,1.97-1.3,3.12-1.3,1.39,0,2.52,.5,3.31,1.58,1.06-1.1,2.18-1.58,3.74-1.58,1.25,0,2.38,.41,3.07,1.1,1.01,1.01,1.37,2.18,1.37,3.55v7.99h-3.12Z"/><path class="cls-1" d="M407.23,218.94h-2.78l-3.14-10.37-3.14,10.37h-2.78l-4.56-17.09h3.48l2.64,10.78,3.12-10.78h2.5l3.12,10.78,2.67-10.78h3.48l-4.58,17.09Z"/></g><g><path class="cls-1" d="M316.43,286.74v-3.62l12.99-5.98v4.38l-7.71,3.42,7.71,3.39v4.38l-12.99-5.98Z"/><path class="cls-1" d="M333.48,294.06v-3.74l8.51-9.89c.83-.99,1.18-1.7,1.18-2.75,0-1.7-.99-2.85-2.75-2.85-1.38,0-2.78,.7-2.78,2.91h-4.16c0-4.16,3.04-6.66,6.94-6.66s6.91,2.53,6.91,6.62c0,2.21-.86,3.39-2.43,5.22l-6.37,7.39h8.8v3.74h-13.86Z"/><path class="cls-1" d="M372.69,294.06v-7.56c0-1.7-1.08-2.28-2.06-2.28s-2.09,.58-2.09,2.21v7.63h-3.12v-7.56c0-1.7-1.08-2.28-2.06-2.28s-2.09,.58-2.09,2.28v7.56h-3.12v-12.5h3.05v1.15c.82-.84,1.97-1.3,3.12-1.3,1.39,0,2.52,.5,3.31,1.58,1.06-1.1,2.18-1.58,3.74-1.58,1.25,0,2.38,.41,3.07,1.1,1.01,1.01,1.37,2.18,1.37,3.55v7.99h-3.12Z"/><path class="cls-1" d="M393.98,294.06h-2.78l-3.14-10.37-3.14,10.37h-2.78l-4.56-17.09h3.48l2.64,10.78,3.12-10.78h2.5l3.12,10.78,2.67-10.78h3.48l-4.58,17.09Z"/></g><line class="cls-8" x1="255.76" y1="154.49" x2="255.76" y2="340.1"/><rect class="cls-7" x="255.76" y="171.7" width="27.66" height="147.1"/><g><path d="M273.71,94.29h-6.85v13.4h-6.95v-35.6h13.8c7.35,0,11.75,5.05,11.75,11.1s-4.4,11.1-11.75,11.1Zm-.35-16h-6.5v9.75h6.5c3.15,0,5.15-1.95,5.15-4.85s-2-4.9-5.15-4.9Z"/><path d="M301.11,107.99c-5.4,0-9.5-1.15-13-4.7l4.5-4.5c2.25,2.25,5.3,3,8.6,3,4.1,0,6.3-1.55,6.3-4.4,0-1.25-.35-2.3-1.1-3-.7-.65-1.5-1-3.15-1.25l-4.3-.6c-3.05-.45-5.3-1.4-6.9-2.95-1.7-1.7-2.55-4-2.55-7,0-6.35,4.7-10.8,12.4-10.8,4.9,0,8.45,1.2,11.5,4.15l-4.4,4.35c-2.25-2.15-4.95-2.45-7.3-2.45-3.7,0-5.5,2.05-5.5,4.5,0,.9,.3,1.85,1.05,2.55,.7,.65,1.85,1.2,3.3,1.4l4.2,.6c3.25,.45,5.3,1.35,6.8,2.75,1.9,1.8,2.75,4.4,2.75,7.55,0,6.9-5.75,10.8-13.2,10.8Z"/><path d="M339.06,102.64v5.05h-6.25v-5.05h-14.55v-6.15l12.2-24.4h7.1l-12.2,24.4h7.45v-6.65h6.25v6.65h3.25v6.15h-3.25Z"/><path class="cls-3" d="M365.16,112.39c-1.65-1.65-3.25-3.2-4.4-5.15-1.15-2-1.3-4.25-1.3-6.45v-21.8c0-2.2,.15-4.45,1.3-6.45,1.15-1.95,2.75-3.5,4.4-5.15l4.35,4.35c-1.2,1.2-1.95,1.9-2.8,3.35-.5,.9-.75,2.3-.75,4.2v21.2c0,1.9,.25,3.3,.75,4.2,.85,1.45,1.6,2.15,2.8,3.35l-4.35,4.35Z"/><path class="cls-3" d="M376.41,107.69v-35.6h6.95v29.4h16.15v6.2h-23.1Z"/><path class="cls-3" d="M413.41,107.69v-28.6l-7.25,6.3v-7l7.25-6.3h6.5v35.6h-6.5Z"/><path class="cls-3" d="M431.56,107.69v-7.4h7.45v7.4h-7.45Z"/><path class="cls-3" d="M445.36,107.69v-5.85l13.3-15.45c1.3-1.55,1.85-2.65,1.85-4.3,0-2.65-1.55-4.45-4.3-4.45-2.15,0-4.35,1.1-4.35,4.55h-6.5c0-6.5,4.75-10.4,10.85-10.4s10.8,3.95,10.8,10.35c0,3.45-1.35,5.3-3.8,8.15l-9.95,11.55h13.75v5.85h-21.65Z"/><path class="cls-3" d="M481.06,107.24c-1.15,1.95-2.75,3.5-4.4,5.15l-4.4-4.4c1.2-1.2,1.95-1.85,2.8-3.3,.5-.9,.75-2.3,.75-4.2v-21.2c0-1.9-.25-3.3-.75-4.2-.85-1.45-1.6-2.1-2.8-3.3l4.4-4.4c1.65,1.65,3.25,3.2,4.4,5.15,1.15,2,1.3,4.25,1.3,6.45v21.8c0,2.2-.15,4.45-1.3,6.45Z"/></g></g></g></svg>