<?xml version="1.0" encoding="UTF-8"?><svg xmlns="http://www.w3.org/2000/svg" xmlns:xlink="http://www.w3.org/1999/xlink" viewBox="0 0 1200 600"><defs><style>.cls-1{fill:#666;}.cls-1,.cls-2{font-size:29px;}.cls-3{letter-spacing:-.01em;}.cls-4{letter-spacing:0em;}.cls-5{fill:url(#linear-gradient);}.cls-6{fill:#009fea;}.cls-7,.cls-8{fill:#4e70bc;}.cls-9{letter-spacing:-.03em;}.cls-10{fill:#bf272d;filter:url(#outer-glow-2);}.cls-10,.cls-11,.cls-12,.cls-13,.cls-8,.cls-2{font-family:DINPro-Bold, DINPro;}.cls-10,.cls-8{font-size:38px;}.cls-14{font-size:37.6px;letter-spacing:0em;}.cls-15{font-size:32px;}.cls-16{letter-spacing:0em;}.cls-17{letter-spacing:-.02em;}.cls-17,.cls-18,.cls-19,.cls-20{font-size:50px;}.cls-12,.cls-13{fill:#fff;}.cls-13{font-size:23px;}.cls-21{fill:url(#linear-gradient-4);}.cls-21,.cls-22{mix-blend-mode:multiply;opacity:.25;}.cls-22{fill:url(#linear-gradient-3);}.cls-23{letter-spacing:-.02em;}.cls-24{font-size:24px;}.cls-19{letter-spacing:0em;}.cls-25{fill:url(#linear-gradient-2);}.cls-26{fill:none;stroke:#b1b1b1;stroke-miterlimit:10;}.cls-2{fill:#1b1464;}.cls-27{isolation:isolate;}.cls-28{letter-spacing:0em;}.cls-20{letter-spacing:-.02em;}</style><linearGradient id="linear-gradient" x1="393.54" y1="354.78" x2="974.84" y2="354.78" gradientTransform="matrix(1, 0, 0, 1, 0, 0)" gradientUnits="userSpaceOnUse"><stop offset=".26" stop-color="#fff"/><stop offset=".27" stop-color="#fef5ee"/><stop offset=".31" stop-color="#fddcc0"/><stop offset=".34" stop-color="#fbc699"/><stop offset=".38" stop-color="#fab479"/><stop offset=".42" stop-color="#f9a660"/><stop offset=".46" stop-color="#f99c4e"/><stop offset=".5" stop-color="#f99644"/><stop offset=".55" stop-color="#f99541"/><stop offset=".59" stop-color="#f9ab45"/><stop offset=".64" stop-color="#f9c24a"/><stop offset=".69" stop-color="#f9d34d"/><stop offset=".74" stop-color="#f9dd4f"/><stop offset=".81" stop-color="#f9e150"/><stop offset=".85" stop-color="#f9d746"/><stop offset=".91" stop-color="#f9d03d"/><stop offset="1" stop-color="#f9ce3b"/></linearGradient><linearGradient id="linear-gradient-2" x1="662.06" y1="354.78" x2="993.68" y2="354.78" xlink:href="#linear-gradient"/><filter id="outer-glow-2" filterUnits="userSpaceOnUse"><feOffset dx="0" dy="0"/><feGaussianBlur result="blur" stdDeviation="10"/><feFlood flood-color="red" flood-opacity=".3"/><feComposite in2="blur" operator="in"/><feComposite in="SourceGraphic"/></filter><linearGradient id="linear-gradient-3" x1="311.89" y1="245.25" x2="339.55" y2="245.25" gradientTransform="matrix(1, 0, 0, 1, 0, 0)" gradientUnits="userSpaceOnUse"><stop offset="0" stop-color="#000"/><stop offset="1" stop-color="#fff"/></linearGradient><linearGradient id="linear-gradient-4" y1="449.56" y2="449.56" xlink:href="#linear-gradient-3"/></defs><g class="cls-27"><g id="Layer_1"><rect class="cls-5" x="405.72" y="310.19" width="614.75" height="89.18"/><rect class="cls-7" x="311.89" y="376" width="210.27" height="73.55"/><rect class="cls-6" x="311.89" y="449.56" width="187.74" height="73.55"/><rect class="cls-7" x="311.89" y="171.7" width="675.85" height="73.55"/><rect class="cls-6" x="311.89" y="245.25" width="675.85" height="73.55"/><polygon class="cls-25" points="1064.01 354.78 1015 427.54 1015 282.02 1064.01 354.78"/><rect class="cls-7" x="882.4" y="65.92" width="90.3" height="52.59"/><text class="cls-11" transform="translate(91.17 107.69)"><tspan class="cls-18" x="0" y="0">Ran. </tspan><tspan class="cls-19" x="113.9" y="0">P</tspan><tspan class="cls-18" x="144.8" y="0">er</tspan><tspan class="cls-17" x="194.95" y="0">f</tspan><tspan class="cls-18" x="211.25" y="0">orman</tspan><tspan class="cls-20" x="360.3" y="0">c</tspan><tspan class="cls-18" x="383.4" y="0">e</tspan><tspan class="cls-14" x="410.8" y="0"> </tspan><tspan class="cls-1" x="419.52" y="0">(IOPS)</tspan></text><text class="cls-8" transform="translate(91.17 256.77)"><tspan x="0" y="0">SM2269XT</tspan></text><text class="cls-2" transform="translate(91.17 458.78)"><tspan x="0" y="0">P</tspan><tspan class="cls-9" x="18.21" y="0">r</tspan><tspan class="cls-3" x="30.51" y="0">e</tspan><tspan x="46.11" y="0">vious Gen.</tspan></text><text class="cls-10" transform="translate(800.22 374.12)"><tspan x="0" y="0">3.2x </tspan><tspan class="cls-23" x="80.94" y="0">f</tspan><tspan x="93.33" y="0">a</tspan><tspan class="cls-28" x="113.62" y="0">s</tspan><tspan class="cls-16" x="132.28" y="0">t</tspan><tspan x="145.54" y="0">er</tspan></text><text class="cls-12" transform="translate(612.06 218.94)"><tspan class="cls-15" x="0" y="0">900 </tspan><tspan class="cls-24" x="59.55" y="0">K</tspan></text><text class="cls-12" transform="translate(612.06 294.06)"><tspan class="cls-15" x="0" y="0">900 </tspan><tspan class="cls-24" x="59.55" y="0">K</tspan></text><text class="cls-12" transform="translate(379.27 422.2)"><tspan class="cls-15" x="0" y="0">280 </tspan><tspan class="cls-24" x="59.55" y="0">K</tspan></text><text class="cls-12" transform="translate(368.01 500.3)"><tspan class="cls-15" x="0" y="0">250 </tspan><tspan class="cls-24" x="59.55" y="0">K</tspan></text><line class="cls-26" x1="311.89" y1="154.49" x2="311.89" y2="545.24"/><text class="cls-13" transform="translate(901.14 99.33)"><tspan x="0" y="0">Read</tspan></text><rect class="cls-6" x="987.35" y="65.92" width="90.3" height="52.59"/><text class="cls-13" transform="translate(1003.59 99.33)"><tspan x="0" y="0">Wri</tspan><tspan class="cls-4" x="37.19" y="0">t</tspan><tspan x="45.22" y="0">e</tspan></text><rect class="cls-22" x="311.89" y="171.7" width="27.66" height="147.1"/><rect class="cls-21" x="311.89" y="376" width="27.66" height="147.1"/></g></g></svg>