<?xml version="1.0" encoding="UTF-8"?><svg xmlns="http://www.w3.org/2000/svg" viewBox="0 0 800 480"><defs><style>.cls-1{fill:#29abe2;}.cls-1,.cls-2,.cls-3,.cls-4{fill-rule:evenodd;}.cls-2{fill:#98d5f4;}.cls-3{fill:#e6e6e6;}.cls-4{fill:#0071bc;}</style></defs><g id="_2022"><g><path class="cls-4" d="M380.95,278.28l-23.52-167.35c7.39-1.04,16.05-1.64,23.52-1.64v168.99Z"/><path class="cls-1" d="M380.95,278.28l-149.21-79.34c26.29-49.44,70.24-80.22,125.69-88.01l23.52,167.35Z"/><path class="cls-2" d="M380.95,278.28l8.84-168.76c93.21,4.88,164.8,84.4,159.92,177.61s-84.4,164.8-177.61,159.92-164.8-84.4-159.92-177.61c1.37-26.1,7.28-47.42,19.55-70.49l149.21,79.34Z"/><path class="cls-3" d="M380.95,278.28V109.28c3.73,0,5.12,.04,8.84,.23l-8.84,168.76Z"/></g></g><g id="Numbers"><g><path d="M401.53,83.41h-4.47v-10.01c0-.23,0-.56,.01-1.01s.02-.93,.03-1.43c0-.5,.02-.95,.04-1.35-.14,.17-.33,.38-.57,.61-.24,.23-.47,.44-.68,.61l-2.13,1.74-2.21-2.76,6.16-4.97h3.82v18.56Z"/><path d="M410.42,64.58c1.46,0,2.59,.51,3.41,1.52,.81,1.01,1.22,2.44,1.22,4.28s-.38,3.27-1.14,4.3c-.76,1.03-1.92,1.55-3.48,1.55-1.42,0-2.53-.52-3.33-1.55-.8-1.03-1.2-2.47-1.2-4.3s.37-3.26,1.12-4.28c.75-1.01,1.88-1.52,3.41-1.52Zm.05,2.86c-.4,0-.68,.25-.84,.75-.17,.5-.25,1.24-.25,2.21s.08,1.72,.25,2.24,.45,.78,.84,.78,.68-.26,.85-.78c.16-.52,.25-1.27,.25-2.24s-.08-1.71-.25-2.21c-.17-.5-.45-.75-.85-.75Zm13.57-2.6l-10.3,18.56h-3.38l10.3-18.56h3.38Zm-.1,7.15c1.46,0,2.59,.51,3.41,1.52s1.22,2.44,1.22,4.28-.38,3.27-1.14,4.3-1.92,1.55-3.48,1.55c-1.42,0-2.53-.52-3.33-1.55-.8-1.03-1.2-2.47-1.2-4.3s.37-3.26,1.12-4.28,1.88-1.52,3.41-1.52Zm.05,2.83c-.4,0-.68,.26-.84,.78-.17,.52-.25,1.26-.25,2.21s.08,1.69,.25,2.21c.16,.52,.45,.78,.84,.78,.73,0,1.09-1,1.09-2.99s-.36-2.99-1.09-2.99Z"/></g><g><path d="M236.02,127.41h-4.47v-10.01c0-.23,0-.56,.01-1.01s.02-.93,.03-1.43c0-.5,.02-.95,.04-1.35-.14,.17-.33,.38-.57,.61-.24,.23-.47,.44-.68,.61l-2.13,1.74-2.21-2.76,6.16-4.97h3.82v18.56Z"/><path d="M247.82,115.4c1.09,0,2.07,.23,2.94,.68,.87,.45,1.55,1.11,2.05,1.98,.5,.87,.75,1.92,.75,3.15,0,2.06-.62,3.66-1.87,4.78-1.25,1.13-3.11,1.69-5.59,1.69-1.02,0-1.97-.09-2.83-.26-.87-.17-1.63-.42-2.29-.75v-3.72c.64,.33,1.42,.61,2.33,.85s1.75,.35,2.54,.35c1.06,0,1.87-.22,2.43-.66s.84-1.11,.84-2.02c0-.81-.28-1.44-.84-1.88s-1.43-.66-2.59-.66c-.47,0-.95,.05-1.43,.14-.49,.1-.9,.19-1.25,.27l-1.69-.86,.7-9.62h10.3v3.72h-6.5l-.29,3.09c.29-.05,.6-.11,.91-.17,.31-.06,.77-.09,1.38-.09Z"/><path d="M259.94,108.58c1.46,0,2.59,.51,3.41,1.52,.81,1.01,1.22,2.44,1.22,4.28s-.38,3.27-1.14,4.3c-.76,1.03-1.92,1.55-3.48,1.55-1.42,0-2.53-.52-3.33-1.55-.8-1.03-1.2-2.47-1.2-4.3s.37-3.26,1.12-4.28c.75-1.01,1.88-1.52,3.41-1.52Zm.05,2.86c-.4,0-.68,.25-.84,.75-.17,.5-.25,1.24-.25,2.21s.08,1.72,.25,2.24,.45,.78,.84,.78,.68-.26,.85-.78c.16-.52,.25-1.27,.25-2.24s-.08-1.71-.25-2.21c-.17-.5-.45-.75-.85-.75Zm13.57-2.6l-10.3,18.56h-3.38l10.3-18.56h3.38Zm-.1,7.15c1.46,0,2.59,.51,3.41,1.52s1.22,2.44,1.22,4.28-.38,3.27-1.14,4.3-1.92,1.55-3.48,1.55c-1.42,0-2.53-.52-3.33-1.55-.8-1.03-1.2-2.47-1.2-4.3s.37-3.26,1.12-4.28,1.88-1.52,3.41-1.52Zm.05,2.83c-.4,0-.68,.26-.84,.78-.17,.52-.25,1.26-.25,2.21s.08,1.69,.25,2.21c.16,.52,.45,.78,.84,.78,.73,0,1.09-1,1.09-2.99s-.36-2.99-1.09-2.99Z"/></g><g><path d="M346.34,94.41h-13.21v-2.99l4.6-4.65c.94-.97,1.68-1.77,2.24-2.39s.95-1.17,1.18-1.65c.23-.48,.35-.98,.35-1.52,0-.66-.2-1.14-.58-1.44-.39-.3-.88-.46-1.47-.46-.66,0-1.3,.17-1.94,.49s-1.32,.81-2.07,1.43l-2.42-2.83c.54-.48,1.11-.94,1.72-1.36,.61-.42,1.32-.77,2.14-1.04,.82-.27,1.82-.4,2.98-.4,1.25,0,2.32,.22,3.22,.66s1.59,1.04,2.08,1.79c.48,.75,.73,1.62,.73,2.59,0,1.04-.2,1.98-.6,2.83-.4,.85-.99,1.69-1.77,2.52-.78,.83-1.73,1.77-2.86,2.81l-1.92,1.77v.16h7.59v3.69Z"/><path d="M352.42,75.58c1.46,0,2.59,.51,3.41,1.52,.81,1.01,1.22,2.44,1.22,4.28s-.38,3.27-1.14,4.3c-.76,1.03-1.92,1.55-3.48,1.55-1.42,0-2.53-.52-3.33-1.55-.8-1.03-1.2-2.47-1.2-4.3s.37-3.26,1.12-4.28c.75-1.01,1.88-1.52,3.41-1.52Zm.05,2.86c-.4,0-.68,.25-.84,.75-.17,.5-.25,1.24-.25,2.21s.08,1.72,.25,2.24,.45,.78,.84,.78,.68-.26,.85-.78c.16-.52,.25-1.27,.25-2.24s-.08-1.71-.25-2.21c-.17-.5-.45-.75-.85-.75Zm13.57-2.6l-10.3,18.56h-3.38l10.3-18.56h3.38Zm-.1,7.15c1.46,0,2.59,.51,3.41,1.52s1.22,2.44,1.22,4.28-.38,3.27-1.14,4.3-1.92,1.55-3.48,1.55c-1.42,0-2.53-.52-3.33-1.55-.8-1.03-1.2-2.47-1.2-4.3s.37-3.26,1.12-4.28,1.88-1.52,3.41-1.52Zm.05,2.83c-.4,0-.68,.26-.84,.78-.17,.52-.25,1.26-.25,2.21s.08,1.69,.25,2.21c.16,.52,.45,.78,.84,.78,.73,0,1.09-1,1.09-2.99s-.36-2.99-1.09-2.99Z"/></g><g><path d="M559.25,369.61c1.14,0,2.17,.16,3.08,.49,.91,.33,1.63,.83,2.17,1.49,.54,.67,.81,1.5,.81,2.48,0,1.13-.31,2.05-.92,2.77-.62,.72-1.4,1.3-2.35,1.76,.62,.35,1.23,.75,1.81,1.2,.58,.45,1.06,.98,1.44,1.6,.38,.62,.57,1.33,.57,2.14,0,1.53-.58,2.76-1.73,3.71-1.15,.95-2.79,1.42-4.9,1.42s-3.86-.46-4.97-1.38c-1.11-.92-1.66-2.14-1.66-3.67,0-1.28,.33-2.3,1-3.05s1.5-1.37,2.48-1.86c-.8-.52-1.48-1.15-2.05-1.88-.57-.74-.86-1.66-.86-2.77,0-.97,.27-1.79,.82-2.46,.55-.67,1.28-1.17,2.2-1.49,.92-.33,1.94-.49,3.07-.49Zm-2.57,13.78c0,.61,.21,1.1,.64,1.48,.42,.38,1.04,.57,1.86,.57,.88,0,1.54-.18,1.96-.55s.64-.84,.64-1.43c0-.43-.12-.82-.38-1.16-.25-.34-.56-.63-.92-.88-.36-.25-.7-.47-1.01-.66l-.34-.21c-.71,.35-1.3,.75-1.75,1.2-.46,.45-.69,1-.69,1.64Zm2.55-10.58c-.54,0-.99,.15-1.35,.44-.36,.29-.55,.69-.55,1.2,0,.54,.19,.99,.56,1.35,.37,.36,.82,.68,1.34,.94,.49-.23,.93-.51,1.33-.86,.4-.35,.6-.82,.6-1.43,0-.5-.19-.9-.56-1.2-.37-.29-.83-.44-1.37-.44Z"/><path d="M580.85,388.41h-13.21v-2.99l4.6-4.65c.94-.97,1.68-1.77,2.24-2.39s.95-1.17,1.18-1.65c.23-.48,.35-.98,.35-1.52,0-.66-.2-1.14-.58-1.44-.39-.3-.88-.46-1.47-.46-.66,0-1.3,.17-1.94,.49-.63,.33-1.32,.81-2.07,1.43l-2.42-2.83c.54-.48,1.11-.94,1.72-1.36,.61-.42,1.32-.77,2.14-1.04,.82-.27,1.82-.4,2.98-.4,1.25,0,2.32,.22,3.22,.66s1.59,1.04,2.08,1.79c.48,.75,.73,1.62,.73,2.59,0,1.04-.2,1.99-.6,2.83-.4,.85-.99,1.69-1.77,2.52-.78,.83-1.73,1.77-2.86,2.81l-1.92,1.77v.16h7.59v3.69Z"/><path d="M586.94,369.58c1.46,0,2.59,.51,3.41,1.52,.81,1.01,1.22,2.44,1.22,4.28s-.38,3.27-1.14,4.3c-.76,1.03-1.92,1.55-3.48,1.55-1.42,0-2.53-.52-3.33-1.55-.8-1.03-1.2-2.46-1.2-4.3s.37-3.26,1.12-4.28c.75-1.01,1.88-1.52,3.41-1.52Zm.05,2.86c-.4,0-.68,.25-.84,.75-.17,.5-.25,1.24-.25,2.21s.08,1.72,.25,2.24c.17,.52,.45,.78,.84,.78s.68-.26,.85-.78c.16-.52,.25-1.26,.25-2.24s-.08-1.71-.25-2.21c-.17-.5-.45-.75-.85-.75Zm13.57-2.6l-10.3,18.56h-3.38l10.3-18.56h3.38Zm-.1,7.15c1.46,0,2.59,.51,3.41,1.52,.81,1.01,1.22,2.44,1.22,4.28s-.38,3.27-1.14,4.3-1.92,1.55-3.48,1.55c-1.42,0-2.53-.52-3.33-1.55-.8-1.03-1.2-2.46-1.2-4.3s.37-3.26,1.12-4.28c.75-1.01,1.88-1.52,3.41-1.52Zm.05,2.83c-.4,0-.68,.26-.84,.78-.17,.52-.25,1.26-.25,2.21s.08,1.69,.25,2.21c.16,.52,.45,.78,.84,.78,.73,0,1.09-1,1.09-2.99s-.36-2.99-1.09-2.99Z"/></g></g><g id="Labels-JP"><g><path d="M388.1,36.71c.82,0,4.69-.15,5.78-.29,.44-.04,.8-.11,1.03-.19l.97,1.1c-.27,.15-.74,.48-1.01,.7-1.41,1.16-4.12,3.42-5.62,4.62,2.85-.3,6.23-.57,8.93-.57v1.42c-1.84-.1-3.65-.08-4.77,.1-1.82,.25-3.61,1.8-3.61,3.55,0,1.88,1.52,2.53,3.23,2.75,1.1,.15,2.03,.13,2.7,.08l-.3,1.54c-4.6,.19-7.11-1.25-7.11-4.14,0-1.6,1.22-2.96,2.19-3.53-2.01,.17-4.52,.48-6.76,.84l-.13-1.44c1.01-.09,2.28-.27,3.23-.38,2.05-1.41,5.02-4.01,6.21-5.07-.84,.06-4.1,.23-4.92,.3-.47,.04-1.04,.08-1.44,.11l-.08-1.56c.46,.06,.93,.08,1.5,.06Z"/><path d="M408.26,49.88c.59-.04,1.16-.13,1.62-.23,2.41-.53,4.77-2.32,4.77-5.57,0-2.85-1.8-5.19-5-5.45-.25,1.75-.61,3.65-1.12,5.41-1.16,3.86-2.66,5.85-4.41,5.85s-3.36-1.94-3.36-5.03c0-4.08,3.65-7.66,8.25-7.66s7.22,3.12,7.22,6.92-2.6,6.59-7.09,7.18l-.87-1.42Zm-1.23-6.16c.47-1.56,.84-3.34,1.04-5.07-3.61,.46-5.81,3.55-5.81,6.08,0,2.37,1.1,3.42,1.92,3.42s1.88-1.25,2.85-4.43Z"/><path d="M424.05,35.38c-.53,1.37-1.18,2.72-1.92,4.01v12.84h-1.39v-10.68c-.61,.85-1.25,1.63-1.88,2.3-.15-.3-.55-1.03-.8-1.33,1.86-1.82,3.63-4.65,4.69-7.54l1.29,.4Zm9,15.35c1.16,0,1.35-.51,1.52-2.75,.34,.25,.89,.49,1.31,.59-.25,2.6-.68,3.44-2.77,3.44h-4.96c-2.24,0-2.93-.53-2.93-2.6v-6.17l-1.84,.72-.55-1.23,2.39-.93v-5h1.39v4.45l2.77-1.08v-5.21h1.35v4.69l2.96-1.14,.17-.15,.25-.21,.97,.4-.06,.25c0,3.42-.06,6.16-.23,6.95-.15,.87-.55,1.23-1.14,1.39-.51,.13-1.35,.15-1.92,.13-.04-.42-.17-.99-.34-1.33,.51,.04,1.2,.04,1.44,.04,.34,0,.53-.08,.65-.57,.15-.51,.19-2.51,.21-5.47l-2.96,1.16v6.97h-1.35v-6.44l-2.77,1.1v6.69c0,1.08,.25,1.33,1.58,1.33h4.86Z"/></g><g><path d="M249.49,85.29v8.89h-1.44v-1.08h-5.45v6.16h-1.46v-6.16h-5.43v1.18h-1.39v-8.99h6.82v-3.38h1.46v3.38h6.9Zm-8.36,6.42v-5.03h-5.43v5.03h5.43Zm6.92,0v-5.03h-5.45v5.03h5.45Z"/><path d="M268.7,82.78v16.49h-1.46v-.95h-12.71v.95h-1.41v-16.49h15.58Zm-1.46,14.23v-12.92h-12.71v12.92h12.71Zm-1.1-2.94v1.2h-10.35v-1.2h4.37v-3.19h-3.57v-1.22h3.57v-2.7h-4.1v-1.27h9.71v1.27h-4.27v2.7h3.8v1.22h-3.8v3.19h4.65Zm-2.56-2.85c.7,.61,1.54,1.48,1.92,2.07l-.97,.57c-.36-.59-1.18-1.5-1.84-2.15l.89-.49Z"/></g><g><path d="M322.17,48.96c-.13,.19-.38,.48-.51,.68-.76,1.29-2.57,3.74-4.73,5.24l-1.25-1.01c1.75-1.03,3.53-3.08,4.14-4.26h-10.81c-.7,0-1.41,.04-2.17,.11v-1.71c.67,.08,1.46,.15,2.17,.15h10.9c.36,0,1.04-.06,1.33-.11l.93,.89Zm-7.58,2.51c0,5.15-.46,8.62-5.3,11.04l-1.39-1.14c.51-.17,1.16-.47,1.69-.84,2.94-1.8,3.36-4.52,3.36-7.69,0-.46-.02-.87-.08-1.37h1.71Z"/><path d="M336.23,47.98c-.19,.36-.47,.99-.63,1.39-.61,1.67-1.58,3.76-2.85,5.6,1.69,1.41,3.32,2.89,4.67,4.33l-1.2,1.33c-1.41-1.61-2.85-2.96-4.48-4.37-1.77,2.17-4.12,4.43-7.43,6.14l-1.35-1.2c3.33-1.58,5.68-3.67,7.54-5.97-1.41-1.16-3.51-2.72-5.34-3.84l1.01-1.2c1.61,1.03,3.82,2.58,5.32,3.74,1.22-1.77,1.99-3.55,2.56-5.17,.13-.38,.3-.99,.38-1.41l1.79,.61Z"/><path d="M343.09,47.54c-.04,.36-.06,.91-.06,1.37v6.34c0,.48,.02,1.1,.06,1.44h-1.75c.02-.28,.08-.89,.08-1.46v-6.33c0-.34-.04-1.01-.08-1.37h1.75Zm8.8-.13c-.04,.46-.08,1.01-.08,1.63v3.08c0,4.56-.61,6.06-1.98,7.69-1.24,1.48-3.13,2.3-4.52,2.77l-1.24-1.31c1.75-.44,3.38-1.2,4.56-2.53,1.37-1.58,1.6-3.12,1.6-6.71v-3c0-.63-.06-1.18-.09-1.63h1.75Z"/><path d="M369.86,50.81c-.06,.32-.09,.68-.09,.93-.08,1.82-.3,7.35-1.16,9.18-.38,.8-.99,1.14-2.03,1.14-.97,0-2.07-.06-3.06-.11l-.19-1.58c1.03,.13,2.03,.21,2.83,.21,.55,0,.89-.15,1.1-.63,.72-1.44,.97-6.12,.97-8.15h-5.32c-.68,5.45-2.66,8.34-5.83,10.52l-1.37-1.12c.59-.32,1.37-.85,1.94-1.41,1.88-1.71,3.25-4.08,3.76-8h-3.19c-.76,0-1.52,0-2.18,.08v-1.61c.66,.08,1.44,.11,2.17,.11h3.34c.04-.61,.08-1.25,.08-1.94,0-.42-.06-1.12-.13-1.58h1.79c-.06,.44-.09,1.1-.11,1.56-.02,.68-.06,1.33-.09,1.96h4.52c.51,0,.89-.04,1.22-.09l1.06,.53Z"/></g><g><path d="M572.33,342.09c1.92,1.52,4.16,3.74,5.13,5.3l-1.22,.93c-.32-.53-.8-1.16-1.35-1.82-5.17,.29-10.64,.48-14.11,.63l-.1-1.41c.84-.02,1.8-.06,2.85-.09,1.12-1.69,2.41-4.03,3.15-5.78l1.56,.53c-.87,1.69-2.01,3.63-3.08,5.17,2.6-.1,5.59-.23,8.53-.36-.8-.82-1.65-1.62-2.47-2.3l1.1-.8Zm-9.42,7.12h12.03v8h-1.5v-.8h-9.1v.84h-1.42v-8.04Zm1.42,1.33v4.52h9.1v-4.52h-9.1Z"/><path d="M582.44,348.17c-.67-.63-2.07-1.46-3.25-1.99l.8-1.04c1.14,.47,2.56,1.25,3.27,1.88l-.82,1.16Zm-2.74,7.96c.89-1.44,2.15-3.91,3.08-6.06l1.1,.84c-.86,1.99-1.98,4.33-2.95,6.1l-1.23-.87Zm3.67-12.9c-.67-.66-2.05-1.58-3.21-2.13l.8-1.03c1.14,.51,2.56,1.35,3.23,2.03l-.82,1.12Zm3.8,.48c-.61,1.2-1.6,2.37-2.55,3.13-.21-.19-.72-.59-.99-.76,.95-.68,1.82-1.67,2.32-2.7l1.22,.32Zm2.26,.25c0,1.23-.36,2.93-2.41,3.99-.25-.21-.7-.57-1.01-.74,1.88-.93,2.18-2.28,2.18-3.29v-1.06h-3.78v-1.2h5.15v-1.75h1.42v1.75h5.49v1.2h-4.05v3.46c0,.59-.08,.89-.51,1.08-.44,.17-1.06,.17-2.03,.17-.06-.32-.25-.74-.42-1.06,.72,.02,1.27,.02,1.48,.02,.17,0,.21-.08,.21-.23v-3.44h-1.73v1.1Zm6.42,8.85s-.04,.42-.08,.59c-.4,2.05-.8,3-1.31,3.46-.36,.27-.7,.36-1.25,.38-.47,.02-1.44,.04-2.47-.04-.02-.36-.17-.85-.38-1.2,.99,.11,1.98,.11,2.34,.11,.34,0,.53,0,.7-.13,.32-.25,.59-.86,.85-2.03h-8.23c-.08,.23-.13,.46-.21,.67l-1.31-.21c.38-1.06,.84-2.68,1.1-3.95h8.15v-1.41h-9.06v-1.1h10.37v3.59h-8.34c-.11,.42-.23,.85-.36,1.27h9.48Zm-1.75-9.37c.95,.84,2,2,2.47,2.81l-1.08,.66c-.44-.84-1.48-2.03-2.39-2.89l1.01-.59Z"/></g></g></svg>