<svg xmlns="http://www.w3.org/2000/svg" viewBox="0 0 800 480"><defs><style>.a{fill:#e6e6e6;}.b{fill:#29abe2;}.c{fill:#98d5f4;}.d{fill:#0071bc;}.e{fill:none;stroke:gray;stroke-miterlimit:10;}.f{fill:#333;}.g{fill:#999;}</style></defs><rect class="a" x="339.01" y="307.66" width="321.32" height="57.91"/><rect class="b" x="339.01" y="243.31" width="139.99" height="57.91"/><rect class="c" x="339.01" y="178.96" width="139.99" height="57.91"/><rect class="d" x="339.01" y="114.62" width="189.49" height="57.91"/><line class="e" x1="339.01" y1="400.96" x2="339.01" y2="79.22"/><path d="M690.83,146.41H677.62v-3l4.6-4.65c.94-1,1.68-1.77,2.24-2.4a7.61,7.61,0,0,0,1.18-1.65,3.43,3.43,0,0,0,.35-1.52,1.73,1.73,0,0,0-.58-1.44,2.37,2.37,0,0,0-1.47-.46,4.15,4.15,0,0,0-1.94.5,11.77,11.77,0,0,0-2.07,1.43l-2.42-2.84a17.73,17.73,0,0,1,1.72-1.36,8,8,0,0,1,2.15-1,9.55,9.55,0,0,1,3-.41,7.33,7.33,0,0,1,3.23.67,5.09,5.09,0,0,1,2.08,1.79,4.74,4.74,0,0,1,.72,2.59,6.7,6.7,0,0,1-.59,2.83A10.06,10.06,0,0,1,688,138c-.78.83-1.74,1.76-2.86,2.8l-1.93,1.77v.16h7.6Z"/><path d="M705.18,132a4.33,4.33,0,0,1-.55,2.24,4.63,4.63,0,0,1-1.47,1.55,6.69,6.69,0,0,1-2,.89v.08a6.17,6.17,0,0,1,3.41,1.37,3.82,3.82,0,0,1,1.19,3,5.27,5.27,0,0,1-.8,2.84,5.56,5.56,0,0,1-2.49,2,10.63,10.63,0,0,1-4.32.75,15.37,15.37,0,0,1-3-.26,14.19,14.19,0,0,1-2.48-.75v-3.72a10.73,10.73,0,0,0,2.5.92,10.62,10.62,0,0,0,2.39.3,4.35,4.35,0,0,0,2.74-.64,2.16,2.16,0,0,0,.77-1.75,2,2,0,0,0-.36-1.2,2.35,2.35,0,0,0-1.29-.75,9.77,9.77,0,0,0-2.59-.26h-1.27V135.2h1.3a8.15,8.15,0,0,0,2.44-.28,2.28,2.28,0,0,0,1.21-.8,2,2,0,0,0,.35-1.15c0-1.22-.8-1.82-2.39-1.82a5.22,5.22,0,0,0-2.28.47,16.89,16.89,0,0,0-1.54.8l-1.95-3a10.72,10.72,0,0,1,2.6-1.31,10.89,10.89,0,0,1,3.69-.54,7.87,7.87,0,0,1,4.52,1.15A3.69,3.69,0,0,1,705.18,132Z"/><path d="M711.94,127.58a4.1,4.1,0,0,1,3.4,1.53,6.62,6.62,0,0,1,1.22,4.27,7.15,7.15,0,0,1-1.14,4.31,4,4,0,0,1-3.48,1.54,4,4,0,0,1-3.33-1.54,6.88,6.88,0,0,1-1.2-4.31,7.13,7.13,0,0,1,1.12-4.27A4,4,0,0,1,711.94,127.58Zm0,2.87c-.4,0-.68.25-.85.75a7.71,7.71,0,0,0-.24,2.21,8.09,8.09,0,0,0,.24,2.24c.17.52.45.78.85.78s.68-.26.84-.78a7.67,7.67,0,0,0,.25-2.24,7.31,7.31,0,0,0-.25-2.21Q712.59,130.45,712,130.45Zm13.57-2.6-10.3,18.56h-3.38l10.3-18.56Zm-.1,7.15a4.1,4.1,0,0,1,3.4,1.52,6.62,6.62,0,0,1,1.22,4.27,7.17,7.17,0,0,1-1.14,4.31,4,4,0,0,1-3.48,1.54,4,4,0,0,1-3.33-1.54,6.9,6.9,0,0,1-1.2-4.31,7.13,7.13,0,0,1,1.12-4.27A3.94,3.94,0,0,1,725.46,135Zm0,2.83c-.4,0-.68.26-.85.78a10.3,10.3,0,0,0,0,4.42c.17.52.45.78.85.78.73,0,1.09-1,1.09-3S726.24,137.83,725.51,137.83Z"/><path d="M688,213.74h-4.47v-10c0-.22,0-.56,0-1s0-.93,0-1.43,0-1,0-1.35a7,7,0,0,1-.57.61c-.24.23-.47.44-.67.61l-2.14,1.74L678,200.14l6.17-5H688Z"/><path d="M694.52,213.74l6.68-14.87h-8.63v-3.69h13.34v2.7l-6.79,15.86Z"/><path d="M711.94,194.92a4.13,4.13,0,0,1,3.4,1.52,6.63,6.63,0,0,1,1.22,4.28,7.13,7.13,0,0,1-1.14,4.3,4,4,0,0,1-3.48,1.55,4,4,0,0,1-3.33-1.55,6.87,6.87,0,0,1-1.2-4.3,7.15,7.15,0,0,1,1.12-4.28A4,4,0,0,1,711.94,194.92Zm0,2.86c-.4,0-.68.25-.85.75a7.76,7.76,0,0,0-.24,2.21,8,8,0,0,0,.24,2.24c.17.52.45.78.85.78s.68-.26.84-.78a7.62,7.62,0,0,0,.25-2.24,7.35,7.35,0,0,0-.25-2.21Q712.59,197.78,712,197.78Zm13.57-2.6-10.3,18.56h-3.38l10.3-18.56Zm-.1,7.15a4.1,4.1,0,0,1,3.4,1.52,6.63,6.63,0,0,1,1.22,4.28,7.13,7.13,0,0,1-1.14,4.3,4,4,0,0,1-3.48,1.55,4,4,0,0,1-3.33-1.55,6.87,6.87,0,0,1-1.2-4.3,7.15,7.15,0,0,1,1.12-4.28A3.94,3.94,0,0,1,725.46,202.33Zm0,2.83c-.4,0-.68.26-.85.78a10.3,10.3,0,0,0,0,4.42c.17.52.45.78.85.78.73,0,1.09-1,1.09-3S726.24,205.16,725.51,205.16Z"/><path d="M688,281.08h-4.47v-10c0-.23,0-.57,0-1s0-.93,0-1.43,0-.95,0-1.35a5.84,5.84,0,0,1-.57.61c-.24.24-.47.44-.67.61l-2.14,1.74L678,267.48l6.17-5H688Z"/><path d="M694.52,281.08l6.68-14.88h-8.63v-3.69h13.34v2.71l-6.79,15.86Z"/><path d="M711.94,262.25a4.13,4.13,0,0,1,3.4,1.52,6.65,6.65,0,0,1,1.22,4.28,7.11,7.11,0,0,1-1.14,4.3,4,4,0,0,1-3.48,1.55,4,4,0,0,1-3.33-1.55,6.85,6.85,0,0,1-1.2-4.3,7.17,7.17,0,0,1,1.12-4.28A4,4,0,0,1,711.94,262.25Zm0,2.86c-.4,0-.68.25-.85.76a7.71,7.71,0,0,0-.24,2.21,8,8,0,0,0,.24,2.23c.17.52.45.78.85.78s.68-.26.84-.78a7.55,7.55,0,0,0,.25-2.23,7.31,7.31,0,0,0-.25-2.21C712.67,265.36,712.39,265.11,712,265.11Zm13.57-2.6-10.3,18.57h-3.38l10.3-18.57Zm-.1,7.15a4.13,4.13,0,0,1,3.4,1.52,6.65,6.65,0,0,1,1.22,4.28,7.11,7.11,0,0,1-1.14,4.3,4,4,0,0,1-3.48,1.55,4,4,0,0,1-3.33-1.55,6.85,6.85,0,0,1-1.2-4.3,7.17,7.17,0,0,1,1.12-4.28A4,4,0,0,1,725.46,269.66Zm0,2.84c-.4,0-.68.26-.85.78a10.3,10.3,0,0,0,0,4.42c.17.52.45.78.85.78.73,0,1.09-1,1.09-3S726.24,272.5,725.51,272.5Z"/><path d="M690.15,334a4.33,4.33,0,0,1-.55,2.24,4.63,4.63,0,0,1-1.47,1.55,6.69,6.69,0,0,1-2,.89v.08a6.13,6.13,0,0,1,3.41,1.37,3.78,3.78,0,0,1,1.2,3,5.19,5.19,0,0,1-.81,2.84,5.53,5.53,0,0,1-2.48,2,10.68,10.68,0,0,1-4.33.75,15.26,15.26,0,0,1-3-.26,14,14,0,0,1-2.49-.75v-3.72a11.16,11.16,0,0,0,4.89,1.22,4.4,4.4,0,0,0,2.75-.64,2.15,2.15,0,0,0,.76-1.75,2,2,0,0,0-.36-1.2,2.28,2.28,0,0,0-1.29-.75,9.72,9.72,0,0,0-2.59-.26h-1.27V337.2h1.3a8.1,8.1,0,0,0,2.44-.28,2.24,2.24,0,0,0,1.21-.8,1.91,1.91,0,0,0,.35-1.15c0-1.22-.79-1.82-2.39-1.82a5.15,5.15,0,0,0-2.27.47,16,16,0,0,0-1.55.8l-2-3a10.38,10.38,0,0,1,6.29-1.85,7.91,7.91,0,0,1,4.53,1.15A3.7,3.7,0,0,1,690.15,334Z"/><path d="M705.85,337.88a18.64,18.64,0,0,1-.45,4.17,9.51,9.51,0,0,1-1.54,3.45,7.24,7.24,0,0,1-2.91,2.32,10.84,10.84,0,0,1-4.59.85c-.36,0-.79,0-1.28,0s-.91-.07-1.24-.12V345a11,11,0,0,0,2.29.23,7.26,7.26,0,0,0,3.42-.66,3.7,3.7,0,0,0,1.7-1.86,8.25,8.25,0,0,0,.57-2.76h-.15a5,5,0,0,1-1.38,1.54,4.36,4.36,0,0,1-2.55.62,4.82,4.82,0,0,1-3.77-1.56,6.4,6.4,0,0,1-1.4-4.42,6.48,6.48,0,0,1,1.71-4.77,6.37,6.37,0,0,1,4.71-1.73,6.93,6.93,0,0,1,3.48.89,6.06,6.06,0,0,1,2.47,2.71A10.44,10.44,0,0,1,705.85,337.88Zm-6.76-4.73a2.06,2.06,0,0,0-1.63.7,3.24,3.24,0,0,0-.63,2.21,3,3,0,0,0,.55,1.92,2,2,0,0,0,1.66.71,2.23,2.23,0,0,0,1.74-.75,2.29,2.29,0,0,0,.68-1.57,4.62,4.62,0,0,0-.26-1.52,2.92,2.92,0,0,0-.78-1.22A1.89,1.89,0,0,0,699.09,333.15Z"/><path d="M711.94,329.58a4.1,4.1,0,0,1,3.4,1.53,6.62,6.62,0,0,1,1.22,4.27,7.15,7.15,0,0,1-1.14,4.31,4,4,0,0,1-3.48,1.54,4,4,0,0,1-3.33-1.54,6.88,6.88,0,0,1-1.2-4.31,7.13,7.13,0,0,1,1.12-4.27A4,4,0,0,1,711.94,329.58Zm0,2.87c-.4,0-.68.25-.85.75a7.71,7.71,0,0,0-.24,2.21,8,8,0,0,0,.24,2.23c.17.53.45.79.85.79s.68-.26.84-.79a7.55,7.55,0,0,0,.25-2.23,7.31,7.31,0,0,0-.25-2.21Q712.59,332.45,712,332.45Zm13.57-2.6-10.3,18.56h-3.38l10.3-18.56Zm-.1,7.15a4.1,4.1,0,0,1,3.4,1.52,6.62,6.62,0,0,1,1.22,4.27,7.17,7.17,0,0,1-1.14,4.31,4,4,0,0,1-3.48,1.54,4,4,0,0,1-3.33-1.54,6.9,6.9,0,0,1-1.2-4.31,7.13,7.13,0,0,1,1.12-4.27A3.94,3.94,0,0,1,725.46,337Zm0,2.83c-.4,0-.68.26-.85.78a10.3,10.3,0,0,0,0,4.42c.17.52.45.78.85.78.73,0,1.09-1,1.09-3S726.24,339.83,725.51,339.83Z"/><path class="f" d="M251.6,151.39h7v2H242.46v-2h6.79v-2.26H244v-2h5.27V145H245v-1.5a24,24,0,0,1-2.11,1.31,8.22,8.22,0,0,0-1.42-1.83,20.68,20.68,0,0,0,7.71-6.87h2.34a20.19,20.19,0,0,0,8.13,6.65,10.55,10.55,0,0,0-1.5,2,23,23,0,0,1-2.05-1.28V145H251.6v2.18h5.32v2H251.6Zm3.71-8.42a22.62,22.62,0,0,1-4.9-4.71,22.09,22.09,0,0,1-4.75,4.71Z"/><path class="f" d="M266.56,140.94a26.49,26.49,0,0,1-1.45,2.3v10.67H263v-8.13a16,16,0,0,1-1.48,1.41,14.37,14.37,0,0,0-1.18-2.11,16.26,16.26,0,0,0,4.24-4.88Zm-.33-4a23.24,23.24,0,0,1-4.54,4.64,15.08,15.08,0,0,0-1.18-1.66,15.82,15.82,0,0,0,3.73-3.76Zm7.49,14.44a12,12,0,0,0,1.61.11c.51,0,2.49,0,3.16,0a7.42,7.42,0,0,0-.67,2.11h-2.66c-2.6,0-4.73-.63-6.23-2.92A8.93,8.93,0,0,1,267,154a10.52,10.52,0,0,0-1.73-1.54c1.75-1.65,2.3-4.46,2.45-7.77l2.26.16a27,27,0,0,1-.36,3.15,5.48,5.48,0,0,0,1.9,2.56v-7.9h-4.46v-2.15h2.6a25.63,25.63,0,0,0-1.78-3.38l1.86-.81a20.43,20.43,0,0,1,2,3.61l-1.21.58h4.54l-1.47-.55a21.16,21.16,0,0,0,1.77-3.78l2.2.76c-.62,1.28-1.31,2.61-1.9,3.57H278v2.15h-4.23v2.95h3.72v2.07h-3.72Z"/><path class="f" d="M291.44,149.54a17.13,17.13,0,0,0,6,2.08,10.09,10.09,0,0,0-1.52,2,16.27,16.27,0,0,1-6.39-3.21v3.42h-2.22v-3.31a18,18,0,0,1-6.36,3.08,10.48,10.48,0,0,0-1.45-1.88,20.07,20.07,0,0,0,6-2.23h-5.46v-1.86h7.26v-.83h-5.47v-1.64h5.47v-.85h-6.42v-1.77h3.61a8.42,8.42,0,0,0-.65-1.48l.23,0h-4v-1.84h2.55a17.91,17.91,0,0,0-1.18-2.36l1.94-.66a14.78,14.78,0,0,1,1.44,2.68l-.93.34h1.73v-3.1h2.11v3.1h1.4v-3.1h2.13v3.1H293l-.68-.21a15.44,15.44,0,0,0,1.19-2.75l2.38.57c-.53.87-1.05,1.72-1.48,2.39h2.47v1.84h-3.57c-.31.55-.61,1.07-.9,1.52h3.73v1.77h-6.6v.85h5.7v1.64h-5.7v.83H297v1.86Zm-5.16-8.47a9.8,9.8,0,0,1,.64,1.47l-.32.05h3.55c.23-.45.46-1,.67-1.52Z"/><path class="f" d="M311.43,150.59c1.77.53,3.71,1.22,5,1.73l-2,1.59a50.92,50.92,0,0,0-6.1-2.2l1.58-1.12h-5.15l1.45,1a25.68,25.68,0,0,1-5.89,2.28,20.35,20.35,0,0,0-1.71-1.62,22.93,22.93,0,0,0,4.86-1.67h-2.94v-8.42h13.88v8.42Zm2.34-9.12H301.4v-4.75h12.37Zm-11,3.06h9.31v-.82h-9.31Zm0,2.24h9.31V146h-9.31Zm0,2.28h9.31v-.83h-9.31Zm8.57-10.56h-7.68v1.23h7.68Z"/><path class="f" d="M240.22,203.23h-3.14a9.1,9.1,0,0,1,.8,1.27l-2.09.59a11.28,11.28,0,0,0-1.14-1.86h-1.1a9.92,9.92,0,0,1-1,1.16v1h7.27v3.77h-2.2V207.1h-12.1v2.08h-2.13v-3.77h7v-1.33h.84c-.35-.19-.71-.36-1-.47.15-.11.32-.25.47-.38h-2.22a10.45,10.45,0,0,1,.63,1.25l-2,.57a10.91,10.91,0,0,0-.85-1.82h-.32a14.75,14.75,0,0,1-1.52,1.82,11.32,11.32,0,0,0-1.85-1.21,10.26,10.26,0,0,0,2.8-3.86l2.1.57c-.13.3-.28.61-.43.91h4.21v1.28A8.8,8.8,0,0,0,233,200l2.15.51c-.14.33-.29.65-.46,1h5.51ZM228.46,213h9.76v4.91H236v-.52h-7.52v.52h-2.17v-10h10.49v4.24h-8.32Zm0-3.47v1h6.08v-1Zm0,5.13v1.06H236v-1.06Z"/><path class="f" d="M248.18,214.08c-2.09.74-4.37,1.46-6.19,2l-.51-2.3c.66-.17,1.44-.38,2.31-.63v-4.46h-1.91v-2.07h1.91v-3.35H241.7v-2.1H248v2.1h-2v3.35h1.71v2.07h-1.71v3.8c.63-.19,1.25-.38,1.86-.59Zm11.29,1.16v2H247.25v-2h5.25v-1.81h-3.94v-2h3.94v-1.64h-3.8v-8.83h9.91v8.83h-3.82v1.64h4v2h-4v1.81Zm-8.74-10.81h2v-1.58h-2Zm0,3.42h2v-1.64h-2Zm5.73-5h-1.88v1.58h1.88Zm0,3.36h-1.88v1.64h1.88Z"/><path class="f" d="M278.18,208.91a18.32,18.32,0,0,1-2.11,4.88c.17.91.38,1.43.61,1.45s.38-.88.46-2.38a6.24,6.24,0,0,0,1.46,1.25c-.48,3.08-1.37,3.75-2,3.75-.86,0-1.49-.78-1.94-2.17a12.75,12.75,0,0,1-2.49,2.22,10.19,10.19,0,0,0-1.29-1.48,11.68,11.68,0,0,0,1.35-1h-2.85v1.1h-1.73v-7.94h5.22v6.25a9.87,9.87,0,0,0,1.26-1.46,50.66,50.66,0,0,1-.52-5.62h-6.66v-1.75h1.19a10.14,10.14,0,0,0-.42-2.26l1.11-.27h-1.5v-.7h-.73v15h-1.88v-3.25l-3.83.8-.38-2.08a10.57,10.57,0,0,0,1.12-.17V202.83h-.74v-2h6.51v1h1.86v-1.71h1.92v1.71h1.94v1.65h-1.63l1.29.25c-.29.82-.55,1.67-.76,2.28h1.52c-.06-1.82-.1-3.8-.12-5.91h2v1.43l1.21-.65a13,13,0,0,1,1.87,3l-1.58.88a13,13,0,0,0-1.5-2.78c0,1.41,0,2.74.06,4h2.92v1.75h-2.85c0,1,.1,1.94.17,2.79a17.05,17.05,0,0,0,.69-2.09Zm-13.47-6.08h-1.25v2h1.25Zm0,3.88h-1.25v2h1.25Zm0,5.94v-2.07h-1.25v2.3Zm4.47-9.12a8.77,8.77,0,0,1,.49,2.32l-.85.21h2.73l-1-.23a18.75,18.75,0,0,0,.5-2.3Zm.19,6.67v1.14h1.75V210.2Zm1.75,3.74V212.8h-1.75v1.14Z"/><path class="f" d="M287.76,212.52c-2.51,1.12-5.32,2.32-7.47,3.21l-.76-2.41c.72-.25,1.58-.55,2.53-.93l-.38-11.1,2.36-.09.34,10.27,2.87-1.17Zm7.86,5.34a32.64,32.64,0,0,0-3.55-4.58,13.73,13.73,0,0,1-5.77,4.62,13.75,13.75,0,0,0-1.81-2c6-2.28,8-6.88,8.68-14.68l2.49.22a29.2,29.2,0,0,1-2.32,9.65,41.31,41.31,0,0,1,4.22,4.89Zm-7.12-9.75a19.28,19.28,0,0,0-2.83-4.71l2.05-1a19.28,19.28,0,0,1,3,4.56Z"/><path class="f" d="M316.12,214.67V217H298.86v-2.28h6.8V200.36h2.43v5.43h6.7v2.3h-6.7v6.58Z"/><path class="f" d="M193.73,280.22l-2.89-5.32h-2v5.32h-2.81V266.17H191c2.95,0,5.28,1,5.28,4.25a4,4,0,0,1-2.67,4.05l3.28,5.75Zm-4.85-7.54h1.83c1.8,0,2.79-.76,2.79-2.26s-1-2-2.79-2h-1.83Z"/><path class="f" d="M210.67,280.45a17.71,17.71,0,0,1-2.56-1.69,5.89,5.89,0,0,1-4.33,1.69c-3.17,0-4.86-1.61-4.86-3.91,0-1.86,1.33-3,2.79-3.9a5.65,5.65,0,0,1-1.18-3.17,3.45,3.45,0,0,1,3.65-3.59c2.14,0,3.51,1.18,3.51,3.14s-1.35,2.94-2.79,3.87a32.83,32.83,0,0,0,3,2.55,8,8,0,0,0,1-3.06h2.47a13.14,13.14,0,0,1-1.75,4.44,26.11,26.11,0,0,0,2.28,1.47ZM204,278.32a3.57,3.57,0,0,0,2.31-1,39.5,39.5,0,0,1-3.4-3.14,3,3,0,0,0-1.54,2.3C201.4,277.7,202.51,278.32,204,278.32Zm-.36-6.84c1.06-.66,1.89-1.36,1.89-2.37a1.25,1.25,0,0,0-1.31-1.39c-.91,0-1.48.59-1.48,1.66A3.66,3.66,0,0,0,203.67,271.48Z"/><path class="f" d="M214.61,266.17h3.86c4.29,0,6.95,2.22,6.95,7s-2.66,7.08-6.8,7.08h-4ZM218.29,278c2.63,0,4.26-1.4,4.26-4.82s-1.63-4.73-4.26-4.73h-.87V278Z"/><path class="f" d="M241.89,277.24a10.73,10.73,0,0,0,1.77-.15v2.75a16,16,0,0,0-1.77-.09H229.37a17.25,17.25,0,0,0-1.86.09v-2.75a10.61,10.61,0,0,0,1.86.15h4.83v-7.75h-3.67c-.51,0-1.33,0-1.8.08V267a13.16,13.16,0,0,0,1.8.12h10.34a17.34,17.34,0,0,0,1.78-.12v2.61c-.57,0-1.23-.08-1.78-.08h-4v7.75Z"/><path class="f" d="M253.33,276a18.08,18.08,0,0,0,6.92-7.39l1.48,2.68a20.35,20.35,0,0,1-7,7,20.64,20.64,0,0,1-7,2.68l-1.6-2.51A19.61,19.61,0,0,0,253.33,276Zm0-6.16-1.94,2a39,39,0,0,0-4.75-4.1l1.79-1.9A39.39,39.39,0,0,1,253.33,269.79Z"/><path class="f" d="M269,272.28l-1.38,2.13c-1.09-.76-3.06-2-4.33-2.72l1.36-2.09C266,270.29,268.08,271.6,269,272.28Zm1.52,4.33a19.16,19.16,0,0,0,7.39-7.12l1.47,2.58a22.89,22.89,0,0,1-7.55,6.84,23.43,23.43,0,0,1-6.34,2.34l-1.43-2.49A20.33,20.33,0,0,0,270.56,276.61ZM272,268l-1.41,2.09c-1.06-.74-3-2-4.29-2.72l1.37-2.09C268.87,266,271,267.31,272,268Zm5.66.59-1.65.7a17.25,17.25,0,0,0-1.67-3l1.57-.67A29,29,0,0,1,277.61,268.58Zm2.66-1-1.61.72a18.88,18.88,0,0,0-1.79-2.88l1.62-.67A25.32,25.32,0,0,1,280.27,267.55Z"/><path class="f" d="M282.27,276.61c.74.06,1.63.14,2.37.14h10.91a18.49,18.49,0,0,0,2.09-.14v2.91a19.55,19.55,0,0,0-2.09-.11H284.64c-.74,0-1.67,0-2.37.11Zm1.59-9.29a21.4,21.4,0,0,0,2.23.12H294a20.29,20.29,0,0,0,2.11-.12v2.76c-.55,0-1.44-.08-2.11-.08h-7.84c-.73,0-1.6,0-2.25.08Z"/><path class="f" d="M316.75,267.36a10.19,10.19,0,0,0-.74,1,19.13,19.13,0,0,1-4.58,5.21L309.48,272a11.22,11.22,0,0,0,3.49-3.53h-9.9c-.79,0-1.42.05-2.31.13v-2.64a15.54,15.54,0,0,0,2.31.19h10.24a9.78,9.78,0,0,0,1.92-.17ZM309,269.93c0,4.71-.09,8.58-5.28,11.36l-2.2-1.81a7.65,7.65,0,0,0,2-1c2.41-1.67,2.87-3.69,2.87-6.8a11.13,11.13,0,0,0-.13-1.71Z"/><path class="f" d="M178.89,331.08v4H176.7V333H164.83v2.12h-2.05v-4h2.3a17.37,17.37,0,0,0-1.26-1.86l2-.84a12,12,0,0,1,1.69,2.43l-.61.27h2.93a15.21,15.21,0,0,0-1.24-2.34l2-.66a12.54,12.54,0,0,1,1.44,2.5l-1.33.5h3.12a14.78,14.78,0,0,0,1.69-2.87l2.43.76c-.55.72-1.12,1.48-1.65,2.11Zm-7.16,7.5c-.16.42-.33.8-.5,1.16h6.29v6.17h-2.24v-.62h-8.91v.62h-2.15v-6.17H169c.09-.38.21-.78.28-1.16h-3.45v-4.65h9.91v4.65Zm3.55,3.1h-8.91v1.65h8.91Zm-7.37-4.75h5.64V335.6h-5.64Z"/><path class="f" d="M192.68,341.54a17.15,17.15,0,0,0,6,2.08,10.89,10.89,0,0,0-1.52,2.05,16.3,16.3,0,0,1-6.38-3.21v3.42h-2.22v-3.31a18,18,0,0,1-6.37,3.08,10,10,0,0,0-1.44-1.88,19.91,19.91,0,0,0,6-2.23h-5.45v-1.86h7.26v-.83h-5.47v-1.64h5.47v-.85h-6.42v-1.77h3.61a8.42,8.42,0,0,0-.65-1.48l.23,0h-4v-1.84h2.54a17.81,17.81,0,0,0-1.17-2.36l1.93-.66a14.27,14.27,0,0,1,1.45,2.68l-.93.34h1.73v-3.1H189v3.1h1.41v-3.1h2.13v3.1h1.69l-.68-.21a15.44,15.44,0,0,0,1.19-2.75l2.38.57c-.54.87-1.05,1.72-1.49,2.39h2.47v1.84h-3.57c-.3.55-.6,1.07-.89,1.52h3.72v1.77H190.8v.85h5.7v1.64h-5.7v.83h7.39v1.86Zm-5.17-8.47a9,9,0,0,1,.65,1.47l-.32,0h3.55c.23-.45.46-1,.66-1.52Z"/><path class="f" d="M204,345.53a36.08,36.08,0,0,0-4.09-4.19l2-1.71a35.28,35.28,0,0,1,4.14,4.16Z"/><path class="f" d="M211.82,339.51a17.33,17.33,0,0,1-1.14,4.9,12.41,12.41,0,0,0-1.64-.79,14.38,14.38,0,0,0,1-4.41Zm2.24-1.57v7.92h-2v-7.72l-2.56.27-.31-2,1.35-.07c.29-.36.57-.76.86-1.18a17.71,17.71,0,0,0-2.17-2.68l1.1-1.5.44.4a25.82,25.82,0,0,0,1.39-3.29l1.93.72c-.66,1.3-1.46,2.76-2.12,3.84.2.25.41.52.58.76a28,28,0,0,0,1.71-3.06l1.83.86c-1,1.59-2.34,3.46-3.54,5l1.7-.12c-.21-.44-.42-.83-.63-1.21l1.59-.67a17,17,0,0,1,1.79,4l-1.69.78c-.08-.36-.19-.76-.34-1.22Zm1.67,1.25a28.61,28.61,0,0,1,1,3,13.48,13.48,0,0,0,.41-1.9l1.81.3a12.11,12.11,0,0,1-1.39,4.51l-1.76-.78a6.32,6.32,0,0,0,.74-1.54l-1.41.47a23.21,23.21,0,0,0-1-3.57ZM220.92,329a13,13,0,0,1-3.2,4.88,16.18,16.18,0,0,0-1.74-1.37,9,9,0,0,0,2.81-4Zm3.87,9.33a9.16,9.16,0,0,0-.63-1.35c-2.47.21-5,.4-6.91.53l-.38-2c.59,0,1.27,0,2-.08a29,29,0,0,0,1.22-3.89l2.26.53c-.46,1.08-1,2.26-1.43,3.29l2.19-.1c-.27-.42-.55-.82-.82-1.18l1.71-.83a19.13,19.13,0,0,1,2.62,4.14Zm.31,1.63a13.6,13.6,0,0,1,2.22,4.35l-1.88.93a9.76,9.76,0,0,0-.74-2.11c-.21,2.21-.76,2.78-2,2.78h-1.5c-1.73,0-2.07-.61-2.07-2.45v-3.54h2v3.52c0,.51.06.57.38.57h.88c.34,0,.41-.23.45-1.83a4.93,4.93,0,0,0,1.75.78,15.9,15.9,0,0,0-1.23-2.14Zm-4.47-2.7a10.33,10.33,0,0,1,3.23,2.32l-1.48,1.39a10,10,0,0,0-3.17-2.51Zm3.42-8.81a13.22,13.22,0,0,0,3.27,3.55,8.89,8.89,0,0,0-1.56,1.63,19.18,19.18,0,0,1-3.55-4.4Z"/><path class="f" d="M244.7,331.91a9.2,9.2,0,0,1-1.9,2.78,15.27,15.27,0,0,0,3.5,1.12,8.57,8.57,0,0,0-1.43,1.92,13.48,13.48,0,0,1-3.87-1.64,15,15,0,0,1-3.88,1.6,6,6,0,0,0-.53-.8,21.38,21.38,0,0,1-.93,3.17l-1.52-.7a24,24,0,0,0,.61-2.62h-1v6.69c0,1-.15,1.63-.82,2a5.58,5.58,0,0,1-2.67.4,7.48,7.48,0,0,0-.65-2.15c.7,0,1.46,0,1.71,0s.3-.05.3-.28v-4.07a11.48,11.48,0,0,1-2.37,3.52,12.09,12.09,0,0,0-1-2.19,11.78,11.78,0,0,0,2.7-3.91h-2.37v-2h4.35a29.25,29.25,0,0,0-3.67-1.84l1.43-1.44c.45.17,1,.38,1.5.6a12.15,12.15,0,0,0,1.19-1.19h-4.56V329h6.14l.34-.08,1.45.91a14,14,0,0,1-2.78,3.14,10.83,10.83,0,0,1,1.39.83l-.93,1h.91l.3-.09,1.37.45-.07.44a11.66,11.66,0,0,0,2.31-.87,11.37,11.37,0,0,1-1.35-1.58c-.28.3-.57.57-.85.82a18.13,18.13,0,0,0-1.84-1.28,11.27,11.27,0,0,0,3.62-4.52l2.11.57a11.24,11.24,0,0,1-.7,1.33h5.6v1.88Zm.9,6.8s0,.59-.08.86c-.3,3.29-.65,4.75-1.2,5.36a2.05,2.05,0,0,1-1.38.66,13.86,13.86,0,0,1-2.13,0,4.94,4.94,0,0,0-.61-2.09,14.62,14.62,0,0,0,1.63.09.77.77,0,0,0,.61-.2c.27-.25.52-1.07.72-2.84H241a7.58,7.58,0,0,1-5,5.29,6.08,6.08,0,0,0-1.31-1.75,6.06,6.06,0,0,0,4-3.54h-2.29v-1.88h2.77c.09-.55.15-1.1.19-1.69h2.26c-.06.57-.11,1.14-.19,1.69Zm-6.23-6.8a7.27,7.27,0,0,0,1.57,1.62,5.85,5.85,0,0,0,1.26-1.62Z"/><path class="f" d="M260.09,344.45a17.71,17.71,0,0,1-2.56-1.69,5.89,5.89,0,0,1-4.33,1.69c-3.17,0-4.87-1.61-4.87-3.91,0-1.86,1.33-3,2.8-3.9a5.65,5.65,0,0,1-1.18-3.17,3.45,3.45,0,0,1,3.65-3.59c2.14,0,3.51,1.18,3.51,3.14s-1.35,2.94-2.79,3.87a32.83,32.83,0,0,0,3,2.55,8.2,8.2,0,0,0,1.05-3.06h2.47a13.14,13.14,0,0,1-1.75,4.44,26.11,26.11,0,0,0,2.28,1.47Zm-6.65-2.13a3.57,3.57,0,0,0,2.32-1,39.5,39.5,0,0,1-3.4-3.14,3,3,0,0,0-1.54,2.3C250.82,341.7,251.92,342.32,253.44,342.32Zm-.36-6.83c1.07-.67,1.9-1.37,1.9-2.38a1.25,1.25,0,0,0-1.31-1.39c-.91,0-1.48.59-1.48,1.66A3.76,3.76,0,0,0,253.08,335.49Z"/><path class="f" d="M268.08,329.8c.79,0,4.33-.17,5.47-.3a7.44,7.44,0,0,0,1.31-.23l1.48,1.73c-.38.27-1.08.72-1.46,1.05-1.35,1.06-3.21,2.62-4.49,3.62,2.53-.26,5.63-.45,7.92-.45v2.22a28.92,28.92,0,0,0-4.82,0c-1.73.25-3.17,1.46-3.17,3s1.16,2,2.85,2.26a15.57,15.57,0,0,0,2.87,0l-.5,2.47c-4.82.21-7.64-1.24-7.64-4.37a4.39,4.39,0,0,1,1.37-3c-1.71.13-3.82.41-5.7.74l-.23-2.28c1-.1,2.32-.27,3.29-.38a52.53,52.53,0,0,0,5.3-4.28c-.76.06-3.08.17-3.84.25l-1.69.17-.11-2.41A17.17,17.17,0,0,0,268.08,329.8Z"/><path class="f" d="M288.18,342.78c.72-.1,1.25-.19,1.74-.3a5.09,5.09,0,0,0,4.28-5,4.67,4.67,0,0,0-3.93-5,41.52,41.52,0,0,1-1.12,5.11c-1.12,3.8-2.76,6.12-4.81,6.12s-3.84-2.3-3.84-5.47c0-4.33,3.78-8.05,8.67-8.05a7.17,7.17,0,0,1,7.59,7.35c0,4-2.43,6.76-7.18,7.48Zm-1.47-5.7a30.11,30.11,0,0,0,1-4.56A5.91,5.91,0,0,0,283,338c0,1.9.76,2.83,1.47,2.83S286,339.63,286.71,337.08Z"/><path class="f" d="M304.71,328.87a33.74,33.74,0,0,1-1.77,3.82v13.15H300.7v-9.67a14.87,14.87,0,0,1-1.2,1.42,16.33,16.33,0,0,0-1.21-2.28,19.9,19.9,0,0,0,4.33-7.12Zm8.22,14.69c1.12,0,1.31-.46,1.49-2.6a7.77,7.77,0,0,0,2.05.87c-.31,2.81-1,3.76-3.37,3.76h-4.19c-2.7,0-3.48-.74-3.48-3.34v-5.19l-1.43.55-.87-2,2.3-.9v-4.48h2.24v3.59l1.84-.7v-4.92h2.11v4.08l1.92-.72.29-.23.41-.28,1.54.59-.07.34c0,3.3-.06,5.58-.17,6.42a1.81,1.81,0,0,1-1.07,1.71,5.29,5.29,0,0,1-2.14.27,5.94,5.94,0,0,0-.5-2.07l1.16,0c.27,0,.4-.07.47-.43a35.53,35.53,0,0,0,.14-4.09l-2,.78v6.76h-2.11v-5.92l-1.84.72v6.08c0,1.14.19,1.31,1.41,1.31Z"/><path class="g" d="M624.77,429.5c3.42-3.06,5.44-5.42,5.44-7.36a1.8,1.8,0,0,0-1.89-2,3.24,3.24,0,0,0-2.31,1.29L624.65,420a5.12,5.12,0,0,1,4-1.9,3.69,3.69,0,0,1,4,3.87c0,2.28-1.89,4.73-4.19,7,.63-.07,1.47-.13,2-.13h2.74v2.1h-8.43Z"/><path class="g" d="M634.8,424.6c0-4.35,1.7-6.47,4.27-6.47s4.25,2.14,4.25,6.47-1.7,6.58-4.25,6.58S634.8,428.94,634.8,424.6Zm6.15,0c0-3.52-.81-4.54-1.88-4.54s-1.91,1-1.91,4.54.82,4.63,1.91,4.63S641,428.14,641,424.6Z"/><path class="g" d="M644.79,429.5c3.42-3.06,5.44-5.42,5.44-7.36a1.8,1.8,0,0,0-1.88-2,3.24,3.24,0,0,0-2.31,1.29L644.68,420a5.09,5.09,0,0,1,4-1.9,3.69,3.69,0,0,1,4,3.87c0,2.28-1.88,4.73-4.18,7,.63-.07,1.46-.13,2-.13h2.74v2.1h-8.44Z"/><path class="g" d="M654.83,424.6c0-4.35,1.7-6.47,4.26-6.47s4.25,2.14,4.25,6.47-1.7,6.58-4.25,6.58S654.83,428.94,654.83,424.6Zm6.15,0c0-3.52-.82-4.54-1.89-4.54s-1.9,1-1.9,4.54.81,4.63,1.9,4.63S661,428.14,661,424.6Z"/><path class="g" d="M680.37,428.8h-5.81v3.64h-2.09V428.8h-7.65v-1.94h2.69v-4.45h5v-2h-3.64a14.63,14.63,0,0,1-2.31,3.09,14.71,14.71,0,0,0-1.75-1.3,13.16,13.16,0,0,0,3.57-5.66l2.06.52a10.54,10.54,0,0,1-.57,1.4h9.61v1.95h-4.88v2h4.49v1.87h-4.49v2.58h5.81Zm-7.9-1.94v-2.58h-2.94v2.58Z"/><path class="g" d="M694.59,422.56a12.39,12.39,0,0,0,1.54-.1v2.21c-.42,0-1.07-.05-1.54-.05h-4.1A10.79,10.79,0,0,1,689.4,429a8.11,8.11,0,0,1-3.41,3.26l-2-1.44a7,7,0,0,0,3.07-2.43,7.32,7.32,0,0,0,1.06-3.76h-4.68c-.49,0-1.15,0-1.63.07v-2.23a12.63,12.63,0,0,0,1.63.1Zm-9-2.31c-.58,0-1.31,0-1.82.05v-2.19a13.55,13.55,0,0,0,1.82.14h5.56a14.24,14.24,0,0,0,1.84-.14v2.19c-.58,0-1.24-.05-1.84-.05Zm8.4-.39a25.07,25.07,0,0,0-1.34-2.36l1.36-.56c.42.63,1,1.7,1.34,2.33Zm2-.78a20.23,20.23,0,0,0-1.36-2.35l1.34-.56a24.23,24.23,0,0,1,1.36,2.31Z"/><path class="g" d="M698.4,423.07c.61.05,1.85.1,2.73.1h9.13c.78,0,1.55-.06,2-.1v2.67c-.41,0-1.28-.08-2-.08h-9.13c-1,0-2.11,0-2.73.08Z"/><path class="g" d="M728.37,420.1a7.18,7.18,0,0,0-.56,1.21,20.08,20.08,0,0,1-2.35,4.65c.63.39,1.21.79,1.63,1.09l-1.55,2a17.18,17.18,0,0,0-1.58-1.21,16.21,16.21,0,0,1-6.27,4.24l-2-1.72a14.33,14.33,0,0,0,6.34-3.81c-1.16-.75-2.31-1.44-3.18-1.94l1.45-1.61c.9.46,2,1.1,3.19,1.78a12.26,12.26,0,0,0,1.77-3.62h-4.88a19.93,19.93,0,0,1-4.49,4.39l-1.83-1.41a15.59,15.59,0,0,0,5.42-5.65,7.51,7.51,0,0,0,.77-1.78l2.46.76c-.41.6-.85,1.38-1,1.74h3.46a5.35,5.35,0,0,0,1.48-.18Z"/></svg>