<?xml version="1.0" encoding="UTF-8"?><svg xmlns="http://www.w3.org/2000/svg" viewBox="0 0 800 480"><defs><style>.cls-1{fill:#0071bc;}.cls-2{fill:#999;}.cls-3{fill:#98d5f4;}.cls-4{fill:#333;}.cls-5{fill:none;stroke:gray;stroke-miterlimit:10;stroke-width:.93px;}</style></defs><g id="_2022"><line class="cls-5" x1="336.01" y1="380.09" x2="336.01" y2="100.09"/><g><rect class="cls-3" x="336" y="244.05" width="284.61" height="72.95"/><rect class="cls-1" x="336" y="163" width="292" height="72.95"/></g></g><g id="Numbers"><g><path d="M655.49,208.41l6.68-14.87h-8.63v-3.69h13.34v2.7l-6.79,15.86h-4.6Z"/><path d="M681.85,197.88c0,1.47-.15,2.86-.46,4.17-.3,1.31-.82,2.46-1.53,3.44-.72,.99-1.69,1.76-2.91,2.33-1.22,.56-2.75,.84-4.59,.84-.36,0-.79-.01-1.29-.04-.49-.03-.91-.07-1.23-.12v-3.54c.71,.16,1.47,.23,2.29,.23,1.47,0,2.61-.22,3.42-.66,.81-.44,1.37-1.06,1.7-1.86,.33-.8,.52-1.72,.57-2.76h-.16c-.35,.61-.81,1.12-1.38,1.53-.57,.42-1.42,.62-2.55,.62-1.58,0-2.83-.52-3.77-1.56-.94-1.04-1.4-2.51-1.4-4.42,0-2.03,.57-3.62,1.72-4.77,1.14-1.15,2.71-1.73,4.71-1.73,1.28,0,2.44,.29,3.48,.88,1.04,.59,1.86,1.5,2.47,2.72,.61,1.22,.91,2.78,.91,4.67Zm-6.76-4.73c-.68,0-1.22,.23-1.64,.7-.42,.47-.62,1.21-.62,2.21,0,.81,.18,1.46,.55,1.92,.36,.47,.92,.7,1.66,.7s1.29-.25,1.74-.74c.45-.49,.68-1.02,.68-1.57,0-.52-.09-1.03-.26-1.52s-.43-.9-.78-1.22-.79-.48-1.33-.48Z"/><path d="M687.94,189.58c1.46,0,2.59,.51,3.41,1.52,.81,1.01,1.22,2.44,1.22,4.28s-.38,3.27-1.14,4.3c-.76,1.03-1.92,1.55-3.48,1.55-1.42,0-2.53-.52-3.33-1.55-.8-1.03-1.2-2.47-1.2-4.3s.37-3.26,1.12-4.28c.75-1.01,1.88-1.52,3.41-1.52Zm.05,2.86c-.4,0-.68,.25-.84,.75-.17,.5-.25,1.24-.25,2.21s.08,1.72,.25,2.24,.45,.78,.84,.78,.68-.26,.85-.78c.16-.52,.25-1.27,.25-2.24s-.08-1.71-.25-2.21c-.17-.5-.45-.75-.85-.75Zm13.57-2.6l-10.3,18.56h-3.38l10.3-18.56h3.38Zm-.1,7.15c1.46,0,2.59,.51,3.41,1.52s1.22,2.44,1.22,4.28-.38,3.27-1.14,4.3-1.92,1.55-3.48,1.55c-1.42,0-2.53-.52-3.33-1.55-.8-1.03-1.2-2.47-1.2-4.3s.37-3.26,1.12-4.28,1.88-1.52,3.41-1.52Zm.05,2.83c-.4,0-.68,.26-.84,.78-.17,.52-.25,1.26-.25,2.21s.08,1.69,.25,2.21c.16,.52,.45,.78,.84,.78,.73,0,1.09-1,1.09-2.99s-.36-2.99-1.09-2.99Z"/></g><g><path d="M655.49,292.41l6.68-14.87h-8.63v-3.69h13.34v2.7l-6.79,15.86h-4.6Z"/><path d="M670.52,292.41l6.68-14.87h-8.63v-3.69h13.34v2.7l-6.79,15.86h-4.6Z"/><path d="M687.94,273.58c1.46,0,2.59,.51,3.41,1.52,.81,1.01,1.22,2.44,1.22,4.28s-.38,3.27-1.14,4.3c-.76,1.03-1.92,1.55-3.48,1.55-1.42,0-2.53-.52-3.33-1.55-.8-1.03-1.2-2.47-1.2-4.3s.37-3.26,1.12-4.28c.75-1.01,1.88-1.52,3.41-1.52Zm.05,2.86c-.4,0-.68,.25-.84,.75-.17,.5-.25,1.24-.25,2.21s.08,1.72,.25,2.24,.45,.78,.84,.78,.68-.26,.85-.78c.16-.52,.25-1.27,.25-2.24s-.08-1.71-.25-2.21c-.17-.5-.45-.75-.85-.75Zm13.57-2.6l-10.3,18.56h-3.38l10.3-18.56h3.38Zm-.1,7.15c1.46,0,2.59,.51,3.41,1.52s1.22,2.44,1.22,4.28-.38,3.27-1.14,4.3-1.92,1.55-3.48,1.55c-1.42,0-2.53-.52-3.33-1.55-.8-1.03-1.2-2.47-1.2-4.3s.37-3.26,1.12-4.28,1.88-1.52,3.41-1.52Zm.05,2.83c-.4,0-.68,.26-.84,.78-.17,.52-.25,1.26-.25,2.21s.08,1.69,.25,2.21c.16,.52,.45,.78,.84,.78,.73,0,1.09-1,1.09-2.99s-.36-2.99-1.09-2.99Z"/></g></g><g id="Labels-JP"><g><path class="cls-4" d="M162.02,207.39h7.03v2.03h-16.17v-2.03h6.78v-2.26h-5.26v-1.98h5.26v-2.18h-4.29v-1.5c-.68,.48-1.39,.91-2.11,1.31-.28-.53-.91-1.35-1.42-1.82,3.25-1.63,6.31-4.56,7.71-6.88h2.34c2.03,2.89,5.13,5.38,8.13,6.65-.59,.61-1.08,1.33-1.5,2.03-.68-.38-1.37-.8-2.05-1.27v1.48h-4.45v2.18h5.32v1.98h-5.32v2.26Zm3.71-8.42c-1.98-1.44-3.8-3.17-4.9-4.71-1.08,1.54-2.77,3.25-4.75,4.71h9.65Z"/><path class="cls-4" d="M176.97,196.94c-.42,.76-.91,1.54-1.44,2.3v10.68h-2.11v-8.13c-.49,.53-.99,.99-1.48,1.41-.21-.49-.82-1.63-1.18-2.11,1.58-1.2,3.25-3.04,4.24-4.88l1.98,.74Zm-.32-4.01c-1.2,1.63-2.96,3.48-4.54,4.64-.29-.46-.84-1.25-1.18-1.65,1.35-.95,2.92-2.53,3.72-3.76l1.99,.78Zm7.49,14.44c.51,.08,1.06,.11,1.61,.11,.51,.02,2.49,0,3.15,0-.3,.49-.57,1.54-.67,2.11h-2.66c-2.6,0-4.73-.63-6.23-2.93-.46,1.29-1.08,2.39-1.94,3.29-.32-.4-1.22-1.2-1.73-1.54,1.75-1.65,2.3-4.46,2.45-7.77l2.26,.15c-.08,1.12-.19,2.17-.36,3.15,.47,1.2,1.12,2.01,1.9,2.56v-7.9h-4.46v-2.15h2.6c-.42-1.01-1.14-2.37-1.79-3.38l1.86-.82c.78,1.12,1.62,2.6,2.01,3.61l-1.22,.59h4.54l-1.46-.55c.61-1.01,1.37-2.58,1.77-3.78l2.2,.76c-.63,1.27-1.31,2.6-1.9,3.57h2.28v2.15h-4.24v2.94h3.72v2.07h-3.72v3.74Z"/><path class="cls-4" d="M201.86,205.54c1.62,.99,3.82,1.73,6.02,2.07-.51,.49-1.18,1.44-1.52,2.05-2.34-.59-4.64-1.73-6.38-3.21v3.42h-2.22v-3.31c-1.77,1.39-4.1,2.49-6.36,3.08-.32-.55-.97-1.42-1.44-1.88,2.13-.44,4.37-1.23,6-2.22h-5.45v-1.86h7.26v-.84h-5.47v-1.63h5.47v-.85h-6.42v-1.77h3.61c-.15-.48-.4-1.04-.65-1.48l.23-.04h-3.97v-1.84h2.54c-.27-.72-.76-1.63-1.18-2.36l1.94-.67c.55,.82,1.18,1.94,1.44,2.68l-.93,.34h1.73v-3.1h2.11v3.1h1.41v-3.1h2.13v3.1h1.69l-.68-.21c.46-.78,.93-1.92,1.2-2.75l2.38,.57c-.53,.87-1.04,1.73-1.48,2.39h2.47v1.84h-3.57c-.3,.55-.61,1.06-.89,1.52h3.72v1.77h-6.59v.85h5.7v1.63h-5.7v.84h7.39v1.86h-5.51Zm-5.17-8.47c.27,.49,.51,1.04,.65,1.46l-.32,.06h3.55c.23-.46,.46-1.01,.67-1.52h-4.54Z"/><path class="cls-4" d="M221.85,206.59c1.77,.53,3.7,1.22,5.01,1.73l-1.99,1.6c-1.46-.68-4.08-1.61-6.1-2.2l1.58-1.12h-5.15l1.44,1.01c-1.54,.89-3.97,1.8-5.89,2.28-.42-.48-1.2-1.18-1.71-1.61,1.63-.36,3.57-1.03,4.86-1.67h-2.94v-8.42h13.89v8.42h-3Zm2.34-9.12h-12.37v-4.75h12.37v4.75Zm-10.98,3.06h9.31v-.82h-9.31v.82Zm0,2.24h9.31v-.82h-9.31v.82Zm0,2.28h9.31v-.84h-9.31v.84Zm8.57-10.56h-7.67v1.23h7.67v-1.23Z"/><path class="cls-4" d="M231.33,201c0-4.07,1.69-7.1,3.74-9.12l1.8,.8c-1.9,2.05-3.4,4.67-3.4,8.32s1.5,6.27,3.4,8.32l-1.8,.8c-2.05-2.01-3.74-5.05-3.74-9.12Z"/><path class="cls-4" d="M254.36,195.36c-.21,.25-.57,.7-.74,.99-.89,1.48-2.7,3.88-4.58,5.21l-1.96-1.58c1.52-.93,3-2.6,3.5-3.53h-9.9c-.8,0-1.42,.06-2.32,.13v-2.64c.72,.11,1.52,.19,2.32,.19h10.24c.53,0,1.58-.06,1.92-.17l1.52,1.41Zm-7.75,2.56c0,4.71-.09,8.59-5.28,11.36l-2.2-1.8c.61-.21,1.29-.53,2-1.04,2.41-1.67,2.87-3.69,2.87-6.8,0-.59-.04-1.1-.13-1.71h2.75Z"/><path class="cls-4" d="M268.61,194.28c-.25,.42-.61,1.25-.78,1.69-.57,1.52-1.42,3.42-2.56,5.17,1.67,1.37,3.25,2.83,4.52,4.18l-1.96,2.19c-1.33-1.56-2.68-2.87-4.2-4.18-1.67,2.01-3.86,4.12-7.07,5.87l-2.18-1.96c3.1-1.5,5.36-3.34,7.22-5.6-1.35-1.06-3.15-2.43-5.09-3.59l1.63-1.96c1.52,.95,3.48,2.28,5.02,3.42,.97-1.52,1.58-3.02,2.09-4.5,.17-.47,.36-1.25,.46-1.75l2.91,1.03Z"/><path class="cls-4" d="M275.96,193.65c-.04,.42-.06,.84-.06,1.44v6.42c0,.48,.02,1.22,.06,1.65h-2.81c.02-.36,.09-1.1,.09-1.67v-6.4c0-.36-.02-1.03-.08-1.44h2.79Zm8.76-.17c-.04,.53-.08,1.14-.08,1.9v3.76c0,4.08-.8,5.83-2.2,7.39-1.25,1.39-3.23,2.32-4.62,2.75l-1.99-2.09c1.9-.44,3.5-1.16,4.65-2.39,1.29-1.42,1.54-2.85,1.54-5.81v-3.61c0-.76-.04-1.37-.11-1.9h2.81Z"/><path class="cls-4" d="M302.77,197.05c-.06,.32-.13,.8-.13,1.01-.08,2.05-.3,7.35-1.12,9.29-.42,.97-1.14,1.46-2.45,1.46-1.08,0-2.22-.08-3.15-.15l-.29-2.55c.93,.17,1.92,.27,2.66,.27,.61,0,.87-.21,1.08-.67,.55-1.2,.8-5,.8-7.05h-4.27c-.7,5.02-2.51,8-5.91,10.41l-2.2-1.79c.8-.44,1.73-1.08,2.49-1.86,1.77-1.75,2.72-3.88,3.13-6.76h-2.51c-.65,0-1.69,0-2.51,.08v-2.49c.8,.08,1.79,.13,2.51,.13h2.72c.02-.53,.04-1.08,.04-1.65,0-.42-.06-1.29-.13-1.75h2.79c-.06,.44-.09,1.23-.11,1.69-.02,.59-.04,1.16-.08,1.71h3.57c.47,0,.97-.06,1.44-.13l1.63,.8Z"/><path class="cls-4" d="M310.05,201c0,4.07-1.69,7.1-3.74,9.12l-1.8-.8c1.9-2.05,3.4-4.67,3.4-8.32s-1.5-6.27-3.4-8.32l1.8-.8c2.05,2.01,3.74,5.05,3.74,9.12Z"/><path class="cls-4" d="M150.64,273.23h-3.13c.32,.46,.63,.91,.8,1.27l-2.09,.59c-.21-.49-.68-1.23-1.14-1.86h-1.1c-.34,.44-.68,.82-1.04,1.16v1.03h7.28v3.76h-2.2v-2.07h-12.1v2.07h-2.13v-3.76h6.99v-1.33h.84c-.34-.19-.7-.36-.95-.48,.15-.11,.32-.25,.47-.38h-2.22c.27,.46,.49,.91,.63,1.25l-2.03,.57c-.15-.48-.49-1.2-.85-1.82h-.32c-.49,.7-1.03,1.33-1.52,1.82-.44-.36-1.33-.97-1.84-1.22,1.14-.95,2.22-2.41,2.79-3.86l2.11,.57c-.13,.3-.29,.61-.44,.91h4.22v1.27c.76-.78,1.41-1.77,1.8-2.75l2.15,.51c-.13,.32-.28,.65-.46,.97h5.51v1.77Zm-11.76,9.76h9.76v4.9h-2.24v-.51h-7.52v.51h-2.17v-10.01h10.49v4.24h-8.32v.87Zm0-3.48v.99h6.08v-.99h-6.08Zm0,5.13v1.06h7.52v-1.06h-7.52Z"/><path class="cls-4" d="M158.6,284.08c-2.09,.74-4.37,1.46-6.19,2.05l-.51-2.3c.67-.17,1.44-.38,2.32-.63v-4.46h-1.92v-2.07h1.92v-3.34h-2.09v-2.11h6.27v2.11h-2.03v3.34h1.71v2.07h-1.71v3.8c.63-.19,1.25-.38,1.86-.59l.38,2.13Zm11.28,1.16v2.05h-12.21v-2.05h5.24v-1.8h-3.93v-2.03h3.93v-1.63h-3.8v-8.83h9.92v8.83h-3.82v1.63h4.03v2.03h-4.03v1.8h4.67Zm-8.74-10.81h1.96v-1.58h-1.96v1.58Zm0,3.42h1.96v-1.63h-1.96v1.63Zm5.74-5h-1.88v1.58h1.88v-1.58Zm0,3.36h-1.88v1.63h1.88v-1.63Z"/><path class="cls-4" d="M188.6,278.91c-.51,1.82-1.22,3.46-2.11,4.88,.17,.91,.38,1.42,.61,1.44,.23,0,.38-.87,.46-2.37,.32,.46,1.14,1.04,1.46,1.25-.47,3.08-1.37,3.74-2.01,3.74-.85-.02-1.48-.78-1.94-2.17-.74,.85-1.58,1.6-2.49,2.22-.25-.38-.89-1.12-1.29-1.48,.47-.29,.93-.61,1.35-.95h-2.85v1.1h-1.73v-7.94h5.22v6.25c.46-.44,.87-.93,1.25-1.46-.25-1.54-.42-3.44-.51-5.62h-6.67v-1.75h1.2c-.04-.63-.19-1.56-.42-2.26l1.1-.27h-1.5v-.7h-.72v15.05h-1.88v-3.25c-1.35,.28-2.7,.57-3.84,.8l-.38-2.07c.34-.04,.72-.09,1.12-.17v-10.35h-.74v-1.98h6.52v1.03h1.86v-1.71h1.92v1.71h1.94v1.65h-1.63l1.29,.25c-.29,.82-.55,1.67-.76,2.28h1.52c-.06-1.82-.09-3.8-.11-5.91h1.98v1.42l1.22-.65c.78,.93,1.52,2.17,1.86,3.02l-1.58,.87c-.27-.76-.87-1.88-1.5-2.77,0,1.41,.02,2.74,.06,4.01h2.93v1.75h-2.85c.04,1.01,.09,1.94,.17,2.79,.27-.67,.49-1.37,.68-2.09l1.8,.4Zm-13.47-6.08h-1.25v2.05h1.25v-2.05Zm0,3.88h-1.25v2.05h1.25v-2.05Zm0,5.95v-2.07h-1.25v2.3l1.25-.23Zm4.46-9.12c.29,.72,.46,1.69,.49,2.32l-.85,.21h2.74l-.99-.23c.19-.65,.4-1.61,.49-2.3h-1.88Zm.19,6.67v1.14h1.75v-1.14h-1.75Zm1.75,3.74v-1.14h-1.75v1.14h1.75Z"/><path class="cls-4" d="M198.17,282.52c-2.51,1.12-5.32,2.32-7.47,3.21l-.76-2.41c.72-.25,1.58-.55,2.53-.93l-.38-11.09,2.36-.1,.34,10.28c.95-.4,1.92-.8,2.87-1.18l.51,2.22Zm7.87,5.34c-.7-1.23-2.15-2.98-3.55-4.58-1.39,1.98-3.27,3.5-5.78,4.62-.32-.49-1.25-1.52-1.8-1.99,6.02-2.28,7.98-6.88,8.68-14.69l2.49,.23c-.4,3.89-1.08,7.07-2.32,9.65,1.58,1.63,3.34,3.55,4.22,4.88l-1.94,1.88Zm-7.12-9.75c-.47-1.31-1.69-3.31-2.83-4.71l2.05-1.03c1.24,1.39,2.43,3.25,3,4.56l-2.22,1.18Z"/><path class="cls-4" d="M226.54,284.67v2.28h-17.27v-2.28h6.8v-14.31h2.43v5.43h6.71v2.3h-6.71v6.57h8.04Z"/><path class="cls-4" d="M231.33,279c0-4.07,1.69-7.1,3.74-9.12l1.8,.8c-1.9,2.05-3.4,4.67-3.4,8.32s1.5,6.27,3.4,8.32l-1.8,.8c-2.05-2.01-3.74-5.05-3.74-9.12Z"/><path class="cls-4" d="M254.36,273.36c-.21,.25-.57,.7-.74,.99-.89,1.48-2.7,3.88-4.58,5.21l-1.96-1.58c1.52-.93,3-2.6,3.5-3.53h-9.9c-.8,0-1.42,.06-2.32,.13v-2.64c.72,.11,1.52,.19,2.32,.19h10.24c.53,0,1.58-.06,1.92-.17l1.52,1.41Zm-7.75,2.56c0,4.71-.09,8.59-5.28,11.36l-2.2-1.8c.61-.21,1.29-.53,2-1.04,2.41-1.67,2.87-3.69,2.87-6.8,0-.59-.04-1.1-.13-1.71h2.75Z"/><path class="cls-4" d="M268.61,272.28c-.25,.42-.61,1.25-.78,1.69-.57,1.52-1.42,3.42-2.56,5.17,1.67,1.37,3.25,2.83,4.52,4.18l-1.96,2.19c-1.33-1.56-2.68-2.87-4.2-4.18-1.67,2.01-3.86,4.12-7.07,5.87l-2.18-1.96c3.1-1.5,5.36-3.34,7.22-5.6-1.35-1.06-3.15-2.43-5.09-3.59l1.63-1.96c1.52,.95,3.48,2.28,5.02,3.42,.97-1.52,1.58-3.02,2.09-4.5,.17-.47,.36-1.25,.46-1.75l2.91,1.03Z"/><path class="cls-4" d="M275.96,271.65c-.04,.42-.06,.84-.06,1.44v6.42c0,.48,.02,1.22,.06,1.65h-2.81c.02-.36,.09-1.1,.09-1.67v-6.4c0-.36-.02-1.03-.08-1.44h2.79Zm8.76-.17c-.04,.53-.08,1.14-.08,1.9v3.76c0,4.08-.8,5.83-2.2,7.39-1.25,1.39-3.23,2.32-4.62,2.75l-1.99-2.09c1.9-.44,3.5-1.16,4.65-2.39,1.29-1.42,1.54-2.85,1.54-5.81v-3.61c0-.76-.04-1.37-.11-1.9h2.81Z"/><path class="cls-4" d="M302.77,275.05c-.06,.32-.13,.8-.13,1.01-.08,2.05-.3,7.35-1.12,9.29-.42,.97-1.14,1.46-2.45,1.46-1.08,0-2.22-.08-3.15-.15l-.29-2.55c.93,.17,1.92,.27,2.66,.27,.61,0,.87-.21,1.08-.67,.55-1.2,.8-5,.8-7.05h-4.27c-.7,5.02-2.51,8-5.91,10.41l-2.2-1.79c.8-.44,1.73-1.08,2.49-1.86,1.77-1.75,2.72-3.88,3.13-6.76h-2.51c-.65,0-1.69,0-2.51,.08v-2.49c.8,.08,1.79,.13,2.51,.13h2.72c.02-.53,.04-1.08,.04-1.65,0-.42-.06-1.29-.13-1.75h2.79c-.06,.44-.09,1.23-.11,1.69-.02,.59-.04,1.16-.08,1.71h3.57c.47,0,.97-.06,1.44-.13l1.63,.8Z"/><path class="cls-4" d="M310.05,279c0,4.07-1.69,7.1-3.74,9.12l-1.8-.8c1.9-2.05,3.4-4.67,3.4-8.32s-1.5-6.27-3.4-8.32l1.8-.8c2.05,2.01,3.74,5.05,3.74,9.12Z"/></g><g><path class="cls-2" d="M97.41,416.04l1.12-1.94-2.02-.9,.41-1.26,2.18,.49,.22-2.24h1.34l.2,2.24,2.18-.49,.41,1.26-2.04,.9,1.14,1.94-1.07,.78-1.5-1.7-1.5,1.7-1.07-.78Z"/><path class="cls-2" d="M119.9,412.42c-.19,.22-.51,.63-.66,.88-.8,1.33-2.41,3.47-4.1,4.66l-1.75-1.41c1.36-.83,2.69-2.33,3.13-3.16h-8.86c-.71,0-1.27,.05-2.07,.12v-2.36c.65,.1,1.36,.17,2.07,.17h9.16c.48,0,1.41-.05,1.72-.15l1.36,1.26Zm-6.94,2.29c0,4.22-.08,7.68-4.73,10.17l-1.97-1.62c.54-.19,1.16-.48,1.79-.93,2.16-1.5,2.57-3.3,2.57-6.09,0-.53-.03-.99-.12-1.53h2.46Z"/><path class="cls-2" d="M134.17,412.61c-.15,.34-.29,.82-.37,1.19-.39,1.67-1.14,4.3-2.55,6.19-1.55,2.04-3.81,3.72-6.83,4.69l-1.85-2.04c3.37-.78,5.29-2.26,6.66-3.98,1.12-1.41,1.77-3.35,1.99-4.79h-7.92c-.76,0-1.58,.03-2.02,.07v-2.4c.51,.05,1.48,.14,2.04,.14h7.85c.34,0,.88-.02,1.34-.14l1.67,1.07Z"/><path class="cls-2" d="M139.84,410.89c-.03,.37-.05,.75-.05,1.29v5.75c0,.42,.02,1.09,.05,1.48h-2.52c.02-.32,.08-.99,.08-1.5v-5.73c0-.32-.02-.92-.07-1.29h2.5Zm7.84-.15c-.03,.48-.07,1.02-.07,1.7v3.37c0,3.65-.71,5.22-1.97,6.61-1.12,1.24-2.89,2.07-4.13,2.46l-1.79-1.87c1.7-.39,3.13-1.04,4.17-2.14,1.16-1.28,1.38-2.55,1.38-5.2v-3.23c0-.68-.03-1.22-.1-1.7h2.52Z"/><path class="cls-2" d="M163.83,413.93c-.05,.29-.12,.71-.12,.9-.07,1.84-.27,6.58-1,8.31-.37,.87-1.02,1.31-2.19,1.31-.97,0-1.99-.07-2.82-.14l-.25-2.28c.83,.15,1.72,.24,2.38,.24,.54,0,.78-.19,.97-.6,.49-1.07,.71-4.47,.71-6.31h-3.83c-.63,4.49-2.24,7.16-5.29,9.31l-1.97-1.6c.71-.39,1.55-.97,2.23-1.67,1.58-1.56,2.43-3.47,2.8-6.05h-2.24c-.58,0-1.51,0-2.24,.07v-2.23c.71,.07,1.6,.12,2.24,.12h2.43c.02-.48,.03-.97,.03-1.48,0-.37-.05-1.16-.12-1.56h2.5c-.05,.39-.08,1.11-.1,1.51-.02,.53-.03,1.04-.07,1.53h3.2c.43,0,.87-.05,1.29-.12l1.46,.71Z"/><path class="cls-2" d="M171.67,421.58c-1.05,1.34-2.69,2.74-4.01,3.59-.42-.39-1.31-1.07-1.82-1.39,1.38-.71,2.86-1.87,3.74-2.96l2.09,.76Zm8.4-.42c-.22-.36-.54-.77-.9-1.19-1.43,.05-2.86,.12-4.27,.17v5.27h-2.16v-5.2c-2.38,.08-4.61,.14-6.37,.19l-.17-2.02c1.04-.02,2.24-.03,3.55-.05,.37-.25,.76-.54,1.16-.85-.93-.85-2.31-1.87-3.47-2.58l1.39-1.29c.27,.15,.56,.32,.85,.51,.51-.51,1.04-1.09,1.5-1.67-1.36,.07-2.72,.1-4,.12-.05-.53-.29-1.34-.49-1.82,4.39-.08,9.35-.44,12.37-1.05l1.43,1.7c-1.9,.41-4.2,.68-6.56,.87l.05,.03c-.85,1-1.85,2.04-2.75,2.86,.48,.34,.94,.68,1.31,1,1.39-1.19,2.75-2.5,3.76-3.65l1.94,1.05c-1.58,1.63-3.55,3.31-5.39,4.71,1.5-.02,3.06-.05,4.62-.1-.42-.41-.85-.8-1.24-1.14l1.67-1.05c1.38,1.14,3.15,2.82,3.98,3.98l-1.8,1.22Zm-2.5-.44c1.34,.87,3.14,2.19,4.03,3.13l-1.82,1.29c-.78-.92-2.53-2.31-3.89-3.26l1.68-1.16Z"/><path class="cls-2" d="M197.98,412.42c-.19,.22-.51,.63-.66,.88-.8,1.33-2.41,3.47-4.1,4.66l-1.75-1.41c1.36-.83,2.69-2.33,3.13-3.16h-8.86c-.71,0-1.27,.05-2.07,.12v-2.36c.65,.1,1.36,.17,2.07,.17h9.16c.48,0,1.41-.05,1.72-.15l1.36,1.26Zm-6.94,2.29c0,4.22-.08,7.68-4.73,10.17l-1.97-1.62c.54-.19,1.16-.48,1.79-.93,2.16-1.5,2.57-3.3,2.57-6.09,0-.53-.03-.99-.12-1.53h2.46Z"/><path class="cls-2" d="M210.73,411.45c-.22,.37-.54,1.12-.7,1.51-.51,1.36-1.28,3.06-2.29,4.62,1.5,1.22,2.91,2.53,4.04,3.74l-1.75,1.96c-1.19-1.39-2.4-2.57-3.76-3.74-1.5,1.8-3.45,3.69-6.32,5.25l-1.96-1.75c2.77-1.34,4.79-2.99,6.46-5.01-1.21-.95-2.82-2.18-4.56-3.21l1.46-1.75c1.36,.85,3.11,2.04,4.49,3.06,.87-1.36,1.41-2.7,1.87-4.03,.15-.42,.32-1.12,.41-1.56l2.6,.92Z"/><path class="cls-2" d="M217.31,410.89c-.03,.37-.05,.75-.05,1.29v5.75c0,.42,.02,1.09,.05,1.48h-2.52c.02-.32,.08-.99,.08-1.5v-5.73c0-.32-.02-.92-.07-1.29h2.5Zm7.84-.15c-.03,.48-.07,1.02-.07,1.7v3.37c0,3.65-.71,5.22-1.97,6.61-1.12,1.24-2.89,2.07-4.13,2.46l-1.79-1.87c1.7-.39,3.13-1.04,4.17-2.14,1.16-1.28,1.38-2.55,1.38-5.2v-3.23c0-.68-.03-1.22-.1-1.7h2.52Z"/><path class="cls-2" d="M241.3,413.93c-.05,.29-.12,.71-.12,.9-.07,1.84-.27,6.58-1,8.31-.37,.87-1.02,1.31-2.19,1.31-.97,0-1.99-.07-2.82-.14l-.26-2.28c.83,.15,1.72,.24,2.38,.24,.54,0,.78-.19,.97-.6,.49-1.07,.71-4.47,.71-6.31h-3.83c-.63,4.49-2.24,7.16-5.29,9.31l-1.97-1.6c.71-.39,1.55-.97,2.23-1.67,1.58-1.56,2.43-3.47,2.8-6.05h-2.24c-.58,0-1.51,0-2.24,.07v-2.23c.71,.07,1.6,.12,2.24,.12h2.43c.02-.48,.03-.97,.03-1.48,0-.37-.05-1.16-.12-1.56h2.5c-.05,.39-.08,1.11-.1,1.51-.02,.53-.03,1.04-.07,1.53h3.2c.43,0,.87-.05,1.29-.12l1.46,.71Z"/><path class="cls-2" d="M252.23,409.92c-.02,.27-.03,.61-.05,.97,.14,2.35,.99,9.67,7.33,12.65-.63,.48-1.24,1.17-1.56,1.72-3.84-1.9-5.75-5.41-6.7-8.53-.92,3.06-2.7,6.34-6.29,8.53-.36-.53-1.02-1.14-1.7-1.62,6.78-3.76,6.54-11.47,6.66-13.72h2.31Z"/><path class="cls-2" d="M264.12,425.1c-1.04-1.27-2.46-2.74-3.66-3.76l1.77-1.53c1.21,.99,2.84,2.67,3.71,3.72l-1.82,1.56Z"/><path class="cls-2" d="M283.95,412.42c-.19,.22-.51,.63-.66,.88-.8,1.33-2.41,3.47-4.1,4.66l-1.75-1.41c1.36-.83,2.69-2.33,3.13-3.16h-8.86c-.71,0-1.27,.05-2.07,.12v-2.36c.65,.1,1.36,.17,2.07,.17h9.16c.48,0,1.41-.05,1.72-.15l1.36,1.26Zm-6.94,2.29c0,4.22-.08,7.68-4.73,10.17l-1.97-1.62c.54-.19,1.16-.48,1.79-.93,2.16-1.5,2.57-3.3,2.57-6.09,0-.53-.03-.99-.12-1.53h2.46Z"/><path class="cls-2" d="M289.72,416.82l-1.24,1.9c-.97-.68-2.74-1.82-3.88-2.43l1.22-1.87c1.16,.61,3.03,1.79,3.89,2.4Zm1.36,3.88c2.89-1.62,5.27-3.94,6.61-6.38l1.31,2.31c-1.56,2.36-3.98,4.5-6.75,6.12-1.73,.97-4.18,1.82-5.68,2.09l-1.27-2.23c1.9-.32,3.94-.9,5.78-1.92Zm1.24-7.72l-1.26,1.87c-.95-.66-2.72-1.8-3.84-2.43l1.22-1.87c1.12,.61,2.99,1.82,3.88,2.43Zm5.07,.53l-1.48,.63c-.49-1.07-.88-1.8-1.5-2.67l1.41-.59c.49,.71,1.17,1.85,1.56,2.63Zm2.38-.92l-1.44,.65c-.54-1.07-.97-1.73-1.6-2.58l1.44-.59c.53,.68,1.19,1.78,1.6,2.53Z"/><path class="cls-2" d="M315.71,412.42c-.19,.22-.51,.63-.66,.88-.8,1.33-2.41,3.47-4.1,4.66l-1.75-1.41c1.36-.83,2.69-2.33,3.13-3.16h-8.86c-.71,0-1.27,.05-2.07,.12v-2.36c.65,.1,1.36,.17,2.07,.17h9.16c.48,0,1.41-.05,1.72-.15l1.36,1.26Zm-6.94,2.29c0,4.22-.08,7.68-4.73,10.17l-1.97-1.62c.54-.19,1.16-.48,1.79-.93,2.16-1.5,2.57-3.3,2.57-6.09,0-.53-.03-.99-.12-1.53h2.46Z"/><path class="cls-2" d="M322.22,421.58c-1.05,1.34-2.69,2.74-4.01,3.59-.42-.39-1.31-1.07-1.82-1.39,1.38-.71,2.86-1.87,3.74-2.96l2.09,.76Zm8.4-.42c-.22-.36-.54-.77-.9-1.19-1.43,.05-2.86,.12-4.27,.17v5.27h-2.16v-5.2c-2.38,.08-4.61,.14-6.37,.19l-.17-2.02c1.04-.02,2.24-.03,3.55-.05,.37-.25,.76-.54,1.16-.85-.93-.85-2.31-1.87-3.47-2.58l1.39-1.29c.27,.15,.56,.32,.85,.51,.51-.51,1.04-1.09,1.5-1.67-1.36,.07-2.72,.1-4,.12-.05-.53-.29-1.34-.49-1.82,4.38-.08,9.35-.44,12.37-1.05l1.43,1.7c-1.9,.41-4.2,.68-6.56,.87l.05,.03c-.85,1-1.85,2.04-2.75,2.86,.48,.34,.93,.68,1.31,1,1.39-1.19,2.75-2.5,3.76-3.65l1.94,1.05c-1.58,1.63-3.55,3.31-5.39,4.71,1.5-.02,3.06-.05,4.62-.1-.42-.41-.85-.8-1.24-1.14l1.67-1.05c1.38,1.14,3.15,2.82,3.98,3.98l-1.8,1.22Zm-2.5-.44c1.34,.87,3.14,2.19,4.03,3.13l-1.82,1.29c-.78-.92-2.53-2.31-3.89-3.26l1.68-1.16Z"/><path class="cls-2" d="M348.54,412.42c-.19,.22-.51,.63-.66,.88-.8,1.33-2.41,3.47-4.1,4.66l-1.75-1.41c1.36-.83,2.69-2.33,3.13-3.16h-8.86c-.71,0-1.27,.05-2.07,.12v-2.36c.65,.1,1.36,.17,2.07,.17h9.16c.48,0,1.41-.05,1.72-.15l1.36,1.26Zm-6.94,2.29c0,4.22-.08,7.68-4.73,10.17l-1.97-1.62c.54-.19,1.16-.48,1.79-.93,2.16-1.5,2.57-3.3,2.57-6.09,0-.53-.03-.99-.12-1.53h2.46Z"/><path class="cls-2" d="M361.29,411.45c-.22,.37-.54,1.12-.7,1.51-.51,1.36-1.28,3.06-2.29,4.62,1.5,1.22,2.91,2.53,4.04,3.74l-1.75,1.96c-1.19-1.39-2.4-2.57-3.76-3.74-1.5,1.8-3.45,3.69-6.32,5.25l-1.96-1.75c2.77-1.34,4.79-2.99,6.46-5.01-1.21-.95-2.82-2.18-4.55-3.21l1.46-1.75c1.36,.85,3.11,2.04,4.49,3.06,.87-1.36,1.41-2.7,1.87-4.03,.15-.42,.32-1.12,.41-1.56l2.6,.92Z"/><path class="cls-2" d="M367.87,410.89c-.03,.37-.05,.75-.05,1.29v5.75c0,.42,.02,1.09,.05,1.48h-2.52c.02-.32,.08-.99,.08-1.5v-5.73c0-.32-.02-.92-.07-1.29h2.5Zm7.84-.15c-.03,.48-.07,1.02-.07,1.7v3.37c0,3.65-.71,5.22-1.97,6.61-1.12,1.24-2.89,2.07-4.13,2.46l-1.79-1.87c1.7-.39,3.13-1.04,4.17-2.14,1.16-1.28,1.38-2.55,1.38-5.2v-3.23c0-.68-.03-1.22-.1-1.7h2.52Z"/><path class="cls-2" d="M391.85,413.93c-.05,.29-.12,.71-.12,.9-.07,1.84-.27,6.58-1,8.31-.37,.87-1.02,1.31-2.19,1.31-.97,0-1.99-.07-2.82-.14l-.25-2.28c.83,.15,1.72,.24,2.38,.24,.54,0,.78-.19,.97-.6,.49-1.07,.71-4.47,.71-6.31h-3.83c-.63,4.49-2.24,7.16-5.29,9.31l-1.97-1.6c.71-.39,1.55-.97,2.23-1.67,1.58-1.56,2.43-3.47,2.8-6.05h-2.24c-.58,0-1.51,0-2.24,.07v-2.23c.71,.07,1.6,.12,2.24,.12h2.43c.02-.48,.03-.97,.03-1.48,0-.37-.05-1.16-.12-1.56h2.5c-.05,.39-.08,1.11-.1,1.51-.02,.53-.03,1.04-.07,1.53h3.2c.43,0,.87-.05,1.29-.12l1.46,.71Z"/><path class="cls-2" d="M402.79,409.92c-.02,.27-.03,.61-.05,.97,.14,2.35,.99,9.67,7.33,12.65-.63,.48-1.24,1.17-1.56,1.72-3.84-1.9-5.75-5.41-6.7-8.53-.92,3.06-2.7,6.34-6.29,8.53-.36-.53-1.02-1.14-1.7-1.62,6.78-3.76,6.54-11.47,6.66-13.72h2.31Z"/><path class="cls-2" d="M414.67,425.1c-1.04-1.27-2.46-2.74-3.66-3.76l1.77-1.53c1.21,.99,2.84,2.67,3.71,3.72l-1.82,1.56Z"/><path class="cls-2" d="M429.12,415.85c1.12,3.43,3.2,6.29,6.37,7.67-.51,.44-1.19,1.29-1.51,1.89-3.2-1.6-5.18-4.44-6.49-8.09-.39,1.48-1,2.94-1.96,4.25l1.39-.97c1.07,.9,2.5,2.24,3.14,3.15l-1.87,1.39c-.58-.88-1.85-2.23-2.92-3.21-1.05,1.34-2.48,2.55-4.44,3.48-.31-.56-.94-1.27-1.51-1.72,4.06-1.82,5.66-4.78,6.27-7.84h-5.73v-2.09h6.02c.14-1.48,.12-2.92,.14-4.22h2.21c-.02,1.31-.03,2.74-.15,4.22h6.95v2.09h-5.92Z"/><path class="cls-2" d="M452.12,419.8h-6.68v5.61h-2.11v-5.61h-6.61v-2.06h6.61v-5.15h-5.73v-2.01h13.53v2.01h-5.69v5.15h6.68v2.06Zm-11.63-6.66c.56,1.09,1.17,2.52,1.36,3.47l-1.97,.61c-.17-.9-.7-2.4-1.24-3.54l1.85-.54Zm6.31,3.54c.54-.99,1.16-2.48,1.48-3.59l2.16,.54c-.61,1.31-1.31,2.69-1.87,3.55l-1.77-.51Z"/><path class="cls-2" d="M456.57,417.52c-.66-.59-2.06-1.38-3.14-1.85l1.05-1.51c1.07,.41,2.52,1.12,3.21,1.7l-1.12,1.67Zm2.01,2.31c-.85,1.79-1.87,3.72-2.86,5.35l-1.73-1.33c.87-1.27,2.09-3.38,3.08-5.34l1.51,1.31Zm-1.05-6.83c-.63-.61-2.02-1.43-3.11-1.9l1.1-1.5c1.09,.41,2.5,1.16,3.2,1.75l-1.19,1.65Zm11.78,8.84h-4.4v3.57h-2.11v-3.57h-4.22v-1.94h4.22v-1.79h-3.3v-1.87h3.3v-1.72h-3.88v-1.9h1.96c-.27-.71-.76-1.62-1.26-2.33l1.8-.75c.65,.85,1.31,1.96,1.56,2.75l-.76,.32h3.37l-.78-.25c.48-.78,1.02-1.97,1.31-2.86l2.19,.65c-.48,.9-.97,1.79-1.39,2.46h2.06v1.9h-4.06v1.72h3.45v1.87h-3.45v1.79h4.4v1.94Z"/><path class="cls-2" d="M476.6,413.93h-6.15v-1.6h6.15v1.6Zm-.42,10.57h-3.35v.66h-1.67v-5.8h5.01v5.13Zm-.02-8.26h-4.95v-1.55h4.95v1.55Zm-4.95,.78h4.95v1.51h-4.95v-1.51Zm4.9-5.44h-4.84v-1.53h4.84v1.53Zm-3.28,9.38v1.96h1.67v-1.96h-1.67Zm9.57-4.56c-.44,.48-.92,.94-1.39,1.36h4.5v7.6h-2.04v-.54h-3.16v.61h-1.92v-5.71c-.42,.25-.85,.51-1.27,.73-.25-.41-.9-1.21-1.28-1.61,1.39-.63,2.69-1.46,3.84-2.43h-3.13v-1.8h2.96v-1.56h-2.35v-1.75h2.35v-1.75h1.9v1.75h1.73v1.17c.44-.68,.82-1.41,1.16-2.16l1.82,.61c-.61,1.33-1.36,2.55-2.21,3.69h2.43v1.8h-3.94Zm1.07,3.01h-3.16v1.09h3.16v-1.09Zm0,3.76v-1.14h-3.16v1.14h3.16Zm-2.06-8.57h.12c.44-.49,.85-1.02,1.22-1.56h-1.34v1.56Z"/><path class="cls-2" d="M491.83,418.71v.82h10.71s-.02,.48-.07,.73c-.22,2.79-.46,4.05-.92,4.52-.32,.37-.68,.51-1.14,.58-.41,.05-1.1,.07-1.9,.03-.02-.54-.22-1.26-.49-1.73,.59,.07,1.14,.07,1.38,.07,.22,0,.37-.02,.51-.17,.22-.24,.41-.93,.54-2.57h-6.41v1.95h1.96v-1.58h1.85v3.11h-7.68v.73h-1.83v-3.81h1.83v1.55h2.02v-1.95h-2.36v-10.18h3.84c.14-.46,.25-.95,.31-1.33l2.41,.17c-.17,.41-.37,.8-.56,1.16h4.76v5.64h-8.75v.77h11.29v1.5h-11.29Zm0-6.51v.78h6.71v-.78h-6.71Zm6.71,2.86v-.83h-6.71v.83h6.71Z"/><path class="cls-2" d="M510.19,421.58c-1.05,1.34-2.69,2.74-4.01,3.59-.42-.39-1.31-1.07-1.82-1.39,1.38-.71,2.86-1.87,3.74-2.96l2.09,.76Zm8.4-.42c-.22-.36-.54-.77-.9-1.19-1.43,.05-2.86,.12-4.27,.17v5.27h-2.16v-5.2c-2.38,.08-4.61,.14-6.37,.19l-.17-2.02c1.04-.02,2.24-.03,3.55-.05,.37-.25,.76-.54,1.16-.85-.93-.85-2.31-1.87-3.47-2.58l1.39-1.29c.27,.15,.56,.32,.85,.51,.51-.51,1.04-1.09,1.5-1.67-1.36,.07-2.72,.1-4,.12-.05-.53-.29-1.34-.49-1.82,4.39-.08,9.35-.44,12.37-1.05l1.43,1.7c-1.9,.41-4.2,.68-6.56,.87l.05,.03c-.85,1-1.85,2.04-2.75,2.86,.48,.34,.94,.68,1.31,1,1.39-1.19,2.75-2.5,3.76-3.65l1.94,1.05c-1.58,1.63-3.55,3.31-5.39,4.71,1.5-.02,3.06-.05,4.62-.1-.42-.41-.85-.8-1.24-1.14l1.67-1.05c1.38,1.14,3.15,2.82,3.98,3.98l-1.8,1.22Zm-2.5-.44c1.34,.87,3.14,2.19,4.03,3.13l-1.82,1.29c-.78-.92-2.53-2.31-3.89-3.26l1.68-1.16Z"/><path class="cls-2" d="M525.17,425.1c-1.04-1.27-2.46-2.74-3.66-3.76l1.77-1.53c1.21,.99,2.84,2.67,3.71,3.72l-1.82,1.56Z"/><path class="cls-2" d="M100.42,443.89c0,.73,.34,.92,1.09,1.07,.51,.07,1.21,.1,1.97,.1,1.78,0,4.52-.22,5.92-.59v2.48c-1.6,.24-4.18,.36-6.05,.36-1.11,0-2.12-.07-2.86-.19-1.48-.27-2.33-1.07-2.33-2.55v-9.26c0-.37-.05-1.24-.14-1.77h2.52c-.08,.53-.12,1.29-.12,1.77v3.21c2.02-.51,4.42-1.28,5.93-1.9,.61-.25,1.19-.53,1.85-.92l.92,2.14c-.66,.27-1.41,.59-1.99,.82-1.72,.66-4.5,1.53-6.71,2.09v3.14Z"/><path class="cls-2" d="M124.22,435.4c-.14,.19-.44,.71-.59,1.05-.58,1.33-1.53,3.14-2.67,4.67,1.68,1.46,3.74,3.64,4.74,4.86l-1.94,1.68c-1.11-1.53-2.69-3.26-4.28-4.81-1.8,1.9-4.06,3.67-6.39,4.78l-1.75-1.84c2.74-1.04,5.37-3.09,6.97-4.88,1.12-1.28,2.16-2.96,2.53-4.17h-5.76c-.71,0-1.65,.1-2.01,.12v-2.41c.46,.07,1.5,.12,2.01,.12h5.98c.75,0,1.43-.1,1.77-.22l1.39,1.04Z"/><path class="cls-2" d="M131.48,435.18l2.48,.51c-.15,.49-.34,1.33-.41,1.7-.24,1.19-.87,3.54-1.44,5.12-.61,1.65-1.62,3.59-2.52,4.86l-2.38-1c1.07-1.39,2.07-3.23,2.65-4.73,.76-1.9,1.41-4.3,1.62-6.46Zm4.32,.51l2.26-.73c.7,1.33,1.87,3.93,2.5,5.58,.61,1.53,1.51,4.25,1.99,5.93l-2.52,.82c-.48-2.02-1.09-4.17-1.77-6-.65-1.79-1.75-4.3-2.46-5.59Zm5.41-3.03c1.12,0,2.04,.92,2.04,2.04s-.92,2.02-2.04,2.02-2.04-.92-2.04-2.02,.92-2.04,2.04-2.04Zm0,3.01c.54,0,.99-.44,.99-.97s-.44-.99-.99-.99-.99,.44-.99,.99,.44,.97,.99,.97Z"/><path class="cls-2" d="M145.06,443.7c.66,.05,1.46,.12,2.12,.12h9.76c.58,0,1.29-.05,1.87-.12v2.6c-.6-.07-1.36-.1-1.87-.1h-9.76c-.66,0-1.5,.05-2.12,.1v-2.6Zm1.43-8.31c.61,.07,1.41,.1,1.99,.1h7.04c.68,0,1.41-.05,1.89-.1v2.46c-.49-.02-1.29-.07-1.89-.07h-7.02c-.65,0-1.43,.03-2.01,.07v-2.46Z"/><path class="cls-2" d="M165,441.59l-2.07,.78c-.29-.92-1.14-3.18-1.55-3.93l2.04-.73c.42,.87,1.24,2.92,1.58,3.88Zm8.63-3.54c-.2,.54-.31,.9-.41,1.24-.44,1.72-1.16,3.48-2.31,4.98-1.58,2.04-3.71,3.47-5.69,4.21l-1.79-1.82c1.87-.49,4.23-1.79,5.64-3.55,1.16-1.45,1.97-3.71,2.16-5.83l2.4,.76Zm-4.88,2.48l-2.04,.71c-.2-.83-.95-2.89-1.38-3.77l2.02-.66c.32,.73,1.16,2.94,1.39,3.72Z"/><path class="cls-2" d="M189.43,436.36c-.19,.32-.42,.8-.56,1.22-.46,1.51-1.43,3.77-2.96,5.68-1.61,1.97-3.67,3.52-6.87,4.79l-2.01-1.8c3.48-1.04,5.37-2.52,6.85-4.2,1.16-1.33,2.14-3.37,2.41-4.64h-4.78c-1.14,1.48-2.62,2.97-4.28,4.11l-1.9-1.41c2.98-1.82,4.45-4.01,5.3-5.47,.25-.42,.61-1.21,.76-1.78l2.48,.82c-.41,.59-.83,1.36-1.04,1.73l-.05,.08h3.42c.53,0,1.09-.08,1.48-.2l1.73,1.07Z"/><path class="cls-2" d="M196.18,444.58c-1.05,1.34-2.69,2.74-4.01,3.59-.42-.39-1.31-1.07-1.82-1.39,1.38-.71,2.86-1.87,3.74-2.96l2.09,.76Zm8.4-.42c-.22-.36-.54-.77-.9-1.19-1.43,.05-2.86,.12-4.27,.17v5.27h-2.16v-5.2c-2.38,.08-4.61,.14-6.37,.19l-.17-2.02c1.04-.02,2.24-.03,3.55-.05,.37-.25,.76-.54,1.16-.85-.93-.85-2.31-1.87-3.47-2.58l1.39-1.29c.27,.15,.56,.32,.85,.51,.51-.51,1.04-1.09,1.5-1.67-1.36,.07-2.72,.1-4,.12-.05-.53-.29-1.34-.49-1.82,4.38-.08,9.35-.44,12.37-1.05l1.43,1.7c-1.9,.41-4.2,.68-6.56,.87l.05,.03c-.85,1-1.85,2.04-2.75,2.86,.48,.34,.93,.68,1.31,1,1.39-1.19,2.75-2.5,3.76-3.65l1.94,1.05c-1.58,1.63-3.55,3.31-5.39,4.71,1.5-.02,3.06-.05,4.62-.1-.42-.41-.85-.8-1.24-1.14l1.67-1.05c1.38,1.14,3.15,2.82,3.98,3.98l-1.8,1.22Zm-2.5-.44c1.34,.87,3.14,2.19,4.03,3.13l-1.82,1.29c-.78-.92-2.53-2.31-3.89-3.26l1.68-1.16Z"/><path class="cls-2" d="M222.5,435.42c-.19,.22-.51,.63-.66,.88-.8,1.33-2.41,3.47-4.1,4.66l-1.75-1.41c1.36-.83,2.69-2.33,3.13-3.16h-8.86c-.71,0-1.27,.05-2.07,.12v-2.36c.65,.1,1.36,.17,2.07,.17h9.16c.48,0,1.41-.05,1.72-.15l1.36,1.26Zm-6.94,2.29c0,4.22-.08,7.68-4.73,10.17l-1.97-1.62c.54-.19,1.16-.48,1.79-.93,2.16-1.5,2.57-3.3,2.57-6.09,0-.53-.03-.99-.12-1.53h2.46Z"/><path class="cls-2" d="M235.25,434.45c-.22,.37-.54,1.12-.7,1.51-.51,1.36-1.28,3.06-2.29,4.62,1.5,1.22,2.91,2.53,4.04,3.74l-1.75,1.96c-1.19-1.39-2.4-2.57-3.76-3.74-1.5,1.8-3.45,3.69-6.32,5.25l-1.96-1.75c2.77-1.34,4.79-2.99,6.46-5.01-1.21-.95-2.82-2.18-4.56-3.21l1.46-1.75c1.36,.85,3.11,2.04,4.49,3.06,.87-1.36,1.41-2.7,1.87-4.03,.15-.42,.32-1.12,.41-1.56l2.6,.92Z"/><path class="cls-2" d="M241.83,433.89c-.03,.37-.05,.75-.05,1.29v5.75c0,.42,.02,1.09,.05,1.48h-2.52c.02-.32,.08-.99,.08-1.5v-5.73c0-.32-.02-.92-.07-1.29h2.5Zm7.84-.15c-.03,.48-.07,1.02-.07,1.7v3.37c0,3.65-.71,5.22-1.97,6.61-1.12,1.24-2.89,2.07-4.13,2.46l-1.79-1.87c1.7-.39,3.13-1.04,4.17-2.14,1.16-1.28,1.38-2.55,1.38-5.2v-3.23c0-.68-.03-1.22-.1-1.7h2.52Z"/><path class="cls-2" d="M265.81,436.93c-.05,.29-.12,.71-.12,.9-.07,1.84-.27,6.58-1,8.31-.37,.87-1.02,1.31-2.19,1.31-.97,0-1.99-.07-2.82-.14l-.25-2.28c.83,.15,1.72,.24,2.38,.24,.54,0,.78-.19,.97-.6,.49-1.07,.71-4.47,.71-6.31h-3.83c-.63,4.49-2.24,7.16-5.29,9.31l-1.97-1.6c.71-.39,1.55-.97,2.23-1.67,1.58-1.56,2.43-3.47,2.8-6.05h-2.24c-.58,0-1.51,0-2.24,.07v-2.23c.71,.07,1.6,.12,2.24,.12h2.43c.02-.48,.03-.97,.03-1.48,0-.37-.05-1.16-.12-1.56h2.5c-.05,.39-.08,1.11-.1,1.51-.02,.53-.03,1.04-.07,1.53h3.2c.43,0,.87-.05,1.29-.12l1.46,.71Z"/><path class="cls-2" d="M276.75,432.92c-.02,.27-.03,.61-.05,.97,.14,2.35,.99,9.67,7.33,12.65-.63,.48-1.24,1.17-1.56,1.72-3.84-1.9-5.75-5.41-6.7-8.53-.92,3.06-2.7,6.34-6.29,8.53-.36-.53-1.02-1.14-1.7-1.62,6.78-3.76,6.54-11.47,6.66-13.72h2.31Z"/><path class="cls-2" d="M288.63,448.1c-1.04-1.27-2.46-2.74-3.66-3.76l1.77-1.53c1.21,.99,2.84,2.67,3.71,3.72l-1.82,1.56Z"/><path class="cls-2" d="M307.31,436.7c-.42,.43-.95,1-1.31,1.41-.87,.99-2.16,2.26-3.57,3.33,0,1.36-.02,3.21-.02,4.28,0,.68,.07,1.65,.12,2.18h-2.45c.07-.48,.14-1.5,.14-2.18v-2.91c-1.56,.83-3.38,1.53-5.22,2.09l-1.31-2.01c3.28-.73,5.47-1.9,6.94-2.84,1.31-.85,2.36-1.84,2.86-2.55h-6.15c-.61,0-1.68,.03-2.21,.08v-2.23c.65,.1,1.58,.12,2.18,.12h2.94v-.88c0-.53-.03-1.14-.1-1.56h2.43c-.05,.41-.1,1.04-.1,1.56v.88h2.04c.53,0,1-.05,1.41-.17l1.39,1.38Zm-2.4,4.05c1.56,.85,2.45,1.34,4.08,2.46l-1.43,1.87c-1.48-1.17-2.58-1.89-4.06-2.7l1.41-1.63Z"/><path class="cls-2" d="M319.77,445.45c0,.75,.03,1.8,.15,2.23h-2.69c.07-.41,.12-1.48,.12-2.23v-5.58c-1.75,.88-3.88,1.77-5.85,2.31l-1.22-2.07c2.97-.65,5.83-1.9,7.73-3.08,1.72-1.07,3.48-2.58,4.44-3.84l1.82,1.65c-1.29,1.29-2.82,2.57-4.5,3.66v6.95Z"/><path class="cls-2" d="M338.1,438.34c.36,0,1.09-.03,1.55-.1v2.21c-.43-.03-1.07-.05-1.55-.05h-4.1c-.1,1.75-.48,3.18-1.09,4.37-.59,1.17-1.9,2.5-3.42,3.26l-1.99-1.44c1.21-.46,2.4-1.45,3.08-2.43,.7-1.05,.99-2.33,1.05-3.76h-4.67c-.49,0-1.16,.03-1.63,.07v-2.23c.51,.05,1.1,.1,1.63,.1h11.13Zm-8.96-2.33c-.6,0-1.31,.03-1.82,.07v-2.19c.54,.08,1.24,.12,1.8,.12h6.83c.58,0,1.26-.03,1.84-.12v2.19c-.59-.03-1.24-.07-1.84-.07h-6.82Z"/><path class="cls-2" d="M352.23,437.85c-.8,.88-2.28,2.07-3.83,3.08v5.66c0,.59,.02,1.5,.12,1.84h-2.52c.05-.34,.08-1.24,.08-1.84v-4.37c-1.5,.71-3.37,1.46-4.79,1.85l-1.14-1.97c2.19-.46,4.66-1.51,6-2.29,1.73-1.02,3.52-2.43,4.37-3.54l1.7,1.58Z"/><path class="cls-2" d="M366.1,435.12l1.07,.7c-.15,.32-.27,.82-.37,1.17-.39,1.67-1.12,4.3-2.55,6.19-1.53,2.04-3.79,3.72-6.83,4.69l-1.85-2.02c3.38-.8,5.29-2.26,6.66-3.99,1.12-1.41,1.77-3.33,2.01-4.79h-7.92c-.78,0-1.58,.03-2.02,.07v-2.4c.49,.07,1.46,.14,2.02,.14h7.87c.2,0,.49,0,.8-.03-.29-.56-.63-1.16-.95-1.65l1.39-.58c.44,.65,1,1.63,1.31,2.24l-.63,.27Zm1.7-2.94c.42,.61,1.04,1.65,1.36,2.24l-1.41,.61c-.37-.7-.9-1.67-1.36-2.28l1.41-.58Z"/><path class="cls-2" d="M384.31,435.42c-.19,.22-.51,.63-.66,.88-.8,1.33-2.41,3.47-4.1,4.66l-1.75-1.41c1.36-.83,2.69-2.33,3.13-3.16h-8.86c-.71,0-1.27,.05-2.07,.12v-2.36c.65,.1,1.36,.17,2.07,.17h9.16c.48,0,1.41-.05,1.72-.15l1.36,1.26Zm-6.94,2.29c0,4.22-.08,7.68-4.73,10.17l-1.97-1.62c.54-.19,1.16-.48,1.79-.93,2.16-1.5,2.57-3.3,2.57-6.09,0-.53-.03-.99-.12-1.53h2.46Z"/><path class="cls-2" d="M397.06,434.45c-.22,.37-.54,1.12-.7,1.51-.51,1.36-1.28,3.06-2.29,4.62,1.5,1.22,2.91,2.53,4.04,3.74l-1.75,1.96c-1.19-1.39-2.4-2.57-3.76-3.74-1.5,1.8-3.45,3.69-6.32,5.25l-1.96-1.75c2.77-1.34,4.79-2.99,6.46-5.01-1.21-.95-2.82-2.18-4.56-3.21l1.46-1.75c1.36,.85,3.11,2.04,4.49,3.06,.87-1.36,1.41-2.7,1.87-4.03,.15-.42,.32-1.12,.41-1.56l2.6,.92Z"/><path class="cls-2" d="M403.64,433.89c-.03,.37-.05,.75-.05,1.29v5.75c0,.42,.02,1.09,.05,1.48h-2.52c.02-.32,.08-.99,.08-1.5v-5.73c0-.32-.02-.92-.07-1.29h2.5Zm7.84-.15c-.03,.48-.07,1.02-.07,1.7v3.37c0,3.65-.71,5.22-1.97,6.61-1.12,1.24-2.89,2.07-4.13,2.46l-1.79-1.87c1.7-.39,3.13-1.04,4.17-2.14,1.16-1.28,1.38-2.55,1.38-5.2v-3.23c0-.68-.03-1.22-.1-1.7h2.52Z"/><path class="cls-2" d="M427.62,436.93c-.05,.29-.12,.71-.12,.9-.07,1.84-.27,6.58-1,8.31-.37,.87-1.02,1.31-2.19,1.31-.97,0-1.99-.07-2.82-.14l-.25-2.28c.83,.15,1.72,.24,2.38,.24,.54,0,.78-.19,.97-.6,.49-1.07,.71-4.47,.71-6.31h-3.83c-.63,4.49-2.24,7.16-5.29,9.31l-1.97-1.6c.71-.39,1.55-.97,2.23-1.67,1.58-1.56,2.43-3.47,2.8-6.05h-2.24c-.58,0-1.51,0-2.24,.07v-2.23c.71,.07,1.6,.12,2.24,.12h2.43c.02-.48,.03-.97,.03-1.48,0-.37-.05-1.16-.12-1.56h2.5c-.05,.39-.08,1.11-.1,1.51-.02,.53-.03,1.04-.07,1.53h3.2c.43,0,.87-.05,1.29-.12l1.46,.71Z"/><path class="cls-2" d="M436.86,443.1c2.89-1.72,5.12-4.32,6.19-6.61l1.33,2.4c-1.29,2.29-3.55,4.64-6.29,6.29-1.72,1.04-3.91,1.99-6.31,2.4l-1.43-2.24c2.65-.37,4.86-1.24,6.51-2.23Zm0-5.51l-1.73,1.79c-.88-.95-3.01-2.8-4.25-3.67l1.6-1.7c1.19,.8,3.4,2.57,4.39,3.59Z"/></g><g><path class="cls-2" d="M600.77,429.5c3.42-3.06,5.44-5.42,5.44-7.36,0-1.28-.7-2.04-1.89-2.04-.92,0-1.68,.59-2.31,1.29l-1.36-1.36c1.16-1.22,2.28-1.9,3.99-1.9,2.38,0,3.96,1.53,3.96,3.88s-1.89,4.73-4.18,6.97c.63-.07,1.46-.14,2.04-.14h2.74v2.11h-8.43v-1.45Z"/><path class="cls-2" d="M610.8,424.6c0-4.35,1.7-6.48,4.27-6.48s4.25,2.14,4.25,6.48-1.7,6.58-4.25,6.58-4.27-2.24-4.27-6.58Zm6.15,0c0-3.52-.82-4.54-1.89-4.54s-1.9,1.02-1.9,4.54,.82,4.62,1.9,4.62,1.89-1.09,1.89-4.62Z"/><path class="cls-2" d="M620.79,429.5c3.42-3.06,5.44-5.42,5.44-7.36,0-1.28-.7-2.04-1.89-2.04-.92,0-1.68,.59-2.31,1.29l-1.36-1.36c1.16-1.22,2.28-1.9,3.99-1.9,2.38,0,3.96,1.53,3.96,3.88s-1.89,4.73-4.18,6.97c.63-.07,1.46-.14,2.04-.14h2.74v2.11h-8.43v-1.45Z"/><path class="cls-2" d="M630.81,429.5c3.42-3.06,5.44-5.42,5.44-7.36,0-1.28-.7-2.04-1.89-2.04-.92,0-1.68,.59-2.31,1.29l-1.36-1.36c1.16-1.22,2.28-1.9,3.99-1.9,2.38,0,3.96,1.53,3.96,3.88s-1.89,4.73-4.18,6.97c.63-.07,1.46-.14,2.04-.14h2.74v2.11h-8.43v-1.45Z"/><path class="cls-2" d="M656.37,428.8h-5.81v3.64h-2.09v-3.64h-7.65v-1.94h2.69v-4.45h4.96v-2.04h-3.64c-.7,1.21-1.51,2.29-2.31,3.09-.39-.34-1.26-1.02-1.75-1.31,1.53-1.29,2.84-3.47,3.57-5.66l2.06,.53c-.15,.48-.34,.94-.56,1.39h9.6v1.95h-4.88v2.04h4.49v1.87h-4.49v2.58h5.81v1.94Zm-7.9-1.94v-2.58h-2.94v2.58h2.94Z"/><path class="cls-2" d="M670.59,422.56c.36,0,1.11-.03,1.55-.1v2.21c-.42-.03-1.07-.05-1.55-.05h-4.1c-.1,1.75-.48,3.18-1.09,4.37-.59,1.17-1.9,2.5-3.42,3.26l-1.99-1.44c1.21-.46,2.4-1.43,3.08-2.43,.7-1.05,.99-2.33,1.05-3.76h-4.67c-.49,0-1.16,.03-1.63,.07v-2.23c.51,.07,1.11,.1,1.63,.1h11.13Zm-8.97-2.31c-.58,0-1.31,.02-1.82,.05v-2.19c.54,.08,1.24,.14,1.82,.14h5.56c.58,0,1.26-.05,1.84-.14v2.19c-.58-.03-1.24-.05-1.84-.05h-5.56Zm8.4-.39c-.36-.7-.88-1.7-1.34-2.36l1.36-.56c.42,.63,1.02,1.7,1.34,2.33l-1.36,.59Zm2.04-.78c-.36-.71-.9-1.7-1.36-2.35l1.34-.56c.44,.65,1.07,1.72,1.36,2.31l-1.34,.59Z"/><path class="cls-2" d="M674.4,423.07c.61,.05,1.85,.1,2.74,.1h9.13c.78,0,1.55-.07,1.99-.1v2.67c-.41-.02-1.27-.08-1.99-.08h-9.13c-.97,0-2.11,.03-2.74,.08v-2.67Z"/><path class="cls-2" d="M704.37,420.1c-.19,.32-.41,.78-.56,1.21-.44,1.31-1.22,3.03-2.35,4.66,.63,.39,1.21,.78,1.63,1.09l-1.55,1.99c-.41-.36-.95-.76-1.58-1.21-1.51,1.65-3.52,3.18-6.27,4.23l-1.97-1.72c3.01-.92,4.93-2.36,6.34-3.81-1.16-.75-2.31-1.45-3.18-1.94l1.44-1.61c.9,.46,2.06,1.1,3.2,1.79,.83-1.21,1.51-2.6,1.77-3.62h-4.88c-1.19,1.58-2.77,3.21-4.49,4.39l-1.84-1.41c2.99-1.84,4.57-4.16,5.42-5.64,.25-.41,.61-1.19,.76-1.78l2.46,.76c-.41,.59-.85,1.38-1.05,1.73l-.02,.02h3.48c.53,0,1.11-.07,1.48-.19l1.73,1.07Z"/></g></g></svg>