<svg xmlns="http://www.w3.org/2000/svg" viewBox="0 0 800 480"><defs><style>.a{fill:none;stroke:gray;stroke-miterlimit:10;}.b{fill:#98d5f4;}.c{fill:#0071bc;}.d{fill:#4d4d4d;}</style></defs><line class="a" x1="185" y1="421.65" x2="618" y2="421.65"/><rect class="b" x="228" y="187.76" width="90.79" height="73.11"/><rect class="b" x="354.1" y="148.71" width="90.79" height="106.45"/><rect class="b" x="480.21" y="112" width="90.79" height="128.17"/><rect class="c" x="228" y="260.87" width="90.79" height="160.69"/><rect class="c" x="354.1" y="255.16" width="90.79" height="166.4"/><rect class="c" x="480.21" y="240.17" width="90.79" height="181.39"/><path class="d" d="M259.64,456.41H248v-2.65l4.07-4.11c.83-.86,1.49-1.57,2-2.12a7.06,7.06,0,0,0,1.05-1.46,3.11,3.11,0,0,0,.31-1.35,1.52,1.52,0,0,0-.52-1.27,2,2,0,0,0-1.3-.4,3.67,3.67,0,0,0-1.71.43,10.53,10.53,0,0,0-1.83,1.27l-2.14-2.51a15.23,15.23,0,0,1,1.52-1.21,7.3,7.3,0,0,1,1.9-.92,8.72,8.72,0,0,1,2.63-.35,6.44,6.44,0,0,1,2.85.58,4.43,4.43,0,0,1,1.84,1.59,4.14,4.14,0,0,1,.64,2.29,5.9,5.9,0,0,1-.52,2.51,9,9,0,0,1-1.57,2.23c-.69.73-1.53,1.56-2.53,2.48l-1.7,1.57v.13h6.72Z"/><path class="d" d="M272.91,448.2a15.81,15.81,0,0,1-.57,4.53,5.61,5.61,0,0,1-1.84,2.9,5.36,5.36,0,0,1-3.41,1,4.83,4.83,0,0,1-4.43-2.23,11.71,11.71,0,0,1-1.39-6.21,16.27,16.27,0,0,1,.56-4.54,5.62,5.62,0,0,1,1.84-2.91,5.32,5.32,0,0,1,3.42-1A4.83,4.83,0,0,1,271.5,442,11.67,11.67,0,0,1,272.91,448.2Zm-7.75,0a14.61,14.61,0,0,0,.4,4,1.55,1.55,0,0,0,3.06,0,19.9,19.9,0,0,0,0-7.94q-.4-1.35-1.53-1.35t-1.53,1.35A14.71,14.71,0,0,0,265.16,448.2Z"/><path class="d" d="M283.74,456.41h-4v-8.86c0-.19,0-.49,0-.89s0-.82,0-1.27,0-.84,0-1.19a7.07,7.07,0,0,1-.5.54l-.6.54-1.89,1.54-1.95-2.44,5.45-4.39h3.38Z"/><path class="d" d="M293.7,439.78a8,8,0,0,1,2.72.44,4.19,4.19,0,0,1,1.92,1.32,3.37,3.37,0,0,1,.72,2.2,3.63,3.63,0,0,1-.82,2.45,6.23,6.23,0,0,1-2.08,1.55,12.3,12.3,0,0,1,1.6,1.06,5.32,5.32,0,0,1,1.27,1.41,3.53,3.53,0,0,1,.51,1.9,4,4,0,0,1-1.53,3.28,6.69,6.69,0,0,1-4.33,1.25,6.79,6.79,0,0,1-4.4-1.22,4,4,0,0,1-1.47-3.24,4,4,0,0,1,.89-2.71,7.15,7.15,0,0,1,2.19-1.64,7.4,7.4,0,0,1-1.81-1.67,3.83,3.83,0,0,1-.76-2.45,3.32,3.32,0,0,1,.72-2.17,4.31,4.31,0,0,1,1.94-1.32A8.08,8.08,0,0,1,293.7,439.78ZM291.42,452a1.69,1.69,0,0,0,.56,1.31,2.4,2.4,0,0,0,1.65.51,2.6,2.6,0,0,0,1.74-.49,1.59,1.59,0,0,0,.56-1.26,1.66,1.66,0,0,0-.33-1,3.85,3.85,0,0,0-.82-.79c-.32-.22-.62-.41-.9-.58l-.3-.19a5.94,5.94,0,0,0-1.55,1.06A1.94,1.94,0,0,0,291.42,452Zm2.26-9.36a1.84,1.84,0,0,0-1.2.39,1.29,1.29,0,0,0-.48,1.06,1.59,1.59,0,0,0,.49,1.19,4.35,4.35,0,0,0,1.19.83,5,5,0,0,0,1.17-.76,1.57,1.57,0,0,0,.53-1.26,1.28,1.28,0,0,0-.5-1.06A1.88,1.88,0,0,0,293.68,442.61Z"/><path class="d" d="M385.64,456.41H374v-2.65l4.07-4.11c.83-.86,1.49-1.57,2-2.12a7.06,7.06,0,0,0,1.05-1.46,3.11,3.11,0,0,0,.31-1.35,1.52,1.52,0,0,0-.52-1.27,2,2,0,0,0-1.3-.4,3.67,3.67,0,0,0-1.71.43,10.53,10.53,0,0,0-1.83,1.27l-2.14-2.51a15.23,15.23,0,0,1,1.52-1.21,7.3,7.3,0,0,1,1.9-.92,8.72,8.72,0,0,1,2.63-.35,6.44,6.44,0,0,1,2.85.58,4.43,4.43,0,0,1,1.84,1.59,4.14,4.14,0,0,1,.64,2.29,5.9,5.9,0,0,1-.52,2.51,9,9,0,0,1-1.57,2.23c-.69.73-1.53,1.56-2.53,2.48l-1.7,1.57v.13h6.72Z"/><path class="d" d="M398.91,448.2a15.81,15.81,0,0,1-.57,4.53,5.61,5.61,0,0,1-1.84,2.9,5.36,5.36,0,0,1-3.41,1,4.83,4.83,0,0,1-4.43-2.23,11.71,11.71,0,0,1-1.39-6.21,16.27,16.27,0,0,1,.56-4.54,5.62,5.62,0,0,1,1.84-2.91,5.32,5.32,0,0,1,3.42-1A4.83,4.83,0,0,1,397.5,442,11.67,11.67,0,0,1,398.91,448.2Zm-7.75,0a14.61,14.61,0,0,0,.4,4,1.55,1.55,0,0,0,3.06,0,19.9,19.9,0,0,0,0-7.94q-.4-1.35-1.53-1.35t-1.53,1.35A14.71,14.71,0,0,0,391.16,448.2Z"/><path class="d" d="M409.74,456.41h-4v-8.86c0-.19,0-.49,0-.89s0-.82,0-1.27,0-.84,0-1.19a7.07,7.07,0,0,1-.5.54l-.6.54-1.89,1.54-1.95-2.44,5.45-4.39h3.38Z"/><path class="d" d="M425.52,447.09a16.85,16.85,0,0,1-.4,3.7,8.42,8.42,0,0,1-1.36,3,6.46,6.46,0,0,1-2.58,2.06,9.65,9.65,0,0,1-4.06.75c-.32,0-.7,0-1.14,0a9.29,9.29,0,0,1-1.09-.1v-3.13a9.3,9.3,0,0,0,2,.21,6.36,6.36,0,0,0,3-.59,3.29,3.29,0,0,0,1.51-1.64,7.24,7.24,0,0,0,.5-2.44h-.14a4.26,4.26,0,0,1-1.21,1.36,3.83,3.83,0,0,1-2.26.55,4.25,4.25,0,0,1-3.33-1.38,5.63,5.63,0,0,1-1.25-3.91,5.74,5.74,0,0,1,1.52-4.22,5.6,5.6,0,0,1,4.17-1.53,6.16,6.16,0,0,1,3.08.78,5.36,5.36,0,0,1,2.18,2.41A9.19,9.19,0,0,1,425.52,447.09Zm-6-4.18a1.86,1.86,0,0,0-1.45.62,2.87,2.87,0,0,0-.55,2,2.74,2.74,0,0,0,.48,1.71,1.75,1.75,0,0,0,1.47.62,2,2,0,0,0,1.54-.66,2,2,0,0,0,.6-1.39,4.16,4.16,0,0,0-.23-1.35,2.64,2.64,0,0,0-.69-1.08A1.68,1.68,0,0,0,419.54,442.91Z"/><path class="d" d="M514.64,456.41H503v-2.65l4.07-4.11c.83-.86,1.49-1.57,2-2.12a7.06,7.06,0,0,0,1.05-1.46,3.11,3.11,0,0,0,.31-1.35,1.52,1.52,0,0,0-.52-1.27,2,2,0,0,0-1.3-.4,3.67,3.67,0,0,0-1.71.43,10.53,10.53,0,0,0-1.83,1.27l-2.14-2.51a15.23,15.23,0,0,1,1.52-1.21,7.3,7.3,0,0,1,1.9-.92,8.72,8.72,0,0,1,2.63-.35,6.44,6.44,0,0,1,2.85.58,4.43,4.43,0,0,1,1.84,1.59,4.14,4.14,0,0,1,.64,2.29,5.9,5.9,0,0,1-.52,2.51,9,9,0,0,1-1.57,2.23c-.69.73-1.53,1.56-2.53,2.48l-1.7,1.57v.13h6.72Z"/><path class="d" d="M527.91,448.2a15.81,15.81,0,0,1-.57,4.53,5.61,5.61,0,0,1-1.84,2.9,5.36,5.36,0,0,1-3.41,1,4.83,4.83,0,0,1-4.43-2.23,11.71,11.71,0,0,1-1.39-6.21,16.27,16.27,0,0,1,.56-4.54,5.62,5.62,0,0,1,1.84-2.91,5.32,5.32,0,0,1,3.42-1A4.83,4.83,0,0,1,526.5,442,11.67,11.67,0,0,1,527.91,448.2Zm-7.75,0a14.61,14.61,0,0,0,.4,4,1.55,1.55,0,0,0,3.06,0,19.9,19.9,0,0,0,0-7.94q-.4-1.35-1.53-1.35t-1.53,1.35A14.71,14.71,0,0,0,520.16,448.2Z"/><path class="d" d="M541.22,456.41H529.54v-2.65l4.07-4.11c.83-.86,1.49-1.57,2-2.12a6.61,6.61,0,0,0,1-1.46,3,3,0,0,0,.32-1.35,1.52,1.52,0,0,0-.52-1.27,2.06,2.06,0,0,0-1.3-.4,3.64,3.64,0,0,0-1.71.43,10.17,10.17,0,0,0-1.83,1.27l-2.14-2.51A15.23,15.23,0,0,1,531,441a7.23,7.23,0,0,1,1.89-.92,8.84,8.84,0,0,1,2.64-.35,6.44,6.44,0,0,1,2.85.58,4.43,4.43,0,0,1,1.84,1.59,4.14,4.14,0,0,1,.64,2.29,5.76,5.76,0,0,1-.53,2.51,8.71,8.71,0,0,1-1.56,2.23c-.69.73-1.53,1.56-2.53,2.48l-1.7,1.57v.13h6.71Z"/><path class="d" d="M554.49,448.2a15.84,15.84,0,0,1-.56,4.53,5.68,5.68,0,0,1-1.84,2.9,5.36,5.36,0,0,1-3.41,1,4.83,4.83,0,0,1-4.43-2.23,11.71,11.71,0,0,1-1.39-6.21,15.91,15.91,0,0,1,.56-4.54,5.56,5.56,0,0,1,1.84-2.91,5.32,5.32,0,0,1,3.42-1,4.84,4.84,0,0,1,4.41,2.23A11.68,11.68,0,0,1,554.49,448.2Zm-7.75,0a14.54,14.54,0,0,0,.41,4,1.55,1.55,0,0,0,3.06,0,19.9,19.9,0,0,0,0-7.94q-.4-1.35-1.53-1.35t-1.53,1.35A14.64,14.64,0,0,0,546.74,448.2Z"/><path d="M380,136.41H366.74v-3l4.6-4.65c.94-1,1.68-1.77,2.24-2.4a7.61,7.61,0,0,0,1.18-1.65,3.3,3.3,0,0,0,.35-1.52,1.7,1.7,0,0,0-.58-1.44,2.35,2.35,0,0,0-1.47-.46,4.15,4.15,0,0,0-1.94.5,11.77,11.77,0,0,0-2.07,1.43l-2.41-2.84a17.59,17.59,0,0,1,1.71-1.36,8,8,0,0,1,2.15-1,9.55,9.55,0,0,1,3-.41,7.3,7.3,0,0,1,3.23.67,5.09,5.09,0,0,1,2.08,1.79,4.75,4.75,0,0,1,.73,2.59,6.55,6.55,0,0,1-.6,2.83,10.06,10.06,0,0,1-1.77,2.53c-.78.83-1.73,1.76-2.86,2.8l-1.92,1.77v.16H380Z"/><path d="M386.81,133l.18.28c-.15.63-.35,1.33-.59,2.11s-.51,1.56-.8,2.34-.56,1.49-.84,2.13h-3.12c.24-1.11.48-2.28.71-3.53s.41-2.36.54-3.33Z"/><path d="M389.46,128.53a21.15,21.15,0,0,1,.24-3.17,12,12,0,0,1,.82-3,7.87,7.87,0,0,1,1.65-2.47,7.32,7.32,0,0,1,2.73-1.69,11.75,11.75,0,0,1,4.05-.61c.37,0,.8,0,1.32,0a10.16,10.16,0,0,1,1.26.16v3.48c-.35-.07-.73-.12-1.13-.17s-.87-.06-1.37-.06a6.84,6.84,0,0,0-3.27.65,3.75,3.75,0,0,0-1.68,1.84,8.31,8.31,0,0,0-.59,2.79h.16a4.66,4.66,0,0,1,1.43-1.54,4.25,4.25,0,0,1,2.42-.62,4.92,4.92,0,0,1,3.85,1.56,6.36,6.36,0,0,1,1.4,4.39A6.47,6.47,0,0,1,401,135a6.34,6.34,0,0,1-4.69,1.72,7,7,0,0,1-3.5-.87,6.13,6.13,0,0,1-2.46-2.68A10.24,10.24,0,0,1,389.46,128.53Zm6.79,4.6a2,2,0,0,0,1.6-.7,3.3,3.3,0,0,0,.61-2.21,3.1,3.1,0,0,0-.52-1.9,1.93,1.93,0,0,0-1.64-.7,2.26,2.26,0,0,0-1.79.73,2.29,2.29,0,0,0-.65,1.59,4.29,4.29,0,0,0,.26,1.49,2.94,2.94,0,0,0,.79,1.22A1.93,1.93,0,0,0,396.25,133.13Z"/><path d="M406.36,136.41,413,121.54h-8.63v-3.69h13.34v2.7L411,136.41Z"/><path d="M419.52,128.53a22.54,22.54,0,0,1,.23-3.17,12.47,12.47,0,0,1,.82-3,7.87,7.87,0,0,1,1.65-2.47,7.32,7.32,0,0,1,2.73-1.69,11.77,11.77,0,0,1,4.06-.61c.36,0,.8,0,1.31,0a10.16,10.16,0,0,1,1.26.16v3.48c-.34-.07-.72-.12-1.13-.17s-.86-.06-1.36-.06a6.85,6.85,0,0,0-3.28.65,3.75,3.75,0,0,0-1.68,1.84,8.08,8.08,0,0,0-.58,2.79h.15a4.77,4.77,0,0,1,1.43-1.54,4.28,4.28,0,0,1,2.42-.62,4.92,4.92,0,0,1,3.85,1.56,6.31,6.31,0,0,1,1.4,4.39,6.46,6.46,0,0,1-1.72,4.81,6.37,6.37,0,0,1-4.7,1.72,7,7,0,0,1-3.49-.87,6.07,6.07,0,0,1-2.46-2.68A10.11,10.11,0,0,1,419.52,128.53Zm6.78,4.6a2,2,0,0,0,1.6-.7,3.3,3.3,0,0,0,.61-2.21,3.1,3.1,0,0,0-.52-1.9,1.91,1.91,0,0,0-1.63-.7,2.28,2.28,0,0,0-1.8.73,2.34,2.34,0,0,0-.65,1.59,4.54,4.54,0,0,0,.26,1.49,3,3,0,0,0,.8,1.22A1.91,1.91,0,0,0,426.3,133.13Z"/><path d="M509.12,86a4.42,4.42,0,0,1-.54,2.24,4.83,4.83,0,0,1-1.47,1.55,6.86,6.86,0,0,1-2.05.89v.08a6.13,6.13,0,0,1,3.41,1.37,3.78,3.78,0,0,1,1.2,3,5.19,5.19,0,0,1-.81,2.84,5.53,5.53,0,0,1-2.48,2,10.68,10.68,0,0,1-4.33.75,15.26,15.26,0,0,1-2.95-.26,14,14,0,0,1-2.49-.75V95.94a11.16,11.16,0,0,0,4.89,1.22,4.4,4.4,0,0,0,2.75-.64,2.15,2.15,0,0,0,.76-1.75,2,2,0,0,0-.36-1.2,2.28,2.28,0,0,0-1.29-.75,9.72,9.72,0,0,0-2.59-.26H499.5V89.2h1.3a8.22,8.22,0,0,0,2.45-.28,2.25,2.25,0,0,0,1.2-.8A1.91,1.91,0,0,0,504.8,87c0-1.22-.79-1.82-2.39-1.82a5.15,5.15,0,0,0-2.27.47,17.3,17.3,0,0,0-1.55.8l-1.95-3a10.38,10.38,0,0,1,6.29-1.85,7.91,7.91,0,0,1,4.53,1.15A3.68,3.68,0,0,1,509.12,86Z"/><path d="M524.8,91.13a17.84,17.84,0,0,1-.64,5.12,6.39,6.39,0,0,1-2.08,3.28,6.05,6.05,0,0,1-3.86,1.14,5.47,5.47,0,0,1-5-2.52,13.33,13.33,0,0,1-1.57-7,18,18,0,0,1,.64-5.14,6.38,6.38,0,0,1,2.08-3.29,6.05,6.05,0,0,1,3.86-1.14,5.47,5.47,0,0,1,5,2.52A13.19,13.19,0,0,1,524.8,91.13Zm-8.76,0a16.6,16.6,0,0,0,.45,4.48,1.75,1.75,0,0,0,3.46,0,16.6,16.6,0,0,0,.45-4.48,16.89,16.89,0,0,0-.45-4.49c-.3-1-.88-1.52-1.73-1.52s-1.43.51-1.73,1.52A16.89,16.89,0,0,0,516,91.13Z"/><path d="M539.18,86a4.43,4.43,0,0,1-.55,2.24,4.63,4.63,0,0,1-1.47,1.55,6.91,6.91,0,0,1-2,.89v.08a6.17,6.17,0,0,1,3.41,1.37,3.81,3.81,0,0,1,1.19,3,5.27,5.27,0,0,1-.8,2.84,5.56,5.56,0,0,1-2.49,2,10.68,10.68,0,0,1-4.33.75,15.26,15.26,0,0,1-3-.26,13.93,13.93,0,0,1-2.48-.75V95.94a10.73,10.73,0,0,0,2.5.92,10.62,10.62,0,0,0,2.39.3,4.37,4.37,0,0,0,2.74-.64,2.16,2.16,0,0,0,.77-1.75,1.93,1.93,0,0,0-.37-1.2,2.29,2.29,0,0,0-1.28-.75,9.77,9.77,0,0,0-2.59-.26h-1.27V89.2h1.3a8.15,8.15,0,0,0,2.44-.28,2.32,2.32,0,0,0,1.21-.8,2,2,0,0,0,.35-1.15c0-1.22-.8-1.82-2.39-1.82a5.22,5.22,0,0,0-2.28.47,16.89,16.89,0,0,0-1.54.8l-1.95-3A10.32,10.32,0,0,1,533,81.58a7.9,7.9,0,0,1,4.52,1.15A3.69,3.69,0,0,1,539.18,86Z"/><path d="M541.67,92.53a22.54,22.54,0,0,1,.23-3.17,12.47,12.47,0,0,1,.82-3,7.73,7.73,0,0,1,1.66-2.47,7.28,7.28,0,0,1,2.72-1.69,11.81,11.81,0,0,1,4.06-.61c.36,0,.8,0,1.31,0a9.91,9.91,0,0,1,1.26.16V85.3c-.34-.07-.72-.12-1.13-.17s-.86-.06-1.36-.06a6.85,6.85,0,0,0-3.28.65,3.69,3.69,0,0,0-1.67,1.84,8.07,8.07,0,0,0-.59,2.79h.16a4.56,4.56,0,0,1,1.43-1.54,4.23,4.23,0,0,1,2.42-.62,4.9,4.9,0,0,1,3.84,1.56A6.31,6.31,0,0,1,555,94.14,6.47,6.47,0,0,1,553.23,99a6.34,6.34,0,0,1-4.69,1.72,7,7,0,0,1-3.5-.87,6.13,6.13,0,0,1-2.46-2.68A10.11,10.11,0,0,1,541.67,92.53Zm6.79,4.6a2,2,0,0,0,1.6-.7,3.35,3.35,0,0,0,.61-2.21,3.17,3.17,0,0,0-.52-1.9,1.94,1.94,0,0,0-1.64-.7,2.29,2.29,0,0,0-1.8.73,2.34,2.34,0,0,0-.65,1.59,4.31,4.31,0,0,0,.27,1.49,2.84,2.84,0,0,0,.79,1.22A1.91,1.91,0,0,0,548.46,97.13Z"/><path d="M254,176.41H240.74v-3l4.6-4.65c.94-1,1.68-1.77,2.24-2.4a7.61,7.61,0,0,0,1.18-1.65,3.3,3.3,0,0,0,.35-1.52,1.7,1.7,0,0,0-.58-1.44,2.35,2.35,0,0,0-1.47-.46,4.15,4.15,0,0,0-1.94.5,11.77,11.77,0,0,0-2.07,1.43l-2.41-2.84a17.59,17.59,0,0,1,1.71-1.36,8,8,0,0,1,2.15-1,9.55,9.55,0,0,1,3-.41,7.3,7.3,0,0,1,3.23.67,5.09,5.09,0,0,1,2.08,1.79,4.75,4.75,0,0,1,.73,2.59,6.55,6.55,0,0,1-.6,2.83,10.06,10.06,0,0,1-1.77,2.53c-.78.83-1.73,1.76-2.86,2.8l-1.92,1.77v.16H254Z"/><path d="M260.81,173l.18.28c-.15.63-.35,1.33-.59,2.11s-.51,1.56-.8,2.34-.56,1.49-.84,2.13h-3.12c.24-1.11.48-2.28.71-3.53s.41-2.36.54-3.33Z"/><path d="M276.67,176.41H263.46v-3l4.61-4.65c.93-1,1.68-1.77,2.23-2.4a7.28,7.28,0,0,0,1.18-1.65,3.3,3.3,0,0,0,.36-1.52,1.7,1.7,0,0,0-.59-1.44,2.35,2.35,0,0,0-1.47-.46,4.18,4.18,0,0,0-1.94.5,11.37,11.37,0,0,0-2.06,1.43l-2.42-2.84a17.73,17.73,0,0,1,1.72-1.36,7.89,7.89,0,0,1,2.14-1,9.62,9.62,0,0,1,3-.41,7.25,7.25,0,0,1,3.22.67A5,5,0,0,1,275.5,160a4.66,4.66,0,0,1,.73,2.59,6.55,6.55,0,0,1-.6,2.83,10.06,10.06,0,0,1-1.77,2.53c-.78.83-1.73,1.76-2.86,2.8l-1.92,1.77v.16h7.59Z"/><path d="M291.7,165.88a18.07,18.07,0,0,1-.46,4.17,9.33,9.33,0,0,1-1.53,3.45,7.24,7.24,0,0,1-2.91,2.32,10.84,10.84,0,0,1-4.59.85c-.37,0-.79,0-1.29,0s-.9-.07-1.23-.12V173a11,11,0,0,0,2.28.23,7.2,7.2,0,0,0,3.42-.66,3.68,3.68,0,0,0,1.71-1.86,8.25,8.25,0,0,0,.57-2.76h-.16a4.72,4.72,0,0,1-1.38,1.54,4.34,4.34,0,0,1-2.54.62,4.81,4.81,0,0,1-3.77-1.56,6.36,6.36,0,0,1-1.41-4.42,6.48,6.48,0,0,1,1.72-4.77,6.33,6.33,0,0,1,4.7-1.73,6.94,6.94,0,0,1,3.49.89,6.12,6.12,0,0,1,2.47,2.71A10.44,10.44,0,0,1,291.7,165.88Zm-6.76-4.73a2.08,2.08,0,0,0-1.64.7,3.24,3.24,0,0,0-.62,2.21,3.06,3.06,0,0,0,.54,1.92,2,2,0,0,0,1.67.71,2.23,2.23,0,0,0,1.74-.75,2.28,2.28,0,0,0,.67-1.57,4.38,4.38,0,0,0-.26-1.52,2.92,2.92,0,0,0-.78-1.22A1.85,1.85,0,0,0,284.94,161.15Z"/><path d="M306.05,162a4.33,4.33,0,0,1-.55,2.24,4.7,4.7,0,0,1-1.46,1.55,6.86,6.86,0,0,1-2.05.89v.08a6.13,6.13,0,0,1,3.41,1.37,3.78,3.78,0,0,1,1.2,3,5.19,5.19,0,0,1-.81,2.84,5.53,5.53,0,0,1-2.48,2,10.68,10.68,0,0,1-4.33.75,15.26,15.26,0,0,1-3-.26,14,14,0,0,1-2.49-.75v-3.72a11.16,11.16,0,0,0,4.89,1.22,4.4,4.4,0,0,0,2.75-.64,2.15,2.15,0,0,0,.76-1.75,2,2,0,0,0-.36-1.2,2.28,2.28,0,0,0-1.29-.75,9.72,9.72,0,0,0-2.59-.26h-1.27V165.2h1.3a8.1,8.1,0,0,0,2.44-.28,2.24,2.24,0,0,0,1.21-.8,1.91,1.91,0,0,0,.35-1.15c0-1.22-.79-1.82-2.39-1.82a5.15,5.15,0,0,0-2.27.47,16,16,0,0,0-1.55.8l-1.95-3a10.38,10.38,0,0,1,6.29-1.85,7.91,7.91,0,0,1,4.53,1.15A3.68,3.68,0,0,1,306.05,162Z"/><rect class="b" x="64" y="34" width="14" height="14"/><rect class="c" x="64" y="71" width="14" height="14"/><path d="M103.79,39.39v2.28H106V43h-2.22v5c0,.83-.19,1.25-.78,1.5a11,11,0,0,1-3.06.23,4.82,4.82,0,0,0-.45-1.41c1.15,0,2.18,0,2.5,0s.4-.07.4-.36V43H95.54v-1l-2,.62v7.11H92.26V43l-3.16,1-.38-1.33c1-.27,2.21-.61,3.54-1v-4.1H90.51a15.43,15.43,0,0,1-.84,2.79,7.76,7.76,0,0,0-1.06-.62,23,23,0,0,0,1.29-6.31l1.24.21c-.1.87-.23,1.75-.36,2.6h1.48V32.34h1.29v3.82h2v1.33h-2v3.72l2.2-.66.17,1.12h6.48V39.39H95.22V38.08h4.83V35.67H96.34V34.38h3.71V32.32h1.4v2.06h3.8v1.29h-3.8v2.41h4.67v1.31Zm-6.2,4.12a13.45,13.45,0,0,1,2.42,3l-1.14.72a13.53,13.53,0,0,0-2.34-3.09Z"/><path d="M115.27,36.63h-7.49V35.48h7.49Zm-.77,11.95h-4.59v.88h-1.26V43.09h5.85ZM114.56,38v1.12h-5.89V38Zm-5.89,2.51h5.89v1.14h-5.89Zm5.89-6.42h-5.79V33h5.79Zm-4.65,10.12v3.2h3.32v-3.2Zm15.31-2H121v7.45h-1.41V42.2h-4.41V40.87h4.41V36.45H117.6a15.13,15.13,0,0,1-1.78,3.13,6.73,6.73,0,0,0-1.26-.78,15.26,15.26,0,0,0,2.91-6.5l1.39.29a23,23,0,0,1-.76,2.56h6.7v1.3H121v4.42h4.27Z"/><path d="M142.89,41.84v7.79h-1.44V48.49H129.59v1.18h-1.4V41.84h1.4V47.1h5.07V40.62h-5.75V34.13h1.4v5.13h4.35V32.44h1.45v6.82h4.56V34.13h1.46v6.49h-6V47.1h5.34V41.84Z"/><path d="M152.3,43.19v5.17c0,.57-.12.89-.5,1.1a5.69,5.69,0,0,1-2,.19,4.58,4.58,0,0,0-.4-1.1c.68,0,1.23,0,1.44,0s.23,0,.23-.21V43.19H149V36.35h1.79c.11-.59.25-1.29.32-1.88H148v5.7c0,2.75-.19,6.63-1.38,9.19a4.92,4.92,0,0,0-1-.72c1.06-2.43,1.16-5.87,1.16-8.47v-7h7.86v1.25h-2.18l-.49,1.88h2.6v6.84Zm-2,1.12a13.81,13.81,0,0,1-1.36,3.9,5.69,5.69,0,0,0-1-.58,10.45,10.45,0,0,0,1.25-3.53Zm-.19-5.07h3.27V37.39h-3.27Zm0,2.88h3.27V40.24h-3.27Zm4,5.38a18.31,18.31,0,0,0-1.1-3.11l1-.33a20.78,20.78,0,0,1,1.16,3Zm4.29-.28a12.94,12.94,0,0,1-3.51,2.47,11.09,11.09,0,0,0-.91-.9,10.59,10.59,0,0,0,3.25-2.26ZM158,36.27c.11-.56.22-1.25.3-1.84H155V33.22h8v1.21h-3.36c-.16.63-.31,1.28-.46,1.84h3.31v9.85h-6.9V36.27Zm3.3,1.11h-4.42V39.2h4.42Zm0,2.85h-4.42v1.86h4.42Zm0,2.9h-4.42V45h4.42Zm-.53,3.42a20.45,20.45,0,0,1,2.7,2.4l-1.07.74a18.66,18.66,0,0,0-2.67-2.47Z"/><path d="M181.06,35.71V44.6h-1.44V43.51h-5.45v6.16H172.7V43.51h-5.43v1.18h-1.39v-9h6.82V32.32h1.47v3.39Zm-8.36,6.41v-5h-5.43v5Zm6.92,0v-5h-5.45v5Z"/><path d="M103.79,75.39v2.28H106V79h-2.22v5c0,.83-.19,1.25-.78,1.5a11,11,0,0,1-3.06.23,4.82,4.82,0,0,0-.45-1.41c1.15,0,2.18,0,2.5,0s.4-.07.4-.36V79H95.54v-1l-2,.62v7.11H92.26V79l-3.16,1-.38-1.33c1-.27,2.21-.61,3.54-1v-4.1H90.51a15.43,15.43,0,0,1-.84,2.79,7.76,7.76,0,0,0-1.06-.62,23,23,0,0,0,1.29-6.31l1.24.21c-.1.87-.23,1.75-.36,2.6h1.48V68.34h1.29v3.82h2v1.33h-2v3.72l2.2-.66.17,1.12h6.48V75.39H95.22V74.08h4.83V71.67H96.34V70.38h3.71V68.32h1.4v2.06h3.8v1.29h-3.8v2.41h4.67v1.31Zm-6.2,4.12a13.45,13.45,0,0,1,2.42,3l-1.14.72a13.53,13.53,0,0,0-2.34-3.09Z"/><path d="M115.27,72.63h-7.49V71.48h7.49Zm-.77,12h-4.59v.88h-1.26V79.09h5.85ZM114.56,74v1.12h-5.89V74Zm-5.89,2.51h5.89v1.14h-5.89Zm5.89-6.42h-5.79V69h5.79Zm-4.65,10.12v3.2h3.32v-3.2Zm15.31-2H121v7.45h-1.41V78.2h-4.41V76.87h4.41V72.45H117.6a15.13,15.13,0,0,1-1.78,3.13,6.73,6.73,0,0,0-1.26-.78,15.26,15.26,0,0,0,2.91-6.5l1.39.29a23,23,0,0,1-.76,2.56h6.7v1.3H121v4.42h4.27Z"/><path d="M134.83,70.83v14.8h-1.36V82.19c-2.4.4-4.83.76-6.63,1.06l-.25-1.42c.53-.06,1.16-.13,1.84-.23V70.83H127V69.52h9.22v1.31Zm-1.36,0h-3.71v2.53h3.71Zm0,3.78h-3.71v2.64h3.71Zm-3.71,6.8c1.16-.15,2.43-.34,3.71-.53V78.54h-3.71Zm13.89-10.28a23.1,23.1,0,0,1-3.08,9.64,10.59,10.59,0,0,0,3.92,3.53,5.89,5.89,0,0,0-1,1.16A11.83,11.83,0,0,1,139.7,82a13.31,13.31,0,0,1-3.88,3.38,5.39,5.39,0,0,0-.93-1.14,11.68,11.68,0,0,0,4-3.51,26.56,26.56,0,0,1-2.83-8.12l1.35-.24a24.22,24.22,0,0,0,2.34,7,20.72,20.72,0,0,0,2.35-7.11h-6.4V70.93h6.78l.27-.06Z"/><path d="M151.37,73a22.12,22.12,0,0,1-1.56,2.34v10.3h-1.39V77a18.15,18.15,0,0,1-2.22,2,9.72,9.72,0,0,0-.74-1.35,17.71,17.71,0,0,0,4.67-5.13Zm-.23-4.12a18.91,18.91,0,0,1-4.64,4.5,6.16,6.16,0,0,0-.74-1.14,14.5,14.5,0,0,0,4-3.87ZM163,80.48H160.2v3.65c0,.76-.17,1.12-.72,1.35a9.71,9.71,0,0,1-2.89.23,4.93,4.93,0,0,0-.46-1.3c1.07,0,2,0,2.28,0s.38-.09.38-.34V80.48h-7.61V79.27h7.61V77.65h-7.18V76.43h11.08v1.22H160.2v1.62H163Zm-1.24-5.32h-9V68.93h9Zm-8,5.64a16.86,16.86,0,0,1,2.41,2.65l-1.08.76a17.73,17.73,0,0,0-2.34-2.76ZM160.39,70h-6.25v1.52h6.25Zm0,2.55h-6.25v1.54h6.25Z"/><path d="M168.22,76.64a14.68,14.68,0,0,0-3.46-2l.78-1.06a14.93,14.93,0,0,1,3.48,1.9Zm1.54,2.61c-.93,2-2.19,4.38-3.23,6.15l-1.2-.89a60.29,60.29,0,0,0,3.36-6.14Zm-.63-7.6a13.88,13.88,0,0,0-3.36-2.13l.76-1a13.69,13.69,0,0,1,3.42,2ZM179,76.74h1.39v8.91H179V82.08h-6.25a6.86,6.86,0,0,1-2.38,3.78,6.09,6.09,0,0,0-1.1-.8,7,7,0,0,0,2.45-5.87V76.74h1.35v1.12H179Zm.82-5.19a8.77,8.77,0,0,1-2.47,2.68,23,23,0,0,0,5,1.39,3.79,3.79,0,0,0-.78,1.25A22.13,22.13,0,0,1,176.06,75a20.74,20.74,0,0,1-5.81,2,5.28,5.28,0,0,0-.7-1.19,21,21,0,0,0,5.28-1.54,10.68,10.68,0,0,1-2.75-2.74h-2V70.32h5.18v-2h1.43v2H182v1.23ZM179,80.86v-1.8h-5.93v.13a14.21,14.21,0,0,1-.09,1.67Zm-5.43-9.31a9.34,9.34,0,0,0,2.5,2,7.44,7.44,0,0,0,2.19-2Z"/></svg>