<svg xmlns="http://www.w3.org/2000/svg" viewBox="0 0 800 480"><defs><style>.a{fill:#98d5f4;}.b{fill:#0071bc;}.c{fill:none;stroke:gray;stroke-miterlimit:10;stroke-width:0.93px;}.d{fill:#333;}.e{fill:#999;}</style></defs><rect class="a" x="336" y="243.97" width="211" height="73.03"/><rect class="b" x="336" y="162.83" width="291.95" height="73.03"/><line class="c" x1="336.01" y1="380.09" x2="336.01" y2="100.09"/><path d="M655.49,208.41l6.68-14.87h-8.63v-3.69h13.34v2.7l-6.79,15.86Z"/><path d="M681.85,197.88a18.64,18.64,0,0,1-.45,4.17,9.51,9.51,0,0,1-1.54,3.45,7.24,7.24,0,0,1-2.91,2.32,10.84,10.84,0,0,1-4.59.85c-.36,0-.79,0-1.28,0s-.91-.07-1.24-.12V205a11,11,0,0,0,2.29.23,7.26,7.26,0,0,0,3.42-.66,3.7,3.7,0,0,0,1.7-1.86,8.25,8.25,0,0,0,.57-2.76h-.15a5,5,0,0,1-1.38,1.54,4.36,4.36,0,0,1-2.55.62,4.82,4.82,0,0,1-3.77-1.56,6.4,6.4,0,0,1-1.4-4.42,6.48,6.48,0,0,1,1.71-4.77,6.37,6.37,0,0,1,4.71-1.73,6.93,6.93,0,0,1,3.48.89,6.06,6.06,0,0,1,2.47,2.71A10.44,10.44,0,0,1,681.85,197.88Zm-6.76-4.73a2.06,2.06,0,0,0-1.63.7,3.24,3.24,0,0,0-.63,2.21,3,3,0,0,0,.55,1.92,2,2,0,0,0,1.66.71,2.23,2.23,0,0,0,1.74-.75,2.29,2.29,0,0,0,.68-1.57,4.62,4.62,0,0,0-.26-1.52,2.92,2.92,0,0,0-.78-1.22A1.89,1.89,0,0,0,675.09,193.15Z"/><path d="M687.94,189.58a4.1,4.1,0,0,1,3.4,1.53,6.62,6.62,0,0,1,1.22,4.27,7.15,7.15,0,0,1-1.14,4.31,4,4,0,0,1-3.48,1.54,4,4,0,0,1-3.33-1.54,6.88,6.88,0,0,1-1.2-4.31,7.13,7.13,0,0,1,1.12-4.27A4,4,0,0,1,687.94,189.58Zm0,2.87c-.4,0-.68.25-.85.75a7.71,7.71,0,0,0-.24,2.21,8.09,8.09,0,0,0,.24,2.24c.17.52.45.78.85.78s.68-.26.84-.78a7.67,7.67,0,0,0,.25-2.24,7.31,7.31,0,0,0-.25-2.21Q688.59,192.45,688,192.45Zm13.57-2.6-10.3,18.56h-3.38l10.3-18.56Zm-.1,7.15a4.1,4.1,0,0,1,3.4,1.52,6.62,6.62,0,0,1,1.22,4.27,7.17,7.17,0,0,1-1.14,4.31,4,4,0,0,1-3.48,1.54,4,4,0,0,1-3.33-1.54,6.9,6.9,0,0,1-1.2-4.31,7.13,7.13,0,0,1,1.12-4.27A3.94,3.94,0,0,1,701.46,197Zm0,2.83c-.4,0-.68.26-.85.78a10.3,10.3,0,0,0,0,4.42c.17.52.45.78.85.78.73,0,1.09-1,1.09-3S702.24,199.83,701.51,199.83Z"/><path d="M660.79,280.4a6.24,6.24,0,0,1,2.94.67,5,5,0,0,1,2.06,2,6.2,6.2,0,0,1,.75,3.15,6.11,6.11,0,0,1-1.87,4.78q-1.87,1.69-5.59,1.69a14.76,14.76,0,0,1-2.84-.26,9.25,9.25,0,0,1-2.28-.75v-3.72a10.9,10.9,0,0,0,2.32.84,10,10,0,0,0,2.54.35,3.86,3.86,0,0,0,2.43-.66,2.4,2.4,0,0,0,.84-2,2.26,2.26,0,0,0-.84-1.89,4.18,4.18,0,0,0-2.59-.66,7.87,7.87,0,0,0-1.43.14l-1.25.27-1.69-.85.71-9.62h10.29v3.71h-6.5l-.28,3.1.91-.17A7.79,7.79,0,0,1,660.79,280.4Z"/><path d="M670.52,292.41l6.68-14.87h-8.63v-3.69h13.34v2.7l-6.79,15.86Z"/><path d="M687.94,273.58a4.1,4.1,0,0,1,3.4,1.53,6.62,6.62,0,0,1,1.22,4.27,7.15,7.15,0,0,1-1.14,4.31,4,4,0,0,1-3.48,1.54,4,4,0,0,1-3.33-1.54,6.88,6.88,0,0,1-1.2-4.31,7.13,7.13,0,0,1,1.12-4.27A4,4,0,0,1,687.94,273.58Zm0,2.87c-.4,0-.68.25-.85.75a7.71,7.71,0,0,0-.24,2.21,8.09,8.09,0,0,0,.24,2.24c.17.52.45.78.85.78s.68-.26.84-.78a7.67,7.67,0,0,0,.25-2.24,7.31,7.31,0,0,0-.25-2.21Q688.59,276.45,688,276.45Zm13.57-2.6-10.3,18.56h-3.38l10.3-18.56Zm-.1,7.15a4.1,4.1,0,0,1,3.4,1.52,6.62,6.62,0,0,1,1.22,4.27,7.17,7.17,0,0,1-1.14,4.31,4,4,0,0,1-3.48,1.54,4,4,0,0,1-3.33-1.54,6.9,6.9,0,0,1-1.2-4.31,7.13,7.13,0,0,1,1.12-4.27A3.94,3.94,0,0,1,701.46,281Zm0,2.83c-.4,0-.68.26-.85.78a10.3,10.3,0,0,0,0,4.42c.17.52.45.78.85.78.73,0,1.09-1,1.09-3S702.24,283.83,701.51,283.83Z"/><path class="d" d="M162,207.39h7v2H152.88v-2h6.78v-2.26H154.4v-2h5.26V201h-4.29v-1.5c-.69.47-1.39.91-2.11,1.31a8,8,0,0,0-1.43-1.83,20.8,20.8,0,0,0,7.72-6.87h2.33a20.22,20.22,0,0,0,8.14,6.65,10.6,10.6,0,0,0-1.51,2c-.68-.38-1.36-.8-2-1.28V201H162v2.18h5.32v2H162Zm3.7-8.42a22.85,22.85,0,0,1-4.9-4.71,21.64,21.64,0,0,1-4.75,4.71Z"/><path class="d" d="M177,196.94a26.34,26.34,0,0,1-1.44,2.3v10.67h-2.11v-8.13a17.41,17.41,0,0,1-1.48,1.41,14.37,14.37,0,0,0-1.18-2.11A16.26,16.26,0,0,0,175,196.2Zm-.32-4a23.79,23.79,0,0,1-4.54,4.64,18.32,18.32,0,0,0-1.18-1.66,15.59,15.59,0,0,0,3.72-3.76Zm7.48,14.44a12.24,12.24,0,0,0,1.62.11c.51,0,2.49,0,3.15,0a7.4,7.4,0,0,0-.66,2.11h-2.66c-2.61,0-4.73-.63-6.23-2.92a9.07,9.07,0,0,1-1.94,3.28,10.94,10.94,0,0,0-1.73-1.54c1.75-1.65,2.3-4.46,2.45-7.77l2.26.16A29.36,29.36,0,0,1,180,204a5.41,5.41,0,0,0,1.9,2.56v-7.9h-4.46v-2.15h2.6a24.58,24.58,0,0,0-1.79-3.38l1.86-.81a20.52,20.52,0,0,1,2,3.61l-1.22.58h4.54l-1.46-.55a21.16,21.16,0,0,0,1.77-3.78l2.2.76c-.63,1.28-1.31,2.61-1.9,3.57h2.28v2.15h-4.24v2.95h3.73v2.07h-3.73Z"/><path class="d" d="M201.86,205.54a17.15,17.15,0,0,0,6,2.08,10.89,10.89,0,0,0-1.52,2,16.3,16.3,0,0,1-6.38-3.21v3.42h-2.22v-3.31a18,18,0,0,1-6.37,3.08,10.43,10.43,0,0,0-1.44-1.88,19.91,19.91,0,0,0,6-2.23H190.5v-1.86h7.26v-.83h-5.47v-1.64h5.47v-.85h-6.42v-1.77H195a9.24,9.24,0,0,0-.65-1.48l.23,0h-4v-1.84h2.54a16.76,16.76,0,0,0-1.18-2.36l1.94-.66a14.87,14.87,0,0,1,1.45,2.68l-.93.34h1.72v-3.1h2.11v3.1h1.41v-3.1h2.13v3.1h1.69l-.69-.21a15.49,15.49,0,0,0,1.2-2.75l2.38.57c-.54.87-1.05,1.72-1.49,2.39h2.47v1.84h-3.57c-.3.55-.61,1.07-.89,1.52h3.72v1.77H200v.85h5.7v1.64H200v.83h7.39v1.86Zm-5.17-8.47a9,9,0,0,1,.65,1.47l-.32.05h3.55c.23-.45.45-1,.66-1.52Z"/><path class="d" d="M221.85,206.59c1.77.53,3.7,1.22,5,1.73l-2,1.59a51.56,51.56,0,0,0-6.1-2.2l1.58-1.12H215.2l1.44,1a25.68,25.68,0,0,1-5.89,2.28,17.68,17.68,0,0,0-1.71-1.62,22.83,22.83,0,0,0,4.87-1.67H211v-8.42h13.89v8.42Zm2.34-9.12H211.82v-4.75h12.37Zm-11,3.06h9.3v-.82h-9.3Zm0,2.24h9.3V202h-9.3Zm0,2.28h9.3v-.83h-9.3Zm8.56-10.56H214.1v1.23h7.67Z"/><path class="d" d="M231.33,201a12.51,12.51,0,0,1,3.74-9.11l1.81.79a11.89,11.89,0,0,0,0,16.65l-1.81.79A12.51,12.51,0,0,1,231.33,201Z"/><path class="d" d="M254.36,195.36a10.19,10.19,0,0,0-.74,1,19.3,19.3,0,0,1-4.58,5.21l-2-1.58a11.38,11.38,0,0,0,3.5-3.53h-9.9c-.8,0-1.43.05-2.32.13v-2.64a15.56,15.56,0,0,0,2.32.19h10.24a9.78,9.78,0,0,0,1.92-.17Zm-7.75,2.57c0,4.71-.1,8.58-5.28,11.36l-2.21-1.81a7.7,7.7,0,0,0,2-1c2.41-1.67,2.86-3.69,2.86-6.8a10,10,0,0,0-.13-1.71Z"/><path class="d" d="M268.61,194.28a14.27,14.27,0,0,0-.78,1.69,27.21,27.21,0,0,1-2.57,5.17,49.34,49.34,0,0,1,4.53,4.18l-2,2.18a37.66,37.66,0,0,0-4.2-4.18,23.69,23.69,0,0,1-7.07,5.87l-2.18-1.95a20.91,20.91,0,0,0,7.22-5.61,51,51,0,0,0-5.09-3.59l1.63-2c1.52.95,3.48,2.28,5,3.42a21.52,21.52,0,0,0,2.09-4.5,12.83,12.83,0,0,0,.45-1.75Z"/><path class="d" d="M276,193.65c0,.42,0,.84,0,1.45v6.42c0,.47,0,1.21,0,1.65h-2.81c0-.36.1-1.1.1-1.67v-6.4a12.42,12.42,0,0,0-.08-1.45Zm8.76-.17c0,.53-.08,1.14-.08,1.9v3.76c0,4.09-.79,5.84-2.2,7.39a11,11,0,0,1-4.62,2.76l-2-2.09a8.84,8.84,0,0,0,4.65-2.4c1.3-1.42,1.54-2.85,1.54-5.81v-3.61a12.88,12.88,0,0,0-.11-1.9Z"/><path class="d" d="M302.77,197.05a7.76,7.76,0,0,0-.13,1c-.08,2.05-.31,7.35-1.12,9.29a2.34,2.34,0,0,1-2.45,1.46c-1.09,0-2.23-.07-3.16-.15l-.28-2.55a14.88,14.88,0,0,0,2.66.27,1,1,0,0,0,1.08-.66c.55-1.2.8-5,.8-7.05h-4.28c-.7,5-2.51,8-5.91,10.41l-2.2-1.79a10.62,10.62,0,0,0,2.49-1.86,11.1,11.1,0,0,0,3.13-6.76h-2.5c-.65,0-1.69,0-2.51.07v-2.48c.8.07,1.78.13,2.51.13h2.71c0-.53,0-1.08,0-1.65a15.2,15.2,0,0,0-.13-1.75h2.79c-.06.43-.09,1.23-.11,1.69s0,1.16-.08,1.71h3.57a10.15,10.15,0,0,0,1.45-.13Z"/><path class="d" d="M310.05,201a12.51,12.51,0,0,1-3.74,9.12l-1.81-.79a11.89,11.89,0,0,0,0-16.65l1.81-.79A12.51,12.51,0,0,1,310.05,201Z"/><path class="d" d="M150.64,273.23H147.5a10.15,10.15,0,0,1,.8,1.27l-2.09.59a11.28,11.28,0,0,0-1.14-1.86H144a10,10,0,0,1-1.05,1.16v1h7.28v3.77H148V277.1H135.89v2.08h-2.12v-3.77h7v-1.33h.83c-.34-.19-.7-.36-1-.47.15-.11.33-.25.48-.38H138.9a10.21,10.21,0,0,1,.62,1.25l-2,.57a10.29,10.29,0,0,0-.86-1.82h-.32a13.17,13.17,0,0,1-1.52,1.82,11.24,11.24,0,0,0-1.84-1.21,10.23,10.23,0,0,0,2.79-3.86l2.11.57c-.13.3-.28.61-.44.91h4.22v1.28a8.8,8.8,0,0,0,1.81-2.76l2.14.51a9.42,9.42,0,0,1-.45,1h5.51ZM138.88,283h9.76v4.91H146.4v-.52h-7.52v.52h-2.17v-10H147.2v4.24h-8.32Zm0-3.47v1H145v-1Zm0,5.13v1.06h7.52v-1.06Z"/><path class="d" d="M158.6,284.08c-2.09.74-4.37,1.46-6.19,2.05l-.52-2.3c.67-.17,1.45-.38,2.32-.63v-4.46h-1.92v-2.07h1.92v-3.35h-2.09v-2.1h6.27v2.1h-2v3.35h1.71v2.07h-1.71v3.8c.62-.19,1.25-.38,1.86-.59Zm11.28,1.16v2.05H157.67v-2.05h5.24v-1.81H159v-2h3.93v-1.64h-3.8v-8.83H169v8.83h-3.82v1.64h4v2h-4v1.81Zm-8.74-10.81h2v-1.58h-2Zm0,3.42h2v-1.64h-2Zm5.74-5H165v1.58h1.88Zm0,3.36H165v1.64h1.88Z"/><path class="d" d="M188.6,278.91a19,19,0,0,1-2.11,4.88c.17.91.38,1.43.61,1.45s.38-.88.45-2.38a6.28,6.28,0,0,0,1.47,1.25c-.48,3.08-1.37,3.75-2,3.75-.85,0-1.48-.78-1.94-2.17a12.69,12.69,0,0,1-2.48,2.22,10.29,10.29,0,0,0-1.3-1.48,10.88,10.88,0,0,0,1.35-.95h-2.85v1.1h-1.73v-7.94h5.23v6.25a10.44,10.44,0,0,0,1.25-1.46,50.91,50.91,0,0,1-.51-5.62h-6.67v-1.75h1.2a10.14,10.14,0,0,0-.42-2.26l1.1-.27h-1.5v-.7H177v15.05h-1.88v-3.25l-3.84.8-.38-2.08a10.57,10.57,0,0,0,1.12-.17V272.83h-.74v-2h6.52v1h1.86v-1.71h1.92v1.71h1.94v1.65h-1.64l1.29.25c-.28.82-.55,1.67-.76,2.28h1.52c-.05-1.82-.09-3.8-.11-5.91h2v1.43l1.22-.65a12.62,12.62,0,0,1,1.86,3l-1.57.88a13.11,13.11,0,0,0-1.51-2.78c0,1.41,0,2.74.06,4h2.93v1.75h-2.85c0,1,.09,1.94.17,2.79a17,17,0,0,0,.68-2.09Zm-13.47-6.08h-1.25v2.05h1.25Zm0,3.88h-1.25v2.05h1.25Zm0,5.94v-2.07h-1.25v2.3Zm4.46-9.12a8.43,8.43,0,0,1,.5,2.32l-.86.21H182l-1-.23a17.05,17.05,0,0,0,.49-2.3Zm.19,6.67v1.14h1.75V280.2Zm1.75,3.74V282.8h-1.75v1.14Z"/><path class="d" d="M198.17,282.52c-2.5,1.12-5.31,2.32-7.46,3.21l-.76-2.41c.72-.25,1.58-.55,2.53-.93l-.38-11.1,2.35-.09.34,10.27,2.87-1.17Zm7.87,5.34a33.42,33.42,0,0,0-3.55-4.58,13.7,13.7,0,0,1-5.78,4.62,13.11,13.11,0,0,0-1.8-2c6-2.28,8-6.88,8.68-14.68l2.49.22a29.2,29.2,0,0,1-2.32,9.65A42.26,42.26,0,0,1,208,286Zm-7.12-9.75a19.6,19.6,0,0,0-2.83-4.71l2-1a19.6,19.6,0,0,1,3,4.56Z"/><path class="d" d="M226.54,284.67V287H209.27v-2.28h6.8V270.36h2.43v5.43h6.71v2.3H218.5v6.58Z"/><path class="d" d="M231.33,279a12.51,12.51,0,0,1,3.74-9.11l1.81.79a11.89,11.89,0,0,0,0,16.65l-1.81.79A12.51,12.51,0,0,1,231.33,279Z"/><path class="d" d="M254.36,273.36a10.19,10.19,0,0,0-.74,1,19.3,19.3,0,0,1-4.58,5.21l-2-1.58a11.38,11.38,0,0,0,3.5-3.53h-9.9c-.8,0-1.43.05-2.32.13v-2.64a15.56,15.56,0,0,0,2.32.19h10.24a9.78,9.78,0,0,0,1.92-.17Zm-7.75,2.57c0,4.71-.1,8.58-5.28,11.36l-2.21-1.81a7.7,7.7,0,0,0,2-1c2.41-1.67,2.86-3.69,2.86-6.8a10,10,0,0,0-.13-1.71Z"/><path class="d" d="M268.61,272.28a14.27,14.27,0,0,0-.78,1.69,27.21,27.21,0,0,1-2.57,5.17,49.34,49.34,0,0,1,4.53,4.18l-2,2.18a37.66,37.66,0,0,0-4.2-4.18,23.69,23.69,0,0,1-7.07,5.87l-2.18-1.95a20.91,20.91,0,0,0,7.22-5.61,51,51,0,0,0-5.09-3.59l1.63-2c1.52.95,3.48,2.28,5,3.42a21.52,21.52,0,0,0,2.09-4.5,12.83,12.83,0,0,0,.45-1.75Z"/><path class="d" d="M276,271.65c0,.42,0,.84,0,1.45v6.42c0,.47,0,1.21,0,1.65h-2.81c0-.36.1-1.1.1-1.67v-6.4a12.42,12.42,0,0,0-.08-1.45Zm8.76-.17c0,.53-.08,1.14-.08,1.9v3.76c0,4.09-.79,5.84-2.2,7.39a11,11,0,0,1-4.62,2.76l-2-2.09a8.84,8.84,0,0,0,4.65-2.4c1.3-1.42,1.54-2.85,1.54-5.81v-3.61a12.88,12.88,0,0,0-.11-1.9Z"/><path class="d" d="M302.77,275.05a7.76,7.76,0,0,0-.13,1c-.08,2.05-.31,7.35-1.12,9.29a2.34,2.34,0,0,1-2.45,1.46c-1.09,0-2.23-.07-3.16-.15l-.28-2.55a14.88,14.88,0,0,0,2.66.27,1,1,0,0,0,1.08-.66c.55-1.2.8-5,.8-7.05h-4.28c-.7,5-2.51,8-5.91,10.41l-2.2-1.79a10.62,10.62,0,0,0,2.49-1.86,11.1,11.1,0,0,0,3.13-6.76h-2.5c-.65,0-1.69,0-2.51.07v-2.48c.8.07,1.78.13,2.51.13h2.71c0-.53,0-1.08,0-1.65a15.2,15.2,0,0,0-.13-1.75h2.79c-.06.43-.09,1.23-.11,1.69s0,1.16-.08,1.71h3.57a10.15,10.15,0,0,0,1.45-.13Z"/><path class="d" d="M310.05,279a12.51,12.51,0,0,1-3.74,9.12l-1.81-.79a11.89,11.89,0,0,0,0-16.65l1.81-.79A12.51,12.51,0,0,1,310.05,279Z"/><path class="e" d="M97.41,416l1.12-1.94-2-.9.41-1.25,2.18.49.22-2.25h1.34l.2,2.25L103,412l.41,1.25-2,.9,1.14,1.94-1.07.78-1.5-1.7-1.5,1.7Z"/><path class="e" d="M119.9,412.42a8.08,8.08,0,0,0-.66.88,17,17,0,0,1-4.1,4.66l-1.75-1.41a10.09,10.09,0,0,0,3.13-3.16h-8.86c-.71,0-1.27.05-2.07.12v-2.36a13.77,13.77,0,0,0,2.07.17h9.17a8.5,8.5,0,0,0,1.71-.16Zm-6.93,2.3c0,4.21-.09,7.68-4.73,10.16l-2-1.61a6.71,6.71,0,0,0,1.78-.94c2.16-1.5,2.57-3.3,2.57-6.08a8.84,8.84,0,0,0-.12-1.53Z"/><path class="e" d="M134.17,412.61a6.61,6.61,0,0,0-.38,1.19,17.55,17.55,0,0,1-2.55,6.19,13.63,13.63,0,0,1-6.83,4.69l-1.85-2a11.26,11.26,0,0,0,6.66-4,10.78,10.78,0,0,0,2-4.79h-7.92c-.77,0-1.58,0-2,.06v-2.39c.51,0,1.48.13,2,.13h7.86a5.59,5.59,0,0,0,1.34-.13Z"/><path class="e" d="M139.84,410.89c0,.37-.05.75-.05,1.29v5.75c0,.42,0,1.09.05,1.48h-2.51c0-.33.08-1,.08-1.5v-5.73a11.67,11.67,0,0,0-.06-1.29Zm7.84-.15c0,.47-.07,1-.07,1.7v3.36c0,3.66-.71,5.22-2,6.62a9.85,9.85,0,0,1-4.13,2.46L139.73,423a8,8,0,0,0,4.16-2.14c1.16-1.28,1.38-2.55,1.38-5.2v-3.23a13.29,13.29,0,0,0-.1-1.7Z"/><path class="e" d="M163.83,413.93a7.78,7.78,0,0,0-.12.9c-.07,1.84-.27,6.58-1,8.32a2.11,2.11,0,0,1-2.19,1.31c-1,0-2-.07-2.83-.14l-.25-2.28a13.4,13.4,0,0,0,2.38.24.91.91,0,0,0,1-.6c.49-1.07.71-4.47.71-6.3h-3.82c-.63,4.49-2.25,7.16-5.29,9.31l-2-1.59a9.75,9.75,0,0,0,2.23-1.67,10,10,0,0,0,2.8-6.05h-2.24c-.58,0-1.52,0-2.25.07v-2.23c.72.07,1.6.12,2.25.12h2.43c0-.48,0-1,0-1.48a12.1,12.1,0,0,0-.12-1.56h2.5c-.05.39-.08,1.1-.1,1.51s0,1-.07,1.53h3.2a8.15,8.15,0,0,0,1.29-.12Z"/><path class="e" d="M171.67,421.58a17.57,17.57,0,0,1-4,3.59,16.8,16.8,0,0,0-1.82-1.39,13,13,0,0,0,3.74-3Zm8.4-.42a12.43,12.43,0,0,0-.9-1.19l-4.27.17v5.27h-2.16v-5.2c-2.38.08-4.61.13-6.37.18l-.17-2,3.55-.05c.37-.26.76-.54,1.15-.85a25.51,25.51,0,0,0-3.46-2.58l1.39-1.3.85.51a19.87,19.87,0,0,0,1.5-1.66c-1.36.07-2.72.1-4,.12a7.41,7.41,0,0,0-.49-1.82,79.38,79.38,0,0,0,12.37-1.06l1.43,1.7a52.33,52.33,0,0,1-6.56.87l0,0a32.5,32.5,0,0,1-2.75,2.85c.47.34.93.68,1.31,1a37.48,37.48,0,0,0,3.75-3.65l1.94,1.05a48.61,48.61,0,0,1-5.39,4.71c1.5,0,3.06-.05,4.62-.1-.42-.41-.84-.8-1.24-1.14l1.67-1.05a26.64,26.64,0,0,1,4,4Zm-2.5-.44a26.18,26.18,0,0,1,4,3.12l-1.82,1.3a24.64,24.64,0,0,0-3.9-3.27Z"/><path class="e" d="M198,412.42a9.61,9.61,0,0,0-.66.88,17,17,0,0,1-4.1,4.66l-1.75-1.41a10.09,10.09,0,0,0,3.13-3.16h-8.86c-.71,0-1.27.05-2.07.12v-2.36a13.77,13.77,0,0,0,2.07.17h9.17a8.5,8.5,0,0,0,1.71-.16Zm-6.93,2.3c0,4.21-.09,7.68-4.73,10.16l-2-1.61a6.91,6.91,0,0,0,1.79-.94c2.15-1.5,2.56-3.3,2.56-6.08a8.84,8.84,0,0,0-.12-1.53Z"/><path class="e" d="M210.73,411.45A13.56,13.56,0,0,0,210,413a24.5,24.5,0,0,1-2.3,4.63,42.75,42.75,0,0,1,4,3.74L210,423.28a34.93,34.93,0,0,0-3.76-3.74A21.32,21.32,0,0,1,200,424.8L198,423a18.49,18.49,0,0,0,6.46-5,42.9,42.9,0,0,0-4.55-3.21l1.46-1.75c1.36.85,3.11,2,4.49,3.06a19.06,19.06,0,0,0,1.87-4,12,12,0,0,0,.4-1.57Z"/><path class="e" d="M217.31,410.89c0,.37-.05.75-.05,1.29v5.75c0,.42,0,1.09.05,1.48H214.8c0-.33.08-1,.08-1.5v-5.73a11.67,11.67,0,0,0-.06-1.29Zm7.84-.15c0,.47-.07,1-.07,1.7v3.36c0,3.66-.71,5.22-2,6.62a9.85,9.85,0,0,1-4.13,2.46L217.2,423a8,8,0,0,0,4.16-2.14c1.16-1.28,1.38-2.55,1.38-5.2v-3.23a11.52,11.52,0,0,0-.11-1.7Z"/><path class="e" d="M241.3,413.93a7.78,7.78,0,0,0-.12.9c-.07,1.84-.27,6.58-1,8.32a2.11,2.11,0,0,1-2.19,1.31c-1,0-2-.07-2.83-.14l-.25-2.28a13.4,13.4,0,0,0,2.38.24.91.91,0,0,0,1-.6c.49-1.07.71-4.47.71-6.3h-3.82c-.63,4.49-2.25,7.16-5.29,9.31l-2-1.59a9.75,9.75,0,0,0,2.23-1.67,10,10,0,0,0,2.8-6.05h-2.24c-.58,0-1.52,0-2.25.07v-2.23c.72.07,1.6.12,2.25.12h2.43c0-.48,0-1,0-1.48a12.1,12.1,0,0,0-.12-1.56h2.5c-.05.39-.08,1.1-.1,1.51s0,1-.07,1.53h3.2a8.15,8.15,0,0,0,1.29-.12Z"/><path class="e" d="M252.23,409.92c0,.27,0,.61,0,1,.14,2.35,1,9.67,7.33,12.65a6.73,6.73,0,0,0-1.57,1.71,13.45,13.45,0,0,1-6.69-8.53,14.54,14.54,0,0,1-6.29,8.53,7.35,7.35,0,0,0-1.7-1.61c6.78-3.76,6.54-11.47,6.66-13.72Z"/><path class="e" d="M264.12,425.1a33.44,33.44,0,0,0-3.66-3.76l1.77-1.52a30.16,30.16,0,0,1,3.7,3.72Z"/><path class="e" d="M284,412.42a9.61,9.61,0,0,0-.66.88,17,17,0,0,1-4.1,4.66l-1.75-1.41a10.09,10.09,0,0,0,3.13-3.16h-8.86c-.71,0-1.27.05-2.07.12v-2.36a13.77,13.77,0,0,0,2.07.17h9.17a8.5,8.5,0,0,0,1.71-.16Zm-6.93,2.3c0,4.21-.09,7.68-4.73,10.16l-2-1.61a6.91,6.91,0,0,0,1.79-.94c2.15-1.5,2.56-3.3,2.56-6.08a8.84,8.84,0,0,0-.12-1.53Z"/><path class="e" d="M289.72,416.82l-1.24,1.91c-1-.68-2.74-1.82-3.88-2.43l1.23-1.87C287,415,288.85,416.21,289.72,416.82Zm1.36,3.88a17.16,17.16,0,0,0,6.61-6.38l1.31,2.32a20.57,20.57,0,0,1-6.75,6.12,21.89,21.89,0,0,1-5.68,2.09l-1.27-2.23A18.22,18.22,0,0,0,291.08,420.7Zm1.24-7.72-1.26,1.87c-.95-.66-2.72-1.8-3.84-2.43l1.22-1.87C289.57,411.16,291.43,412.37,292.32,413Zm5.06.53-1.47.63a16.15,16.15,0,0,0-1.5-2.67l1.41-.6A26.9,26.9,0,0,1,297.38,413.51Zm2.38-.92-1.44.65a16.09,16.09,0,0,0-1.6-2.59l1.45-.59A21.46,21.46,0,0,1,299.76,412.59Z"/><path class="e" d="M315.71,412.42a8.08,8.08,0,0,0-.66.88A17.14,17.14,0,0,1,311,418l-1.75-1.41a10.09,10.09,0,0,0,3.13-3.16h-8.86c-.71,0-1.27.05-2.07.12v-2.36a13.66,13.66,0,0,0,2.07.17h9.16a8.61,8.61,0,0,0,1.72-.16Zm-6.94,2.3c0,4.21-.08,7.68-4.72,10.16l-2-1.61a6.86,6.86,0,0,0,1.78-.94c2.16-1.5,2.57-3.3,2.57-6.08a10,10,0,0,0-.12-1.53Z"/><path class="e" d="M322.22,421.58a17.36,17.36,0,0,1-4,3.59,15.87,15.87,0,0,0-1.82-1.39,12.73,12.73,0,0,0,3.74-3Zm8.4-.42a9.8,9.8,0,0,0-.9-1.19l-4.27.17v5.27h-2.16v-5.2c-2.38.08-4.6.13-6.37.18l-.17-2,3.55-.05c.38-.26.77-.54,1.16-.85a25.62,25.62,0,0,0-3.47-2.58l1.39-1.3.85.51a19.87,19.87,0,0,0,1.5-1.66c-1.36.07-2.72.1-4,.12a7,7,0,0,0-.49-1.82,79.52,79.52,0,0,0,12.38-1.06l1.42,1.7a52.08,52.08,0,0,1-6.56.87l0,0a32.5,32.5,0,0,1-2.75,2.85c.48.34.93.68,1.31,1a38.76,38.76,0,0,0,3.76-3.65l1.93,1.05a49.43,49.43,0,0,1-5.38,4.71c1.49,0,3.06-.05,4.62-.1-.43-.41-.85-.8-1.24-1.14l1.66-1.05a26.64,26.64,0,0,1,4,4Zm-2.5-.44a25.7,25.7,0,0,1,4,3.12l-1.82,1.3a24.53,24.53,0,0,0-3.89-3.27Z"/><path class="e" d="M348.54,412.42a9.71,9.71,0,0,0-.67.88,16.92,16.92,0,0,1-4.09,4.66L342,416.55a10,10,0,0,0,3.12-3.16H336.3c-.72,0-1.28.05-2.08.12v-2.36a13.79,13.79,0,0,0,2.08.17h9.16a8.61,8.61,0,0,0,1.72-.16Zm-6.94,2.3c0,4.21-.08,7.68-4.72,10.16l-2-1.61a6.75,6.75,0,0,0,1.79-.94c2.16-1.5,2.57-3.3,2.57-6.08a10,10,0,0,0-.12-1.53Z"/><path class="e" d="M361.29,411.45a13.65,13.65,0,0,0-.7,1.51,24.41,24.41,0,0,1-2.29,4.63,43.83,43.83,0,0,1,4,3.74l-1.75,1.95a34.93,34.93,0,0,0-3.76-3.74,21.32,21.32,0,0,1-6.32,5.26L348.56,423a18.58,18.58,0,0,0,6.46-5,44.18,44.18,0,0,0-4.56-3.21l1.46-1.75c1.36.85,3.11,2,4.49,3.06a18.57,18.57,0,0,0,1.87-4,13.92,13.92,0,0,0,.41-1.57Z"/><path class="e" d="M367.87,410.89a11.83,11.83,0,0,0-.05,1.29v5.75c0,.42,0,1.09.05,1.48h-2.52c0-.33.09-1,.09-1.5v-5.73a11.78,11.78,0,0,0-.07-1.29Zm7.83-.15c0,.47-.06,1-.06,1.7v3.36c0,3.66-.72,5.22-2,6.62a9.85,9.85,0,0,1-4.13,2.46L367.75,423a7.94,7.94,0,0,0,4.16-2.14c1.16-1.28,1.38-2.55,1.38-5.2v-3.23a11.68,11.68,0,0,0-.1-1.7Z"/><path class="e" d="M391.85,413.93a7.78,7.78,0,0,0-.12.9c-.06,1.84-.27,6.58-1,8.32a2.1,2.1,0,0,1-2.19,1.31c-1,0-2-.07-2.82-.14l-.26-2.28a13.4,13.4,0,0,0,2.38.24.9.9,0,0,0,1-.6c.49-1.07.72-4.47.72-6.3H385.7c-.63,4.49-2.24,7.16-5.29,9.31l-2-1.59a9.54,9.54,0,0,0,2.23-1.67,10,10,0,0,0,2.8-6.05h-2.24c-.58,0-1.51,0-2.24.07v-2.23c.71.07,1.59.12,2.24.12h2.43c0-.48,0-1,0-1.48a14.13,14.13,0,0,0-.11-1.56h2.49c-.05.39-.08,1.1-.1,1.51s0,1-.07,1.53h3.2a7.94,7.94,0,0,0,1.29-.12Z"/><path class="e" d="M402.79,409.92c0,.27,0,.61-.06,1,.14,2.35,1,9.67,7.33,12.65a6.5,6.5,0,0,0-1.56,1.71,13.46,13.46,0,0,1-6.7-8.53,14.5,14.5,0,0,1-6.29,8.53,7.35,7.35,0,0,0-1.7-1.61c6.78-3.76,6.55-11.47,6.66-13.72Z"/><path class="e" d="M414.67,425.1a32.59,32.59,0,0,0-3.66-3.76l1.77-1.52a31,31,0,0,1,3.71,3.72Z"/><path class="e" d="M429.12,415.85c1.12,3.44,3.19,6.29,6.37,7.67a7.9,7.9,0,0,0-1.51,1.89c-3.2-1.6-5.18-4.44-6.49-8.09a12.79,12.79,0,0,1-2,4.25l1.4-1a22.13,22.13,0,0,1,3.14,3.14l-1.87,1.4a21.25,21.25,0,0,0-2.92-3.22,12.31,12.31,0,0,1-4.44,3.49,6.24,6.24,0,0,0-1.51-1.72,10.27,10.27,0,0,0,6.27-7.84h-5.73v-2.09h6c.14-1.47.12-2.92.14-4.21h2.2c0,1.31,0,2.74-.15,4.21H435v2.09Z"/><path class="e" d="M452.12,419.8h-6.68v5.61h-2.11V419.8h-6.61v-2.06h6.61v-5.15H437.6v-2h13.53v2h-5.69v5.15h6.68Zm-11.63-6.67a15.31,15.31,0,0,1,1.36,3.47l-2,.61a17.28,17.28,0,0,0-1.24-3.53Zm6.31,3.54a21,21,0,0,0,1.48-3.59l2.16.55a35.12,35.12,0,0,1-1.87,3.55Z"/><path class="e" d="M456.57,417.52a13.77,13.77,0,0,0-3.14-1.85l1.05-1.52a14.09,14.09,0,0,1,3.22,1.7Zm2,2.31c-.85,1.79-1.87,3.72-2.86,5.36L454,423.86a52.32,52.32,0,0,0,3.08-5.34ZM457.53,413a12.83,12.83,0,0,0-3.11-1.91l1.1-1.49a12.57,12.57,0,0,1,3.2,1.75Zm11.78,8.84H464.9v3.57h-2.1v-3.57h-4.22V419.9h4.22v-1.78h-3.3v-1.87h3.3v-1.72h-3.88v-1.91h2a12.61,12.61,0,0,0-1.26-2.32l1.8-.75A10.62,10.62,0,0,1,463,412.3l-.76.32h3.36l-.78-.25a15.13,15.13,0,0,0,1.31-2.86l2.19.65c-.47.9-1,1.79-1.39,2.46H469v1.91H464.9v1.72h3.45v1.87H464.9v1.78h4.41Z"/><path class="e" d="M476.6,413.93h-6.15v-1.59h6.15Zm-.43,10.58h-3.34v.66h-1.67v-5.8h5Zm0-8.26h-5V414.7h5Zm-5,.78h5v1.51h-5Zm4.9-5.44h-4.85v-1.53h4.85ZM472.83,421v2h1.66v-2Zm9.57-4.55c-.45.47-.92.93-1.4,1.36h4.51v7.59h-2v-.54h-3.16v.61h-1.93v-5.71c-.42.26-.84.51-1.27.73a13.07,13.07,0,0,0-1.28-1.61,17,17,0,0,0,3.85-2.43h-3.13v-1.81h3v-1.56h-2.35V411.3h2.35v-1.75h1.9v1.75h1.73v1.17a15.43,15.43,0,0,0,1.16-2.16l1.82.61a20.37,20.37,0,0,1-2.21,3.69h2.43v1.81Zm1.07,3h-3.16v1.09h3.16Zm0,3.76V422h-3.16v1.14Zm-2.06-8.57h.12a15.23,15.23,0,0,0,1.22-1.56h-1.34Z"/><path class="e" d="M491.83,418.71v.82h10.71a6.67,6.67,0,0,1-.07.73c-.22,2.78-.46,4-.91,4.52a1.73,1.73,0,0,1-1.14.58,13.81,13.81,0,0,1-1.91,0,4.05,4.05,0,0,0-.49-1.73,13.7,13.7,0,0,0,1.38.06.58.58,0,0,0,.51-.17c.22-.23.4-.93.54-2.56H494v1.95h2v-1.58h1.85v3.11h-7.68v.73h-1.84v-3.8h1.84v1.54h2V421h-2.36V410.81h3.84a10.62,10.62,0,0,0,.3-1.33l2.42.17c-.17.41-.38.8-.56,1.16h4.76v5.64h-8.76v.76h11.29v1.5Zm0-6.51V413h6.72v-.78Zm6.72,2.86v-.84h-6.72v.84Z"/><path class="e" d="M510.19,421.58a17.36,17.36,0,0,1-4,3.59,15.87,15.87,0,0,0-1.82-1.39,12.73,12.73,0,0,0,3.74-3Zm8.4-.42a11,11,0,0,0-.9-1.19l-4.27.17v5.27h-2.16v-5.2c-2.38.08-4.6.13-6.37.18l-.17-2,3.55-.05c.38-.26.77-.54,1.16-.85a25.62,25.62,0,0,0-3.47-2.58l1.39-1.3.85.51a19.87,19.87,0,0,0,1.5-1.66c-1.36.07-2.72.1-4,.12a7,7,0,0,0-.49-1.82,79.52,79.52,0,0,0,12.38-1.06l1.42,1.7a52.08,52.08,0,0,1-6.56.87l0,0a32.5,32.5,0,0,1-2.75,2.85c.48.34.94.68,1.31,1a38.76,38.76,0,0,0,3.76-3.65l1.93,1.05a49.43,49.43,0,0,1-5.38,4.71c1.49,0,3-.05,4.62-.1-.43-.41-.85-.8-1.24-1.14l1.66-1.05a26.64,26.64,0,0,1,4,4Zm-2.5-.44a25.7,25.7,0,0,1,4,3.12l-1.82,1.3a24.53,24.53,0,0,0-3.89-3.27Z"/><path class="e" d="M525.17,425.1a32.59,32.59,0,0,0-3.66-3.76l1.77-1.52a31,31,0,0,1,3.71,3.72Z"/><path class="e" d="M100.42,443.89c0,.73.34.91,1.09,1.07a15.58,15.58,0,0,0,2,.1,28.3,28.3,0,0,0,5.92-.6V447a50,50,0,0,1-6.05.35,20.31,20.31,0,0,1-2.86-.18,2.45,2.45,0,0,1-2.33-2.55V435.3a13.58,13.58,0,0,0-.14-1.77h2.52a13.85,13.85,0,0,0-.12,1.77v3.21a47.8,47.8,0,0,0,5.93-1.9,13.89,13.89,0,0,0,1.86-.92l.91,2.14c-.66.28-1.41.6-2,.82a68.39,68.39,0,0,1-6.72,2.09Z"/><path class="e" d="M124.22,435.4a7.6,7.6,0,0,0-.59,1.06,25.22,25.22,0,0,1-2.67,4.67A47.94,47.94,0,0,1,125.7,446l-1.94,1.69a37.67,37.67,0,0,0-4.28-4.81,22.3,22.3,0,0,1-6.39,4.77l-1.75-1.83a19.31,19.31,0,0,0,7-4.88,13.21,13.21,0,0,0,2.54-4.17h-5.76c-.72,0-1.65.11-2,.12v-2.41a18.56,18.56,0,0,0,2,.12h6a6.11,6.11,0,0,0,1.77-.22Z"/><path class="e" d="M131.48,435.18l2.48.51c-.15.5-.34,1.33-.41,1.7a40.62,40.62,0,0,1-1.44,5.12,23.17,23.17,0,0,1-2.52,4.86l-2.38-1a20.7,20.7,0,0,0,2.66-4.73A24.48,24.48,0,0,0,131.48,435.18Zm4.32.51,2.26-.73c.69,1.33,1.87,3.93,2.5,5.58s1.51,4.25,2,5.93l-2.52.82a52.54,52.54,0,0,0-1.77-6A47,47,0,0,0,135.8,435.69Zm5.4-3a2,2,0,1,1-2,2A2,2,0,0,1,141.2,432.67Zm0,3a1,1,0,1,0-1-1A1,1,0,0,0,141.2,435.68Z"/><path class="e" d="M145.06,443.7c.67.05,1.47.12,2.13.12H157a16.92,16.92,0,0,0,1.87-.12v2.6a18,18,0,0,0-1.87-.1h-9.76c-.66,0-1.5.05-2.13.1Zm1.43-8.31a19.36,19.36,0,0,0,2,.1h7c.68,0,1.41-.05,1.88-.1v2.46c-.49,0-1.29-.07-1.88-.07h-7c-.65,0-1.43,0-2,.07Z"/><path class="e" d="M165,441.59l-2.07.78a34,34,0,0,0-1.55-3.92l2-.73C163.85,438.58,164.67,440.64,165,441.59Zm8.64-3.53c-.2.54-.31.9-.41,1.24a13.68,13.68,0,0,1-2.31,5,13.31,13.31,0,0,1-5.69,4.21l-1.79-1.82a10,10,0,0,0,7.8-9.38Zm-4.88,2.48-2,.71a27,27,0,0,0-1.38-3.77l2-.67C167.69,437.55,168.52,439.76,168.76,440.54Z"/><path class="e" d="M189.43,436.36a7.3,7.3,0,0,0-.56,1.22,17.87,17.87,0,0,1-3,5.68,16,16,0,0,1-6.86,4.79l-2-1.8a13.57,13.57,0,0,0,6.85-4.2,12,12,0,0,0,2.41-4.64h-4.77a19.49,19.49,0,0,1-4.28,4.11l-1.91-1.41a14.93,14.93,0,0,0,5.3-5.47,7.91,7.91,0,0,0,.77-1.79l2.48.82c-.41.59-.83,1.36-1,1.73l0,.09h3.42a5.82,5.82,0,0,0,1.48-.2Z"/><path class="e" d="M196.18,444.58a17.36,17.36,0,0,1-4,3.59,15.87,15.87,0,0,0-1.82-1.39,12.73,12.73,0,0,0,3.74-3Zm8.4-.42a9.8,9.8,0,0,0-.9-1.19l-4.27.17v5.27h-2.16v-5.2c-2.38.08-4.6.13-6.37.18l-.17-2,3.55-.05c.38-.26.77-.54,1.16-.85a25.62,25.62,0,0,0-3.47-2.58l1.39-1.3c.28.16.57.33.85.51a19.87,19.87,0,0,0,1.5-1.66c-1.36.07-2.72.1-4,.12a7.43,7.43,0,0,0-.5-1.82,79.52,79.52,0,0,0,12.38-1.06l1.43,1.7a52.5,52.5,0,0,1-6.57.87l.06,0a32.58,32.58,0,0,1-2.76,2.85c.48.34.94.68,1.31,1a38.76,38.76,0,0,0,3.76-3.65l1.94,1.05a50.5,50.5,0,0,1-5.39,4.71c1.49,0,3.06-.05,4.62-.1-.43-.41-.85-.8-1.24-1.14L202.4,439a26.64,26.64,0,0,1,4,4Zm-2.5-.44a25.7,25.7,0,0,1,4,3.12l-1.82,1.3a24.53,24.53,0,0,0-3.89-3.27Z"/><path class="e" d="M222.5,435.42a9.71,9.71,0,0,0-.67.88,16.92,16.92,0,0,1-4.09,4.66L216,439.55a10.2,10.2,0,0,0,3.13-3.16h-8.86c-.72,0-1.28.05-2.07.12v-2.36a13.55,13.55,0,0,0,2.07.17h9.16a8.61,8.61,0,0,0,1.72-.16Zm-6.94,2.3c0,4.21-.08,7.68-4.72,10.16l-2-1.61a6.86,6.86,0,0,0,1.78-.94c2.16-1.5,2.57-3.3,2.57-6.08a10,10,0,0,0-.12-1.53Z"/><path class="e" d="M235.25,434.45a13.65,13.65,0,0,0-.7,1.51,24.41,24.41,0,0,1-2.29,4.63,43.83,43.83,0,0,1,4,3.74l-1.75,1.95a34.93,34.93,0,0,0-3.76-3.74,21.32,21.32,0,0,1-6.32,5.26L222.52,446a18.58,18.58,0,0,0,6.46-5,44.18,44.18,0,0,0-4.56-3.21l1.46-1.75c1.36.85,3.11,2,4.49,3.06a18.57,18.57,0,0,0,1.87-4,13.92,13.92,0,0,0,.41-1.57Z"/><path class="e" d="M241.83,433.89a11.83,11.83,0,0,0-.05,1.29v5.75c0,.42,0,1.09.05,1.48h-2.52c0-.33.09-1,.09-1.5v-5.73a11.78,11.78,0,0,0-.07-1.29Zm7.84-.15c0,.47-.07,1-.07,1.7v3.36c0,3.66-.72,5.22-2,6.62a9.82,9.82,0,0,1-4.12,2.46L241.71,446a8,8,0,0,0,4.17-2.14c1.15-1.28,1.37-2.55,1.37-5.2v-3.23a11.68,11.68,0,0,0-.1-1.7Z"/><path class="e" d="M265.81,436.93a7.49,7.49,0,0,0-.11.9c-.07,1.84-.28,6.58-1,8.32a2.1,2.1,0,0,1-2.19,1.31c-1,0-2-.07-2.82-.14l-.26-2.28a13.49,13.49,0,0,0,2.38.24.9.9,0,0,0,1-.6c.49-1.07.72-4.47.72-6.3h-3.83c-.63,4.49-2.24,7.16-5.28,9.31l-2-1.59a9.54,9.54,0,0,0,2.23-1.67,10,10,0,0,0,2.8-6.05h-2.24c-.58,0-1.51,0-2.24.07v-2.23c.71.07,1.59.12,2.24.12h2.43c0-.48,0-1,0-1.48a14.19,14.19,0,0,0-.12-1.56H260c-.06.39-.09,1.1-.11,1.51s0,1-.06,1.53h3.19a7.94,7.94,0,0,0,1.29-.12Z"/><path class="e" d="M276.75,432.92c0,.27,0,.61-.05,1,.13,2.35,1,9.67,7.32,12.65a6.5,6.5,0,0,0-1.56,1.71,13.46,13.46,0,0,1-6.7-8.53,14.5,14.5,0,0,1-6.29,8.53,7.35,7.35,0,0,0-1.7-1.61c6.78-3.76,6.55-11.47,6.66-13.72Z"/><path class="e" d="M288.63,448.1a33.36,33.36,0,0,0-3.65-3.76l1.76-1.52a31,31,0,0,1,3.71,3.72Z"/><path class="e" d="M307.31,436.7c-.42.42-.95,1-1.31,1.41a25.61,25.61,0,0,1-3.57,3.33c0,1.36,0,3.21,0,4.28,0,.68.06,1.65.12,2.18h-2.45a19.37,19.37,0,0,0,.13-2.18v-2.9a30.78,30.78,0,0,1-5.21,2.09l-1.31-2a20.77,20.77,0,0,0,6.93-2.84,10.79,10.79,0,0,0,2.86-2.55h-6.16c-.61,0-1.68,0-2.21.09v-2.23a16.47,16.47,0,0,0,2.18.12h2.94v-.89a10.77,10.77,0,0,0-.1-1.56h2.43a14.28,14.28,0,0,0-.1,1.56v.89h2a5.09,5.09,0,0,0,1.41-.17Zm-2.39,4a38.27,38.27,0,0,1,4.08,2.47l-1.43,1.87a26.63,26.63,0,0,0-4.07-2.71Z"/><path class="e" d="M319.77,445.45a11.59,11.59,0,0,0,.16,2.23h-2.69a18.63,18.63,0,0,0,.12-2.23v-5.58a33.31,33.31,0,0,1-5.85,2.32l-1.22-2.08A26,26,0,0,0,318,437a18,18,0,0,0,4.44-3.85l1.82,1.65a27.67,27.67,0,0,1-4.51,3.66Z"/><path class="e" d="M338.1,438.34a12.66,12.66,0,0,0,1.55-.1v2.21c-.43,0-1.07-.05-1.55-.05H334a10.8,10.8,0,0,1-1.08,4.37A8.19,8.19,0,0,1,329.5,448l-2-1.44a7.1,7.1,0,0,0,3.08-2.43,7.41,7.41,0,0,0,1.05-3.76H327c-.5,0-1.16,0-1.64.07v-2.23c.51.05,1.11.1,1.64.1Zm-9-2.32c-.59,0-1.31,0-1.82.06v-2.19a12,12,0,0,0,1.8.12H336a12.5,12.5,0,0,0,1.83-.12v2.19c-.59,0-1.24-.06-1.83-.06Z"/><path class="e" d="M352.23,437.85a20.82,20.82,0,0,1-3.83,3.08v5.66a9.58,9.58,0,0,0,.12,1.83H346a18.2,18.2,0,0,0,.08-1.83v-4.37a32.19,32.19,0,0,1-4.79,1.85l-1.14-2a22.81,22.81,0,0,0,6-2.29,16.9,16.9,0,0,0,4.37-3.54Z"/><path class="e" d="M366.1,435.12l1.07.69a8.86,8.86,0,0,0-.37,1.17,17.22,17.22,0,0,1-2.55,6.19,13.44,13.44,0,0,1-6.84,4.69l-1.85-2a11.17,11.17,0,0,0,6.66-4,10.88,10.88,0,0,0,2-4.8h-7.92c-.78,0-1.58,0-2,.07v-2.4a18.31,18.31,0,0,0,2,.14h7.87c.2,0,.49,0,.8,0a18.34,18.34,0,0,0-1-1.65l1.39-.58a24.39,24.39,0,0,1,1.31,2.24Zm1.7-2.95c.42.62,1,1.65,1.36,2.25l-1.41.61a20.48,20.48,0,0,0-1.36-2.28Z"/><path class="e" d="M384.31,435.42a9.71,9.71,0,0,0-.67.88,17.09,17.09,0,0,1-4.09,4.66l-1.76-1.41a10,10,0,0,0,3.13-3.16h-8.85c-.72,0-1.28.05-2.08.12v-2.36a13.79,13.79,0,0,0,2.08.17h9.16a8.61,8.61,0,0,0,1.72-.16Zm-6.94,2.3c0,4.21-.08,7.68-4.73,10.16l-2-1.61a6.75,6.75,0,0,0,1.79-.94c2.16-1.5,2.56-3.3,2.56-6.08a9.93,9.93,0,0,0-.11-1.53Z"/><path class="e" d="M397.06,434.45a13.65,13.65,0,0,0-.7,1.51,25,25,0,0,1-2.29,4.63,43.83,43.83,0,0,1,4,3.74l-1.75,1.95a34.93,34.93,0,0,0-3.76-3.74,21.32,21.32,0,0,1-6.32,5.26L384.33,446a18.45,18.45,0,0,0,6.45-5,42.9,42.9,0,0,0-4.55-3.21l1.46-1.75c1.36.85,3.11,2,4.49,3.06a19.06,19.06,0,0,0,1.87-4,13.92,13.92,0,0,0,.41-1.57Z"/><path class="e" d="M403.64,433.89a11.83,11.83,0,0,0-.05,1.29v5.75c0,.42,0,1.09.05,1.48h-2.52c0-.33.09-1,.09-1.5v-5.73a11.78,11.78,0,0,0-.07-1.29Zm7.83-.15c0,.47-.06,1-.06,1.7v3.36c0,3.66-.72,5.22-2,6.62a9.85,9.85,0,0,1-4.13,2.46L403.52,446a7.94,7.94,0,0,0,4.16-2.14c1.16-1.28,1.38-2.55,1.38-5.2v-3.23a11.68,11.68,0,0,0-.1-1.7Z"/><path class="e" d="M427.62,436.93a7.78,7.78,0,0,0-.12.9c-.06,1.84-.27,6.58-1,8.32a2.1,2.1,0,0,1-2.19,1.31c-1,0-2-.07-2.82-.14l-.26-2.28a13.4,13.4,0,0,0,2.38.24.9.9,0,0,0,1-.6c.49-1.07.71-4.47.71-6.3h-3.82c-.63,4.49-2.24,7.16-5.29,9.31l-2-1.59a9.54,9.54,0,0,0,2.23-1.67,10,10,0,0,0,2.8-6.05H417c-.58,0-1.51,0-2.24.07v-2.23c.71.07,1.59.12,2.24.12h2.43c0-.48,0-1,0-1.48a12.1,12.1,0,0,0-.12-1.56h2.5c0,.39-.08,1.1-.1,1.51s0,1-.07,1.53h3.2a8,8,0,0,0,1.29-.12Z"/><path class="e" d="M436.86,443.1a16,16,0,0,0,6.18-6.61l1.33,2.4a18.08,18.08,0,0,1-6.29,6.29,18.4,18.4,0,0,1-6.31,2.39l-1.43-2.24A17.38,17.38,0,0,0,436.86,443.1Zm0-5.5-1.74,1.78a35.55,35.55,0,0,0-4.25-3.67l1.6-1.7A36.16,36.16,0,0,1,436.86,437.6Z"/><path class="e" d="M600.77,429.5c3.42-3.06,5.44-5.42,5.44-7.36a1.8,1.8,0,0,0-1.89-2,3.24,3.24,0,0,0-2.31,1.29L600.65,420a5.12,5.12,0,0,1,4-1.9,3.69,3.69,0,0,1,4,3.87c0,2.28-1.89,4.73-4.19,7,.63-.07,1.47-.13,2-.13h2.74v2.1h-8.43Z"/><path class="e" d="M610.8,424.6c0-4.35,1.7-6.47,4.27-6.47s4.25,2.14,4.25,6.47-1.7,6.58-4.25,6.58S610.8,428.94,610.8,424.6Zm6.15,0c0-3.52-.81-4.54-1.88-4.54s-1.91,1-1.91,4.54.82,4.63,1.91,4.63S617,428.14,617,424.6Z"/><path class="e" d="M620.79,429.5c3.42-3.06,5.44-5.42,5.44-7.36a1.8,1.8,0,0,0-1.88-2,3.24,3.24,0,0,0-2.31,1.29L620.68,420a5.09,5.09,0,0,1,4-1.9,3.69,3.69,0,0,1,4,3.87c0,2.28-1.88,4.73-4.18,7,.63-.07,1.46-.13,2-.13h2.74v2.1h-8.44Z"/><path class="e" d="M630.83,424.6c0-4.35,1.7-6.47,4.26-6.47s4.25,2.14,4.25,6.47-1.7,6.58-4.25,6.58S630.83,428.94,630.83,424.6Zm6.15,0c0-3.52-.82-4.54-1.89-4.54s-1.9,1-1.9,4.54.81,4.63,1.9,4.63S637,428.14,637,424.6Z"/><path class="e" d="M656.37,428.8h-5.81v3.64h-2.09V428.8h-7.65v-1.94h2.69v-4.45h5v-2h-3.64a14.63,14.63,0,0,1-2.31,3.09,14.71,14.71,0,0,0-1.75-1.3,13.16,13.16,0,0,0,3.57-5.66l2.06.52a10.54,10.54,0,0,1-.57,1.4h9.61v1.95h-4.88v2h4.49v1.87h-4.49v2.58h5.81Zm-7.9-1.94v-2.58h-2.94v2.58Z"/><path class="e" d="M670.59,422.56a12.39,12.39,0,0,0,1.54-.1v2.21c-.42,0-1.07-.05-1.54-.05h-4.1A10.79,10.79,0,0,1,665.4,429a8.11,8.11,0,0,1-3.41,3.26l-2-1.44a7,7,0,0,0,3.07-2.43,7.32,7.32,0,0,0,1.06-3.76h-4.68c-.49,0-1.15,0-1.63.07v-2.23a12.63,12.63,0,0,0,1.63.1Zm-9-2.31c-.58,0-1.31,0-1.82.05v-2.19a13.55,13.55,0,0,0,1.82.14h5.56a14.24,14.24,0,0,0,1.84-.14v2.19c-.58,0-1.24-.05-1.84-.05Zm8.4-.39a25.07,25.07,0,0,0-1.34-2.36l1.36-.56c.42.63,1,1.7,1.34,2.33Zm2-.78a20.23,20.23,0,0,0-1.36-2.35l1.34-.56a24.23,24.23,0,0,1,1.36,2.31Z"/><path class="e" d="M674.4,423.07c.61.05,1.85.1,2.73.1h9.13c.78,0,1.55-.06,2-.1v2.67c-.41,0-1.28-.08-2-.08h-9.13c-1,0-2.11,0-2.73.08Z"/><path class="e" d="M704.37,420.1a7.18,7.18,0,0,0-.56,1.21,20.08,20.08,0,0,1-2.35,4.65c.63.39,1.21.79,1.63,1.09l-1.55,2a17.18,17.18,0,0,0-1.58-1.21,16.21,16.21,0,0,1-6.27,4.24l-2-1.72a14.33,14.33,0,0,0,6.34-3.81c-1.16-.75-2.31-1.44-3.18-1.94l1.45-1.61c.9.46,2,1.1,3.19,1.78a12.26,12.26,0,0,0,1.77-3.62h-4.88a19.93,19.93,0,0,1-4.49,4.39l-1.83-1.41a15.59,15.59,0,0,0,5.42-5.65,7.51,7.51,0,0,0,.77-1.78l2.46.76c-.41.6-.85,1.38-1,1.74h3.46a5.35,5.35,0,0,0,1.48-.18Z"/></svg>