<svg xmlns="http://www.w3.org/2000/svg" viewBox="0 0 800 480"><defs><style>.a{fill:#0071bc;}.b{fill:#29abe2;}.c{fill:#98d5f4;}.d{fill:#e6e6e6;}</style></defs><path class="a" d="M381,278.59,348.75,112.7A164,164,0,0,1,381,109.6Z"/><path class="b" d="M381,278.59,213.27,258c9.09-74.11,62.19-131,135.48-145.3Z"/><path class="c" d="M381,278.59l8.84-168.76a169,169,0,1,1-177.6,159.92c.19-3.73.57-8.05,1-11.75Z"/><path class="d" d="M381,278.59v-169c3.73,0,5.12,0,8.84.23Z"/><path d="M387.53,83.41h-4.47v-10c0-.23,0-.56,0-1s0-.93,0-1.43,0-1,0-1.36a5.92,5.92,0,0,1-.57.61c-.25.24-.47.44-.68.62l-2.13,1.74-2.21-2.76,6.16-5h3.82Z"/><path d="M396.42,64.58a4.12,4.12,0,0,1,3.41,1.53,6.68,6.68,0,0,1,1.22,4.27,7.15,7.15,0,0,1-1.14,4.31,4.07,4.07,0,0,1-3.49,1.54,4,4,0,0,1-3.33-1.54,6.94,6.94,0,0,1-1.19-4.31A7.06,7.06,0,0,1,393,66.11,3.93,3.93,0,0,1,396.42,64.58Zm.05,2.87c-.39,0-.68.25-.84.75a7.31,7.31,0,0,0-.25,2.21,7.67,7.67,0,0,0,.25,2.24c.16.52.45.78.84.78s.69-.26.85-.78a8,8,0,0,0,.25-2.24,7.65,7.65,0,0,0-.25-2.21C397.16,67.7,396.87,67.45,396.47,67.45Zm13.58-2.6-10.3,18.56h-3.38l10.3-18.56ZM409.94,72a4.12,4.12,0,0,1,3.41,1.52,6.68,6.68,0,0,1,1.22,4.27,7.17,7.17,0,0,1-1.14,4.31,4.07,4.07,0,0,1-3.49,1.54,3.94,3.94,0,0,1-3.32-1.54,6.9,6.9,0,0,1-1.2-4.31,7.06,7.06,0,0,1,1.12-4.27A3.92,3.92,0,0,1,409.94,72Zm.06,2.83c-.4,0-.69.26-.85.78a9.89,9.89,0,0,0,0,4.42c.16.52.45.78.85.78.72,0,1.09-1,1.09-3S410.72,74.83,410,74.83Z"/><path d="M193.83,162.41H180.62v-3l4.6-4.65c.94-1,1.68-1.77,2.24-2.4a7.61,7.61,0,0,0,1.18-1.65,3.43,3.43,0,0,0,.35-1.52,1.73,1.73,0,0,0-.58-1.44,2.37,2.37,0,0,0-1.47-.46,4.15,4.15,0,0,0-1.94.5,11.77,11.77,0,0,0-2.07,1.43l-2.42-2.84a17.73,17.73,0,0,1,1.72-1.36,8,8,0,0,1,2.15-1,9.55,9.55,0,0,1,3-.41,7.33,7.33,0,0,1,3.23.67,5.09,5.09,0,0,1,2.08,1.79,4.74,4.74,0,0,1,.72,2.59,6.7,6.7,0,0,1-.59,2.83A10.06,10.06,0,0,1,191,154c-.78.83-1.74,1.76-2.86,2.8l-1.93,1.77v.16h7.6Z"/><path d="M208.83,153.13a17.84,17.84,0,0,1-.64,5.12,6.39,6.39,0,0,1-2.08,3.28,6.05,6.05,0,0,1-3.86,1.14,5.47,5.47,0,0,1-5-2.52,13.33,13.33,0,0,1-1.57-7,18,18,0,0,1,.64-5.14,6.38,6.38,0,0,1,2.08-3.29,6.05,6.05,0,0,1,3.86-1.14,5.47,5.47,0,0,1,5,2.52A13.19,13.19,0,0,1,208.83,153.13Zm-8.76,0a16.6,16.6,0,0,0,.45,4.48,1.77,1.77,0,0,0,1.73,1.5c.85,0,1.42-.5,1.73-1.5a16.6,16.6,0,0,0,.45-4.48,16.89,16.89,0,0,0-.45-4.49c-.31-1-.88-1.52-1.73-1.52s-1.43.51-1.73,1.52A16.89,16.89,0,0,0,200.07,153.13Z"/><path d="M214.94,143.58a4.1,4.1,0,0,1,3.4,1.53,6.62,6.62,0,0,1,1.22,4.27,7.15,7.15,0,0,1-1.14,4.31,4,4,0,0,1-3.48,1.54,4,4,0,0,1-3.33-1.54,6.88,6.88,0,0,1-1.2-4.31,7.13,7.13,0,0,1,1.12-4.27A4,4,0,0,1,214.94,143.58Zm.05,2.87c-.4,0-.68.25-.85.75a7.71,7.71,0,0,0-.24,2.21,8.09,8.09,0,0,0,.24,2.24c.17.52.45.78.85.78s.68-.26.84-.78a7.67,7.67,0,0,0,.25-2.24,7.31,7.31,0,0,0-.25-2.21Q215.59,146.45,215,146.45Zm13.57-2.6-10.3,18.56h-3.38l10.3-18.56Zm-.1,7.15a4.1,4.1,0,0,1,3.4,1.52,6.62,6.62,0,0,1,1.22,4.27,7.17,7.17,0,0,1-1.14,4.31,4,4,0,0,1-3.48,1.54,4,4,0,0,1-3.33-1.54,6.9,6.9,0,0,1-1.2-4.31,7.13,7.13,0,0,1,1.12-4.27A3.94,3.94,0,0,1,228.46,151Zm0,2.83c-.4,0-.68.26-.85.78a10.3,10.3,0,0,0,0,4.42c.17.52.45.78.85.78.73,0,1.09-1,1.09-3S229.24,153.83,228.51,153.83Z"/><path d="M331.66,80a4.42,4.42,0,0,1-.54,2.24,4.83,4.83,0,0,1-1.47,1.55,6.91,6.91,0,0,1-2,.89v.08a6.1,6.1,0,0,1,3.4,1.37,3.79,3.79,0,0,1,1.2,3,5.19,5.19,0,0,1-.81,2.84,5.48,5.48,0,0,1-2.48,2,10.68,10.68,0,0,1-4.33.75,15.26,15.26,0,0,1-2.95-.26,13.93,13.93,0,0,1-2.48-.75V89.94a11.07,11.07,0,0,0,4.89,1.22,4.37,4.37,0,0,0,2.74-.64,2.16,2.16,0,0,0,.77-1.75,2,2,0,0,0-.37-1.2,2.28,2.28,0,0,0-1.29-.75,9.63,9.63,0,0,0-2.58-.26H322V83.2h1.3a8.17,8.17,0,0,0,2.45-.28,2.32,2.32,0,0,0,1.21-.8,2,2,0,0,0,.35-1.15c0-1.22-.8-1.82-2.39-1.82a5.22,5.22,0,0,0-2.28.47,17.3,17.3,0,0,0-1.55.8l-1.95-3a11.1,11.1,0,0,1,2.6-1.31,10.91,10.91,0,0,1,3.7-.54A7.9,7.9,0,0,1,330,76.73,3.68,3.68,0,0,1,331.66,80Z"/><path d="M338.42,75.58a4.12,4.12,0,0,1,3.41,1.53,6.68,6.68,0,0,1,1.22,4.27,7.15,7.15,0,0,1-1.14,4.31,4.07,4.07,0,0,1-3.49,1.54,4,4,0,0,1-3.33-1.54,6.94,6.94,0,0,1-1.19-4.31A7.06,7.06,0,0,1,335,77.11,3.93,3.93,0,0,1,338.42,75.58Zm.05,2.87c-.39,0-.68.25-.84.75a7.31,7.31,0,0,0-.25,2.21,7.67,7.67,0,0,0,.25,2.24c.16.52.45.78.84.78s.69-.26.85-.78a8,8,0,0,0,.25-2.24,7.65,7.65,0,0,0-.25-2.21C339.16,78.7,338.87,78.45,338.47,78.45Zm13.58-2.6-10.3,18.56h-3.38l10.3-18.56ZM351.94,83a4.12,4.12,0,0,1,3.41,1.52,6.68,6.68,0,0,1,1.22,4.27,7.17,7.17,0,0,1-1.14,4.31,4.07,4.07,0,0,1-3.49,1.54,3.94,3.94,0,0,1-3.32-1.54,6.9,6.9,0,0,1-1.2-4.31,7.06,7.06,0,0,1,1.12-4.27A3.92,3.92,0,0,1,351.94,83Zm.06,2.83c-.4,0-.69.26-.85.78a9.89,9.89,0,0,0,0,4.42c.16.52.45.78.85.78.72,0,1.09-1,1.09-3S352.72,85.83,352,85.83Z"/><path d="M554.49,388.41l6.68-14.87h-8.63v-3.69h13.34v2.7l-6.79,15.86Z"/><path d="M567.65,380.53a21.13,21.13,0,0,1,.23-3.17,12.47,12.47,0,0,1,.82-3,7.87,7.87,0,0,1,1.65-2.47,7.32,7.32,0,0,1,2.73-1.69,11.77,11.77,0,0,1,4.06-.61c.36,0,.8,0,1.31.05a10.16,10.16,0,0,1,1.26.16v3.48c-.35-.07-.72-.12-1.13-.17s-.86-.06-1.37-.06a6.84,6.84,0,0,0-3.27.65,3.75,3.75,0,0,0-1.68,1.84,8.08,8.08,0,0,0-.58,2.79h.15a4.66,4.66,0,0,1,1.43-1.54,4.25,4.25,0,0,1,2.42-.62,4.92,4.92,0,0,1,3.85,1.56,6.36,6.36,0,0,1,1.4,4.39A6.47,6.47,0,0,1,579.2,387a6.33,6.33,0,0,1-4.69,1.72,7,7,0,0,1-3.5-.87,6.05,6.05,0,0,1-2.45-2.68A10.11,10.11,0,0,1,567.65,380.53Zm6.78,4.6a2,2,0,0,0,1.6-.7,3.3,3.3,0,0,0,.61-2.21,3.1,3.1,0,0,0-.52-1.9,1.93,1.93,0,0,0-1.64-.7,2.26,2.26,0,0,0-1.79.73,2.34,2.34,0,0,0-.65,1.59,4.54,4.54,0,0,0,.26,1.49,2.94,2.94,0,0,0,.79,1.22A1.93,1.93,0,0,0,574.43,385.13Z"/><path d="M586.94,369.58a4.1,4.1,0,0,1,3.4,1.53,6.62,6.62,0,0,1,1.22,4.27,7.15,7.15,0,0,1-1.14,4.31,4,4,0,0,1-3.48,1.54,4,4,0,0,1-3.33-1.54,6.88,6.88,0,0,1-1.2-4.31,7.13,7.13,0,0,1,1.12-4.27A4,4,0,0,1,586.94,369.58Zm0,2.87c-.4,0-.68.25-.85.75a7.71,7.71,0,0,0-.24,2.21,8,8,0,0,0,.24,2.23c.17.53.45.79.85.79s.68-.26.84-.79a7.55,7.55,0,0,0,.25-2.23,7.31,7.31,0,0,0-.25-2.21Q587.59,372.45,587,372.45Zm13.57-2.6-10.3,18.56h-3.38l10.3-18.56Zm-.1,7.15a4.1,4.1,0,0,1,3.4,1.52,6.62,6.62,0,0,1,1.22,4.27,7.17,7.17,0,0,1-1.14,4.31,4,4,0,0,1-3.48,1.54,4,4,0,0,1-3.33-1.54,6.9,6.9,0,0,1-1.2-4.31,7.13,7.13,0,0,1,1.12-4.27A3.94,3.94,0,0,1,600.46,377Zm0,2.83c-.4,0-.68.26-.85.78a10.3,10.3,0,0,0,0,4.42c.17.52.45.78.85.78.73,0,1.09-1,1.09-3S601.24,379.83,600.51,379.83Z"/><path d="M374.1,36.71c.82,0,4.7-.15,5.78-.28a5.31,5.31,0,0,0,1-.19l1,1.1a7.58,7.58,0,0,0-1,.7c-1.41,1.16-4.13,3.42-5.63,4.62a89.06,89.06,0,0,1,8.93-.57v1.42a27.32,27.32,0,0,0-4.77.1c-1.82.24-3.61,1.8-3.61,3.55s1.52,2.53,3.23,2.75a11.62,11.62,0,0,0,2.7.08l-.3,1.54c-4.6.19-7.11-1.25-7.11-4.14a4.47,4.47,0,0,1,2.19-3.54c-2,.17-4.52.48-6.77.84l-.13-1.44c1-.1,2.28-.27,3.23-.38A75.8,75.8,0,0,0,379,37.79c-.83.06-4.1.23-4.92.31l-1.44.11-.08-1.56A8.9,8.9,0,0,0,374.1,36.71Z"/><path d="M394.26,49.88a13.14,13.14,0,0,0,1.62-.23,5.64,5.64,0,0,0,4.77-5.57,5.22,5.22,0,0,0-5-5.45A40.33,40.33,0,0,1,394.53,44c-1.16,3.86-2.66,5.86-4.41,5.86s-3.36-1.94-3.36-5c0-4.08,3.65-7.65,8.24-7.65a6.83,6.83,0,0,1,7.22,6.91c0,4-2.6,6.59-7.08,7.18ZM393,43.72a31,31,0,0,0,1-5.07,6.55,6.55,0,0,0-5.81,6.08c0,2.37,1.1,3.42,1.92,3.42S392.06,46.89,393,43.72Z"/><path d="M410.05,35.38a28.32,28.32,0,0,1-1.92,4V52.23h-1.38V41.56a22.8,22.8,0,0,1-1.88,2.29,11.16,11.16,0,0,0-.8-1.33A21.32,21.32,0,0,0,408.76,35Zm9,15.35c1.16,0,1.35-.51,1.52-2.75a4.32,4.32,0,0,0,1.31.59c-.25,2.6-.69,3.43-2.78,3.43h-4.95c-2.25,0-2.93-.53-2.93-2.6V43.23l-1.84.72-.55-1.24,2.39-.93v-5h1.39v4.44l2.77-1.08V34.94h1.35v4.7l3-1.14.17-.16.25-.2,1,.4-.06.24a55.62,55.62,0,0,1-.23,6.95,1.48,1.48,0,0,1-1.13,1.39,8.09,8.09,0,0,1-1.92.13,4.21,4.21,0,0,0-.35-1.33c.52,0,1.2,0,1.45,0s.53-.07.64-.57a37.88,37.88,0,0,0,.21-5.47l-3,1.16v7h-1.35V41.61l-2.77,1.1V49.4c0,1.08.24,1.33,1.57,1.33Z"/><path d="M204.49,117.29v8.89h-1.44V125.1H197.6v6.15h-1.47V125.1H190.7v1.17h-1.39v-9h6.82v-3.38h1.47v3.38Zm-8.36,6.42v-5H190.7v5Zm6.92,0v-5H197.6v5Z"/><path d="M223.7,114.78v16.49h-1.46v-1H209.53v1h-1.41V114.78ZM222.24,129V116.09H209.53V129Zm-1.1-2.95v1.2H210.78v-1.2h4.37v-3.19h-3.57v-1.21h3.57V119h-4.1v-1.27h9.71V119h-4.28v2.7h3.8v1.21h-3.8v3.19Zm-2.57-2.84a11.66,11.66,0,0,1,1.92,2.07l-1,.57a13.64,13.64,0,0,0-1.84-2.15Z"/><path d="M308.17,49c-.14.19-.38.48-.52.69a18.26,18.26,0,0,1-4.73,5.24l-1.25-1a12.84,12.84,0,0,0,4.14-4.26H295c-.7,0-1.41,0-2.17.11V48a19.26,19.26,0,0,0,2.17.16h10.91a9,9,0,0,0,1.33-.12Zm-7.58,2.51c0,5.15-.46,8.63-5.3,11l-1.39-1.14a7,7,0,0,0,1.69-.84c2.94-1.8,3.36-4.52,3.36-7.69a13.1,13.1,0,0,0-.07-1.37Z"/><path d="M322.23,48a14.48,14.48,0,0,0-.63,1.38A25.61,25.61,0,0,1,318.75,55a51.91,51.91,0,0,1,4.67,4.33l-1.19,1.33a42.15,42.15,0,0,0-4.49-4.37,23.22,23.22,0,0,1-7.43,6.14L309,61.2a21.18,21.18,0,0,0,7.54-6,54.64,54.64,0,0,0-5.34-3.83l1-1.2c1.61,1,3.82,2.58,5.32,3.74a21.73,21.73,0,0,0,2.56-5.17,11.44,11.44,0,0,0,.38-1.4Z"/><path d="M329.09,47.54c0,.36-.06.91-.06,1.37v6.34c0,.48,0,1.1.06,1.45h-1.75c0-.29.08-.9.08-1.47V48.91c0-.34,0-1-.08-1.37Zm8.79-.13c0,.45-.07,1-.07,1.63v3.08c0,4.56-.61,6.06-2,7.69a10.18,10.18,0,0,1-4.52,2.78l-1.24-1.31a8.75,8.75,0,0,0,4.56-2.53c1.37-1.58,1.6-3.12,1.6-6.71V49c0-.63-.06-1.18-.1-1.63Z"/><path d="M355.86,50.81a5.58,5.58,0,0,0-.1.93c-.07,1.82-.3,7.35-1.16,9.17a2,2,0,0,1-2,1.14c-1,0-2.07,0-3.06-.11l-.19-1.58a21.83,21.83,0,0,0,2.83.21,1,1,0,0,0,1.1-.62c.73-1.45,1-6.12,1-8.15H348.9c-.68,5.45-2.66,8.34-5.83,10.52L341.7,61.2a9.72,9.72,0,0,0,1.94-1.41c1.88-1.71,3.25-4.08,3.76-8h-3.19a21.66,21.66,0,0,0-2.18.07V50.26a21.38,21.38,0,0,0,2.16.11h3.35c0-.61.07-1.25.07-1.94a12.45,12.45,0,0,0-.13-1.57h1.78c-.05.43-.09,1.1-.11,1.55,0,.69-.06,1.33-.09,2h4.52a7.58,7.58,0,0,0,1.21-.09Z"/><path d="M572.33,342.09a25.56,25.56,0,0,1,5.13,5.3l-1.22.93a15.67,15.67,0,0,0-1.34-1.82c-5.17.28-10.64.47-14.12.62l-.09-1.4,2.85-.1a39.82,39.82,0,0,0,3.15-5.77l1.56.53a52.21,52.21,0,0,1-3.08,5.17l8.53-.36a32.72,32.72,0,0,0-2.47-2.3Zm-9.42,7.12h12v8h-1.5v-.79h-9.1v.83h-1.42Zm1.42,1.33v4.53h9.1v-4.53Z"/><path d="M582.44,348.17a13.55,13.55,0,0,0-3.25-2l.8-1.05a13.79,13.79,0,0,1,3.27,1.88Zm-2.73,8a53.72,53.72,0,0,0,3.07-6.06l1.1.84c-.85,2-2,4.33-2.94,6.09Zm3.66-12.9a13.44,13.44,0,0,0-3.21-2.13l.8-1a12.34,12.34,0,0,1,3.23,2Zm3.8.48a10.1,10.1,0,0,1-2.55,3.13,9.76,9.76,0,0,0-1-.76,7.52,7.52,0,0,0,2.32-2.7Zm2.26.24a4.2,4.2,0,0,1-2.41,4,7.73,7.73,0,0,0-1-.74,3.44,3.44,0,0,0,2.19-3.28v-1.07h-3.78v-1.2h5.14v-1.74H591v1.74h5.49v1.2h-4.05v3.46c0,.59-.07.89-.51,1.08a6.29,6.29,0,0,1-2,.17,4.25,4.25,0,0,0-.42-1.06c.72,0,1.27,0,1.48,0s.21-.08.21-.23v-3.44h-1.73Zm6.42,8.86s0,.41-.07.58c-.4,2.06-.8,3-1.31,3.46a2,2,0,0,1-1.26.38,21.74,21.74,0,0,1-2.47,0,2.81,2.81,0,0,0-.38-1.19,21.86,21.86,0,0,0,2.34.11,1.07,1.07,0,0,0,.7-.13,3.77,3.77,0,0,0,.86-2H586c-.07.22-.13.45-.21.66l-1.31-.21a32.59,32.59,0,0,0,1.1-3.95h8.15V349H584.7v-1.1h10.37v3.59h-8.34c-.11.42-.22.86-.36,1.28Zm-1.75-9.37a13.44,13.44,0,0,1,2.47,2.81l-1.08.67A13.19,13.19,0,0,0,593.1,344Z"/></svg>