<svg xmlns="http://www.w3.org/2000/svg" viewBox="0 0 800 260"><defs><style>.a{fill:#0071bc;}.b{fill:#98d5f4;}.c{fill:none;stroke:gray;stroke-miterlimit:10;}.d{fill:#333;}.e{fill:#999;}</style></defs><rect class="a" x="324.01" y="52.54" width="311.99" height="65.59"/><rect class="b" x="324.01" y="125.41" width="140.4" height="65.59"/><line class="c" x1="324.5" y1="225" x2="324.5" y2="19"/><path d="M666.83,98.41H653.62v-3l4.6-4.65c.94-1,1.68-1.77,2.24-2.4a7.61,7.61,0,0,0,1.18-1.65A3.43,3.43,0,0,0,662,85.2a1.73,1.73,0,0,0-.58-1.44,2.37,2.37,0,0,0-1.47-.46,4.15,4.15,0,0,0-1.94.5,11.77,11.77,0,0,0-2.07,1.43l-2.42-2.84A17.73,17.73,0,0,1,655.23,81a8,8,0,0,1,2.15-1,9.55,9.55,0,0,1,3-.41,7.33,7.33,0,0,1,3.23.67A5.09,5.09,0,0,1,665.66,82a4.74,4.74,0,0,1,.72,2.59,6.7,6.7,0,0,1-.59,2.83A10.06,10.06,0,0,1,664,90c-.78.83-1.74,1.76-2.86,2.8l-1.93,1.77v.16h7.6Z"/><path d="M681.83,89.13a17.84,17.84,0,0,1-.64,5.12,6.39,6.39,0,0,1-2.08,3.28,6.05,6.05,0,0,1-3.86,1.14,5.47,5.47,0,0,1-5-2.52,13.33,13.33,0,0,1-1.57-7,18,18,0,0,1,.64-5.14,6.38,6.38,0,0,1,2.08-3.29,6.05,6.05,0,0,1,3.86-1.14,5.47,5.47,0,0,1,5,2.52A13.19,13.19,0,0,1,681.83,89.13Zm-8.76,0a16.6,16.6,0,0,0,.45,4.48,1.77,1.77,0,0,0,1.73,1.5c.85,0,1.42-.5,1.73-1.5a16.6,16.6,0,0,0,.45-4.48,16.89,16.89,0,0,0-.45-4.49c-.31-1-.88-1.52-1.73-1.52s-1.43.51-1.73,1.52A16.89,16.89,0,0,0,673.07,89.13Z"/><path d="M687.94,79.58a4.1,4.1,0,0,1,3.4,1.53,6.62,6.62,0,0,1,1.22,4.27,7.15,7.15,0,0,1-1.14,4.31,4,4,0,0,1-3.48,1.54,4,4,0,0,1-3.33-1.54,6.88,6.88,0,0,1-1.2-4.31,7.13,7.13,0,0,1,1.12-4.27A4,4,0,0,1,687.94,79.58Zm0,2.87c-.4,0-.68.25-.85.75a7.71,7.71,0,0,0-.24,2.21,8,8,0,0,0,.24,2.23c.17.53.45.79.85.79s.68-.26.84-.79a7.55,7.55,0,0,0,.25-2.23,7.31,7.31,0,0,0-.25-2.21Q688.59,82.45,688,82.45Zm13.57-2.6-10.3,18.56h-3.38l10.3-18.56Zm-.1,7.15a4.1,4.1,0,0,1,3.4,1.52,6.62,6.62,0,0,1,1.22,4.27,7.17,7.17,0,0,1-1.14,4.31,4,4,0,0,1-3.48,1.54,4,4,0,0,1-3.33-1.54,6.9,6.9,0,0,1-1.2-4.31,7.13,7.13,0,0,1,1.12-4.27A3.94,3.94,0,0,1,701.46,87Zm0,2.83c-.4,0-.68.26-.85.78a10.3,10.3,0,0,0,0,4.42c.17.52.45.78.85.78.73,0,1.09-1,1.09-3S702.24,89.83,701.51,89.83Z"/><path d="M681.85,160.88a18.64,18.64,0,0,1-.45,4.17,9.51,9.51,0,0,1-1.54,3.45,7.24,7.24,0,0,1-2.91,2.32,10.84,10.84,0,0,1-4.59.85c-.36,0-.79,0-1.28,0s-.91-.07-1.24-.12V168a11,11,0,0,0,2.29.23,7.26,7.26,0,0,0,3.42-.66,3.7,3.7,0,0,0,1.7-1.86,8.25,8.25,0,0,0,.57-2.76h-.15a5,5,0,0,1-1.38,1.54,4.36,4.36,0,0,1-2.55.62,4.82,4.82,0,0,1-3.77-1.56,6.4,6.4,0,0,1-1.4-4.42,6.48,6.48,0,0,1,1.71-4.77,6.37,6.37,0,0,1,4.71-1.73,6.93,6.93,0,0,1,3.48.89,6.06,6.06,0,0,1,2.47,2.71A10.44,10.44,0,0,1,681.85,160.88Zm-6.76-4.73a2.06,2.06,0,0,0-1.63.7,3.24,3.24,0,0,0-.63,2.21,3,3,0,0,0,.55,1.92,2,2,0,0,0,1.66.71,2.23,2.23,0,0,0,1.74-.75,2.29,2.29,0,0,0,.68-1.57,4.62,4.62,0,0,0-.26-1.52,2.92,2.92,0,0,0-.78-1.22A1.89,1.89,0,0,0,675.09,156.15Z"/><path d="M687.94,152.58a4.1,4.1,0,0,1,3.4,1.53,6.62,6.62,0,0,1,1.22,4.27,7.15,7.15,0,0,1-1.14,4.31,4,4,0,0,1-3.48,1.54,4,4,0,0,1-3.33-1.54,6.88,6.88,0,0,1-1.2-4.31,7.13,7.13,0,0,1,1.12-4.27A4,4,0,0,1,687.94,152.58Zm0,2.87c-.4,0-.68.25-.85.75a7.71,7.71,0,0,0-.24,2.21,8,8,0,0,0,.24,2.23c.17.53.45.79.85.79s.68-.26.84-.79a7.55,7.55,0,0,0,.25-2.23,7.31,7.31,0,0,0-.25-2.21Q688.59,155.45,688,155.45Zm13.57-2.6-10.3,18.56h-3.38l10.3-18.56Zm-.1,7.15a4.1,4.1,0,0,1,3.4,1.52,6.62,6.62,0,0,1,1.22,4.27,7.17,7.17,0,0,1-1.14,4.31,4,4,0,0,1-3.48,1.54,4,4,0,0,1-3.33-1.54,6.9,6.9,0,0,1-1.2-4.31,7.13,7.13,0,0,1,1.12-4.27A3.94,3.94,0,0,1,701.46,160Zm0,2.83c-.4,0-.68.26-.85.78a10.3,10.3,0,0,0,0,4.42c.17.52.45.78.85.78.73,0,1.09-1,1.09-3S702.24,162.83,701.51,162.83Z"/><path class="d" d="M201.78,81.81l1.61.46c-.87,7.69-3.64,12.36-7.86,14.57a10.05,10.05,0,0,0-1.9-1.9,11,11,0,0,0,5.13-4.83c-.63-.79-1.56-1.78-2.45-2.69a14.39,14.39,0,0,1-.95,1.44,19.28,19.28,0,0,0-1.9-1.44c1.65-1.9,2.77-5,3.36-8.31l2.28.4c-.17.82-.36,1.6-.57,2.38h2.81ZM197.83,84c-.17.5-.35,1-.54,1.41.76.74,1.71,1.61,2.46,2.41A21.54,21.54,0,0,0,200.7,84Zm11.77,6.65a34.9,34.9,0,0,0-3-3.55v9.75h-2.4V79.13h2.4v6.31l.83-.61c1.31,1.29,3.23,3.16,4.14,4.31Z"/><path class="d" d="M221.79,83.6c-.4.91-.78,1.9-1.16,2.69h2.22v2.06h-10V86.29h2.43a14.2,14.2,0,0,0-.95-2.66l1.54-.37h-2.55v-2h3.59a13,13,0,0,0-.6-1.65l2.07-.59a20.66,20.66,0,0,1,.91,2.24h3.21v2h-2.22Zm-8.1,6.11h8.44v7.05H219.9V96h-4.06v.86h-2.15Zm2.15,2v2.32h4.06V91.73Zm.45-8.47A13.28,13.28,0,0,1,217.34,86l-1.14.32h2.26a20.94,20.94,0,0,0,1.06-3Zm14.06-2.34c-.64,1.82-1.42,4-2.14,5.64A6.32,6.32,0,0,1,230,91a3.18,3.18,0,0,1-1,2.79,2.71,2.71,0,0,1-1.25.45,7,7,0,0,1-1.46,0,5.51,5.51,0,0,0-.55-2.09c.41,0,.79,0,1.06,0a1.27,1.27,0,0,0,.7-.19c.33-.19.44-.66.44-1.31a5.72,5.72,0,0,0-1.84-3.91c.53-1.39,1.12-3.33,1.56-4.77h-2.13V96.8h-2V80h4.9l.33-.08Z"/><path class="d" d="M240,92.2a9.13,9.13,0,0,0,.41,1.71c-2.75,1.62-3.26,2-3.57,2.32l0-.15a8,8,0,0,0-.7-2c.3-.17.53-.43.53-1.12V90.8h-.83c-.23,2.56-.82,4.67-3.06,6a5.07,5.07,0,0,0-1.26-1.56c1.79-1,2.21-2.58,2.36-4.44h-1.14V86.45h6.84V90.8h-1V93Zm.17-6.4h-8.27V84.05h1.67c-.15-.49-.34-1-.51-1.46l1.79-.38a17.68,17.68,0,0,1,.68,1.84h1.26a16.85,16.85,0,0,0,.51-1.86l2,.34-.64,1.52h1.5Zm-.08-3.7h-7.85V80.39h2.89c-.11-.35-.22-.67-.34-1l2-.4a13.47,13.47,0,0,1,.51,1.35h2.79Zm-5.53,7.25h3V87.91h-3Zm12.85,5.59a.64.64,0,0,0,.3-.06c.07,0,.13-.15.19-.38s.06-.78.08-1.46a5,5,0,0,0,1.53.84,7.36,7.36,0,0,1-.26,1.84,1.35,1.35,0,0,1-.67.7,2.71,2.71,0,0,1-1,.19H246.5a1.81,1.81,0,0,1-1.29-.46c-.34-.3-.47-.68-.47-1.86V90.78H244c-.27,2.73-1,4.88-3.78,6.21A5.54,5.54,0,0,0,239,95.41c2.28-1,2.81-2.6,3-4.63H240.9V86.47h7.31v4.31h-1.48v3.57a1,1,0,0,0,.06.51.3.3,0,0,0,.25.08ZM249,85.8h-8.47V84H242c-.15-.49-.3-1-.47-1.44l1.76-.36a13,13,0,0,1,.65,1.8h1.18a18.56,18.56,0,0,0,.55-1.84l1.95.32c-.22.56-.45,1-.66,1.52h2Zm-.4-3.7h-7.86V80.39h2.75c-.09-.33-.2-.65-.3-.93l2-.36a10.21,10.21,0,0,1,.47,1.29h3Zm-5.81,7.22h3.5V87.91h-3.5Z"/><path class="d" d="M261.67,80.08l-.63.84a21.3,21.3,0,0,0,7.52,4.48A6.93,6.93,0,0,0,267,87.47c-.91-.43-1.84-.89-2.73-1.4V87.3h-9.5v-.93a26.5,26.5,0,0,1-2.55,1.39,9,9,0,0,0-1.65-2.07c3.5-1.39,7.09-3.69,9.08-6.65Zm-8.13,8.86h12.25v7.84h-2.41V96h-7.53v.84h-2.31Zm2.31,2v3h7.53v-3Zm7.11-5.7a23.49,23.49,0,0,1-3.31-2.72,23.75,23.75,0,0,1-3.13,2.72Z"/><path class="d" d="M280.19,80l-.4.53a18.74,18.74,0,0,0,7.83,4.86,5.77,5.77,0,0,0-1.43,2A21.69,21.69,0,0,1,278.48,82a24.28,24.28,0,0,1-7.56,5.28,8.49,8.49,0,0,0-1.54-1.92c3.4-1.33,6.88-3.59,8.78-6.44Zm-.4,14.36h6.8v2H270.45v-2h2.05V87.7h2.24v6.63h2.66V84.58h2.39V88.5h5.07v2h-5.07Z"/><path class="d" d="M295.88,93.91a14.63,14.63,0,0,1-5.52,2.53A8.8,8.8,0,0,0,289,94.81a16.08,16.08,0,0,0,5.26-1.62ZM306,90.7v1.86h-7.37V96.9h-2.24V92.56H289.1V90.7h7.24v-.83h-5.47V88.23h5.47v-.85h-6.42V85.67h3.5a10.12,10.12,0,0,0-.71-1.39L294,84h-4.85V82.23h2.58a17,17,0,0,0-1.21-2.36l1.94-.64a12.54,12.54,0,0,1,1.44,2.66l-.91.34h1.75v-3.1h2.09v3.1h1.42v-3.1h2.13v3.1h1.69l-.68-.21a17,17,0,0,0,1.21-2.73l2.38.55c-.54.87-1.05,1.72-1.52,2.39h2.45V84h-5l1.79.45c-.42.46-.82.88-1.16,1.22h3.66v1.71h-6.59v.85h5.7v1.64h-5.7v.83ZM295,84a8,8,0,0,1,.76,1.42l-1,.25h5.18l-.68-.21c.3-.44.7-1,1-1.46Zm5.93,9.08c1.54.57,3.78,1.52,5,2.13l-1.6,1.23c-1.1-.63-3.32-1.63-4.92-2.3Z"/><path class="d" d="M181.9,159.46a3.5,3.5,0,0,1-1.32,2.89,5.7,5.7,0,0,1-3.68,1.06,8.6,8.6,0,0,1-3.84-.82v-2.67a14.81,14.81,0,0,0,2.33.86,6.7,6.7,0,0,0,1.74.25,2.48,2.48,0,0,0,1.45-.36,1.22,1.22,0,0,0,.5-1.07,1.15,1.15,0,0,0-.22-.71,2.39,2.39,0,0,0-.65-.6,17.86,17.86,0,0,0-1.76-.92,8.46,8.46,0,0,1-1.87-1.12,4.32,4.32,0,0,1-1-1.26,3.9,3.9,0,0,1,.85-4.49,5,5,0,0,1,3.37-1,7.82,7.82,0,0,1,2,.26,13.43,13.43,0,0,1,2,.7l-.93,2.24a12.09,12.09,0,0,0-1.79-.62,5.72,5.72,0,0,0-1.4-.18,1.87,1.87,0,0,0-1.25.38,1.25,1.25,0,0,0-.44,1,1.22,1.22,0,0,0,.18.67,1.94,1.94,0,0,0,.56.54,15.4,15.4,0,0,0,1.82.95,7.29,7.29,0,0,1,2.61,1.83A3.54,3.54,0,0,1,181.9,159.46Z"/><path class="d" d="M184,150.17c0-.92.51-1.38,1.54-1.38s1.54.46,1.54,1.38a1.36,1.36,0,0,1-.39,1,1.62,1.62,0,0,1-1.15.36C184.53,151.56,184,151.1,184,150.17ZM187,163.22h-2.83V152.85H187Z"/><path class="d" d="M192.77,163.22h-2.83V148.79h2.83Z"/><path class="d" d="M195.62,150.17c0-.92.51-1.38,1.54-1.38s1.54.46,1.54,1.38a1.36,1.36,0,0,1-.39,1,1.63,1.63,0,0,1-1.15.36C196.13,151.56,195.62,151.1,195.62,150.17Zm2.95,13.05h-2.83V152.85h2.83Z"/><path class="d" d="M205.75,163.41q-4.84,0-4.85-5.32a5.67,5.67,0,0,1,1.32-4,5,5,0,0,1,3.78-1.39,7.23,7.23,0,0,1,3.23.7l-.84,2.19a12.55,12.55,0,0,0-1.24-.44,4.22,4.22,0,0,0-1.15-.17c-1.47,0-2.21,1-2.21,3.13s.74,3.05,2.21,3.05a5.2,5.2,0,0,0,1.51-.22,5.57,5.57,0,0,0,1.39-.68v2.42a4.54,4.54,0,0,1-1.39.6A7.75,7.75,0,0,1,205.75,163.41Z"/><path class="d" d="M220.73,158a5.52,5.52,0,0,1-1.34,4,4.85,4.85,0,0,1-3.72,1.43,5.16,5.16,0,0,1-2.63-.66,4.28,4.28,0,0,1-1.75-1.87,6.31,6.31,0,0,1-.62-2.86,5.55,5.55,0,0,1,1.33-4,4.87,4.87,0,0,1,3.73-1.41,5.19,5.19,0,0,1,2.64.65,4.37,4.37,0,0,1,1.75,1.86A6.23,6.23,0,0,1,220.73,158Zm-7.17,0a4.43,4.43,0,0,0,.5,2.33,1.83,1.83,0,0,0,1.65.79,1.76,1.76,0,0,0,1.63-.79,4.41,4.41,0,0,0,.5-2.33,4.21,4.21,0,0,0-.51-2.31,2.13,2.13,0,0,0-3.27,0A4.35,4.35,0,0,0,213.56,158Z"/><path class="d" d="M232.64,163.22h-2.83v-6.05a2.91,2.91,0,0,0-.4-1.69,1.45,1.45,0,0,0-1.27-.56,1.89,1.89,0,0,0-1.71.79,4.86,4.86,0,0,0-.53,2.63v4.88h-2.83V152.85h2.16l.38,1.33h.16a3,3,0,0,1,1.3-1.14,4.52,4.52,0,0,1,1.89-.38,3.61,3.61,0,0,1,2.75,1,3.93,3.93,0,0,1,.93,2.82Z"/><path class="d" d="M246.46,163.22l-3.27-10.64h-.08c.11,2.17.17,3.61.17,4.34v6.3h-2.57V149.66h3.92L247.84,160h0l3.41-10.37h3.91v13.56h-2.68V156.8c0-.3,0-.65,0-1s0-1.45.12-3.16h-.08l-3.5,10.62Z"/><path class="d" d="M267.83,158a5.56,5.56,0,0,1-1.33,4,4.85,4.85,0,0,1-3.72,1.43,5.17,5.17,0,0,1-2.64-.66,4.34,4.34,0,0,1-1.75-1.87,6.31,6.31,0,0,1-.61-2.86,5.55,5.55,0,0,1,1.32-4,4.88,4.88,0,0,1,3.73-1.41,5.17,5.17,0,0,1,2.64.65,4.32,4.32,0,0,1,1.75,1.86A6.23,6.23,0,0,1,267.83,158Zm-7.17,0a4.33,4.33,0,0,0,.51,2.33,1.8,1.8,0,0,0,1.64.79,1.76,1.76,0,0,0,1.63-.79,4.41,4.41,0,0,0,.5-2.33,4.31,4.31,0,0,0-.5-2.31,1.84,1.84,0,0,0-1.65-.77,1.81,1.81,0,0,0-1.63.76A4.35,4.35,0,0,0,260.66,158Z"/><path class="d" d="M274.54,161.15a6,6,0,0,0,1.78-.32v2.11a6.43,6.43,0,0,1-2.6.47,3.19,3.19,0,0,1-2.47-.86,3.71,3.71,0,0,1-.77-2.57v-5h-1.36v-1.2l1.56-.95.82-2.19h1.81v2.21h2.9V155h-2.9v5a1.12,1.12,0,0,0,.33.89A1.36,1.36,0,0,0,274.54,161.15Z"/><path class="d" d="M278.3,150.17c0-.92.51-1.38,1.54-1.38s1.54.46,1.54,1.38a1.36,1.36,0,0,1-.39,1,1.63,1.63,0,0,1-1.15.36C278.81,151.56,278.3,151.1,278.3,150.17Zm2.95,13.05h-2.83V152.85h2.83Z"/><path class="d" d="M293.64,158a5.52,5.52,0,0,1-1.34,4,4.85,4.85,0,0,1-3.72,1.43,5.16,5.16,0,0,1-2.63-.66,4.28,4.28,0,0,1-1.75-1.87,6.31,6.31,0,0,1-.62-2.86,5.55,5.55,0,0,1,1.33-4,4.87,4.87,0,0,1,3.73-1.41,5.19,5.19,0,0,1,2.64.65,4.32,4.32,0,0,1,1.75,1.86A6.23,6.23,0,0,1,293.64,158Zm-7.17,0a4.43,4.43,0,0,0,.5,2.33,1.83,1.83,0,0,0,1.65.79,1.76,1.76,0,0,0,1.63-.79,4.41,4.41,0,0,0,.5-2.33,4.31,4.31,0,0,0-.5-2.31,1.84,1.84,0,0,0-1.65-.77,1.8,1.8,0,0,0-1.63.76A4.35,4.35,0,0,0,286.47,158Z"/><path class="d" d="M305.55,163.22h-2.83v-6.05a2.91,2.91,0,0,0-.4-1.69,1.45,1.45,0,0,0-1.27-.56,1.89,1.89,0,0,0-1.71.79,4.86,4.86,0,0,0-.53,2.63v4.88H296V152.85h2.16l.38,1.33h.16A3,3,0,0,1,300,153a4.56,4.56,0,0,1,1.89-.38,3.61,3.61,0,0,1,2.75,1,3.93,3.93,0,0,1,.93,2.82Z"/><path class="d" d="M310.48,80.51l1.25-2.17-2.26-1,.45-1.4,2.44.55L312.6,74h1.5l.23,2.51,2.43-.55.46,1.4-2.28,1,1.27,2.17-1.19.87-1.68-1.9-1.67,1.9Z"/><path class="e" d="M47.41,225l1.12-1.94-2-.9.41-1.25,2.18.49.22-2.25h1.34l.2,2.25L53,221l.41,1.25-2,.9L52.55,225l-1.07.78-1.5-1.7-1.5,1.7Z"/><path class="e" d="M66.54,232.93,64,228.17H62.2v4.76H59.69V220.35h4.38c2.64,0,4.73.92,4.73,3.81a3.6,3.6,0,0,1-2.4,3.62l2.94,5.15Zm-4.34-6.75h1.63c1.62,0,2.5-.68,2.5-2s-.88-1.82-2.5-1.82H62.2Z"/><path class="e" d="M70.46,230.34c0-2,1.65-3.11,5.48-3.51,0-.94-.44-1.65-1.62-1.65a5.35,5.35,0,0,0-2.61.9l-.91-1.65a7.63,7.63,0,0,1,4-1.26c2.42,0,3.66,1.45,3.66,4.2v5.56h-2l-.19-1h0a4.5,4.5,0,0,1-2.87,1.26A2.71,2.71,0,0,1,70.46,230.34Zm5.48-.06v-1.92c-2.31.3-3.1.93-3.1,1.78s.53,1.07,1.26,1.07A2.54,2.54,0,0,0,75.94,230.28Z"/><path class="e" d="M80.44,228.19c0-3.11,1.94-5,4-5a3.27,3.27,0,0,1,2.41,1l-.1-1.5v-3.35h2.5v13.57h-2l-.21-1h0a4,4,0,0,1-2.63,1.23C82,233.17,80.44,231.3,80.44,228.19Zm6.31,1.93v-4.18a2.55,2.55,0,0,0-1.77-.71c-1.07,0-2,1-2,2.92s.71,3,2,3A2.11,2.11,0,0,0,86.75,230.12Z"/><path class="e" d="M97,221.3a3.12,3.12,0,0,0-1-.2c-.74,0-1.15.44-1.15,1.49v.82h1.78v2H94.86v7.55h-2.5v-7.55H91.08v-1.85l1.28-.1v-.79c0-2,.92-3.51,3.31-3.51a5,5,0,0,1,1.81.34Z"/><path class="e" d="M97.46,228.19c0-3.18,2.19-5,4.57-5s4.57,1.84,4.57,5a4.59,4.59,0,1,1-9.14,0Zm6.59,0c0-1.81-.73-3-2-3s-2,1.17-2,3,.73,2.94,2,2.94S104.05,230,104.05,228.19Z"/><path class="e" d="M108.7,223.41h2l.17,1.68H111a3.28,3.28,0,0,1,2.7-1.92,2.65,2.65,0,0,1,1.12.21l-.44,2.15a3.07,3.07,0,0,0-1-.15c-.75,0-1.65.49-2.19,1.87v5.68H108.7Z"/><path class="e" d="M115.36,228.19c0-3.11,1.94-5,4-5a3.27,3.27,0,0,1,2.41,1l-.1-1.5v-3.35h2.5v13.57h-2l-.2-1h0a4,4,0,0,1-2.64,1.23C116.89,233.17,115.36,231.3,115.36,228.19Zm6.31,1.93v-4.18a2.57,2.57,0,0,0-1.77-.71c-1.07,0-2,1-2,2.92s.71,3,2,3A2.12,2.12,0,0,0,121.67,230.12Z"/><path class="e" d="M130.1,231.48c3.42-3.06,5.44-5.42,5.44-7.36a1.81,1.81,0,0,0-1.89-2,3.25,3.25,0,0,0-2.31,1.3L130,222a5.1,5.1,0,0,1,4-1.91,3.69,3.69,0,0,1,4,3.88c0,2.28-1.89,4.72-4.19,7,.63-.07,1.47-.14,2-.14h2.74v2.11H130.1Z"/><path class="e" d="M140.13,226.59c0-4.35,1.7-6.48,4.27-6.48s4.25,2.14,4.25,6.48-1.7,6.58-4.25,6.58S140.13,230.92,140.13,226.59Zm6.15,0c0-3.52-.81-4.54-1.88-4.54s-1.91,1-1.91,4.54.82,4.62,1.91,4.62S146.28,230.12,146.28,226.59Z"/><path class="e" d="M150.12,231.48c3.42-3.06,5.44-5.42,5.44-7.36a1.8,1.8,0,0,0-1.88-2,3.25,3.25,0,0,0-2.31,1.3L150,222a5.07,5.07,0,0,1,4-1.91,3.69,3.69,0,0,1,4,3.88c0,2.28-1.88,4.72-4.18,7,.63-.07,1.46-.14,2-.14h2.74v2.11h-8.44Z"/><path class="e" d="M160.16,226.59c0-4.35,1.7-6.48,4.26-6.48s4.25,2.14,4.25,6.48-1.7,6.58-4.25,6.58S160.16,230.92,160.16,226.59Zm6.15,0c0-3.52-.82-4.54-1.89-4.54s-1.9,1-1.9,4.54.81,4.62,1.9,4.62S166.31,230.12,166.31,226.59Z"/><path class="e" d="M185.7,230.79h-5.81v3.63H177.8v-3.63h-7.65v-1.94h2.69V224.4h5v-2h-3.64a15.17,15.17,0,0,1-2.31,3.09,16,16,0,0,0-1.75-1.31,13.1,13.1,0,0,0,3.57-5.66l2.06.53a12.61,12.61,0,0,1-.56,1.39h9.6v2h-4.88v2h4.49v1.87h-4.49v2.58h5.81Zm-7.9-1.94v-2.58h-2.94v2.58Z"/><path class="e" d="M199.92,224.55a14.67,14.67,0,0,0,1.54-.1v2.21c-.42,0-1.07,0-1.54,0h-4.1a10.74,10.74,0,0,1-1.09,4.36,8.12,8.12,0,0,1-3.41,3.27l-2-1.45a6.92,6.92,0,0,0,3.07-2.43,7.28,7.28,0,0,0,1.06-3.75h-4.68c-.49,0-1.15,0-1.63.06v-2.22a14.7,14.7,0,0,0,1.63.1Zm-9-2.31c-.58,0-1.31,0-1.82,0v-2.2a12.08,12.08,0,0,0,1.82.14h5.56a12.67,12.67,0,0,0,1.84-.14v2.2c-.58,0-1.25,0-1.84,0Zm8.4-.39a26.55,26.55,0,0,0-1.34-2.37l1.36-.56c.42.63,1,1.7,1.34,2.33Zm2-.79a20.1,20.1,0,0,0-1.36-2.34l1.34-.56a22,22,0,0,1,1.36,2.31Z"/><path class="e" d="M203.73,225.06c.61.05,1.85.1,2.73.1h9.13c.78,0,1.55-.07,2-.1v2.67c-.41,0-1.28-.09-2-.09h-9.13c-1,0-2.11,0-2.73.09Z"/><path class="e" d="M233.7,222.08a9.1,9.1,0,0,0-.57,1.21,19.48,19.48,0,0,1-2.34,4.66c.63.39,1.21.78,1.63,1.09l-1.55,2a17.18,17.18,0,0,0-1.58-1.21,16.16,16.16,0,0,1-6.27,4.23l-2-1.72a14.33,14.33,0,0,0,6.34-3.8c-1.16-.75-2.31-1.45-3.18-1.94l1.45-1.62c.9.46,2.05,1.11,3.19,1.79a12.63,12.63,0,0,0,1.77-3.62h-4.88a19.89,19.89,0,0,1-4.49,4.38l-1.83-1.41a15.51,15.51,0,0,0,5.42-5.64,7.59,7.59,0,0,0,.76-1.79l2.47.77c-.41.59-.85,1.38-1,1.73l0,0h3.48A5.32,5.32,0,0,0,232,221Z"/></svg>