<?xml version="1.0" encoding="UTF-8"?><svg xmlns="http://www.w3.org/2000/svg" viewBox="0 0 800 260"><defs><style>.cls-1{fill:#0071bc;}.cls-2{fill:#999;}.cls-3{fill:#98d5f4;}.cls-4{fill:#333;}.cls-5{fill:none;stroke:gray;stroke-miterlimit:10;}</style></defs><g id="_021"><line class="cls-5" x1="324.5" y1="225" x2="324.5" y2="19"/><g><rect class="cls-3" x="324.01" y="125.41" width="202.66" height="65.59"/><rect class="cls-1" x="324.01" y="52.54" width="303.99" height="65.59"/></g></g><g id="Numbers"><g><path d="M664.02,98.41h-4.47v-10.01c0-.23,0-.56,.01-1.01,0-.45,.02-.93,.03-1.43,0-.5,.02-.95,.04-1.35-.14,.17-.33,.38-.57,.61-.24,.23-.47,.44-.68,.61l-2.13,1.74-2.21-2.76,6.16-4.96h3.82v18.56Z"/><path d="M675.28,79.61c1.14,0,2.17,.16,3.08,.49,.91,.33,1.63,.83,2.17,1.49,.54,.67,.81,1.5,.81,2.48,0,1.13-.31,2.05-.92,2.77-.62,.72-1.4,1.3-2.35,1.76,.62,.35,1.23,.75,1.81,1.2,.58,.45,1.06,.98,1.44,1.6,.38,.62,.57,1.33,.57,2.14,0,1.53-.58,2.76-1.73,3.71-1.15,.95-2.79,1.42-4.9,1.42s-3.86-.46-4.97-1.38c-1.11-.92-1.66-2.14-1.66-3.67,0-1.28,.33-2.3,1-3.05s1.5-1.37,2.48-1.86c-.8-.52-1.48-1.15-2.05-1.88-.57-.74-.86-1.66-.86-2.77,0-.97,.27-1.79,.82-2.46,.55-.67,1.28-1.17,2.2-1.49,.92-.33,1.94-.49,3.07-.49Zm-2.57,13.78c0,.61,.21,1.1,.64,1.48,.42,.38,1.04,.57,1.86,.57,.88,0,1.54-.18,1.96-.55s.64-.84,.64-1.43c0-.43-.12-.82-.38-1.16-.25-.34-.56-.63-.92-.88-.36-.25-.7-.47-1.01-.66l-.34-.21c-.71,.35-1.3,.75-1.75,1.2-.46,.45-.69,1-.69,1.64Zm2.55-10.58c-.54,0-.99,.15-1.35,.44-.36,.29-.55,.69-.55,1.2,0,.54,.19,.99,.56,1.35,.37,.36,.82,.68,1.34,.94,.49-.23,.93-.51,1.33-.86,.4-.35,.6-.82,.6-1.43,0-.5-.19-.9-.56-1.2-.37-.29-.83-.44-1.37-.44Z"/><path d="M687.94,79.58c1.46,0,2.59,.51,3.41,1.52,.81,1.01,1.22,2.44,1.22,4.28s-.38,3.27-1.14,4.3c-.76,1.03-1.92,1.55-3.48,1.55-1.42,0-2.53-.52-3.33-1.55-.8-1.03-1.2-2.46-1.2-4.3s.37-3.26,1.12-4.28c.75-1.01,1.88-1.52,3.41-1.52Zm.05,2.86c-.4,0-.68,.25-.84,.75-.17,.5-.25,1.24-.25,2.21s.08,1.72,.25,2.24c.17,.52,.45,.78,.84,.78s.68-.26,.85-.78c.16-.52,.25-1.26,.25-2.24s-.08-1.71-.25-2.21c-.17-.5-.45-.75-.85-.75Zm13.57-2.6l-10.3,18.56h-3.38l10.3-18.56h3.38Zm-.1,7.15c1.46,0,2.59,.51,3.41,1.52,.81,1.01,1.22,2.44,1.22,4.28s-.38,3.27-1.14,4.3-1.92,1.55-3.48,1.55c-1.42,0-2.53-.52-3.33-1.55-.8-1.03-1.2-2.46-1.2-4.3s.37-3.26,1.12-4.28c.75-1.01,1.88-1.52,3.41-1.52Zm.05,2.83c-.4,0-.68,.26-.84,.78-.17,.52-.25,1.26-.25,2.21s.08,1.69,.25,2.21c.16,.52,.45,.78,.84,.78,.73,0,1.09-1,1.09-2.99s-.36-2.99-1.09-2.99Z"/></g><g><path d="M664.02,171.41h-4.47v-10.01c0-.23,0-.56,.01-1.01,0-.45,.02-.93,.03-1.43,0-.5,.02-.95,.04-1.35-.14,.17-.33,.38-.57,.61-.24,.23-.47,.44-.68,.61l-2.13,1.74-2.21-2.76,6.16-4.96h3.82v18.56Z"/><path d="M681.85,171.41h-13.21v-2.99l4.6-4.65c.94-.97,1.68-1.77,2.24-2.39s.95-1.17,1.18-1.65c.23-.48,.35-.98,.35-1.52,0-.66-.2-1.14-.58-1.44-.39-.3-.88-.46-1.47-.46-.66,0-1.3,.17-1.94,.49-.63,.33-1.32,.81-2.07,1.43l-2.42-2.83c.54-.48,1.11-.94,1.72-1.36,.61-.42,1.32-.77,2.14-1.04,.82-.27,1.82-.4,2.98-.4,1.25,0,2.32,.22,3.22,.66s1.59,1.04,2.08,1.79c.48,.75,.73,1.62,.73,2.59,0,1.04-.2,1.99-.6,2.83-.4,.85-.99,1.69-1.77,2.52-.78,.83-1.73,1.77-2.86,2.81l-1.92,1.77v.16h7.59v3.69Z"/><path d="M687.94,152.58c1.46,0,2.59,.51,3.41,1.52,.81,1.01,1.22,2.44,1.22,4.28s-.38,3.27-1.14,4.3c-.76,1.03-1.92,1.55-3.48,1.55-1.42,0-2.53-.52-3.33-1.55-.8-1.03-1.2-2.46-1.2-4.3s.37-3.26,1.12-4.28c.75-1.01,1.88-1.52,3.41-1.52Zm.05,2.86c-.4,0-.68,.25-.84,.75-.17,.5-.25,1.24-.25,2.21s.08,1.72,.25,2.24c.17,.52,.45,.78,.84,.78s.68-.26,.85-.78c.16-.52,.25-1.26,.25-2.24s-.08-1.71-.25-2.21c-.17-.5-.45-.75-.85-.75Zm13.57-2.6l-10.3,18.56h-3.38l10.3-18.56h3.38Zm-.1,7.15c1.46,0,2.59,.51,3.41,1.52,.81,1.01,1.22,2.44,1.22,4.28s-.38,3.27-1.14,4.3-1.92,1.55-3.48,1.55c-1.42,0-2.53-.52-3.33-1.55-.8-1.03-1.2-2.46-1.2-4.3s.37-3.26,1.12-4.28c.75-1.01,1.88-1.52,3.41-1.52Zm.05,2.83c-.4,0-.68,.26-.84,.78-.17,.52-.25,1.26-.25,2.21s.08,1.69,.25,2.21c.16,.52,.45,.78,.84,.78,.73,0,1.09-1,1.09-2.99s-.36-2.99-1.09-2.99Z"/></g></g><g id="Labels-JP"><g><path class="cls-4" d="M201.78,81.81l1.61,.46c-.87,7.69-3.65,12.37-7.86,14.57-.38-.55-1.33-1.5-1.9-1.9,2.17-1.01,3.91-2.58,5.13-4.83-.63-.8-1.56-1.79-2.45-2.7-.3,.53-.63,1.03-.95,1.44-.4-.38-1.39-1.1-1.9-1.44,1.65-1.9,2.77-5.04,3.36-8.3l2.28,.4c-.17,.82-.36,1.6-.57,2.37h2.81l.44-.08Zm-3.95,2.22c-.17,.49-.34,.95-.53,1.41,.76,.74,1.71,1.62,2.45,2.41,.42-1.14,.72-2.41,.95-3.82h-2.87Zm11.78,6.65c-.63-.93-1.9-2.32-3.06-3.55v9.75h-2.39v-17.74h2.39v6.31l.83-.61c1.31,1.29,3.23,3.15,4.14,4.31l-1.92,1.54Z"/><path class="cls-4" d="M221.79,83.6c-.4,.91-.78,1.9-1.16,2.7h2.22v2.05h-10.03v-2.05h2.43c-.19-.78-.55-1.86-.95-2.66l1.54-.38h-2.55v-2.03h3.59c-.15-.55-.38-1.14-.61-1.65l2.07-.59c.34,.7,.68,1.56,.91,2.24h3.21v2.03h-2.22l1.54,.34Zm-8.09,6.12h8.43v7.05h-2.22v-.76h-4.07v.86h-2.15v-7.14Zm2.15,2.01v2.32h4.07v-2.32h-4.07Zm.46-8.47c.46,.85,.85,1.97,1.04,2.72l-1.14,.32h2.26c.4-.89,.82-2.11,1.06-3.04h-3.23Zm14.06-2.34c-.65,1.82-1.42,4.01-2.15,5.64,1.52,1.71,1.8,3.21,1.8,4.45,0,1.37-.3,2.3-1.01,2.79-.34,.25-.76,.38-1.25,.46-.42,.06-.97,.08-1.46,.04-.04-.59-.21-1.48-.55-2.09,.42,.04,.8,.04,1.06,.04s.49-.06,.7-.19c.32-.19,.44-.66,.44-1.31,0-1.03-.4-2.39-1.84-3.91,.53-1.39,1.12-3.32,1.56-4.77h-2.13v14.74h-1.98v-16.78h4.9l.32-.08,1.58,.97Z"/><path class="cls-4" d="M240.01,92.2c.08,.53,.27,1.33,.42,1.71-2.75,1.62-3.27,1.98-3.57,2.32l-.02-.15c-.13-.57-.42-1.48-.7-1.96,.3-.17,.53-.44,.53-1.12v-2.2h-.83c-.23,2.56-.82,4.67-3.06,6-.23-.47-.8-1.24-1.25-1.56,1.79-1.01,2.2-2.58,2.36-4.45h-1.14v-4.35h6.84v4.35h-.99v2.19l1.42-.78Zm.17-6.4h-8.26v-1.75h1.67c-.15-.49-.34-1.01-.51-1.46l1.79-.38c.25,.57,.51,1.25,.68,1.84h1.25c.19-.61,.42-1.31,.51-1.86l2.01,.34-.65,1.52h1.5v1.75Zm-.08-3.7h-7.85v-1.71h2.89c-.11-.34-.23-.67-.34-.95l2-.4c.19,.4,.36,.91,.51,1.35h2.79v1.71Zm-5.53,7.26h3.02v-1.44h-3.02v1.44Zm12.84,5.58c.11,0,.25-.02,.3-.06,.08-.04,.13-.15,.19-.38,.04-.25,.06-.78,.08-1.46,.34,.32,1.03,.67,1.54,.84-.04,.72-.13,1.52-.27,1.84s-.38,.57-.67,.7c-.27,.13-.72,.19-1.04,.19h-1.04c-.46,0-.99-.13-1.29-.46-.34-.3-.47-.68-.47-1.86v-3.51h-.76c-.27,2.74-.99,4.88-3.78,6.21-.23-.49-.76-1.23-1.18-1.58,2.28-.99,2.81-2.6,3-4.64h-1.12v-4.31h7.31v4.31h-1.48v3.57c0,.27,0,.42,.06,.51,.06,.06,.13,.08,.25,.08h.38Zm1.54-9.14h-8.47v-1.77h1.5c-.15-.49-.3-1.01-.47-1.44l1.77-.36c.25,.57,.49,1.24,.65,1.8h1.18c.21-.61,.44-1.31,.55-1.84l1.96,.32c-.23,.55-.46,1.04-.66,1.52h2.01v1.77Zm-.4-3.7h-7.86v-1.71h2.75c-.09-.32-.21-.65-.3-.93l1.98-.36c.17,.38,.34,.85,.47,1.29h2.96v1.71Zm-5.81,7.22h3.5v-1.41h-3.5v1.41Z"/><path class="cls-4" d="M261.67,80.08c-.21,.28-.42,.57-.63,.84,2.43,2.26,4.96,3.55,7.52,4.48-.59,.53-1.25,1.37-1.56,2.07-.91-.44-1.84-.89-2.74-1.41v1.24h-9.5v-.93c-.84,.51-1.69,.99-2.55,1.39-.36-.65-1.03-1.5-1.65-2.07,3.5-1.39,7.09-3.69,9.08-6.65l2.01,1.04Zm-8.13,8.85h12.25v7.85h-2.41v-.76h-7.52v.84h-2.32v-7.92Zm2.32,1.99v3h7.52v-3h-7.52Zm7.1-5.7c-1.08-.74-2.18-1.61-3.3-2.72-.97,1.01-2.01,1.9-3.13,2.72h6.44Z"/><path class="cls-4" d="M280.19,79.97c-.13,.17-.27,.36-.4,.53,2.49,2.62,5.13,3.91,7.83,4.86-.55,.47-1.16,1.27-1.42,1.96-2.62-1.14-5.13-2.53-7.71-5.28-2.11,2.24-4.81,4.03-7.56,5.28-.32-.59-.97-1.41-1.54-1.92,3.4-1.33,6.88-3.59,8.78-6.44l2.03,1.01Zm-.4,14.36h6.8v2.03h-16.15v-2.03h2.05v-6.63h2.24v6.63h2.66v-9.75h2.39v3.91h5.07v2.03h-5.07v3.8Z"/><path class="cls-4" d="M295.88,93.91c-1.29,1.08-3.57,2.07-5.53,2.53-.29-.47-.87-1.22-1.33-1.63,1.9-.27,4.1-.91,5.26-1.61l1.6,.72Zm10.07-3.21v1.86h-7.37v4.33h-2.24v-4.33h-7.24v-1.86h7.24v-.84h-5.47v-1.63h5.47v-.85h-6.42v-1.71h3.5c-.17-.44-.46-.97-.7-1.39l1.27-.29h-4.84v-1.77h2.58c-.29-.72-.78-1.63-1.22-2.36l1.94-.65c.57,.8,1.2,1.94,1.44,2.66l-.91,.34h1.75v-3.1h2.09v3.1h1.42v-3.1h2.13v3.1h1.69l-.68-.21c.44-.76,.95-1.92,1.22-2.74l2.38,.55c-.53,.87-1.04,1.73-1.52,2.39h2.45v1.77h-5.01l1.79,.46c-.42,.46-.82,.87-1.16,1.22h3.67v1.71h-6.59v.85h5.7v1.63h-5.7v.84h7.37Zm-10.96-6.71c.3,.47,.61,1.03,.76,1.42l-1.03,.25h5.19l-.68-.21c.3-.44,.7-1.01,.97-1.46h-5.21Zm5.93,9.08c1.54,.57,3.78,1.52,5,2.13l-1.6,1.23c-1.1-.63-3.33-1.63-4.92-2.3l1.52-1.06Z"/><path class="cls-4" d="M181.9,159.46c0,1.22-.44,2.19-1.32,2.89-.88,.71-2.11,1.06-3.68,1.06-1.45,0-2.73-.27-3.84-.82v-2.67c.92,.41,1.69,.7,2.32,.86,.63,.17,1.21,.25,1.74,.25,.63,0,1.11-.12,1.45-.36,.34-.24,.5-.6,.5-1.08,0-.27-.07-.5-.22-.71s-.37-.41-.65-.6c-.29-.19-.87-.5-1.76-.92-.83-.39-1.45-.76-1.86-1.12s-.75-.78-.99-1.25c-.25-.48-.37-1.03-.37-1.67,0-1.2,.41-2.14,1.22-2.83,.81-.69,1.94-1.03,3.37-1.03,.71,0,1.38,.08,2.02,.25,.64,.17,1.31,.4,2.01,.71l-.93,2.24c-.72-.3-1.32-.5-1.79-.62-.47-.12-.94-.18-1.4-.18-.54,0-.96,.13-1.25,.38-.29,.25-.44,.58-.44,.99,0,.25,.06,.47,.18,.66,.12,.19,.3,.37,.56,.55,.26,.18,.86,.49,1.82,.95,1.27,.61,2.14,1.21,2.61,1.82,.47,.61,.71,1.36,.71,2.24Z"/><path class="cls-4" d="M184.02,150.17c0-.92,.51-1.38,1.54-1.38s1.54,.46,1.54,1.38c0,.44-.13,.78-.38,1.03s-.64,.37-1.15,.37c-1.03,0-1.54-.46-1.54-1.39Zm2.95,13.05h-2.83v-10.37h2.83v10.37Z"/><path class="cls-4" d="M192.77,163.22h-2.83v-14.44h2.83v14.44Z"/><path class="cls-4" d="M195.62,150.17c0-.92,.51-1.38,1.54-1.38s1.54,.46,1.54,1.38c0,.44-.13,.78-.38,1.03s-.64,.37-1.15,.37c-1.03,0-1.54-.46-1.54-1.39Zm2.95,13.05h-2.83v-10.37h2.83v10.37Z"/><path class="cls-4" d="M205.75,163.41c-3.23,0-4.84-1.77-4.84-5.32,0-1.76,.44-3.11,1.32-4.04,.88-.93,2.14-1.4,3.78-1.4,1.2,0,2.28,.24,3.23,.71l-.84,2.19c-.45-.18-.86-.33-1.24-.44-.38-.11-.77-.17-1.15-.17-1.47,0-2.21,1.04-2.21,3.13s.74,3.04,2.21,3.04c.54,0,1.05-.07,1.51-.22s.93-.37,1.39-.68v2.42c-.46,.29-.92,.49-1.39,.6-.47,.11-1.06,.17-1.77,.17Z"/><path class="cls-4" d="M220.73,158.02c0,1.69-.45,3.01-1.34,3.96-.89,.95-2.13,1.43-3.72,1.43-1,0-1.87-.22-2.63-.65-.76-.44-1.34-1.06-1.75-1.88s-.61-1.77-.61-2.86c0-1.7,.44-3.01,1.33-3.95,.88-.94,2.13-1.41,3.73-1.41,1,0,1.87,.22,2.63,.65,.76,.43,1.34,1.05,1.75,1.86,.41,.81,.61,1.76,.61,2.85Zm-7.17,0c0,1.03,.17,1.8,.51,2.33s.89,.79,1.65,.79,1.3-.26,1.63-.78c.33-.52,.5-1.3,.5-2.33s-.17-1.8-.5-2.31-.88-.77-1.64-.77-1.3,.25-1.63,.76c-.33,.51-.5,1.28-.5,2.32Z"/><path class="cls-4" d="M232.64,163.22h-2.83v-6.06c0-.75-.13-1.31-.4-1.68s-.69-.56-1.27-.56c-.79,0-1.36,.26-1.72,.79-.35,.53-.53,1.41-.53,2.63v4.88h-2.83v-10.37h2.16l.38,1.33h.16c.32-.5,.75-.88,1.3-1.14s1.18-.39,1.89-.39c1.21,0,2.12,.33,2.75,.98,.62,.65,.94,1.59,.94,2.83v6.76Z"/><path class="cls-4" d="M246.46,163.22l-3.27-10.64h-.08c.12,2.17,.18,3.61,.18,4.33v6.31h-2.57v-13.56h3.92l3.21,10.37h.06l3.41-10.37h3.91v13.56h-2.68v-6.42c0-.3,0-.65,.01-1.05,0-.4,.05-1.45,.13-3.15h-.08l-3.5,10.62h-2.63Z"/><path class="cls-4" d="M267.83,158.02c0,1.69-.45,3.01-1.34,3.96-.89,.95-2.13,1.43-3.72,1.43-1,0-1.87-.22-2.63-.65-.76-.44-1.34-1.06-1.75-1.88s-.61-1.77-.61-2.86c0-1.7,.44-3.01,1.33-3.95,.88-.94,2.13-1.41,3.73-1.41,1,0,1.87,.22,2.63,.65,.76,.43,1.34,1.05,1.75,1.86,.41,.81,.61,1.76,.61,2.85Zm-7.17,0c0,1.03,.17,1.8,.51,2.33s.89,.79,1.65,.79,1.3-.26,1.63-.78c.33-.52,.5-1.3,.5-2.33s-.17-1.8-.5-2.31-.88-.77-1.64-.77-1.3,.25-1.63,.76c-.33,.51-.5,1.28-.5,2.32Z"/><path class="cls-4" d="M274.54,161.15c.5,0,1.09-.11,1.78-.32v2.11c-.71,.32-1.57,.47-2.6,.47-1.13,0-1.96-.29-2.47-.86-.52-.57-.77-1.43-.77-2.57v-5h-1.36v-1.2l1.56-.95,.82-2.19h1.81v2.21h2.9v2.12h-2.9v5c0,.4,.11,.7,.34,.89,.23,.19,.52,.29,.89,.29Z"/><path class="cls-4" d="M278.3,150.17c0-.92,.51-1.38,1.54-1.38s1.54,.46,1.54,1.38c0,.44-.13,.78-.38,1.03s-.64,.37-1.15,.37c-1.03,0-1.54-.46-1.54-1.39Zm2.95,13.05h-2.83v-10.37h2.83v10.37Z"/><path class="cls-4" d="M293.64,158.02c0,1.69-.45,3.01-1.34,3.96-.89,.95-2.13,1.43-3.72,1.43-1,0-1.87-.22-2.63-.65-.76-.44-1.34-1.06-1.75-1.88s-.61-1.77-.61-2.86c0-1.7,.44-3.01,1.33-3.95,.88-.94,2.13-1.41,3.73-1.41,1,0,1.87,.22,2.63,.65,.76,.43,1.34,1.05,1.75,1.86,.41,.81,.61,1.76,.61,2.85Zm-7.17,0c0,1.03,.17,1.8,.51,2.33s.89,.79,1.65,.79,1.3-.26,1.63-.78c.33-.52,.5-1.3,.5-2.33s-.17-1.8-.5-2.31-.88-.77-1.64-.77-1.3,.25-1.63,.76c-.33,.51-.5,1.28-.5,2.32Z"/><path class="cls-4" d="M305.56,163.22h-2.83v-6.06c0-.75-.13-1.31-.4-1.68s-.69-.56-1.27-.56c-.79,0-1.36,.26-1.72,.79-.35,.53-.53,1.41-.53,2.63v4.88h-2.83v-10.37h2.16l.38,1.33h.16c.32-.5,.75-.88,1.3-1.14s1.18-.39,1.89-.39c1.21,0,2.12,.33,2.75,.98,.62,.65,.94,1.59,.94,2.83v6.76Z"/></g><path class="cls-4" d="M310.48,80.51l1.25-2.17-2.26-1.01,.46-1.41,2.43,.55,.25-2.51h1.5l.23,2.51,2.43-.55,.46,1.41-2.28,1.01,1.27,2.17-1.2,.87-1.67-1.9-1.67,1.9-1.2-.87Z"/><g><path class="cls-2" d="M47.41,225.04l1.12-1.94-2.02-.9,.41-1.26,2.18,.49,.22-2.24h1.34l.2,2.24,2.18-.49,.41,1.26-2.04,.9,1.14,1.94-1.07,.78-1.5-1.7-1.5,1.7-1.07-.78Z"/><path class="cls-2" d="M66.54,232.93l-2.58-4.76h-1.75v4.76h-2.52v-12.58h4.39c2.63,0,4.73,.92,4.73,3.81,0,1.89-.95,3.06-2.4,3.62l2.94,5.15h-2.8Zm-4.33-6.75h1.63c1.62,0,2.5-.68,2.5-2.02s-.88-1.82-2.5-1.82h-1.63v3.84Z"/><path class="cls-2" d="M70.46,230.34c0-2.04,1.65-3.11,5.47-3.52-.03-.93-.44-1.65-1.62-1.65-.88,0-1.73,.39-2.62,.9l-.9-1.65c1.12-.7,2.48-1.26,3.98-1.26,2.41,0,3.65,1.44,3.65,4.2v5.56h-2.04l-.19-1.02h-.05c-.83,.71-1.79,1.26-2.87,1.26-1.7,0-2.82-1.21-2.82-2.82Zm5.47-.07v-1.92c-2.31,.31-3.09,.93-3.09,1.78,0,.75,.53,1.07,1.26,1.07s1.24-.34,1.84-.93Z"/><path class="cls-2" d="M80.44,228.19c0-3.11,1.94-5.01,4-5.01,1.07,0,1.73,.41,2.41,1.04l-.1-1.5v-3.35h2.5v13.56h-2.02l-.2-.99h-.05c-.7,.68-1.65,1.22-2.63,1.22-2.36,0-3.89-1.87-3.89-4.98Zm6.31,1.94v-4.18c-.58-.53-1.17-.71-1.77-.71-1.07,0-1.97,1.02-1.97,2.92s.71,2.96,1.97,2.96c.66,0,1.22-.27,1.77-.99Z"/><path class="cls-2" d="M97.02,221.3c-.32-.12-.7-.2-1-.2-.75,0-1.16,.44-1.16,1.5v.82h1.79v1.97h-1.79v7.55h-2.5v-7.55h-1.27v-1.85l1.27-.1v-.78c0-1.99,.92-3.52,3.31-3.52,.73,0,1.38,.17,1.8,.34l-.46,1.84Z"/><path class="cls-2" d="M97.46,228.19c0-3.18,2.19-5.01,4.57-5.01s4.57,1.84,4.57,5.01-2.19,4.98-4.57,4.98-4.57-1.84-4.57-4.98Zm6.59,0c0-1.8-.73-2.97-2.02-2.97s-2.02,1.17-2.02,2.97,.73,2.94,2.02,2.94,2.02-1.16,2.02-2.94Z"/><path class="cls-2" d="M108.7,223.41h2.04l.17,1.68h.07c.7-1.24,1.72-1.92,2.7-1.92,.53,0,.83,.08,1.12,.2l-.44,2.16c-.32-.1-.59-.15-.99-.15-.75,0-1.65,.49-2.19,1.87v5.68h-2.48v-9.52Z"/><path class="cls-2" d="M115.36,228.19c0-3.11,1.94-5.01,4-5.01,1.07,0,1.73,.41,2.41,1.04l-.1-1.5v-3.35h2.5v13.56h-2.02l-.2-.99h-.05c-.7,.68-1.65,1.22-2.63,1.22-2.36,0-3.89-1.87-3.89-4.98Zm6.31,1.94v-4.18c-.58-.53-1.17-.71-1.77-.71-1.07,0-1.97,1.02-1.97,2.92s.71,2.96,1.97,2.96c.66,0,1.22-.27,1.77-.99Z"/><path class="cls-2" d="M130.1,231.48c3.42-3.06,5.44-5.42,5.44-7.36,0-1.28-.7-2.04-1.89-2.04-.92,0-1.68,.59-2.31,1.29l-1.36-1.36c1.16-1.22,2.28-1.9,3.99-1.9,2.38,0,3.96,1.53,3.96,3.88s-1.89,4.73-4.18,6.97c.63-.07,1.46-.14,2.04-.14h2.74v2.11h-8.43v-1.45Z"/><path class="cls-2" d="M140.13,226.59c0-4.35,1.7-6.48,4.27-6.48s4.25,2.14,4.25,6.48-1.7,6.58-4.25,6.58-4.27-2.24-4.27-6.58Zm6.15,0c0-3.52-.82-4.54-1.89-4.54s-1.9,1.02-1.9,4.54,.82,4.62,1.9,4.62,1.89-1.09,1.89-4.62Z"/><path class="cls-2" d="M150.12,231.48c3.42-3.06,5.44-5.42,5.44-7.36,0-1.28-.7-2.04-1.89-2.04-.92,0-1.68,.59-2.31,1.29l-1.36-1.36c1.16-1.22,2.28-1.9,3.99-1.9,2.38,0,3.96,1.53,3.96,3.88s-1.89,4.73-4.18,6.97c.63-.07,1.46-.14,2.04-.14h2.74v2.11h-8.43v-1.45Z"/><path class="cls-2" d="M160.8,230.91h2.7v-7.96h-2.28v-1.55c1.26-.24,2.12-.56,2.92-1.05h1.85v10.56h2.36v2.02h-7.56v-2.02Z"/><path class="cls-2" d="M185.7,230.79h-5.81v3.64h-2.09v-3.64h-7.65v-1.94h2.69v-4.45h4.96v-2.04h-3.64c-.7,1.21-1.51,2.29-2.31,3.09-.39-.34-1.26-1.02-1.75-1.31,1.53-1.29,2.84-3.47,3.57-5.66l2.06,.53c-.15,.48-.34,.94-.56,1.39h9.6v1.95h-4.88v2.04h4.49v1.87h-4.49v2.58h5.81v1.94Zm-7.9-1.94v-2.58h-2.94v2.58h2.94Z"/><path class="cls-2" d="M199.92,224.55c.36,0,1.11-.03,1.55-.1v2.21c-.42-.03-1.07-.05-1.55-.05h-4.1c-.1,1.75-.48,3.18-1.09,4.37-.59,1.17-1.9,2.5-3.42,3.26l-1.99-1.44c1.21-.46,2.4-1.43,3.08-2.43,.7-1.05,.99-2.33,1.05-3.76h-4.67c-.49,0-1.16,.03-1.63,.07v-2.23c.51,.07,1.11,.1,1.63,.1h11.13Zm-8.97-2.31c-.58,0-1.31,.02-1.82,.05v-2.19c.54,.08,1.24,.14,1.82,.14h5.56c.58,0,1.26-.05,1.84-.14v2.19c-.58-.03-1.24-.05-1.84-.05h-5.56Zm8.4-.39c-.36-.7-.88-1.7-1.34-2.36l1.36-.56c.42,.63,1.02,1.7,1.34,2.33l-1.36,.59Zm2.04-.78c-.36-.71-.9-1.7-1.36-2.35l1.34-.56c.44,.65,1.07,1.72,1.36,2.31l-1.34,.59Z"/><path class="cls-2" d="M203.73,225.06c.61,.05,1.85,.1,2.74,.1h9.13c.78,0,1.55-.07,1.99-.1v2.67c-.41-.02-1.27-.08-1.99-.08h-9.13c-.97,0-2.11,.03-2.74,.08v-2.67Z"/><path class="cls-2" d="M233.7,222.08c-.19,.32-.41,.78-.56,1.21-.44,1.31-1.22,3.03-2.35,4.66,.63,.39,1.21,.78,1.63,1.09l-1.55,1.99c-.41-.36-.95-.77-1.58-1.21-1.51,1.65-3.52,3.18-6.27,4.23l-1.97-1.72c3.01-.92,4.93-2.36,6.34-3.81-1.16-.75-2.31-1.45-3.18-1.94l1.44-1.61c.9,.46,2.06,1.1,3.2,1.79,.83-1.21,1.51-2.6,1.77-3.62h-4.88c-1.19,1.58-2.77,3.21-4.49,4.39l-1.84-1.41c2.99-1.84,4.57-4.16,5.42-5.64,.25-.41,.61-1.19,.76-1.78l2.46,.76c-.41,.59-.85,1.38-1.05,1.73l-.02,.02h3.48c.53,0,1.11-.07,1.48-.19l1.73,1.07Z"/></g></g></svg>