<?xml version="1.0" encoding="UTF-8"?><svg xmlns="http://www.w3.org/2000/svg" viewBox="0 0 800 240"><defs><style>.cls-1{fill:#0071bc;}.cls-2{fill:#98d5f4;}.cls-3{fill:#333;}.cls-4{fill:none;stroke:gray;stroke-miterlimit:10;}</style></defs><g id="_021"><line class="cls-4" x1="324.01" y1="225" x2="324.01" y2="19"/><g><rect class="cls-2" x="324.01" y="128.88" width="164.78" height="63.12"/><rect class="cls-1" x="324.01" y="58.74" width="302.09" height="63.12"/></g></g><g id="Numbers"><g><path d="M684.99,95.41h-4.47v-10.01c0-.23,0-.56,.01-1.01,0-.45,.02-.93,.03-1.43,0-.5,.02-.95,.04-1.35-.14,.17-.33,.38-.57,.61-.24,.23-.47,.44-.68,.61l-2.13,1.74-2.21-2.76,6.16-4.96h3.82v18.56Z"/><path d="M700.02,95.41h-4.47v-10.01c0-.23,0-.56,.01-1.01,0-.45,.02-.93,.03-1.43,0-.5,.02-.95,.04-1.35-.14,.17-.33,.38-.57,.61-.24,.23-.47,.44-.68,.61l-2.13,1.74-2.21-2.76,6.16-4.96h3.82v18.56Z"/></g><path d="M689.62,163.53c0-1.06,.08-2.12,.23-3.17,.16-1.06,.43-2.05,.82-2.98,.39-.93,.94-1.75,1.65-2.47,.71-.72,1.62-1.28,2.73-1.69,1.11-.41,2.46-.61,4.06-.61,.36,0,.8,.02,1.31,.05,.51,.04,.93,.09,1.26,.16v3.48c-.35-.07-.72-.12-1.13-.17s-.86-.07-1.37-.07c-1.4,0-2.5,.22-3.28,.65-.78,.43-1.34,1.05-1.68,1.85-.34,.8-.53,1.73-.58,2.78h.16c.35-.61,.82-1.12,1.43-1.54,.61-.42,1.41-.62,2.42-.62,1.63,0,2.91,.52,3.85,1.56s1.4,2.5,1.4,4.39c0,2.06-.58,3.67-1.73,4.81s-2.72,1.72-4.69,1.72c-1.3,0-2.47-.29-3.5-.87-1.03-.58-1.85-1.47-2.46-2.68-.61-1.2-.91-2.73-.91-4.59Zm6.79,4.6c.66,0,1.19-.23,1.6-.7,.41-.47,.61-1.21,.61-2.21,0-.8-.17-1.43-.52-1.9s-.89-.7-1.64-.7-1.36,.24-1.79,.73c-.43,.48-.65,1.01-.65,1.59,0,.5,.09,1,.26,1.49,.17,.49,.44,.9,.79,1.22,.35,.32,.8,.48,1.34,.48Z"/></g><g id="Labels-JP"><g><path class="cls-3" d="M230.85,82.23h-3.13c.32,.46,.63,.91,.8,1.27l-2.09,.59c-.21-.49-.68-1.24-1.14-1.86h-1.1c-.34,.44-.68,.82-1.04,1.16v1.03h7.28v3.76h-2.2v-2.07h-12.1v2.07h-2.13v-3.76h6.99v-1.33h.84c-.34-.19-.7-.36-.95-.47,.15-.11,.32-.25,.47-.38h-2.22c.27,.46,.49,.91,.63,1.25l-2.03,.57c-.15-.47-.49-1.2-.85-1.82h-.32c-.49,.7-1.03,1.33-1.52,1.82-.44-.36-1.33-.97-1.84-1.21,1.14-.95,2.22-2.41,2.79-3.86l2.11,.57c-.13,.3-.29,.61-.44,.91h4.22v1.27c.76-.78,1.41-1.77,1.8-2.76l2.15,.51c-.13,.32-.28,.65-.46,.97h5.51v1.77Zm-11.76,9.76h9.76v4.9h-2.24v-.51h-7.52v.51h-2.17v-10.01h10.49v4.24h-8.32v.87Zm0-3.48v.99h6.08v-.99h-6.08Zm0,5.13v1.06h7.52v-1.06h-7.52Z"/><path class="cls-3" d="M238.81,93.08c-2.09,.74-4.37,1.46-6.19,2.05l-.51-2.3c.67-.17,1.44-.38,2.32-.63v-4.46h-1.92v-2.07h1.92v-3.34h-2.09v-2.11h6.27v2.11h-2.03v3.34h1.71v2.07h-1.71v3.8c.63-.19,1.25-.38,1.86-.59l.38,2.13Zm11.28,1.16v2.05h-12.21v-2.05h5.24v-1.8h-3.93v-2.03h3.93v-1.63h-3.8v-8.83h9.92v8.83h-3.82v1.63h4.03v2.03h-4.03v1.8h4.67Zm-8.74-10.81h1.96v-1.58h-1.96v1.58Zm0,3.42h1.96v-1.63h-1.96v1.63Zm5.74-5h-1.88v1.58h1.88v-1.58Zm0,3.36h-1.88v1.63h1.88v-1.63Z"/><path class="cls-3" d="M268.81,87.91c-.51,1.82-1.22,3.46-2.11,4.88,.17,.91,.38,1.42,.61,1.44,.23,0,.38-.88,.46-2.38,.32,.46,1.14,1.04,1.46,1.25-.47,3.08-1.37,3.74-2.01,3.74-.85-.02-1.48-.78-1.94-2.17-.74,.86-1.58,1.6-2.49,2.22-.25-.38-.89-1.12-1.29-1.48,.47-.29,.93-.61,1.35-.95h-2.85v1.1h-1.73v-7.94h5.22v6.25c.46-.44,.87-.93,1.25-1.46-.25-1.54-.42-3.44-.51-5.62h-6.67v-1.75h1.2c-.04-.63-.19-1.56-.42-2.26l1.1-.27h-1.5v-.7h-.72v15.05h-1.88v-3.25c-1.35,.28-2.7,.57-3.84,.8l-.38-2.07c.34-.04,.72-.1,1.12-.17v-10.35h-.74v-1.97h6.52v1.03h1.86v-1.71h1.92v1.71h1.94v1.65h-1.63l1.29,.25c-.29,.82-.55,1.67-.76,2.28h1.52c-.06-1.82-.09-3.8-.11-5.91h1.98v1.42l1.22-.65c.78,.93,1.52,2.17,1.86,3.02l-1.58,.87c-.27-.76-.87-1.88-1.5-2.77,0,1.41,.02,2.74,.06,4.01h2.93v1.75h-2.85c.04,1.01,.09,1.94,.17,2.79,.27-.67,.49-1.37,.68-2.09l1.8,.4Zm-13.47-6.08h-1.25v2.05h1.25v-2.05Zm0,3.88h-1.25v2.05h1.25v-2.05Zm0,5.95v-2.07h-1.25v2.3l1.25-.23Zm4.46-9.12c.29,.72,.46,1.69,.49,2.32l-.85,.21h2.74l-.99-.23c.19-.65,.4-1.62,.49-2.3h-1.88Zm.19,6.67v1.14h1.75v-1.14h-1.75Zm1.75,3.74v-1.14h-1.75v1.14h1.75Z"/><path class="cls-3" d="M278.54,93.78c.72-.09,1.25-.19,1.75-.3,2.41-.57,4.27-2.3,4.27-5.04s-1.41-4.54-3.93-4.98c-.27,1.6-.59,3.34-1.12,5.11-1.12,3.8-2.75,6.12-4.81,6.12s-3.84-2.3-3.84-5.47c0-4.33,3.78-8.05,8.66-8.05s7.6,3.25,7.6,7.35-2.43,6.76-7.18,7.48l-1.41-2.22Zm-1.46-5.7c.44-1.39,.78-3,1.01-4.56-3.12,.65-4.77,3.38-4.77,5.45,0,1.9,.76,2.83,1.46,2.83,.78,0,1.54-1.18,2.3-3.72Z"/><path class="cls-3" d="M305.4,92.7c-.49-.44-1.04-.89-1.62-1.31-.84,2.13-2.26,3.78-4.77,5.09l-2.01-1.63c2.85-1.22,4.16-3.02,4.79-4.73-1.33-.72-2.81-1.29-4.41-1.52-.7,1.62-1.52,3.48-2.18,4.52-.74,1.14-1.63,1.65-2.93,1.65-1.65,0-2.89-1.14-2.89-3.04,0-2.91,2.64-5.15,6.42-5.32,.53-1.22,1.06-2.49,1.5-3.38-.74,.02-2.36,.08-3.21,.13-.4,.02-1.06,.1-1.54,.17l-.1-2.43c.49,.06,1.14,.08,1.56,.08,1.06,0,3.08-.08,3.95-.15,.46-.04,.95-.15,1.27-.29l1.5,1.18c-.27,.29-.47,.53-.63,.8-.49,.8-1.18,2.43-1.84,4.03,1.46,.23,2.83,.68,4.05,1.22,.02-.23,.04-.44,.06-.65,.04-.72,.06-1.44-.02-2.05l2.47,.29c-.08,1.25-.17,2.43-.36,3.5,.78,.44,1.46,.89,2.01,1.25l-1.08,2.6Zm-10.56-4.12c-2.09,.32-3.23,1.6-3.23,2.77,0,.53,.32,.89,.7,.89s.65-.17,.99-.65c.48-.7,1.01-1.86,1.54-3.02Z"/><path class="cls-3" d="M241.6,166.39h7.03v2.03h-16.17v-2.03h6.78v-2.26h-5.26v-1.98h5.26v-2.18h-4.29v-1.5c-.68,.48-1.39,.91-2.11,1.31-.28-.53-.91-1.35-1.42-1.82,3.25-1.63,6.31-4.56,7.71-6.88h2.34c2.03,2.89,5.13,5.38,8.13,6.65-.59,.61-1.08,1.33-1.5,2.03-.68-.38-1.37-.8-2.05-1.27v1.48h-4.45v2.18h5.32v1.98h-5.32v2.26Zm3.71-8.42c-1.98-1.44-3.8-3.17-4.9-4.71-1.08,1.54-2.77,3.25-4.75,4.71h9.65Z"/><path class="cls-3" d="M256.56,155.94c-.42,.76-.91,1.54-1.44,2.3v10.68h-2.11v-8.13c-.49,.53-.99,.99-1.48,1.41-.21-.49-.82-1.63-1.18-2.11,1.58-1.2,3.25-3.04,4.24-4.88l1.98,.74Zm-.32-4.01c-1.2,1.63-2.96,3.48-4.54,4.64-.29-.46-.84-1.25-1.18-1.65,1.35-.95,2.92-2.53,3.72-3.76l1.99,.78Zm7.49,14.44c.51,.08,1.06,.11,1.61,.11,.51,.02,2.49,0,3.15,0-.3,.49-.57,1.54-.67,2.11h-2.66c-2.6,0-4.73-.63-6.23-2.93-.46,1.29-1.08,2.39-1.94,3.29-.32-.4-1.22-1.2-1.73-1.54,1.75-1.65,2.3-4.46,2.45-7.77l2.26,.15c-.08,1.12-.19,2.17-.36,3.15,.47,1.2,1.12,2.01,1.9,2.56v-7.9h-4.46v-2.15h2.6c-.42-1.01-1.14-2.38-1.79-3.38l1.86-.82c.78,1.12,1.62,2.6,2.01,3.61l-1.22,.59h4.54l-1.46-.55c.61-1.01,1.37-2.58,1.77-3.78l2.2,.76c-.63,1.27-1.31,2.6-1.9,3.57h2.28v2.15h-4.24v2.94h3.72v2.07h-3.72v3.74Z"/><path class="cls-3" d="M281.44,164.54c1.62,.99,3.82,1.73,6.02,2.07-.51,.49-1.18,1.44-1.52,2.05-2.34-.59-4.64-1.73-6.38-3.21v3.42h-2.22v-3.31c-1.77,1.39-4.1,2.49-6.36,3.08-.32-.55-.97-1.42-1.44-1.88,2.13-.44,4.37-1.23,6-2.22h-5.45v-1.86h7.26v-.84h-5.47v-1.63h5.47v-.85h-6.42v-1.77h3.61c-.15-.47-.4-1.04-.65-1.48l.23-.04h-3.97v-1.84h2.54c-.27-.72-.76-1.63-1.18-2.36l1.94-.67c.55,.82,1.18,1.94,1.44,2.68l-.93,.34h1.73v-3.1h2.11v3.1h1.41v-3.1h2.13v3.1h1.69l-.68-.21c.46-.78,.93-1.92,1.2-2.75l2.38,.57c-.53,.87-1.04,1.73-1.48,2.39h2.47v1.84h-3.57c-.3,.55-.61,1.06-.89,1.52h3.72v1.77h-6.59v.85h5.7v1.63h-5.7v.84h7.39v1.86h-5.51Zm-5.17-8.47c.27,.49,.51,1.04,.65,1.46l-.32,.06h3.55c.23-.46,.46-1.01,.67-1.52h-4.54Z"/><path class="cls-3" d="M301.43,165.59c1.77,.53,3.7,1.22,5.01,1.73l-1.99,1.6c-1.46-.68-4.08-1.61-6.1-2.2l1.58-1.12h-5.15l1.44,1.01c-1.54,.89-3.97,1.8-5.89,2.28-.42-.48-1.2-1.18-1.71-1.62,1.63-.36,3.57-1.03,4.86-1.67h-2.94v-8.42h13.89v8.42h-3Zm2.34-9.12h-12.37v-4.75h12.37v4.75Zm-10.98,3.06h9.31v-.82h-9.31v.82Zm0,2.24h9.31v-.82h-9.31v.82Zm0,2.28h9.31v-.84h-9.31v.84Zm8.57-10.56h-7.67v1.24h7.67v-1.24Z"/></g></g></svg>