<?xml version="1.0" encoding="UTF-8"?><svg xmlns="http://www.w3.org/2000/svg" viewBox="0 0 800 480"><defs><style>.cls-1{fill:#0071bc;}.cls-2{fill:#e6e6e6;}.cls-3{fill:#999;}.cls-4{fill:#98d5f4;}.cls-5{fill:#333;}.cls-6{fill:#29abe2;}.cls-7{fill:none;stroke:gray;stroke-miterlimit:10;}</style></defs><g id="_021"><line class="cls-7" x1="339.01" y1="400.96" x2="339.01" y2="79.22"/><g><rect class="cls-2" x="339.01" y="307.66" width="319.99" height="57.91"/><rect class="cls-6" x="339.01" y="243.31" width="124.87" height="57.91"/><rect class="cls-4" x="339.01" y="178.96" width="148.29" height="57.91"/><rect class="cls-1" x="339.01" y="114.62" width="171.7" height="57.91"/></g></g><g id="Numbers"><g><path d="M690.83,146.41h-13.21v-2.99l4.6-4.65c.94-.97,1.68-1.77,2.24-2.39s.95-1.17,1.18-1.65c.23-.48,.35-.98,.35-1.52,0-.66-.2-1.14-.58-1.44-.39-.3-.88-.46-1.47-.46-.66,0-1.3,.17-1.94,.49s-1.32,.81-2.07,1.43l-2.42-2.83c.54-.48,1.11-.94,1.72-1.36,.61-.42,1.32-.77,2.14-1.04,.82-.27,1.82-.4,2.98-.4,1.25,0,2.32,.22,3.22,.66s1.59,1.04,2.08,1.79c.48,.75,.73,1.62,.73,2.59,0,1.04-.2,1.98-.6,2.83-.4,.85-.99,1.69-1.77,2.52-.78,.83-1.73,1.77-2.86,2.81l-1.92,1.77v.16h7.59v3.69Z"/><path d="M705.85,146.41h-13.21v-2.99l4.6-4.65c.94-.97,1.68-1.77,2.24-2.39s.95-1.17,1.18-1.65c.23-.48,.35-.98,.35-1.52,0-.66-.2-1.14-.58-1.44-.39-.3-.88-.46-1.47-.46-.66,0-1.3,.17-1.94,.49s-1.32,.81-2.07,1.43l-2.42-2.83c.54-.48,1.11-.94,1.72-1.36,.61-.42,1.32-.77,2.14-1.04,.82-.27,1.82-.4,2.98-.4,1.25,0,2.32,.22,3.22,.66s1.59,1.04,2.08,1.79c.48,.75,.73,1.62,.73,2.59,0,1.04-.2,1.98-.6,2.83-.4,.85-.99,1.69-1.77,2.52-.78,.83-1.73,1.77-2.86,2.81l-1.92,1.77v.16h7.59v3.69Z"/><path d="M711.94,127.58c1.46,0,2.59,.51,3.41,1.52,.81,1.01,1.22,2.44,1.22,4.28s-.38,3.27-1.14,4.3c-.76,1.03-1.92,1.55-3.48,1.55-1.42,0-2.53-.52-3.33-1.55-.8-1.03-1.2-2.47-1.2-4.3s.37-3.26,1.12-4.28c.75-1.01,1.88-1.52,3.41-1.52Zm.05,2.86c-.4,0-.68,.25-.84,.75-.17,.5-.25,1.24-.25,2.21s.08,1.72,.25,2.24,.45,.78,.84,.78,.68-.26,.85-.78c.16-.52,.25-1.27,.25-2.24s-.08-1.71-.25-2.21c-.17-.5-.45-.75-.85-.75Zm13.57-2.6l-10.3,18.56h-3.38l10.3-18.56h3.38Zm-.1,7.15c1.46,0,2.59,.51,3.41,1.52s1.22,2.44,1.22,4.28-.38,3.27-1.14,4.3-1.92,1.55-3.48,1.55c-1.42,0-2.53-.52-3.33-1.55-.8-1.03-1.2-2.47-1.2-4.3s.37-3.26,1.12-4.28,1.88-1.52,3.41-1.52Zm.05,2.83c-.4,0-.68,.26-.84,.78-.17,.52-.25,1.26-.25,2.21s.08,1.69,.25,2.21c.16,.52,.45,.78,.84,.78,.73,0,1.09-1,1.09-2.99s-.36-2.99-1.09-2.99Z"/></g><g><path d="M688.02,213.74h-4.47v-10.01c0-.23,0-.56,.01-1.01s.02-.93,.03-1.43c0-.5,.02-.95,.04-1.35-.14,.17-.33,.38-.57,.61-.24,.23-.47,.44-.68,.61l-2.13,1.74-2.21-2.76,6.16-4.97h3.82v18.56Z"/><path d="M705.85,203.21c0,1.47-.15,2.86-.46,4.17-.3,1.31-.82,2.46-1.53,3.44-.72,.99-1.69,1.76-2.91,2.33-1.22,.56-2.75,.84-4.59,.84-.36,0-.79-.01-1.29-.04-.49-.03-.91-.07-1.23-.12v-3.54c.71,.16,1.47,.23,2.29,.23,1.47,0,2.61-.22,3.42-.66,.81-.44,1.37-1.06,1.7-1.86,.33-.8,.52-1.72,.57-2.76h-.16c-.35,.61-.81,1.12-1.38,1.53-.57,.42-1.42,.62-2.55,.62-1.58,0-2.83-.52-3.77-1.56-.94-1.04-1.4-2.51-1.4-4.42,0-2.03,.57-3.62,1.72-4.77,1.14-1.15,2.71-1.73,4.71-1.73,1.28,0,2.44,.29,3.48,.88,1.04,.59,1.86,1.5,2.47,2.72,.61,1.22,.91,2.78,.91,4.67Zm-6.76-4.73c-.68,0-1.22,.23-1.64,.7-.42,.47-.62,1.21-.62,2.21,0,.81,.18,1.46,.55,1.92,.36,.47,.92,.7,1.66,.7s1.29-.25,1.74-.74c.45-.49,.68-1.02,.68-1.57,0-.52-.09-1.03-.26-1.52s-.43-.9-.78-1.22-.79-.48-1.33-.48Z"/><path d="M711.94,194.92c1.46,0,2.59,.51,3.41,1.52,.81,1.01,1.22,2.44,1.22,4.28s-.38,3.27-1.14,4.3c-.76,1.03-1.92,1.55-3.48,1.55-1.42,0-2.53-.52-3.33-1.55-.8-1.03-1.2-2.47-1.2-4.3s.37-3.26,1.12-4.28c.75-1.01,1.88-1.52,3.41-1.52Zm.05,2.86c-.4,0-.68,.25-.84,.75-.17,.5-.25,1.24-.25,2.21s.08,1.72,.25,2.24,.45,.78,.84,.78,.68-.26,.85-.78c.16-.52,.25-1.27,.25-2.24s-.08-1.71-.25-2.21c-.17-.5-.45-.75-.85-.75Zm13.57-2.6l-10.3,18.56h-3.38l10.3-18.56h3.38Zm-.1,7.15c1.46,0,2.59,.51,3.41,1.52s1.22,2.44,1.22,4.28-.38,3.27-1.14,4.3-1.92,1.55-3.48,1.55c-1.42,0-2.53-.52-3.33-1.55-.8-1.03-1.2-2.47-1.2-4.3s.37-3.26,1.12-4.28,1.88-1.52,3.41-1.52Zm.05,2.83c-.4,0-.68,.26-.84,.78-.17,.52-.25,1.26-.25,2.21s.08,1.69,.25,2.21c.16,.52,.45,.78,.84,.78,.73,0,1.09-1,1.09-2.99s-.36-2.99-1.09-2.99Z"/></g><g><path d="M688.02,281.08h-4.47v-10.01c0-.23,0-.56,.01-1.01,0-.45,.02-.93,.03-1.43s.02-.95,.04-1.35c-.14,.17-.33,.38-.57,.61s-.47,.44-.68,.61l-2.13,1.74-2.21-2.76,6.16-4.97h3.82v18.56Z"/><path d="M692.65,273.2c0-1.06,.08-2.12,.23-3.17,.16-1.06,.43-2.05,.82-2.98,.39-.93,.94-1.75,1.65-2.47,.71-.72,1.62-1.28,2.73-1.69,1.11-.41,2.46-.61,4.06-.61,.36,0,.8,.02,1.31,.05,.51,.04,.93,.09,1.26,.16v3.48c-.35-.07-.72-.12-1.13-.17-.41-.04-.86-.06-1.37-.06-1.4,0-2.5,.22-3.28,.65-.78,.43-1.34,1.05-1.68,1.85-.34,.8-.53,1.73-.58,2.78h.16c.35-.61,.82-1.12,1.43-1.53,.61-.42,1.41-.62,2.42-.62,1.63,0,2.91,.52,3.85,1.56s1.4,2.5,1.4,4.39c0,2.06-.58,3.67-1.73,4.81-1.15,1.14-2.72,1.72-4.69,1.72-1.3,0-2.47-.29-3.5-.87-1.03-.58-1.85-1.47-2.46-2.68-.61-1.21-.91-2.73-.91-4.59Zm6.79,4.6c.66,0,1.19-.23,1.6-.7,.41-.47,.61-1.2,.61-2.21,0-.8-.17-1.43-.52-1.9-.35-.47-.89-.7-1.64-.7s-1.36,.24-1.79,.73c-.43,.49-.65,1.01-.65,1.59,0,.5,.09,1,.26,1.5,.17,.49,.44,.9,.79,1.22,.35,.32,.8,.48,1.34,.48Z"/><path d="M711.94,262.25c1.46,0,2.59,.51,3.41,1.52,.81,1.01,1.22,2.44,1.22,4.28s-.38,3.27-1.14,4.3c-.76,1.03-1.92,1.55-3.48,1.55-1.42,0-2.53-.52-3.33-1.55-.8-1.03-1.2-2.46-1.2-4.3s.37-3.26,1.12-4.28c.75-1.01,1.88-1.52,3.41-1.52Zm.05,2.86c-.4,0-.68,.25-.84,.75s-.25,1.24-.25,2.21,.08,1.72,.25,2.24c.17,.52,.45,.78,.84,.78s.68-.26,.85-.78c.16-.52,.25-1.26,.25-2.24s-.08-1.71-.25-2.21c-.17-.5-.45-.75-.85-.75Zm13.57-2.6l-10.3,18.56h-3.38l10.3-18.56h3.38Zm-.1,7.15c1.46,0,2.59,.51,3.41,1.52,.81,1.01,1.22,2.44,1.22,4.28s-.38,3.27-1.14,4.3-1.92,1.55-3.48,1.55c-1.42,0-2.53-.52-3.33-1.55-.8-1.03-1.2-2.46-1.2-4.3s.37-3.26,1.12-4.28c.75-1.01,1.88-1.52,3.41-1.52Zm.05,2.83c-.4,0-.68,.26-.84,.78-.17,.52-.25,1.26-.25,2.21s.08,1.69,.25,2.21c.16,.52,.45,.78,.84,.78,.73,0,1.09-1,1.09-2.99s-.36-2.99-1.09-2.99Z"/></g><g><path d="M691.32,344.69h-2.13v3.72h-4.34v-3.72h-7.7v-3.17l7.96-11.67h4.08v11.46h2.13v3.38Zm-6.47-3.38v-2.68c0-.35,0-.77,.03-1.27,.02-.5,.03-.96,.05-1.38s.04-.68,.05-.78h-.13c-.16,.36-.31,.69-.47,.97-.16,.29-.35,.6-.57,.95l-2.78,4.19h3.82Z"/><path d="M703.04,348.41h-4.47v-10.01c0-.23,0-.56,.01-1.01,0-.45,.02-.93,.03-1.43,0-.5,.02-.95,.04-1.35-.14,.17-.33,.38-.57,.61-.24,.23-.47,.44-.68,.61l-2.13,1.74-2.21-2.76,6.16-4.96h3.82v18.56Z"/><path d="M711.94,329.58c1.46,0,2.59,.51,3.41,1.52,.81,1.01,1.22,2.44,1.22,4.28s-.38,3.27-1.14,4.3c-.76,1.03-1.92,1.55-3.48,1.55-1.42,0-2.53-.52-3.33-1.55-.8-1.03-1.2-2.46-1.2-4.3s.37-3.26,1.12-4.28c.75-1.01,1.88-1.52,3.41-1.52Zm.05,2.86c-.4,0-.68,.25-.84,.75-.17,.5-.25,1.24-.25,2.21s.08,1.72,.25,2.24c.17,.52,.45,.78,.84,.78s.68-.26,.85-.78c.16-.52,.25-1.26,.25-2.24s-.08-1.71-.25-2.21c-.17-.5-.45-.75-.85-.75Zm13.57-2.6l-10.3,18.56h-3.38l10.3-18.56h3.38Zm-.1,7.15c1.46,0,2.59,.51,3.41,1.52,.81,1.01,1.22,2.44,1.22,4.28s-.38,3.27-1.14,4.3-1.92,1.55-3.48,1.55c-1.42,0-2.53-.52-3.33-1.55-.8-1.03-1.2-2.46-1.2-4.3s.37-3.26,1.12-4.28c.75-1.01,1.88-1.52,3.41-1.52Zm.05,2.83c-.4,0-.68,.26-.84,.78-.17,.52-.25,1.26-.25,2.21s.08,1.69,.25,2.21c.16,.52,.45,.78,.84,.78,.73,0,1.09-1,1.09-2.99s-.36-2.99-1.09-2.99Z"/></g></g><g id="Labels-JP"><g><path class="cls-5" d="M251.6,151.39h7.03v2.03h-16.17v-2.03h6.78v-2.26h-5.26v-1.98h5.26v-2.18h-4.29v-1.5c-.68,.48-1.39,.91-2.11,1.31-.28-.53-.91-1.35-1.42-1.82,3.25-1.63,6.31-4.56,7.71-6.88h2.34c2.03,2.89,5.13,5.38,8.13,6.65-.59,.61-1.08,1.33-1.5,2.03-.68-.38-1.37-.8-2.05-1.27v1.48h-4.45v2.18h5.32v1.98h-5.32v2.26Zm3.71-8.42c-1.98-1.44-3.8-3.17-4.9-4.71-1.08,1.54-2.77,3.25-4.75,4.71h9.65Z"/><path class="cls-5" d="M266.56,140.94c-.42,.76-.91,1.54-1.44,2.3v10.68h-2.11v-8.13c-.49,.53-.99,.99-1.48,1.41-.21-.49-.82-1.63-1.18-2.11,1.58-1.2,3.25-3.04,4.24-4.88l1.98,.74Zm-.32-4.01c-1.2,1.63-2.96,3.48-4.54,4.64-.29-.46-.84-1.25-1.18-1.65,1.35-.95,2.92-2.53,3.72-3.76l1.99,.78Zm7.49,14.44c.51,.08,1.06,.11,1.61,.11,.51,.02,2.49,0,3.15,0-.3,.49-.57,1.54-.67,2.11h-2.66c-2.6,0-4.73-.63-6.23-2.93-.46,1.29-1.08,2.39-1.94,3.29-.32-.4-1.22-1.2-1.73-1.54,1.75-1.65,2.3-4.46,2.45-7.77l2.26,.15c-.08,1.12-.19,2.17-.36,3.15,.47,1.2,1.12,2.01,1.9,2.56v-7.9h-4.46v-2.15h2.6c-.42-1.01-1.14-2.37-1.79-3.38l1.86-.82c.78,1.12,1.62,2.6,2.01,3.61l-1.22,.59h4.54l-1.46-.55c.61-1.01,1.37-2.58,1.77-3.78l2.2,.76c-.63,1.27-1.31,2.6-1.9,3.57h2.28v2.15h-4.24v2.94h3.72v2.07h-3.72v3.74Z"/><path class="cls-5" d="M291.44,149.54c1.62,.99,3.82,1.73,6.02,2.07-.51,.49-1.18,1.44-1.52,2.05-2.34-.59-4.64-1.73-6.38-3.21v3.42h-2.22v-3.31c-1.77,1.39-4.1,2.49-6.36,3.08-.32-.55-.97-1.42-1.44-1.88,2.13-.44,4.37-1.23,6-2.22h-5.45v-1.86h7.26v-.84h-5.47v-1.63h5.47v-.85h-6.42v-1.77h3.61c-.15-.48-.4-1.04-.65-1.48l.23-.04h-3.97v-1.84h2.54c-.27-.72-.76-1.63-1.18-2.36l1.94-.67c.55,.82,1.18,1.94,1.44,2.68l-.93,.34h1.73v-3.1h2.11v3.1h1.41v-3.1h2.13v3.1h1.69l-.68-.21c.46-.78,.93-1.92,1.2-2.75l2.38,.57c-.53,.87-1.04,1.73-1.48,2.39h2.47v1.84h-3.57c-.3,.55-.61,1.06-.89,1.52h3.72v1.77h-6.59v.85h5.7v1.63h-5.7v.84h7.39v1.86h-5.51Zm-5.17-8.47c.27,.49,.51,1.04,.65,1.46l-.32,.06h3.55c.23-.46,.46-1.01,.67-1.52h-4.54Z"/><path class="cls-5" d="M311.43,150.59c1.77,.53,3.7,1.22,5.01,1.73l-1.99,1.6c-1.46-.68-4.08-1.61-6.1-2.2l1.58-1.12h-5.15l1.44,1.01c-1.54,.89-3.97,1.8-5.89,2.28-.42-.48-1.2-1.18-1.71-1.61,1.63-.36,3.57-1.03,4.86-1.67h-2.94v-8.42h13.89v8.42h-3Zm2.34-9.12h-12.37v-4.75h12.37v4.75Zm-10.98,3.06h9.31v-.82h-9.31v.82Zm0,2.24h9.31v-.82h-9.31v.82Zm0,2.28h9.31v-.84h-9.31v.84Zm8.57-10.56h-7.67v1.23h7.67v-1.23Z"/><path class="cls-5" d="M240.22,203.23h-3.13c.32,.46,.63,.91,.8,1.27l-2.09,.59c-.21-.49-.68-1.23-1.14-1.86h-1.1c-.34,.44-.68,.82-1.04,1.16v1.03h7.28v3.76h-2.2v-2.07h-12.1v2.07h-2.13v-3.76h6.99v-1.33h.84c-.34-.19-.7-.36-.95-.48,.15-.11,.32-.25,.47-.38h-2.22c.27,.46,.49,.91,.63,1.25l-2.03,.57c-.15-.48-.49-1.2-.85-1.82h-.32c-.49,.7-1.03,1.33-1.52,1.82-.44-.36-1.33-.97-1.84-1.22,1.14-.95,2.22-2.41,2.79-3.86l2.11,.57c-.13,.3-.29,.61-.44,.91h4.22v1.27c.76-.78,1.41-1.77,1.8-2.75l2.15,.51c-.13,.32-.28,.65-.46,.97h5.51v1.77Zm-11.76,9.76h9.76v4.9h-2.24v-.51h-7.52v.51h-2.17v-10.01h10.49v4.24h-8.32v.87Zm0-3.48v.99h6.08v-.99h-6.08Zm0,5.13v1.06h7.52v-1.06h-7.52Z"/><path class="cls-5" d="M248.18,214.08c-2.09,.74-4.37,1.46-6.19,2.05l-.51-2.3c.67-.17,1.44-.38,2.32-.63v-4.46h-1.92v-2.07h1.92v-3.34h-2.09v-2.11h6.27v2.11h-2.03v3.34h1.71v2.07h-1.71v3.8c.63-.19,1.25-.38,1.86-.59l.38,2.13Zm11.28,1.16v2.05h-12.21v-2.05h5.24v-1.8h-3.93v-2.03h3.93v-1.63h-3.8v-8.83h9.92v8.83h-3.82v1.63h4.03v2.03h-4.03v1.8h4.67Zm-8.74-10.81h1.96v-1.58h-1.96v1.58Zm0,3.42h1.96v-1.63h-1.96v1.63Zm5.74-5h-1.88v1.58h1.88v-1.58Zm0,3.36h-1.88v1.63h1.88v-1.63Z"/><path class="cls-5" d="M278.18,208.91c-.51,1.82-1.22,3.46-2.11,4.88,.17,.91,.38,1.42,.61,1.44,.23,0,.38-.87,.46-2.37,.32,.46,1.14,1.04,1.46,1.25-.47,3.08-1.37,3.74-2.01,3.74-.85-.02-1.48-.78-1.94-2.17-.74,.85-1.58,1.6-2.49,2.22-.25-.38-.89-1.12-1.29-1.48,.47-.29,.93-.61,1.35-.95h-2.85v1.1h-1.73v-7.94h5.22v6.25c.46-.44,.87-.93,1.25-1.46-.25-1.54-.42-3.44-.51-5.62h-6.67v-1.75h1.2c-.04-.63-.19-1.56-.42-2.26l1.1-.27h-1.5v-.7h-.72v15.05h-1.88v-3.25c-1.35,.28-2.7,.57-3.84,.8l-.38-2.07c.34-.04,.72-.09,1.12-.17v-10.35h-.74v-1.98h6.52v1.03h1.86v-1.71h1.92v1.71h1.94v1.65h-1.63l1.29,.25c-.29,.82-.55,1.67-.76,2.28h1.52c-.06-1.82-.09-3.8-.11-5.91h1.98v1.42l1.22-.65c.78,.93,1.52,2.17,1.86,3.02l-1.58,.87c-.27-.76-.87-1.88-1.5-2.77,0,1.41,.02,2.74,.06,4.01h2.93v1.75h-2.85c.04,1.01,.09,1.94,.17,2.79,.27-.67,.49-1.37,.68-2.09l1.8,.4Zm-13.47-6.08h-1.25v2.05h1.25v-2.05Zm0,3.88h-1.25v2.05h1.25v-2.05Zm0,5.95v-2.07h-1.25v2.3l1.25-.23Zm4.46-9.12c.29,.72,.46,1.69,.49,2.32l-.85,.21h2.74l-.99-.23c.19-.65,.4-1.61,.49-2.3h-1.88Zm.19,6.67v1.14h1.75v-1.14h-1.75Zm1.75,3.74v-1.14h-1.75v1.14h1.75Z"/><path class="cls-5" d="M287.76,212.52c-2.51,1.12-5.32,2.32-7.47,3.21l-.76-2.41c.72-.25,1.58-.55,2.53-.93l-.38-11.09,2.36-.1,.34,10.28c.95-.4,1.92-.8,2.87-1.18l.51,2.22Zm7.87,5.34c-.7-1.23-2.15-2.98-3.55-4.58-1.39,1.98-3.27,3.5-5.78,4.62-.32-.49-1.25-1.52-1.8-1.99,6.02-2.28,7.98-6.88,8.68-14.69l2.49,.23c-.4,3.89-1.08,7.07-2.32,9.65,1.58,1.63,3.34,3.55,4.22,4.88l-1.94,1.88Zm-7.12-9.75c-.47-1.31-1.69-3.31-2.83-4.71l2.05-1.03c1.24,1.39,2.43,3.25,3,4.56l-2.22,1.18Z"/><path class="cls-5" d="M316.12,214.67v2.28h-17.27v-2.28h6.8v-14.31h2.43v5.43h6.71v2.3h-6.71v6.57h8.04Z"/><path class="cls-5" d="M193.73,280.22l-2.89-5.32h-1.96v5.32h-2.81v-14.06h4.9c2.94,0,5.28,1.03,5.28,4.26,0,2.11-1.06,3.42-2.68,4.05l3.29,5.76h-3.13Zm-4.84-7.54h1.82c1.8,0,2.79-.76,2.79-2.26s-.99-2.03-2.79-2.03h-1.82v4.29Z"/><path class="cls-5" d="M210.67,280.45c-.82-.46-1.58-.91-2.56-1.69-1.1,1.06-2.45,1.69-4.33,1.69-3.17,0-4.86-1.61-4.86-3.91,0-1.86,1.33-2.96,2.79-3.89-.72-1.04-1.18-2.09-1.18-3.17,0-2.22,1.58-3.59,3.65-3.59s3.51,1.18,3.51,3.13c0,1.84-1.35,2.94-2.79,3.88,.89,.89,1.96,1.77,2.96,2.55,.51-.87,.87-1.84,1.04-3.06h2.47c-.32,1.63-.89,3.08-1.75,4.45,.93,.67,1.77,1.18,2.28,1.46l-1.23,2.17Zm-6.65-2.13c.8,0,1.6-.38,2.32-1.03-1.2-1.01-2.39-2.05-3.4-3.13-.87,.65-1.54,1.35-1.54,2.3,0,1.23,1.1,1.86,2.62,1.86Zm-.36-6.84c1.06-.67,1.9-1.37,1.9-2.37,0-.84-.47-1.39-1.31-1.39-.91,0-1.48,.59-1.48,1.65,0,.66,.34,1.37,.89,2.11Z"/><path class="cls-5" d="M214.61,266.17h3.86c4.29,0,6.95,2.22,6.95,6.97s-2.66,7.09-6.8,7.09h-4.01v-14.06Zm3.69,11.8c2.62,0,4.26-1.41,4.26-4.83s-1.63-4.73-4.26-4.73h-.87v9.56h.87Z"/><path class="cls-5" d="M241.89,277.24c.68,0,1.29-.08,1.77-.15v2.75c-.53-.08-1.33-.1-1.77-.1h-12.52c-.57,0-1.23,.02-1.86,.1v-2.75c.59,.11,1.27,.15,1.86,.15h4.83v-7.75h-3.67c-.51,0-1.33,.04-1.8,.08v-2.6c.49,.08,1.27,.11,1.8,.11h10.33c.57,0,1.23-.06,1.79-.11v2.6c-.57-.04-1.23-.08-1.79-.08h-4.01v7.75h5.03Z"/><path class="cls-5" d="M253.33,275.95c3.23-1.92,5.72-4.83,6.92-7.39l1.48,2.68c-1.44,2.56-3.97,5.19-7.03,7.03-1.92,1.16-4.37,2.22-7.05,2.68l-1.6-2.51c2.96-.42,5.43-1.39,7.28-2.49Zm0-6.16l-1.94,2c-.99-1.06-3.36-3.13-4.75-4.1l1.79-1.9c1.33,.89,3.8,2.87,4.9,4.01Z"/><path class="cls-5" d="M269.04,272.28l-1.39,2.13c-1.08-.76-3.06-2.03-4.33-2.72l1.37-2.09c1.29,.68,3.38,2,4.35,2.68Zm1.52,4.33c3.23-1.8,5.89-4.41,7.39-7.12l1.46,2.58c-1.75,2.64-4.45,5.03-7.54,6.84-1.94,1.08-4.67,2.03-6.34,2.34l-1.42-2.49c2.13-.36,4.41-1.01,6.46-2.15Zm1.39-8.62l-1.41,2.09c-1.06-.74-3.04-2.01-4.29-2.72l1.37-2.09c1.25,.68,3.34,2.03,4.33,2.72Zm5.66,.59l-1.65,.7c-.55-1.2-.99-2.01-1.67-2.98l1.58-.67c.55,.8,1.31,2.07,1.75,2.94Zm2.66-1.03l-1.61,.72c-.61-1.2-1.08-1.94-1.79-2.89l1.62-.67c.59,.76,1.33,2,1.79,2.83Z"/><path class="cls-5" d="M282.27,276.61c.74,.06,1.63,.13,2.38,.13h10.9c.65,0,1.44-.06,2.09-.13v2.91c-.67-.08-1.52-.11-2.09-.11h-10.9c-.74,0-1.67,.06-2.38,.11v-2.91Zm1.6-9.29c.68,.08,1.58,.11,2.22,.11h7.87c.76,0,1.58-.06,2.11-.11v2.75c-.55-.02-1.44-.08-2.11-.08h-7.85c-.72,0-1.6,.04-2.24,.08v-2.75Z"/><path class="cls-5" d="M316.75,267.36c-.21,.25-.57,.7-.74,.99-.89,1.48-2.7,3.88-4.58,5.21l-1.96-1.58c1.52-.93,3-2.6,3.5-3.53h-9.9c-.8,0-1.42,.06-2.32,.13v-2.64c.72,.11,1.52,.19,2.32,.19h10.24c.53,0,1.58-.06,1.92-.17l1.52,1.41Zm-7.75,2.56c0,4.71-.09,8.59-5.28,11.36l-2.2-1.8c.61-.21,1.29-.53,2-1.04,2.41-1.67,2.87-3.69,2.87-6.8,0-.59-.04-1.1-.13-1.71h2.75Z"/><path class="cls-5" d="M178.89,331.08v4.05h-2.18v-2.13h-11.87v2.13h-2.05v-4.05h2.3c-.34-.61-.82-1.29-1.25-1.86l1.96-.84c.63,.72,1.37,1.73,1.69,2.43l-.61,.27h2.92c-.27-.68-.78-1.61-1.23-2.34l1.98-.67c.55,.74,1.18,1.82,1.44,2.51l-1.33,.49h3.12c.61-.82,1.33-1.98,1.69-2.87l2.43,.76c-.55,.72-1.12,1.48-1.65,2.11h2.66Zm-7.16,7.5c-.15,.42-.32,.8-.49,1.16h6.29v6.17h-2.24v-.63h-8.91v.63h-2.15v-6.17h4.77c.1-.38,.21-.78,.29-1.16h-3.46v-4.65h9.92v4.65h-4.01Zm3.55,3.1h-8.91v1.65h8.91v-1.65Zm-7.37-4.75h5.64v-1.33h-5.64v1.33Z"/><path class="cls-5" d="M192.68,341.54c1.62,.99,3.82,1.73,6.02,2.07-.51,.49-1.18,1.44-1.52,2.05-2.34-.59-4.64-1.73-6.38-3.21v3.42h-2.22v-3.3c-1.77,1.39-4.1,2.49-6.36,3.08-.32-.55-.97-1.42-1.44-1.88,2.13-.44,4.37-1.23,6-2.22h-5.45v-1.86h7.26v-.84h-5.47v-1.63h5.47v-.86h-6.42v-1.77h3.61c-.15-.47-.4-1.04-.65-1.48l.23-.04h-3.97v-1.84h2.54c-.27-.72-.76-1.63-1.18-2.36l1.94-.67c.55,.82,1.18,1.94,1.44,2.68l-.93,.34h1.73v-3.1h2.11v3.1h1.41v-3.1h2.13v3.1h1.69l-.68-.21c.46-.78,.93-1.92,1.2-2.75l2.38,.57c-.53,.87-1.04,1.73-1.48,2.39h2.47v1.84h-3.57c-.3,.55-.61,1.06-.89,1.52h3.72v1.77h-6.59v.86h5.7v1.63h-5.7v.84h7.39v1.86h-5.51Zm-5.17-8.47c.27,.49,.51,1.04,.65,1.46l-.32,.06h3.55c.23-.46,.46-1.01,.67-1.52h-4.54Z"/><path class="cls-5" d="M204.01,345.53c-1.16-1.42-2.75-3.06-4.08-4.2l1.98-1.71c1.35,1.1,3.17,2.98,4.14,4.16l-2.03,1.75Z"/><path class="cls-5" d="M211.82,339.51c-.19,1.8-.59,3.69-1.14,4.9-.38-.25-1.2-.63-1.63-.8,.53-1.1,.8-2.81,.95-4.41l1.82,.3Zm2.24-1.58v7.92h-1.96v-7.71l-2.57,.27-.3-1.96,1.35-.08c.29-.36,.57-.76,.86-1.18-.51-.86-1.41-1.88-2.17-2.68l1.1-1.5c.15,.13,.29,.27,.44,.4,.53-1.04,1.06-2.3,1.39-3.29l1.94,.72c-.67,1.29-1.46,2.75-2.13,3.84,.21,.25,.42,.51,.59,.76,.67-1.06,1.27-2.13,1.71-3.06l1.82,.86c-1.04,1.6-2.34,3.46-3.53,4.98l1.69-.11c-.21-.44-.42-.84-.63-1.22l1.6-.67c.76,1.29,1.54,2.94,1.79,4.03l-1.69,.78c-.08-.36-.19-.76-.34-1.22l-.95,.11Zm1.67,1.25c.38,.93,.76,2.09,1.01,3,.19-.63,.32-1.29,.42-1.9l1.8,.3c-.19,1.54-.67,3.34-1.39,4.5l-1.77-.78c.29-.4,.53-.93,.74-1.54l-1.41,.47c-.15-.95-.61-2.43-1.03-3.57l1.61-.49Zm5.19-10.24c-.7,1.9-1.92,3.72-3.19,4.88-.4-.38-1.25-1.04-1.75-1.37,1.24-.95,2.26-2.47,2.81-4.05l2.13,.53Zm3.88,9.33c-.13-.38-.36-.85-.63-1.35-2.47,.21-5.01,.4-6.92,.53l-.38-2.03c.59-.02,1.27-.04,2.01-.08,.48-1.2,.95-2.74,1.22-3.89l2.26,.53c-.46,1.08-.95,2.26-1.42,3.29l2.18-.1c-.27-.42-.55-.82-.82-1.18l1.71-.84c1.01,1.25,2.15,2.96,2.62,4.14l-1.84,.97Zm.3,1.63c1.01,1.35,1.94,3.1,2.22,4.35l-1.88,.93c-.11-.59-.38-1.35-.74-2.11-.21,2.2-.76,2.77-2.01,2.77h-1.5c-1.73,0-2.07-.61-2.07-2.45v-3.53h2.05v3.51c0,.51,.06,.57,.38,.57h.87c.34,0,.42-.23,.46-1.82,.36,.32,1.18,.63,1.75,.78-.36-.74-.78-1.5-1.23-2.15l1.71-.86Zm-4.46-2.7c1.24,.55,2.55,1.54,3.23,2.32l-1.48,1.39c-.65-.87-1.98-1.9-3.17-2.51l1.42-1.2Zm3.42-8.81c.74,1.27,2.13,2.72,3.27,3.55-.51,.38-1.2,1.14-1.56,1.63-1.2-1.04-2.68-2.89-3.55-4.41l1.84-.78Z"/><path class="cls-5" d="M244.7,331.91c-.49,1.08-1.12,2-1.9,2.77,1.04,.49,2.22,.87,3.5,1.12-.49,.46-1.12,1.35-1.42,1.92-1.44-.36-2.74-.93-3.88-1.63-1.12,.68-2.43,1.2-3.88,1.6-.11-.21-.3-.49-.53-.8-.27,1.18-.59,2.32-.93,3.17l-1.52-.7c.21-.7,.44-1.65,.61-2.62h-1.01v6.69c0,1.03-.15,1.63-.82,1.98-.65,.36-1.5,.4-2.68,.4-.06-.63-.36-1.54-.65-2.15,.7,.02,1.46,.02,1.71,.02,.23-.02,.3-.06,.3-.29v-4.07c-.67,1.41-1.46,2.68-2.38,3.51-.19-.65-.68-1.58-1.03-2.18,1.04-.93,2.03-2.41,2.7-3.91h-2.38v-1.98h4.35c-1.06-.65-2.49-1.37-3.67-1.84l1.42-1.44c.46,.17,.99,.38,1.5,.61,.42-.36,.84-.78,1.2-1.2h-4.56v-1.9h6.14l.34-.08,1.44,.91c-.65,1.06-1.71,2.22-2.77,3.13,.55,.29,1.03,.57,1.39,.84l-.93,.97h.91l.3-.09,1.37,.46-.08,.44c.84-.23,1.63-.51,2.32-.87-.49-.48-.95-1.01-1.35-1.58-.29,.3-.57,.57-.85,.82-.44-.36-1.31-.97-1.84-1.27,1.48-1.06,2.89-2.77,3.63-4.52l2.11,.57c-.21,.46-.44,.89-.7,1.33h5.6v1.88h-1.1Zm.89,6.8s-.04,.59-.08,.85c-.3,3.29-.65,4.75-1.2,5.36-.42,.44-.82,.59-1.39,.67-.47,.06-1.25,.08-2.13,.04-.02-.63-.27-1.52-.61-2.09,.68,.08,1.33,.09,1.63,.09,.27,0,.42-.04,.61-.21,.27-.25,.51-1.06,.72-2.83h-2.2c-.65,2.26-2,4.1-5,5.28-.25-.53-.84-1.33-1.31-1.75,2.28-.84,3.38-2.05,3.97-3.53h-2.3v-1.88h2.77c.1-.55,.15-1.1,.19-1.69h2.26c-.06,.57-.11,1.14-.19,1.69h4.24Zm-6.23-6.8c.42,.59,.95,1.14,1.58,1.62,.51-.46,.93-1.01,1.25-1.62h-2.83Z"/><path class="cls-5" d="M260.09,344.45c-.82-.46-1.58-.91-2.56-1.69-1.1,1.06-2.45,1.69-4.33,1.69-3.17,0-4.86-1.61-4.86-3.91,0-1.86,1.33-2.96,2.79-3.89-.72-1.04-1.18-2.09-1.18-3.17,0-2.22,1.58-3.59,3.65-3.59s3.51,1.18,3.51,3.13c0,1.84-1.35,2.94-2.79,3.88,.89,.89,1.96,1.77,2.96,2.55,.51-.87,.87-1.84,1.04-3.06h2.47c-.32,1.63-.89,3.08-1.75,4.45,.93,.67,1.77,1.18,2.28,1.46l-1.23,2.17Zm-6.65-2.13c.8,0,1.6-.38,2.32-1.03-1.2-1.01-2.39-2.05-3.4-3.13-.87,.65-1.54,1.35-1.54,2.3,0,1.24,1.1,1.86,2.62,1.86Zm-.36-6.84c1.06-.67,1.9-1.37,1.9-2.38,0-.84-.47-1.39-1.31-1.39-.91,0-1.48,.59-1.48,1.65,0,.67,.34,1.37,.89,2.11Z"/><path class="cls-5" d="M268.08,329.8c.8,0,4.33-.17,5.47-.3,.61-.06,1.04-.15,1.31-.23l1.48,1.73c-.38,.27-1.08,.72-1.46,1.04-1.35,1.06-3.21,2.62-4.48,3.63,2.53-.27,5.62-.46,7.92-.46v2.22c-1.8-.11-3.69-.11-4.83,.04-1.73,.25-3.17,1.46-3.17,3s1.16,2.05,2.85,2.26c1.04,.11,2.17,.09,2.87,.04l-.49,2.47c-4.83,.21-7.64-1.23-7.64-4.37,0-1.16,.68-2.32,1.37-2.96-1.71,.13-3.82,.42-5.7,.74l-.23-2.28c1.01-.09,2.32-.27,3.29-.38,1.69-1.1,4.14-3.23,5.3-4.27-.76,.06-3.08,.17-3.84,.25-.47,.04-1.1,.11-1.69,.17l-.11-2.41c.59,.06,1.14,.08,1.79,.08Z"/><path class="cls-5" d="M288.18,342.78c.72-.1,1.25-.19,1.75-.3,2.41-.57,4.27-2.3,4.27-5.03s-1.41-4.54-3.93-4.98c-.27,1.6-.59,3.34-1.12,5.11-1.12,3.8-2.75,6.12-4.81,6.12s-3.84-2.3-3.84-5.47c0-4.33,3.78-8.05,8.66-8.05s7.6,3.25,7.6,7.35-2.43,6.76-7.18,7.49l-1.41-2.22Zm-1.46-5.7c.44-1.39,.78-3,1.01-4.56-3.12,.65-4.77,3.38-4.77,5.45,0,1.9,.76,2.83,1.46,2.83,.78,0,1.54-1.18,2.3-3.72Z"/><path class="cls-5" d="M304.71,328.87c-.49,1.27-1.1,2.58-1.77,3.82v13.15h-2.24v-9.67c-.4,.53-.8,1.01-1.2,1.42-.21-.51-.84-1.75-1.22-2.28,1.71-1.71,3.38-4.41,4.33-7.12l2.09,.68Zm8.23,14.68c1.12,0,1.31-.46,1.48-2.6,.51,.34,1.44,.72,2.05,.87-.3,2.81-.97,3.76-3.36,3.76h-4.2c-2.7,0-3.48-.74-3.48-3.34v-5.19l-1.42,.55-.87-1.99,2.3-.89v-4.48h2.24v3.59l1.84-.7v-4.92h2.11v4.08l1.92-.72,.29-.23,.42-.29,1.54,.59-.08,.34c-.02,3.31-.06,5.58-.17,6.42-.1,.95-.44,1.44-1.06,1.71-.59,.27-1.48,.29-2.15,.27-.04-.63-.23-1.58-.49-2.07,.42,.02,.95,.04,1.16,.04,.27,0,.4-.08,.47-.44,.08-.34,.11-1.6,.13-4.08l-1.98,.78v6.76h-2.11v-5.93l-1.84,.72v6.08c0,1.14,.19,1.31,1.41,1.31h3.86Z"/></g><g><path class="cls-3" d="M624.77,429.5c3.42-3.06,5.44-5.42,5.44-7.36,0-1.28-.7-2.04-1.89-2.04-.92,0-1.68,.59-2.31,1.29l-1.36-1.36c1.16-1.22,2.28-1.9,3.99-1.9,2.38,0,3.96,1.53,3.96,3.88s-1.89,4.73-4.18,6.97c.63-.07,1.46-.14,2.04-.14h2.74v2.11h-8.43v-1.45Z"/><path class="cls-3" d="M634.8,424.6c0-4.35,1.7-6.48,4.27-6.48s4.25,2.14,4.25,6.48-1.7,6.58-4.25,6.58-4.27-2.24-4.27-6.58Zm6.15,0c0-3.52-.82-4.54-1.89-4.54s-1.9,1.02-1.9,4.54,.82,4.62,1.9,4.62,1.89-1.09,1.89-4.62Z"/><path class="cls-3" d="M644.79,429.5c3.42-3.06,5.44-5.42,5.44-7.36,0-1.28-.7-2.04-1.89-2.04-.92,0-1.68,.59-2.31,1.29l-1.36-1.36c1.16-1.22,2.28-1.9,3.99-1.9,2.38,0,3.96,1.53,3.96,3.88s-1.89,4.73-4.18,6.97c.63-.07,1.46-.14,2.04-.14h2.74v2.11h-8.43v-1.45Z"/><path class="cls-3" d="M655.47,428.92h2.7v-7.96h-2.28v-1.55c1.26-.24,2.12-.56,2.92-1.05h1.85v10.56h2.36v2.02h-7.56v-2.02Z"/><path class="cls-3" d="M680.37,428.8h-5.81v3.64h-2.09v-3.64h-7.65v-1.94h2.69v-4.45h4.96v-2.04h-3.64c-.7,1.21-1.51,2.29-2.31,3.09-.39-.34-1.26-1.02-1.75-1.31,1.53-1.29,2.84-3.47,3.57-5.66l2.06,.53c-.15,.48-.34,.94-.56,1.39h9.6v1.95h-4.88v2.04h4.49v1.87h-4.49v2.58h5.81v1.94Zm-7.9-1.94v-2.58h-2.94v2.58h2.94Z"/><path class="cls-3" d="M694.59,422.56c.36,0,1.11-.03,1.55-.1v2.21c-.42-.03-1.07-.05-1.55-.05h-4.1c-.1,1.75-.48,3.18-1.09,4.37-.59,1.17-1.9,2.5-3.42,3.26l-1.99-1.44c1.21-.46,2.4-1.43,3.08-2.43,.7-1.05,.99-2.33,1.05-3.76h-4.67c-.49,0-1.16,.03-1.63,.07v-2.23c.51,.07,1.11,.1,1.63,.1h11.13Zm-8.97-2.31c-.58,0-1.31,.02-1.82,.05v-2.19c.54,.08,1.24,.14,1.82,.14h5.56c.58,0,1.26-.05,1.84-.14v2.19c-.58-.03-1.24-.05-1.84-.05h-5.56Zm8.4-.39c-.36-.7-.88-1.7-1.34-2.36l1.36-.56c.42,.63,1.02,1.7,1.34,2.33l-1.36,.59Zm2.04-.78c-.36-.71-.9-1.7-1.36-2.35l1.34-.56c.44,.65,1.07,1.72,1.36,2.31l-1.34,.59Z"/><path class="cls-3" d="M698.4,423.07c.61,.05,1.85,.1,2.74,.1h9.13c.78,0,1.55-.07,1.99-.1v2.67c-.41-.02-1.27-.08-1.99-.08h-9.13c-.97,0-2.11,.03-2.74,.08v-2.67Z"/><path class="cls-3" d="M728.37,420.1c-.19,.32-.41,.78-.56,1.21-.44,1.31-1.22,3.03-2.35,4.66,.63,.39,1.21,.78,1.63,1.09l-1.55,1.99c-.41-.36-.95-.76-1.58-1.21-1.51,1.65-3.52,3.18-6.27,4.23l-1.97-1.72c3.01-.92,4.93-2.36,6.34-3.81-1.16-.75-2.31-1.45-3.18-1.94l1.44-1.61c.9,.46,2.06,1.1,3.2,1.79,.83-1.21,1.51-2.6,1.77-3.62h-4.88c-1.19,1.58-2.77,3.21-4.49,4.39l-1.84-1.41c2.99-1.84,4.57-4.16,5.42-5.64,.25-.41,.61-1.19,.76-1.78l2.46,.76c-.41,.59-.85,1.38-1.05,1.73l-.02,.02h3.48c.53,0,1.11-.07,1.48-.19l1.73,1.07Z"/></g></g></svg>