<svg xmlns="http://www.w3.org/2000/svg" viewBox="0 0 800 240"><defs><style>.a{fill:#0071bc;}.b{fill:#98d5f4;}.c{fill:none;stroke:gray;stroke-miterlimit:10;}.d{fill:#333;}</style></defs><rect class="a" x="324.01" y="58.74" width="311.99" height="63.12"/><rect class="b" x="324.01" y="128.88" width="187.19" height="63.12"/><line class="c" x1="324.01" y1="225" x2="324.01" y2="19"/><path d="M685,95.41h-4.47v-10c0-.23,0-.56,0-1s0-.92,0-1.42,0-1,0-1.36a4.3,4.3,0,0,1-.57.61c-.24.24-.47.44-.67.62l-2.14,1.74L675,81.81l6.17-5H685Z"/><path d="M702.8,86.13a17.84,17.84,0,0,1-.64,5.12,6.39,6.39,0,0,1-2.08,3.28,6.05,6.05,0,0,1-3.86,1.14,5.47,5.47,0,0,1-5-2.52,13.33,13.33,0,0,1-1.57-7,18,18,0,0,1,.64-5.14,6.38,6.38,0,0,1,2.08-3.29,6.05,6.05,0,0,1,3.86-1.14,5.47,5.47,0,0,1,5,2.52A13.19,13.19,0,0,1,702.8,86.13Zm-8.76,0a16.6,16.6,0,0,0,.45,4.48,1.75,1.75,0,0,0,3.46,0,16.6,16.6,0,0,0,.45-4.48,16.89,16.89,0,0,0-.45-4.49c-.3-1-.88-1.52-1.73-1.52s-1.43.51-1.73,1.52A16.89,16.89,0,0,0,694,86.13Z"/><path d="M689.62,163.53a22.54,22.54,0,0,1,.23-3.17,12.47,12.47,0,0,1,.82-3,7.87,7.87,0,0,1,1.65-2.47,7.32,7.32,0,0,1,2.73-1.69,11.77,11.77,0,0,1,4.06-.61c.36,0,.8,0,1.31,0a10.16,10.16,0,0,1,1.26.16v3.48c-.35-.07-.72-.12-1.13-.17s-.86-.06-1.37-.06a6.84,6.84,0,0,0-3.27.65,3.75,3.75,0,0,0-1.68,1.84,8.08,8.08,0,0,0-.58,2.79h.15a4.77,4.77,0,0,1,1.43-1.54,4.28,4.28,0,0,1,2.42-.62,4.92,4.92,0,0,1,3.85,1.56,6.36,6.36,0,0,1,1.4,4.39,6.43,6.43,0,0,1-1.73,4.81,6.33,6.33,0,0,1-4.69,1.72,7,7,0,0,1-3.5-.87,6.05,6.05,0,0,1-2.45-2.68A10.11,10.11,0,0,1,689.62,163.53Zm6.78,4.6a2,2,0,0,0,1.6-.7,3.3,3.3,0,0,0,.61-2.21,3.1,3.1,0,0,0-.52-1.9,1.91,1.91,0,0,0-1.63-.7,2.27,2.27,0,0,0-1.8.73,2.34,2.34,0,0,0-.65,1.59,4.54,4.54,0,0,0,.26,1.49,2.94,2.94,0,0,0,.79,1.22A2,2,0,0,0,696.4,168.13Z"/><path class="d" d="M230.85,82.23h-3.14a9.1,9.1,0,0,1,.8,1.27l-2.09.59a11.28,11.28,0,0,0-1.14-1.86h-1.1a9.14,9.14,0,0,1-1.05,1.16v1h7.28v3.77h-2.2V86.11H216.1v2.07H214V84.41h7V83.08h.83c-.34-.19-.7-.36-1-.47a5.71,5.71,0,0,0,.48-.38h-2.22a10.21,10.21,0,0,1,.62,1.25l-2,.57a10.91,10.91,0,0,0-.85-1.82h-.33A13.17,13.17,0,0,1,215,84.05a11.24,11.24,0,0,0-1.84-1.21A10.23,10.23,0,0,0,216,79l2.11.57c-.13.31-.28.61-.44.91h4.22v1.28A8.8,8.8,0,0,0,223.65,79l2.14.51a9.42,9.42,0,0,1-.45,1h5.51ZM219.09,92h9.76V96.9h-2.24v-.52h-7.52v.52h-2.17v-10h10.49v4.24h-8.32Zm0-3.47v1h6.08v-1Zm0,5.13v1.06h7.52V93.65Z"/><path class="d" d="M238.81,93.08c-2.09.74-4.37,1.46-6.19,2l-.52-2.3c.67-.17,1.45-.38,2.32-.63V87.74H232.5V85.67h1.92V82.32h-2.09v-2.1h6.27v2.1h-2v3.35h1.71v2.07h-1.71v3.8c.62-.19,1.25-.38,1.86-.59Zm11.28,1.16v2.05H237.88V94.24h5.24V92.43h-3.93v-2h3.93V88.76h-3.8V79.93h9.92v8.83h-3.82V90.4h4v2h-4v1.81Zm-8.74-10.81h2V81.85h-2Zm0,3.42h2V85.21h-2Zm5.74-5h-1.88v1.58h1.88Zm0,3.36h-1.88v1.64h1.88Z"/><path class="d" d="M268.81,87.91a18.64,18.64,0,0,1-2.11,4.88c.17.91.38,1.43.61,1.45s.38-.88.45-2.38a6.59,6.59,0,0,0,1.47,1.26c-.48,3.07-1.37,3.74-2,3.74-.85,0-1.48-.78-1.93-2.17a13,13,0,0,1-2.49,2.22,11.47,11.47,0,0,0-1.29-1.48,10.77,10.77,0,0,0,1.34-1H260v1.1h-1.72V87.64h5.22v6.25a9.81,9.81,0,0,0,1.25-1.46,53.48,53.48,0,0,1-.51-5.62h-6.67V85.06h1.2a10.14,10.14,0,0,0-.42-2.26l1.1-.27h-1.5v-.7h-.72v15h-1.88V93.63l-3.84.8-.38-2.07c.34,0,.72-.1,1.12-.18V81.83h-.74v-2H258v1h1.86V79.17h1.92v1.71h1.94v1.65H262.1l1.29.25c-.28.82-.55,1.67-.76,2.28h1.52c0-1.82-.09-3.8-.11-5.91h2v1.43l1.21-.65a12.62,12.62,0,0,1,1.86,3l-1.57.88a13.75,13.75,0,0,0-1.5-2.78c0,1.41,0,2.74.05,4H269v1.75h-2.85c0,1,.09,1.94.17,2.79a17,17,0,0,0,.68-2.09Zm-13.47-6.08h-1.25v2h1.25Zm0,3.88h-1.25v2.05h1.25Zm0,5.94V89.58h-1.25v2.3Zm4.46-9.12a8.43,8.43,0,0,1,.5,2.32l-.86.21h2.74l-1-.23a17.05,17.05,0,0,0,.49-2.3ZM260,89.2v1.14h1.75V89.2Zm1.75,3.74V91.8H260v1.14Z"/><path class="d" d="M278.54,93.78c.72-.09,1.25-.19,1.75-.3a5.09,5.09,0,0,0,4.27-5,4.66,4.66,0,0,0-3.93-5,41.52,41.52,0,0,1-1.12,5.11c-1.12,3.8-2.76,6.12-4.81,6.12s-3.84-2.3-3.84-5.47c0-4.33,3.78-8,8.67-8a7.17,7.17,0,0,1,7.59,7.35c0,4-2.43,6.76-7.18,7.48Zm-1.46-5.7a31.37,31.37,0,0,0,1-4.56A5.91,5.91,0,0,0,273.31,89c0,1.9.76,2.83,1.47,2.83S276.32,90.63,277.08,88.08Z"/><path class="d" d="M305.4,92.7a19.48,19.48,0,0,0-1.61-1.31A9.45,9.45,0,0,1,299,96.48l-2-1.64a8.06,8.06,0,0,0,4.78-4.73,13.28,13.28,0,0,0-4.4-1.52,39.58,39.58,0,0,1-2.19,4.53,3.22,3.22,0,0,1-2.92,1.65,2.8,2.8,0,0,1-2.89-3c0-2.91,2.64-5.15,6.42-5.32.53-1.22,1.06-2.49,1.5-3.38-.74,0-2.35.07-3.21.13-.4,0-1.06.1-1.54.17l-.09-2.43A14.38,14.38,0,0,0,294,81c1.07,0,3.08-.08,4-.16a4.57,4.57,0,0,0,1.27-.28l1.5,1.18a4.18,4.18,0,0,0-.63.79,37.07,37.07,0,0,0-1.84,4,16.79,16.79,0,0,1,4.05,1.22c0-.23,0-.44.05-.65a11.58,11.58,0,0,0,0-2l2.47.29a29.53,29.53,0,0,1-.36,3.49c.78.44,1.47.89,2,1.25Zm-10.56-4.13c-2.09.33-3.23,1.6-3.23,2.78,0,.53.32.89.7.89s.65-.17,1-.64A24,24,0,0,0,294.84,88.57Z"/><path class="d" d="M241.6,166.39h7v2H232.46v-2h6.79v-2.26H234v-2h5.27V160H235v-1.5a24,24,0,0,1-2.11,1.31,8.22,8.22,0,0,0-1.42-1.83,20.68,20.68,0,0,0,7.71-6.87h2.34a20.08,20.08,0,0,0,8.13,6.64,10.93,10.93,0,0,0-1.5,2,23,23,0,0,1-2-1.28V160H241.6v2.18h5.32v2H241.6Zm3.71-8.42a22.62,22.62,0,0,1-4.9-4.71,22.09,22.09,0,0,1-4.75,4.71Z"/><path class="d" d="M256.56,155.94a26.49,26.49,0,0,1-1.45,2.3v10.67H253v-8.13a16,16,0,0,1-1.48,1.41,14.37,14.37,0,0,0-1.18-2.11,16.26,16.26,0,0,0,4.24-4.88Zm-.33-4a23.24,23.24,0,0,1-4.54,4.64,15.08,15.08,0,0,0-1.18-1.66,15.82,15.82,0,0,0,3.73-3.76Zm7.49,14.44a10.53,10.53,0,0,0,1.61.11c.51,0,2.49,0,3.16,0a7.42,7.42,0,0,0-.67,2.11h-2.66c-2.6,0-4.73-.63-6.23-2.92A8.93,8.93,0,0,1,257,169a10.52,10.52,0,0,0-1.73-1.54c1.75-1.65,2.3-4.46,2.45-7.77l2.26.16a27,27,0,0,1-.36,3.15,5.48,5.48,0,0,0,1.9,2.56v-7.9h-4.46v-2.15h2.6a25.63,25.63,0,0,0-1.78-3.38l1.86-.81a20.43,20.43,0,0,1,2,3.61l-1.21.58h4.54l-1.47-.55a21.16,21.16,0,0,0,1.77-3.78l2.2.76c-.62,1.28-1.31,2.61-1.9,3.57H268v2.15h-4.23v2.95h3.72v2.07h-3.72Z"/><path class="d" d="M281.44,164.54a17.13,17.13,0,0,0,6,2.08,10.09,10.09,0,0,0-1.52,2,16.27,16.27,0,0,1-6.39-3.21v3.42h-2.22v-3.31a18,18,0,0,1-6.36,3.08,10.48,10.48,0,0,0-1.45-1.88,20.07,20.07,0,0,0,6-2.23h-5.46v-1.86h7.26v-.83h-5.47v-1.64h5.47v-.85h-6.42v-1.77h3.61a8.42,8.42,0,0,0-.65-1.48l.23,0h-4v-1.84h2.55a17.91,17.91,0,0,0-1.18-2.36l1.94-.66a14.78,14.78,0,0,1,1.44,2.68l-.93.34h1.73v-3.1h2.11v3.1h1.4v-3.1h2.13v3.1H283l-.68-.21a15.44,15.44,0,0,0,1.19-2.75l2.38.57c-.53.87-1.05,1.72-1.48,2.39h2.47v1.84h-3.57c-.31.55-.61,1.07-.9,1.52h3.73v1.77h-6.6v.85h5.7v1.64h-5.7v.83H287v1.86Zm-5.16-8.47a9.8,9.8,0,0,1,.64,1.47l-.32.05h3.55c.23-.45.46-1,.67-1.52Z"/><path class="d" d="M301.43,165.59c1.77.53,3.71,1.22,5,1.73l-2,1.59a50.92,50.92,0,0,0-6.1-2.2l1.58-1.12h-5.15l1.45,1a25.68,25.68,0,0,1-5.89,2.28,20.35,20.35,0,0,0-1.71-1.62,22.93,22.93,0,0,0,4.86-1.67h-2.94v-8.42h13.88v8.42Zm2.34-9.12H291.4v-4.75h12.37Zm-11,3.06h9.31v-.82h-9.31Zm0,2.24h9.31V161h-9.31Zm0,2.28h9.31v-.84h-9.31Zm8.57-10.56h-7.68v1.23h7.68Z"/></svg>