<?xml version="1.0" encoding="UTF-8"?>
<svg id="Layer_2" data-name="Layer 2" xmlns="http://www.w3.org/2000/svg" viewBox="0 0 145 52.32">
  <defs>
    <style>
      .cls-1 {
        fill: #f7b200;
      }

      .cls-1, .cls-2, .cls-3, .cls-4, .cls-5 {
        stroke-width: 0px;
      }

      .cls-2 {
        fill: #7aadde;
      }

      .cls-3 {
        fill: #6f9635;
      }

      .cls-4 {
        fill: #c5d100;
      }

      .cls-5 {
        fill: #98883e;
      }
    </style>
  </defs>
  <g id="Layer_1-2" data-name="Layer 1">
    <g>
      <polygon class="cls-2" points="86.97 0 84.03 0 73.18 17.39 62.34 0 59.39 0 59.39 52.32 62.34 52.32 73.18 34.93 84.03 52.32 87 52.32 86.97 52.28 86.97 0"/>
      <polygon class="cls-5" points="59.39 0 43.31 0 59.37 26.16 43.31 52.32 59.39 52.32 59.39 0"/>
      <polygon class="cls-3" points="103.06 0 86.97 0 86.97 52.28 87 52.32 103.06 52.32 87 26.16 103.06 0"/>
      <path class="cls-4" d="m125.99,0h-22.93s-16.06,26.16-16.06,26.16l16.06,26.16h0v-11.56s27.13,0,27.13,0c11.39,0,14.8-8.94,14.8-16.73v-6.15C145,7.64,141.3,0,125.99,0Zm4.01,21.11c0,3.1-1.45,6.67-5.22,6.67h-21.7v-14.8h20.32c4.86,0,6.6,2.02,6.6,5.55v2.58Z"/>
      <polygon class="cls-1" points="59.37 26.16 43.31 0 43.3 0 43.3 31.62 16.08 0 0 0 0 52.32 16.1 52.32 16.09 20.7 43.31 52.32 59.37 26.16"/>
    </g>
  </g>
</svg>