<svg xmlns="http://www.w3.org/2000/svg" viewBox="0 0 800 480"><defs><style>.cls-1{fill:#e6e6e6;}.cls-2{fill:#29abe2;}.cls-3{fill:#98d5f4;}.cls-4{fill:#0071bc;}.cls-5{font-size:19px;font-family:NotoSans-Medium, Noto Sans;font-weight:500;}.cls-6{letter-spacing:-0.08em;}.cls-7{font-size:26px;font-family:NotoSans-ExtraBold, Noto Sans;font-weight:800;}</style></defs><g id="Layer_1" data-name="Layer 1"><path class="cls-1" d="M380.89,278.59,213.15,258A168.27,168.27,0,0,1,380.89,109.6Z"/><path class="cls-2" d="M380.89,278.59,212.31,290.38a163.78,163.78,0,0,1,.84-32.38Z"/><path class="cls-3" d="M380.89,278.59l8.84-168.76A169,169,0,1,1,212.31,290.38Z"/><path class="cls-4" d="M380.89,278.59v-169c3.73,0,5.12,0,8.84.23Z"/></g><g id="Layer_3" data-name="Layer 3"><text class="cls-5" transform="translate(352.26 46.81)">Others</text><text class="cls-5" transform="translate(171.39 136.81)">China</text><text class="cls-5" transform="translate(166.18 265.81)">US</text><text class="cls-5" transform="translate(546.68 359.81)"><tspan class="cls-6">T</tspan><tspan x="9.18" y="0">aiwan</tspan></text><text class="cls-7" transform="translate(364.22 79.41)">1%</text><text class="cls-7" transform="translate(170.71 169.41)">23%</text><text class="cls-7" transform="translate(159.22 298.41)">3%</text><text class="cls-7" transform="translate(551.71 388.41)">73%</text></g></svg>