<svg xmlns="http://www.w3.org/2000/svg" viewBox="0 0 800 480"><defs><style>.a{fill:none;stroke:gray;stroke-miterlimit:10;}.b{fill:#98d5f4;}.c{fill:#0071bc;}.d{fill:#4d4d4d;}</style></defs><line class="a" x1="185" y1="421.65" x2="618" y2="421.65"/><rect class="b" x="227.94" y="183.3" width="90.85" height="61.45"/><rect class="b" x="354.11" y="132.33" width="90.85" height="90.47"/><rect class="b" x="480.29" y="84" width="90.85" height="131.73"/><rect class="c" x="227.94" y="244.75" width="90.85" height="176.9"/><rect class="c" x="354.11" y="222.8" width="90.85" height="198.86"/><rect class="c" x="480.29" y="215.73" width="90.85" height="205.92"/><path d="M92.42,34.66a5.8,5.8,0,0,1,3.88,1.07,3.79,3.79,0,0,1,1.22,3A4.58,4.58,0,0,1,97,40.85a3.7,3.7,0,0,1-1.68,1.61,6.94,6.94,0,0,1-3.19.61H90.68v5.15H88.62V34.66Zm-.15,1.73H90.68v5h1.23a4.85,4.85,0,0,0,2.61-.58,2.19,2.19,0,0,0,.89-2A2.17,2.17,0,0,0,94.65,37,3.84,3.84,0,0,0,92.27,36.39Z"/><path d="M104.05,37.79A4.16,4.16,0,0,1,107.23,39a4.79,4.79,0,0,1,1.15,3.39v1.1h-6.87a3.5,3.5,0,0,0,.82,2.41,2.91,2.91,0,0,0,2.22.84,7.66,7.66,0,0,0,1.75-.18,8.78,8.78,0,0,0,1.59-.54v1.67a7.33,7.33,0,0,1-1.56.52,9.14,9.14,0,0,1-1.86.16,5.53,5.53,0,0,1-2.62-.59,4.2,4.2,0,0,1-1.78-1.74,6,6,0,0,1-.63-2.89,6.8,6.8,0,0,1,.57-2.93,4.27,4.27,0,0,1,1.62-1.83A4.49,4.49,0,0,1,104.05,37.79Zm0,1.56a2.27,2.27,0,0,0-1.74.7,3.35,3.35,0,0,0-.77,2h4.83a3.27,3.27,0,0,0-.58-1.95A2,2,0,0,0,104.05,39.35Z"/><path d="M116.08,37.79a3.85,3.85,0,0,1,2.74.9,3.78,3.78,0,0,1,1,2.86v6.67h-2V41.84c0-1.6-.7-2.39-2.11-2.39a2.37,2.37,0,0,0-2.16.93,5,5,0,0,0-.59,2.68v5.16h-2V38h1.6l.28,1.37h.12a3,3,0,0,1,1.36-1.18A4.51,4.51,0,0,1,116.08,37.79Z"/><path d="M126.38,48.41a3.71,3.71,0,0,1-3-1.33,6,6,0,0,1-1.12-3.95,6,6,0,0,1,1.14-4,4.13,4.13,0,0,1,4.91-.91,4,4,0,0,1,1.19,1.06h.12c0-.17-.06-.43-.1-.78a7.65,7.65,0,0,1-.06-.89V33.78h2V48.22h-1.58l-.34-1.36h-.1A3.87,3.87,0,0,1,128.3,48,3.69,3.69,0,0,1,126.38,48.41Zm.47-1.65a2.4,2.4,0,0,0,2.08-.82,4.24,4.24,0,0,0,.62-2.48v-.31A5.29,5.29,0,0,0,129,40.4a2.29,2.29,0,0,0-2.14-.95,2.08,2.08,0,0,0-1.86,1,5.07,5.07,0,0,0-.63,2.74,4.73,4.73,0,0,0,.63,2.66A2.12,2.12,0,0,0,126.85,46.76Z"/><path d="M135.67,34.09a1.32,1.32,0,0,1,.8.26,1.1,1.1,0,0,1,.34.9,1.09,1.09,0,0,1-.34.88,1.28,1.28,0,0,1-.8.28,1.29,1.29,0,0,1-.82-.28,1.06,1.06,0,0,1-.34-.88,1.07,1.07,0,0,1,.34-.9A1.34,1.34,0,0,1,135.67,34.09Zm1,3.89V48.22h-2V38Z"/><path d="M145,37.79a3.81,3.81,0,0,1,2.73.9,3.74,3.74,0,0,1,1,2.86v6.67h-2V41.84c0-1.6-.7-2.39-2.11-2.39a2.37,2.37,0,0,0-2.16.93,5,5,0,0,0-.6,2.68v5.16h-2V38h1.6l.28,1.37h.12a3,3,0,0,1,1.35-1.18A4.59,4.59,0,0,1,145,37.79Z"/><path d="M155.31,37.79a4.16,4.16,0,0,1,1.79.38,3.56,3.56,0,0,1,1.35,1.16h.09l.23-1.35h1.64V48.36q0,4.43-4.74,4.42a12.81,12.81,0,0,1-2-.15,7.93,7.93,0,0,1-1.71-.47V50.39a6.91,6.91,0,0,0,1.78.6,10.56,10.56,0,0,0,2.08.2,2.57,2.57,0,0,0,1.93-.72,2.75,2.75,0,0,0,.69-2v-.34c0-.17,0-.38,0-.65s0-.47,0-.6h-.08a3.19,3.19,0,0,1-1.3,1.16,4,4,0,0,1-1.78.37,3.63,3.63,0,0,1-3-1.39,6.16,6.16,0,0,1-1.09-3.89,6.27,6.27,0,0,1,1.09-3.9A3.59,3.59,0,0,1,155.31,37.79Zm.42,1.67a2.07,2.07,0,0,0-1.83.95,4.82,4.82,0,0,0-.64,2.74,4.77,4.77,0,0,0,.64,2.72,2.12,2.12,0,0,0,1.87.93,2.57,2.57,0,0,0,2.06-.77,3.84,3.84,0,0,0,.66-2.52v-.38a4.56,4.56,0,0,0-.67-2.82A2.5,2.5,0,0,0,155.73,39.46Z"/><path d="M95.14,76.93H100v6.76a14,14,0,0,1-2.21.54,16.43,16.43,0,0,1-2.57.18,6.1,6.1,0,0,1-4.78-1.84,7.38,7.38,0,0,1-1.67-5.13,7.79,7.79,0,0,1,.83-3.69A5.74,5.74,0,0,1,92,71.32a8,8,0,0,1,3.82-.85A9.39,9.39,0,0,1,98,70.7a10.56,10.56,0,0,1,1.9.59L99.17,73a10.07,10.07,0,0,0-1.58-.54,7.65,7.65,0,0,0-1.8-.22,5.14,5.14,0,0,0-2.6.64,4.27,4.27,0,0,0-1.67,1.82,6.28,6.28,0,0,0-.58,2.77,7.14,7.14,0,0,0,.48,2.7A3.78,3.78,0,0,0,92.92,82a4.88,4.88,0,0,0,2.68.67A9,9,0,0,0,97,82.58c.37-.06.71-.12,1-.2V78.7H95.14Z"/><path d="M108.12,73.79a5.62,5.62,0,0,1,1.12.1L109,75.77a3.88,3.88,0,0,0-1-.13,2.77,2.77,0,0,0-1.44.38,2.81,2.81,0,0,0-1.07,1.09,3.32,3.32,0,0,0-.41,1.72v5.39h-2V74h1.6l.27,1.83H105a4.67,4.67,0,0,1,1.28-1.42A3,3,0,0,1,108.12,73.79Z"/><path d="M114.73,73.79a4.22,4.22,0,0,1,2.88.85,3.35,3.35,0,0,1,1,2.65v6.93h-1.43l-.4-1.42h-.07a4.58,4.58,0,0,1-1.4,1.22,4.34,4.34,0,0,1-2,.39,3.5,3.5,0,0,1-2.3-.75,2.85,2.85,0,0,1-.91-2.34,2.69,2.69,0,0,1,1.19-2.39,6.84,6.84,0,0,1,3.61-.88l1.75-.06v-.57a1.74,1.74,0,0,0-2-2,5.12,5.12,0,0,0-1.51.23,9.23,9.23,0,0,0-1.38.55l-.65-1.46a7.87,7.87,0,0,1,1.66-.64A7.55,7.55,0,0,1,114.73,73.79Zm1.84,5.51-1.36,0a4.54,4.54,0,0,0-2.43.59,1.66,1.66,0,0,0-.67,1.41,1.36,1.36,0,0,0,.47,1.15,2,2,0,0,0,1.24.37,3,3,0,0,0,2-.67,2.47,2.47,0,0,0,.78-2Z"/><path d="M126.85,73.79a3.83,3.83,0,0,1,2.74.9,3.78,3.78,0,0,1,.95,2.86v6.67h-2V77.84c0-1.6-.7-2.39-2.11-2.39a2.36,2.36,0,0,0-2.15.93,5,5,0,0,0-.6,2.68v5.16h-2V74h1.59l.29,1.37h.11A3,3,0,0,1,125,74.17,4.58,4.58,0,0,1,126.85,73.79Z"/><path d="M137.32,82.78a4.4,4.4,0,0,0,1.54-.25v1.52a3.8,3.8,0,0,1-.87.26,6,6,0,0,1-1.11.1,4,4,0,0,1-1.52-.28,2.28,2.28,0,0,1-1.12-1,3.84,3.84,0,0,1-.41-2V75.52H132.4v-.91l1.5-.76.7-2.17h1.24V74h2.93v1.54h-2.93v5.63a1.66,1.66,0,0,0,.41,1.23A1.45,1.45,0,0,0,137.32,82.78Z"/><path d="M144.94,73.79A4.12,4.12,0,0,1,148.11,75a4.75,4.75,0,0,1,1.16,3.39v1.1h-6.88a3.55,3.55,0,0,0,.83,2.41,2.9,2.9,0,0,0,2.21.84,7.75,7.75,0,0,0,1.76-.18,9.05,9.05,0,0,0,1.59-.54v1.67a7.33,7.33,0,0,1-1.56.52,9.14,9.14,0,0,1-1.86.16,5.53,5.53,0,0,1-2.62-.59A4.15,4.15,0,0,1,141,82.08a6,6,0,0,1-.64-2.89,6.8,6.8,0,0,1,.58-2.93,4.27,4.27,0,0,1,1.62-1.83A4.49,4.49,0,0,1,144.94,73.79Zm0,1.56a2.27,2.27,0,0,0-1.74.7,3.35,3.35,0,0,0-.77,2h4.83a3.27,3.27,0,0,0-.58-2A2,2,0,0,0,144.94,75.35Z"/><path d="M155.3,84.41a3.7,3.7,0,0,1-3-1.33,6,6,0,0,1-1.12-4,6,6,0,0,1,1.14-4,3.73,3.73,0,0,1,3-1.35,3.68,3.68,0,0,1,1.9.44,3.88,3.88,0,0,1,1.2,1.06h.11l-.09-.78a7.65,7.65,0,0,1-.06-.89V69.78h2V84.22h-1.58l-.34-1.36h-.1a3.79,3.79,0,0,1-1.18,1.1A3.62,3.62,0,0,1,155.3,84.41Zm.47-1.65a2.4,2.4,0,0,0,2.08-.82,4.24,4.24,0,0,0,.62-2.48v-.31a5.29,5.29,0,0,0-.58-2.75,2.29,2.29,0,0,0-2.14-1,2.08,2.08,0,0,0-1.86,1,5.07,5.07,0,0,0-.63,2.74,4.73,4.73,0,0,0,.63,2.66A2.12,2.12,0,0,0,155.77,82.76Z"/><path class="d" d="M260.64,456.41H249v-2.65l4.07-4.11c.83-.86,1.49-1.57,2-2.12a7.06,7.06,0,0,0,1.05-1.46,3.11,3.11,0,0,0,.31-1.35,1.52,1.52,0,0,0-.52-1.27,2,2,0,0,0-1.3-.4,3.67,3.67,0,0,0-1.71.43,10.53,10.53,0,0,0-1.83,1.27l-2.14-2.51a15.23,15.23,0,0,1,1.52-1.21,7.3,7.3,0,0,1,1.9-.92,8.72,8.72,0,0,1,2.63-.35,6.44,6.44,0,0,1,2.85.58,4.43,4.43,0,0,1,1.84,1.59,4.14,4.14,0,0,1,.64,2.29,5.9,5.9,0,0,1-.52,2.51,9,9,0,0,1-1.57,2.23c-.69.73-1.53,1.56-2.53,2.48l-1.7,1.57v.13h6.72Z"/><path class="d" d="M273.91,448.2a15.81,15.81,0,0,1-.57,4.53,5.61,5.61,0,0,1-1.84,2.9,5.36,5.36,0,0,1-3.41,1,4.83,4.83,0,0,1-4.43-2.23,11.71,11.71,0,0,1-1.39-6.21,16.27,16.27,0,0,1,.56-4.54,5.62,5.62,0,0,1,1.84-2.91,5.32,5.32,0,0,1,3.42-1A4.83,4.83,0,0,1,272.5,442,11.67,11.67,0,0,1,273.91,448.2Zm-7.75,0a14.61,14.61,0,0,0,.4,4,1.55,1.55,0,0,0,3.06,0,19.9,19.9,0,0,0,0-7.94q-.4-1.35-1.53-1.35t-1.53,1.35A14.71,14.71,0,0,0,266.16,448.2Z"/><path class="d" d="M284.74,456.41h-4v-8.86c0-.19,0-.49,0-.89s0-.82,0-1.27,0-.84,0-1.19a7.07,7.07,0,0,1-.5.54l-.6.54-1.89,1.54-1.95-2.44,5.45-4.39h3.38Z"/><path class="d" d="M290.49,456.41l5.91-13.16h-7.64V440h11.8v2.39l-6,14Z"/><path class="d" d="M385.64,456.41H374v-2.65l4.07-4.11c.83-.86,1.49-1.57,2-2.12a7.06,7.06,0,0,0,1.05-1.46,3.11,3.11,0,0,0,.31-1.35,1.52,1.52,0,0,0-.52-1.27,2,2,0,0,0-1.3-.4,3.67,3.67,0,0,0-1.71.43,10.53,10.53,0,0,0-1.83,1.27l-2.14-2.51a15.23,15.23,0,0,1,1.52-1.21,7.3,7.3,0,0,1,1.9-.92,8.72,8.72,0,0,1,2.63-.35,6.44,6.44,0,0,1,2.85.58,4.43,4.43,0,0,1,1.84,1.59,4.14,4.14,0,0,1,.64,2.29,5.9,5.9,0,0,1-.52,2.51,9,9,0,0,1-1.57,2.23c-.69.73-1.53,1.56-2.53,2.48l-1.7,1.57v.13h6.72Z"/><path class="d" d="M398.91,448.2a15.81,15.81,0,0,1-.57,4.53,5.61,5.61,0,0,1-1.84,2.9,5.36,5.36,0,0,1-3.41,1,4.83,4.83,0,0,1-4.43-2.23,11.71,11.71,0,0,1-1.39-6.21,16.27,16.27,0,0,1,.56-4.54,5.62,5.62,0,0,1,1.84-2.91,5.32,5.32,0,0,1,3.42-1A4.83,4.83,0,0,1,397.5,442,11.67,11.67,0,0,1,398.91,448.2Zm-7.75,0a14.61,14.61,0,0,0,.4,4,1.55,1.55,0,0,0,3.06,0,19.9,19.9,0,0,0,0-7.94q-.4-1.35-1.53-1.35t-1.53,1.35A14.71,14.71,0,0,0,391.16,448.2Z"/><path class="d" d="M409.74,456.41h-4v-8.86c0-.19,0-.49,0-.89s0-.82,0-1.27,0-.84,0-1.19a7.07,7.07,0,0,1-.5.54l-.6.54-1.89,1.54-1.95-2.44,5.45-4.39h3.38Z"/><path class="d" d="M419.7,439.78a8,8,0,0,1,2.72.44,4.19,4.19,0,0,1,1.92,1.32,3.37,3.37,0,0,1,.72,2.2,3.63,3.63,0,0,1-.82,2.45,6.23,6.23,0,0,1-2.08,1.55,12.3,12.3,0,0,1,1.6,1.06,5.32,5.32,0,0,1,1.27,1.41,3.53,3.53,0,0,1,.51,1.9,4,4,0,0,1-1.53,3.28,6.69,6.69,0,0,1-4.33,1.25,6.79,6.79,0,0,1-4.4-1.22,4,4,0,0,1-1.47-3.24,4,4,0,0,1,.89-2.71,7.15,7.15,0,0,1,2.19-1.64,7.4,7.4,0,0,1-1.81-1.67,3.83,3.83,0,0,1-.76-2.45,3.32,3.32,0,0,1,.72-2.17,4.31,4.31,0,0,1,1.94-1.32A8.08,8.08,0,0,1,419.7,439.78ZM417.42,452a1.69,1.69,0,0,0,.56,1.31,2.4,2.4,0,0,0,1.65.51,2.6,2.6,0,0,0,1.74-.49,1.59,1.59,0,0,0,.56-1.26,1.66,1.66,0,0,0-.33-1,3.85,3.85,0,0,0-.82-.79c-.32-.22-.62-.41-.9-.58l-.3-.19a5.94,5.94,0,0,0-1.55,1.06A1.94,1.94,0,0,0,417.42,452Zm2.26-9.36a1.84,1.84,0,0,0-1.2.39,1.29,1.29,0,0,0-.48,1.06,1.59,1.59,0,0,0,.49,1.19,4.35,4.35,0,0,0,1.19.83,5,5,0,0,0,1.17-.76,1.57,1.57,0,0,0,.53-1.26,1.28,1.28,0,0,0-.5-1.06A1.88,1.88,0,0,0,419.68,442.61Z"/><path class="d" d="M513.64,456.41H502v-2.65l4.07-4.11c.83-.86,1.49-1.57,2-2.12a7.06,7.06,0,0,0,1.05-1.46,3.11,3.11,0,0,0,.31-1.35,1.52,1.52,0,0,0-.52-1.27,2,2,0,0,0-1.3-.4,3.67,3.67,0,0,0-1.71.43,10.53,10.53,0,0,0-1.83,1.27l-2.14-2.51a15.23,15.23,0,0,1,1.52-1.21,7.3,7.3,0,0,1,1.9-.92,8.72,8.72,0,0,1,2.63-.35,6.44,6.44,0,0,1,2.85.58,4.43,4.43,0,0,1,1.84,1.59,4.14,4.14,0,0,1,.64,2.29,5.9,5.9,0,0,1-.52,2.51,9,9,0,0,1-1.57,2.23c-.69.73-1.53,1.56-2.53,2.48l-1.7,1.57v.13h6.72Z"/><path class="d" d="M526.91,448.2a15.81,15.81,0,0,1-.57,4.53,5.61,5.61,0,0,1-1.84,2.9,5.36,5.36,0,0,1-3.41,1,4.83,4.83,0,0,1-4.43-2.23,11.71,11.71,0,0,1-1.39-6.21,16.27,16.27,0,0,1,.56-4.54,5.62,5.62,0,0,1,1.84-2.91,5.32,5.32,0,0,1,3.42-1A4.83,4.83,0,0,1,525.5,442,11.67,11.67,0,0,1,526.91,448.2Zm-7.75,0a14.61,14.61,0,0,0,.4,4,1.55,1.55,0,0,0,3.06,0,19.9,19.9,0,0,0,0-7.94q-.4-1.35-1.53-1.35t-1.53,1.35A14.71,14.71,0,0,0,519.16,448.2Z"/><path class="d" d="M537.74,456.41h-4v-8.86c0-.19,0-.49,0-.89s0-.82,0-1.27,0-.84,0-1.19a7.07,7.07,0,0,1-.5.54l-.6.54-1.89,1.54-2-2.44,5.45-4.39h3.38Z"/><path class="d" d="M553.52,447.09a16.85,16.85,0,0,1-.4,3.7,8.42,8.42,0,0,1-1.36,3,6.46,6.46,0,0,1-2.58,2.06,9.65,9.65,0,0,1-4.06.75c-.32,0-.7,0-1.14,0a9.29,9.29,0,0,1-1.09-.1v-3.13a9.3,9.3,0,0,0,2,.21,6.36,6.36,0,0,0,3-.59,3.29,3.29,0,0,0,1.51-1.64,7.24,7.24,0,0,0,.5-2.44h-.14a4.26,4.26,0,0,1-1.21,1.36,3.83,3.83,0,0,1-2.26.55,4.25,4.25,0,0,1-3.33-1.38,5.63,5.63,0,0,1-1.25-3.91,5.74,5.74,0,0,1,1.52-4.22,5.6,5.6,0,0,1,4.17-1.53,6.16,6.16,0,0,1,3.08.78,5.36,5.36,0,0,1,2.18,2.41A9.19,9.19,0,0,1,553.52,447.09Zm-6-4.18a1.86,1.86,0,0,0-1.45.62,2.87,2.87,0,0,0-.55,2,2.74,2.74,0,0,0,.48,1.71,1.75,1.75,0,0,0,1.47.62,2,2,0,0,0,1.54-.66,2,2,0,0,0,.6-1.39,4.16,4.16,0,0,0-.23-1.35,2.64,2.64,0,0,0-.69-1.08A1.68,1.68,0,0,0,547.54,442.91Z"/><path d="M508,70.41H494.74v-3l4.6-4.65c.94-1,1.68-1.77,2.24-2.4a7.61,7.61,0,0,0,1.18-1.65,3.3,3.3,0,0,0,.35-1.52,1.7,1.7,0,0,0-.58-1.44,2.35,2.35,0,0,0-1.47-.46,4.15,4.15,0,0,0-1.94.5,11.77,11.77,0,0,0-2.07,1.43l-2.41-2.84A17.59,17.59,0,0,1,496.35,53a8,8,0,0,1,2.15-1,9.55,9.55,0,0,1,3-.41,7.3,7.3,0,0,1,3.23.67A5.09,5.09,0,0,1,506.78,54a4.75,4.75,0,0,1,.73,2.59,6.55,6.55,0,0,1-.6,2.83A10.06,10.06,0,0,1,505.14,62c-.78.83-1.73,1.76-2.86,2.8l-1.92,1.77v.16H508Z"/><path d="M514.81,67l.18.28c-.15.63-.35,1.33-.59,2.11s-.51,1.56-.8,2.34-.56,1.49-.84,2.13h-3.12c.24-1.11.48-2.28.71-3.53s.41-2.36.54-3.33Z"/><path d="M517.46,62.53a21.15,21.15,0,0,1,.24-3.17,12,12,0,0,1,.82-3,7.87,7.87,0,0,1,1.65-2.47,7.32,7.32,0,0,1,2.73-1.69,11.75,11.75,0,0,1,4.05-.61c.37,0,.8,0,1.32,0a10.16,10.16,0,0,1,1.26.16V55.3c-.35-.07-.73-.12-1.13-.17s-.87-.06-1.37-.06a6.84,6.84,0,0,0-3.27.65,3.75,3.75,0,0,0-1.68,1.84,8.31,8.31,0,0,0-.59,2.79h.16a4.66,4.66,0,0,1,1.43-1.54,4.25,4.25,0,0,1,2.42-.62,4.92,4.92,0,0,1,3.85,1.56,6.36,6.36,0,0,1,1.4,4.39A6.47,6.47,0,0,1,529,69a6.34,6.34,0,0,1-4.69,1.72,7,7,0,0,1-3.5-.87,6.13,6.13,0,0,1-2.46-2.68A10.24,10.24,0,0,1,517.46,62.53Zm6.79,4.6a2,2,0,0,0,1.6-.7,3.3,3.3,0,0,0,.61-2.21,3.1,3.1,0,0,0-.52-1.9,1.93,1.93,0,0,0-1.64-.7,2.26,2.26,0,0,0-1.79.73,2.29,2.29,0,0,0-.65,1.59,4.29,4.29,0,0,0,.26,1.49,2.94,2.94,0,0,0,.79,1.22A1.93,1.93,0,0,0,524.25,67.13Z"/><path d="M534.36,70.41,541,55.54h-8.63V51.85h13.34v2.7L539,70.41Z"/><path d="M547.52,62.53a22.54,22.54,0,0,1,.23-3.17,12.47,12.47,0,0,1,.82-3,7.87,7.87,0,0,1,1.65-2.47A7.32,7.32,0,0,1,553,52.22a11.77,11.77,0,0,1,4.06-.61c.36,0,.8,0,1.31,0a10.16,10.16,0,0,1,1.26.16V55.3c-.34-.07-.72-.12-1.13-.17s-.86-.06-1.36-.06a6.85,6.85,0,0,0-3.28.65,3.75,3.75,0,0,0-1.68,1.84,8.08,8.08,0,0,0-.58,2.79h.15a4.77,4.77,0,0,1,1.43-1.54,4.28,4.28,0,0,1,2.42-.62,4.92,4.92,0,0,1,3.85,1.56,6.31,6.31,0,0,1,1.4,4.39A6.46,6.46,0,0,1,559.08,69a6.37,6.37,0,0,1-4.7,1.72,7,7,0,0,1-3.49-.87,6.07,6.07,0,0,1-2.46-2.68A10.11,10.11,0,0,1,547.52,62.53Zm6.78,4.6a2,2,0,0,0,1.6-.7,3.3,3.3,0,0,0,.61-2.21,3.1,3.1,0,0,0-.52-1.9,1.91,1.91,0,0,0-1.63-.7,2.28,2.28,0,0,0-1.8.73,2.34,2.34,0,0,0-.65,1.59,4.54,4.54,0,0,0,.26,1.49,3,3,0,0,0,.8,1.22A1.91,1.91,0,0,0,554.3,67.13Z"/><path d="M380,120.41H366.74v-3l4.6-4.65c.94-1,1.68-1.77,2.24-2.4a7.61,7.61,0,0,0,1.18-1.65,3.3,3.3,0,0,0,.35-1.52,1.7,1.7,0,0,0-.58-1.44,2.35,2.35,0,0,0-1.47-.46,4.15,4.15,0,0,0-1.94.5,11.77,11.77,0,0,0-2.07,1.43l-2.41-2.84a17.59,17.59,0,0,1,1.71-1.36,8,8,0,0,1,2.15-1,9.55,9.55,0,0,1,3-.41,7.3,7.3,0,0,1,3.23.67,5.09,5.09,0,0,1,2.08,1.79,4.75,4.75,0,0,1,.73,2.59,6.55,6.55,0,0,1-.6,2.83,10.06,10.06,0,0,1-1.77,2.53c-.78.83-1.73,1.76-2.86,2.8l-1.92,1.77v.16H380Z"/><path d="M386.81,117l.18.28c-.15.63-.35,1.33-.59,2.11s-.51,1.56-.8,2.34-.56,1.49-.84,2.13h-3.12c.24-1.11.48-2.28.71-3.53s.41-2.36.54-3.33Z"/><path d="M402.67,120.41H389.46v-3l4.61-4.65c.93-1,1.68-1.77,2.23-2.4a7.28,7.28,0,0,0,1.18-1.65,3.3,3.3,0,0,0,.36-1.52,1.7,1.7,0,0,0-.59-1.44,2.35,2.35,0,0,0-1.47-.46,4.18,4.18,0,0,0-1.94.5,11.37,11.37,0,0,0-2.06,1.43l-2.42-2.84a17.73,17.73,0,0,1,1.72-1.36,7.89,7.89,0,0,1,2.14-1,9.62,9.62,0,0,1,3-.41,7.25,7.25,0,0,1,3.22.67A5,5,0,0,1,401.5,104a4.66,4.66,0,0,1,.73,2.59,6.55,6.55,0,0,1-.6,2.83,10.06,10.06,0,0,1-1.77,2.53c-.78.83-1.73,1.76-2.86,2.8l-1.92,1.77v.16h7.59Z"/><path d="M417.7,109.88a18.07,18.07,0,0,1-.46,4.17,9.33,9.33,0,0,1-1.53,3.45,7.24,7.24,0,0,1-2.91,2.32,10.84,10.84,0,0,1-4.59.85c-.37,0-.79,0-1.29,0s-.9-.07-1.23-.12V117a11,11,0,0,0,2.28.23,7.2,7.2,0,0,0,3.42-.66,3.68,3.68,0,0,0,1.71-1.86,8.25,8.25,0,0,0,.57-2.76h-.16a4.72,4.72,0,0,1-1.38,1.54,4.34,4.34,0,0,1-2.54.62,4.81,4.81,0,0,1-3.77-1.56,6.36,6.36,0,0,1-1.41-4.42,6.48,6.48,0,0,1,1.72-4.77,6.33,6.33,0,0,1,4.7-1.73,6.94,6.94,0,0,1,3.49.89,6.12,6.12,0,0,1,2.47,2.71A10.44,10.44,0,0,1,417.7,109.88Zm-6.76-4.73a2.08,2.08,0,0,0-1.64.7,3.24,3.24,0,0,0-.62,2.21,3.06,3.06,0,0,0,.54,1.92,2,2,0,0,0,1.67.71,2.23,2.23,0,0,0,1.74-.75,2.28,2.28,0,0,0,.67-1.57,4.38,4.38,0,0,0-.26-1.52,2.92,2.92,0,0,0-.78-1.22A1.85,1.85,0,0,0,410.94,105.15Z"/><path d="M432.05,106a4.33,4.33,0,0,1-.55,2.24,4.7,4.7,0,0,1-1.46,1.55,6.86,6.86,0,0,1-2.05.89v.08a6.13,6.13,0,0,1,3.41,1.37,3.78,3.78,0,0,1,1.2,3,5.19,5.19,0,0,1-.81,2.84,5.53,5.53,0,0,1-2.48,2,10.68,10.68,0,0,1-4.33.75,15.26,15.26,0,0,1-3-.26,14,14,0,0,1-2.49-.75v-3.72a11.16,11.16,0,0,0,4.89,1.22,4.4,4.4,0,0,0,2.75-.64,2.15,2.15,0,0,0,.76-1.75,2,2,0,0,0-.36-1.2,2.28,2.28,0,0,0-1.29-.75,9.72,9.72,0,0,0-2.59-.26h-1.27V109.2h1.3a8.1,8.1,0,0,0,2.44-.28,2.24,2.24,0,0,0,1.21-.8,1.91,1.91,0,0,0,.35-1.15c0-1.22-.79-1.82-2.39-1.82a5.15,5.15,0,0,0-2.27.47,16,16,0,0,0-1.55.8l-1.95-3a10.38,10.38,0,0,1,6.29-1.85,7.91,7.91,0,0,1,4.53,1.15A3.68,3.68,0,0,1,432.05,106Z"/><path d="M252.14,169.41h-4.47v-10c0-.23,0-.56,0-1s0-.92,0-1.42,0-1,0-1.36a5.17,5.17,0,0,1-.58.61c-.24.24-.46.44-.67.62l-2.13,1.74-2.21-2.76,6.16-5h3.82Z"/><path d="M261.81,166l.18.28c-.15.63-.35,1.33-.59,2.11s-.51,1.56-.8,2.34-.56,1.49-.84,2.13h-3.12c.24-1.11.48-2.28.71-3.53s.41-2.36.54-3.33Z"/><path d="M271.09,150.61a9,9,0,0,1,3.08.5,4.76,4.76,0,0,1,2.18,1.49,3.88,3.88,0,0,1,.8,2.48,4.13,4.13,0,0,1-.92,2.77,7,7,0,0,1-2.35,1.76,13.66,13.66,0,0,1,1.8,1.19,6.31,6.31,0,0,1,1.45,1.6,4,4,0,0,1,.57,2.15,4.56,4.56,0,0,1-1.73,3.7,7.51,7.51,0,0,1-4.9,1.42,7.65,7.65,0,0,1-5-1.38,4.52,4.52,0,0,1-1.66-3.67,4.41,4.41,0,0,1,1-3.05,8.08,8.08,0,0,1,2.48-1.86,8.37,8.37,0,0,1-2.05-1.88,4.4,4.4,0,0,1-.86-2.77,3.75,3.75,0,0,1,.82-2.46,4.82,4.82,0,0,1,2.2-1.49A9,9,0,0,1,271.09,150.61Zm-2.57,13.78a1.87,1.87,0,0,0,.64,1.48,2.69,2.69,0,0,0,1.86.58,3,3,0,0,0,2-.55,1.8,1.8,0,0,0,.64-1.43,1.92,1.92,0,0,0-.38-1.16,3.86,3.86,0,0,0-.92-.88q-.56-.37-1-.66l-.34-.21a6.47,6.47,0,0,0-1.75,1.19A2.21,2.21,0,0,0,268.52,164.39Zm2.55-10.58a2.09,2.09,0,0,0-1.35.44,1.46,1.46,0,0,0-.55,1.2,1.83,1.83,0,0,0,.56,1.35,5.61,5.61,0,0,0,1.34.94,5.88,5.88,0,0,0,1.32-.86,1.81,1.81,0,0,0,.6-1.43,1.44,1.44,0,0,0-.56-1.2A2.15,2.15,0,0,0,271.07,153.81Z"/><path d="M286.12,150.61a9,9,0,0,1,3.08.5,4.68,4.68,0,0,1,2.17,1.49,3.83,3.83,0,0,1,.81,2.48,4.13,4.13,0,0,1-.92,2.77,7,7,0,0,1-2.36,1.76,13.12,13.12,0,0,1,1.81,1.19,6.09,6.09,0,0,1,1.44,1.6,4,4,0,0,1,.57,2.15,4.55,4.55,0,0,1-1.72,3.7,7.54,7.54,0,0,1-4.91,1.42,7.62,7.62,0,0,1-5-1.38,4.53,4.53,0,0,1-1.67-3.67,4.42,4.42,0,0,1,1-3.05,8,8,0,0,1,2.48-1.86,8.37,8.37,0,0,1-2.05-1.88,4.34,4.34,0,0,1-.86-2.77,3.75,3.75,0,0,1,.82-2.46,4.74,4.74,0,0,1,2.19-1.49A9,9,0,0,1,286.12,150.61Zm-2.57,13.78a1.9,1.9,0,0,0,.63,1.48,2.73,2.73,0,0,0,1.86.58,3,3,0,0,0,2-.55,1.79,1.79,0,0,0,.63-1.43,1.91,1.91,0,0,0-.37-1.16,3.9,3.9,0,0,0-.93-.88c-.36-.25-.7-.47-1-.66l-.34-.21a6.47,6.47,0,0,0-1.75,1.19A2.21,2.21,0,0,0,283.55,164.39Zm2.54-10.58a2.12,2.12,0,0,0-1.35.44,1.48,1.48,0,0,0-.54,1.2,1.79,1.79,0,0,0,.56,1.35,5.75,5.75,0,0,0,1.33.94,6,6,0,0,0,1.33-.86,1.81,1.81,0,0,0,.6-1.43,1.47,1.47,0,0,0-.56-1.2A2.16,2.16,0,0,0,286.09,153.81Z"/><path d="M307.73,158.88a18.63,18.63,0,0,1-.46,4.17,9.33,9.33,0,0,1-1.53,3.45,7.24,7.24,0,0,1-2.91,2.32,10.91,10.91,0,0,1-4.59.85c-.37,0-.8,0-1.29,0s-.91-.07-1.24-.12V166a11.11,11.11,0,0,0,2.29.23,7.2,7.2,0,0,0,3.42-.66,3.66,3.66,0,0,0,1.7-1.86,8.49,8.49,0,0,0,.58-2.76h-.16a5,5,0,0,1-1.38,1.54,4.36,4.36,0,0,1-2.55.62,4.84,4.84,0,0,1-3.77-1.56,7.57,7.57,0,0,1,.32-9.19,6.33,6.33,0,0,1,4.7-1.73,7,7,0,0,1,3.49.89,6.12,6.12,0,0,1,2.47,2.71A10.58,10.58,0,0,1,307.73,158.88ZM301,154.15a2.07,2.07,0,0,0-1.64.7,3.24,3.24,0,0,0-.63,2.21,3.07,3.07,0,0,0,.55,1.92,2,2,0,0,0,1.66.71,2.25,2.25,0,0,0,1.75-.75,2.28,2.28,0,0,0,.67-1.57,4.38,4.38,0,0,0-.26-1.52,2.92,2.92,0,0,0-.78-1.22A1.86,1.86,0,0,0,301,154.15Z"/><rect class="b" x="64" y="34" width="14" height="14"/><rect class="c" x="64" y="71" width="14" height="14"/></svg>