<svg xmlns="http://www.w3.org/2000/svg" viewBox="0 0 800 240"><defs><style>.cls-1{fill:#98d5f4;}.cls-2{fill:#0071bc;}.cls-3{fill:none;stroke:gray;stroke-miterlimit:10;}.cls-4{fill:#333;}</style></defs><g id="Layer_1" data-name="Layer 1"><rect class="cls-1" x="324.01" y="128.86" width="311.99" height="62.88"/><rect class="cls-2" x="324.01" y="59" width="187.19" height="62.88"/><line class="cls-3" x1="324.01" y1="225" x2="324.01" y2="19"/></g><g id="Layer_3" data-name="Layer 3"><path class="cls-4" d="M185.37,95.22l-1-3.22h-4.94l-1,3.22h-3.09l4.78-13.62h3.52l4.8,13.62Zm-1.67-5.64c-.91-2.92-1.43-4.58-1.54-5s-.2-.69-.25-.91q-.3,1.19-1.75,5.87Z"/><path class="cls-4" d="M192.78,95.22H190V80.79h2.83Z"/><path class="cls-4" d="M198.58,95.22h-2.83V80.79h2.83Z"/><path class="cls-4" d="M211.18,95.41A5.37,5.37,0,0,1,207.26,94a5.24,5.24,0,0,1-1.41-3.92,5.75,5.75,0,0,1,1.31-4,4.62,4.62,0,0,1,3.6-1.42,4.54,4.54,0,0,1,3.42,1.25,4.72,4.72,0,0,1,1.23,3.46v1.37h-6.69a2.76,2.76,0,0,0,.71,1.89,2.53,2.53,0,0,0,1.88.67,7.81,7.81,0,0,0,1.77-.19,9.14,9.14,0,0,0,1.74-.62v2.19a6.87,6.87,0,0,1-1.58.55A10.11,10.11,0,0,1,211.18,95.41Zm-.4-8.74a1.79,1.79,0,0,0-1.41.57,2.65,2.65,0,0,0-.59,1.62h4a2.36,2.36,0,0,0-.54-1.62A1.87,1.87,0,0,0,210.78,86.67Z"/><path class="cls-4" d="M227,95.22h-2.83v-6a3.09,3.09,0,0,0-.38-1.69,1.33,1.33,0,0,0-1.18-.56,1.72,1.72,0,0,0-1.58.8,5.18,5.18,0,0,0-.49,2.62v4.88h-2.83V84.85h2.16l.38,1.33h.16a2.89,2.89,0,0,1,1.2-1.12,3.92,3.92,0,0,1,1.81-.4,3.25,3.25,0,0,1,3.16,1.52h.25a2.79,2.79,0,0,1,1.23-1.12,4,4,0,0,1,1.83-.4,3.65,3.65,0,0,1,2.67.9,4,4,0,0,1,.9,2.9v6.76h-2.84v-6a3.09,3.09,0,0,0-.37-1.69,1.34,1.34,0,0,0-1.19-.56,1.77,1.77,0,0,0-1.55.74A4.26,4.26,0,0,0,227,90Z"/><path class="cls-4" d="M242.06,95.41a3.41,3.41,0,0,1-2.86-1.33h-.15c.1.87.15,1.37.15,1.51v4.2h-2.83V84.85h2.3l.39,1.35h.14a3.26,3.26,0,0,1,2.94-1.54A3.35,3.35,0,0,1,245,86.08a6.57,6.57,0,0,1,1,3.94,7.62,7.62,0,0,1-.49,2.88,4,4,0,0,1-1.38,1.87A3.55,3.55,0,0,1,242.06,95.41Zm-.83-8.49a1.76,1.76,0,0,0-1.53.65,3.61,3.61,0,0,0-.5,2.12V90a4.37,4.37,0,0,0,.49,2.39,1.76,1.76,0,0,0,1.57.73c1.27,0,1.91-1.05,1.91-3.14a4.48,4.48,0,0,0-.47-2.29A1.62,1.62,0,0,0,241.23,86.92Z"/><path class="cls-4" d="M251.22,95.22h-2.83V80.79h2.83Z"/><path class="cls-4" d="M263.61,90a5.56,5.56,0,0,1-1.33,4,4.85,4.85,0,0,1-3.72,1.43,5.17,5.17,0,0,1-2.64-.66,4.34,4.34,0,0,1-1.75-1.87,6.31,6.31,0,0,1-.61-2.86,5.55,5.55,0,0,1,1.32-4,4.88,4.88,0,0,1,3.73-1.41,5.17,5.17,0,0,1,2.64.65A4.32,4.32,0,0,1,263,87.17,6.23,6.23,0,0,1,263.61,90Zm-7.17,0a4.33,4.33,0,0,0,.51,2.33,1.8,1.8,0,0,0,1.64.79,1.76,1.76,0,0,0,1.63-.79,4.41,4.41,0,0,0,.5-2.33,4.31,4.31,0,0,0-.5-2.31,2.14,2.14,0,0,0-3.28,0A4.35,4.35,0,0,0,256.44,90Z"/><path class="cls-4" d="M264.28,84.85h3.1l2,5.84a8.24,8.24,0,0,1,.34,1.8h.06a7.88,7.88,0,0,1,.39-1.8l1.93-5.84h3l-4.39,11.7A5,5,0,0,1,269,99a4.35,4.35,0,0,1-2.61.81,6.29,6.29,0,0,1-1.44-.16V97.38a4.83,4.83,0,0,0,1.11.13,2.08,2.08,0,0,0,1.32-.46,3,3,0,0,0,.87-1.39l.17-.51Z"/><path class="cls-4" d="M281.27,95.41A5.37,5.37,0,0,1,277.35,94a5.24,5.24,0,0,1-1.41-3.92,5.75,5.75,0,0,1,1.31-4,4.63,4.63,0,0,1,3.6-1.42,4.52,4.52,0,0,1,3.42,1.25,4.72,4.72,0,0,1,1.23,3.46v1.37h-6.69a2.76,2.76,0,0,0,.71,1.89,2.53,2.53,0,0,0,1.88.67,7.81,7.81,0,0,0,1.77-.19,8.91,8.91,0,0,0,1.74-.62v2.19a6.87,6.87,0,0,1-1.58.55A10,10,0,0,1,281.27,95.41Zm-.4-8.74a1.79,1.79,0,0,0-1.41.57,2.58,2.58,0,0,0-.58,1.62h4a2.41,2.41,0,0,0-.55-1.62A1.85,1.85,0,0,0,280.87,86.67Z"/><path class="cls-4" d="M292.49,95.41A5.35,5.35,0,0,1,288.58,94a5.24,5.24,0,0,1-1.41-3.92,5.75,5.75,0,0,1,1.3-4,4.64,4.64,0,0,1,3.61-1.42,4.55,4.55,0,0,1,3.42,1.25,4.72,4.72,0,0,1,1.22,3.46v1.37H290a2.72,2.72,0,0,0,.71,1.89,2.52,2.52,0,0,0,1.87.67,7.84,7.84,0,0,0,1.78-.19,9.39,9.39,0,0,0,1.74-.62v2.19a6.79,6.79,0,0,1-1.59.55A10,10,0,0,1,292.49,95.41Zm-.4-8.74a1.82,1.82,0,0,0-1.41.57,2.64,2.64,0,0,0-.58,1.62h4a2.31,2.31,0,0,0-.55-1.62A1.84,1.84,0,0,0,292.09,86.67Z"/><path class="cls-4" d="M306.26,92.14a2.84,2.84,0,0,1-1.11,2.43,5.44,5.44,0,0,1-3.31.84,10.57,10.57,0,0,1-1.93-.15,8.72,8.72,0,0,1-1.5-.45V92.47a10,10,0,0,0,1.78.62,7.06,7.06,0,0,0,1.74.25c1,0,1.54-.3,1.54-.89a.77.77,0,0,0-.2-.54,3.27,3.27,0,0,0-.71-.48c-.33-.17-.78-.38-1.34-.61a8.91,8.91,0,0,1-1.75-.93,2.52,2.52,0,0,1-.82-1,3.23,3.23,0,0,1-.26-1.36,2.47,2.47,0,0,1,1.08-2.14,5.22,5.22,0,0,1,3-.75,8.69,8.69,0,0,1,3.65.81l-.85,2c-.52-.22-1-.4-1.46-.54a4.33,4.33,0,0,0-1.38-.22c-.84,0-1.25.23-1.25.68a.8.8,0,0,0,.4.66,11,11,0,0,0,1.77.83,8.16,8.16,0,0,1,1.78.91,2.75,2.75,0,0,1,.83,1A3,3,0,0,1,306.26,92.14Z"/><path class="cls-4" d="M174,163.22l-3.26-10.64h-.09c.12,2.17.18,3.61.18,4.34v6.3h-2.57V149.66h3.92L175.35,160h.05l3.41-10.37h3.91v13.56H180V156.8c0-.3,0-.65,0-1s.06-1.45.13-3.16h-.08l-3.5,10.62Z"/><path class="cls-4" d="M192.5,163.22l-.55-1.41h-.07a4.23,4.23,0,0,1-1.47,1.25,4.79,4.79,0,0,1-2,.35,3.25,3.25,0,0,1-2.36-.85,3.29,3.29,0,0,1-.85-2.44,2.72,2.72,0,0,1,1.15-2.43,6.75,6.75,0,0,1,3.48-.87l1.8,0v-.46a1.41,1.41,0,0,0-1.61-1.58,7.39,7.39,0,0,0-2.92.76l-.94-1.91a8.37,8.37,0,0,1,4-.94,4.92,4.92,0,0,1,3.2.91,3.36,3.36,0,0,1,1.11,2.76v6.91Zm-.84-4.8-1.09,0a3.5,3.5,0,0,0-1.84.44,1.4,1.4,0,0,0-.6,1.24c0,.8.46,1.2,1.37,1.2a2.19,2.19,0,0,0,1.58-.57,2,2,0,0,0,.58-1.5Z"/><path class="cls-4" d="M207,163.22h-2.83v-6.05a2.91,2.91,0,0,0-.4-1.69,1.45,1.45,0,0,0-1.27-.56,1.89,1.89,0,0,0-1.71.79,4.86,4.86,0,0,0-.53,2.63v4.88h-2.83V152.85h2.16l.38,1.33h.16a3,3,0,0,1,1.3-1.14,4.56,4.56,0,0,1,1.89-.38,3.61,3.61,0,0,1,2.75,1,3.93,3.93,0,0,1,.93,2.82Z"/><path class="cls-4" d="M216.46,163.22l-.54-1.41h-.08a4.06,4.06,0,0,1-1.47,1.25,4.76,4.76,0,0,1-2,.35,3.21,3.21,0,0,1-2.35-.85,3.3,3.3,0,0,1-.86-2.44,2.72,2.72,0,0,1,1.15-2.43,6.79,6.79,0,0,1,3.49-.87l1.8,0v-.46a1.42,1.42,0,0,0-1.62-1.58,7.39,7.39,0,0,0-2.92.76l-.94-1.91a8.4,8.4,0,0,1,4-.94,5,5,0,0,1,3.21.91,3.36,3.36,0,0,1,1.11,2.76v6.91Zm-.83-4.8-1.1,0a3.46,3.46,0,0,0-1.83.44,1.39,1.39,0,0,0-.61,1.24q0,1.2,1.38,1.2a2.16,2.16,0,0,0,1.57-.57,2,2,0,0,0,.59-1.5Z"/><path class="cls-4" d="M230.42,163.24a4.29,4.29,0,0,1-1.31,3.39,5.69,5.69,0,0,1-3.88,1.16,11.09,11.09,0,0,1-3.88-.61v-2.27a10.34,10.34,0,0,0,4.05.8c1.45,0,2.18-.79,2.18-2.36v-.2l.08-1.27h-.08a3.29,3.29,0,0,1-2.94,1.53,3.33,3.33,0,0,1-2.89-1.44,8,8,0,0,1,0-7.89,3.46,3.46,0,0,1,2.93-1.42,3.5,3.5,0,0,1,3,1.52h.07l.23-1.33h2.4Zm-4.77-2.05a1.92,1.92,0,0,0,1.63-.65,3.56,3.56,0,0,0,.49-2.12v-.35a4.25,4.25,0,0,0-.51-2.38,1.89,1.89,0,0,0-1.66-.73c-1.33,0-2,1-2,3.13a4.37,4.37,0,0,0,.49,2.33A1.7,1.7,0,0,0,225.65,161.19Z"/><path class="cls-4" d="M238.07,163.41a5.37,5.37,0,0,1-3.92-1.38,5.24,5.24,0,0,1-1.41-3.92,5.75,5.75,0,0,1,1.31-4,4.63,4.63,0,0,1,3.6-1.42,4.56,4.56,0,0,1,3.43,1.25,4.76,4.76,0,0,1,1.22,3.46v1.37h-6.69a2.72,2.72,0,0,0,.72,1.89,2.5,2.5,0,0,0,1.87.67,7.81,7.81,0,0,0,1.77-.19,8.91,8.91,0,0,0,1.74-.62v2.19a6.87,6.87,0,0,1-1.58.55A10,10,0,0,1,238.07,163.41Zm-.4-8.74a1.79,1.79,0,0,0-1.41.57,2.64,2.64,0,0,0-.58,1.62h4a2.41,2.41,0,0,0-.55-1.62A1.85,1.85,0,0,0,237.67,154.67Z"/><path class="cls-4" d="M250.39,152.66a4.26,4.26,0,0,1,1,.08l-.21,2.65a3.34,3.34,0,0,0-.83-.09,3,3,0,0,0-2.11.7,2.49,2.49,0,0,0-.76,1.95v5.27H244.6V152.85h2.14l.42,1.75h.14a3.92,3.92,0,0,1,1.3-1.41A3.2,3.2,0,0,1,250.39,152.66Z"/><path class="cls-4" d="M260.46,160.14a2.86,2.86,0,0,1-1.1,2.43,5.47,5.47,0,0,1-3.32.84,10.65,10.65,0,0,1-1.93-.15,8.35,8.35,0,0,1-1.49-.45v-2.34a9.63,9.63,0,0,0,1.77.62,7.06,7.06,0,0,0,1.74.25c1,0,1.54-.3,1.54-.89a.77.77,0,0,0-.2-.54,3,3,0,0,0-.71-.48c-.33-.17-.78-.38-1.33-.61a8.75,8.75,0,0,1-1.76-.93,2.52,2.52,0,0,1-.82-1,3.24,3.24,0,0,1-.25-1.36,2.48,2.48,0,0,1,1.07-2.14,5.25,5.25,0,0,1,3-.75,8.65,8.65,0,0,1,3.64.81l-.85,2A14.88,14.88,0,0,0,258,155a4.33,4.33,0,0,0-1.38-.22c-.83,0-1.25.23-1.25.68a.8.8,0,0,0,.4.66,11,11,0,0,0,1.77.83,8.16,8.16,0,0,1,1.78.91,2.79,2.79,0,0,1,.84,1A3,3,0,0,1,260.46,160.14Z"/><path class="cls-4" d="M277,158a5.56,5.56,0,0,1-1.33,4,4.85,4.85,0,0,1-3.72,1.43,5.17,5.17,0,0,1-2.64-.66,4.34,4.34,0,0,1-1.75-1.87A6.31,6.31,0,0,1,267,158a5.55,5.55,0,0,1,1.32-4,4.88,4.88,0,0,1,3.73-1.41,5.17,5.17,0,0,1,2.64.65,4.32,4.32,0,0,1,1.75,1.86A6.23,6.23,0,0,1,277,158Zm-7.17,0a4.33,4.33,0,0,0,.51,2.33,1.81,1.81,0,0,0,1.64.79,1.76,1.76,0,0,0,1.63-.79,4.41,4.41,0,0,0,.5-2.33,4.31,4.31,0,0,0-.5-2.31,2.14,2.14,0,0,0-3.28,0A4.35,4.35,0,0,0,269.86,158Z"/><path class="cls-4" d="M289,163.22h-2.83v-6.05a3,3,0,0,0-.4-1.69,1.47,1.47,0,0,0-1.27-.56,1.91,1.91,0,0,0-1.72.79,5,5,0,0,0-.53,2.63v4.88h-2.83V152.85h2.16l.38,1.33h.16a3,3,0,0,1,1.31-1.14,4.51,4.51,0,0,1,1.88-.38,3.61,3.61,0,0,1,2.75,1,3.93,3.93,0,0,1,.94,2.82Z"/><path class="cls-4" d="M294.69,163.22h-2.83V148.79h2.83Z"/><path class="cls-4" d="M296.17,152.85h3.1l2,5.84a7.69,7.69,0,0,1,.34,1.8h.06a7.88,7.88,0,0,1,.4-1.8l1.92-5.84h3l-4.39,11.7a5,5,0,0,1-1.72,2.43,4.31,4.31,0,0,1-2.61.81,6.29,6.29,0,0,1-1.44-.16v-2.25a4.85,4.85,0,0,0,1.12.13,2,2,0,0,0,1.31-.46,3,3,0,0,0,.88-1.39l.16-.51Z"/><path d="M689.62,87.53a22.54,22.54,0,0,1,.23-3.17,12.47,12.47,0,0,1,.82-3,7.87,7.87,0,0,1,1.65-2.47,7.32,7.32,0,0,1,2.73-1.69,11.77,11.77,0,0,1,4.06-.61c.36,0,.8,0,1.31,0a10.16,10.16,0,0,1,1.26.16V80.3c-.35-.07-.72-.12-1.13-.17s-.86-.06-1.37-.06a6.84,6.84,0,0,0-3.27.65,3.75,3.75,0,0,0-1.68,1.84,8.08,8.08,0,0,0-.58,2.79h.15a4.77,4.77,0,0,1,1.43-1.54,4.28,4.28,0,0,1,2.42-.62,4.92,4.92,0,0,1,3.85,1.56,6.36,6.36,0,0,1,1.4,4.39A6.43,6.43,0,0,1,701.17,94a6.33,6.33,0,0,1-4.69,1.72,7,7,0,0,1-3.5-.87,6.05,6.05,0,0,1-2.45-2.68A10.11,10.11,0,0,1,689.62,87.53Zm6.78,4.6a2,2,0,0,0,1.6-.7,3.3,3.3,0,0,0,.61-2.21,3.1,3.1,0,0,0-.52-1.9,1.91,1.91,0,0,0-1.63-.7,2.27,2.27,0,0,0-1.8.73,2.34,2.34,0,0,0-.65,1.59,4.54,4.54,0,0,0,.26,1.49,2.94,2.94,0,0,0,.79,1.22A2,2,0,0,0,696.4,92.13Z"/><path d="M685,171.41h-4.47v-10c0-.23,0-.56,0-1s0-.92,0-1.42,0-1,0-1.36a4.3,4.3,0,0,1-.57.61c-.24.24-.47.44-.67.62l-2.14,1.74L675,157.81l6.17-5H685Z"/><path d="M702.8,162.13a17.84,17.84,0,0,1-.64,5.12,6.39,6.39,0,0,1-2.08,3.28,6.05,6.05,0,0,1-3.86,1.14,5.47,5.47,0,0,1-5-2.52,13.33,13.33,0,0,1-1.57-7,18,18,0,0,1,.64-5.14,6.38,6.38,0,0,1,2.08-3.29,6.05,6.05,0,0,1,3.86-1.14,5.47,5.47,0,0,1,5,2.52A13.19,13.19,0,0,1,702.8,162.13Zm-8.76,0a16.6,16.6,0,0,0,.45,4.48,1.75,1.75,0,0,0,3.46,0,16.6,16.6,0,0,0,.45-4.48,16.89,16.89,0,0,0-.45-4.49c-.3-1-.88-1.52-1.73-1.52s-1.43.51-1.73,1.52A16.89,16.89,0,0,0,694,162.13Z"/></g></svg>