<svg xmlns="http://www.w3.org/2000/svg" viewBox="0 0 800 480"><defs><style>.cls-1{fill:#98d5f4;}.cls-2{fill:#0071bc;}.cls-3{fill:none;stroke:gray;stroke-miterlimit:10;stroke-width:0.93px;}.cls-4{fill:#333;}.cls-5{fill:#999;}</style></defs><g id="Layer_1" data-name="Layer 1"><rect class="cls-1" x="336" y="243.97" width="248.7" height="73.03"/><rect class="cls-2" x="336" y="162.83" width="291.95" height="73.03"/><line class="cls-3" x1="336.01" y1="380.09" x2="336.01" y2="100.09"/></g><g id="Layer_3" data-name="Layer 3"><path class="cls-4" d="M162.6,208.22l-1-3.22h-4.94l-1,3.22h-3.1l4.79-13.62h3.52l4.8,13.62Zm-1.67-5.64c-.9-2.92-1.42-4.58-1.53-5s-.2-.69-.25-.91c-.2.79-.79,2.75-1.75,5.87Z"/><path class="cls-4" d="M170,208.22h-2.83V193.79H170Z"/><path class="cls-4" d="M175.82,208.22H173V193.79h2.83Z"/><path class="cls-4" d="M195,194.66v8.78a5,5,0,0,1-.67,2.63,4.44,4.44,0,0,1-1.94,1.74,7,7,0,0,1-3,.6,5.76,5.76,0,0,1-4.06-1.34,4.75,4.75,0,0,1-1.45-3.67v-8.74h2.87V203a3.45,3.45,0,0,0,.63,2.3,2.61,2.61,0,0,0,2.09.74,2.55,2.55,0,0,0,2-.74,3.51,3.51,0,0,0,.64-2.32v-8.28Z"/><path class="cls-4" d="M206.31,204.46a3.5,3.5,0,0,1-1.32,2.89,5.72,5.72,0,0,1-3.68,1.06,8.54,8.54,0,0,1-3.84-.82v-2.67a14.74,14.74,0,0,0,2.32.86,6.82,6.82,0,0,0,1.74.25,2.52,2.52,0,0,0,1.46-.36,1.25,1.25,0,0,0,.5-1.07,1.15,1.15,0,0,0-.22-.71,2.44,2.44,0,0,0-.66-.6,16.24,16.24,0,0,0-1.75-.92,8.46,8.46,0,0,1-1.87-1.12,4.32,4.32,0,0,1-1-1.26,3.52,3.52,0,0,1-.37-1.67,3.46,3.46,0,0,1,1.22-2.82,5,5,0,0,1,3.37-1,7.87,7.87,0,0,1,2,.25,13.43,13.43,0,0,1,2,.7l-.93,2.24a12.15,12.15,0,0,0-1.8-.62,5.64,5.64,0,0,0-1.39-.18,1.85,1.85,0,0,0-1.25.38,1.33,1.33,0,0,0-.26,1.66,1.82,1.82,0,0,0,.56.54,14.58,14.58,0,0,0,1.82.95,7.29,7.29,0,0,1,2.61,1.83A3.54,3.54,0,0,1,206.31,204.46Z"/><path class="cls-4" d="M218.18,208.41a5.37,5.37,0,0,1-3.92-1.38,5.24,5.24,0,0,1-1.41-3.92,5.75,5.75,0,0,1,1.31-4,4.62,4.62,0,0,1,3.6-1.42,4.54,4.54,0,0,1,3.42,1.25,4.72,4.72,0,0,1,1.23,3.46v1.37h-6.69a2.76,2.76,0,0,0,.71,1.89,2.53,2.53,0,0,0,1.88.67,7.81,7.81,0,0,0,1.77-.19,9.14,9.14,0,0,0,1.74-.62v2.19a6.87,6.87,0,0,1-1.58.55A10.11,10.11,0,0,1,218.18,208.41Zm-.4-8.74a1.79,1.79,0,0,0-1.41.57,2.65,2.65,0,0,0-.59,1.62h4a2.36,2.36,0,0,0-.54-1.62A1.87,1.87,0,0,0,217.78,199.67Z"/><path class="cls-4" d="M234,208.22h-2.83v-6.05a3.09,3.09,0,0,0-.38-1.69,1.33,1.33,0,0,0-1.18-.56,1.72,1.72,0,0,0-1.58.8,5.2,5.2,0,0,0-.49,2.62v4.88h-2.83V197.85h2.16l.38,1.33h.16a2.89,2.89,0,0,1,1.2-1.12,3.92,3.92,0,0,1,1.81-.4,3.25,3.25,0,0,1,3.16,1.52h.25a2.79,2.79,0,0,1,1.23-1.12,4,4,0,0,1,1.83-.4,3.65,3.65,0,0,1,2.67.9,4,4,0,0,1,.9,2.9v6.76h-2.84v-6.05a3.09,3.09,0,0,0-.37-1.69,1.34,1.34,0,0,0-1.19-.56,1.77,1.77,0,0,0-1.55.74A4.26,4.26,0,0,0,234,203Z"/><path class="cls-4" d="M249.06,208.41a3.41,3.41,0,0,1-2.86-1.33h-.15c.1.87.15,1.37.15,1.51v4.2h-2.83V197.85h2.3l.39,1.35h.14a3.26,3.26,0,0,1,2.94-1.54,3.35,3.35,0,0,1,2.87,1.42,6.57,6.57,0,0,1,1,3.94,7.62,7.62,0,0,1-.49,2.88,4,4,0,0,1-1.38,1.87A3.55,3.55,0,0,1,249.06,208.41Zm-.83-8.49a1.78,1.78,0,0,0-1.53.65,3.61,3.61,0,0,0-.5,2.12V203a4.37,4.37,0,0,0,.49,2.39,1.76,1.76,0,0,0,1.57.73c1.27,0,1.91-1.05,1.91-3.14a4.48,4.48,0,0,0-.47-2.29A1.62,1.62,0,0,0,248.23,199.92Z"/><path class="cls-4" d="M258.22,208.22h-2.83V193.79h2.83Z"/><path class="cls-4" d="M270.61,203a5.56,5.56,0,0,1-1.33,4,4.85,4.85,0,0,1-3.72,1.43,5.17,5.17,0,0,1-2.64-.66,4.34,4.34,0,0,1-1.75-1.87,6.31,6.31,0,0,1-.61-2.86,5.55,5.55,0,0,1,1.32-4,4.88,4.88,0,0,1,3.73-1.41,5.17,5.17,0,0,1,2.64.65,4.32,4.32,0,0,1,1.75,1.86A6.23,6.23,0,0,1,270.61,203Zm-7.17,0a4.33,4.33,0,0,0,.51,2.33,1.8,1.8,0,0,0,1.64.79,1.76,1.76,0,0,0,1.63-.79,4.41,4.41,0,0,0,.5-2.33,4.31,4.31,0,0,0-.5-2.31,2.14,2.14,0,0,0-3.28,0A4.35,4.35,0,0,0,263.44,203Z"/><path class="cls-4" d="M271.28,197.85h3.1l2,5.84a8.24,8.24,0,0,1,.34,1.8h.06a7.88,7.88,0,0,1,.39-1.8l1.93-5.84h3l-4.39,11.7A5,5,0,0,1,276,212a4.35,4.35,0,0,1-2.61.81,6.29,6.29,0,0,1-1.44-.16v-2.24a4.84,4.84,0,0,0,1.11.12,2.08,2.08,0,0,0,1.32-.46,3,3,0,0,0,.87-1.39l.17-.51Z"/><path class="cls-4" d="M288.27,208.41a5.37,5.37,0,0,1-3.92-1.38,5.24,5.24,0,0,1-1.41-3.92,5.75,5.75,0,0,1,1.31-4,4.63,4.63,0,0,1,3.6-1.42,4.52,4.52,0,0,1,3.42,1.25,4.72,4.72,0,0,1,1.23,3.46v1.37h-6.69a2.76,2.76,0,0,0,.71,1.89,2.53,2.53,0,0,0,1.88.67,7.81,7.81,0,0,0,1.77-.19,8.91,8.91,0,0,0,1.74-.62v2.19a6.87,6.87,0,0,1-1.58.55A10,10,0,0,1,288.27,208.41Zm-.4-8.74a1.79,1.79,0,0,0-1.41.57,2.58,2.58,0,0,0-.58,1.62h4a2.41,2.41,0,0,0-.55-1.62A1.85,1.85,0,0,0,287.87,199.67Z"/><path class="cls-4" d="M299.49,208.41a5.35,5.35,0,0,1-3.91-1.38,5.24,5.24,0,0,1-1.41-3.92,5.75,5.75,0,0,1,1.3-4,4.64,4.64,0,0,1,3.61-1.42,4.55,4.55,0,0,1,3.42,1.25,4.72,4.72,0,0,1,1.22,3.46v1.37H297a2.72,2.72,0,0,0,.71,1.89,2.52,2.52,0,0,0,1.87.67,7.84,7.84,0,0,0,1.78-.19,9.39,9.39,0,0,0,1.74-.62v2.19a6.79,6.79,0,0,1-1.59.55A10,10,0,0,1,299.49,208.41Zm-.4-8.74a1.82,1.82,0,0,0-1.41.57,2.64,2.64,0,0,0-.58,1.62h4a2.31,2.31,0,0,0-.55-1.62A1.84,1.84,0,0,0,299.09,199.67Z"/><path class="cls-4" d="M313.26,205.14a2.84,2.84,0,0,1-1.11,2.43,5.44,5.44,0,0,1-3.31.84,10.57,10.57,0,0,1-1.93-.15,8.72,8.72,0,0,1-1.5-.45v-2.34a10,10,0,0,0,1.78.62,7.06,7.06,0,0,0,1.74.25c1,0,1.54-.3,1.54-.89a.77.77,0,0,0-.2-.54,3.27,3.27,0,0,0-.71-.48c-.33-.17-.78-.38-1.34-.61a8.91,8.91,0,0,1-1.75-.93,2.6,2.6,0,0,1-.82-1,3.23,3.23,0,0,1-.26-1.36,2.47,2.47,0,0,1,1.08-2.14,5.22,5.22,0,0,1,3-.75,8.69,8.69,0,0,1,3.65.81l-.85,2c-.52-.22-1-.4-1.46-.54a4.33,4.33,0,0,0-1.38-.22c-.84,0-1.25.23-1.25.68a.8.8,0,0,0,.4.66,12,12,0,0,0,1.77.83,8.16,8.16,0,0,1,1.78.91,2.75,2.75,0,0,1,.83,1A3,3,0,0,1,313.26,205.14Z"/><path class="cls-4" d="M123.79,289.22l-3.27-10.64h-.08c.12,2.17.18,3.61.18,4.34v6.3H118V275.66H122L125.17,286h.06l3.4-10.37h3.91v13.56h-2.68V282.8c0-.3,0-.65,0-1s.05-1.45.12-3.16h-.08l-3.5,10.62Z"/><path class="cls-4" d="M142.32,289.22l-.54-1.41h-.08a4.06,4.06,0,0,1-1.47,1.25,4.76,4.76,0,0,1-2,.35,3.21,3.21,0,0,1-2.35-.85,3.3,3.3,0,0,1-.86-2.44,2.71,2.71,0,0,1,1.16-2.43,6.72,6.72,0,0,1,3.48-.87l1.8-.05v-.46a1.42,1.42,0,0,0-1.62-1.58,7.39,7.39,0,0,0-2.92.76l-.94-1.91a8.41,8.41,0,0,1,4-.94,4.94,4.94,0,0,1,3.2.91,3.36,3.36,0,0,1,1.11,2.76v6.91Zm-.83-4.8-1.1,0a3.46,3.46,0,0,0-1.83.44,1.39,1.39,0,0,0-.61,1.24q0,1.2,1.38,1.2a2.16,2.16,0,0,0,1.57-.57,2,2,0,0,0,.59-1.5Z"/><path class="cls-4" d="M156.79,289.22H154v-6.05a3,3,0,0,0-.4-1.69,1.47,1.47,0,0,0-1.27-.56,1.91,1.91,0,0,0-1.72.79,5,5,0,0,0-.53,2.63v4.88h-2.83V278.85h2.17l.37,1.33h.16a3,3,0,0,1,1.31-1.14,4.51,4.51,0,0,1,1.88-.38,3.6,3.6,0,0,1,2.75,1,3.93,3.93,0,0,1,.94,2.82Z"/><path class="cls-4" d="M166.29,289.22l-.55-1.41h-.07a4.23,4.23,0,0,1-1.47,1.25,4.84,4.84,0,0,1-2,.35,3.22,3.22,0,0,1-2.35-.85,3.3,3.3,0,0,1-.86-2.44,2.73,2.73,0,0,1,1.16-2.43,6.75,6.75,0,0,1,3.48-.87l1.8-.05v-.46a1.41,1.41,0,0,0-1.61-1.58,7.39,7.39,0,0,0-2.92.76l-.94-1.91a8.37,8.37,0,0,1,4-.94,4.92,4.92,0,0,1,3.2.91,3.36,3.36,0,0,1,1.11,2.76v6.91Zm-.84-4.8-1.09,0a3.5,3.5,0,0,0-1.84.44,1.4,1.4,0,0,0-.6,1.24c0,.8.46,1.2,1.37,1.2a2.15,2.15,0,0,0,1.57-.57,1.94,1.94,0,0,0,.59-1.5Z"/><path class="cls-4" d="M180.24,289.24a4.32,4.32,0,0,1-1.3,3.39,5.72,5.72,0,0,1-3.89,1.16,11.07,11.07,0,0,1-3.87-.61v-2.27a10.26,10.26,0,0,0,4,.8c1.45,0,2.18-.79,2.18-2.36v-.2l.08-1.27h-.08a3.27,3.27,0,0,1-2.94,1.53,3.34,3.34,0,0,1-2.89-1.44,6.64,6.64,0,0,1-1-3.91,6.54,6.54,0,0,1,1.07-4,3.44,3.44,0,0,1,2.92-1.42,3.49,3.49,0,0,1,3,1.52h.07l.24-1.33h2.39Zm-4.77-2.05a1.91,1.91,0,0,0,1.63-.65,3.55,3.55,0,0,0,.5-2.12v-.35a4.24,4.24,0,0,0-.52-2.38,1.87,1.87,0,0,0-1.66-.73c-1.33,0-2,1-2,3.13a4.36,4.36,0,0,0,.5,2.33A1.68,1.68,0,0,0,175.47,287.19Z"/><path class="cls-4" d="M187.89,289.41A5.35,5.35,0,0,1,184,288a5.24,5.24,0,0,1-1.41-3.92,5.75,5.75,0,0,1,1.3-4,4.64,4.64,0,0,1,3.61-1.42,4.55,4.55,0,0,1,3.42,1.25,4.72,4.72,0,0,1,1.22,3.46v1.37h-6.68a2.72,2.72,0,0,0,.71,1.89,2.5,2.5,0,0,0,1.87.67,7.69,7.69,0,0,0,1.77-.19,9.22,9.22,0,0,0,1.75-.62v2.19a7,7,0,0,1-1.59.55A10,10,0,0,1,187.89,289.41Zm-.4-8.74a1.79,1.79,0,0,0-1.41.57,2.64,2.64,0,0,0-.58,1.62h4a2.31,2.31,0,0,0-.55-1.62A1.85,1.85,0,0,0,187.49,280.67Z"/><path class="cls-4" d="M200.21,278.66a4.3,4.3,0,0,1,1,.08l-.21,2.65a3.37,3.37,0,0,0-.84-.09,3,3,0,0,0-2.11.7,2.51,2.51,0,0,0-.76,1.94v5.28h-2.83V278.85h2.15l.42,1.75h.13a4,4,0,0,1,1.31-1.41A3.17,3.17,0,0,1,200.21,278.66Z"/><path class="cls-4" d="M210.29,286.14a2.84,2.84,0,0,1-1.11,2.43,5.45,5.45,0,0,1-3.32.84,10.73,10.73,0,0,1-1.93-.15,8.35,8.35,0,0,1-1.49-.45v-2.34a10,10,0,0,0,1.78.62,7.06,7.06,0,0,0,1.74.25c1,0,1.54-.3,1.54-.89a.73.73,0,0,0-.21-.54,2.93,2.93,0,0,0-.7-.48c-.34-.17-.78-.38-1.34-.61a9,9,0,0,1-1.76-.93,2.66,2.66,0,0,1-.81-1,3.23,3.23,0,0,1-.26-1.36,2.48,2.48,0,0,1,1.07-2.14,5.27,5.27,0,0,1,3-.75,8.69,8.69,0,0,1,3.65.81l-.86,2c-.52-.22-1-.4-1.45-.54a4.33,4.33,0,0,0-1.38-.22c-.84,0-1.26.23-1.26.68a.81.81,0,0,0,.41.66,11.69,11.69,0,0,0,1.76.83,8.28,8.28,0,0,1,1.79.91,2.86,2.86,0,0,1,.83,1A3,3,0,0,1,210.29,286.14Z"/><path class="cls-4" d="M224,289.22l-.55-1.41h-.07a4.23,4.23,0,0,1-1.47,1.25,4.79,4.79,0,0,1-2,.35,3.25,3.25,0,0,1-2.36-.85,3.29,3.29,0,0,1-.85-2.44,2.72,2.72,0,0,1,1.15-2.43,6.75,6.75,0,0,1,3.48-.87l1.8-.05v-.46a1.41,1.41,0,0,0-1.61-1.58,7.39,7.39,0,0,0-2.92.76l-.94-1.91a8.37,8.37,0,0,1,4-.94,4.92,4.92,0,0,1,3.2.91,3.36,3.36,0,0,1,1.12,2.76v6.91Zm-.84-4.8-1.09,0a3.53,3.53,0,0,0-1.84.44,1.4,1.4,0,0,0-.6,1.24c0,.8.46,1.2,1.37,1.2a2.19,2.19,0,0,0,1.58-.57,2,2,0,0,0,.58-1.5Z"/><path class="cls-4" d="M238.48,289.22h-2.83v-6.05a2.91,2.91,0,0,0-.4-1.69,1.45,1.45,0,0,0-1.27-.56,1.89,1.89,0,0,0-1.71.79,4.86,4.86,0,0,0-.53,2.63v4.88h-2.83V278.85h2.16l.38,1.33h.16a3,3,0,0,1,1.3-1.14,4.52,4.52,0,0,1,1.89-.38,3.57,3.57,0,0,1,2.74,1,3.89,3.89,0,0,1,.94,2.82Z"/><path class="cls-4" d="M244.68,289.41a3.35,3.35,0,0,1-2.87-1.42,7.91,7.91,0,0,1,0-7.91,3.44,3.44,0,0,1,2.92-1.42,3.37,3.37,0,0,1,3,1.52h.09a11.7,11.7,0,0,1-.21-2.07v-3.32h2.84v14.43h-2.17l-.55-1.34h-.12A3.23,3.23,0,0,1,244.68,289.41Zm1-2.26a1.9,1.9,0,0,0,1.59-.63,3.69,3.69,0,0,0,.56-2.14v-.31a4.25,4.25,0,0,0-.52-2.39,1.91,1.91,0,0,0-1.67-.72,1.66,1.66,0,0,0-1.47.8,4.25,4.25,0,0,0-.53,2.33,4.09,4.09,0,0,0,.53,2.3A1.72,1.72,0,0,0,245.67,287.15Z"/><path class="cls-4" d="M264.94,289.22l-.55-1.41h-.07a4.23,4.23,0,0,1-1.47,1.25,4.79,4.79,0,0,1-2,.35,3.21,3.21,0,0,1-2.35-.85,3.26,3.26,0,0,1-.86-2.44,2.72,2.72,0,0,1,1.15-2.43,6.76,6.76,0,0,1,3.49-.87l1.8-.05v-.46a1.42,1.42,0,0,0-1.62-1.58,7.39,7.39,0,0,0-2.92.76l-.94-1.91a8.4,8.4,0,0,1,4-.94,4.9,4.9,0,0,1,3.2.91,3.33,3.33,0,0,1,1.12,2.76v6.91Zm-.83-4.8-1.1,0a3.53,3.53,0,0,0-1.84.44,1.4,1.4,0,0,0-.6,1.24c0,.8.46,1.2,1.37,1.2a2.19,2.19,0,0,0,1.58-.57,2,2,0,0,0,.59-1.5Z"/><path class="cls-4" d="M275.6,278.66a3.35,3.35,0,0,1,2.88,1.43,6.62,6.62,0,0,1,1,3.93,6.43,6.43,0,0,1-1.08,4,3.73,3.73,0,0,1-5.78.08h-.2l-.47,1.14h-2.16V274.79h2.83v3.36c0,.42,0,1.11-.11,2.05h.11A3.26,3.26,0,0,1,275.6,278.66Zm-.91,2.26a1.78,1.78,0,0,0-1.53.65,3.69,3.69,0,0,0-.5,2.12V284a4.36,4.36,0,0,0,.5,2.39,1.75,1.75,0,0,0,1.57.73,1.6,1.6,0,0,0,1.39-.8,4.42,4.42,0,0,0,.51-2.34,4.06,4.06,0,0,0-.52-2.29A1.64,1.64,0,0,0,274.69,280.92Z"/><path class="cls-4" d="M291.28,284a5.57,5.57,0,0,1-1.34,4,4.85,4.85,0,0,1-3.72,1.43,5.16,5.16,0,0,1-2.63-.66,4.36,4.36,0,0,1-1.76-1.87,6.44,6.44,0,0,1-.61-2.86,5.55,5.55,0,0,1,1.33-3.95,4.87,4.87,0,0,1,3.73-1.41,5.16,5.16,0,0,1,2.63.65,4.34,4.34,0,0,1,1.76,1.86A6.23,6.23,0,0,1,291.28,284Zm-7.17,0a4.43,4.43,0,0,0,.5,2.33,1.83,1.83,0,0,0,1.65.79,1.78,1.78,0,0,0,1.63-.79,4.42,4.42,0,0,0,.49-2.33,4.22,4.22,0,0,0-.5-2.31,2.13,2.13,0,0,0-3.27,0A4.35,4.35,0,0,0,284.11,284Z"/><path class="cls-4" d="M295.9,289.22,292,278.85h3l2,5.91a9.06,9.06,0,0,1,.4,2.13h.07a8.2,8.2,0,0,1,.42-2.13l2-5.91h3l-4,10.37Z"/><path class="cls-4" d="M308.93,289.41A5.35,5.35,0,0,1,305,288a5.24,5.24,0,0,1-1.41-3.92,5.75,5.75,0,0,1,1.3-4,4.64,4.64,0,0,1,3.61-1.42,4.55,4.55,0,0,1,3.42,1.25,4.72,4.72,0,0,1,1.23,3.46v1.37h-6.69a2.76,2.76,0,0,0,.71,1.89,2.52,2.52,0,0,0,1.87.67,7.84,7.84,0,0,0,1.78-.19,9.39,9.39,0,0,0,1.74-.62v2.19a6.79,6.79,0,0,1-1.59.55A10,10,0,0,1,308.93,289.41Zm-.39-8.74a1.83,1.83,0,0,0-1.42.57,2.71,2.71,0,0,0-.58,1.62h4a2.31,2.31,0,0,0-.55-1.62A1.83,1.83,0,0,0,308.54,280.67Z"/><path d="M650.25,189.61a9.26,9.26,0,0,1,3.08.49,4.82,4.82,0,0,1,2.17,1.5,3.83,3.83,0,0,1,.81,2.48,4.09,4.09,0,0,1-.93,2.77,6.92,6.92,0,0,1-2.35,1.76,13.75,13.75,0,0,1,1.81,1.19,6.09,6.09,0,0,1,1.44,1.6,4,4,0,0,1,.57,2.15,4.53,4.53,0,0,1-1.73,3.7,7.49,7.49,0,0,1-4.9,1.42,7.62,7.62,0,0,1-5-1.38,4.53,4.53,0,0,1-1.67-3.67,4.46,4.46,0,0,1,1-3.05,8.12,8.12,0,0,1,2.49-1.86,8.42,8.42,0,0,1-2.06-1.88,4.4,4.4,0,0,1-.86-2.77,3.8,3.8,0,0,1,.82-2.46,4.92,4.92,0,0,1,2.2-1.5A9.28,9.28,0,0,1,650.25,189.61Zm-2.58,13.78a1.91,1.91,0,0,0,.64,1.48,2.73,2.73,0,0,0,1.86.58,3,3,0,0,0,2-.55,1.77,1.77,0,0,0,.64-1.43,1.92,1.92,0,0,0-.38-1.16,3.86,3.86,0,0,0-.92-.88c-.36-.25-.7-.47-1-.66l-.34-.21a6.54,6.54,0,0,0-1.76,1.19A2.21,2.21,0,0,0,647.67,203.39Zm2.55-10.58a2.09,2.09,0,0,0-1.35.44,1.48,1.48,0,0,0-.55,1.2,1.83,1.83,0,0,0,.56,1.35,5.53,5.53,0,0,0,1.34.94,6,6,0,0,0,1.33-.86,1.81,1.81,0,0,0,.6-1.43,1.46,1.46,0,0,0-.56-1.2A2.18,2.18,0,0,0,650.22,192.81Z"/><path d="M669,208.41h-4.47v-10c0-.23,0-.56,0-1s0-.93,0-1.43,0-1,0-1.36a5.92,5.92,0,0,1-.57.61c-.24.24-.47.44-.68.62l-2.13,1.74-2.21-2.76,6.16-5H669Z"/><path d="M677.94,189.58a4.1,4.1,0,0,1,3.4,1.53,6.62,6.62,0,0,1,1.22,4.27,7.15,7.15,0,0,1-1.14,4.31,4,4,0,0,1-3.48,1.54,4,4,0,0,1-3.33-1.54,6.88,6.88,0,0,1-1.2-4.31,7.13,7.13,0,0,1,1.12-4.27A4,4,0,0,1,677.94,189.58Zm0,2.87c-.4,0-.68.25-.85.75a7.71,7.71,0,0,0-.24,2.21,8.09,8.09,0,0,0,.24,2.24c.17.52.45.78.85.78s.68-.26.84-.78a7.67,7.67,0,0,0,.25-2.24,7.31,7.31,0,0,0-.25-2.21Q678.59,192.45,678,192.45Zm13.57-2.6-10.3,18.56h-3.38l10.3-18.56Zm-.1,7.15a4.1,4.1,0,0,1,3.4,1.52,6.62,6.62,0,0,1,1.22,4.27,7.17,7.17,0,0,1-1.14,4.31,4,4,0,0,1-3.48,1.54,4,4,0,0,1-3.33-1.54,6.9,6.9,0,0,1-1.2-4.31,7.13,7.13,0,0,1,1.12-4.27A3.94,3.94,0,0,1,691.46,197Zm0,2.83c-.4,0-.68.26-.85.78a10.3,10.3,0,0,0,0,4.42c.17.52.45.78.85.78.73,0,1.09-1,1.09-3S692.24,199.83,691.51,199.83Z"/><path d="M643.62,284.53a22.54,22.54,0,0,1,.23-3.17,12.47,12.47,0,0,1,.82-3,7.87,7.87,0,0,1,1.65-2.47,7.32,7.32,0,0,1,2.73-1.69,11.77,11.77,0,0,1,4.06-.61c.36,0,.8,0,1.31.05a10.16,10.16,0,0,1,1.26.16v3.48c-.35-.07-.72-.12-1.13-.17s-.86-.06-1.36-.06a6.85,6.85,0,0,0-3.28.65,3.75,3.75,0,0,0-1.68,1.84,8.08,8.08,0,0,0-.58,2.79h.15a4.77,4.77,0,0,1,1.43-1.54,4.28,4.28,0,0,1,2.42-.62,4.92,4.92,0,0,1,3.85,1.56,6.31,6.31,0,0,1,1.4,4.39,6.43,6.43,0,0,1-1.73,4.81,6.33,6.33,0,0,1-4.69,1.72,7,7,0,0,1-3.49-.87,6,6,0,0,1-2.46-2.68A10.11,10.11,0,0,1,643.62,284.53Zm6.78,4.6a2,2,0,0,0,1.6-.7,3.3,3.3,0,0,0,.61-2.21,3.1,3.1,0,0,0-.52-1.9,1.88,1.88,0,0,0-1.63-.7,2.27,2.27,0,0,0-1.8.73,2.34,2.34,0,0,0-.65,1.59,4.54,4.54,0,0,0,.26,1.49,3,3,0,0,0,.8,1.22A1.91,1.91,0,0,0,650.4,289.13Z"/><path d="M671.85,281.88a18.64,18.64,0,0,1-.45,4.17,9.51,9.51,0,0,1-1.54,3.45,7.24,7.24,0,0,1-2.91,2.32,10.84,10.84,0,0,1-4.59.85c-.36,0-.79,0-1.28,0s-.91-.07-1.24-.12V289a11,11,0,0,0,2.29.23,7.26,7.26,0,0,0,3.42-.66,3.7,3.7,0,0,0,1.7-1.86,8.25,8.25,0,0,0,.57-2.76h-.15a5,5,0,0,1-1.38,1.54,4.36,4.36,0,0,1-2.55.62,4.82,4.82,0,0,1-3.77-1.56,6.4,6.4,0,0,1-1.4-4.42,6.48,6.48,0,0,1,1.71-4.77,6.37,6.37,0,0,1,4.71-1.73,6.93,6.93,0,0,1,3.48.89,6.06,6.06,0,0,1,2.47,2.71A10.44,10.44,0,0,1,671.85,281.88Zm-6.76-4.73a2.06,2.06,0,0,0-1.63.7,3.24,3.24,0,0,0-.63,2.21,3,3,0,0,0,.55,1.92,2,2,0,0,0,1.66.71,2.23,2.23,0,0,0,1.74-.75,2.29,2.29,0,0,0,.68-1.57,4.62,4.62,0,0,0-.26-1.52,2.92,2.92,0,0,0-.78-1.22A1.89,1.89,0,0,0,665.09,277.15Z"/><path d="M677.94,273.58a4.1,4.1,0,0,1,3.4,1.53,6.62,6.62,0,0,1,1.22,4.27,7.15,7.15,0,0,1-1.14,4.31,4,4,0,0,1-3.48,1.54,4,4,0,0,1-3.33-1.54,6.88,6.88,0,0,1-1.2-4.31,7.13,7.13,0,0,1,1.12-4.27A4,4,0,0,1,677.94,273.58Zm0,2.87c-.4,0-.68.25-.85.75a7.71,7.71,0,0,0-.24,2.21,8.09,8.09,0,0,0,.24,2.24c.17.52.45.78.85.78s.68-.26.84-.78a7.67,7.67,0,0,0,.25-2.24,7.31,7.31,0,0,0-.25-2.21Q678.59,276.45,678,276.45Zm13.57-2.6-10.3,18.56h-3.38l10.3-18.56Zm-.1,7.15a4.1,4.1,0,0,1,3.4,1.52,6.62,6.62,0,0,1,1.22,4.27,7.17,7.17,0,0,1-1.14,4.31,4,4,0,0,1-3.48,1.54,4,4,0,0,1-3.33-1.54,6.9,6.9,0,0,1-1.2-4.31,7.13,7.13,0,0,1,1.12-4.27A3.94,3.94,0,0,1,691.46,281Zm0,2.83c-.4,0-.68.26-.85.78a10.3,10.3,0,0,0,0,4.42c.17.52.45.78.85.78.73,0,1.09-1,1.09-3S692.24,283.83,691.51,283.83Z"/><path class="cls-5" d="M620,424.93H616.7l-5.28-9.18h-.08c.11,1.62.16,2.78.16,3.47v5.71h-2.3V412.79h3.25l5.27,9.09h.06c-.08-1.57-.13-2.69-.13-3.34v-5.75H620Z"/><path class="cls-5" d="M631.26,420.27a5,5,0,0,1-1.2,3.55,4.32,4.32,0,0,1-3.33,1.27,4.63,4.63,0,0,1-2.35-.58,3.87,3.87,0,0,1-1.57-1.68,5.58,5.58,0,0,1-.55-2.56,5,5,0,0,1,1.19-3.53,4.32,4.32,0,0,1,3.33-1.27,4.67,4.67,0,0,1,2.36.59,3.88,3.88,0,0,1,1.57,1.66A5.57,5.57,0,0,1,631.26,420.27Zm-6.42,0a4,4,0,0,0,.45,2.09,1.64,1.64,0,0,0,1.48.7,1.57,1.57,0,0,0,1.45-.7,3.91,3.91,0,0,0,.45-2.09,3.77,3.77,0,0,0-.45-2.06,1.91,1.91,0,0,0-2.93,0A3.83,3.83,0,0,0,624.84,420.27Z"/><path class="cls-5" d="M637.26,423.08a5.61,5.61,0,0,0,1.59-.29v1.88a5.69,5.69,0,0,1-2.32.42,2.85,2.85,0,0,1-2.21-.76,3.31,3.31,0,0,1-.7-2.31v-4.47h-1.21v-1.07l1.4-.85.73-2h1.62v2h2.59v1.9h-2.59V422a1,1,0,0,0,.3.8A1.2,1.2,0,0,0,637.26,423.08Z"/><path class="cls-5" d="M644.93,425.09a4.79,4.79,0,0,1-3.5-1.23,4.66,4.66,0,0,1-1.27-3.51,5.13,5.13,0,0,1,1.17-3.6,4.73,4.73,0,0,1,6.29-.16,4.25,4.25,0,0,1,1.09,3.1v1.23h-6a2.42,2.42,0,0,0,.64,1.68,2.23,2.23,0,0,0,1.67.61,7.38,7.38,0,0,0,1.59-.17,8.42,8.42,0,0,0,1.56-.56v2a5.54,5.54,0,0,1-1.42.49A8.8,8.8,0,0,1,644.93,425.09Zm-.36-7.81a1.61,1.61,0,0,0-1.26.51,2.35,2.35,0,0,0-.52,1.44h3.55a2.07,2.07,0,0,0-.49-1.44A1.65,1.65,0,0,0,644.57,417.28Z"/><path class="cls-5" d="M650.42,416.89a1.4,1.4,0,0,1,.37-1.06,1.51,1.51,0,0,1,1.09-.36,1.47,1.47,0,0,1,1.06.37,1.35,1.35,0,0,1,.38,1.05,1.38,1.38,0,0,1-.39,1,1.46,1.46,0,0,1-1,.37,1.5,1.5,0,0,1-1.08-.37A1.35,1.35,0,0,1,650.42,416.89Zm0,6.85a1.39,1.39,0,0,1,.37-1.05,1.51,1.51,0,0,1,1.09-.36,1.43,1.43,0,0,1,1.06.37,1.35,1.35,0,0,1,.38,1,1.43,1.43,0,0,1-.38,1,1.73,1.73,0,0,1-2.14,0A1.35,1.35,0,0,1,650.42,423.74Z"/><path class="cls-5" d="M667.87,424.93h-8.48v-1.79l3-3.08a23.53,23.53,0,0,0,1.77-1.92,3.85,3.85,0,0,0,.6-1,2.55,2.55,0,0,0,.18-.95,1.37,1.37,0,0,0-.4-1.08,1.56,1.56,0,0,0-1.07-.36,3.16,3.16,0,0,0-1.37.32,7.4,7.4,0,0,0-1.39.92l-1.39-1.65a8.84,8.84,0,0,1,1.48-1.08,5.21,5.21,0,0,1,1.29-.48,6.71,6.71,0,0,1,1.56-.17,4.71,4.71,0,0,1,2,.41,3.22,3.22,0,0,1,1.35,1.17,3.06,3.06,0,0,1,.48,1.71,4.33,4.33,0,0,1-.29,1.57,6.06,6.06,0,0,1-.92,1.51,22.24,22.24,0,0,1-2.17,2.19l-1.57,1.47v.12h5.29Z"/><path class="cls-5" d="M677.53,418.86a8.42,8.42,0,0,1-1,4.71,4.06,4.06,0,0,1-6.37-.05,8.36,8.36,0,0,1-1.07-4.66,8.58,8.58,0,0,1,1-4.74,3.61,3.61,0,0,1,3.2-1.52,3.57,3.57,0,0,1,3.17,1.6A8.29,8.29,0,0,1,677.53,418.86Zm-5.94,0a9.33,9.33,0,0,0,.39,3.2,1.33,1.33,0,0,0,1.3,1,1.36,1.36,0,0,0,1.29-1,9.08,9.08,0,0,0,.4-3.19,9.38,9.38,0,0,0-.4-3.21,1.35,1.35,0,0,0-1.29-1,1.34,1.34,0,0,0-1.3,1A9.43,9.43,0,0,0,671.59,418.86Z"/><path class="cls-5" d="M685.17,424.93h-2.56v-7l0-1.16,0-1.26a10.12,10.12,0,0,1-.89.84l-1.39,1.12-1.24-1.54,3.91-3.12h2.11Z"/><path class="cls-5" d="M697,418a8.09,8.09,0,0,1-1.51,5.36,5.69,5.69,0,0,1-4.57,1.76,8.53,8.53,0,0,1-1.64-.11v-2.06a5.89,5.89,0,0,0,1.46.17,5.17,5.17,0,0,0,2.12-.37,2.71,2.71,0,0,0,1.27-1.19,5.35,5.35,0,0,0,.51-2.23h-.1a2.84,2.84,0,0,1-1.11,1.1,3.53,3.53,0,0,1-1.58.31,3.21,3.21,0,0,1-2.5-1,4.08,4.08,0,0,1-.91-2.83,4.2,4.2,0,0,1,1.11-3.08,4,4,0,0,1,3-1.14,4.38,4.38,0,0,1,2.36.63,4,4,0,0,1,1.54,1.83A7,7,0,0,1,697,418Zm-4.39-3.26a1.5,1.5,0,0,0-1.24.55,2.41,2.41,0,0,0-.45,1.57,2.14,2.14,0,0,0,.41,1.4,1.48,1.48,0,0,0,1.23.52,1.92,1.92,0,0,0,1.34-.52,1.56,1.56,0,0,0,.56-1.17,2.7,2.7,0,0,0-.52-1.67A1.62,1.62,0,0,0,692.59,414.71Z"/><path class="cls-5" d="M706.27,425.09a3,3,0,0,1-2.57-1.26,7.14,7.14,0,0,1,0-7.08,3.09,3.09,0,0,1,2.62-1.28,3,3,0,0,1,2.67,1.36h.08a11,11,0,0,1-.19-1.85v-3h2.54v12.92H709.5l-.49-1.2h-.11A2.89,2.89,0,0,1,706.27,425.09Zm.89-2a1.69,1.69,0,0,0,1.42-.57,3.2,3.2,0,0,0,.5-1.91v-.28a3.86,3.86,0,0,0-.46-2.14,1.73,1.73,0,0,0-1.5-.65,1.49,1.49,0,0,0-1.32.72,3.85,3.85,0,0,0-.47,2.09,3.57,3.57,0,0,0,.48,2.05A1.53,1.53,0,0,0,707.16,423.08Z"/><path class="cls-5" d="M720,424.93l-.49-1.26h-.07a3.76,3.76,0,0,1-1.32,1.11,4.21,4.21,0,0,1-1.76.31,2.84,2.84,0,0,1-2.1-.76,2.89,2.89,0,0,1-.77-2.17,2.44,2.44,0,0,1,1-2.18,6,6,0,0,1,3.12-.78l1.61-.05v-.4a1.27,1.27,0,0,0-1.45-1.42,6.56,6.56,0,0,0-2.61.68l-.84-1.71a7.53,7.53,0,0,1,3.55-.84,4.46,4.46,0,0,1,2.87.81,3,3,0,0,1,1,2.48v6.18Zm-.75-4.3-1,0a3.1,3.1,0,0,0-1.64.4,1.24,1.24,0,0,0-.54,1.11c0,.72.41,1.07,1.22,1.07a1.93,1.93,0,0,0,1.41-.5,1.8,1.8,0,0,0,.53-1.35Z"/><path class="cls-5" d="M728.27,423.08a5.61,5.61,0,0,0,1.59-.29v1.88a5.69,5.69,0,0,1-2.32.42,2.85,2.85,0,0,1-2.21-.76,3.31,3.31,0,0,1-.7-2.31v-4.47h-1.21v-1.07l1.4-.85.73-2h1.62v2h2.59v1.9h-2.59V422a1,1,0,0,0,.3.8A1.2,1.2,0,0,0,728.27,423.08Z"/><path class="cls-5" d="M737.63,424.93l-.49-1.26h-.06a3.76,3.76,0,0,1-1.32,1.11,4.21,4.21,0,0,1-1.76.31,2.86,2.86,0,0,1-2.11-.76,2.93,2.93,0,0,1-.77-2.17,2.45,2.45,0,0,1,1-2.18,6,6,0,0,1,3.11-.78l1.61-.05v-.4a1.26,1.26,0,0,0-1.44-1.42,6.56,6.56,0,0,0-2.61.68L732,416.3a7.53,7.53,0,0,1,3.55-.84,4.41,4.41,0,0,1,2.86.81,3,3,0,0,1,1,2.48v6.18Zm-.75-4.3-1,0a3.16,3.16,0,0,0-1.65.4,1.24,1.24,0,0,0-.54,1.11c0,.72.41,1.07,1.23,1.07a1.93,1.93,0,0,0,1.41-.5,1.79,1.79,0,0,0,.52-1.35Z"/><path class="cls-5" d="M72.39,411l-.34,3.06,3.1-.87.27,2.1-2.82.2L74.45,418l-1.89,1-1.29-2.59L70.13,419l-2-1L70,415.5l-2.81-.22.33-2.08,3,.87L70.21,411Z"/><path class="cls-5" d="M84.9,423.93,84,421H79.59l-.88,2.89H75.94l4.29-12.19h3.14l4.3,12.19Zm-1.49-5.05Q82.18,415,82,414.44c-.1-.34-.17-.61-.22-.81q-.27,1.06-1.57,5.25Z"/><path class="cls-5" d="M94.13,416.55H91.94v7.38H89.41v-7.38H88v-1.22l1.4-.68V414a3.05,3.05,0,0,1,.78-2.32,3.61,3.61,0,0,1,2.5-.73,6.5,6.5,0,0,1,2.33.39l-.65,1.86a4.74,4.74,0,0,0-1.41-.24.92.92,0,0,0-.78.32,1.33,1.33,0,0,0-.24.82v.58h2.19Z"/><path class="cls-5" d="M100.76,414.47a4.12,4.12,0,0,1,.86.08l-.19,2.37a3.25,3.25,0,0,0-.75-.08,2.71,2.71,0,0,0-1.89.62,2.27,2.27,0,0,0-.68,1.75v4.72H95.58v-9.28H97.5l.37,1.56H98A3.51,3.51,0,0,1,99.16,415,2.88,2.88,0,0,1,100.76,414.47Z"/><path class="cls-5" d="M103.19,412.25c0-.83.46-1.24,1.38-1.24s1.38.41,1.38,1.24a1.25,1.25,0,0,1-.34.92,1.46,1.46,0,0,1-1,.33C103.65,413.5,103.19,413.08,103.19,412.25Zm2.64,11.68H103.3v-9.28h2.53Z"/><path class="cls-5" d="M112.26,424.09q-4.33,0-4.33-4.75a5.12,5.12,0,0,1,1.17-3.62,4.45,4.45,0,0,1,3.38-1.25,6.43,6.43,0,0,1,2.89.63l-.75,2a10.64,10.64,0,0,0-1.11-.39,3.62,3.62,0,0,0-1-.15c-1.31,0-2,.93-2,2.8s.66,2.72,2,2.72a4.56,4.56,0,0,0,1.36-.19,4.75,4.75,0,0,0,1.24-.61v2.17a4.07,4.07,0,0,1-1.24.54A7.63,7.63,0,0,1,112.26,424.09Z"/><path class="cls-5" d="M123.12,423.93l-.49-1.26h-.06a3.76,3.76,0,0,1-1.32,1.11,4.21,4.21,0,0,1-1.76.31,2.87,2.87,0,0,1-2.11-.76,2.93,2.93,0,0,1-.76-2.17,2.44,2.44,0,0,1,1-2.18,6,6,0,0,1,3.12-.78l1.61-.05v-.4a1.27,1.27,0,0,0-1.45-1.42,6.56,6.56,0,0,0-2.61.68l-.84-1.71a7.53,7.53,0,0,1,3.55-.84,4.46,4.46,0,0,1,2.87.81,3,3,0,0,1,1,2.48v6.18Zm-.74-4.3-1,0a3.16,3.16,0,0,0-1.65.4,1.24,1.24,0,0,0-.54,1.11c0,.72.41,1.07,1.23,1.07a1.93,1.93,0,0,0,1.41-.5,1.8,1.8,0,0,0,.53-1.35Z"/><path class="cls-5" d="M136.06,423.93h-2.53v-5.42a2.69,2.69,0,0,0-.35-1.51,1.32,1.32,0,0,0-1.14-.5,1.73,1.73,0,0,0-1.54.71,4.45,4.45,0,0,0-.47,2.35v4.37H127.5v-9.28h1.93l.34,1.18h.14a2.74,2.74,0,0,1,1.17-1,4,4,0,0,1,1.69-.35,3.27,3.27,0,0,1,2.46.88,3.51,3.51,0,0,1,.83,2.53Z"/><path class="cls-5" d="M150.72,423.93l-.89-2.89h-4.42l-.88,2.89h-2.77L146,411.74h3.15l4.3,12.19Zm-1.5-5.05c-.81-2.62-1.27-4.1-1.37-4.44s-.18-.61-.22-.81q-.28,1.06-1.57,5.25Z"/><path class="cls-5" d="M163.12,423.93h-2.53v-5.42a2.8,2.8,0,0,0-.33-1.51,1.2,1.2,0,0,0-1.06-.5,1.53,1.53,0,0,0-1.41.71,4.73,4.73,0,0,0-.44,2.35v4.37h-2.53v-9.28h1.93l.34,1.18h.14a2.68,2.68,0,0,1,1.08-1,3.51,3.51,0,0,1,1.62-.36,2.92,2.92,0,0,1,2.82,1.36H163a2.44,2.44,0,0,1,1.1-1,3.62,3.62,0,0,1,1.63-.36,3.23,3.23,0,0,1,2.39.81,3.57,3.57,0,0,1,.81,2.6v6.05h-2.54v-5.42A2.8,2.8,0,0,0,166,417a1.2,1.2,0,0,0-1.06-.5,1.57,1.57,0,0,0-1.39.66,3.76,3.76,0,0,0-.47,2.11Z"/><path class="cls-5" d="M175.71,424.09a4.8,4.8,0,0,1-3.5-1.23,4.7,4.7,0,0,1-1.26-3.51,5.13,5.13,0,0,1,1.16-3.6,4.16,4.16,0,0,1,3.23-1.28,4.11,4.11,0,0,1,3.06,1.12,4.25,4.25,0,0,1,1.1,3.1v1.23h-6a2.42,2.42,0,0,0,.64,1.68,2.24,2.24,0,0,0,1.68.61,7.36,7.36,0,0,0,1.58-.17,8.42,8.42,0,0,0,1.56-.56v2a5.54,5.54,0,0,1-1.42.49A8.8,8.8,0,0,1,175.71,424.09Zm-.36-7.81a1.62,1.62,0,0,0-1.26.51,2.35,2.35,0,0,0-.52,1.44h3.55a2.07,2.07,0,0,0-.49-1.44A1.65,1.65,0,0,0,175.35,416.28Z"/><path class="cls-5" d="M186.73,414.47a4.05,4.05,0,0,1,.86.08l-.19,2.37a3.25,3.25,0,0,0-.75-.08,2.71,2.71,0,0,0-1.89.62,2.27,2.27,0,0,0-.68,1.75v4.72h-2.53v-9.28h1.92l.37,1.56H184a3.54,3.54,0,0,1,1.17-1.26A2.83,2.83,0,0,1,186.73,414.47Z"/><path class="cls-5" d="M189.17,412.25c0-.83.45-1.24,1.37-1.24s1.38.41,1.38,1.24a1.21,1.21,0,0,1-.34.92,1.46,1.46,0,0,1-1,.33C189.62,413.5,189.17,413.08,189.17,412.25Zm2.63,11.68h-2.53v-9.28h2.53Z"/><path class="cls-5" d="M198.23,424.09q-4.33,0-4.33-4.75a5.08,5.08,0,0,1,1.18-3.62,4.41,4.41,0,0,1,3.37-1.25,6.43,6.43,0,0,1,2.89.63l-.74,2a11.64,11.64,0,0,0-1.12-.39,3.62,3.62,0,0,0-1-.15c-1.31,0-2,.93-2,2.8s.66,2.72,2,2.72a4.56,4.56,0,0,0,1.36-.19,4.75,4.75,0,0,0,1.24-.61v2.17a4.07,4.07,0,0,1-1.24.54A7.63,7.63,0,0,1,198.23,424.09Z"/><path class="cls-5" d="M209.09,423.93l-.48-1.26h-.07a3.76,3.76,0,0,1-1.32,1.11,4.21,4.21,0,0,1-1.76.31,2.87,2.87,0,0,1-2.11-.76,2.93,2.93,0,0,1-.76-2.17,2.44,2.44,0,0,1,1-2.18,6,6,0,0,1,3.12-.78l1.61-.05v-.4a1.27,1.27,0,0,0-1.45-1.42,6.56,6.56,0,0,0-2.61.68l-.84-1.71a7.53,7.53,0,0,1,3.55-.84,4.46,4.46,0,0,1,2.87.81,3,3,0,0,1,1,2.48v6.18Zm-.74-4.3-1,0a3.16,3.16,0,0,0-1.65.4,1.26,1.26,0,0,0-.53,1.11c0,.72.4,1.07,1.22,1.07a1.93,1.93,0,0,0,1.41-.5,1.8,1.8,0,0,0,.53-1.35Z"/><path class="cls-5" d="M222,423.93H219.5v-5.42a2.69,2.69,0,0,0-.35-1.51,1.32,1.32,0,0,0-1.14-.5,1.73,1.73,0,0,0-1.54.71,4.45,4.45,0,0,0-.47,2.35v4.37h-2.53v-9.28h1.93l.34,1.18h.14a2.8,2.8,0,0,1,1.17-1,4,4,0,0,1,1.69-.35,3.27,3.27,0,0,1,2.46.88,3.51,3.51,0,0,1,.84,2.53Z"/><path class="cls-5" d="M227.12,422.14a24.41,24.41,0,0,1-1.46,4h-1.82c.36-1.47.64-2.86.83-4.17H227Z"/><path class="cls-5" d="M241.53,423.93l-.88-2.89h-4.42l-.88,2.89h-2.77l4.28-12.19H240l4.3,12.19ZM240,418.88c-.81-2.62-1.27-4.1-1.37-4.44a7.47,7.47,0,0,1-.22-.81q-.28,1.06-1.57,5.25Z"/><path class="cls-5" d="M252.11,421.17a2.57,2.57,0,0,1-1,2.18,4.89,4.89,0,0,1-3,.74,9.53,9.53,0,0,1-1.73-.13,6.86,6.86,0,0,1-1.33-.4v-2.1a9,9,0,0,0,1.59.56,6.39,6.39,0,0,0,1.55.22c.92,0,1.38-.26,1.38-.79a.69.69,0,0,0-.18-.49,2.8,2.8,0,0,0-.63-.42c-.3-.16-.7-.34-1.2-.55a7.73,7.73,0,0,1-1.57-.83,2.31,2.31,0,0,1-.73-.88,2.92,2.92,0,0,1-.23-1.22,2.2,2.2,0,0,1,1-1.91,4.67,4.67,0,0,1,2.72-.68,7.82,7.82,0,0,1,3.26.73l-.76,1.83c-.47-.2-.9-.36-1.31-.49a4,4,0,0,0-1.23-.19c-.75,0-1.12.2-1.12.61a.73.73,0,0,0,.36.59,9.65,9.65,0,0,0,1.58.73,7.5,7.5,0,0,1,1.59.83,2.32,2.32,0,0,1,.75.88A2.67,2.67,0,0,1,252.11,421.17Z"/><path class="cls-5" d="M254,412.25c0-.83.46-1.24,1.37-1.24s1.38.41,1.38,1.24a1.21,1.21,0,0,1-.34.92,1.46,1.46,0,0,1-1,.33C254.44,413.5,254,413.08,254,412.25Zm2.64,11.68h-2.54v-9.28h2.54Z"/><path class="cls-5" d="M265.17,423.93l-.49-1.26h-.07a3.67,3.67,0,0,1-1.32,1.11,4.18,4.18,0,0,1-1.76.31,2.84,2.84,0,0,1-2.1-.76,2.93,2.93,0,0,1-.77-2.17,2.44,2.44,0,0,1,1-2.18,6,6,0,0,1,3.12-.78l1.61-.05v-.4a1.26,1.26,0,0,0-1.44-1.42,6.56,6.56,0,0,0-2.62.68l-.84-1.71a7.54,7.54,0,0,1,3.56-.84,4.43,4.43,0,0,1,2.86.81,3,3,0,0,1,1,2.48v6.18Zm-.75-4.3-1,0a3.12,3.12,0,0,0-1.64.4,1.24,1.24,0,0,0-.54,1.11c0,.72.41,1.07,1.23,1.07a1.92,1.92,0,0,0,1.4-.5,1.8,1.8,0,0,0,.53-1.35Z"/><path class="cls-5" d="M278.11,423.93h-2.53v-5.42a2.61,2.61,0,0,0-.36-1.51,1.32,1.32,0,0,0-1.14-.5,1.7,1.7,0,0,0-1.53.71,4.34,4.34,0,0,0-.48,2.35v4.37h-2.53v-9.28h1.93l.35,1.18H272a2.72,2.72,0,0,1,1.16-1,4,4,0,0,1,1.69-.35,3.27,3.27,0,0,1,2.46.88,3.51,3.51,0,0,1,.84,2.53Z"/><path class="cls-5" d="M292.76,423.93l-.88-2.89h-4.43l-.88,2.89H283.8l4.28-12.19h3.15l4.3,12.19Zm-1.5-5.05c-.81-2.62-1.27-4.1-1.37-4.44s-.18-.61-.22-.81c-.18.71-.71,2.46-1.57,5.25Z"/><path class="cls-5" d="M305.17,423.93h-2.53v-5.42a2.79,2.79,0,0,0-.34-1.51,1.19,1.19,0,0,0-1.06-.5,1.53,1.53,0,0,0-1.41.71,4.73,4.73,0,0,0-.44,2.35v4.37h-2.53v-9.28h1.93l.34,1.18h.15a2.59,2.59,0,0,1,1.07-1,3.51,3.51,0,0,1,1.62-.36,2.92,2.92,0,0,1,2.82,1.36H305a2.49,2.49,0,0,1,1.1-1,3.63,3.63,0,0,1,1.64-.36,3.21,3.21,0,0,1,2.38.81,3.57,3.57,0,0,1,.81,2.6v6.05h-2.54v-5.42a2.8,2.8,0,0,0-.33-1.51,1.2,1.2,0,0,0-1.06-.5,1.58,1.58,0,0,0-1.39.66,3.77,3.77,0,0,0-.46,2.11Z"/><path class="cls-5" d="M317.75,424.09a4.8,4.8,0,0,1-3.5-1.23,4.7,4.7,0,0,1-1.26-3.51,5.18,5.18,0,0,1,1.16-3.6,4.17,4.17,0,0,1,3.23-1.28,4.11,4.11,0,0,1,3.06,1.12,4.25,4.25,0,0,1,1.1,3.1v1.23h-6a2.42,2.42,0,0,0,.64,1.68,2.24,2.24,0,0,0,1.68.61,7.38,7.38,0,0,0,1.59-.17,9,9,0,0,0,1.56-.56v2a5.82,5.82,0,0,1-1.42.49A8.9,8.9,0,0,1,317.75,424.09Zm-.35-7.81a1.63,1.63,0,0,0-1.27.51,2.41,2.41,0,0,0-.52,1.44h3.55a2.07,2.07,0,0,0-.49-1.44A1.64,1.64,0,0,0,317.4,416.28Z"/><path class="cls-5" d="M328.78,414.47a4,4,0,0,1,.85.08l-.19,2.37a3.13,3.13,0,0,0-.75-.08,2.74,2.74,0,0,0-1.89.62,2.27,2.27,0,0,0-.67,1.75v4.72H323.6v-9.28h1.91l.38,1.56H326a3.54,3.54,0,0,1,1.17-1.26A2.86,2.86,0,0,1,328.78,414.47Z"/><path class="cls-5" d="M331.21,412.25c0-.83.46-1.24,1.38-1.24s1.37.41,1.37,1.24a1.21,1.21,0,0,1-.34.92,1.43,1.43,0,0,1-1,.33C331.67,413.5,331.21,413.08,331.21,412.25Zm2.64,11.68h-2.53v-9.28h2.53Z"/><path class="cls-5" d="M340.27,424.09q-4.33,0-4.33-4.75a5.08,5.08,0,0,1,1.18-3.62,4.42,4.42,0,0,1,3.38-1.25,6.41,6.41,0,0,1,2.88.63l-.74,2q-.6-.24-1.11-.39a3.72,3.72,0,0,0-1-.15c-1.32,0-2,.93-2,2.8s.66,2.72,2,2.72a4.54,4.54,0,0,0,1.35-.19,4.75,4.75,0,0,0,1.24-.61v2.17a4,4,0,0,1-1.24.54A7.57,7.57,0,0,1,340.27,424.09Z"/><path class="cls-5" d="M351.14,423.93l-.49-1.26h-.07a3.65,3.65,0,0,1-1.31,1.11,4.26,4.26,0,0,1-1.77.31,2.84,2.84,0,0,1-2.1-.76,2.93,2.93,0,0,1-.77-2.17,2.44,2.44,0,0,1,1-2.18,6,6,0,0,1,3.12-.78l1.61-.05v-.4a1.26,1.26,0,0,0-1.44-1.42,6.6,6.6,0,0,0-2.62.68l-.84-1.71a7.57,7.57,0,0,1,3.56-.84,4.43,4.43,0,0,1,2.86.81,3,3,0,0,1,1,2.48v6.18Zm-.75-4.3-1,0a3.12,3.12,0,0,0-1.64.4,1.24,1.24,0,0,0-.54,1.11c0,.72.41,1.07,1.23,1.07a1.92,1.92,0,0,0,1.4-.5,1.8,1.8,0,0,0,.53-1.35Z"/><path class="cls-5" d="M364.08,423.93h-2.53v-5.42a2.61,2.61,0,0,0-.36-1.51,1.32,1.32,0,0,0-1.14-.5,1.7,1.7,0,0,0-1.53.71,4.34,4.34,0,0,0-.48,2.35v4.37h-2.53v-9.28h1.94l.34,1.18h.14a2.72,2.72,0,0,1,1.16-1,4,4,0,0,1,1.69-.35,3.27,3.27,0,0,1,2.46.88,3.51,3.51,0,0,1,.84,2.53Z"/><path class="cls-5" d="M369.17,422.14a26.45,26.45,0,0,1-1.46,4h-1.83q.54-2.21.84-4.17H369Z"/><path class="cls-5" d="M384.53,415.58a3.75,3.75,0,0,1-1.22,3,5.25,5.25,0,0,1-3.48,1h-1.11v4.32h-2.57V411.79H380a5.16,5.16,0,0,1,3.36.95A3.47,3.47,0,0,1,384.53,415.58Zm-5.81,1.92h.85a2.82,2.82,0,0,0,1.77-.46,1.64,1.64,0,0,0,.59-1.37,1.69,1.69,0,0,0-.49-1.34,2.31,2.31,0,0,0-1.55-.43h-1.17Z"/><path class="cls-5" d="M392.52,423.93l-.49-1.26H392a3.67,3.67,0,0,1-1.32,1.11,4.18,4.18,0,0,1-1.76.31,2.84,2.84,0,0,1-2.1-.76,2.89,2.89,0,0,1-.77-2.17,2.44,2.44,0,0,1,1-2.18,6,6,0,0,1,3.12-.78l1.61-.05v-.4a1.26,1.26,0,0,0-1.44-1.42,6.56,6.56,0,0,0-2.62.68l-.84-1.71a7.53,7.53,0,0,1,3.55-.84,4.46,4.46,0,0,1,2.87.81,3,3,0,0,1,1,2.48v6.18Zm-.75-4.3-1,0a3.12,3.12,0,0,0-1.64.4,1.24,1.24,0,0,0-.54,1.11c0,.72.41,1.07,1.23,1.07a1.92,1.92,0,0,0,1.4-.5,1.8,1.8,0,0,0,.53-1.35Z"/><path class="cls-5" d="M400.66,424.09q-4.34,0-4.33-4.75a5.12,5.12,0,0,1,1.17-3.62,4.45,4.45,0,0,1,3.38-1.25,6.43,6.43,0,0,1,2.89.63l-.74,2a11.64,11.64,0,0,0-1.12-.39,3.62,3.62,0,0,0-1-.15c-1.31,0-2,.93-2,2.8s.66,2.72,2,2.72a4.56,4.56,0,0,0,1.36-.19,4.75,4.75,0,0,0,1.24-.61v2.17a4.07,4.07,0,0,1-1.24.54A7.63,7.63,0,0,1,400.66,424.09Z"/><path class="cls-5" d="M405.52,412.25c0-.83.46-1.24,1.38-1.24s1.38.41,1.38,1.24a1.22,1.22,0,0,1-.35.92,1.42,1.42,0,0,1-1,.33C406,413.5,405.52,413.08,405.52,412.25Zm2.64,11.68h-2.53v-9.28h2.53Z"/><path class="cls-5" d="M416,416.55h-2.19v7.38h-2.54v-7.38h-1.39v-1.22l1.39-.68V414a3.05,3.05,0,0,1,.79-2.32,3.59,3.59,0,0,1,2.49-.73,6.52,6.52,0,0,1,2.34.39l-.65,1.86a4.74,4.74,0,0,0-1.41-.24.92.92,0,0,0-.78.32,1.33,1.33,0,0,0-.24.82v.58H416Z"/><path class="cls-5" d="M417.29,412.25c0-.83.46-1.24,1.38-1.24s1.38.41,1.38,1.24a1.22,1.22,0,0,1-.35.92,1.43,1.43,0,0,1-1,.33C417.75,413.5,417.29,413.08,417.29,412.25Zm2.64,11.68H417.4v-9.28h2.53Z"/><path class="cls-5" d="M426.36,424.09q-4.33,0-4.34-4.75a5.12,5.12,0,0,1,1.18-3.62,4.44,4.44,0,0,1,3.38-1.25,6.46,6.46,0,0,1,2.89.63l-.75,2q-.6-.24-1.11-.39a3.67,3.67,0,0,0-1-.15c-1.32,0-2,.93-2,2.8s.65,2.72,2,2.72a4.45,4.45,0,0,0,1.35-.19,4.8,4.8,0,0,0,1.25-.61v2.17a4.07,4.07,0,0,1-1.24.54A7.7,7.7,0,0,1,426.36,424.09Z"/><path class="cls-5" d="M440.48,423.93H435v-1.46l1.48-.68v-7.86l-1.48-.68v-1.46h5.52v1.46l-1.47.68v7.86l1.47.68Z"/><path class="cls-5" d="M448.83,421.17a2.57,2.57,0,0,1-1,2.18,4.88,4.88,0,0,1-3,.74,9.46,9.46,0,0,1-1.73-.13,7,7,0,0,1-1.34-.4v-2.1a9,9,0,0,0,1.59.56,6.4,6.4,0,0,0,1.56.22c.92,0,1.38-.26,1.38-.79a.7.7,0,0,0-.19-.49,2.8,2.8,0,0,0-.63-.42c-.3-.16-.7-.34-1.19-.55a7.86,7.86,0,0,1-1.58-.83,2.51,2.51,0,0,1-.73-.88,2.92,2.92,0,0,1-.23-1.22,2.2,2.2,0,0,1,1-1.91,4.69,4.69,0,0,1,2.72-.68,7.78,7.78,0,0,1,3.26.73L448,417c-.46-.2-.9-.36-1.3-.49a4.06,4.06,0,0,0-1.24-.19c-.75,0-1.12.2-1.12.61a.73.73,0,0,0,.36.59,10.1,10.1,0,0,0,1.58.73,7.37,7.37,0,0,1,1.6.83,2.38,2.38,0,0,1,.74.88A2.67,2.67,0,0,1,448.83,421.17Z"/><path class="cls-5" d="M453.34,423.93h-2.53V411h2.53Z"/><path class="cls-5" d="M461.89,423.93l-.49-1.26h-.06a3.76,3.76,0,0,1-1.32,1.11,4.21,4.21,0,0,1-1.76.31,2.86,2.86,0,0,1-2.11-.76,2.93,2.93,0,0,1-.77-2.17,2.45,2.45,0,0,1,1-2.18,6,6,0,0,1,3.11-.78l1.61-.05v-.4a1.26,1.26,0,0,0-1.44-1.42,6.56,6.56,0,0,0-2.61.68l-.84-1.71a7.53,7.53,0,0,1,3.55-.84,4.43,4.43,0,0,1,2.86.81,3,3,0,0,1,1,2.48v6.18Zm-.75-4.3-1,0a3.16,3.16,0,0,0-1.65.4,1.24,1.24,0,0,0-.54,1.11c0,.72.41,1.07,1.23,1.07a1.93,1.93,0,0,0,1.41-.5,1.79,1.79,0,0,0,.52-1.35Z"/><path class="cls-5" d="M474.83,423.93H472.3v-5.42a2.61,2.61,0,0,0-.36-1.51,1.29,1.29,0,0,0-1.13-.5,1.73,1.73,0,0,0-1.54.71,4.45,4.45,0,0,0-.47,2.35v4.37h-2.53v-9.28h1.93l.34,1.18h.14a2.69,2.69,0,0,1,1.17-1,4,4,0,0,1,1.69-.35,3.25,3.25,0,0,1,2.45.88,3.51,3.51,0,0,1,.84,2.53Z"/><path class="cls-5" d="M480.38,424.09a3,3,0,0,1-2.57-1.26,7.1,7.1,0,0,1,0-7.08,3.1,3.1,0,0,1,2.62-1.28,3.06,3.06,0,0,1,2.68,1.36h.08A10,10,0,0,1,483,414v-3h2.54v12.92h-1.94l-.49-1.2H483A2.9,2.9,0,0,1,480.38,424.09Zm.88-2a1.72,1.72,0,0,0,1.43-.57,3.2,3.2,0,0,0,.49-1.91v-.28a3.78,3.78,0,0,0-.46-2.14,1.7,1.7,0,0,0-1.5-.65,1.48,1.48,0,0,0-1.31.72,3.85,3.85,0,0,0-.47,2.09,3.65,3.65,0,0,0,.47,2.05A1.55,1.55,0,0,0,481.26,422.08Z"/><path class="cls-5" d="M492.4,424.09a4.81,4.81,0,0,1-3.51-1.23,4.7,4.7,0,0,1-1.26-3.51,5.13,5.13,0,0,1,1.17-3.6,4.73,4.73,0,0,1,6.29-.16,4.25,4.25,0,0,1,1.09,3.1v1.23h-6a2.37,2.37,0,0,0,.64,1.68,2.2,2.2,0,0,0,1.67.61,7.38,7.38,0,0,0,1.59-.17,8.42,8.42,0,0,0,1.56-.56v2a5.68,5.68,0,0,1-1.42.49A8.8,8.8,0,0,1,492.4,424.09Zm-.36-7.81a1.59,1.59,0,0,0-1.26.51,2.35,2.35,0,0,0-.53,1.44h3.56a2.12,2.12,0,0,0-.49-1.44A1.66,1.66,0,0,0,492,416.28Z"/><path class="cls-5" d="M503.42,414.47a4.12,4.12,0,0,1,.86.08l-.2,2.37a3.1,3.1,0,0,0-.74-.08,2.71,2.71,0,0,0-1.89.62,2.27,2.27,0,0,0-.68,1.75v4.72h-2.53v-9.28h1.92l.37,1.56h.13a3.43,3.43,0,0,1,1.16-1.26A2.86,2.86,0,0,1,503.42,414.47Z"/><path class="cls-5" d="M508.44,422.14a25.39,25.39,0,0,1-1.46,4h-1.82c.35-1.47.63-2.86.83-4.17h2.33Z"/><path class="cls-5" d="M87,444.33H84.42v-5.24H79.61v5.24H77V432.19h2.57V437h4.81v-4.76H87Z"/><path class="cls-5" d="M89.74,432.65c0-.82.46-1.24,1.38-1.24s1.37.42,1.37,1.24a1.21,1.21,0,0,1-.34.92,1.43,1.43,0,0,1-1,.33C90.2,433.9,89.74,433.48,89.74,432.65Zm2.64,11.68H89.85v-9.28h2.53Z"/><path class="cls-5" d="M101.51,441.57a2.56,2.56,0,0,1-1,2.18,4.91,4.91,0,0,1-3,.75,9.44,9.44,0,0,1-1.73-.14,6.86,6.86,0,0,1-1.33-.4v-2.1a9,9,0,0,0,1.59.56,6.27,6.27,0,0,0,1.55.22c.92,0,1.38-.26,1.38-.79a.69.69,0,0,0-.18-.49,3.06,3.06,0,0,0-.63-.42c-.3-.16-.7-.34-1.2-.55a7.73,7.73,0,0,1-1.57-.83,2.31,2.31,0,0,1-.73-.88,2.77,2.77,0,0,1-.23-1.22,2.2,2.2,0,0,1,1-1.91,4.67,4.67,0,0,1,2.72-.68,7.85,7.85,0,0,1,3.26.73l-.77,1.83a13.43,13.43,0,0,0-1.3-.49,4,4,0,0,0-1.24-.19c-.74,0-1.12.2-1.12.61a.73.73,0,0,0,.36.59,10.37,10.37,0,0,0,1.59.73,7.5,7.5,0,0,1,1.59.83,2.32,2.32,0,0,1,.75.88A2.67,2.67,0,0,1,101.51,441.57Z"/><path class="cls-5" d="M108.58,444.5a3.09,3.09,0,0,1-2.57-1.19h-.13c.09.77.13,1.22.13,1.34v3.76h-2.53V435.05h2.06l.36,1.2H106a2.94,2.94,0,0,1,2.64-1.38,3,3,0,0,1,2.57,1.27,5.9,5.9,0,0,1,.93,3.53,7,7,0,0,1-.44,2.58,3.59,3.59,0,0,1-1.24,1.67A3.19,3.19,0,0,1,108.58,444.5Zm-.75-7.6a1.6,1.6,0,0,0-1.37.58,3.43,3.43,0,0,0-.45,1.9v.28a3.87,3.87,0,0,0,.45,2.14,1.57,1.57,0,0,0,1.41.64c1.13,0,1.7-.93,1.7-2.8a4,4,0,0,0-.42-2.06A1.45,1.45,0,0,0,107.83,436.9Z"/><path class="cls-5" d="M120.13,444.33l-.48-1.26h-.07a3.76,3.76,0,0,1-1.32,1.11,4.19,4.19,0,0,1-1.76.32,2.88,2.88,0,0,1-2.11-.77,2.93,2.93,0,0,1-.76-2.17,2.44,2.44,0,0,1,1-2.18,6,6,0,0,1,3.12-.78l1.61-.05v-.4a1.27,1.27,0,0,0-1.45-1.42,6.56,6.56,0,0,0-2.61.68l-.84-1.71a7.53,7.53,0,0,1,3.55-.84,4.46,4.46,0,0,1,2.87.81,3,3,0,0,1,1,2.48v6.18Zm-.74-4.3-1,0a3.16,3.16,0,0,0-1.65.4,1.27,1.27,0,0,0-.53,1.11c0,.72.4,1.07,1.22,1.07a1.93,1.93,0,0,0,1.41-.5,1.8,1.8,0,0,0,.53-1.35Z"/><path class="cls-5" d="M133.08,444.33h-2.54v-5.42a2.61,2.61,0,0,0-.35-1.51,1.32,1.32,0,0,0-1.14-.5,1.73,1.73,0,0,0-1.54.71A4.45,4.45,0,0,0,127,440v4.37h-2.53v-9.28h1.93l.34,1.19h.15a2.67,2.67,0,0,1,1.16-1,4,4,0,0,1,1.69-.35,3.27,3.27,0,0,1,2.46.88,3.51,3.51,0,0,1,.84,2.53Z"/><path class="cls-5" d="M135.58,432.65c0-.82.45-1.24,1.37-1.24s1.38.42,1.38,1.24a1.21,1.21,0,0,1-.34.92,1.46,1.46,0,0,1-1,.33C136,433.9,135.58,433.48,135.58,432.65Zm2.63,11.68h-2.53v-9.28h2.53Z"/><path class="cls-5" d="M144.64,444.5q-4.33,0-4.33-4.76a5.08,5.08,0,0,1,1.18-3.62,4.41,4.41,0,0,1,3.37-1.25,6.43,6.43,0,0,1,2.89.63l-.74,2a11.64,11.64,0,0,0-1.12-.39,3.62,3.62,0,0,0-1-.15c-1.31,0-2,.93-2,2.8s.66,2.72,2,2.72a4.56,4.56,0,0,0,1.36-.19,4.75,4.75,0,0,0,1.24-.61v2.17a4.07,4.07,0,0,1-1.24.54A6.93,6.93,0,0,1,144.64,444.5Z"/><path class="cls-5" d="M161.66,444.33l-.88-2.89h-4.43l-.88,2.89H152.7L157,432.14h3.15l4.3,12.19Zm-1.5-5.05c-.81-2.61-1.27-4.1-1.37-4.44s-.18-.61-.22-.81q-.28,1.07-1.57,5.25Z"/><path class="cls-5" d="M174.06,444.33h-2.53v-5.42a2.8,2.8,0,0,0-.33-1.51,1.2,1.2,0,0,0-1.06-.5,1.53,1.53,0,0,0-1.41.71,4.62,4.62,0,0,0-.44,2.35v4.37h-2.53v-9.28h1.93l.34,1.19h.14a2.55,2.55,0,0,1,1.08-1,3.52,3.52,0,0,1,1.62-.37,2.91,2.91,0,0,1,2.82,1.37h.23a2.41,2.41,0,0,1,1.1-1,3.62,3.62,0,0,1,1.63-.36,3.23,3.23,0,0,1,2.39.81,3.57,3.57,0,0,1,.81,2.6v6.05h-2.54v-5.42a2.7,2.7,0,0,0-.34-1.51,1.17,1.17,0,0,0-1.05-.5,1.57,1.57,0,0,0-1.39.66,3.76,3.76,0,0,0-.47,2.11Z"/><path class="cls-5" d="M186.65,444.5a4.81,4.81,0,0,1-3.5-1.24,4.7,4.7,0,0,1-1.27-3.51,5.13,5.13,0,0,1,1.17-3.6,4.16,4.16,0,0,1,3.23-1.28,4.08,4.08,0,0,1,3.06,1.13,4.21,4.21,0,0,1,1.09,3.09v1.23h-6a2.42,2.42,0,0,0,.64,1.68,2.24,2.24,0,0,0,1.68.61,7.36,7.36,0,0,0,1.58-.17,8.42,8.42,0,0,0,1.56-.56v2a5.54,5.54,0,0,1-1.42.49A8.73,8.73,0,0,1,186.65,444.5Zm-.36-7.82a1.61,1.61,0,0,0-1.26.51,2.35,2.35,0,0,0-.52,1.44h3.55a2.07,2.07,0,0,0-.49-1.44A1.65,1.65,0,0,0,186.29,436.68Z"/><path class="cls-5" d="M197.67,434.87a4.05,4.05,0,0,1,.86.08l-.19,2.37a3.25,3.25,0,0,0-.75-.08,2.71,2.71,0,0,0-1.89.62,2.27,2.27,0,0,0-.68,1.75v4.72h-2.53v-9.28h1.92l.37,1.56h.13a3.45,3.45,0,0,1,1.17-1.26A2.83,2.83,0,0,1,197.67,434.87Z"/><path class="cls-5" d="M200.11,432.65c0-.82.45-1.24,1.37-1.24s1.38.42,1.38,1.24a1.21,1.21,0,0,1-.34.92,1.46,1.46,0,0,1-1,.33C200.56,433.9,200.11,433.48,200.11,432.65Zm2.63,11.68h-2.53v-9.28h2.53Z"/><path class="cls-5" d="M209.17,444.5q-4.33,0-4.33-4.76a5.12,5.12,0,0,1,1.17-3.62,4.45,4.45,0,0,1,3.38-1.25,6.43,6.43,0,0,1,2.89.63l-.74,2a11.64,11.64,0,0,0-1.12-.39,3.62,3.62,0,0,0-1-.15c-1.31,0-2,.93-2,2.8s.66,2.72,2,2.72a4.56,4.56,0,0,0,1.36-.19,4.75,4.75,0,0,0,1.24-.61v2.17a4.07,4.07,0,0,1-1.24.54A6.93,6.93,0,0,1,209.17,444.5Z"/><path class="cls-5" d="M220,444.33l-.49-1.26h-.06a3.76,3.76,0,0,1-1.32,1.11,4.19,4.19,0,0,1-1.76.32,2.88,2.88,0,0,1-2.11-.77,2.93,2.93,0,0,1-.76-2.17,2.44,2.44,0,0,1,1-2.18,6,6,0,0,1,3.12-.78l1.61-.05v-.4a1.27,1.27,0,0,0-1.45-1.42,6.56,6.56,0,0,0-2.61.68l-.84-1.71a7.53,7.53,0,0,1,3.55-.84,4.46,4.46,0,0,1,2.87.81,3,3,0,0,1,1,2.48v6.18Zm-.74-4.3-1,0a3.16,3.16,0,0,0-1.65.4,1.25,1.25,0,0,0-.54,1.11c0,.72.41,1.07,1.23,1.07a1.93,1.93,0,0,0,1.41-.5,1.8,1.8,0,0,0,.53-1.35Z"/><path class="cls-5" d="M233,444.33h-2.53v-5.42a2.69,2.69,0,0,0-.35-1.51,1.32,1.32,0,0,0-1.14-.5,1.73,1.73,0,0,0-1.54.71,4.45,4.45,0,0,0-.47,2.35v4.37h-2.53v-9.28h1.93l.34,1.19h.14a2.76,2.76,0,0,1,1.17-1,4,4,0,0,1,1.69-.35,3.27,3.27,0,0,1,2.46.88,3.51,3.51,0,0,1,.83,2.53Z"/><path class="cls-5" d="M238.06,442.54a24.41,24.41,0,0,1-1.46,4h-1.82c.36-1.47.64-2.86.83-4.17h2.33Z"/><path class="cls-5" d="M255.81,444.33h-3.27l-5.28-9.18h-.07c.1,1.62.15,2.78.15,3.47v5.71H245V432.19h3.25l5.27,9.09h.06c-.08-1.57-.13-2.69-.13-3.34v-5.75h2.32Z"/><path class="cls-5" d="M264.56,444.33l-.49-1.26H264a3.65,3.65,0,0,1-1.31,1.11,4.21,4.21,0,0,1-1.77.32,2.84,2.84,0,0,1-2.1-.77,2.93,2.93,0,0,1-.77-2.17,2.47,2.47,0,0,1,1-2.18,6,6,0,0,1,3.12-.78l1.61-.05v-.4a1.26,1.26,0,0,0-1.44-1.42,6.6,6.6,0,0,0-2.62.68l-.83-1.71a7.5,7.5,0,0,1,3.55-.84,4.43,4.43,0,0,1,2.86.81,3,3,0,0,1,1,2.48v6.18Zm-.75-4.3-1,0a3.15,3.15,0,0,0-1.64.4,1.25,1.25,0,0,0-.54,1.11c0,.72.41,1.07,1.23,1.07a2,2,0,0,0,1.41-.5,1.79,1.79,0,0,0,.52-1.35Z"/><path class="cls-5" d="M272.84,442.48a5.61,5.61,0,0,0,1.6-.29v1.88a5.74,5.74,0,0,1-2.33.43,2.85,2.85,0,0,1-2.21-.77,3.36,3.36,0,0,1-.69-2.31V437H268v-1.07l1.39-.85.73-2h1.62v2h2.6V437h-2.6v4.47a1,1,0,0,0,.3.8A1.2,1.2,0,0,0,272.84,442.48Z"/><path class="cls-5" d="M276.21,432.65c0-.82.45-1.24,1.37-1.24s1.38.42,1.38,1.24a1.21,1.21,0,0,1-.34.92,1.46,1.46,0,0,1-1,.33C276.66,433.9,276.21,433.48,276.21,432.65Zm2.63,11.68h-2.53v-9.28h2.53Z"/><path class="cls-5" d="M283.71,444.33l-3.54-9.28h2.65l1.79,5.29a8.9,8.9,0,0,1,.36,1.9H285a6.8,6.8,0,0,1,.37-1.9l1.78-5.29h2.65l-3.53,9.28Z"/><path class="cls-5" d="M295.37,444.5a4.81,4.81,0,0,1-3.5-1.24,4.7,4.7,0,0,1-1.26-3.51,5.13,5.13,0,0,1,1.16-3.6,4.16,4.16,0,0,1,3.23-1.28,4.08,4.08,0,0,1,3.06,1.13,4.21,4.21,0,0,1,1.1,3.09v1.23h-6a2.42,2.42,0,0,0,.64,1.68,2.24,2.24,0,0,0,1.68.61,7.36,7.36,0,0,0,1.58-.17,8.42,8.42,0,0,0,1.56-.56v2a5.54,5.54,0,0,1-1.42.49A8.73,8.73,0,0,1,295.37,444.5Zm-.36-7.82a1.62,1.62,0,0,0-1.26.51,2.35,2.35,0,0,0-.52,1.44h3.55a2.07,2.07,0,0,0-.49-1.44A1.65,1.65,0,0,0,295,436.68Z"/><path class="cls-5" d="M313.26,444.33l-.88-2.89H308l-.88,2.89H304.3l4.28-12.19h3.15l4.3,12.19Zm-1.5-5.05c-.81-2.61-1.27-4.1-1.37-4.44s-.18-.61-.22-.81c-.18.71-.71,2.46-1.57,5.25Z"/><path class="cls-5" d="M325.67,444.33h-2.53v-5.42a2.79,2.79,0,0,0-.34-1.51,1.19,1.19,0,0,0-1.06-.5,1.53,1.53,0,0,0-1.41.71,4.73,4.73,0,0,0-.44,2.35v4.37h-2.53v-9.28h1.93l.34,1.19h.15a2.47,2.47,0,0,1,1.07-1,3.52,3.52,0,0,1,1.62-.37,2.91,2.91,0,0,1,2.82,1.37h.23a2.46,2.46,0,0,1,1.1-1,3.63,3.63,0,0,1,1.64-.36,3.21,3.21,0,0,1,2.38.81,3.57,3.57,0,0,1,.81,2.6v6.05h-2.54v-5.42a2.8,2.8,0,0,0-.33-1.51,1.2,1.2,0,0,0-1.06-.5,1.58,1.58,0,0,0-1.39.66,3.77,3.77,0,0,0-.46,2.11Z"/><path class="cls-5" d="M338.25,444.5a4.81,4.81,0,0,1-3.5-1.24,4.7,4.7,0,0,1-1.26-3.51,5.18,5.18,0,0,1,1.16-3.6,4.17,4.17,0,0,1,3.23-1.28,4.08,4.08,0,0,1,3.06,1.13,4.21,4.21,0,0,1,1.1,3.09v1.23h-6a2.42,2.42,0,0,0,.64,1.68,2.24,2.24,0,0,0,1.68.61,7.38,7.38,0,0,0,1.59-.17,9,9,0,0,0,1.56-.56v2a5.82,5.82,0,0,1-1.42.49A8.83,8.83,0,0,1,338.25,444.5Zm-.35-7.82a1.63,1.63,0,0,0-1.27.51,2.41,2.41,0,0,0-.52,1.44h3.55a2.07,2.07,0,0,0-.49-1.44A1.64,1.64,0,0,0,337.9,436.68Z"/><path class="cls-5" d="M349.28,434.87a4,4,0,0,1,.85.08l-.19,2.37a3.13,3.13,0,0,0-.75-.08,2.74,2.74,0,0,0-1.89.62,2.27,2.27,0,0,0-.67,1.75v4.72H344.1v-9.28H346l.38,1.56h.12a3.54,3.54,0,0,1,1.17-1.26A2.86,2.86,0,0,1,349.28,434.87Z"/><path class="cls-5" d="M351.71,432.65c0-.82.46-1.24,1.38-1.24s1.37.42,1.37,1.24a1.21,1.21,0,0,1-.34.92,1.43,1.43,0,0,1-1,.33C352.17,433.9,351.71,433.48,351.71,432.65Zm2.64,11.68h-2.53v-9.28h2.53Z"/><path class="cls-5" d="M360.77,444.5q-4.33,0-4.33-4.76a5.08,5.08,0,0,1,1.18-3.62,4.42,4.42,0,0,1,3.38-1.25,6.41,6.41,0,0,1,2.88.63l-.74,2q-.6-.24-1.11-.39a3.72,3.72,0,0,0-1-.15c-1.32,0-2,.93-2,2.8s.66,2.72,2,2.72a4.54,4.54,0,0,0,1.35-.19,4.75,4.75,0,0,0,1.24-.61v2.17a4,4,0,0,1-1.24.54A6.87,6.87,0,0,1,360.77,444.5Z"/><path class="cls-5" d="M371.64,444.33l-.49-1.26h-.07a3.65,3.65,0,0,1-1.31,1.11,4.24,4.24,0,0,1-1.77.32,2.84,2.84,0,0,1-2.1-.77,2.93,2.93,0,0,1-.77-2.17,2.44,2.44,0,0,1,1-2.18,6,6,0,0,1,3.12-.78l1.61-.05v-.4a1.26,1.26,0,0,0-1.44-1.42,6.6,6.6,0,0,0-2.62.68L366,435.7a7.57,7.57,0,0,1,3.56-.84,4.43,4.43,0,0,1,2.86.81,3,3,0,0,1,1,2.48v6.18Zm-.75-4.3-1,0a3.12,3.12,0,0,0-1.64.4,1.25,1.25,0,0,0-.54,1.11c0,.72.41,1.07,1.23,1.07a1.92,1.92,0,0,0,1.4-.5,1.8,1.8,0,0,0,.53-1.35Z"/><path class="cls-5" d="M384.58,444.33h-2.53v-5.42a2.61,2.61,0,0,0-.36-1.51,1.32,1.32,0,0,0-1.14-.5,1.7,1.7,0,0,0-1.53.71,4.34,4.34,0,0,0-.48,2.35v4.37H376v-9.28H378l.34,1.19h.14a2.67,2.67,0,0,1,1.16-1,4,4,0,0,1,1.69-.35,3.27,3.27,0,0,1,2.46.88,3.51,3.51,0,0,1,.84,2.53Z"/></g></svg>