<svg xmlns="http://www.w3.org/2000/svg" viewBox="0 0 800 260"><defs><style>.cls-1{fill:#e6e6e6;}.cls-2{fill:#0071bc;}.cls-3{fill:none;stroke:gray;stroke-miterlimit:10;}.cls-4{fill:#333;}.cls-5{fill:#999;}</style></defs><g id="Layer_1" data-name="Layer 1"><rect class="cls-1" x="324.01" y="125.39" width="311.99" height="65.15"/><rect class="cls-2" x="324.01" y="53" width="140.4" height="65.15"/><line class="cls-3" x1="324.5" y1="225" x2="324.5" y2="19"/></g><g id="Layer_3" data-name="Layer 3"><path class="cls-4" d="M181.9,91.46a3.5,3.5,0,0,1-1.32,2.89,5.7,5.7,0,0,1-3.68,1.06,8.6,8.6,0,0,1-3.84-.82V91.92a14.81,14.81,0,0,0,2.33.86,6.7,6.7,0,0,0,1.74.25,2.48,2.48,0,0,0,1.45-.36,1.22,1.22,0,0,0,.5-1.07,1.15,1.15,0,0,0-.22-.71,2.39,2.39,0,0,0-.65-.6,17.86,17.86,0,0,0-1.76-.92,8.46,8.46,0,0,1-1.87-1.12,4.32,4.32,0,0,1-1-1.26,3.9,3.9,0,0,1,.85-4.49,5,5,0,0,1,3.37-1,7.82,7.82,0,0,1,2,.26,13.43,13.43,0,0,1,2,.7l-.93,2.24a12.09,12.09,0,0,0-1.79-.62,5.72,5.72,0,0,0-1.4-.18,1.87,1.87,0,0,0-1.25.38,1.25,1.25,0,0,0-.44,1,1.22,1.22,0,0,0,.18.67,1.94,1.94,0,0,0,.56.54,15.4,15.4,0,0,0,1.82,1,7.29,7.29,0,0,1,2.61,1.83A3.54,3.54,0,0,1,181.9,91.46Z"/><path class="cls-4" d="M184,82.17c0-.92.51-1.38,1.54-1.38s1.54.46,1.54,1.38a1.36,1.36,0,0,1-.39,1,1.62,1.62,0,0,1-1.15.36C184.53,83.56,184,83.1,184,82.17Zm2.95,13h-2.83V84.85H187Z"/><path class="cls-4" d="M192.77,95.22h-2.83V80.79h2.83Z"/><path class="cls-4" d="M195.62,82.17c0-.92.51-1.38,1.54-1.38s1.54.46,1.54,1.38a1.36,1.36,0,0,1-.39,1,1.62,1.62,0,0,1-1.15.36C196.13,83.56,195.62,83.1,195.62,82.17Zm2.95,13h-2.83V84.85h2.83Z"/><path class="cls-4" d="M205.75,95.41q-4.84,0-4.84-5.32a5.71,5.71,0,0,1,1.31-4A5,5,0,0,1,206,84.66a7.2,7.2,0,0,1,3.23.7l-.84,2.19a12.55,12.55,0,0,0-1.24-.44,4.16,4.16,0,0,0-1.15-.17c-1.47,0-2.21,1-2.21,3.13s.74,3.05,2.21,3.05a5.2,5.2,0,0,0,1.51-.22,5.41,5.41,0,0,0,1.39-.68v2.42a4.49,4.49,0,0,1-1.38.6A7.91,7.91,0,0,1,205.75,95.41Z"/><path class="cls-4" d="M220.73,90a5.56,5.56,0,0,1-1.33,4,4.85,4.85,0,0,1-3.72,1.43,5.17,5.17,0,0,1-2.64-.66,4.34,4.34,0,0,1-1.75-1.87,6.31,6.31,0,0,1-.61-2.86,5.55,5.55,0,0,1,1.32-4,4.88,4.88,0,0,1,3.73-1.41,5.17,5.17,0,0,1,2.64.65,4.32,4.32,0,0,1,1.75,1.86A6.23,6.23,0,0,1,220.73,90Zm-7.17,0a4.33,4.33,0,0,0,.51,2.33,1.8,1.8,0,0,0,1.64.79,1.76,1.76,0,0,0,1.63-.79,4.41,4.41,0,0,0,.5-2.33,4.31,4.31,0,0,0-.5-2.31,2.14,2.14,0,0,0-3.28,0A4.35,4.35,0,0,0,213.56,90Z"/><path class="cls-4" d="M232.64,95.22h-2.83v-6a3,3,0,0,0-.39-1.69,1.47,1.47,0,0,0-1.28-.56,1.89,1.89,0,0,0-1.71.79,5,5,0,0,0-.53,2.63v4.88h-2.83V84.85h2.16l.38,1.33h.16a3.06,3.06,0,0,1,1.3-1.14,4.59,4.59,0,0,1,1.89-.38,3.61,3.61,0,0,1,2.75,1,3.93,3.93,0,0,1,.93,2.82Z"/><path class="cls-4" d="M246.46,95.22l-3.27-10.64h-.08c.12,2.17.18,3.61.18,4.34v6.3h-2.57V81.66h3.91L247.84,92h.06l3.4-10.37h3.92V95.22h-2.68V88.8c0-.3,0-.65,0-1s0-1.45.12-3.16h-.08l-3.5,10.62Z"/><path class="cls-4" d="M267.83,90a5.56,5.56,0,0,1-1.33,4,4.85,4.85,0,0,1-3.72,1.43,5.17,5.17,0,0,1-2.64-.66,4.34,4.34,0,0,1-1.75-1.87,6.31,6.31,0,0,1-.61-2.86,5.55,5.55,0,0,1,1.32-4,4.88,4.88,0,0,1,3.73-1.41,5.17,5.17,0,0,1,2.64.65,4.32,4.32,0,0,1,1.75,1.86A6.23,6.23,0,0,1,267.83,90Zm-7.17,0a4.33,4.33,0,0,0,.51,2.33,1.8,1.8,0,0,0,1.64.79,1.76,1.76,0,0,0,1.63-.79,4.41,4.41,0,0,0,.5-2.33,4.31,4.31,0,0,0-.5-2.31,2.14,2.14,0,0,0-3.28,0A4.35,4.35,0,0,0,260.66,90Z"/><path class="cls-4" d="M274.54,93.15a5.94,5.94,0,0,0,1.78-.32v2.11a6.43,6.43,0,0,1-2.6.47,3.19,3.19,0,0,1-2.47-.86,3.76,3.76,0,0,1-.77-2.57V87h-1.36v-1.2l1.56-1,.82-2.19h1.81v2.21h2.9V87h-2.9v5a1.09,1.09,0,0,0,.34.89A1.32,1.32,0,0,0,274.54,93.15Z"/><path class="cls-4" d="M278.3,82.17c0-.92.51-1.38,1.54-1.38s1.54.46,1.54,1.38a1.36,1.36,0,0,1-.39,1,1.62,1.62,0,0,1-1.15.36C278.81,83.56,278.3,83.1,278.3,82.17Zm2.95,13h-2.83V84.85h2.83Z"/><path class="cls-4" d="M293.64,90a5.56,5.56,0,0,1-1.33,4,4.85,4.85,0,0,1-3.72,1.43,5.17,5.17,0,0,1-2.64-.66,4.34,4.34,0,0,1-1.75-1.87,6.31,6.31,0,0,1-.61-2.86,5.55,5.55,0,0,1,1.32-4,4.88,4.88,0,0,1,3.73-1.41,5.17,5.17,0,0,1,2.64.65A4.32,4.32,0,0,1,293,87.17,6.23,6.23,0,0,1,293.64,90Zm-7.17,0a4.33,4.33,0,0,0,.51,2.33,1.82,1.82,0,0,0,1.64.79,1.76,1.76,0,0,0,1.63-.79,4.41,4.41,0,0,0,.5-2.33,4.31,4.31,0,0,0-.5-2.31,2.14,2.14,0,0,0-3.28,0A4.35,4.35,0,0,0,286.47,90Z"/><path class="cls-4" d="M305.56,95.22h-2.83v-6a3,3,0,0,0-.4-1.69,1.47,1.47,0,0,0-1.27-.56,1.91,1.91,0,0,0-1.72.79,5,5,0,0,0-.53,2.63v4.88H296V84.85h2.16l.38,1.33h.16A3,3,0,0,1,300,85a4.51,4.51,0,0,1,1.88-.38,3.6,3.6,0,0,1,2.75,1,3.93,3.93,0,0,1,.94,2.82Z"/><path class="cls-4" d="M48.78,163.22H41V149.66h7.82V152H43.84v3h4.59v2.36H43.84v3.5h4.94Z"/><path class="cls-4" d="M53.51,157.93l-3.34-5.08h3.21l2,3.3,2-3.3h3.21l-3.37,5.08,3.53,5.29H57.57l-2.18-3.55-2.19,3.55H50Z"/><path class="cls-4" d="M66.74,161.15a6,6,0,0,0,1.78-.32v2.11a6.46,6.46,0,0,1-2.6.47,3.17,3.17,0,0,1-2.47-.86,3.71,3.71,0,0,1-.78-2.57v-5H61.32v-1.2l1.56-.95.81-2.19H65.5v2.21h2.91V155H65.5v5a1.12,1.12,0,0,0,.34.89A1.36,1.36,0,0,0,66.74,161.15Z"/><path class="cls-4" d="M75.31,163.41A5.37,5.37,0,0,1,71.39,162,5.24,5.24,0,0,1,70,158.11a5.75,5.75,0,0,1,1.31-4,4.63,4.63,0,0,1,3.6-1.42,4.56,4.56,0,0,1,3.43,1.25,4.76,4.76,0,0,1,1.22,3.46v1.37H72.85a2.72,2.72,0,0,0,.72,1.89,2.5,2.5,0,0,0,1.87.67,7.81,7.81,0,0,0,1.77-.19,9.22,9.22,0,0,0,1.75-.62v2.19a7.12,7.12,0,0,1-1.59.55A10,10,0,0,1,75.31,163.41Zm-.4-8.74a1.79,1.79,0,0,0-1.41.57,2.64,2.64,0,0,0-.58,1.62h4a2.41,2.41,0,0,0-.55-1.62A1.85,1.85,0,0,0,74.91,154.67Z"/><path class="cls-4" d="M87.63,152.66a4.26,4.26,0,0,1,1,.08l-.21,2.65a3.29,3.29,0,0,0-.83-.09,3,3,0,0,0-2.11.7,2.49,2.49,0,0,0-.76,1.95v5.27H81.84V152.85H84l.42,1.75h.14a3.92,3.92,0,0,1,1.3-1.41A3.2,3.2,0,0,1,87.63,152.66Z"/><path class="cls-4" d="M100,163.22H97.21v-6.05a2.91,2.91,0,0,0-.4-1.69,1.45,1.45,0,0,0-1.27-.56,1.89,1.89,0,0,0-1.71.79,4.86,4.86,0,0,0-.53,2.63v4.88H90.47V152.85h2.16l.38,1.33h.16a3,3,0,0,1,1.3-1.14,4.56,4.56,0,0,1,1.89-.38,3.61,3.61,0,0,1,2.75,1,3.93,3.93,0,0,1,.93,2.82Z"/><path class="cls-4" d="M109.54,163.22l-.54-1.41h-.08a4.06,4.06,0,0,1-1.47,1.25,4.76,4.76,0,0,1-2,.35,3.21,3.21,0,0,1-2.35-.85,3.3,3.3,0,0,1-.86-2.44,2.72,2.72,0,0,1,1.15-2.43,6.79,6.79,0,0,1,3.49-.87l1.8,0v-.46a1.42,1.42,0,0,0-1.62-1.58,7.39,7.39,0,0,0-2.92.76l-.94-1.91a8.41,8.41,0,0,1,4-.94,4.94,4.94,0,0,1,3.2.91,3.36,3.36,0,0,1,1.11,2.76v6.91Zm-.83-4.8-1.1,0a3.46,3.46,0,0,0-1.83.44,1.39,1.39,0,0,0-.61,1.24q0,1.2,1.38,1.2a2.16,2.16,0,0,0,1.57-.57,2,2,0,0,0,.59-1.5Z"/><path class="cls-4" d="M117.26,163.22h-2.83V148.79h2.83Z"/><path class="cls-4" d="M134.45,163.22h-2.83v-6.05a3.09,3.09,0,0,0-.37-1.69,1.34,1.34,0,0,0-1.19-.56,1.71,1.71,0,0,0-1.57.8,5.18,5.18,0,0,0-.49,2.62v4.88h-2.83V152.85h2.16l.38,1.33h.16a2.83,2.83,0,0,1,1.2-1.12,3.92,3.92,0,0,1,1.81-.4,3.27,3.27,0,0,1,3.16,1.52h.25a2.72,2.72,0,0,1,1.22-1.12,4.11,4.11,0,0,1,1.84-.4,3.61,3.61,0,0,1,2.66.9,3.94,3.94,0,0,1,.91,2.9v6.76h-2.84v-6.05a3,3,0,0,0-.38-1.69,1.32,1.32,0,0,0-1.18-.56,1.77,1.77,0,0,0-1.55.74,4.17,4.17,0,0,0-.52,2.36Z"/><path class="cls-4" d="M150.41,163.22l-.55-1.41h-.07a4.23,4.23,0,0,1-1.47,1.25,4.79,4.79,0,0,1-2,.35,3.25,3.25,0,0,1-2.36-.85,3.29,3.29,0,0,1-.85-2.44,2.72,2.72,0,0,1,1.15-2.43,6.75,6.75,0,0,1,3.48-.87l1.8,0v-.46a1.41,1.41,0,0,0-1.61-1.58,7.39,7.39,0,0,0-2.92.76l-.94-1.91a8.37,8.37,0,0,1,4-.94,4.92,4.92,0,0,1,3.2.91,3.36,3.36,0,0,1,1.11,2.76v6.91Zm-.84-4.8-1.09,0a3.5,3.5,0,0,0-1.84.44,1.4,1.4,0,0,0-.6,1.24c0,.8.46,1.2,1.37,1.2a2.19,2.19,0,0,0,1.58-.57,2,2,0,0,0,.58-1.5Z"/><path class="cls-4" d="M161.09,152.66a4.26,4.26,0,0,1,.95.08l-.21,2.65a3.34,3.34,0,0,0-.83-.09,3,3,0,0,0-2.12.7,2.52,2.52,0,0,0-.75,1.95v5.27H155.3V152.85h2.14l.42,1.75H158a3.83,3.83,0,0,1,1.3-1.41A3.18,3.18,0,0,1,161.09,152.66Z"/><path class="cls-4" d="M166.65,157.58l1.23-1.57,2.9-3.16H174l-4.12,4.5,4.37,5.87H171l-3-4.2-1.21,1v3.22h-2.83V148.79h2.83v6.44l-.15,2.35Z"/><path class="cls-4" d="M180.22,163.41A5.37,5.37,0,0,1,176.3,162a5.24,5.24,0,0,1-1.41-3.92,5.75,5.75,0,0,1,1.31-4,4.62,4.62,0,0,1,3.6-1.42,4.52,4.52,0,0,1,3.42,1.25,4.72,4.72,0,0,1,1.23,3.46v1.37h-6.69a2.76,2.76,0,0,0,.71,1.89,2.53,2.53,0,0,0,1.88.67,7.81,7.81,0,0,0,1.77-.19,8.91,8.91,0,0,0,1.74-.62v2.19a6.87,6.87,0,0,1-1.58.55A10.11,10.11,0,0,1,180.22,163.41Zm-.4-8.74a1.79,1.79,0,0,0-1.41.57,2.65,2.65,0,0,0-.59,1.62h4a2.36,2.36,0,0,0-.54-1.62A1.87,1.87,0,0,0,179.82,154.67Z"/><path class="cls-4" d="M191.12,161.15a6,6,0,0,0,1.78-.32v2.11a6.46,6.46,0,0,1-2.6.47,3.19,3.19,0,0,1-2.47-.86,3.71,3.71,0,0,1-.77-2.57v-5H185.7v-1.2l1.56-.95.82-2.19h1.8v2.21h2.91V155h-2.91v5a1.12,1.12,0,0,0,.34.89A1.36,1.36,0,0,0,191.12,161.15Z"/><path class="cls-4" d="M205.7,152.66a3.34,3.34,0,0,1,2.88,1.43,6.62,6.62,0,0,1,1,3.93,6.5,6.5,0,0,1-1.07,4,3.48,3.48,0,0,1-2.92,1.41,3.43,3.43,0,0,1-2.87-1.33h-.19l-.48,1.14h-2.16V148.79h2.83v3.36c0,.42,0,1.11-.11,2h.11A3.26,3.26,0,0,1,205.7,152.66Zm-.91,2.26a1.76,1.76,0,0,0-1.53.65,3.69,3.69,0,0,0-.5,2.12V158a4.36,4.36,0,0,0,.5,2.39,1.75,1.75,0,0,0,1.57.73,1.6,1.6,0,0,0,1.39-.8,4.42,4.42,0,0,0,.51-2.34,4.06,4.06,0,0,0-.52-2.29A1.63,1.63,0,0,0,204.79,154.92Z"/><path class="cls-4" d="M216.65,163.41a5.37,5.37,0,0,1-3.92-1.38,5.24,5.24,0,0,1-1.41-3.92,5.75,5.75,0,0,1,1.31-4,4.63,4.63,0,0,1,3.6-1.42,4.56,4.56,0,0,1,3.43,1.25,4.76,4.76,0,0,1,1.22,3.46v1.37h-6.69a2.72,2.72,0,0,0,.72,1.89,2.5,2.5,0,0,0,1.87.67,7.81,7.81,0,0,0,1.77-.19,8.91,8.91,0,0,0,1.74-.62v2.19a6.87,6.87,0,0,1-1.58.55A10,10,0,0,1,216.65,163.41Zm-.4-8.74a1.79,1.79,0,0,0-1.41.57,2.64,2.64,0,0,0-.58,1.62h4a2.41,2.41,0,0,0-.55-1.62A1.85,1.85,0,0,0,216.25,154.67Z"/><path class="cls-4" d="M232.75,163.22h-2.83v-6.05a3,3,0,0,0-.39-1.69,1.47,1.47,0,0,0-1.28-.56,1.89,1.89,0,0,0-1.71.79,5,5,0,0,0-.53,2.63v4.88h-2.83V152.85h2.16l.38,1.33h.16a3.06,3.06,0,0,1,1.3-1.14,4.59,4.59,0,0,1,1.89-.38,3.61,3.61,0,0,1,2.75,1,3.93,3.93,0,0,1,.93,2.82Z"/><path class="cls-4" d="M239.88,163.41q-4.84,0-4.84-5.32a5.71,5.71,0,0,1,1.31-4,5,5,0,0,1,3.78-1.39,7.2,7.2,0,0,1,3.23.7l-.84,2.19a12.55,12.55,0,0,0-1.24-.44,4.16,4.16,0,0,0-1.15-.17c-1.47,0-2.21,1-2.21,3.13s.74,3.05,2.21,3.05a5.2,5.2,0,0,0,1.51-.22,5.41,5.41,0,0,0,1.39-.68v2.42a4.49,4.49,0,0,1-1.38.6A7.91,7.91,0,0,1,239.88,163.41Z"/><path class="cls-4" d="M255,163.22h-2.83v-6.05c0-1.5-.56-2.25-1.67-2.25a1.88,1.88,0,0,0-1.71.81,4.85,4.85,0,0,0-.53,2.61v4.88h-2.83V148.79h2.83v2.94c0,.23,0,.77-.07,1.61l-.06.84h.15a3.26,3.26,0,0,1,3-1.52,3.68,3.68,0,0,1,2.78,1,3.92,3.92,0,0,1,.94,2.82Z"/><path class="cls-4" d="M267.21,163.22h-2.83v-6.05a3.09,3.09,0,0,0-.37-1.69,1.34,1.34,0,0,0-1.19-.56,1.7,1.7,0,0,0-1.57.8,5.16,5.16,0,0,0-.5,2.62v4.88h-2.83V152.85h2.17l.38,1.33h.15a2.86,2.86,0,0,1,1.21-1.12,3.92,3.92,0,0,1,1.81-.4,3.24,3.24,0,0,1,3.15,1.52H267a2.79,2.79,0,0,1,1.23-1.12,4.08,4.08,0,0,1,1.84-.4,3.61,3.61,0,0,1,2.66.9,3.94,3.94,0,0,1,.91,2.9v6.76h-2.84v-6.05a3.09,3.09,0,0,0-.38-1.69,1.32,1.32,0,0,0-1.18-.56,1.77,1.77,0,0,0-1.55.74,4.17,4.17,0,0,0-.52,2.36Z"/><path class="cls-4" d="M283.17,163.22l-.55-1.41h-.07a4.23,4.23,0,0,1-1.47,1.25,4.79,4.79,0,0,1-2,.35,3.25,3.25,0,0,1-2.36-.85,3.29,3.29,0,0,1-.85-2.44,2.72,2.72,0,0,1,1.15-2.43,6.75,6.75,0,0,1,3.48-.87l1.8,0v-.46a1.41,1.41,0,0,0-1.61-1.58,7.39,7.39,0,0,0-2.92.76l-.94-1.91a8.37,8.37,0,0,1,4-.94,4.92,4.92,0,0,1,3.2.91,3.36,3.36,0,0,1,1.11,2.76v6.91Zm-.84-4.8-1.09,0a3.5,3.5,0,0,0-1.84.44,1.4,1.4,0,0,0-.6,1.24c0,.8.46,1.2,1.37,1.2a2.19,2.19,0,0,0,1.58-.57,2,2,0,0,0,.58-1.5Z"/><path class="cls-4" d="M293.85,152.66a4.26,4.26,0,0,1,.95.08l-.21,2.65a3.37,3.37,0,0,0-.84-.09,3,3,0,0,0-2.11.7,2.52,2.52,0,0,0-.75,1.95v5.27h-2.83V152.85h2.14l.42,1.75h.14a3.83,3.83,0,0,1,1.3-1.41A3.18,3.18,0,0,1,293.85,152.66Z"/><path class="cls-4" d="M299.41,157.58l1.23-1.57,2.9-3.16h3.19l-4.12,4.5,4.37,5.87h-3.26l-3-4.2-1.21,1v3.22h-2.83V148.79h2.83v6.44l-.15,2.35Z"/><path d="M678.83,87.88a18.63,18.63,0,0,1-.46,4.17,9.33,9.33,0,0,1-1.53,3.45,7.24,7.24,0,0,1-2.91,2.32,10.91,10.91,0,0,1-4.59.85c-.37,0-.8,0-1.29,0s-.91-.07-1.23-.12V95a11,11,0,0,0,2.28.23,7.2,7.2,0,0,0,3.42-.66,3.61,3.61,0,0,0,1.7-1.86,8.24,8.24,0,0,0,.58-2.76h-.16a5,5,0,0,1-1.38,1.54,4.36,4.36,0,0,1-2.55.62A4.8,4.8,0,0,1,667,90.53a6.36,6.36,0,0,1-1.41-4.42,6.44,6.44,0,0,1,1.72-4.77,6.33,6.33,0,0,1,4.7-1.73,6.94,6.94,0,0,1,3.49.89,6.12,6.12,0,0,1,2.47,2.71A10.58,10.58,0,0,1,678.83,87.88Zm-6.76-4.73a2.07,2.07,0,0,0-1.64.7,3.24,3.24,0,0,0-.63,2.21,3.07,3.07,0,0,0,.55,1.92,2,2,0,0,0,1.66.71,2.24,2.24,0,0,0,1.75-.75,2.28,2.28,0,0,0,.67-1.57,4.38,4.38,0,0,0-.26-1.52,2.92,2.92,0,0,0-.78-1.22A1.86,1.86,0,0,0,672.07,83.15Z"/><path d="M684.91,79.58a4.12,4.12,0,0,1,3.41,1.53,6.68,6.68,0,0,1,1.22,4.27,7.08,7.08,0,0,1-1.15,4.31,4,4,0,0,1-3.48,1.54,4,4,0,0,1-3.33-1.54,6.94,6.94,0,0,1-1.19-4.31,7.14,7.14,0,0,1,1.11-4.27A4,4,0,0,1,684.91,79.58Zm.05,2.87q-.6,0-.84.75a7.31,7.31,0,0,0-.25,2.21,7.55,7.55,0,0,0,.25,2.23c.16.53.44.79.84.79s.68-.26.85-.79a8,8,0,0,0,.24-2.23,7.71,7.71,0,0,0-.24-2.21C685.64,82.7,685.36,82.45,685,82.45Zm13.57-2.6L688.24,98.41h-3.38l10.29-18.56Zm-.1,7.15a4.12,4.12,0,0,1,3.41,1.52,6.68,6.68,0,0,1,1.22,4.27,7.1,7.1,0,0,1-1.15,4.31,4,4,0,0,1-3.48,1.54,4,4,0,0,1-3.33-1.54,6.9,6.9,0,0,1-1.19-4.31A7.14,7.14,0,0,1,695,88.52,4,4,0,0,1,698.43,87Zm.05,2.83q-.6,0-.84.78a9.89,9.89,0,0,0,0,4.42q.24.78.84.78c.73,0,1.09-1,1.09-3S699.21,89.83,698.48,89.83Z"/><path d="M663.8,171.41H650.59v-3l4.6-4.65c.94-1,1.69-1.77,2.24-2.4a7.61,7.61,0,0,0,1.18-1.65,3.3,3.3,0,0,0,.35-1.52,1.7,1.7,0,0,0-.58-1.44,2.35,2.35,0,0,0-1.47-.46,4.18,4.18,0,0,0-1.94.5,11.37,11.37,0,0,0-2.06,1.43l-2.42-2.84A17.59,17.59,0,0,1,652.2,154a8.11,8.11,0,0,1,2.15-1,9.57,9.57,0,0,1,3-.41,7.28,7.28,0,0,1,3.22.67,5.09,5.09,0,0,1,2.08,1.79,4.75,4.75,0,0,1,.73,2.59,6.55,6.55,0,0,1-.6,2.83A10.06,10.06,0,0,1,661,163c-.78.83-1.73,1.76-2.86,2.8l-1.92,1.77v.16h7.59Z"/><path d="M678.8,162.13a17.84,17.84,0,0,1-.64,5.12,6.33,6.33,0,0,1-2.08,3.28,6.05,6.05,0,0,1-3.86,1.14,5.45,5.45,0,0,1-5-2.52,13.23,13.23,0,0,1-1.58-7,18.35,18.35,0,0,1,.64-5.14,6.44,6.44,0,0,1,2.08-3.29,6.05,6.05,0,0,1,3.86-1.14,5.46,5.46,0,0,1,5,2.52A13.19,13.19,0,0,1,678.8,162.13Zm-8.76,0a16.6,16.6,0,0,0,.45,4.48c.31,1,.88,1.5,1.73,1.5a1.77,1.77,0,0,0,1.73-1.5,16.52,16.52,0,0,0,.46-4.48,16.81,16.81,0,0,0-.46-4.49c-.3-1-.88-1.52-1.73-1.52s-1.42.51-1.73,1.52A16.89,16.89,0,0,0,670,162.13Z"/><path d="M684.91,152.58a4.12,4.12,0,0,1,3.41,1.53,6.68,6.68,0,0,1,1.22,4.27,7.08,7.08,0,0,1-1.15,4.31,4,4,0,0,1-3.48,1.54,4,4,0,0,1-3.33-1.54,6.94,6.94,0,0,1-1.19-4.31,7.14,7.14,0,0,1,1.11-4.27A4,4,0,0,1,684.91,152.58Zm.05,2.87q-.6,0-.84.75a7.31,7.31,0,0,0-.25,2.21,7.55,7.55,0,0,0,.25,2.23c.16.53.44.79.84.79s.68-.26.85-.79a8,8,0,0,0,.24-2.23,7.71,7.71,0,0,0-.24-2.21C685.64,155.7,685.36,155.45,685,155.45Zm13.57-2.6-10.29,18.56h-3.38l10.29-18.56Zm-.1,7.15a4.12,4.12,0,0,1,3.41,1.52,6.68,6.68,0,0,1,1.22,4.27,7.1,7.1,0,0,1-1.15,4.31,4,4,0,0,1-3.48,1.54,4,4,0,0,1-3.33-1.54,6.9,6.9,0,0,1-1.19-4.31,7.14,7.14,0,0,1,1.11-4.27A4,4,0,0,1,698.43,160Zm.05,2.83q-.6,0-.84.78a9.89,9.89,0,0,0,0,4.42q.24.78.84.78c.73,0,1.09-1,1.09-3S699.21,162.83,698.48,162.83Z"/><path class="cls-5" d="M583,236.93H579.7l-5.28-9.18h-.08c.11,1.62.16,2.78.16,3.47v5.71h-2.3V224.79h3.25l5.27,9.09h.06c-.08-1.57-.13-2.69-.13-3.34v-5.75H583Z"/><path class="cls-5" d="M594.26,232.27a5,5,0,0,1-1.2,3.55,4.32,4.32,0,0,1-3.33,1.27,4.63,4.63,0,0,1-2.35-.58,3.87,3.87,0,0,1-1.57-1.68,5.58,5.58,0,0,1-.55-2.56,5,5,0,0,1,1.19-3.53,4.32,4.32,0,0,1,3.33-1.27,4.67,4.67,0,0,1,2.36.59,3.88,3.88,0,0,1,1.57,1.66A5.57,5.57,0,0,1,594.26,232.27Zm-6.42,0a4,4,0,0,0,.45,2.09,1.64,1.64,0,0,0,1.48.7,1.57,1.57,0,0,0,1.45-.7,3.91,3.91,0,0,0,.45-2.09,3.77,3.77,0,0,0-.45-2.06,1.91,1.91,0,0,0-2.93,0A3.83,3.83,0,0,0,587.84,232.27Z"/><path class="cls-5" d="M600.26,235.08a5.61,5.61,0,0,0,1.59-.29v1.88a5.69,5.69,0,0,1-2.32.42,2.85,2.85,0,0,1-2.21-.76,3.31,3.31,0,0,1-.7-2.31v-4.47h-1.21v-1.07l1.4-.85.73-2h1.62v2h2.59v1.9h-2.59V234a1,1,0,0,0,.3.8A1.2,1.2,0,0,0,600.26,235.08Z"/><path class="cls-5" d="M607.93,237.09a4.79,4.79,0,0,1-3.5-1.23,4.66,4.66,0,0,1-1.27-3.51,5.13,5.13,0,0,1,1.17-3.6,4.73,4.73,0,0,1,6.29-.16,4.25,4.25,0,0,1,1.09,3.1v1.23h-6a2.42,2.42,0,0,0,.64,1.68,2.23,2.23,0,0,0,1.67.61,7.38,7.38,0,0,0,1.59-.17,8.42,8.42,0,0,0,1.56-.56v2a5.54,5.54,0,0,1-1.42.49A8.8,8.8,0,0,1,607.93,237.09Zm-.36-7.81a1.61,1.61,0,0,0-1.26.51,2.35,2.35,0,0,0-.52,1.44h3.55a2.07,2.07,0,0,0-.49-1.44A1.65,1.65,0,0,0,607.57,229.28Z"/><path class="cls-5" d="M613.42,228.89a1.4,1.4,0,0,1,.37-1.06,1.51,1.51,0,0,1,1.09-.36,1.47,1.47,0,0,1,1.06.37,1.35,1.35,0,0,1,.38,1,1.38,1.38,0,0,1-.39,1,1.46,1.46,0,0,1-1,.37,1.5,1.5,0,0,1-1.08-.37A1.35,1.35,0,0,1,613.42,228.89Zm0,6.85a1.39,1.39,0,0,1,.37-1.05,1.51,1.51,0,0,1,1.09-.36,1.43,1.43,0,0,1,1.06.37,1.35,1.35,0,0,1,.38,1,1.43,1.43,0,0,1-.38,1,1.73,1.73,0,0,1-2.14,0A1.35,1.35,0,0,1,613.42,235.74Z"/><path class="cls-5" d="M630.87,236.93h-8.48v-1.79l3-3.08a23.53,23.53,0,0,0,1.77-1.92,3.85,3.85,0,0,0,.6-1,2.55,2.55,0,0,0,.18-1,1.37,1.37,0,0,0-.4-1.08,1.56,1.56,0,0,0-1.07-.36,3.16,3.16,0,0,0-1.37.32,7.4,7.4,0,0,0-1.39.92l-1.39-1.65a8.84,8.84,0,0,1,1.48-1.08,5.21,5.21,0,0,1,1.29-.48,6.71,6.71,0,0,1,1.56-.17,4.71,4.71,0,0,1,2,.41,3.22,3.22,0,0,1,1.35,1.17,3.06,3.06,0,0,1,.48,1.71,4.33,4.33,0,0,1-.29,1.57,6.06,6.06,0,0,1-.92,1.51,22.24,22.24,0,0,1-2.17,2.19l-1.57,1.47v.12h5.29Z"/><path class="cls-5" d="M640.53,230.86a8.42,8.42,0,0,1-1,4.71,4.06,4.06,0,0,1-6.37,0,8.36,8.36,0,0,1-1.07-4.66,8.58,8.58,0,0,1,1-4.74,3.61,3.61,0,0,1,3.2-1.52,3.57,3.57,0,0,1,3.17,1.6A8.29,8.29,0,0,1,640.53,230.86Zm-5.94,0a9.33,9.33,0,0,0,.39,3.2,1.33,1.33,0,0,0,1.3,1,1.36,1.36,0,0,0,1.29-1,9.08,9.08,0,0,0,.4-3.19,9.38,9.38,0,0,0-.4-3.21,1.35,1.35,0,0,0-1.29-1,1.34,1.34,0,0,0-1.3,1A9.43,9.43,0,0,0,634.59,230.86Z"/><path class="cls-5" d="M648.17,236.93h-2.56v-7l0-1.16,0-1.26a10.12,10.12,0,0,1-.89.84l-1.39,1.12-1.24-1.54,3.91-3.12h2.11Z"/><path class="cls-5" d="M660,230a8.09,8.09,0,0,1-1.51,5.36,5.69,5.69,0,0,1-4.57,1.76,8.53,8.53,0,0,1-1.64-.11v-2.06a5.89,5.89,0,0,0,1.46.17,5.17,5.17,0,0,0,2.12-.37,2.71,2.71,0,0,0,1.27-1.19,5.35,5.35,0,0,0,.51-2.23h-.1a2.84,2.84,0,0,1-1.11,1.1,3.53,3.53,0,0,1-1.58.31,3.21,3.21,0,0,1-2.5-1,4.08,4.08,0,0,1-.91-2.83,4.2,4.2,0,0,1,1.11-3.08,4,4,0,0,1,3-1.14,4.38,4.38,0,0,1,2.36.63,4,4,0,0,1,1.54,1.83A7,7,0,0,1,660,230Zm-4.39-3.26a1.5,1.5,0,0,0-1.24.55,2.41,2.41,0,0,0-.45,1.57,2.14,2.14,0,0,0,.41,1.4,1.48,1.48,0,0,0,1.23.52,1.92,1.92,0,0,0,1.34-.52,1.56,1.56,0,0,0,.56-1.17,2.7,2.7,0,0,0-.52-1.67A1.62,1.62,0,0,0,655.59,226.71Z"/><path class="cls-5" d="M669.27,237.09a3,3,0,0,1-2.57-1.26,7.14,7.14,0,0,1,0-7.08,3.09,3.09,0,0,1,2.62-1.28,3,3,0,0,1,2.67,1.36h.08a11,11,0,0,1-.19-1.85v-3h2.54v12.92H672.5l-.49-1.2h-.11A2.89,2.89,0,0,1,669.27,237.09Zm.89-2a1.69,1.69,0,0,0,1.42-.57,3.2,3.2,0,0,0,.5-1.91v-.28a3.86,3.86,0,0,0-.46-2.14,1.73,1.73,0,0,0-1.5-.65,1.49,1.49,0,0,0-1.32.72,3.85,3.85,0,0,0-.47,2.09,3.57,3.57,0,0,0,.48,2A1.53,1.53,0,0,0,670.16,235.08Z"/><path class="cls-5" d="M683,236.93l-.49-1.26h-.07a3.76,3.76,0,0,1-1.32,1.11,4.21,4.21,0,0,1-1.76.31,2.84,2.84,0,0,1-2.1-.76,2.89,2.89,0,0,1-.77-2.17,2.44,2.44,0,0,1,1-2.18,6,6,0,0,1,3.12-.78l1.61,0v-.4a1.27,1.27,0,0,0-1.45-1.42,6.56,6.56,0,0,0-2.61.68l-.84-1.71a7.53,7.53,0,0,1,3.55-.84,4.46,4.46,0,0,1,2.87.81,3,3,0,0,1,1,2.48v6.18Zm-.75-4.3-1,0a3.1,3.1,0,0,0-1.64.4,1.24,1.24,0,0,0-.54,1.11c0,.72.41,1.07,1.22,1.07a1.93,1.93,0,0,0,1.41-.5,1.8,1.8,0,0,0,.53-1.35Z"/><path class="cls-5" d="M691.27,235.08a5.61,5.61,0,0,0,1.59-.29v1.88a5.69,5.69,0,0,1-2.32.42,2.85,2.85,0,0,1-2.21-.76,3.31,3.31,0,0,1-.7-2.31v-4.47h-1.21v-1.07l1.4-.85.73-2h1.62v2h2.59v1.9h-2.59V234a1,1,0,0,0,.3.8A1.2,1.2,0,0,0,691.27,235.08Z"/><path class="cls-5" d="M700.63,236.93l-.49-1.26h-.06a3.76,3.76,0,0,1-1.32,1.11,4.21,4.21,0,0,1-1.76.31,2.86,2.86,0,0,1-2.11-.76,2.93,2.93,0,0,1-.77-2.17,2.45,2.45,0,0,1,1-2.18,6,6,0,0,1,3.11-.78l1.61,0v-.4a1.26,1.26,0,0,0-1.44-1.42,6.56,6.56,0,0,0-2.61.68L695,228.3a7.53,7.53,0,0,1,3.55-.84,4.41,4.41,0,0,1,2.86.81,3,3,0,0,1,1,2.48v6.18Zm-.75-4.3-1,0a3.16,3.16,0,0,0-1.65.4,1.24,1.24,0,0,0-.54,1.11c0,.72.41,1.07,1.23,1.07a1.93,1.93,0,0,0,1.41-.5,1.79,1.79,0,0,0,.52-1.35Z"/></g></svg>