<svg id="圖層_1" data-name="圖層 1" xmlns="http://www.w3.org/2000/svg" width="25" height="25" viewBox="0 0 25 25"><defs><style>.cls-1{fill:#006abc;}</style></defs><title>expert-icon</title><path class="cls-1" d="M18.5,2.5H6.5a1,1,0,0,0-1,.9h0v18a1,1,0,0,0,.9,1H18.5a1,1,0,0,0,1-.9h0V3.5a1,1,0,0,0-.9-1Zm-11,2h10v4H7.5Zm1,16a1,1,0,0,1,0-2,1,1,0,0,1,0,2Zm0-4a1,1,0,0,1,0-2,1,1,0,0,1,0,2Zm0-4a1,1,0,0,1,0-2,1,1,0,0,1,0,2Zm4,8a1,1,0,1,1,1-1,1,1,0,0,1-.9,1Zm0-4a1,1,0,1,1,1-1,1,1,0,0,1-.9,1Zm0-4a1,1,0,1,1,1-1,1,1,0,0,1-.9,1Zm4-2a1,1,0,1,1-1,1,1,1,0,0,1,.9-1Zm1,9a1,1,0,0,1-2,0v-4a1,1,0,0,1,2,0Z"/></svg>