<svg xmlns="http://www.w3.org/2000/svg" width="25" height="25" viewBox="0 0 25 25">
  <g id="Group_404" data-name="Group 404" transform="translate(-784 -2530)">
    <path id="user" d="M8.86,10.126A5.063,5.063,0,1,0,3.8,5.063,5.063,5.063,0,0,0,8.86,10.126ZM12.4,11.391h-.661a6.886,6.886,0,0,1-5.767,0H5.316A5.317,5.317,0,0,0,0,16.708v1.645a1.9,1.9,0,0,0,1.9,1.9H15.822a1.9,1.9,0,0,0,1.9-1.9V16.708A5.317,5.317,0,0,0,12.4,11.391Z" transform="translate(788 2532)" fill="#3cb6f8"/>
    <rect id="Rectangle_274" data-name="Rectangle 274" width="25" height="25" transform="translate(784 2530)" fill="none"/>
  </g>
</svg>
