<?xml version="1.0" encoding="UTF-8"?><svg xmlns="http://www.w3.org/2000/svg" viewBox="0 0 800 480"><defs><style>.cls-1{fill:#0071bc;}.cls-2{fill:#98d5f4;}.cls-3{fill:#4d4d4d;}.cls-4{fill:none;stroke:gray;stroke-miterlimit:10;}</style></defs><g id="_021"><line class="cls-4" x1="185" y1="421.65" x2="618" y2="421.65"/><g><g><rect class="cls-2" x="228" y="153.02" width="90.85" height="104.77"/><rect class="cls-2" x="354.17" y="116.9" width="90.85" height="126.14"/><rect class="cls-2" x="480.35" y="89" width="90.85" height="124.23"/></g><g><rect class="cls-1" x="228" y="257.79" width="90.85" height="163.77"/><rect class="cls-1" x="354.17" y="243.04" width="90.85" height="178.52"/><rect class="cls-1" x="480.35" y="213.23" width="90.85" height="208.33"/></g></g></g><g id="Numbers"><g><path class="cls-3" d="M259.64,456.41h-11.68v-2.65l4.07-4.12c.83-.86,1.49-1.56,1.98-2.12,.49-.55,.84-1.04,1.05-1.46s.31-.87,.31-1.35c0-.58-.17-1.01-.52-1.28-.34-.27-.78-.4-1.3-.4-.58,0-1.15,.14-1.71,.44-.56,.29-1.17,.71-1.83,1.26l-2.14-2.51c.48-.43,.98-.83,1.52-1.21,.54-.38,1.17-.68,1.9-.92,.73-.24,1.61-.36,2.63-.36,1.1,0,2.05,.2,2.85,.59,.8,.39,1.41,.92,1.84,1.59,.43,.67,.64,1.43,.64,2.29,0,.92-.18,1.76-.53,2.51-.35,.75-.87,1.49-1.56,2.23-.69,.74-1.53,1.56-2.53,2.48l-1.7,1.56v.14h6.72v3.27Z"/><path class="cls-3" d="M272.91,448.2c0,1.76-.19,3.27-.56,4.53-.38,1.26-.99,2.22-1.84,2.9-.85,.68-1.99,1.01-3.42,1.01-2.02,0-3.5-.74-4.43-2.23s-1.39-3.56-1.39-6.21c0-1.76,.19-3.28,.56-4.54,.38-1.27,.99-2.24,1.84-2.91,.85-.67,1.99-1.01,3.42-1.01,2.01,0,3.48,.74,4.42,2.23,.93,1.49,1.4,3.57,1.4,6.23Zm-7.75,0c0,1.76,.13,3.09,.4,3.97,.27,.88,.78,1.32,1.53,1.32s1.26-.44,1.53-1.32c.27-.88,.4-2.21,.4-3.97s-.13-3.07-.4-3.97c-.27-.9-.78-1.35-1.53-1.35s-1.26,.45-1.53,1.35-.4,2.22-.4,3.97Z"/><path class="cls-3" d="M283.74,456.41h-3.96v-8.85c0-.2,0-.5,.01-.9,0-.4,.01-.82,.02-1.26,0-.45,.02-.84,.03-1.2-.12,.15-.29,.33-.51,.54-.21,.21-.41,.39-.6,.54l-1.89,1.54-1.96-2.44,5.45-4.39h3.38v16.42Z"/><path class="cls-3" d="M299.52,447.09c0,1.3-.13,2.53-.4,3.69-.27,1.16-.72,2.17-1.36,3.05-.64,.87-1.5,1.56-2.58,2.06-1.08,.5-2.43,.75-4.06,.75-.32,0-.7-.01-1.14-.03-.44-.02-.8-.06-1.09-.1v-3.13c.63,.14,1.3,.21,2.02,.21,1.3,0,2.31-.2,3.02-.59,.71-.39,1.22-.94,1.51-1.64s.46-1.52,.51-2.44h-.14c-.31,.54-.71,.99-1.22,1.36-.51,.37-1.26,.55-2.25,.55-1.4,0-2.51-.46-3.34-1.38-.83-.92-1.24-2.22-1.24-3.91,0-1.79,.51-3.2,1.52-4.22,1.01-1.02,2.4-1.53,4.16-1.53,1.13,0,2.16,.26,3.08,.78s1.65,1.32,2.18,2.4c.54,1.08,.81,2.46,.81,4.13Zm-5.98-4.19c-.6,0-1.08,.21-1.45,.62-.37,.41-.55,1.07-.55,1.96,0,.72,.16,1.29,.48,1.7s.81,.62,1.47,.62,1.14-.22,1.54-.65c.4-.44,.6-.9,.6-1.39,0-.46-.08-.91-.23-1.35-.15-.44-.38-.8-.69-1.08s-.7-.43-1.17-.43Z"/></g><g><path class="cls-3" d="M385.64,456.41h-11.68v-2.65l4.07-4.12c.83-.86,1.49-1.56,1.98-2.12,.49-.55,.84-1.04,1.05-1.46s.31-.87,.31-1.35c0-.58-.17-1.01-.52-1.28-.34-.27-.78-.4-1.3-.4-.58,0-1.15,.14-1.71,.44-.56,.29-1.17,.71-1.83,1.26l-2.14-2.51c.48-.43,.98-.83,1.52-1.21,.54-.38,1.17-.68,1.9-.92,.73-.24,1.61-.36,2.63-.36,1.1,0,2.05,.2,2.85,.59,.8,.39,1.41,.92,1.84,1.59,.43,.67,.64,1.43,.64,2.29,0,.92-.18,1.76-.53,2.51-.35,.75-.87,1.49-1.56,2.23-.69,.74-1.53,1.56-2.53,2.48l-1.7,1.56v.14h6.72v3.27Z"/><path class="cls-3" d="M398.91,448.2c0,1.76-.19,3.27-.56,4.53-.38,1.26-.99,2.22-1.84,2.9-.85,.68-1.99,1.01-3.42,1.01-2.02,0-3.5-.74-4.43-2.23s-1.39-3.56-1.39-6.21c0-1.76,.19-3.28,.56-4.54,.38-1.27,.99-2.24,1.84-2.91,.85-.67,1.99-1.01,3.42-1.01,2.01,0,3.48,.74,4.42,2.23,.93,1.49,1.4,3.57,1.4,6.23Zm-7.75,0c0,1.76,.13,3.09,.4,3.97,.27,.88,.78,1.32,1.53,1.32s1.26-.44,1.53-1.32c.27-.88,.4-2.21,.4-3.97s-.13-3.07-.4-3.97c-.27-.9-.78-1.35-1.53-1.35s-1.26,.45-1.53,1.35-.4,2.22-.4,3.97Z"/><path class="cls-3" d="M412.22,456.41h-11.68v-2.65l4.07-4.12c.83-.86,1.49-1.56,1.98-2.12,.49-.55,.84-1.04,1.05-1.46s.31-.87,.31-1.35c0-.58-.17-1.01-.52-1.28-.34-.27-.78-.4-1.3-.4-.58,0-1.15,.14-1.71,.44-.56,.29-1.17,.71-1.83,1.26l-2.14-2.51c.48-.43,.98-.83,1.52-1.21,.54-.38,1.17-.68,1.9-.92,.73-.24,1.61-.36,2.63-.36,1.1,0,2.05,.2,2.85,.59,.8,.39,1.41,.92,1.84,1.59,.43,.67,.64,1.43,.64,2.29,0,.92-.18,1.76-.53,2.51-.35,.75-.87,1.49-1.56,2.23-.69,.74-1.53,1.56-2.53,2.48l-1.7,1.56v.14h6.72v3.27Z"/><path class="cls-3" d="M425.49,448.2c0,1.76-.19,3.27-.56,4.53-.38,1.26-.99,2.22-1.84,2.9-.85,.68-1.99,1.01-3.42,1.01-2.02,0-3.5-.74-4.43-2.23s-1.39-3.56-1.39-6.21c0-1.76,.19-3.28,.56-4.54,.38-1.27,.99-2.24,1.84-2.91,.85-.67,1.99-1.01,3.42-1.01,2.01,0,3.48,.74,4.42,2.23,.93,1.49,1.4,3.57,1.4,6.23Zm-7.75,0c0,1.76,.13,3.09,.4,3.97,.27,.88,.78,1.32,1.53,1.32s1.26-.44,1.53-1.32c.27-.88,.4-2.21,.4-3.97s-.13-3.07-.4-3.97c-.27-.9-.78-1.35-1.53-1.35s-1.26,.45-1.53,1.35-.4,2.22-.4,3.97Z"/></g><g><path class="cls-3" d="M514.64,456.41h-11.68v-2.65l4.07-4.12c.83-.86,1.49-1.56,1.98-2.12,.49-.55,.84-1.04,1.05-1.46s.31-.87,.31-1.35c0-.58-.17-1.01-.52-1.28-.34-.27-.78-.4-1.3-.4-.58,0-1.15,.14-1.71,.44-.56,.29-1.17,.71-1.83,1.26l-2.14-2.51c.48-.43,.98-.83,1.52-1.21,.54-.38,1.17-.68,1.9-.92,.73-.24,1.61-.36,2.63-.36,1.1,0,2.05,.2,2.85,.59,.8,.39,1.41,.92,1.84,1.59,.43,.67,.64,1.43,.64,2.29,0,.92-.18,1.76-.53,2.51-.35,.75-.87,1.49-1.56,2.23-.69,.74-1.53,1.56-2.53,2.48l-1.7,1.56v.14h6.72v3.27Z"/><path class="cls-3" d="M527.91,448.2c0,1.76-.19,3.27-.56,4.53-.38,1.26-.99,2.22-1.84,2.9-.85,.68-1.99,1.01-3.42,1.01-2.02,0-3.5-.74-4.43-2.23s-1.39-3.56-1.39-6.21c0-1.76,.19-3.28,.56-4.54,.38-1.27,.99-2.24,1.84-2.91,.85-.67,1.99-1.01,3.42-1.01,2.01,0,3.48,.74,4.42,2.23,.93,1.49,1.4,3.57,1.4,6.23Zm-7.75,0c0,1.76,.13,3.09,.4,3.97,.27,.88,.78,1.32,1.53,1.32s1.26-.44,1.53-1.32c.27-.88,.4-2.21,.4-3.97s-.13-3.07-.4-3.97c-.27-.9-.78-1.35-1.53-1.35s-1.26,.45-1.53,1.35-.4,2.22-.4,3.97Z"/><path class="cls-3" d="M541.22,456.41h-11.68v-2.65l4.07-4.12c.83-.86,1.49-1.56,1.98-2.12,.49-.55,.84-1.04,1.05-1.46s.31-.87,.31-1.35c0-.58-.17-1.01-.52-1.28-.34-.27-.78-.4-1.3-.4-.58,0-1.15,.14-1.71,.44-.56,.29-1.17,.71-1.83,1.26l-2.14-2.51c.48-.43,.98-.83,1.52-1.21,.54-.38,1.17-.68,1.9-.92,.73-.24,1.61-.36,2.63-.36,1.1,0,2.05,.2,2.85,.59,.8,.39,1.41,.92,1.84,1.59,.43,.67,.64,1.43,.64,2.29,0,.92-.18,1.76-.53,2.51-.35,.75-.87,1.49-1.56,2.23-.69,.74-1.53,1.56-2.53,2.48l-1.7,1.56v.14h6.72v3.27Z"/><path class="cls-3" d="M552.03,456.41h-3.96v-8.85c0-.2,0-.5,.01-.9,0-.4,.01-.82,.02-1.26,0-.45,.02-.84,.03-1.2-.12,.15-.29,.33-.51,.54-.21,.21-.41,.39-.6,.54l-1.89,1.54-1.96-2.44,5.45-4.39h3.38v16.42Z"/></g><g><path d="M379.27,88.95c0,.87-.18,1.61-.55,2.24-.36,.62-.85,1.14-1.47,1.55s-1.3,.71-2.04,.9v.08c1.47,.19,2.61,.65,3.41,1.37,.8,.72,1.2,1.71,1.2,2.98,0,1.04-.27,1.99-.81,2.83-.54,.85-1.36,1.53-2.48,2.03s-2.56,.75-4.33,.75c-1.11,0-2.09-.09-2.95-.26s-1.69-.42-2.48-.75v-3.72c.8,.42,1.63,.72,2.5,.92,.87,.2,1.66,.3,2.39,.3,1.32,0,2.23-.21,2.74-.64,.51-.42,.77-1.01,.77-1.75,0-.47-.12-.87-.36-1.2-.24-.33-.67-.58-1.29-.75s-1.48-.26-2.59-.26h-1.27v-3.35h1.3c1.06,0,1.87-.1,2.44-.29,.57-.19,.97-.45,1.21-.79,.23-.34,.35-.72,.35-1.16,0-1.21-.8-1.82-2.39-1.82-.85,0-1.61,.16-2.28,.47s-1.18,.58-1.55,.81l-1.95-2.99c.75-.52,1.61-.96,2.6-1.31,.99-.35,2.22-.53,3.69-.53,1.91,0,3.42,.38,4.52,1.14,1.11,.76,1.66,1.84,1.66,3.22Z"/><path d="M386.81,100.03l.18,.29c-.16,.62-.36,1.33-.6,2.11-.24,.78-.51,1.56-.79,2.34-.29,.78-.57,1.49-.84,2.13h-3.12c.24-1.11,.48-2.29,.71-3.54,.23-1.25,.41-2.36,.53-3.33h3.93Z"/><path d="M402.65,94.13c0,1.99-.21,3.7-.64,5.12s-1.12,2.51-2.08,3.28-2.25,1.14-3.86,1.14c-2.29,0-3.96-.84-5-2.52-1.05-1.68-1.57-4.02-1.57-7.02,0-1.99,.21-3.71,.64-5.13,.42-1.43,1.12-2.53,2.08-3.29,.96-.76,2.25-1.14,3.86-1.14,2.27,0,3.93,.84,4.99,2.52,1.06,1.68,1.59,4.03,1.59,7.05Zm-8.76,0c0,1.99,.15,3.49,.46,4.49,.3,1,.88,1.5,1.73,1.5s1.43-.5,1.73-1.5c.3-1,.46-2.49,.46-4.49s-.15-3.47-.46-4.48c-.3-1.01-.88-1.52-1.73-1.52s-1.43,.51-1.73,1.52c-.3,1.01-.46,2.51-.46,4.48Z"/><path d="M417.02,88.95c0,.87-.18,1.61-.55,2.24-.36,.62-.85,1.14-1.47,1.55s-1.3,.71-2.04,.9v.08c1.47,.19,2.61,.65,3.41,1.37,.8,.72,1.2,1.71,1.2,2.98,0,1.04-.27,1.99-.81,2.83-.54,.85-1.36,1.53-2.48,2.03s-2.56,.75-4.33,.75c-1.11,0-2.09-.09-2.95-.26s-1.69-.42-2.48-.75v-3.72c.8,.42,1.63,.72,2.5,.92,.87,.2,1.66,.3,2.39,.3,1.32,0,2.23-.21,2.74-.64,.51-.42,.77-1.01,.77-1.75,0-.47-.12-.87-.36-1.2-.24-.33-.67-.58-1.29-.75s-1.48-.26-2.59-.26h-1.27v-3.35h1.3c1.06,0,1.87-.1,2.44-.29,.57-.19,.97-.45,1.21-.79,.23-.34,.35-.72,.35-1.16,0-1.21-.8-1.82-2.39-1.82-.85,0-1.61,.16-2.28,.47s-1.18,.58-1.55,.81l-1.95-2.99c.75-.52,1.61-.96,2.6-1.31,.99-.35,2.22-.53,3.69-.53,1.91,0,3.42,.38,4.52,1.14,1.11,.76,1.66,1.84,1.66,3.22Z"/><path d="M419.52,95.53c0-1.06,.08-2.12,.23-3.17,.16-1.06,.43-2.05,.82-2.98,.39-.93,.94-1.75,1.65-2.47,.71-.72,1.62-1.28,2.73-1.69,1.11-.41,2.46-.61,4.06-.61,.36,0,.8,.02,1.31,.05,.51,.04,.93,.09,1.26,.16v3.48c-.35-.07-.72-.12-1.13-.17s-.86-.07-1.37-.07c-1.4,0-2.5,.22-3.28,.65-.78,.43-1.34,1.05-1.68,1.85-.34,.8-.53,1.73-.58,2.78h.16c.35-.61,.82-1.12,1.43-1.54,.61-.42,1.41-.62,2.42-.62,1.63,0,2.91,.52,3.85,1.56s1.4,2.5,1.4,4.39c0,2.06-.58,3.67-1.73,4.81s-2.72,1.72-4.69,1.72c-1.3,0-2.47-.29-3.5-.87-1.03-.58-1.85-1.47-2.46-2.68-.61-1.2-.91-2.73-.91-4.59Zm6.79,4.6c.66,0,1.19-.23,1.6-.7,.41-.47,.61-1.21,.61-2.21,0-.8-.17-1.43-.52-1.9s-.89-.7-1.64-.7-1.36,.24-1.79,.73c-.43,.48-.65,1.01-.65,1.59,0,.5,.09,1,.26,1.49,.17,.49,.44,.9,.79,1.22,.35,.32,.8,.48,1.34,.48Z"/></g><g><path d="M505.27,61.95c0,.87-.18,1.61-.55,2.24-.36,.62-.85,1.14-1.47,1.55s-1.3,.71-2.04,.9v.08c1.47,.19,2.61,.65,3.41,1.37,.8,.72,1.2,1.71,1.2,2.98,0,1.04-.27,1.99-.81,2.83-.54,.85-1.36,1.53-2.48,2.03s-2.56,.75-4.33,.75c-1.11,0-2.09-.09-2.95-.26s-1.69-.42-2.48-.75v-3.72c.8,.42,1.63,.72,2.5,.92,.87,.2,1.66,.3,2.39,.3,1.32,0,2.23-.21,2.74-.64,.51-.42,.77-1.01,.77-1.75,0-.47-.12-.87-.36-1.2-.24-.33-.67-.58-1.29-.75s-1.48-.26-2.59-.26h-1.27v-3.35h1.3c1.06,0,1.87-.1,2.44-.29,.57-.19,.97-.45,1.21-.79,.23-.34,.35-.72,.35-1.16,0-1.21-.8-1.82-2.39-1.82-.85,0-1.61,.16-2.28,.47s-1.18,.58-1.55,.81l-1.95-2.99c.75-.52,1.61-.96,2.6-1.31,.99-.35,2.22-.53,3.69-.53,1.91,0,3.42,.38,4.52,1.14,1.11,.76,1.66,1.84,1.66,3.22Z"/><path d="M512.81,73.03l.18,.29c-.16,.62-.36,1.33-.6,2.11-.24,.78-.51,1.56-.79,2.34-.29,.78-.57,1.49-.84,2.13h-3.12c.24-1.11,.48-2.29,.71-3.54,.23-1.25,.41-2.36,.53-3.33h3.93Z"/><path d="M528,61.95c0,.87-.18,1.61-.55,2.24-.36,.62-.85,1.14-1.47,1.55s-1.3,.71-2.04,.9v.08c1.47,.19,2.61,.65,3.41,1.37,.8,.72,1.2,1.71,1.2,2.98,0,1.04-.27,1.99-.81,2.83-.54,.85-1.36,1.53-2.48,2.03s-2.56,.75-4.33,.75c-1.11,0-2.09-.09-2.95-.26s-1.69-.42-2.48-.75v-3.72c.8,.42,1.63,.72,2.5,.92,.87,.2,1.66,.3,2.39,.3,1.32,0,2.23-.21,2.74-.64,.51-.42,.77-1.01,.77-1.75,0-.47-.12-.87-.36-1.2-.24-.33-.67-.58-1.29-.75s-1.48-.26-2.59-.26h-1.27v-3.35h1.3c1.06,0,1.87-.1,2.44-.29,.57-.19,.97-.45,1.21-.79,.23-.34,.35-.72,.35-1.16,0-1.21-.8-1.82-2.39-1.82-.85,0-1.61,.16-2.28,.47s-1.18,.58-1.55,.81l-1.95-2.99c.75-.52,1.61-.96,2.6-1.31,.99-.35,2.22-.53,3.69-.53,1.91,0,3.42,.38,4.52,1.14,1.11,.76,1.66,1.84,1.66,3.22Z"/><path d="M540.89,76.41h-4.47v-10.01c0-.23,0-.56,.01-1.01,0-.45,.02-.93,.03-1.43,0-.5,.02-.95,.04-1.35-.14,.17-.33,.38-.57,.61-.24,.23-.47,.44-.68,.61l-2.13,1.74-2.21-2.76,6.16-4.96h3.82v18.56Z"/><path d="M559.22,72.69h-2.13v3.72h-4.34v-3.72h-7.7v-3.17l7.96-11.67h4.08v11.46h2.13v3.38Zm-6.47-3.38v-2.68c0-.35,0-.77,.03-1.27,.02-.5,.03-.96,.05-1.38s.04-.68,.05-.78h-.13c-.16,.36-.31,.69-.47,.97-.16,.29-.35,.6-.57,.95l-2.78,4.19h3.82Z"/></g><g><path d="M253.95,140.41h-13.21v-2.99l4.6-4.65c.94-.97,1.68-1.77,2.24-2.39s.95-1.17,1.18-1.65c.23-.48,.35-.98,.35-1.52,0-.66-.2-1.14-.58-1.44-.39-.3-.88-.46-1.47-.46-.66,0-1.3,.17-1.94,.49-.63,.33-1.32,.81-2.07,1.43l-2.42-2.83c.54-.48,1.11-.94,1.72-1.36,.61-.42,1.32-.77,2.14-1.04,.82-.27,1.82-.4,2.98-.4,1.25,0,2.32,.22,3.22,.66s1.59,1.04,2.08,1.79c.48,.75,.73,1.62,.73,2.59,0,1.04-.2,1.99-.6,2.83-.4,.85-.99,1.69-1.77,2.52-.78,.83-1.73,1.77-2.86,2.81l-1.92,1.77v.16h7.59v3.69Z"/><path d="M260.81,137.03l.18,.29c-.16,.62-.36,1.33-.6,2.11-.24,.78-.51,1.56-.79,2.34-.29,.78-.57,1.49-.84,2.13h-3.12c.24-1.11,.48-2.29,.71-3.54,.23-1.25,.41-2.36,.53-3.33h3.93Z"/><path d="M263.46,132.53c0-1.06,.08-2.12,.23-3.17,.16-1.06,.43-2.05,.82-2.98,.39-.93,.94-1.75,1.65-2.47,.71-.72,1.62-1.28,2.73-1.69,1.11-.41,2.46-.61,4.06-.61,.36,0,.8,.02,1.31,.05,.51,.04,.93,.09,1.26,.16v3.48c-.35-.07-.72-.12-1.13-.17s-.86-.07-1.37-.07c-1.4,0-2.5,.22-3.28,.65-.78,.43-1.34,1.05-1.68,1.85-.34,.8-.53,1.73-.58,2.78h.16c.35-.61,.82-1.12,1.43-1.54,.61-.42,1.41-.62,2.42-.62,1.63,0,2.91,.52,3.85,1.56s1.4,2.5,1.4,4.39c0,2.06-.58,3.67-1.73,4.81s-2.72,1.72-4.69,1.72c-1.3,0-2.47-.29-3.5-.87-1.03-.58-1.85-1.47-2.46-2.68-.61-1.2-.91-2.73-.91-4.59Zm6.79,4.6c.66,0,1.19-.23,1.6-.7,.41-.47,.61-1.21,.61-2.21,0-.8-.17-1.43-.52-1.9s-.89-.7-1.64-.7-1.36,.24-1.79,.73c-.43,.48-.65,1.01-.65,1.59,0,.5,.09,1,.26,1.49,.17,.49,.44,.9,.79,1.22,.35,.32,.8,.48,1.34,.48Z"/><path d="M280.36,140.41l6.68-14.87h-8.63v-3.69h13.34v2.7l-6.79,15.86h-4.6Z"/><path d="M293.52,132.53c0-1.06,.08-2.12,.23-3.17,.16-1.06,.43-2.05,.82-2.98,.39-.93,.94-1.75,1.65-2.47,.71-.72,1.62-1.28,2.73-1.69,1.11-.41,2.46-.61,4.06-.61,.36,0,.8,.02,1.31,.05,.51,.04,.93,.09,1.26,.16v3.48c-.35-.07-.72-.12-1.13-.17s-.86-.07-1.37-.07c-1.4,0-2.5,.22-3.28,.65-.78,.43-1.34,1.05-1.68,1.85-.34,.8-.53,1.73-.58,2.78h.16c.35-.61,.82-1.12,1.43-1.54,.61-.42,1.41-.62,2.42-.62,1.63,0,2.91,.52,3.85,1.56s1.4,2.5,1.4,4.39c0,2.06-.58,3.67-1.73,4.81s-2.72,1.72-4.69,1.72c-1.3,0-2.47-.29-3.5-.87-1.03-.58-1.85-1.47-2.46-2.68-.61-1.2-.91-2.73-.91-4.59Zm6.79,4.6c.66,0,1.19-.23,1.6-.7,.41-.47,.61-1.21,.61-2.21,0-.8-.17-1.43-.52-1.9s-.89-.7-1.64-.7-1.36,.24-1.79,.73c-.43,.48-.65,1.01-.65,1.59,0,.5,.09,1,.26,1.49,.17,.49,.44,.9,.79,1.22,.35,.32,.8,.48,1.34,.48Z"/></g><rect class="cls-2" x="64" y="34" width="14" height="14"/><rect class="cls-1" x="64" y="71" width="14" height="14"/></g><g id="Labels-CHT"><g><path d="M93.45,41.4c-.36,1.67-.91,3.51-1.56,4.9,.36,.21,.82,.57,1.52,.99,1.35,.82,3.06,.95,5.32,.95,2.43,0,5.51-.19,7.64-.4-.19,.38-.4,1.04-.44,1.46-1.41,.09-5.01,.21-7.26,.21-2.51,0-4.16-.21-5.57-1.04-.76-.46-1.46-1.1-1.9-1.1s-1.06,1.2-1.61,2.39l-.97-1.27c.67-.95,1.33-1.73,1.9-2.11,.57-1.08,1.06-2.58,1.37-3.95h-2.49c.53-1.12,1.12-2.74,1.63-4.24h-2.11v-1.27h3.89c-.48,1.37-1.06,2.96-1.58,4.28h1.31l.25-.06,.65,.27Zm-2.56-5.47c-.23-.84-.67-2.13-.97-3.12l1.24-.38c.34,.99,.78,2.24,1.01,3.06l-1.27,.44Zm4.37,2.15c-.46,.59-.93,1.12-1.41,1.6-.17-.28-.61-.93-.87-1.22,1.65-1.44,3.08-3.71,3.93-6.1l1.29,.36c-.34,.93-.76,1.86-1.24,2.74h3.78c-.28-.72-.74-1.61-1.14-2.34l1.29-.38c.53,.84,1.1,1.92,1.39,2.72h3.32v1.24h-4.08v1.84h3.46v1.2h-3.46v1.88h3.42v1.2h-3.42v1.98h4.41v1.22h-9.31v1.1h-1.37v-9.02Zm4.92-1.39h-3.55v1.84h3.55v-1.84Zm0,3.04h-3.55v1.88h3.55v-1.88Zm0,3.08h-3.55v1.98h3.55v-1.98Z"/><path d="M114.16,36.86c-.59,.97-1.31,1.94-2.09,2.87v9.99h-1.41v-8.44c-.72,.74-1.44,1.43-2.15,1.98-.21-.29-.7-.89-.99-1.18,1.96-1.39,4.01-3.57,5.32-5.72l1.31,.49Zm-.74-4.01c-1.24,1.67-3.17,3.51-4.86,4.71-.21-.3-.59-.86-.84-1.12,1.58-1.06,3.4-2.77,4.35-4.12l1.35,.53Zm11.64,7.16h-2.87v7.85c0,.87-.21,1.31-.84,1.54-.65,.21-1.71,.21-3.57,.21-.06-.38-.25-.97-.46-1.37,1.35,.04,2.6,.04,2.96,.02,.36-.02,.47-.1,.47-.42v-7.83h-6.34v-1.35h10.64v1.35Zm-.55-5.21h-9.27v-1.33h9.27v1.33Z"/><path d="M143.06,35.71v8.89h-1.44v-1.08h-5.45v6.16h-1.46v-6.16h-5.43v1.18h-1.39v-8.98h6.82v-3.38h1.46v3.38h6.9Zm-8.36,6.42v-5.03h-5.43v5.03h5.43Zm6.92,0v-5.03h-5.45v5.03h5.45Z"/><path d="M101.93,83.75c2.07,0,2.37-.63,2.64-3.68,.38,.27,1.01,.49,1.42,.57-.36,3.48-.99,4.5-4.08,4.5h-7.1c-3.04,0-3.99-.53-3.99-2.87v-9.5h1.42v3.12h9.92v-4.98h-12.35v-1.39h13.79v8.7h-1.44v-.95h-9.92v5.02c0,1.2,.42,1.46,2.47,1.46h7.22Z"/><path d="M113.5,69.41c-.44,.82-1.06,1.69-1.73,2.53,1.06,2.05,1.25,4.27,1.25,6.55,0,2.7-.19,5.09-.93,6.16-.25,.34-.61,.55-1.03,.63-.65,.13-1.39,.13-2.18,.09-.02-.46-.17-.99-.42-1.39,.91,.08,1.62,.06,2.05,.02,.27-.04,.44-.13,.59-.34,.46-.63,.63-2.76,.63-5.21,0-.34,0-.68-.02-1.03-.89,1.44-2.05,2.79-3.13,3.67-.15-.36-.51-.91-.8-1.2,1.41-.93,2.91-2.79,3.74-4.56-.13-.82-.34-1.6-.68-2.36-.78,.85-1.6,1.61-2.38,2.2-.17-.38-.51-.95-.8-1.27,.82-.49,1.73-1.27,2.55-2.15-.49-.74-1.12-1.48-1.92-2.2l.95-.78c.74,.65,1.33,1.33,1.82,1.99,.55-.66,1.06-1.39,1.41-2.05l1.03,.68Zm10.73,11.47c-.85,1.12-2.13,2.01-3.59,2.72,1.46,.44,3.08,.72,4.71,.89-.29,.27-.65,.78-.82,1.12-1.9-.25-3.82-.7-5.53-1.31-1.75,.63-3.67,1.06-5.6,1.37-.11-.32-.42-.88-.65-1.12,1.61-.19,3.25-.49,4.71-.93-1.12-.53-2.09-1.18-2.83-1.92l.57-.25h-1.25v-1.08h9.21l.25-.06,.82,.57Zm-7.35-10.03h-3.15v-1.1h3.15v-1.41h1.27v3.59l.99-.53c.55,.57,1.18,1.25,1.5,1.69h3.76v.93h-4.1v.89h3.63v.84h-3.63v.97h3.63v.84h-3.63v.99h4.33v.93h-8.62v.51h-1.23v-5.01c-.3,.36-.59,.64-.87,.93-.21-.21-.68-.66-.97-.87,1.04-.87,2.03-2.17,2.66-3.44l1.2,.38c-.17,.38-.38,.74-.61,1.12h2.95c-.3-.38-.65-.8-.97-1.12v.04h-1.27v-1.16Zm2.15,3.17h-3.02v.89h3.02v-.89Zm0,1.73h-3.02v.97h3.02v-.97Zm0,1.8h-3.02v.99h3.02v-.99Zm-2.94,3.89c.74,.65,1.77,1.2,2.96,1.65,1.18-.46,2.18-1.01,2.96-1.65h-5.93Zm5.41-9.4h-1.33v-3.71h1.33v1.37h3.63v1.08h-3.63v1.25Z"/><path d="M132.37,73.03c-.44,.78-.99,1.58-1.56,2.34v10.3h-1.39v-8.7c-.72,.78-1.48,1.48-2.22,2.05-.11-.29-.49-1.01-.74-1.35,1.71-1.25,3.55-3.17,4.67-5.13l1.23,.49Zm-.23-4.12c-1.12,1.62-2.96,3.38-4.64,4.5-.15-.32-.49-.85-.74-1.14,1.5-.97,3.19-2.55,4.03-3.88l1.35,.51Zm11.89,11.57h-2.83v3.65c0,.76-.17,1.12-.72,1.35-.57,.21-1.46,.23-2.89,.23-.06-.4-.27-.91-.46-1.29,1.06,.04,2.01,.04,2.28,.02,.3-.02,.38-.09,.38-.34v-3.61h-7.62v-1.21h7.62v-1.62h-7.18v-1.22h11.08v1.22h-2.49v1.62h2.83v1.21Zm-1.23-5.32h-9.02v-6.23h9.02v6.23Zm-7.98,5.64c.87,.78,1.92,1.9,2.41,2.64l-1.08,.76c-.46-.76-1.48-1.92-2.34-2.75l1.01-.65Zm6.57-10.81h-6.25v1.52h6.25v-1.52Zm0,2.55h-6.25v1.54h6.25v-1.54Z"/></g></g></svg>