<?xml version="1.0" encoding="UTF-8"?><svg xmlns="http://www.w3.org/2000/svg" viewBox="0 0 800 480"><defs><style>.cls-1{fill:#0071bc;}.cls-2{fill:#999;}.cls-3{fill:#98d5f4;}.cls-4{fill:#333;}.cls-5{fill:none;stroke:gray;stroke-miterlimit:10;stroke-width:.93px;}</style></defs><g id="_021"><line class="cls-5" x1="336.01" y1="380.09" x2="336.01" y2="100.09"/><g><rect class="cls-3" x="336" y="244.05" width="229.95" height="72.95"/><rect class="cls-1" x="336" y="163" width="292" height="72.95"/></g></g><g id="Numbers"><g><path d="M660.25,189.61c1.14,0,2.17,.16,3.08,.49,.91,.33,1.63,.83,2.17,1.5,.54,.67,.81,1.5,.81,2.48,0,1.13-.31,2.05-.92,2.77-.62,.72-1.4,1.3-2.35,1.76,.62,.35,1.23,.75,1.81,1.2s1.06,.98,1.44,1.6c.38,.62,.57,1.33,.57,2.15,0,1.53-.58,2.76-1.73,3.7-1.15,.95-2.79,1.42-4.9,1.42s-3.86-.46-4.97-1.38c-1.11-.92-1.66-2.14-1.66-3.67,0-1.28,.33-2.3,1-3.05s1.5-1.37,2.48-1.86c-.8-.52-1.48-1.15-2.05-1.88-.57-.74-.86-1.66-.86-2.77,0-.97,.27-1.79,.82-2.46,.55-.67,1.28-1.17,2.2-1.5,.92-.33,1.94-.49,3.07-.49Zm-2.57,13.78c0,.61,.21,1.1,.64,1.48,.42,.38,1.04,.57,1.86,.57,.88,0,1.54-.18,1.96-.55,.42-.36,.64-.84,.64-1.43,0-.43-.12-.82-.38-1.16-.25-.34-.56-.63-.92-.88-.36-.25-.7-.47-1.01-.66l-.34-.21c-.71,.35-1.3,.75-1.75,1.2-.46,.45-.69,1-.69,1.64Zm2.55-10.58c-.54,0-.99,.15-1.35,.44-.36,.29-.55,.69-.55,1.2,0,.54,.19,.99,.56,1.35,.37,.36,.82,.68,1.34,.94,.49-.23,.93-.51,1.33-.86,.4-.35,.6-.82,.6-1.43,0-.5-.19-.9-.56-1.2-.37-.29-.83-.44-1.37-.44Z"/><path d="M681.83,199.13c0,1.99-.21,3.7-.64,5.12-.42,1.42-1.12,2.51-2.08,3.28s-2.25,1.14-3.86,1.14c-2.29,0-3.96-.84-5-2.52-1.05-1.68-1.57-4.02-1.57-7.02,0-1.99,.21-3.7,.64-5.13,.42-1.43,1.12-2.53,2.08-3.29,.96-.76,2.25-1.14,3.86-1.14,2.27,0,3.93,.84,4.99,2.52,1.06,1.68,1.59,4.03,1.59,7.05Zm-8.76,0c0,1.99,.15,3.49,.46,4.49,.3,1,.88,1.5,1.73,1.5s1.43-.5,1.73-1.5c.3-1,.46-2.49,.46-4.49s-.15-3.47-.46-4.48c-.3-1.01-.88-1.52-1.73-1.52s-1.43,.51-1.73,1.52c-.3,1.01-.46,2.51-.46,4.48Z"/><path d="M687.94,189.58c1.46,0,2.59,.51,3.41,1.52,.81,1.01,1.22,2.44,1.22,4.28s-.38,3.27-1.14,4.3c-.76,1.03-1.92,1.55-3.48,1.55-1.42,0-2.53-.52-3.33-1.55-.8-1.03-1.2-2.47-1.2-4.3s.37-3.26,1.12-4.28c.75-1.01,1.88-1.52,3.41-1.52Zm.05,2.86c-.4,0-.68,.25-.84,.75-.17,.5-.25,1.24-.25,2.21s.08,1.72,.25,2.24,.45,.78,.84,.78,.68-.26,.85-.78c.16-.52,.25-1.27,.25-2.24s-.08-1.71-.25-2.21c-.17-.5-.45-.75-.85-.75Zm13.57-2.6l-10.3,18.56h-3.38l10.3-18.56h3.38Zm-.1,7.15c1.46,0,2.59,.51,3.41,1.52s1.22,2.44,1.22,4.28-.38,3.27-1.14,4.3-1.92,1.55-3.48,1.55c-1.42,0-2.53-.52-3.33-1.55-.8-1.03-1.2-2.47-1.2-4.3s.37-3.26,1.12-4.28,1.88-1.52,3.41-1.52Zm.05,2.83c-.4,0-.68,.26-.84,.78-.17,.52-.25,1.26-.25,2.21s.08,1.69,.25,2.21c.16,.52,.45,.78,.84,.78,.73,0,1.09-1,1.09-2.99s-.36-2.99-1.09-2.99Z"/></g><g><path d="M653.62,284.53c0-1.06,.08-2.11,.23-3.17,.16-1.06,.43-2.05,.82-2.98s.94-1.75,1.65-2.47c.71-.72,1.62-1.28,2.73-1.69,1.11-.41,2.46-.61,4.06-.61,.36,0,.8,.02,1.31,.05,.51,.04,.93,.09,1.26,.16v3.48c-.35-.07-.72-.13-1.13-.17-.41-.04-.86-.06-1.37-.06-1.4,0-2.5,.22-3.28,.65-.78,.43-1.34,1.05-1.68,1.85-.34,.8-.53,1.73-.58,2.78h.16c.35-.61,.82-1.12,1.43-1.53,.61-.42,1.41-.62,2.42-.62,1.63,0,2.91,.52,3.85,1.56s1.4,2.5,1.4,4.39c0,2.06-.58,3.67-1.73,4.81s-2.72,1.72-4.69,1.72c-1.3,0-2.47-.29-3.5-.87-1.03-.58-1.85-1.47-2.46-2.68-.61-1.2-.91-2.73-.91-4.59Zm6.79,4.6c.66,0,1.19-.23,1.6-.7,.41-.47,.61-1.2,.61-2.21,0-.8-.17-1.43-.52-1.9-.35-.47-.89-.7-1.64-.7s-1.36,.24-1.79,.73c-.43,.49-.65,1.01-.65,1.59,0,.5,.09,1,.26,1.5,.17,.49,.44,.9,.79,1.22,.35,.32,.8,.48,1.34,.48Z"/><path d="M681.18,277.95c0,.87-.18,1.61-.55,2.24-.36,.62-.85,1.14-1.47,1.55s-1.3,.71-2.04,.9v.08c1.47,.19,2.61,.65,3.41,1.37,.8,.72,1.2,1.71,1.2,2.98,0,1.04-.27,1.98-.81,2.83-.54,.85-1.36,1.53-2.48,2.03s-2.56,.75-4.33,.75c-1.11,0-2.09-.09-2.95-.26s-1.69-.42-2.48-.75v-3.72c.8,.42,1.63,.72,2.5,.92,.87,.2,1.66,.3,2.39,.3,1.32,0,2.23-.21,2.74-.64,.51-.42,.77-1.01,.77-1.75,0-.47-.12-.87-.36-1.2-.24-.33-.67-.58-1.29-.75s-1.48-.26-2.59-.26h-1.27v-3.35h1.3c1.06,0,1.87-.1,2.44-.29,.57-.19,.97-.45,1.21-.79,.23-.34,.35-.72,.35-1.16,0-1.21-.8-1.82-2.39-1.82-.85,0-1.61,.16-2.28,.47s-1.18,.58-1.55,.81l-1.95-2.99c.75-.52,1.61-.96,2.6-1.31,.99-.35,2.22-.53,3.69-.53,1.91,0,3.42,.38,4.52,1.14,1.11,.76,1.66,1.84,1.66,3.22Z"/><path d="M687.94,273.58c1.46,0,2.59,.51,3.41,1.52,.81,1.01,1.22,2.44,1.22,4.28s-.38,3.27-1.14,4.3c-.76,1.03-1.92,1.55-3.48,1.55-1.42,0-2.53-.52-3.33-1.55-.8-1.03-1.2-2.47-1.2-4.3s.37-3.26,1.12-4.28c.75-1.01,1.88-1.52,3.41-1.52Zm.05,2.86c-.4,0-.68,.25-.84,.75-.17,.5-.25,1.24-.25,2.21s.08,1.72,.25,2.24,.45,.78,.84,.78,.68-.26,.85-.78c.16-.52,.25-1.27,.25-2.24s-.08-1.71-.25-2.21c-.17-.5-.45-.75-.85-.75Zm13.57-2.6l-10.3,18.56h-3.38l10.3-18.56h3.38Zm-.1,7.15c1.46,0,2.59,.51,3.41,1.52s1.22,2.44,1.22,4.28-.38,3.27-1.14,4.3-1.92,1.55-3.48,1.55c-1.42,0-2.53-.52-3.33-1.55-.8-1.03-1.2-2.47-1.2-4.3s.37-3.26,1.12-4.28,1.88-1.52,3.41-1.52Zm.05,2.83c-.4,0-.68,.26-.84,.78-.17,.52-.25,1.26-.25,2.21s.08,1.69,.25,2.21c.16,.52,.45,.78,.84,.78,.73,0,1.09-1,1.09-2.99s-.36-2.99-1.09-2.99Z"/></g></g><g id="Labels-CHT"><g><path class="cls-4" d="M203.8,203.23c-.15,2.37-.55,4.98-1.61,6.74-.38-.4-1.35-1.16-1.84-1.42,1.22-2.18,1.29-5.38,1.29-7.85v-6.86h.02c2.26-.27,4.81-.76,6.44-1.35l1.44,1.92c-1.65,.53-3.7,.89-5.66,1.12v1.35h4.88v6.35h-4.96Zm.08-4.33v2.32h2.7v-2.32h-2.7Zm14.46,1.75h-1.73v9.1h-2.24v-9.1h-1.98c-.08,3.02-.72,6.92-3.38,9.29-.36-.44-1.29-1.23-1.77-1.54,2.62-2.36,2.85-5.89,2.85-8.62v-5.91c2.32-.3,4.88-.85,6.54-1.5l1.46,1.96c-1.65,.57-3.72,.99-5.68,1.25v2.89h5.93v2.18Z"/><path class="cls-4" d="M226.73,196.54c-.21,.51-.47,1.01-.76,1.5h8.83v9.38c0,1.12-.21,1.73-.99,2.07-.74,.36-1.82,.38-3.36,.38-.1-.63-.4-1.58-.68-2.18,.97,.06,2.07,.06,2.39,.06,.32-.02,.44-.11,.44-.38v-1.14h-7.14c-.32,1.42-.93,2.81-2.11,3.78-.3-.47-1.16-1.42-1.63-1.73,1.63-1.42,1.77-3.46,1.77-5.22v-1.54c-.72,.76-1.48,1.46-2.36,2.07-.34-.51-1.04-1.33-1.48-1.75,1.92-1.27,3.44-3.19,4.56-5.3h-4.12v-2.13h5.09c.3-.78,.55-1.54,.76-2.3l2.34,.53c-.19,.59-.4,1.18-.61,1.77h9.27v2.13h-10.2Zm5.87,7.81v-1.23h-6.82c0,.4-.02,.8-.04,1.23h6.86Zm0-4.31h-6.82v1.2h6.82v-1.2Z"/><path class="cls-4" d="M249.36,205.18c2.28,.8,5.28,1.96,6.86,2.79l-1.06,1.94c-1.67-.95-5.15-2.41-7.6-3.31l.86-1.42h-.68c-.91,2.34-2.94,3.84-8.02,4.67-.15-.61-.68-1.56-1.12-2.03,3.82-.51,5.6-1.37,6.5-2.64h-5.66v-1.92h6.4c.06-.3,.11-.65,.15-.99h-6.99v-1.96h7.29v-1.01h-5.62v-1.9h5.62v-.97h-6.71v-1.99h3.61c-.29-.57-.68-1.18-1.06-1.67l2.01-.8c.59,.67,1.18,1.58,1.42,2.22l-.55,.25h4.18c.48-.74,1.04-1.73,1.35-2.47l2.43,.63c-.42,.67-.86,1.29-1.27,1.84h3.65v1.99h-6.72v.97h5.81v1.9h-5.81v1.01h7.56v1.96h-7.81c-.04,.34-.09,.67-.15,.99h7.41v1.92h-6.27Z"/><path class="cls-4" d="M274.57,192.93v17h-2.24v-.8h-11.82v.8h-2.15v-17h16.21Zm-2.24,14.19v-12.16h-2.36c.61,.3,1.25,.74,1.6,1.1l-.76,.8h.91v1.6h-3.4c.09,1.06,.21,2.05,.36,2.91,.38-.74,.67-1.52,.89-2.37l1.73,.34c-.46,1.65-1.14,3.1-2,4.35,.25,.57,.53,.93,.87,1.01,.21,.08,.36-.66,.44-1.77,.34,.34,1.03,.85,1.41,1.06-.3,2.34-1.29,3.06-2.55,2.49-.57-.19-1.04-.63-1.42-1.25-.61,.61-1.25,1.16-1.98,1.61-.25-.34-.85-1.06-1.23-1.37,.21-.11,.42-.25,.61-.38-1.52,.23-3,.44-4.25,.65l-.21-1.65c1.39-.15,3.36-.38,5.34-.65l.04,.95c.34-.29,.65-.61,.95-.95-.4-1.37-.65-3.1-.82-4.98h-5.28v-1.6h5.15c-.04-.53-.06-1.06-.09-1.61h1.86c.02,.55,.04,1.08,.08,1.61h2.05c-.4-.34-.97-.74-1.46-1.01l.89-.89h-9.18v12.16h11.82Zm-6.4-4.24h-4.24v-3.61h4.24v3.61Zm-1.52-2.41h-1.27v1.22h1.27v-1.22Z"/><path class="cls-4" d="M289.43,206.59c1.77,.53,3.7,1.22,5.01,1.73l-1.99,1.6c-1.46-.68-4.08-1.61-6.1-2.2l1.58-1.12h-5.15l1.44,1.01c-1.54,.89-3.97,1.8-5.89,2.28-.42-.48-1.2-1.18-1.71-1.61,1.63-.36,3.57-1.03,4.86-1.67h-2.94v-8.42h13.89v8.42h-3Zm2.34-9.12h-12.37v-4.75h12.37v4.75Zm-10.98,3.06h9.31v-.82h-9.31v.82Zm0,2.24h9.31v-.82h-9.31v.82Zm0,2.28h9.31v-.84h-9.31v.84Zm8.57-10.56h-7.67v1.23h7.67v-1.23Z"/><path class="cls-4" d="M313.16,206.29v2.28h-17.27v-2.28h7.24v-9.82h-6.21v-2.36h15.18v2.36h-6.38v9.82h7.45Z"/><path class="cls-4" d="M225.35,281.91c-.04-.23-.09-.51-.15-.82-3.8,.57-4.48,.7-4.9,.91-.11-.4-.46-1.41-.7-1.98,.48-.11,.89-.53,1.48-1.23,.23-.27,.67-.82,1.2-1.58-1.42,.17-1.84,.29-2.13,.42-.11-.4-.44-1.35-.67-1.86,.38-.11,.7-.48,1.08-1.04,.4-.55,1.6-2.66,2.26-4.67l1.96,.82c-.68,1.56-1.6,3.19-2.55,4.54l1.25-.09c.46-.8,.91-1.63,1.27-2.47l1.86,1.14c-1.06,1.96-2.45,3.99-3.88,5.66l1.99-.25c-.13-.51-.3-1.03-.46-1.48l1.62-.51c.47,1.25,.99,2.91,1.18,3.91l-1.73,.59Zm-3.17,.99c-.13,1.77-.47,3.65-.87,4.86-.4-.23-1.29-.49-1.77-.65,.46-1.14,.68-2.91,.8-4.5l1.84,.28Zm1.94-.32c.23,1.27,.46,2.85,.51,3.91l-1.73,.34c-.02-1.04-.21-2.7-.4-3.93l1.61-.32Zm1.88-.59c.34,.93,.7,2.11,.87,2.89l-1.6,.57c-.13-.8-.49-2.01-.82-2.96l1.54-.49Zm11.34,3.38v2.07h-10.87v-2.07h4.29v-2.62h-3.42v-2.01h9.21v2.01h-3.51v2.62h4.29Zm-6.84-11.66c-.57,.99-1.22,2.05-1.82,2.94,.8,1.04,1.56,2.22,1.96,3.04l-1.8,.7c-.42-.99-1.25-2.39-2.24-3.7,.78-1.14,1.56-2.53,2-3.44l1.92,.46Zm6.63-.76h-10.24v-2.01h10.24v2.01Zm-5.07,7.37c-.42-.97-1.31-2.37-2.3-3.67,.76-1.1,1.58-2.47,2.01-3.36l1.9,.44c-.57,.97-1.23,2.03-1.82,2.91,.78,1.01,1.6,2.17,1.99,2.94l-1.79,.74Zm3.34,.08c-.46-.99-1.42-2.41-2.51-3.7,.8-1.12,1.63-2.53,2.09-3.44l1.94,.46c-.59,1.01-1.27,2.05-1.9,2.94,.86,1.01,1.73,2.17,2.17,2.96l-1.79,.78Z"/><path class="cls-4" d="M245.18,284.08c-2.09,.74-4.37,1.46-6.19,2.05l-.51-2.3c.67-.17,1.44-.38,2.32-.63v-4.46h-1.92v-2.07h1.92v-3.34h-2.09v-2.11h6.27v2.11h-2.03v3.34h1.71v2.07h-1.71v3.8c.63-.19,1.25-.38,1.86-.59l.38,2.13Zm11.28,1.16v2.05h-12.21v-2.05h5.24v-1.8h-3.93v-2.03h3.93v-1.63h-3.8v-8.83h9.92v8.83h-3.82v1.63h4.03v2.03h-4.03v1.8h4.67Zm-8.74-10.81h1.96v-1.58h-1.96v1.58Zm0,3.42h1.96v-1.63h-1.96v1.63Zm5.74-5h-1.88v1.58h1.88v-1.58Zm0,3.36h-1.88v1.63h1.88v-1.63Z"/><path class="cls-4" d="M260.21,282.9c-.13,1.67-.44,3.48-.84,4.64-.38-.21-1.22-.48-1.69-.59,.46-1.12,.67-2.81,.78-4.33l1.75,.28Zm-2.51-7.26c.38-.11,.7-.46,1.1-1.03,.38-.51,1.58-2.6,2.26-4.58l2.07,.84c-.68,1.54-1.6,3.15-2.56,4.48l1.33-.1c.49-.8,.99-1.65,1.37-2.51l1.88,1.2c-1.08,1.94-2.49,3.89-3.95,5.53l1.99-.28c-.17-.46-.34-.89-.53-1.27l1.52-.57c.61,1.2,1.2,2.75,1.37,3.78l-1.65,.67c-.04-.27-.09-.59-.19-.93-4.03,.72-4.73,.87-5.15,1.12-.11-.4-.46-1.44-.72-1.99,.51-.13,.93-.55,1.54-1.25,.25-.27,.7-.8,1.24-1.54-1.48,.17-1.92,.28-2.2,.44-.11-.44-.46-1.42-.7-1.99Zm4.48,6.84c.23,1.22,.44,2.77,.49,3.78l-1.63,.42c-.02-1.03-.21-2.62-.4-3.82l1.54-.38Zm12.84-5.81c-.47,2.85-1.33,5.24-2.53,7.14,.82,.89,1.79,1.6,2.91,2.09-.49,.42-1.16,1.27-1.5,1.88-1.06-.55-1.98-1.27-2.75-2.17-.82,.91-1.71,1.65-2.72,2.28-.34-.53-.93-1.29-1.42-1.69,1.03-.57,1.98-1.39,2.79-2.41-.57-.97-1.06-2.09-1.48-3.27-.38,2.89-1.06,5.34-2.34,7.26-.34-.36-1.41-1.12-1.94-1.41,.3-.4,.57-.85,.8-1.33l-1.31,.47c-.15-.8-.53-2.09-.87-3.06l1.5-.49c.32,.85,.67,1.9,.87,2.7,1.27-2.91,1.54-6.95,1.56-11.61h-1.58v-2.13h6.46l.32-.09,1.58,.21c-.19,1.63-.53,3.55-.85,5.21h.7l.36-.08,1.44,.49Zm-6.25-3.61c-.02,1.1-.06,2.17-.09,3.19h1.73c.21-1.01,.4-2.18,.55-3.19h-2.19Zm.82,5.21c.34,1.29,.84,2.53,1.48,3.61,.59-1.08,1.06-2.3,1.41-3.61h-2.89Z"/><path class="cls-4" d="M284.76,282.52c-2.51,1.12-5.32,2.32-7.47,3.21l-.76-2.41c.72-.25,1.58-.55,2.53-.93l-.38-11.09,2.36-.1,.34,10.28c.95-.4,1.92-.8,2.87-1.18l.51,2.22Zm7.87,5.34c-.7-1.23-2.15-2.98-3.55-4.58-1.39,1.98-3.27,3.5-5.78,4.62-.32-.49-1.25-1.52-1.8-1.99,6.02-2.28,7.98-6.88,8.68-14.69l2.49,.23c-.4,3.89-1.08,7.07-2.32,9.65,1.58,1.63,3.34,3.55,4.22,4.88l-1.94,1.88Zm-7.12-9.75c-.47-1.31-1.69-3.31-2.83-4.71l2.05-1.03c1.24,1.39,2.43,3.25,3,4.56l-2.22,1.18Z"/><path class="cls-4" d="M313.12,284.67v2.28h-17.27v-2.28h6.8v-14.31h2.43v5.43h6.71v2.3h-6.71v6.57h8.04Z"/></g><g><path class="cls-2" d="M113.55,415.38l1.07-1.77-1.85-.76,.31-.87,1.94,.48,.17-2.06h.92l.17,2.04,1.94-.46,.29,.87-1.85,.76,1.09,1.77-.75,.54-1.34-1.62-1.34,1.62-.75-.54Z"/><path class="cls-2" d="M129.39,409.8h1.24v7.89c0,2.38-.65,5.85-4.73,7.73-.22-.31-.59-.7-.9-.95,2.11-.87,3.23-2.29,3.81-3.72-1.5,.29-3.01,.58-4.18,.8l-.27-1.26c1.26-.17,3.01-.48,4.83-.78,.15-.68,.2-1.31,.2-1.82v-.46h-4.33v-1.16h4.33v-2.6h-4.57v-1.19h4.57v-2.48Zm10.25,11.32h-5.15v4.11h-1.26v-15.43h1.26v2.48h4.86v1.19h-4.86v2.6h4.52v1.17h-4.52v2.69h5.15v1.19Z"/><path class="cls-2" d="M155.11,413.07c-.75,.56-1.68,1.16-2.52,1.62,1.12,.58,2.48,1,4.01,1.22-.24,.24-.56,.7-.71,1.02-3.3-.61-5.75-2.07-7.12-4.44-.76,.63-1.7,1.17-2.75,1.65v1.67l3.57-.7c-.02,.29,0,.75,.05,.99-3.98,.85-4.52,.99-4.84,1.19-.1-.25-.37-.7-.54-.9,.24-.15,.63-.49,.63-1.19v-.61c-1,.37-2.06,.68-3.06,.9-.14-.22-.49-.71-.71-.93,2.31-.42,4.78-1.17,6.34-2.28h-5.92v-1h7.19c-.19-.42-.42-.9-.68-1.27l1.22-.29c.32,.44,.65,1.07,.82,1.56h6.27v1h-6.51c.48,.73,1.1,1.36,1.87,1.89,.88-.51,1.92-1.21,2.55-1.72l.85,.63Zm.19,10.69c0,.65-.12,.99-.61,1.19-.49,.19-1.29,.19-2.52,.19-.03-.34-.22-.78-.37-1.11,.95,.03,1.73,.02,1.97,.02,.27-.02,.32-.08,.32-.31v-5.3h-3.13v.61c0,.36,.03,.48,.32,.48h1.48c.22,0,.66-.02,.88-.08,.03,.27,.05,.59,.07,.85-.19,.08-.6,.1-.92,.1h-1.73c-.97,0-1.17-.42-1.17-1.36v-.59h-1.95c-.19,1.12-.63,1.85-1.7,2.33h5.68v3.13h-4.95v.68h-1.05v-3.67c-.36,.14-.75,.24-1.21,.32-.1-.24-.37-.63-.58-.8,1.87-.31,2.53-.85,2.75-1.99h-3.2v6.78h-1.19v-7.82h12.8v6.36Zm-8.33-2.16v1.46h3.86v-1.46h-3.86Z"/><path class="cls-2" d="M173.5,417.11v1.12h-7.09c-.05,.46-.12,.9-.2,1.31h7.02v1.11h-7.33c-.8,2.33-2.62,3.77-7.07,4.54-.1-.32-.42-.85-.66-1.14,3.93-.56,5.59-1.65,6.36-3.4h-5.71v-1.11h6.07c.1-.41,.17-.85,.22-1.31h-6.66v-1.12h6.82v-1.43h-5.29v-1.1h5.29v-1.38h-6.22v-1.14h3.59c-.27-.59-.8-1.38-1.31-1.97l1.09-.44c.63,.65,1.22,1.53,1.5,2.14l-.61,.27h4.47c.51-.7,1.1-1.7,1.46-2.41l1.29,.39c-.41,.7-.92,1.43-1.36,2.02h3.62v1.14h-6.26v1.38h5.44v1.1h-5.44v1.43h6.99Zm-6.95,3.72c2.33,.88,5.39,2.35,6.94,3.37l-.59,1.09c-1.5-1.05-4.54-2.58-6.88-3.52l.54-.93Z"/><path class="cls-2" d="M189.98,410.48v14.79h-1.24v-.78h-11.66v.78h-1.21v-14.79h14.11Zm-1.24,12.87v-11.71h-11.66v11.71h11.66Zm-5.76-2.58c-1.77,.34-3.57,.7-4.96,.95l-.17-.95c1.29-.2,3.18-.54,5.08-.88l.05,.88Zm4.22-4.95c-.42,1.6-1.07,2.99-1.89,4.17,.36,.9,.82,1.48,1.38,1.56,.24,.07,.41-.66,.53-1.75,.2,.2,.58,.46,.82,.56-.22,1.85-.8,2.53-1.68,2.19-.75-.15-1.31-.75-1.77-1.65-.66,.76-1.41,1.41-2.24,1.95-.15-.2-.53-.61-.75-.8,1-.58,1.85-1.33,2.57-2.23-.46-1.34-.73-3.09-.93-5.01h-5.2v-.95h5.12c-.05-.59-.1-1.19-.14-1.8h1.09c.03,.61,.07,1.21,.1,1.8h3.71v.95h-3.62c.14,1.46,.34,2.82,.63,3.91,.54-.92,.97-1.97,1.26-3.13l1.04,.22Zm-4.83,.07v3.3h-3.76v-3.3h3.76Zm-.92,.8h-1.96v1.7h1.96v-1.7Zm5.41-3.01c-.37-.37-1.16-.9-1.82-1.19l.6-.63c.66,.31,1.44,.76,1.84,1.16l-.61,.66Z"/><path class="cls-2" d="M200.6,409.77c-.02,.61-.03,1.46-.12,2.46,.25,2.02,1.27,9.13,7.27,11.8-.36,.29-.73,.71-.92,1.07-4.25-1.99-6.07-6.19-6.88-9.35-.78,3.4-2.58,7.21-6.73,9.42-.22-.34-.63-.71-1.02-.99,7.05-3.57,6.95-11.83,7-14.41h1.39Z"/><path class="cls-2" d="M215.14,418.96l-1.16,.97c-1.1-1.34-2.55-2.79-3.76-3.77l1.1-.97c1.21,.99,2.75,2.52,3.81,3.77Z"/><path class="cls-2" d="M233,423.33v1.16h-15.16v-1.16h5.05v-3.04h-3.83v-5.68h3.83v-2.65h-4.59v-1.17h14.3v1.17h-4.74v2.63h3.91v5.68h-.61v.02h-3.3v3.04h5.15Zm-8.89-4.15v4.15h2.52v-4.17h3.86v-3.48h-3.86v-3.72h-2.53v3.76h-3.81v3.47h3.83Z"/><path class="cls-2" d="M248.61,413.07c-.75,.56-1.68,1.16-2.52,1.62,1.12,.58,2.48,1,4.01,1.22-.24,.24-.56,.7-.71,1.02-3.3-.61-5.75-2.07-7.12-4.44-.76,.63-1.7,1.17-2.75,1.65v1.67l3.57-.7c-.02,.29,0,.75,.05,.99-3.98,.85-4.52,.99-4.84,1.19-.1-.25-.37-.7-.54-.9,.24-.15,.63-.49,.63-1.19v-.61c-1,.37-2.06,.68-3.06,.9-.14-.22-.49-.71-.71-.93,2.31-.42,4.78-1.17,6.34-2.28h-5.92v-1h7.19c-.19-.42-.42-.9-.68-1.27l1.22-.29c.32,.44,.65,1.07,.82,1.56h6.27v1h-6.51c.48,.73,1.1,1.36,1.87,1.89,.88-.51,1.92-1.21,2.55-1.72l.85,.63Zm.19,10.69c0,.65-.12,.99-.61,1.19-.49,.19-1.29,.19-2.52,.19-.03-.34-.22-.78-.37-1.11,.95,.03,1.73,.02,1.97,.02,.27-.02,.32-.08,.32-.31v-5.3h-3.13v.61c0,.36,.03,.48,.32,.48h1.48c.22,0,.66-.02,.88-.08,.03,.27,.05,.59,.07,.85-.19,.08-.6,.1-.92,.1h-1.73c-.97,0-1.17-.42-1.17-1.36v-.59h-1.95c-.19,1.12-.63,1.85-1.7,2.33h5.68v3.13h-4.95v.68h-1.05v-3.67c-.36,.14-.75,.24-1.21,.32-.1-.24-.37-.63-.58-.8,1.87-.31,2.53-.85,2.75-1.99h-3.2v6.78h-1.19v-7.82h12.8v6.36Zm-8.33-2.16v1.46h3.86v-1.46h-3.86Z"/><path class="cls-2" d="M267,417.11v1.12h-7.09c-.05,.46-.12,.9-.2,1.31h7.02v1.11h-7.33c-.8,2.33-2.62,3.77-7.07,4.54-.1-.32-.42-.85-.66-1.14,3.93-.56,5.59-1.65,6.36-3.4h-5.71v-1.11h6.07c.1-.41,.17-.85,.22-1.31h-6.66v-1.12h6.82v-1.43h-5.29v-1.1h5.29v-1.38h-6.22v-1.14h3.59c-.27-.59-.8-1.38-1.31-1.97l1.09-.44c.63,.65,1.22,1.53,1.5,2.14l-.61,.27h4.47c.51-.7,1.1-1.7,1.46-2.41l1.29,.39c-.41,.7-.92,1.43-1.36,2.02h3.62v1.14h-6.26v1.38h5.44v1.1h-5.44v1.43h6.99Zm-6.95,3.72c2.33,.88,5.39,2.35,6.94,3.37l-.59,1.09c-1.5-1.05-4.54-2.58-6.88-3.52l.54-.93Z"/><path class="cls-2" d="M283.48,410.48v14.79h-1.24v-.78h-11.66v.78h-1.21v-14.79h14.11Zm-1.24,12.87v-11.71h-11.66v11.71h11.66Zm-5.76-2.58c-1.77,.34-3.57,.7-4.96,.95l-.17-.95c1.29-.2,3.18-.54,5.08-.88l.05,.88Zm4.22-4.95c-.42,1.6-1.07,2.99-1.89,4.17,.36,.9,.82,1.48,1.38,1.56,.24,.07,.41-.66,.53-1.75,.2,.2,.58,.46,.82,.56-.22,1.85-.8,2.53-1.68,2.19-.75-.15-1.31-.75-1.77-1.65-.66,.76-1.41,1.41-2.24,1.95-.15-.2-.53-.61-.75-.8,1-.58,1.85-1.33,2.57-2.23-.46-1.34-.73-3.09-.93-5.01h-5.2v-.95h5.12c-.05-.59-.1-1.19-.14-1.8h1.09c.03,.61,.07,1.21,.1,1.8h3.71v.95h-3.62c.14,1.46,.34,2.82,.63,3.91,.54-.92,.97-1.97,1.26-3.13l1.04,.22Zm-4.83,.07v3.3h-3.76v-3.3h3.76Zm-.92,.8h-1.96v1.7h1.96v-1.7Zm5.41-3.01c-.37-.37-1.16-.9-1.82-1.19l.6-.63c.66,.31,1.44,.76,1.84,1.16l-.61,.66Z"/><path class="cls-2" d="M294.1,409.77c-.02,.61-.03,1.46-.12,2.46,.25,2.02,1.27,9.13,7.27,11.8-.36,.29-.73,.71-.92,1.07-4.25-1.99-6.07-6.19-6.88-9.35-.78,3.4-2.58,7.21-6.73,9.42-.22-.34-.63-.71-1.02-.99,7.05-3.57,6.95-11.83,7-14.41h1.39Z"/><path class="cls-2" d="M308.64,418.96l-1.16,.97c-1.1-1.34-2.55-2.79-3.76-3.77l1.1-.97c1.21,.99,2.75,2.52,3.81,3.77Z"/><path class="cls-2" d="M320.08,415.48c1.16,3.94,3.38,7.17,6.76,8.62-.32,.27-.73,.8-.95,1.16-3.38-1.63-5.56-4.84-6.85-8.96-.37,1.73-1,3.45-2.11,5l.49-.34c1.17,.95,2.62,2.33,3.32,3.25l-1.07,.83c-.63-.88-1.97-2.24-3.11-3.23-1.07,1.36-2.52,2.53-4.5,3.42-.19-.32-.58-.78-.93-1.04,4.47-1.89,6.12-5.34,6.73-8.7h-6.34v-1.27h6.54c.19-1.63,.17-3.2,.19-4.49h1.34c-.02,1.33-.03,2.87-.22,4.49h7.04v1.27h-6.32Z"/><path class="cls-2" d="M343.5,419.27h-6.97v5.95h-1.29v-5.95h-6.87v-1.24h6.87v-5.93h-5.98v-1.24h13.29v1.24h-6.02v5.93h6.97v1.24Zm-11.95-6.34c.7,1.22,1.39,2.82,1.61,3.83l-1.19,.41c-.24-1-.88-2.65-1.53-3.89l1.11-.34Zm6.83,3.93c.63-1.05,1.41-2.79,1.84-4.01l1.33,.37c-.61,1.36-1.43,2.97-2.09,4l-1.07-.36Z"/><path class="cls-2" d="M348.37,417.4c-.68-.58-2.07-1.41-3.18-1.96l.71-.92c1.09,.51,2.5,1.29,3.21,1.85l-.75,1.02Zm-2.82,6.66c.82-1.33,1.99-3.54,2.84-5.47l.99,.77c-.78,1.8-1.82,3.91-2.69,5.49l-1.14-.78Zm1.17-14.01c1.07,.56,2.46,1.44,3.13,2.06l-.8,.99c-.66-.65-1.99-1.56-3.06-2.18l.73-.87Zm13.94,11.29h-4.78v3.89h-1.28v-3.89h-4.74v-1.21h4.74v-2.48h-3.72v-1.19h3.72v-2.41h-4.21v-1.19h2.65c-.29-.77-.92-1.9-1.51-2.74l1.09-.42c.66,.83,1.36,1.99,1.61,2.75l-.88,.41h2.94c.56-.9,1.22-2.24,1.61-3.21l1.22,.41c-.46,.93-1.04,1.99-1.55,2.8h2.69v1.19h-4.39v2.41h3.84v1.19h-3.84v2.48h4.78v1.21Z"/><path class="cls-2" d="M371.18,421.31h1.17v3.32h-1.17v-.53h-8.07v-2.72h1.17v1.72h2.87v-2.28h1.17v2.28h2.86v-1.79Zm-5.41-2.84v1.1h11.07s-.02,.36-.05,.51c-.25,3.03-.49,4.25-.92,4.69-.29,.31-.59,.41-1.02,.46-.39,.03-1.14,.02-1.92-.03-.02-.32-.14-.8-.32-1.1,.73,.08,1.43,.1,1.68,.1,.29,0,.42-.03,.56-.19,.27-.27,.49-1.19,.7-3.45h-11.02v-9.49h3.93c.22-.48,.41-1.02,.53-1.41l1.44,.17c-.22,.44-.42,.85-.66,1.24h5.17v5.18h-9.16v1.22h11.66v.99h-11.66Zm0-6.46v1.26h7.92v-1.26h-7.92Zm7.92,3.31v-1.21h-7.92v1.21h7.92Z"/><path class="cls-2" d="M388.79,419.25c.88,2.7,2.45,4.56,3.96,4.54,.49-.02,.7-.7,.78-2.48,.29,.26,.76,.49,1.11,.6-.2,2.48-.71,3.13-1.96,3.13-2.28,.02-4.23-2.4-5.22-5.78h-5.12v4.25l4.08-.99c0,.34,.07,.9,.14,1.16-4.62,1.24-5.25,1.39-5.66,1.65-.1-.34-.37-.9-.59-1.16,.31-.15,.75-.54,.75-1.24v-12.34h12.02v4.91h-4.96c.05,.9,.19,1.75,.37,2.57h5.85v1.19h-5.54Zm-6.44-7.48v2.53h9.47v-2.53h-9.47Zm4.81,6.29c-.15-.82-.29-1.67-.34-2.57h-4.47v2.57h4.81Z"/><path class="cls-2" d="M402.14,418.96l-1.16,.97c-1.1-1.34-2.55-2.79-3.76-3.77l1.1-.97c1.21,.99,2.75,2.52,3.81,3.77Z"/><path class="cls-2" d="M133.96,434.05v2.43h4.28v10.62h-1.26v-.99h-10.67v1.05h-1.24v-10.69h4.1v-2.43h-5v-1.22h14.82v1.22h-5.03Zm3.03,10.9v-2.91h-2.52c-1.39,0-1.72-.36-1.72-1.72v-2.67h-2.45c-.08,1.79-.71,3.76-3.26,5.01-.14-.25-.49-.7-.73-.88v3.16h10.67Zm-10.67-7.29v4.11c2.26-1.12,2.75-2.65,2.84-4.11h-2.84Zm6.44-3.6h-2.43v2.43h2.43v-2.43Zm1.21,3.6v2.67c0,.44,.07,.51,.65,.51h2.04c.17,0,.27,0,.34-.02v-3.16h-3.03Z"/><path class="cls-2" d="M146.08,444.5c-1.77,.49-3.64,.93-5.08,1.31l-.24-1.21c.59-.12,1.34-.31,2.16-.48v-4.61h-1.75v-1.16h1.75v-4.27h-1.97v-1.16h5.24v1.16h-2.09v4.27h1.72v1.16h-1.72v4.32l1.85-.46,.14,1.12Zm3.45-5.58c0,3.42-.42,6.32-3.65,8.33-.15-.25-.54-.7-.78-.9,2.86-1.75,3.28-4.25,3.3-7.17l-.68,.31c-.34-.93-1.1-2.41-1.75-3.5l.93-.36c.53,.82,1.11,1.82,1.5,2.67v-6.6h1.14v7.22Zm6.78,6.53v1.19h-7.16v-1.19h3.18v-5.25h-2v-1.16h2v-5h-2.31v-1.16h5.93v1.16h-2.41v5h2.12v1.16h-2.12v5.25h2.77Z"/><path class="cls-2" d="M173,439.64h-3.79v5.92c0,.83-.22,1.22-.76,1.43-.54,.22-1.45,.25-2.92,.25-.07-.36-.29-.95-.49-1.31,1.12,.03,2.16,.03,2.46,.02,.29-.02,.41-.1,.41-.39v-5.76c-2.21,2.75-5.81,5.32-9.01,6.63-.2-.32-.58-.83-.88-1.09,2.99-1.09,6.37-3.33,8.46-5.69h-6.94c.46-1.51,1-3.89,1.36-5.81h-1.7v-1.22h13v1.22h-2.99v4.59h3.79v1.22Zm-10.76-5.81c-.31,1.46-.68,3.21-1.04,4.59h6.7v-4.59h-5.66Z"/><path class="cls-2" d="M188.79,435.07c-.75,.56-1.68,1.16-2.52,1.62,1.12,.58,2.48,1,4.01,1.22-.24,.24-.56,.7-.71,1.02-3.3-.61-5.75-2.07-7.12-4.44-.76,.63-1.7,1.17-2.75,1.65v1.67l3.57-.7c-.02,.29,0,.75,.05,.99-3.98,.85-4.52,.99-4.84,1.19-.1-.25-.37-.7-.54-.9,.24-.15,.63-.49,.63-1.19v-.61c-1,.37-2.06,.68-3.06,.9-.14-.22-.49-.71-.71-.93,2.31-.42,4.78-1.17,6.34-2.28h-5.92v-1h7.19c-.19-.42-.42-.9-.68-1.27l1.22-.29c.32,.44,.65,1.07,.82,1.56h6.27v1h-6.51c.48,.73,1.1,1.36,1.87,1.89,.88-.51,1.92-1.21,2.55-1.72l.85,.63Zm.19,10.69c0,.65-.12,.99-.61,1.19-.49,.19-1.29,.19-2.52,.19-.03-.34-.22-.78-.37-1.11,.95,.03,1.73,.02,1.97,.02,.27-.02,.32-.08,.32-.31v-5.3h-3.13v.61c0,.36,.03,.48,.32,.48h1.48c.22,0,.66-.02,.88-.08,.03,.27,.05,.59,.07,.85-.19,.08-.6,.1-.92,.1h-1.73c-.97,0-1.17-.42-1.17-1.36v-.59h-1.95c-.19,1.12-.63,1.85-1.7,2.33h5.68v3.13h-4.95v.68h-1.05v-3.67c-.36,.14-.75,.24-1.21,.32-.1-.24-.37-.63-.58-.8,1.87-.31,2.53-.85,2.75-1.99h-3.2v6.78h-1.19v-7.82h12.8v6.36Zm-8.33-2.16v1.46h3.86v-1.46h-3.86Z"/><path class="cls-2" d="M207.18,439.11v1.12h-7.09c-.05,.46-.12,.9-.2,1.31h7.02v1.11h-7.33c-.8,2.33-2.62,3.77-7.07,4.54-.1-.32-.42-.85-.66-1.14,3.93-.56,5.59-1.65,6.36-3.4h-5.71v-1.11h6.07c.1-.41,.17-.85,.22-1.31h-6.66v-1.12h6.82v-1.43h-5.29v-1.1h5.29v-1.38h-6.22v-1.14h3.59c-.27-.59-.8-1.38-1.31-1.97l1.09-.44c.63,.65,1.22,1.53,1.5,2.14l-.61,.27h4.47c.51-.7,1.1-1.7,1.46-2.41l1.29,.39c-.41,.7-.92,1.43-1.36,2.02h3.62v1.14h-6.26v1.38h5.44v1.1h-5.44v1.43h6.99Zm-6.95,3.72c2.33,.88,5.39,2.35,6.94,3.37l-.59,1.09c-1.5-1.05-4.54-2.58-6.88-3.52l.54-.93Z"/><path class="cls-2" d="M223.66,432.48v14.79h-1.24v-.78h-11.66v.78h-1.21v-14.79h14.11Zm-1.24,12.87v-11.71h-11.66v11.71h11.66Zm-5.76-2.58c-1.77,.34-3.57,.7-4.96,.95l-.17-.95c1.29-.2,3.18-.54,5.08-.88l.05,.88Zm4.22-4.95c-.42,1.6-1.07,2.99-1.89,4.17,.36,.9,.82,1.48,1.38,1.56,.24,.07,.41-.66,.53-1.75,.2,.2,.58,.46,.82,.56-.22,1.85-.8,2.53-1.68,2.19-.75-.15-1.31-.75-1.77-1.65-.66,.76-1.41,1.41-2.24,1.95-.15-.2-.53-.61-.75-.8,1-.58,1.85-1.33,2.57-2.23-.46-1.34-.73-3.09-.93-5.01h-5.2v-.95h5.12c-.05-.59-.1-1.19-.14-1.8h1.09c.03,.61,.07,1.21,.1,1.8h3.71v.95h-3.62c.14,1.46,.34,2.82,.63,3.91,.54-.92,.97-1.97,1.26-3.13l1.04,.22Zm-4.83,.07v3.3h-3.76v-3.3h3.76Zm-.92,.8h-1.96v1.7h1.96v-1.7Zm5.41-3.01c-.37-.37-1.16-.9-1.82-1.19l.59-.63c.66,.31,1.44,.76,1.84,1.16l-.61,.66Z"/><path class="cls-2" d="M234.28,431.77c-.02,.61-.03,1.46-.12,2.46,.25,2.02,1.27,9.13,7.27,11.8-.36,.29-.73,.71-.92,1.07-4.25-1.99-6.07-6.19-6.88-9.35-.78,3.4-2.58,7.21-6.73,9.42-.22-.34-.63-.71-1.02-.99,7.05-3.57,6.95-11.83,7-14.41h1.39Z"/><path class="cls-2" d="M248.82,440.96l-1.16,.97c-1.1-1.34-2.55-2.79-3.76-3.77l1.1-.97c1.21,.99,2.75,2.52,3.81,3.77Z"/><path class="cls-2" d="M266.68,439.11v1.12h-7.09c-.05,.46-.12,.9-.2,1.31h7.02v1.11h-7.33c-.8,2.33-2.62,3.77-7.07,4.54-.1-.32-.42-.85-.66-1.14,3.93-.56,5.59-1.65,6.36-3.4h-5.71v-1.11h6.07c.1-.41,.17-.85,.22-1.31h-6.66v-1.12h6.82v-1.43h-5.29v-1.1h5.29v-1.38h-6.22v-1.14h3.59c-.27-.59-.8-1.38-1.31-1.97l1.09-.44c.63,.65,1.22,1.53,1.5,2.14l-.61,.27h4.47c.51-.7,1.1-1.7,1.46-2.41l1.29,.39c-.41,.7-.92,1.43-1.36,2.02h3.62v1.14h-6.26v1.38h5.44v1.1h-5.44v1.43h6.99Zm-6.95,3.72c2.33,.88,5.39,2.35,6.94,3.37l-.59,1.09c-1.5-1.05-4.54-2.58-6.88-3.52l.54-.93Z"/><path class="cls-2" d="M271.17,439.08c-.63-.51-1.9-1.24-2.86-1.73l.71-.92c.95,.44,2.23,1.14,2.87,1.61l-.73,1.04Zm-2.52,7.28c.68-1.31,1.65-3.5,2.33-5.41l1.02,.68c-.63,1.77-1.48,3.84-2.21,5.39l-1.14-.66Zm3.11-11.69c-.58-.54-1.77-1.34-2.72-1.87l.75-.9c.92,.49,2.14,1.24,2.74,1.77l-.76,1Zm2.8-2.57h1.19v5.9c0,3.31-.25,6.63-2.45,9.25-.25-.24-.75-.58-1.05-.75,2.07-2.41,2.31-5.46,2.31-8.5v-5.9Zm-1.14,8.94c-.14-1.09-.66-2.77-1.16-4.03l.95-.32c.53,1.27,1.04,2.92,1.22,3.99l-1.02,.36Zm3.32-4.3c.53,1.19,1,2.72,1.16,3.76l-.92,.34c-.15-1.02-.61-2.58-1.09-3.79l.85-.31Zm6.36-4.66v15.15h-1.21v-6.77l-.88,.41c-.29-1-.95-2.58-1.62-3.79v9.77h-1.19v-14.52h1.19v4.47l.76-.31c.7,1.16,1.39,2.69,1.73,3.77v-8.19h1.21Z"/><path class="cls-2" d="M300.56,433.81h-12.44v3.64c0,2.72-.22,6.73-1.79,9.43-.24-.2-.76-.51-1.09-.63,1.48-2.58,1.63-6.22,1.63-8.81v-4.79h13.68v1.16Zm-8.45,9.13c-.87,1.22-2.04,2.65-2.99,3.57-.25-.19-.76-.53-1.07-.71,1-.85,2.12-2.12,2.89-3.26l1.17,.41Zm2.91-1.24v4.15c0,.66-.14,.99-.65,1.17-.51,.2-1.34,.2-2.63,.2-.05-.34-.24-.8-.39-1.12,.99,.02,1.85,.02,2.11,.02,.27-.02,.34-.08,.34-.29v-4.13h-4.15v-6.12h3.31c.25-.51,.49-1.12,.65-1.56l1.46,.22c-.25,.46-.51,.92-.75,1.34h4.9v6.12h-4.2Zm-4.13-3.54h7.05v-1.58h-7.05v1.58Zm0,2.53h7.05v-1.58h-7.05v1.58Zm6.56,1.87c1,1.05,2.36,2.5,3.04,3.37l-1.05,.68c-.63-.92-1.97-2.41-2.99-3.52l1-.53Z"/><path class="cls-2" d="M307.69,432.14c-.46,1.24-1.07,2.46-1.73,3.64v11.42h-1.26v-9.45c-.53,.75-1.1,1.43-1.68,2.02-.12-.29-.49-.97-.73-1.26,1.68-1.63,3.25-4.17,4.2-6.75l1.21,.37Zm10.2,13.31v1.21h-10.93v-1.21h4.91v-4.3h-3.91v-1.19h3.91v-3.74h-4.47v-1.21h10.25v1.21h-4.52v3.74h4.01v1.19h-4.01v4.3h4.76Zm-5.58-10.59c-.22-.73-.83-1.94-1.39-2.8l1.14-.43c.58,.87,1.22,2.02,1.48,2.75l-1.22,.48Z"/><path class="cls-2" d="M328.97,441.25c.88,2.7,2.45,4.56,3.96,4.54,.49-.02,.7-.7,.78-2.48,.29,.26,.76,.49,1.11,.6-.2,2.48-.71,3.13-1.96,3.13-2.28,.02-4.23-2.4-5.22-5.78h-5.12v4.25l4.08-.99c0,.34,.07,.9,.14,1.16-4.62,1.24-5.25,1.39-5.66,1.65-.1-.34-.37-.9-.59-1.16,.31-.15,.75-.54,.75-1.24v-12.34h12.02v4.91h-4.96c.05,.9,.19,1.75,.37,2.57h5.85v1.19h-5.54Zm-6.44-7.48v2.53h9.47v-2.53h-9.47Zm4.81,6.29c-.15-.82-.29-1.67-.34-2.57h-4.47v2.57h4.81Z"/></g><g><path class="cls-2" d="M628.77,429.5c3.42-3.06,5.44-5.42,5.44-7.36,0-1.28-.7-2.04-1.89-2.04-.92,0-1.68,.59-2.31,1.29l-1.36-1.36c1.16-1.22,2.28-1.9,3.99-1.9,2.38,0,3.96,1.53,3.96,3.88s-1.89,4.73-4.18,6.97c.63-.07,1.46-.14,2.04-.14h2.74v2.11h-8.43v-1.45Z"/><path class="cls-2" d="M638.8,424.6c0-4.35,1.7-6.48,4.27-6.48s4.25,2.14,4.25,6.48-1.7,6.58-4.25,6.58-4.27-2.24-4.27-6.58Zm6.15,0c0-3.52-.82-4.54-1.89-4.54s-1.9,1.02-1.9,4.54,.82,4.62,1.9,4.62,1.89-1.09,1.89-4.62Z"/><path class="cls-2" d="M648.79,429.5c3.42-3.06,5.44-5.42,5.44-7.36,0-1.28-.7-2.04-1.89-2.04-.92,0-1.68,.59-2.31,1.29l-1.36-1.36c1.16-1.22,2.28-1.9,3.99-1.9,2.38,0,3.96,1.53,3.96,3.88s-1.89,4.73-4.18,6.97c.63-.07,1.46-.14,2.04-.14h2.74v2.11h-8.43v-1.45Z"/><path class="cls-2" d="M659.47,428.92h2.7v-7.96h-2.28v-1.55c1.26-.24,2.12-.56,2.92-1.05h1.85v10.56h2.36v2.02h-7.56v-2.02Z"/><path class="cls-2" d="M683.32,419.57c.92,.9,2.72,1.33,5.01,1.45-.41,.39-.88,1.12-1.12,1.61-1.9-.24-3.38-.78-4.45-1.72-.65,.75-2.06,1.41-4.91,1.73-.14-.32-.41-.75-.68-1.11h-4.5v-1.55h5.13v1.04c3.25-.34,3.67-1.1,3.67-1.73v-.25h-1.02c-.36,.56-.76,1.07-1.19,1.46-.32-.31-1.07-.8-1.5-1.04,.9-.75,1.6-1.87,1.99-3.03l1.77,.39c-.08,.25-.19,.51-.29,.75h4.83l.31-.08,1.38,.42c-.44,.93-1.02,2.01-1.56,2.69l-1.56-.58c.19-.27,.41-.63,.59-.99h-1.89v.53Zm.46,10c1.56,.58,3.23,1.26,4.23,1.75l-1.82,1.09c-.97-.56-2.74-1.39-4.42-2.01l1.04-.83h-4.79l1.48,.68c-1.39,.88-3.59,1.73-5.3,2.21-.34-.39-1.05-1.14-1.5-1.48,1.63-.31,3.45-.82,4.64-1.41h-2.45v-6.9h11.37v6.9h-2.48Zm-6.38-10.71h-4.35v-1.48h4.35v1.48Zm-.56,5.75h7.36v-.73h-7.36v.73Zm0,1.87h7.36v-.73h-7.36v.73Zm0,1.9h7.36v-.77h-7.36v.77Z"/><path class="cls-2" d="M694.71,424.76c.34,.46,1.61,2.58,1.87,3.11l-1.39,1.51c-.24-.75-.7-1.9-1.12-2.84v5.88h-1.87v-6.07c-.39,1.7-1.02,3.49-1.9,4.47-.17-.71-.61-1.73-.92-2.41,.71-.85,1.38-2.41,1.65-3.71l1.17,.41v-1.05h-2.57v-1.89h2.57v-5.63h1.87v5.63h2.52v1.89h-2.52v1.16l.65-.46Zm-4.32-2.87c-.03-1.05-.37-2.69-.78-3.93l1.41-.36c.46,1.24,.82,2.84,.88,3.89l-1.51,.39Zm6.49-4.01c-.44,1.36-.94,2.96-1.36,3.94l-1.29-.36c.37-1.07,.77-2.75,.95-3.94l1.7,.36Zm6.59,9.94v4.59h-1.9v-4.25l-4.74,.85-.31-1.89,5.05-.9v-9.69h1.9v9.35l1.73-.32,.31,1.89-2.04,.37Zm-5.81-6.17c.99,.53,2.24,1.36,2.86,1.95l-1.02,1.62c-.56-.61-1.8-1.53-2.79-2.11l.95-1.46Zm2.46-.61c-.53-.66-1.7-1.58-2.63-2.21l.97-1.36c.95,.56,2.16,1.43,2.7,2.06l-1.04,1.51Z"/></g></g></svg>