<?xml version="1.0" encoding="UTF-8"?><svg xmlns="http://www.w3.org/2000/svg" viewBox="0 0 800 480"><defs><style>.cls-1{fill:#0071bc;}.cls-2{fill:#e6e6e6;}.cls-3{fill:#999;}.cls-4{fill:#98d5f4;}.cls-5{fill:#333;}.cls-6{fill:#29abe2;}.cls-7{fill:none;stroke:gray;stroke-miterlimit:10;}</style></defs><g id="_2022"><line class="cls-7" x1="339.01" y1="400.96" x2="339.01" y2="79.22"/><g><rect class="cls-2" x="339.01" y="307.66" width="329.55" height="57.91"/><rect class="cls-6" x="339.01" y="243.31" width="123.58" height="57.91"/><rect class="cls-4" x="339.01" y="178.96" width="148.3" height="57.91"/><rect class="cls-1" x="339.01" y="114.62" width="173.02" height="57.91"/></g></g><g id="Numbers"><g><path d="M690.83,146.41h-13.21v-2.99l4.6-4.65c.94-.97,1.68-1.77,2.24-2.39s.95-1.17,1.18-1.65c.23-.48,.35-.98,.35-1.52,0-.66-.2-1.14-.58-1.44-.39-.3-.88-.46-1.47-.46-.66,0-1.3,.17-1.94,.49s-1.32,.81-2.07,1.43l-2.42-2.83c.54-.48,1.11-.94,1.72-1.36,.61-.42,1.32-.77,2.14-1.04,.82-.27,1.82-.4,2.98-.4,1.25,0,2.32,.22,3.22,.66s1.59,1.04,2.08,1.79c.48,.75,.73,1.62,.73,2.59,0,1.04-.2,1.98-.6,2.83-.4,.85-.99,1.69-1.77,2.52-.78,.83-1.73,1.77-2.86,2.81l-1.92,1.77v.16h7.59v3.69Z"/><path d="M703.04,146.41h-4.47v-10.01c0-.23,0-.56,.01-1.01s.02-.93,.03-1.43c0-.5,.02-.95,.04-1.35-.14,.17-.33,.38-.57,.61-.24,.23-.47,.44-.68,.61l-2.13,1.74-2.21-2.76,6.16-4.97h3.82v18.56Z"/><path d="M711.94,127.58c1.46,0,2.59,.51,3.41,1.52,.81,1.01,1.22,2.44,1.22,4.28s-.38,3.27-1.14,4.3c-.76,1.03-1.92,1.55-3.48,1.55-1.42,0-2.53-.52-3.33-1.55-.8-1.03-1.2-2.47-1.2-4.3s.37-3.26,1.12-4.28c.75-1.01,1.88-1.52,3.41-1.52Zm.05,2.86c-.4,0-.68,.25-.84,.75-.17,.5-.25,1.24-.25,2.21s.08,1.72,.25,2.24,.45,.78,.84,.78,.68-.26,.85-.78c.16-.52,.25-1.27,.25-2.24s-.08-1.71-.25-2.21c-.17-.5-.45-.75-.85-.75Zm13.57-2.6l-10.3,18.56h-3.38l10.3-18.56h3.38Zm-.1,7.15c1.46,0,2.59,.51,3.41,1.52s1.22,2.44,1.22,4.28-.38,3.27-1.14,4.3-1.92,1.55-3.48,1.55c-1.42,0-2.53-.52-3.33-1.55-.8-1.03-1.2-2.47-1.2-4.3s.37-3.26,1.12-4.28,1.88-1.52,3.41-1.52Zm.05,2.83c-.4,0-.68,.26-.84,.78-.17,.52-.25,1.26-.25,2.21s.08,1.69,.25,2.21c.16,.52,.45,.78,.84,.78,.73,0,1.09-1,1.09-2.99s-.36-2.99-1.09-2.99Z"/></g><g><path d="M688.02,213.74h-4.47v-10.01c0-.23,0-.56,.01-1.01s.02-.93,.03-1.43c0-.5,.02-.95,.04-1.35-.14,.17-.33,.38-.57,.61-.24,.23-.47,.44-.68,.61l-2.13,1.74-2.21-2.76,6.16-4.97h3.82v18.56Z"/><path d="M699.28,194.94c1.14,0,2.17,.16,3.08,.49,.91,.33,1.63,.83,2.17,1.5,.54,.67,.81,1.5,.81,2.48,0,1.13-.31,2.05-.92,2.77-.62,.72-1.4,1.3-2.35,1.76,.62,.35,1.23,.75,1.81,1.2s1.06,.98,1.44,1.6c.38,.62,.57,1.33,.57,2.15,0,1.53-.58,2.76-1.73,3.7-1.15,.95-2.79,1.42-4.9,1.42s-3.86-.46-4.97-1.38c-1.11-.92-1.66-2.14-1.66-3.67,0-1.28,.33-2.3,1-3.05s1.5-1.37,2.48-1.86c-.8-.52-1.48-1.15-2.05-1.88-.57-.74-.86-1.66-.86-2.77,0-.97,.27-1.79,.82-2.46,.55-.67,1.28-1.17,2.2-1.5,.92-.33,1.94-.49,3.07-.49Zm-2.57,13.78c0,.61,.21,1.1,.64,1.48,.42,.38,1.04,.57,1.86,.57,.88,0,1.54-.18,1.96-.55,.42-.36,.64-.84,.64-1.43,0-.43-.12-.82-.38-1.16-.25-.34-.56-.63-.92-.88-.36-.25-.7-.47-1.01-.66l-.34-.21c-.71,.35-1.3,.75-1.75,1.2-.46,.45-.69,1-.69,1.64Zm2.55-10.58c-.54,0-.99,.15-1.35,.44-.36,.29-.55,.69-.55,1.2,0,.54,.19,.99,.56,1.35,.37,.36,.82,.68,1.34,.94,.49-.23,.93-.51,1.33-.86,.4-.35,.6-.82,.6-1.43,0-.5-.19-.9-.56-1.2-.37-.29-.83-.44-1.37-.44Z"/><path d="M711.94,194.92c1.46,0,2.59,.51,3.41,1.52,.81,1.01,1.22,2.44,1.22,4.28s-.38,3.27-1.14,4.3c-.76,1.03-1.92,1.55-3.48,1.55-1.42,0-2.53-.52-3.33-1.55-.8-1.03-1.2-2.47-1.2-4.3s.37-3.26,1.12-4.28c.75-1.01,1.88-1.52,3.41-1.52Zm.05,2.86c-.4,0-.68,.25-.84,.75-.17,.5-.25,1.24-.25,2.21s.08,1.72,.25,2.24,.45,.78,.84,.78,.68-.26,.85-.78c.16-.52,.25-1.27,.25-2.24s-.08-1.71-.25-2.21c-.17-.5-.45-.75-.85-.75Zm13.57-2.6l-10.3,18.56h-3.38l10.3-18.56h3.38Zm-.1,7.15c1.46,0,2.59,.51,3.41,1.52s1.22,2.44,1.22,4.28-.38,3.27-1.14,4.3-1.92,1.55-3.48,1.55c-1.42,0-2.53-.52-3.33-1.55-.8-1.03-1.2-2.47-1.2-4.3s.37-3.26,1.12-4.28,1.88-1.52,3.41-1.52Zm.05,2.83c-.4,0-.68,.26-.84,.78-.17,.52-.25,1.26-.25,2.21s.08,1.69,.25,2.21c.16,.52,.45,.78,.84,.78,.73,0,1.09-1,1.09-2.99s-.36-2.99-1.09-2.99Z"/></g><g><path d="M688.02,281.08h-4.47v-10.01c0-.23,0-.56,.01-1.01,0-.45,.02-.93,.03-1.43s.02-.95,.04-1.35c-.14,.17-.33,.38-.57,.61s-.47,.44-.68,.61l-2.13,1.74-2.21-2.76,6.16-4.97h3.82v18.56Z"/><path d="M699.82,269.06c1.09,0,2.07,.23,2.94,.68,.87,.45,1.55,1.11,2.05,1.98,.5,.87,.75,1.92,.75,3.15,0,2.06-.62,3.66-1.87,4.78-1.25,1.13-3.11,1.69-5.59,1.69-1.02,0-1.97-.09-2.83-.26-.87-.17-1.63-.42-2.29-.75v-3.72c.64,.33,1.42,.61,2.33,.85,.91,.23,1.75,.35,2.54,.35,1.06,0,1.87-.22,2.43-.66,.56-.44,.84-1.11,.84-2.01,0-.81-.28-1.44-.84-1.88-.56-.44-1.43-.66-2.59-.66-.47,0-.95,.05-1.43,.14-.49,.1-.9,.19-1.25,.27l-1.69-.86,.7-9.62h10.3v3.72h-6.5l-.29,3.09c.29-.05,.6-.11,.91-.17s.77-.09,1.38-.09Z"/><path d="M711.94,262.25c1.46,0,2.59,.51,3.41,1.52,.81,1.01,1.22,2.44,1.22,4.28s-.38,3.27-1.14,4.3c-.76,1.03-1.92,1.55-3.48,1.55-1.42,0-2.53-.52-3.33-1.55-.8-1.03-1.2-2.46-1.2-4.3s.37-3.26,1.12-4.28c.75-1.01,1.88-1.52,3.41-1.52Zm.05,2.86c-.4,0-.68,.25-.84,.75s-.25,1.24-.25,2.21,.08,1.72,.25,2.24c.17,.52,.45,.78,.84,.78s.68-.26,.85-.78c.16-.52,.25-1.26,.25-2.24s-.08-1.71-.25-2.21c-.17-.5-.45-.75-.85-.75Zm13.57-2.6l-10.3,18.56h-3.38l10.3-18.56h3.38Zm-.1,7.15c1.46,0,2.59,.51,3.41,1.52,.81,1.01,1.22,2.44,1.22,4.28s-.38,3.27-1.14,4.3-1.92,1.55-3.48,1.55c-1.42,0-2.53-.52-3.33-1.55-.8-1.03-1.2-2.46-1.2-4.3s.37-3.26,1.12-4.28c.75-1.01,1.88-1.52,3.41-1.52Zm.05,2.83c-.4,0-.68,.26-.84,.78-.17,.52-.25,1.26-.25,2.21s.08,1.69,.25,2.21c.16,.52,.45,.78,.84,.78,.73,0,1.09-1,1.09-2.99s-.36-2.99-1.09-2.99Z"/></g><g><path d="M691.32,344.69h-2.13v3.72h-4.34v-3.72h-7.7v-3.17l7.96-11.67h4.08v11.46h2.13v3.38Zm-6.47-3.38v-2.68c0-.35,0-.77,.03-1.27,.02-.5,.03-.96,.05-1.38s.04-.68,.05-.78h-.13c-.16,.36-.31,.69-.47,.97-.16,.29-.35,.6-.57,.95l-2.78,4.19h3.82Z"/><path d="M705.83,339.13c0,1.99-.21,3.7-.64,5.12s-1.12,2.51-2.08,3.28-2.25,1.14-3.86,1.14c-2.29,0-3.96-.84-5-2.52-1.05-1.68-1.57-4.02-1.57-7.02,0-1.99,.21-3.71,.64-5.13,.42-1.43,1.12-2.53,2.08-3.29,.96-.76,2.25-1.14,3.86-1.14,2.27,0,3.93,.84,4.99,2.52,1.06,1.68,1.59,4.03,1.59,7.05Zm-8.76,0c0,1.99,.15,3.49,.46,4.49,.3,1,.88,1.5,1.73,1.5s1.43-.5,1.73-1.5c.3-1,.46-2.49,.46-4.49s-.15-3.47-.46-4.48c-.3-1.01-.88-1.52-1.73-1.52s-1.43,.51-1.73,1.52c-.3,1.01-.46,2.51-.46,4.48Z"/><path d="M711.94,329.58c1.46,0,2.59,.51,3.41,1.52,.81,1.01,1.22,2.44,1.22,4.28s-.38,3.27-1.14,4.3c-.76,1.03-1.92,1.55-3.48,1.55-1.42,0-2.53-.52-3.33-1.55-.8-1.03-1.2-2.46-1.2-4.3s.37-3.26,1.12-4.28c.75-1.01,1.88-1.52,3.41-1.52Zm.05,2.86c-.4,0-.68,.25-.84,.75-.17,.5-.25,1.24-.25,2.21s.08,1.72,.25,2.24c.17,.52,.45,.78,.84,.78s.68-.26,.85-.78c.16-.52,.25-1.26,.25-2.24s-.08-1.71-.25-2.21c-.17-.5-.45-.75-.85-.75Zm13.57-2.6l-10.3,18.56h-3.38l10.3-18.56h3.38Zm-.1,7.15c1.46,0,2.59,.51,3.41,1.52,.81,1.01,1.22,2.44,1.22,4.28s-.38,3.27-1.14,4.3-1.92,1.55-3.48,1.55c-1.42,0-2.53-.52-3.33-1.55-.8-1.03-1.2-2.46-1.2-4.3s.37-3.26,1.12-4.28c.75-1.01,1.88-1.52,3.41-1.52Zm.05,2.83c-.4,0-.68,.26-.84,.78-.17,.52-.25,1.26-.25,2.21s.08,1.69,.25,2.21c.16,.52,.45,.78,.84,.78,.73,0,1.09-1,1.09-2.99s-.36-2.99-1.09-2.99Z"/></g></g><g id="Labels-CHT"><g><path class="cls-5" d="M247.29,151.39h7.03v2.01h-16.17v-2.01h6.78v-2.3h-4.92v-1.96h4.92v-2.17h-3.99v-1.63c-.82,.55-1.63,1.03-2.41,1.42-.32-.55-.87-1.33-1.39-1.82,2.11-.85,4.46-2.43,6.25-4.12h-2.53v-2.09h6.5c1.63,2.39,4.67,4.79,7.9,5.97-.48,.49-1.18,1.42-1.52,2.07-.82-.38-1.61-.84-2.39-1.35v1.56h-4.07v2.17h4.98v1.96h-4.98v2.3Zm3.42-8.42c-1.75-1.23-3.32-2.7-4.56-4.16-1.25,1.46-2.94,2.94-4.67,4.16h9.23Z"/><path class="cls-5" d="M265.47,140.6c-.4,.91-.78,1.9-1.16,2.7h2.22v2.05h-10.03v-2.05h2.43c-.19-.78-.55-1.86-.95-2.66l1.54-.38h-2.55v-2.03h3.59c-.15-.55-.38-1.14-.61-1.65l2.07-.59c.34,.7,.68,1.56,.91,2.24h3.21v2.03h-2.22l1.54,.34Zm-8.09,6.12h8.43v7.05h-2.22v-.76h-4.07v.85h-2.15v-7.14Zm2.15,2.01v2.32h4.07v-2.32h-4.07Zm.46-8.47c.46,.85,.85,1.98,1.04,2.72l-1.14,.32h2.26c.4-.89,.82-2.11,1.06-3.04h-3.23Zm14.06-2.34c-.65,1.82-1.42,4.01-2.15,5.64,1.52,1.71,1.8,3.21,1.8,4.45,0,1.37-.3,2.3-1.01,2.79-.34,.25-.76,.38-1.25,.46-.42,.06-.97,.08-1.46,.04-.04-.59-.21-1.48-.55-2.09,.42,.04,.8,.04,1.06,.04s.49-.06,.7-.19c.32-.19,.44-.67,.44-1.31,0-1.03-.4-2.39-1.84-3.91,.53-1.39,1.12-3.32,1.56-4.77h-2.13v14.74h-1.98v-16.77h4.9l.32-.08,1.58,.97Z"/><path class="cls-5" d="M288.12,150.59c1.77,.53,3.7,1.22,5.01,1.73l-1.99,1.6c-1.46-.68-4.08-1.61-6.1-2.2l1.58-1.12h-5.15l1.44,1.01c-1.54,.89-3.97,1.8-5.89,2.28-.42-.48-1.2-1.18-1.71-1.61,1.63-.36,3.57-1.03,4.86-1.67h-2.94v-8.42h13.89v8.42h-3Zm2.34-9.12h-12.37v-4.75h12.37v4.75Zm-10.98,3.06h9.31v-.82h-9.31v.82Zm0,2.24h9.31v-.82h-9.31v.82Zm0,2.28h9.31v-.84h-9.31v.84Zm8.57-10.56h-7.67v1.23h7.67v-1.23Z"/><path class="cls-5" d="M311.85,150.29v2.28h-17.27v-2.28h7.24v-9.82h-6.21v-2.36h15.18v2.36h-6.38v9.82h7.45Z"/><path class="cls-5" d="M228.35,211.91c-.04-.23-.09-.51-.15-.82-3.8,.57-4.48,.7-4.9,.91-.11-.4-.46-1.41-.7-1.98,.48-.11,.89-.53,1.48-1.23,.23-.27,.67-.82,1.2-1.58-1.42,.17-1.84,.29-2.13,.42-.11-.4-.44-1.35-.67-1.86,.38-.11,.7-.48,1.08-1.04,.4-.55,1.6-2.66,2.26-4.67l1.96,.82c-.68,1.56-1.6,3.19-2.55,4.54l1.25-.09c.46-.8,.91-1.63,1.27-2.47l1.86,1.14c-1.06,1.96-2.45,3.99-3.88,5.66l1.99-.25c-.13-.51-.3-1.03-.46-1.48l1.62-.51c.47,1.25,.99,2.91,1.18,3.91l-1.73,.59Zm-3.17,.99c-.13,1.77-.47,3.65-.87,4.86-.4-.23-1.29-.49-1.77-.65,.46-1.14,.68-2.91,.8-4.5l1.84,.28Zm1.94-.32c.23,1.27,.46,2.85,.51,3.91l-1.73,.34c-.02-1.04-.21-2.7-.4-3.93l1.61-.32Zm1.88-.59c.34,.93,.7,2.11,.87,2.89l-1.6,.57c-.13-.8-.49-2.01-.82-2.96l1.54-.49Zm11.34,3.38v2.07h-10.87v-2.07h4.29v-2.62h-3.42v-2.01h9.21v2.01h-3.51v2.62h4.29Zm-6.84-11.66c-.57,.99-1.22,2.05-1.82,2.94,.8,1.04,1.56,2.22,1.96,3.04l-1.8,.7c-.42-.99-1.25-2.39-2.24-3.7,.78-1.14,1.56-2.53,2-3.44l1.92,.46Zm6.63-.76h-10.24v-2.01h10.24v2.01Zm-5.07,7.37c-.42-.97-1.31-2.37-2.3-3.67,.76-1.1,1.58-2.47,2.01-3.36l1.9,.44c-.57,.97-1.23,2.03-1.82,2.91,.78,1.01,1.6,2.17,1.99,2.94l-1.79,.74Zm3.34,.08c-.46-.99-1.42-2.41-2.51-3.7,.8-1.12,1.63-2.53,2.09-3.44l1.94,.46c-.59,1.01-1.27,2.05-1.9,2.94,.86,1.01,1.73,2.17,2.17,2.96l-1.79,.78Z"/><path class="cls-5" d="M248.18,214.08c-2.09,.74-4.37,1.46-6.19,2.05l-.51-2.3c.67-.17,1.44-.38,2.32-.63v-4.46h-1.92v-2.07h1.92v-3.34h-2.09v-2.11h6.27v2.11h-2.03v3.34h1.71v2.07h-1.71v3.8c.63-.19,1.25-.38,1.86-.59l.38,2.13Zm11.28,1.16v2.05h-12.21v-2.05h5.24v-1.8h-3.93v-2.03h3.93v-1.63h-3.8v-8.83h9.92v8.83h-3.82v1.63h4.03v2.03h-4.03v1.8h4.67Zm-8.74-10.81h1.96v-1.58h-1.96v1.58Zm0,3.42h1.96v-1.63h-1.96v1.63Zm5.74-5h-1.88v1.58h1.88v-1.58Zm0,3.36h-1.88v1.63h1.88v-1.63Z"/><path class="cls-5" d="M263.21,212.9c-.13,1.67-.44,3.48-.84,4.64-.38-.21-1.22-.48-1.69-.59,.46-1.12,.67-2.81,.78-4.33l1.75,.28Zm-2.51-7.26c.38-.11,.7-.46,1.1-1.03,.38-.51,1.58-2.6,2.26-4.58l2.07,.84c-.68,1.54-1.6,3.15-2.56,4.48l1.33-.1c.49-.8,.99-1.65,1.37-2.51l1.88,1.2c-1.08,1.94-2.49,3.89-3.95,5.53l1.99-.28c-.17-.46-.34-.89-.53-1.27l1.52-.57c.61,1.2,1.2,2.75,1.37,3.78l-1.65,.67c-.04-.27-.09-.59-.19-.93-4.03,.72-4.73,.87-5.15,1.12-.11-.4-.46-1.44-.72-1.99,.51-.13,.93-.55,1.54-1.25,.25-.27,.7-.8,1.24-1.54-1.48,.17-1.92,.28-2.2,.44-.11-.44-.46-1.42-.7-1.99Zm4.48,6.84c.23,1.22,.44,2.77,.49,3.78l-1.63,.42c-.02-1.03-.21-2.62-.4-3.82l1.54-.38Zm12.84-5.81c-.47,2.85-1.33,5.24-2.53,7.14,.82,.89,1.79,1.6,2.91,2.09-.49,.42-1.16,1.27-1.5,1.88-1.06-.55-1.98-1.27-2.75-2.17-.82,.91-1.71,1.65-2.72,2.28-.34-.53-.93-1.29-1.42-1.69,1.03-.57,1.98-1.39,2.79-2.41-.57-.97-1.06-2.09-1.48-3.27-.38,2.89-1.06,5.34-2.34,7.26-.34-.36-1.41-1.12-1.94-1.41,.3-.4,.57-.85,.8-1.33l-1.31,.47c-.15-.8-.53-2.09-.87-3.06l1.5-.49c.32,.85,.67,1.9,.87,2.7,1.27-2.91,1.54-6.95,1.56-11.61h-1.58v-2.13h6.46l.32-.09,1.58,.21c-.19,1.63-.53,3.55-.85,5.21h.7l.36-.08,1.44,.49Zm-6.25-3.61c-.02,1.1-.06,2.17-.09,3.19h1.73c.21-1.01,.4-2.18,.55-3.19h-2.19Zm.82,5.21c.34,1.29,.84,2.53,1.48,3.61,.59-1.08,1.06-2.3,1.41-3.61h-2.89Z"/><path class="cls-5" d="M287.76,212.52c-2.51,1.12-5.32,2.32-7.47,3.21l-.76-2.41c.72-.25,1.58-.55,2.53-.93l-.38-11.09,2.36-.1,.34,10.28c.95-.4,1.92-.8,2.87-1.18l.51,2.22Zm7.87,5.34c-.7-1.23-2.15-2.98-3.55-4.58-1.39,1.98-3.27,3.5-5.78,4.62-.32-.49-1.25-1.52-1.8-1.99,6.02-2.28,7.98-6.88,8.68-14.69l2.49,.23c-.4,3.89-1.08,7.07-2.32,9.65,1.58,1.63,3.34,3.55,4.22,4.88l-1.94,1.88Zm-7.12-9.75c-.47-1.31-1.69-3.31-2.83-4.71l2.05-1.03c1.24,1.39,2.43,3.25,3,4.56l-2.22,1.18Z"/><path class="cls-5" d="M316.12,214.67v2.28h-17.27v-2.28h6.8v-14.31h2.43v5.43h6.71v2.3h-6.71v6.57h8.04Z"/><path class="cls-5" d="M245.96,267.08c-.25,1.27-.59,2.56-1.01,3.78h3.55v8.74h-3.63v1.39h-1.88v-5.91c-.25,.36-.51,.72-.78,1.04-.08-.61-.46-2.05-.76-2.7,1.16-1.56,1.94-3.86,2.41-6.35h-2.01v-2.05h6.9v2.05h-2.79Zm.63,5.77h-1.71v4.75h1.71v-4.75Zm12.77,1.14h-1.99v7.9h-2.15v-7.9h-2.17c-.11,2.79-.67,5.96-2.62,8.04-.38-.4-1.2-1.03-1.71-1.31,1.63-1.77,2.11-4.41,2.22-6.73h-1.77v-2.13h1.8v-4.69h-1.31v-2.09h9.31v2.09h-1.61v4.69h1.99v2.13Zm-4.14-2.13v-4.69h-2.13v4.69h2.13Z"/><path class="cls-5" d="M278.01,267.29c-.72,.65-1.54,1.25-2.24,1.75,.83,.44,1.75,.8,2.72,1.06-.47,.44-1.04,1.23-1.35,1.79-.78-.25-1.48-.55-2.17-.91v1.63c0,.46,.04,.61,.28,.61h.93c.27,0,.72-.02,.97-.1,.04,.46,.08,1.1,.15,1.54-.27,.1-.7,.11-1.1,.11h-1.18c-1.6,0-1.9-.65-1.9-2.18v-1.1h-1.75c-.06,1.33-.51,2.75-2.09,3.76-.21-.32-.76-.87-1.14-1.22v.57h-3.76c-.08,.44-.13,.89-.19,1.31h3.95s-.02,.51-.04,.78c-.21,2.56-.44,3.8-.93,4.29-.4,.44-.86,.59-1.52,.63-.51,.06-1.5,.06-2.51,.02-.04-.59-.3-1.37-.65-1.88,.95,.08,1.88,.1,2.3,.1,.3,0,.51-.02,.68-.19,.23-.21,.4-.82,.53-2.11h-3.99c.27-1.23,.57-3.12,.74-4.62h3.36v-1.33h-2.75v-.3c-.57,.29-1.14,.53-1.73,.74-.27-.49-.82-1.25-1.22-1.65,1.12-.32,2.2-.84,3.19-1.46-.51-.38-1.2-.82-1.77-1.14l1.29-1.2c.65,.32,1.44,.78,1.99,1.2,.4-.38,.78-.78,1.1-1.22h-3.74v-1.77h4.96l.38-.09,1.39,.68c-.76,1.86-2.03,3.34-3.57,4.5h2.49v3.78c1.18-.78,1.35-1.69,1.35-2.55v-1.35h3.63c-1.65-1.31-2.93-3-3.84-5.03l1.8-.53c.29,.65,.65,1.25,1.08,1.79,.63-.53,1.33-1.22,1.79-1.75l1.61,1.16c-.78,.65-1.6,1.33-2.32,1.84,.32,.3,.67,.59,1.01,.85,.72-.57,1.6-1.37,2.11-1.98l1.63,1.16Zm-1.39,8.4c-.47,1.39-1.18,2.49-2.09,3.38,.85,.47,1.63,.95,2.2,1.33l-1.14,1.5c-.65-.46-1.56-1.04-2.58-1.65-1.2,.74-2.66,1.27-4.24,1.63-.19-.49-.59-1.22-.95-1.63,1.24-.21,2.39-.57,3.38-1.06-.93-.51-1.82-1.03-2.64-1.46l.76-.91h-.46v-1.5h6.17l.34-.06,1.24,.44Zm-6.31,1.12c.8,.42,1.67,.85,2.53,1.33,.46-.4,.85-.84,1.2-1.33h-3.72Z"/><path class="cls-5" d="M297.16,278.29v2.28h-17.27v-2.28h7.24v-9.82h-6.21v-2.36h15.18v2.36h-6.38v9.82h7.45Z"/><path class="cls-5" d="M304.57,276.75c-.25-.63-.72-1.56-1.18-2.41v7.56h-2.15v-7.07c-.55,1.58-1.18,3.06-1.88,4.1-.19-.68-.67-1.67-.97-2.24,.89-1.25,1.79-3.27,2.34-5.09h-2.09v-2.11h2.6v-2.28c-.61,.11-1.22,.23-1.79,.3-.09-.51-.36-1.27-.61-1.75,1.94-.34,4.08-.91,5.49-1.58l1.2,1.86c-.67,.27-1.39,.49-2.15,.68v2.75h2.13v2.11h-2.13v.3c.49,.55,2.03,2.53,2.38,3l-1.2,1.84Zm11.63,2.75v2.01h-10.98v-2.01h4.58v-1.73h-3.61v-1.94h3.61v-1.54c-1.01,.08-2.03,.13-2.98,.17-.08-.49-.32-1.25-.55-1.71,2.74-.17,5.83-.53,7.75-1.03l1.39,1.71c-1.01,.25-2.17,.44-3.36,.61v1.79h3.4v1.94h-3.4v1.73h4.16Zm-.91-8.02h-9v-6.54h9v6.54Zm-2.18-4.64h-4.73v2.74h4.73v-2.74Z"/><path class="cls-5" d="M144.38,342.91c-1.29,1.08-3.57,2.07-5.53,2.53-.29-.47-.87-1.22-1.33-1.63,1.9-.27,4.1-.91,5.26-1.61l1.6,.72Zm10.07-3.21v1.86h-7.37v4.33h-2.24v-4.33h-7.24v-1.86h7.24v-.84h-5.47v-1.63h5.47v-.85h-6.42v-1.71h3.5c-.17-.44-.46-.97-.7-1.39l1.27-.29h-4.84v-1.77h2.58c-.29-.72-.78-1.63-1.22-2.36l1.94-.65c.57,.8,1.2,1.94,1.44,2.66l-.91,.34h1.75v-3.1h2.09v3.1h1.42v-3.1h2.13v3.1h1.69l-.68-.21c.44-.76,.95-1.92,1.22-2.74l2.38,.55c-.53,.87-1.04,1.73-1.52,2.39h2.45v1.77h-5.01l1.79,.46c-.42,.46-.82,.87-1.16,1.22h3.67v1.71h-6.59v.85h5.7v1.63h-5.7v.84h7.37Zm-10.96-6.71c.3,.48,.61,1.03,.76,1.42l-1.03,.25h5.19l-.68-.21c.3-.44,.7-1.01,.97-1.46h-5.21Zm5.93,9.08c1.54,.57,3.78,1.52,5,2.13l-1.6,1.23c-1.1-.63-3.33-1.63-4.92-2.3l1.52-1.06Z"/><path class="cls-5" d="M172.47,331.91c-.49,1.08-1.12,2-1.9,2.77,1.04,.49,2.22,.87,3.5,1.12-.49,.46-1.12,1.35-1.42,1.92-1.44-.36-2.74-.93-3.88-1.63-1.12,.68-2.43,1.2-3.88,1.6-.11-.21-.3-.49-.53-.8-.27,1.18-.59,2.32-.93,3.17l-1.52-.7c.21-.7,.44-1.65,.61-2.62h-1.01v6.69c0,1.03-.15,1.63-.82,1.98-.65,.36-1.5,.4-2.68,.4-.06-.63-.36-1.54-.65-2.15,.7,.02,1.46,.02,1.71,.02,.23-.02,.3-.06,.3-.29v-4.07c-.67,1.41-1.46,2.68-2.38,3.51-.19-.65-.68-1.58-1.03-2.18,1.04-.93,2.03-2.41,2.7-3.91h-2.38v-1.98h4.35c-1.06-.65-2.49-1.37-3.67-1.84l1.42-1.44c.46,.17,.99,.38,1.5,.61,.42-.36,.84-.78,1.2-1.2h-4.56v-1.9h6.14l.34-.08,1.44,.91c-.65,1.06-1.71,2.22-2.77,3.13,.55,.29,1.03,.57,1.39,.84l-.93,.97h.91l.3-.09,1.37,.46-.08,.44c.84-.23,1.63-.51,2.32-.87-.49-.48-.95-1.01-1.35-1.58-.29,.3-.57,.57-.85,.82-.44-.36-1.31-.97-1.84-1.27,1.48-1.06,2.89-2.77,3.63-4.52l2.11,.57c-.21,.46-.44,.89-.7,1.33h5.6v1.88h-1.1Zm.89,6.8s-.04,.59-.08,.85c-.3,3.29-.65,4.75-1.2,5.36-.42,.44-.82,.59-1.39,.67-.47,.06-1.25,.08-2.13,.04-.02-.63-.27-1.52-.61-2.09,.68,.08,1.33,.09,1.63,.09,.27,0,.42-.04,.61-.21,.27-.25,.51-1.06,.72-2.83h-2.2c-.65,2.26-2,4.1-5,5.28-.25-.53-.84-1.33-1.31-1.75,2.28-.84,3.38-2.05,3.97-3.53h-2.3v-1.88h2.77c.1-.55,.15-1.1,.19-1.69h2.26c-.06,.57-.11,1.14-.19,1.69h4.24Zm-6.23-6.8c.42,.59,.95,1.14,1.58,1.62,.51-.46,.93-1.01,1.25-1.62h-2.83Z"/><path class="cls-5" d="M182.33,338.43l-2.03,1.75c-1.16-1.42-2.77-3.06-4.08-4.18l1.98-1.73c1.35,1.1,3.17,2.98,4.14,4.16Z"/><path class="cls-5" d="M202.24,335.6v2.45h-17.48v-2.45h17.48Z"/><path class="cls-5" d="M220.93,336.49c-.49,2.45-1.37,4.33-2.55,5.79,.91,.65,2,1.14,3.17,1.5-.49,.44-1.14,1.29-1.44,1.88-1.27-.46-2.38-1.04-3.34-1.82-1.08,.85-2.34,1.46-3.72,1.9-.25-.49-.85-1.39-1.27-1.77-.08,.68-.32,1.06-.84,1.35-.63,.32-1.58,.34-2.93,.34-.06-.53-.34-1.41-.59-1.92,.8,.04,1.71,.04,2,.04,.27-.02,.36-.1,.36-.38v-5.51c-1.01,.11-2.03,.23-2.98,.32-.11,2.58-.49,5.57-1.46,7.67-.38-.34-1.27-.95-1.73-1.14,.8-1.82,1.1-4.16,1.2-6.35l-1.04,.11-.19-2.05,1.29-.08v-6.29h1.98c.21-.67,.42-1.42,.51-2.03l2.28,.27c-.27,.65-.51,1.24-.72,1.77h2.89v5.76l.38-.04,.04,1.77-.42,.06v5.78c0,.19,0,.36-.02,.53,1.33-.36,2.47-.87,3.48-1.54-1.03-1.14-1.82-2.49-2.47-4.03l1.2-.36h-1.33v-1.98h6.63l.36-.06,1.29,.49Zm-12.69,5.68c-.3-.78-.91-2-1.46-2.91l1.41-.68c.59,.86,1.22,2.01,1.54,2.75l-1.48,.84Zm-1.39-5.91c.91-.08,1.92-.15,2.93-.23v-4.16h-2.93v1.18l1.29-.65c.55,.8,1.16,1.84,1.46,2.53l-1.44,.8c-.27-.66-.82-1.69-1.31-2.51v3.04Zm8.38-4.6c0,1.48-.27,3.21-1.75,4.22-.32-.38-1.22-1.14-1.65-1.42,1.22-.8,1.33-1.84,1.33-2.85v-2.6h6.29v3.69c0,.51,.02,.7,.25,.7h.7c.23,0,.65-.04,.89-.13,.04,.55,.08,1.27,.15,1.79-.27,.11-.68,.13-1.04,.13h-.93c-1.77,0-2.11-.76-2.11-2.53v-1.73h-2.13v.74Zm-.36,6.36c.47,1.08,1.12,2.09,1.96,2.95,.68-.8,1.24-1.79,1.6-2.95h-3.55Z"/><path class="cls-5" d="M228.54,336.19c.76,.76,2.47,2.75,2.89,3.27l-1.29,1.88c-.36-.65-.97-1.6-1.6-2.49v7.01h-2.28v-6.76c-.76,1.79-1.65,3.42-2.66,4.54-.21-.67-.76-1.56-1.14-2.13,1.29-1.37,2.51-3.55,3.25-5.64h-2.83v-2.09h3.38v-2.47c-.93,.15-1.84,.29-2.72,.4-.09-.51-.36-1.27-.61-1.77,2.47-.34,5.24-.95,6.97-1.63l1.46,1.77c-.84,.3-1.82,.57-2.83,.8v2.91h2.75v2.09h-2.75v.32Zm10.85-6.27v14.91h-2.34v-1.37h-3.04v1.5h-2.22v-15.05h7.6Zm-2.34,11.38v-9.21h-3.04v9.21h3.04Z"/><path class="cls-5" d="M247.71,341.79l1.8,1.42c-1.71,.99-4.29,2.03-6.31,2.64-.34-.47-.97-1.23-1.46-1.67,1.96-.53,4.45-1.56,5.79-2.39h-5.55v-2.07h3.21v-7.62h-2.64v-2.07h2.64v-1.84h2.24v1.84h5.98v-1.84h2.3v1.84h2.77v2.07h-2.77v7.62h3.25v2.07h-11.27Zm-.27-9.69v1.18h5.98v-1.18h-5.98Zm0,4.33h5.98v-1.27h-5.98v1.27Zm0,3.29h5.98v-1.39h-5.98v1.39Zm5.6,2.2c2.15,.74,4.6,1.75,6.02,2.47l-2.17,1.42c-1.22-.72-3.38-1.75-5.47-2.51l1.62-1.39Z"/><path class="cls-5" d="M266.75,328.87c-.51,1.35-1.16,2.72-1.88,4.05v12.92h-2.17v-9.58c-.4,.51-.8,.97-1.18,1.39-.21-.55-.84-1.8-1.24-2.36,1.73-1.71,3.38-4.39,4.33-7.1l2.13,.68Zm8.23,14.8c1.12,0,1.33-.47,1.46-2.6,.51,.34,1.41,.7,2,.84-.29,2.83-.95,3.78-3.29,3.78h-4.31c-2.64,0-3.4-.68-3.4-3.32v-5.32l-1.44,.57-.85-1.99,2.3-.89v-4.48h2.13v3.63l1.9-.74v-4.92h2.03v4.12l2.55-.99,.19-.13,1.69,.51-.08,.36c-.09,2.72-.34,6.29-.76,8.64l-1.86-.53c.21-1.6,.34-4.1,.42-6.42l-2.15,.87v6.72h-2.03v-5.95l-1.9,.78v6.16c0,1.12,.19,1.31,1.44,1.31h3.97Z"/><path class="cls-5" d="M295.81,343.33c0,1.23-.3,1.84-1.18,2.2-.87,.34-2.18,.38-4.07,.38-.11-.63-.53-1.6-.85-2.18,1.33,.08,2.89,.06,3.31,.06,.4-.02,.55-.13,.55-.49v-1.5h-9.5c-.49,1.58-1.41,3.08-2.96,4.18-.3-.44-1.14-1.27-1.6-1.58,2.72-1.92,2.98-4.71,2.98-7.01v-2.83c-.32,.29-.67,.55-1.01,.82-.34-.53-1.1-1.33-1.6-1.65,2.41-1.63,4.05-3.8,4.94-5.66l2.41,.42c-.11,.23-.25,.48-.38,.7h3.76l.36-.09,1.54,1.01c-.42,.74-.97,1.58-1.54,2.36h4.83v10.89Zm-11.15-5.28c-.02,.59-.06,1.2-.15,1.8h3.42v-1.8h-3.27Zm1.04-7.03c-.34,.47-.7,.97-1.1,1.42h3.91c.3-.44,.63-.95,.89-1.42h-3.71Zm-1.03,5.13h3.25v-1.73h-3.25v1.73Zm8.89-1.73h-3.5v1.73h3.5v-1.73Zm0,5.43v-1.8h-3.5v1.8h3.5Z"/><path class="cls-5" d="M311.85,343.48c1.82,0,2.11-.42,2.36-2.77,.57,.32,1.5,.68,2.13,.8-.4,3.12-1.18,4.03-4.37,4.03h-6.5c-3.53,0-4.62-.68-4.62-3.4v-6.92c-.38,.3-.76,.57-1.12,.84-.21-.53-.82-1.65-1.22-2.17,2.24-1.35,4.54-3.53,5.81-5.89l2.05,.78c-.15,.27-.32,.55-.47,.82h4.37l.44-.11,1.44,1.08c-.65,.91-1.46,1.94-2.34,2.83h4.64v7.14h-2.22v-.65h-9.19v2.24c0,1.16,.32,1.35,2.39,1.35h6.42Zm-7.39-11.87c-.51,.63-1.03,1.22-1.6,1.79h4.26c.55-.51,1.1-1.14,1.6-1.79h-4.25Zm-1.42,6.14h3.53v-2.26h-3.53v2.26Zm9.19-2.26h-3.46v2.26h3.46v-2.26Z"/></g><g><path class="cls-3" d="M642.77,429.5c3.42-3.06,5.44-5.42,5.44-7.36,0-1.28-.7-2.04-1.89-2.04-.92,0-1.68,.59-2.31,1.29l-1.36-1.36c1.16-1.22,2.28-1.9,3.99-1.9,2.38,0,3.96,1.53,3.96,3.88s-1.89,4.73-4.18,6.97c.63-.07,1.46-.14,2.04-.14h2.74v2.11h-8.43v-1.45Z"/><path class="cls-3" d="M652.8,424.6c0-4.35,1.7-6.48,4.27-6.48s4.25,2.14,4.25,6.48-1.7,6.58-4.25,6.58-4.27-2.24-4.27-6.58Zm6.15,0c0-3.52-.82-4.54-1.89-4.54s-1.9,1.02-1.9,4.54,.82,4.62,1.9,4.62,1.89-1.09,1.89-4.62Z"/><path class="cls-3" d="M662.79,429.5c3.42-3.06,5.44-5.42,5.44-7.36,0-1.28-.7-2.04-1.89-2.04-.92,0-1.68,.59-2.31,1.29l-1.36-1.36c1.16-1.22,2.28-1.9,3.99-1.9,2.38,0,3.96,1.53,3.96,3.88s-1.89,4.73-4.18,6.97c.63-.07,1.46-.14,2.04-.14h2.74v2.11h-8.43v-1.45Z"/><path class="cls-3" d="M672.81,429.5c3.42-3.06,5.44-5.42,5.44-7.36,0-1.28-.7-2.04-1.89-2.04-.92,0-1.68,.59-2.31,1.29l-1.36-1.36c1.16-1.22,2.28-1.9,3.99-1.9,2.38,0,3.96,1.53,3.96,3.88s-1.89,4.73-4.18,6.97c.63-.07,1.46-.14,2.04-.14h2.74v2.11h-8.43v-1.45Z"/><path class="cls-3" d="M697.32,419.57c.92,.9,2.72,1.33,5.01,1.45-.41,.39-.88,1.12-1.12,1.61-1.9-.24-3.38-.78-4.45-1.72-.65,.75-2.06,1.41-4.91,1.73-.14-.32-.41-.75-.68-1.11h-4.5v-1.55h5.13v1.04c3.25-.34,3.67-1.1,3.67-1.73v-.25h-1.02c-.36,.56-.76,1.07-1.19,1.46-.32-.31-1.07-.8-1.5-1.04,.9-.75,1.6-1.87,1.99-3.03l1.77,.39c-.08,.25-.19,.51-.29,.75h4.83l.31-.08,1.38,.42c-.44,.93-1.02,2.01-1.56,2.69l-1.56-.58c.19-.27,.41-.63,.59-.99h-1.89v.53Zm.46,10c1.56,.58,3.23,1.26,4.23,1.75l-1.82,1.09c-.97-.56-2.74-1.39-4.42-2.01l1.04-.83h-4.79l1.48,.68c-1.39,.88-3.59,1.73-5.3,2.21-.34-.39-1.05-1.14-1.5-1.48,1.63-.31,3.45-.82,4.64-1.41h-2.45v-6.9h11.37v6.9h-2.48Zm-6.38-10.71h-4.35v-1.48h4.35v1.48Zm-.56,5.75h7.36v-.73h-7.36v.73Zm0,1.87h7.36v-.73h-7.36v.73Zm0,1.9h7.36v-.77h-7.36v.77Z"/><path class="cls-3" d="M708.71,424.76c.34,.46,1.61,2.58,1.87,3.11l-1.39,1.51c-.24-.75-.7-1.9-1.12-2.84v5.88h-1.87v-6.07c-.39,1.7-1.02,3.49-1.9,4.47-.17-.71-.61-1.73-.92-2.41,.71-.85,1.38-2.41,1.65-3.71l1.17,.41v-1.05h-2.57v-1.89h2.57v-5.63h1.87v5.63h2.52v1.89h-2.52v1.16l.65-.46Zm-4.32-2.87c-.03-1.05-.37-2.69-.78-3.93l1.41-.36c.46,1.24,.82,2.84,.88,3.89l-1.51,.39Zm6.49-4.01c-.44,1.36-.94,2.96-1.36,3.94l-1.29-.36c.37-1.07,.77-2.75,.95-3.94l1.7,.36Zm6.59,9.94v4.59h-1.9v-4.25l-4.74,.85-.31-1.89,5.05-.9v-9.69h1.9v9.35l1.73-.32,.31,1.89-2.04,.37Zm-5.81-6.17c.99,.53,2.24,1.36,2.86,1.95l-1.02,1.62c-.56-.61-1.8-1.53-2.79-2.11l.95-1.46Zm2.46-.61c-.53-.66-1.7-1.58-2.63-2.21l.97-1.36c.95,.56,2.16,1.43,2.7,2.06l-1.04,1.51Z"/></g></g></svg>