<svg xmlns="http://www.w3.org/2000/svg" viewBox="0 0 800 240"><defs><style>.a{fill:#0071bc;}.b{fill:#98d5f4;}.c{fill:none;stroke:gray;stroke-miterlimit:10;}.d{fill:#333;}</style></defs><rect class="a" x="324.01" y="58.74" width="311.99" height="63.12"/><rect class="b" x="324.01" y="128.88" width="187.19" height="63.12"/><line class="c" x1="324.01" y1="225" x2="324.01" y2="19"/><path d="M685,95.41h-4.47v-10c0-.23,0-.56,0-1s0-.92,0-1.42,0-1,0-1.36a4.3,4.3,0,0,1-.57.61c-.24.24-.47.44-.67.62l-2.14,1.74L675,81.81l6.17-5H685Z"/><path d="M702.8,86.13a17.84,17.84,0,0,1-.64,5.12,6.39,6.39,0,0,1-2.08,3.28,6.05,6.05,0,0,1-3.86,1.14,5.47,5.47,0,0,1-5-2.52,13.33,13.33,0,0,1-1.57-7,18,18,0,0,1,.64-5.14,6.38,6.38,0,0,1,2.08-3.29,6.05,6.05,0,0,1,3.86-1.14,5.47,5.47,0,0,1,5,2.52A13.19,13.19,0,0,1,702.8,86.13Zm-8.76,0a16.6,16.6,0,0,0,.45,4.48,1.75,1.75,0,0,0,3.46,0,16.6,16.6,0,0,0,.45-4.48,16.89,16.89,0,0,0-.45-4.49c-.3-1-.88-1.52-1.73-1.52s-1.43.51-1.73,1.52A16.89,16.89,0,0,0,694,86.13Z"/><path d="M689.62,163.53a22.54,22.54,0,0,1,.23-3.17,12.47,12.47,0,0,1,.82-3,7.87,7.87,0,0,1,1.65-2.47,7.32,7.32,0,0,1,2.73-1.69,11.77,11.77,0,0,1,4.06-.61c.36,0,.8,0,1.31,0a10.16,10.16,0,0,1,1.26.16v3.48c-.35-.07-.72-.12-1.13-.17s-.86-.06-1.37-.06a6.84,6.84,0,0,0-3.27.65,3.75,3.75,0,0,0-1.68,1.84,8.08,8.08,0,0,0-.58,2.79h.15a4.77,4.77,0,0,1,1.43-1.54,4.28,4.28,0,0,1,2.42-.62,4.92,4.92,0,0,1,3.85,1.56,6.36,6.36,0,0,1,1.4,4.39,6.43,6.43,0,0,1-1.73,4.81,6.33,6.33,0,0,1-4.69,1.72,7,7,0,0,1-3.5-.87,6.05,6.05,0,0,1-2.45-2.68A10.11,10.11,0,0,1,689.62,163.53Zm6.78,4.6a2,2,0,0,0,1.6-.7,3.3,3.3,0,0,0,.61-2.21,3.1,3.1,0,0,0-.52-1.9,1.91,1.91,0,0,0-1.63-.7,2.27,2.27,0,0,0-1.8.73,2.34,2.34,0,0,0-.65,1.59,4.54,4.54,0,0,0,.26,1.49,2.94,2.94,0,0,0,.79,1.22A2,2,0,0,0,696.4,168.13Z"/><path class="d" d="M218.35,90.91c0-.23-.1-.51-.16-.82-3.79.57-4.48.71-4.9.92a19.42,19.42,0,0,0-.7-2c.48-.11.89-.53,1.48-1.23.23-.27.67-.82,1.2-1.58a7,7,0,0,0-2.13.42,19.37,19.37,0,0,0-.66-1.86,2.35,2.35,0,0,0,1.08-1,21.45,21.45,0,0,0,2.26-4.67l2,.81a27.09,27.09,0,0,1-2.55,4.54l1.25-.09a24.09,24.09,0,0,0,1.28-2.47L219.62,83a33.55,33.55,0,0,1-3.88,5.66l2-.25c-.13-.51-.31-1-.46-1.48l1.62-.51a29.79,29.79,0,0,1,1.18,3.91Zm-3.18,1a22.23,22.23,0,0,1-.87,4.86,12.7,12.7,0,0,0-1.77-.64,16.47,16.47,0,0,0,.8-4.51Zm1.94-.32a34.21,34.21,0,0,1,.51,3.91l-1.72.34a34.68,34.68,0,0,0-.4-3.93ZM219,91a25.54,25.54,0,0,1,.88,2.89l-1.6.57a20.68,20.68,0,0,0-.82-3Zm11.34,3.38v2.07H219.47V94.37h4.29V91.75h-3.42v-2h9.21v2H226v2.62ZM223.5,82.71c-.58,1-1.22,2.05-1.83,2.94a20,20,0,0,1,2,3l-1.81.7a18.75,18.75,0,0,0-2.24-3.7,29.49,29.49,0,0,0,2-3.44Zm6.62-.76H219.88v-2h10.24Zm-5.07,7.37a19.84,19.84,0,0,0-2.3-3.67,30.75,30.75,0,0,0,2-3.36l1.9.43c-.57,1-1.24,2-1.83,2.91a23.37,23.37,0,0,1,2,2.94Zm3.35.07a19.21,19.21,0,0,0-2.51-3.7A29.65,29.65,0,0,0,228,82.25l1.94.46c-.59,1-1.28,2.05-1.9,2.94a20.66,20.66,0,0,1,2.16,3Z"/><path class="d" d="M238.18,93.08c-2.09.74-4.37,1.46-6.19,2l-.51-2.3c.66-.17,1.44-.38,2.31-.63V87.74h-1.91V85.67h1.91V82.32H231.7v-2.1H238v2.1h-2v3.35h1.71v2.07h-1.71v3.8c.63-.19,1.25-.38,1.86-.59Zm11.29,1.16v2.05H237.25V94.24h5.25V92.43h-3.94v-2h3.94V88.76h-3.8V79.93h9.91v8.83h-3.82V90.4h4v2h-4v1.81Zm-8.74-10.81h2V81.85h-2Zm0,3.42h2V85.21h-2Zm5.73-5h-1.88v1.58h1.88Zm0,3.36h-1.88v1.64h1.88Z"/><path class="d" d="M267.5,85.86a15.1,15.1,0,0,1-3.73,7,14.43,14.43,0,0,0,4.66,1.94,11.06,11.06,0,0,0-1.58,2.14,14.17,14.17,0,0,1-5-2.47,17.69,17.69,0,0,1-5.64,2.66A8.26,8.26,0,0,0,254.94,95a15,15,0,0,0,5.19-2.24,17.45,17.45,0,0,1-3.08-5.37h-.29a14.37,14.37,0,0,1-4.63,9.19,9.6,9.6,0,0,0-1.63-2c3.76-3.21,4.14-8,4.14-11.07V82.12h-3V79.91h12c-.3,1.75-.7,3.76-1.06,5.34h2.85l.41-.09ZM257,83.58c0,.53,0,1.08,0,1.67H260c.27-1,.53-2,.78-3.13H257Zm2.26,3.82a12.05,12.05,0,0,0,2.62,3.91,11.09,11.09,0,0,0,2.53-3.91Z"/><path class="d" d="M277.76,91.52c-2.51,1.12-5.32,2.32-7.47,3.21l-.76-2.41c.72-.25,1.58-.55,2.53-.93l-.38-11.1L274,80.2l.34,10.27,2.87-1.17Zm7.86,5.34a32.64,32.64,0,0,0-3.55-4.58,13.73,13.73,0,0,1-5.77,4.62,13.75,13.75,0,0,0-1.81-2c6-2.28,8-6.88,8.68-14.68l2.49.22a29.2,29.2,0,0,1-2.32,9.65A41.31,41.31,0,0,1,287.56,95Zm-7.12-9.75a19.28,19.28,0,0,0-2.83-4.71l2.05-1a19,19,0,0,1,3,4.55Z"/><path class="d" d="M306.12,93.67V96H288.86V93.67h6.8V79.36h2.43v5.43h6.7v2.3h-6.7v6.58Z"/><path class="d" d="M241.6,165.39h7v2H232.46v-2h6.79v-2.3h-4.92v-2h4.92V159h-4v-1.64a24.21,24.21,0,0,1-2.42,1.43,9.66,9.66,0,0,0-1.38-1.83,21.44,21.44,0,0,0,6.25-4.12h-2.53v-2.09h6.5a17.2,17.2,0,0,0,7.9,6,11.06,11.06,0,0,0-1.52,2.07,18.93,18.93,0,0,1-2.39-1.35V159H241.6v2.16h5v2h-5ZM245,157a24.8,24.8,0,0,1-4.56-4.16,25.85,25.85,0,0,1-4.67,4.16Z"/><path class="d" d="M259.79,154.6c-.4.91-.78,1.9-1.16,2.69h2.22v2.06h-10v-2.06h2.43a14.2,14.2,0,0,0-.95-2.66l1.54-.37h-2.55v-2h3.59a13,13,0,0,0-.6-1.65l2.07-.59a20.66,20.66,0,0,1,.91,2.24h3.21v2h-2.22Zm-8.1,6.11h8.44v7H257.9V167h-4.06v.86h-2.15Zm2.15,2v2.32h4.06v-2.32Zm.45-8.47a13.28,13.28,0,0,1,1.05,2.71l-1.14.32h2.26a20.94,20.94,0,0,0,1.06-3Zm14.06-2.34c-.64,1.82-1.42,4-2.14,5.64A6.32,6.32,0,0,1,268,162a3.18,3.18,0,0,1-1,2.79,2.71,2.71,0,0,1-1.25.45,7,7,0,0,1-1.46,0,5.51,5.51,0,0,0-.55-2.09c.41,0,.79,0,1.06,0a1.27,1.27,0,0,0,.7-.19c.33-.19.44-.66.44-1.31a5.72,5.72,0,0,0-1.84-3.91c.53-1.39,1.12-3.33,1.56-4.77h-2.13V167.8h-2V151h4.9l.33-.08Z"/><path class="d" d="M282.43,164.59c1.77.53,3.71,1.22,5,1.73l-2,1.59a50.92,50.92,0,0,0-6.1-2.2l1.58-1.12h-5.15l1.45,1a25.68,25.68,0,0,1-5.89,2.28,20.35,20.35,0,0,0-1.71-1.62,22.93,22.93,0,0,0,4.86-1.67h-2.94v-8.42h13.88v8.42Zm2.34-9.12H272.4v-4.75h12.37Zm-11,3.06h9.31v-.82h-9.31Zm0,2.24h9.31V160h-9.31Zm0,2.28h9.31v-.84h-9.31Zm8.57-10.56h-7.68v1.23h7.68Z"/><path class="d" d="M306.16,164.29v2.28H288.89v-2.28h7.24v-9.83h-6.21v-2.35H305.1v2.35h-6.38v9.83Z"/></svg>