<svg xmlns="http://www.w3.org/2000/svg" viewBox="0 0 800 480"><defs><style>.a{fill:#e6e6e6;}.b{fill:#29abe2;}.c{fill:#98d5f4;}.d{fill:#0071bc;}.e{fill:none;stroke:gray;stroke-miterlimit:10;}.f{fill:#333;}.g{fill:#999;}</style></defs><rect class="a" x="339.01" y="307.66" width="321.32" height="57.91"/><rect class="b" x="339.01" y="243.31" width="139.99" height="57.91"/><rect class="c" x="339.01" y="178.96" width="139.99" height="57.91"/><rect class="d" x="339.01" y="114.62" width="189.49" height="57.91"/><line class="e" x1="339.01" y1="400.96" x2="339.01" y2="79.22"/><path d="M690.83,146.41H677.62v-3l4.6-4.65c.94-1,1.68-1.77,2.24-2.4a7.61,7.61,0,0,0,1.18-1.65,3.43,3.43,0,0,0,.35-1.52,1.73,1.73,0,0,0-.58-1.44,2.37,2.37,0,0,0-1.47-.46,4.15,4.15,0,0,0-1.94.5,11.77,11.77,0,0,0-2.07,1.43l-2.42-2.84a17.73,17.73,0,0,1,1.72-1.36,8,8,0,0,1,2.15-1,9.55,9.55,0,0,1,3-.41,7.33,7.33,0,0,1,3.23.67,5.09,5.09,0,0,1,2.08,1.79,4.74,4.74,0,0,1,.72,2.59,6.7,6.7,0,0,1-.59,2.83A10.06,10.06,0,0,1,688,138c-.78.83-1.74,1.76-2.86,2.8l-1.93,1.77v.16h7.6Z"/><path d="M705.18,132a4.33,4.33,0,0,1-.55,2.24,4.63,4.63,0,0,1-1.47,1.55,6.69,6.69,0,0,1-2,.89v.08a6.17,6.17,0,0,1,3.41,1.37,3.82,3.82,0,0,1,1.19,3,5.27,5.27,0,0,1-.8,2.84,5.56,5.56,0,0,1-2.49,2,10.63,10.63,0,0,1-4.32.75,15.37,15.37,0,0,1-3-.26,14.19,14.19,0,0,1-2.48-.75v-3.72a10.73,10.73,0,0,0,2.5.92,10.62,10.62,0,0,0,2.39.3,4.35,4.35,0,0,0,2.74-.64,2.16,2.16,0,0,0,.77-1.75,2,2,0,0,0-.36-1.2,2.35,2.35,0,0,0-1.29-.75,9.77,9.77,0,0,0-2.59-.26h-1.27V135.2h1.3a8.15,8.15,0,0,0,2.44-.28,2.28,2.28,0,0,0,1.21-.8,2,2,0,0,0,.35-1.15c0-1.22-.8-1.82-2.39-1.82a5.22,5.22,0,0,0-2.28.47,16.89,16.89,0,0,0-1.54.8l-1.95-3a10.72,10.72,0,0,1,2.6-1.31,10.89,10.89,0,0,1,3.69-.54,7.87,7.87,0,0,1,4.52,1.15A3.69,3.69,0,0,1,705.18,132Z"/><path d="M711.94,127.58a4.1,4.1,0,0,1,3.4,1.53,6.62,6.62,0,0,1,1.22,4.27,7.15,7.15,0,0,1-1.14,4.31,4,4,0,0,1-3.48,1.54,4,4,0,0,1-3.33-1.54,6.88,6.88,0,0,1-1.2-4.31,7.13,7.13,0,0,1,1.12-4.27A4,4,0,0,1,711.94,127.58Zm0,2.87c-.4,0-.68.25-.85.75a7.71,7.71,0,0,0-.24,2.21,8.09,8.09,0,0,0,.24,2.24c.17.52.45.78.85.78s.68-.26.84-.78a7.67,7.67,0,0,0,.25-2.24,7.31,7.31,0,0,0-.25-2.21Q712.59,130.45,712,130.45Zm13.57-2.6-10.3,18.56h-3.38l10.3-18.56Zm-.1,7.15a4.1,4.1,0,0,1,3.4,1.52,6.62,6.62,0,0,1,1.22,4.27,7.17,7.17,0,0,1-1.14,4.31,4,4,0,0,1-3.48,1.54,4,4,0,0,1-3.33-1.54,6.9,6.9,0,0,1-1.2-4.31,7.13,7.13,0,0,1,1.12-4.27A3.94,3.94,0,0,1,725.46,135Zm0,2.83c-.4,0-.68.26-.85.78a10.3,10.3,0,0,0,0,4.42c.17.52.45.78.85.78.73,0,1.09-1,1.09-3S726.24,137.83,725.51,137.83Z"/><path d="M688,213.74h-4.47v-10c0-.22,0-.56,0-1s0-.93,0-1.43,0-1,0-1.35a7,7,0,0,1-.57.61c-.24.23-.47.44-.67.61l-2.14,1.74L678,200.14l6.17-5H688Z"/><path d="M694.52,213.74l6.68-14.87h-8.63v-3.69h13.34v2.7l-6.79,15.86Z"/><path d="M711.94,194.92a4.13,4.13,0,0,1,3.4,1.52,6.63,6.63,0,0,1,1.22,4.28,7.13,7.13,0,0,1-1.14,4.3,4,4,0,0,1-3.48,1.55,4,4,0,0,1-3.33-1.55,6.87,6.87,0,0,1-1.2-4.3,7.15,7.15,0,0,1,1.12-4.28A4,4,0,0,1,711.94,194.92Zm0,2.86c-.4,0-.68.25-.85.75a7.76,7.76,0,0,0-.24,2.21,8,8,0,0,0,.24,2.24c.17.52.45.78.85.78s.68-.26.84-.78a7.62,7.62,0,0,0,.25-2.24,7.35,7.35,0,0,0-.25-2.21Q712.59,197.78,712,197.78Zm13.57-2.6-10.3,18.56h-3.38l10.3-18.56Zm-.1,7.15a4.1,4.1,0,0,1,3.4,1.52,6.63,6.63,0,0,1,1.22,4.28,7.13,7.13,0,0,1-1.14,4.3,4,4,0,0,1-3.48,1.55,4,4,0,0,1-3.33-1.55,6.87,6.87,0,0,1-1.2-4.3,7.15,7.15,0,0,1,1.12-4.28A3.94,3.94,0,0,1,725.46,202.33Zm0,2.83c-.4,0-.68.26-.85.78a10.3,10.3,0,0,0,0,4.42c.17.52.45.78.85.78.73,0,1.09-1,1.09-3S726.24,205.16,725.51,205.16Z"/><path d="M688,281.08h-4.47v-10c0-.23,0-.57,0-1s0-.93,0-1.43,0-.95,0-1.35a5.84,5.84,0,0,1-.57.61c-.24.24-.47.44-.67.61l-2.14,1.74L678,267.48l6.17-5H688Z"/><path d="M694.52,281.08l6.68-14.88h-8.63v-3.69h13.34v2.71l-6.79,15.86Z"/><path d="M711.94,262.25a4.13,4.13,0,0,1,3.4,1.52,6.65,6.65,0,0,1,1.22,4.28,7.11,7.11,0,0,1-1.14,4.3,4,4,0,0,1-3.48,1.55,4,4,0,0,1-3.33-1.55,6.85,6.85,0,0,1-1.2-4.3,7.17,7.17,0,0,1,1.12-4.28A4,4,0,0,1,711.94,262.25Zm0,2.86c-.4,0-.68.25-.85.76a7.71,7.71,0,0,0-.24,2.21,8,8,0,0,0,.24,2.23c.17.52.45.78.85.78s.68-.26.84-.78a7.55,7.55,0,0,0,.25-2.23,7.31,7.31,0,0,0-.25-2.21C712.67,265.36,712.39,265.11,712,265.11Zm13.57-2.6-10.3,18.57h-3.38l10.3-18.57Zm-.1,7.15a4.13,4.13,0,0,1,3.4,1.52,6.65,6.65,0,0,1,1.22,4.28,7.11,7.11,0,0,1-1.14,4.3,4,4,0,0,1-3.48,1.55,4,4,0,0,1-3.33-1.55,6.85,6.85,0,0,1-1.2-4.3,7.17,7.17,0,0,1,1.12-4.28A4,4,0,0,1,725.46,269.66Zm0,2.84c-.4,0-.68.26-.85.78a10.3,10.3,0,0,0,0,4.42c.17.52.45.78.85.78.73,0,1.09-1,1.09-3S726.24,272.5,725.51,272.5Z"/><path d="M690.15,334a4.33,4.33,0,0,1-.55,2.24,4.63,4.63,0,0,1-1.47,1.55,6.69,6.69,0,0,1-2,.89v.08a6.13,6.13,0,0,1,3.41,1.37,3.78,3.78,0,0,1,1.2,3,5.19,5.19,0,0,1-.81,2.84,5.53,5.53,0,0,1-2.48,2,10.68,10.68,0,0,1-4.33.75,15.26,15.26,0,0,1-3-.26,14,14,0,0,1-2.49-.75v-3.72a11.16,11.16,0,0,0,4.89,1.22,4.4,4.4,0,0,0,2.75-.64,2.15,2.15,0,0,0,.76-1.75,2,2,0,0,0-.36-1.2,2.28,2.28,0,0,0-1.29-.75,9.72,9.72,0,0,0-2.59-.26h-1.27V337.2h1.3a8.1,8.1,0,0,0,2.44-.28,2.24,2.24,0,0,0,1.21-.8,1.91,1.91,0,0,0,.35-1.15c0-1.22-.79-1.82-2.39-1.82a5.15,5.15,0,0,0-2.27.47,16,16,0,0,0-1.55.8l-2-3a10.38,10.38,0,0,1,6.29-1.85,7.91,7.91,0,0,1,4.53,1.15A3.7,3.7,0,0,1,690.15,334Z"/><path d="M705.85,337.88a18.64,18.64,0,0,1-.45,4.17,9.51,9.51,0,0,1-1.54,3.45,7.24,7.24,0,0,1-2.91,2.32,10.84,10.84,0,0,1-4.59.85c-.36,0-.79,0-1.28,0s-.91-.07-1.24-.12V345a11,11,0,0,0,2.29.23,7.26,7.26,0,0,0,3.42-.66,3.7,3.7,0,0,0,1.7-1.86,8.25,8.25,0,0,0,.57-2.76h-.15a5,5,0,0,1-1.38,1.54,4.36,4.36,0,0,1-2.55.62,4.82,4.82,0,0,1-3.77-1.56,6.4,6.4,0,0,1-1.4-4.42,6.48,6.48,0,0,1,1.71-4.77,6.37,6.37,0,0,1,4.71-1.73,6.93,6.93,0,0,1,3.48.89,6.06,6.06,0,0,1,2.47,2.71A10.44,10.44,0,0,1,705.85,337.88Zm-6.76-4.73a2.06,2.06,0,0,0-1.63.7,3.24,3.24,0,0,0-.63,2.21,3,3,0,0,0,.55,1.92,2,2,0,0,0,1.66.71,2.23,2.23,0,0,0,1.74-.75,2.29,2.29,0,0,0,.68-1.57,4.62,4.62,0,0,0-.26-1.52,2.92,2.92,0,0,0-.78-1.22A1.89,1.89,0,0,0,699.09,333.15Z"/><path d="M711.94,329.58a4.1,4.1,0,0,1,3.4,1.53,6.62,6.62,0,0,1,1.22,4.27,7.15,7.15,0,0,1-1.14,4.31,4,4,0,0,1-3.48,1.54,4,4,0,0,1-3.33-1.54,6.88,6.88,0,0,1-1.2-4.31,7.13,7.13,0,0,1,1.12-4.27A4,4,0,0,1,711.94,329.58Zm0,2.87c-.4,0-.68.25-.85.75a7.71,7.71,0,0,0-.24,2.21,8,8,0,0,0,.24,2.23c.17.53.45.79.85.79s.68-.26.84-.79a7.55,7.55,0,0,0,.25-2.23,7.31,7.31,0,0,0-.25-2.21Q712.59,332.45,712,332.45Zm13.57-2.6-10.3,18.56h-3.38l10.3-18.56Zm-.1,7.15a4.1,4.1,0,0,1,3.4,1.52,6.62,6.62,0,0,1,1.22,4.27,7.17,7.17,0,0,1-1.14,4.31,4,4,0,0,1-3.48,1.54,4,4,0,0,1-3.33-1.54,6.9,6.9,0,0,1-1.2-4.31,7.13,7.13,0,0,1,1.12-4.27A3.94,3.94,0,0,1,725.46,337Zm0,2.83c-.4,0-.68.26-.85.78a10.3,10.3,0,0,0,0,4.42c.17.52.45.78.85.78.73,0,1.09-1,1.09-3S726.24,339.83,725.51,339.83Z"/><path class="f" d="M247.29,151.39h7v2H238.15v-2h6.78v-2.3H240v-2h4.92V145h-4v-1.64a23,23,0,0,1-2.41,1.43,9.32,9.32,0,0,0-1.39-1.83,21.31,21.31,0,0,0,6.25-4.12h-2.52v-2.09h6.5a17.2,17.2,0,0,0,7.9,6,10.63,10.63,0,0,0-1.52,2.07,19,19,0,0,1-2.4-1.35V145h-4.06v2.16h5v2h-5Zm3.42-8.42a24.48,24.48,0,0,1-4.56-4.16,25.85,25.85,0,0,1-4.67,4.16Z"/><path class="f" d="M265.47,140.6c-.4.91-.78,1.9-1.16,2.69h2.23v2.06h-10v-2.06h2.43a13.86,13.86,0,0,0-.95-2.65l1.54-.38H257v-2h3.59a11.62,11.62,0,0,0-.61-1.65L262,136a18.92,18.92,0,0,1,.92,2.24h3.21v2h-2.23Zm-8.09,6.11h8.43v7h-2.22V153h-4.06v.86h-2.15Zm2.15,2v2.32h4.06v-2.32Zm.45-8.47a13.28,13.28,0,0,1,1,2.71l-1.14.32h2.26a22.22,22.22,0,0,0,1.06-3ZM274,137.92c-.65,1.82-1.42,4-2.15,5.64A6.34,6.34,0,0,1,273.7,148a3.21,3.21,0,0,1-1,2.79,2.71,2.71,0,0,1-1.25.45,7.07,7.07,0,0,1-1.47,0,5.17,5.17,0,0,0-.55-2.09c.42,0,.8,0,1.07,0a1.29,1.29,0,0,0,.7-.19c.32-.19.44-.66.44-1.31a5.72,5.72,0,0,0-1.84-3.91c.53-1.39,1.12-3.33,1.55-4.77h-2.13V153.8h-2V137h4.9l.32-.08Z"/><path class="f" d="M288.12,150.59c1.77.53,3.7,1.22,5,1.73l-2,1.59a50.92,50.92,0,0,0-6.1-2.2l1.58-1.12h-5.15l1.45,1a25.86,25.86,0,0,1-5.89,2.28,20.35,20.35,0,0,0-1.71-1.62,22.93,22.93,0,0,0,4.86-1.67h-2.95v-8.42h13.89v8.42Zm2.34-9.12H278.09v-4.75h12.37Zm-11,3.06h9.31v-.82h-9.31Zm0,2.24h9.31V146h-9.31Zm0,2.28h9.31v-.83h-9.31ZM288,138.49h-7.67v1.23H288Z"/><path class="f" d="M311.85,150.29v2.28H294.58v-2.28h7.24v-9.83h-6.21v-2.35h15.18v2.35H304.4v9.83Z"/><path class="f" d="M228.35,211.91c0-.23-.1-.51-.16-.82-3.79.57-4.48.71-4.9.92a19.42,19.42,0,0,0-.7-2c.48-.11.89-.53,1.48-1.23.23-.27.67-.82,1.2-1.58a7,7,0,0,0-2.13.42,19.37,19.37,0,0,0-.66-1.86,2.35,2.35,0,0,0,1.08-1.05,21.45,21.45,0,0,0,2.26-4.67l2,.81a27.09,27.09,0,0,1-2.55,4.54l1.25-.09a24.09,24.09,0,0,0,1.28-2.47l1.86,1.14a33.55,33.55,0,0,1-3.88,5.66l2-.25c-.13-.51-.31-1-.46-1.48l1.62-.51a29.79,29.79,0,0,1,1.18,3.91Zm-3.18,1a22.23,22.23,0,0,1-.87,4.86,11.54,11.54,0,0,0-1.77-.64,16.47,16.47,0,0,0,.8-4.51Zm1.94-.32a34.21,34.21,0,0,1,.51,3.91l-1.72.34a34.68,34.68,0,0,0-.4-3.93ZM229,212a25.54,25.54,0,0,1,.88,2.89l-1.6.56a20.94,20.94,0,0,0-.82-3Zm11.34,3.38v2.07H229.47v-2.07h4.29v-2.62h-3.42v-2h9.21v2H236v2.62ZM233.5,203.7c-.58,1-1.22,2.06-1.83,3a20,20,0,0,1,2,3l-1.81.7a18.75,18.75,0,0,0-2.24-3.7,29.49,29.49,0,0,0,2-3.44Zm6.62-.76H229.88v-2h10.24Zm-5.07,7.38a19.84,19.84,0,0,0-2.3-3.67,30.75,30.75,0,0,0,2-3.36l1.9.43c-.57,1-1.24,2-1.83,2.91a23.37,23.37,0,0,1,2,2.94Zm3.35.07a19.21,19.21,0,0,0-2.51-3.7,29.65,29.65,0,0,0,2.09-3.44l1.94.45c-.59,1-1.28,2.06-1.9,3a20.66,20.66,0,0,1,2.16,3Z"/><path class="f" d="M248.18,214.08c-2.09.74-4.37,1.46-6.19,2l-.51-2.3c.66-.17,1.44-.38,2.31-.63v-4.46h-1.91v-2.07h1.91v-3.35H241.7v-2.1H248v2.1h-2v3.35h1.71v2.07h-1.71v3.8c.63-.19,1.25-.38,1.86-.59Zm11.29,1.16v2H247.25v-2h5.25v-1.81h-3.94v-2h3.94v-1.64h-3.8v-8.83h9.91v8.83h-3.82v1.64h4v2h-4v1.81Zm-8.74-10.81h2v-1.58h-2Zm0,3.42h2v-1.64h-2Zm5.73-5h-1.88v1.58h1.88Zm0,3.36h-1.88v1.64h1.88Z"/><path class="f" d="M263.21,212.9a20.58,20.58,0,0,1-.83,4.63,9.32,9.32,0,0,0-1.69-.58,16.1,16.1,0,0,0,.77-4.34Zm-2.51-7.26a2.33,2.33,0,0,0,1.11-1,22.92,22.92,0,0,0,2.26-4.58l2.07.83a25.75,25.75,0,0,1-2.57,4.49l1.33-.1a20.35,20.35,0,0,0,1.37-2.51l1.88,1.2a31.55,31.55,0,0,1-3.95,5.53l2-.29c-.17-.45-.34-.89-.53-1.27l1.52-.57a15.31,15.31,0,0,1,1.37,3.78l-1.65.67a8.56,8.56,0,0,0-.19-.93c-4,.72-4.73.87-5.15,1.12a16.62,16.62,0,0,0-.72-2,3.44,3.44,0,0,0,1.54-1.25,18.58,18.58,0,0,0,1.23-1.54,6.34,6.34,0,0,0-2.2.44A19,19,0,0,0,260.7,205.64Zm4.49,6.84a34.16,34.16,0,0,1,.49,3.78l-1.63.42a32.47,32.47,0,0,0-.4-3.82ZM278,206.67a19.31,19.31,0,0,1-2.53,7.14,8.65,8.65,0,0,0,2.91,2.09,8.22,8.22,0,0,0-1.5,1.88,9.25,9.25,0,0,1-2.76-2.16,12.48,12.48,0,0,1-2.71,2.28,7.78,7.78,0,0,0-1.43-1.7,9.45,9.45,0,0,0,2.8-2.41,19.28,19.28,0,0,1-1.49-3.27,17.09,17.09,0,0,1-2.33,7.26,10.86,10.86,0,0,0-1.94-1.4,8.38,8.38,0,0,0,.8-1.33l-1.31.47a26.78,26.78,0,0,0-.88-3.06l1.5-.49a27.27,27.27,0,0,1,.88,2.7c1.27-2.91,1.54-7,1.55-11.61H268v-2.13h6.46l.32-.09,1.58.2c-.19,1.64-.54,3.56-.86,5.21h.7l.37-.08Zm-6.25-3.61c0,1.1-.06,2.16-.1,3.19h1.73c.21-1,.4-2.18.55-3.19Zm.82,5.2a13.77,13.77,0,0,0,1.48,3.61,15.85,15.85,0,0,0,1.4-3.61Z"/><path class="f" d="M287.76,212.52c-2.51,1.12-5.32,2.32-7.47,3.21l-.76-2.41c.72-.25,1.58-.55,2.53-.93l-.38-11.1,2.36-.09.34,10.27,2.87-1.17Zm7.86,5.34a32.64,32.64,0,0,0-3.55-4.58,13.73,13.73,0,0,1-5.77,4.62,13.75,13.75,0,0,0-1.81-2c6-2.28,8-6.88,8.68-14.68l2.49.22a29.2,29.2,0,0,1-2.32,9.65,41.31,41.31,0,0,1,4.22,4.89Zm-7.12-9.75a19.28,19.28,0,0,0-2.83-4.71l2.05-1a19.28,19.28,0,0,1,3,4.56Z"/><path class="f" d="M316.12,214.67V217H298.86v-2.28h6.8V200.36h2.43v5.43h6.7v2.3h-6.7v6.58Z"/><path class="f" d="M246,267.08a28.84,28.84,0,0,1-1,3.78h3.55v8.74h-3.62V281H243v-5.9c-.25.36-.52.72-.78,1a13.08,13.08,0,0,0-.76-2.7,15.83,15.83,0,0,0,2.41-6.34h-2V265h6.89v2.05Zm.63,5.77h-1.71v4.75h1.71ZM259.35,274h-2v7.91h-2.15V274h-2.16c-.12,2.8-.67,6-2.63,8a8.61,8.61,0,0,0-1.71-1.31c1.64-1.77,2.11-4.41,2.23-6.73h-1.77v-2.13H251v-4.69h-1.31v-2.09H259v2.09h-1.61v4.69h2Zm-4.14-2.13v-4.69h-2.13v4.69Z"/><path class="f" d="M278,267.29a25.25,25.25,0,0,1-2.24,1.74,13.63,13.63,0,0,0,2.72,1.07,8,8,0,0,0-1.35,1.78A12.71,12.71,0,0,1,275,271v1.64c0,.45,0,.6.29.6h.93a4.49,4.49,0,0,0,1-.09c0,.45.07,1.1.15,1.54a4,4,0,0,1-1.1.11H275c-1.6,0-1.9-.64-1.9-2.18v-1.11h-1.75a4.43,4.43,0,0,1-2.09,3.77,7.91,7.91,0,0,0-1.14-1.22v.57h-3.76c-.08.44-.13.89-.19,1.31h3.95s0,.51,0,.78c-.21,2.56-.43,3.8-.93,4.29a2,2,0,0,1-1.52.63,19.64,19.64,0,0,1-2.5,0,4.32,4.32,0,0,0-.65-1.88c.95.07,1.88.09,2.3.09a.87.87,0,0,0,.68-.19c.23-.21.4-.81.53-2.11h-4c.27-1.23.57-3.11.75-4.61h3.36V271.6h-2.76v-.31a14.58,14.58,0,0,1-1.73.75,8.21,8.21,0,0,0-1.21-1.66,12.27,12.27,0,0,0,3.19-1.46,17.83,17.83,0,0,0-1.77-1.14l1.3-1.2a14.59,14.59,0,0,1,2,1.2,9,9,0,0,0,1.1-1.22h-3.74V264.8h5l.38-.1,1.38.69a10.71,10.71,0,0,1-3.57,4.5h2.49v3.78a2.74,2.74,0,0,0,1.35-2.55v-1.34h3.63a13.32,13.32,0,0,1-3.84-5l1.81-.53a7.49,7.49,0,0,0,1.08,1.78,16.41,16.41,0,0,0,1.78-1.74l1.62,1.16c-.78.64-1.6,1.33-2.32,1.84.32.3.67.59,1,.85a16.78,16.78,0,0,0,2.11-2Zm-1.39,8.39a8.26,8.26,0,0,1-2.09,3.38c.86.48,1.64.95,2.21,1.33l-1.14,1.51c-.65-.46-1.56-1-2.59-1.66a14,14,0,0,1-4.23,1.64,6.43,6.43,0,0,0-.95-1.64,12.39,12.39,0,0,0,3.38-1.06c-.93-.51-1.82-1-2.64-1.46l.76-.92h-.46v-1.5h6.18l.34-.05Zm-6.3,1.12c.8.42,1.67.86,2.52,1.33a6.88,6.88,0,0,0,1.2-1.33Z"/><path class="f" d="M297.16,278.29v2.28H279.89v-2.28h7.24v-9.83h-6.21v-2.35H296.1v2.35h-6.38v9.83Z"/><path class="f" d="M304.57,276.75c-.24-.63-.72-1.56-1.17-2.42v7.57h-2.15v-7.07a18.74,18.74,0,0,1-1.88,4.1,13.75,13.75,0,0,0-1-2.24,19.18,19.18,0,0,0,2.34-5.09h-2.09v-2.11h2.6v-2.28c-.61.11-1.22.23-1.79.3a7.32,7.32,0,0,0-.6-1.74,24.64,24.64,0,0,0,5.49-1.58l1.19,1.86a15.79,15.79,0,0,1-2.14.69v2.75h2.12v2.11H303.4v.3c.49.55,2,2.53,2.37,3Zm11.63,2.75v2h-11v-2h4.58v-1.73h-3.61v-1.93h3.61V274.3c-1,.07-2,.13-3,.17a7.27,7.27,0,0,0-.55-1.71,46.8,46.8,0,0,0,7.75-1l1.38,1.71a33.93,33.93,0,0,1-3.36.61v1.79h3.4v1.93H312v1.73Zm-.91-8h-9V265h9Zm-2.19-4.63h-4.73v2.73h4.73Z"/><path class="f" d="M144.38,342.91a14.63,14.63,0,0,1-5.52,2.53,8.8,8.8,0,0,0-1.33-1.63,16.08,16.08,0,0,0,5.26-1.62Zm10.07-3.21v1.86h-7.37v4.34h-2.24v-4.34H137.6V339.7h7.24v-.83h-5.47v-1.64h5.47v-.85h-6.42v-1.71h3.5a10.12,10.12,0,0,0-.71-1.39l1.28-.28h-4.85v-1.77h2.58a17,17,0,0,0-1.21-2.36l1.94-.64a12.54,12.54,0,0,1,1.44,2.66l-.91.34h1.75v-3.1h2.09v3.1h1.42v-3.1h2.13v3.1h1.69l-.68-.21a17,17,0,0,0,1.21-2.73l2.38.55c-.54.87-1.05,1.72-1.52,2.39h2.45V333h-5l1.79.45c-.42.46-.82.88-1.16,1.22h3.66v1.71h-6.59v.85h5.7v1.64h-5.7v.83Zm-11-6.7a8,8,0,0,1,.76,1.42l-1,.25h5.18l-.68-.21c.3-.44.7-1,1-1.46Zm5.93,9.08c1.54.57,3.78,1.52,5,2.13l-1.6,1.23c-1.1-.63-3.32-1.63-4.92-2.3Z"/><path class="f" d="M172.47,331.91a9.57,9.57,0,0,1-1.9,2.78,15,15,0,0,0,3.49,1.12,8.52,8.52,0,0,0-1.42,1.92,13.42,13.42,0,0,1-3.88-1.64,15,15,0,0,1-3.87,1.6,7.53,7.53,0,0,0-.54-.8,20.24,20.24,0,0,1-.93,3.17l-1.52-.7a24,24,0,0,0,.61-2.62h-1v6.69c0,1-.15,1.63-.81,2a5.62,5.62,0,0,1-2.68.4,7.48,7.48,0,0,0-.65-2.15c.71,0,1.47,0,1.71,0s.31-.05.31-.28v-4.07a11.67,11.67,0,0,1-2.38,3.52,12.75,12.75,0,0,0-1-2.19,11.9,11.9,0,0,0,2.69-3.91H156.3v-2h4.35a28.58,28.58,0,0,0-3.67-1.84l1.43-1.44c.45.17,1,.38,1.5.6a11.24,11.24,0,0,0,1.2-1.19h-4.56V329h6.13l.34-.08,1.45.91a14,14,0,0,1-2.78,3.14,10.18,10.18,0,0,1,1.39.83l-.93,1h.91l.31-.09,1.36.45-.07.44a12,12,0,0,0,2.32-.87,10.73,10.73,0,0,1-1.35-1.58c-.29.3-.57.57-.86.82a18.13,18.13,0,0,0-1.84-1.28,11.29,11.29,0,0,0,3.63-4.52l2.11.57A11.31,11.31,0,0,1,168,330h5.61v1.88Zm.89,6.8s0,.59-.08.86c-.3,3.29-.64,4.75-1.19,5.36a2.1,2.1,0,0,1-1.39.66,13.82,13.82,0,0,1-2.13,0,4.8,4.8,0,0,0-.61-2.09,14.77,14.77,0,0,0,1.64.09.78.78,0,0,0,.61-.2c.26-.25.51-1.07.72-2.84h-2.21a7.57,7.57,0,0,1-5,5.29,6.47,6.47,0,0,0-1.31-1.75,6.09,6.09,0,0,0,4-3.54h-2.3v-1.88h2.77a15.05,15.05,0,0,0,.19-1.69h2.26c-.05.57-.11,1.14-.19,1.69Zm-6.23-6.8a7.74,7.74,0,0,0,1.57,1.62,5.66,5.66,0,0,0,1.26-1.62Z"/><path class="f" d="M182.33,338.43l-2,1.75a34.41,34.41,0,0,0-4.08-4.18l2-1.73A35.28,35.28,0,0,1,182.33,338.43Z"/><path class="f" d="M202.24,335.6v2.45H184.76V335.6Z"/><path class="f" d="M220.93,336.49a13.16,13.16,0,0,1-2.54,5.8,11.18,11.18,0,0,0,3.17,1.5,7.58,7.58,0,0,0-1.44,1.88,11.38,11.38,0,0,1-3.35-1.83,11.2,11.2,0,0,1-3.72,1.9,7.8,7.8,0,0,0-1.27-1.76,1.56,1.56,0,0,1-.84,1.35,7,7,0,0,1-2.92.34,7.59,7.59,0,0,0-.59-1.92c.8,0,1.71,0,2,0s.36-.1.36-.38V337.9c-1,.11-2,.23-3,.32a22,22,0,0,1-1.46,7.68,8.09,8.09,0,0,0-1.73-1.14,18.62,18.62,0,0,0,1.2-6.35l-1.05.11-.19-2,1.29-.07v-6.29h2a14.7,14.7,0,0,0,.51-2l2.28.26c-.26.65-.51,1.24-.72,1.77h2.89v5.76l.38,0,0,1.76-.41.06v5.78a4.52,4.52,0,0,1,0,.53,11.83,11.83,0,0,0,3.47-1.54,14,14,0,0,1-2.46-4L214,338h-1.33v-2h6.63l.36-.05Zm-12.68,5.68a22.66,22.66,0,0,0-1.47-2.9l1.41-.69a19.18,19.18,0,0,1,1.54,2.76Zm-1.39-5.91,2.92-.22v-4.16h-2.92v1.17l1.29-.64a18.07,18.07,0,0,1,1.46,2.52l-1.44.8a22,22,0,0,0-1.31-2.51v3Zm8.38-4.59a4.76,4.76,0,0,1-1.75,4.21,10.36,10.36,0,0,0-1.66-1.42,3,3,0,0,0,1.34-2.85V329h6.28v3.68c0,.52,0,.71.25.71h.7a2.9,2.9,0,0,0,.9-.14c0,.55.07,1.28.15,1.79a3.12,3.12,0,0,1-1,.13h-.93c-1.76,0-2.11-.76-2.11-2.53v-1.72h-2.12Zm-.36,6.36a10,10,0,0,0,2,3,8.21,8.21,0,0,0,1.6-3Z"/><path class="f" d="M228.54,336.19c.76.76,2.47,2.75,2.88,3.27l-1.29,1.88c-.36-.65-1-1.6-1.59-2.49v7h-2.28v-6.77a16.94,16.94,0,0,1-2.66,4.54,10.08,10.08,0,0,0-1.14-2.12,17.3,17.3,0,0,0,3.25-5.64h-2.83v-2.09h3.38v-2.47c-.93.15-1.85.28-2.72.39a7.36,7.36,0,0,0-.61-1.76,33.29,33.29,0,0,0,7-1.64l1.47,1.77a23.92,23.92,0,0,1-2.83.8v2.91h2.75v2.09h-2.75Zm10.84-6.27v14.91h-2.33v-1.37h-3V345h-2.22v-15Zm-2.33,11.38v-9.22h-3v9.22Z"/><path class="f" d="M247.71,341.79l1.8,1.43a33.43,33.43,0,0,1-6.3,2.64,11.35,11.35,0,0,0-1.47-1.67,25.75,25.75,0,0,0,5.8-2.4H242v-2.07h3.21V332.1h-2.64V330h2.64v-1.84h2.24V330h6v-1.84h2.29V330h2.78v2.07h-2.78v7.62H259v2.07Zm-.27-9.69v1.18h6V332.1Zm0,4.33h6v-1.27h-6Zm0,3.29h6v-1.39h-6Zm5.61,2.2a58.08,58.08,0,0,1,6,2.47l-2.17,1.43a36.2,36.2,0,0,0-5.47-2.51Z"/><path class="f" d="M266.75,328.87a33.53,33.53,0,0,1-1.89,4.05v12.92H262.7v-9.58c-.4.52-.8,1-1.18,1.39a14.43,14.43,0,0,0-1.23-2.36,19.67,19.67,0,0,0,4.33-7.1Zm8.22,14.8c1.12,0,1.33-.47,1.46-2.6a7.46,7.46,0,0,0,2,.84c-.29,2.83-.95,3.78-3.29,3.78h-4.31c-2.64,0-3.4-.69-3.4-3.33V337l-1.44.57-.86-2,2.3-.9v-4.48h2.13v3.63l1.9-.74v-4.92h2v4.12l2.55-1,.18-.13,1.7.51-.08.36a69.78,69.78,0,0,1-.76,8.65l-1.86-.53c.21-1.6.34-4.11.42-6.42l-2.15.87v6.72h-2v-5.94l-1.9.78v6.15c0,1.12.19,1.31,1.44,1.31Z"/><path class="f" d="M295.81,343.33c0,1.24-.3,1.84-1.17,2.2a12.31,12.31,0,0,1-4.07.38,8.87,8.87,0,0,0-.85-2.18c1.33.08,2.88.06,3.3.06s.55-.14.55-.5v-1.5h-9.5a7.81,7.81,0,0,1-3,4.18,8.26,8.26,0,0,0-1.6-1.58c2.72-1.91,3-4.71,3-7v-2.83c-.33.29-.67.56-1,.82a6.79,6.79,0,0,0-1.6-1.65,14.65,14.65,0,0,0,4.94-5.66l2.42.41c-.12.23-.25.48-.38.71h3.76l.36-.1,1.54,1a25.51,25.51,0,0,1-1.54,2.36h4.82Zm-11.15-5.28a13.8,13.8,0,0,1-.15,1.8h3.42v-1.8Zm1-7c-.34.48-.71,1-1.1,1.43h3.91c.3-.44.63-.95.89-1.43Zm-1,5.13h3.25v-1.73h-3.25Zm8.89-1.73h-3.49v1.73h3.49Zm0,5.43v-1.8h-3.49v1.8Z"/><path class="f" d="M311.85,343.48c1.82,0,2.11-.42,2.36-2.77a8.4,8.4,0,0,0,2.12.8c-.4,3.11-1.17,4-4.37,4h-6.49c-3.54,0-4.62-.68-4.62-3.4v-6.91c-.38.3-.76.57-1.12.83a11.73,11.73,0,0,0-1.22-2.16,16.59,16.59,0,0,0,5.82-5.89l2.05.78-.48.82h4.37l.44-.12,1.44,1.08a23.63,23.63,0,0,1-2.33,2.84h4.63v7.14h-2.22v-.65H303v2.24c0,1.16.32,1.35,2.39,1.35Zm-7.39-11.87a22.69,22.69,0,0,1-1.6,1.79h4.26a15.52,15.52,0,0,0,1.6-1.79ZM303,337.75h3.53v-2.26H303Zm9.19-2.26h-3.46v2.26h3.46Z"/><path class="g" d="M642.77,429.5c3.42-3.06,5.44-5.42,5.44-7.36a1.8,1.8,0,0,0-1.89-2,3.24,3.24,0,0,0-2.31,1.29L642.65,420a5.12,5.12,0,0,1,4-1.9,3.69,3.69,0,0,1,4,3.87c0,2.28-1.89,4.73-4.19,7,.63-.07,1.47-.13,2-.13h2.74v2.1h-8.43Z"/><path class="g" d="M652.8,424.6c0-4.35,1.7-6.47,4.27-6.47s4.25,2.14,4.25,6.47-1.7,6.58-4.25,6.58S652.8,428.94,652.8,424.6Zm6.15,0c0-3.52-.81-4.54-1.88-4.54s-1.91,1-1.91,4.54.82,4.63,1.91,4.63S659,428.14,659,424.6Z"/><path class="g" d="M662.79,429.5c3.42-3.06,5.44-5.42,5.44-7.36a1.8,1.8,0,0,0-1.88-2,3.24,3.24,0,0,0-2.31,1.29L662.68,420a5.09,5.09,0,0,1,4-1.9,3.69,3.69,0,0,1,4,3.87c0,2.28-1.88,4.73-4.18,7,.63-.07,1.46-.13,2-.13h2.74v2.1h-8.44Z"/><path class="g" d="M672.83,424.6c0-4.35,1.7-6.47,4.26-6.47s4.25,2.14,4.25,6.47-1.7,6.58-4.25,6.58S672.83,428.94,672.83,424.6Zm6.15,0c0-3.52-.82-4.54-1.89-4.54s-1.9,1-1.9,4.54.81,4.63,1.9,4.63S679,428.14,679,424.6Z"/><path class="g" d="M697.32,419.57c.92.9,2.72,1.33,5,1.45a6.84,6.84,0,0,0-1.12,1.61,8.1,8.1,0,0,1-4.45-1.72c-.65.75-2.06,1.42-4.91,1.74a6.27,6.27,0,0,0-.68-1.11h-4.51V420h5.14v1c3.24-.34,3.67-1.1,3.67-1.73V419h-1a7.48,7.48,0,0,1-1.19,1.47,9.72,9.72,0,0,0-1.5-1,6.85,6.85,0,0,0,2-3l1.77.39c-.09.26-.19.51-.29.75h4.83l.3-.08,1.38.42a14.87,14.87,0,0,1-1.56,2.69l-1.57-.58a9.56,9.56,0,0,0,.6-1h-1.89v.53Zm.46,10c1.56.57,3.23,1.25,4.23,1.75l-1.82,1.09a29.76,29.76,0,0,0-4.42-2l1-.83H692l1.48.68a22.49,22.49,0,0,1-5.31,2.21A13.89,13.89,0,0,0,686.7,431a19.82,19.82,0,0,0,4.64-1.41h-2.45v-6.9h11.37v6.9Zm-6.38-10.71h-4.35v-1.48h4.35Zm-.56,5.74h7.36v-.73h-7.36Zm0,1.87h7.36v-.73h-7.36Zm0,1.91h7.36v-.77h-7.36Z"/><path class="g" d="M708.71,424.76c.34.45,1.62,2.58,1.87,3.11l-1.39,1.51a29.21,29.21,0,0,0-1.13-2.84v5.88H706.2v-6.07a11,11,0,0,1-1.91,4.47,15.7,15.7,0,0,0-.92-2.41,9.37,9.37,0,0,0,1.65-3.7l1.18.4v-1.05h-2.57v-1.89h2.57v-5.62h1.86v5.62h2.52v1.89h-2.52v1.15Zm-4.32-2.88a15.89,15.89,0,0,0-.78-3.92l1.41-.36a15.74,15.74,0,0,1,.89,3.89Zm6.5-4c-.45,1.36-.94,3-1.36,3.95l-1.3-.36a25.61,25.61,0,0,0,1-3.95Zm6.59,9.95v4.59h-1.9v-4.25l-4.74.85-.31-1.89,5.05-.9v-9.69h1.9v9.35l1.74-.33.3,1.89Zm-5.81-6.17a14.46,14.46,0,0,1,2.85,2l-1,1.61a14.59,14.59,0,0,0-2.78-2.1Zm2.46-.62a13.72,13.72,0,0,0-2.63-2.21l1-1.36a12.64,12.64,0,0,1,2.7,2.06Z"/></svg>