<svg xmlns="http://www.w3.org/2000/svg" viewBox="0 0 800 260"><defs><style>.a{fill:none;stroke:gray;stroke-miterlimit:10;}.b{fill:#98d5f4;}.c{fill:#0071bc;}.d{fill:#333;}.e{fill:#999;}</style></defs><line class="a" x1="324.5" y1="225" x2="324.5" y2="19"/><rect class="b" x="324.01" y="125.41" width="210.45" height="65.59"/><rect class="c" x="324.01" y="52.54" width="303.99" height="65.59"/><path d="M664,98.41h-4.47v-10c0-.23,0-.56,0-1s0-.92,0-1.42,0-1,0-1.36a5,5,0,0,1-.57.61c-.24.24-.47.44-.67.62l-2.14,1.74L654,84.81l6.17-5H664Z"/><path d="M681.18,84a4.33,4.33,0,0,1-.55,2.24,4.63,4.63,0,0,1-1.47,1.55,6.69,6.69,0,0,1-2,.89v.08a6.17,6.17,0,0,1,3.41,1.37,3.81,3.81,0,0,1,1.19,3,5.27,5.27,0,0,1-.8,2.84,5.56,5.56,0,0,1-2.49,2,10.63,10.63,0,0,1-4.32.75,15.37,15.37,0,0,1-3-.26,14.19,14.19,0,0,1-2.48-.75V93.94a10.73,10.73,0,0,0,2.5.92,10.62,10.62,0,0,0,2.39.3,4.35,4.35,0,0,0,2.74-.64,2.16,2.16,0,0,0,.77-1.75,2,2,0,0,0-.36-1.2,2.35,2.35,0,0,0-1.29-.75,9.77,9.77,0,0,0-2.59-.26h-1.27V87.2h1.3a8.15,8.15,0,0,0,2.44-.28,2.28,2.28,0,0,0,1.21-.8,2,2,0,0,0,.35-1.15c0-1.22-.8-1.82-2.39-1.82a5.22,5.22,0,0,0-2.28.47,16.89,16.89,0,0,0-1.54.8l-1.95-3a10.72,10.72,0,0,1,2.6-1.31,10.89,10.89,0,0,1,3.69-.54,7.87,7.87,0,0,1,4.52,1.15A3.69,3.69,0,0,1,681.18,84Z"/><path d="M687.94,79.58a4.1,4.1,0,0,1,3.4,1.53,6.62,6.62,0,0,1,1.22,4.27,7.15,7.15,0,0,1-1.14,4.31,4,4,0,0,1-3.48,1.54,4,4,0,0,1-3.33-1.54,6.88,6.88,0,0,1-1.2-4.31,7.13,7.13,0,0,1,1.12-4.27A4,4,0,0,1,687.94,79.58Zm0,2.87c-.4,0-.68.25-.85.75a7.71,7.71,0,0,0-.24,2.21,8,8,0,0,0,.24,2.23c.17.53.45.79.85.79s.68-.26.84-.79a7.55,7.55,0,0,0,.25-2.23,7.31,7.31,0,0,0-.25-2.21Q688.59,82.45,688,82.45Zm13.57-2.6-10.3,18.56h-3.38l10.3-18.56Zm-.1,7.15a4.1,4.1,0,0,1,3.4,1.52,6.62,6.62,0,0,1,1.22,4.27,7.17,7.17,0,0,1-1.14,4.31,4,4,0,0,1-3.48,1.54,4,4,0,0,1-3.33-1.54,6.9,6.9,0,0,1-1.2-4.31,7.13,7.13,0,0,1,1.12-4.27A3.94,3.94,0,0,1,701.46,87Zm0,2.83c-.4,0-.68.26-.85.78a10.3,10.3,0,0,0,0,4.42c.17.52.45.78.85.78.73,0,1.09-1,1.09-3S702.24,89.83,701.51,89.83Z"/><path d="M681.85,160.88a18.64,18.64,0,0,1-.45,4.17,9.51,9.51,0,0,1-1.54,3.45,7.24,7.24,0,0,1-2.91,2.32,10.84,10.84,0,0,1-4.59.85c-.36,0-.79,0-1.28,0s-.91-.07-1.24-.12V168a11,11,0,0,0,2.29.23,7.26,7.26,0,0,0,3.42-.66,3.7,3.7,0,0,0,1.7-1.86,8.25,8.25,0,0,0,.57-2.76h-.15a5,5,0,0,1-1.38,1.54,4.36,4.36,0,0,1-2.55.62,4.82,4.82,0,0,1-3.77-1.56,6.4,6.4,0,0,1-1.4-4.42,6.48,6.48,0,0,1,1.71-4.77,6.37,6.37,0,0,1,4.71-1.73,6.93,6.93,0,0,1,3.48.89,6.06,6.06,0,0,1,2.47,2.71A10.44,10.44,0,0,1,681.85,160.88Zm-6.76-4.73a2.06,2.06,0,0,0-1.63.7,3.24,3.24,0,0,0-.63,2.21,3,3,0,0,0,.55,1.92,2,2,0,0,0,1.66.71,2.23,2.23,0,0,0,1.74-.75,2.29,2.29,0,0,0,.68-1.57,4.62,4.62,0,0,0-.26-1.52,2.92,2.92,0,0,0-.78-1.22A1.89,1.89,0,0,0,675.09,156.15Z"/><path d="M687.94,152.58a4.1,4.1,0,0,1,3.4,1.53,6.62,6.62,0,0,1,1.22,4.27,7.15,7.15,0,0,1-1.14,4.31,4,4,0,0,1-3.48,1.54,4,4,0,0,1-3.33-1.54,6.88,6.88,0,0,1-1.2-4.31,7.13,7.13,0,0,1,1.12-4.27A4,4,0,0,1,687.94,152.58Zm0,2.87c-.4,0-.68.25-.85.75a7.71,7.71,0,0,0-.24,2.21,8,8,0,0,0,.24,2.23c.17.53.45.79.85.79s.68-.26.84-.79a7.55,7.55,0,0,0,.25-2.23,7.31,7.31,0,0,0-.25-2.21Q688.59,155.45,688,155.45Zm13.57-2.6-10.3,18.56h-3.38l10.3-18.56Zm-.1,7.15a4.1,4.1,0,0,1,3.4,1.52,6.62,6.62,0,0,1,1.22,4.27,7.17,7.17,0,0,1-1.14,4.31,4,4,0,0,1-3.48,1.54,4,4,0,0,1-3.33-1.54,6.9,6.9,0,0,1-1.2-4.31,7.13,7.13,0,0,1,1.12-4.27A3.94,3.94,0,0,1,701.46,160Zm0,2.83c-.4,0-.68.26-.85.78a10.3,10.3,0,0,0,0,4.42c.17.52.45.78.85.78.73,0,1.09-1,1.09-3S702.24,162.83,701.51,162.83Z"/><path class="d" d="M238.88,93.91a14.63,14.63,0,0,1-5.52,2.53A8.8,8.8,0,0,0,232,94.81a16.08,16.08,0,0,0,5.26-1.62ZM249,90.7v1.86h-7.37V96.9h-2.24V92.56H232.1V90.7h7.24v-.83h-5.47V88.23h5.47v-.85h-6.42V85.67h3.5a10.12,10.12,0,0,0-.71-1.39L237,84h-4.85V82.23h2.58a17,17,0,0,0-1.21-2.36l1.94-.64a12.54,12.54,0,0,1,1.44,2.66l-.91.34h1.75v-3.1h2.09v3.1h1.42v-3.1h2.13v3.1h1.69l-.68-.21a17,17,0,0,0,1.21-2.73l2.38.55c-.54.87-1.05,1.72-1.52,2.39h2.45V84h-5l1.79.45c-.42.46-.82.88-1.16,1.22h3.66v1.71h-6.59v.85h5.7v1.64h-5.7v.83ZM238,84a8,8,0,0,1,.76,1.42l-1,.25h5.18l-.68-.21c.3-.44.7-1,1-1.46Zm5.93,9.08c1.54.57,3.78,1.52,5,2.13l-1.6,1.23c-1.1-.63-3.32-1.63-4.92-2.3Z"/><path class="d" d="M263.2,87.85a13.62,13.62,0,0,0,5.21,2.57,9.65,9.65,0,0,0-1.5,1.94,14.61,14.61,0,0,1-3.21-1.54v6h-2.36V90.13h1.43a11.19,11.19,0,0,1-2.23-2.28h-2a12.84,12.84,0,0,1-2.28,2.26h1.61v1.31c0,1.81-.55,4.2-4.33,5.59A7.93,7.93,0,0,0,252,95.19c3.18-1,3.56-2.65,3.56-3.86v-.68a15.67,15.67,0,0,1-3.46,1.76,10.69,10.69,0,0,0-1.48-1.86,14.21,14.21,0,0,0,5.13-2.7h-3V79.78H266.3v8.07ZM255,83h3.32V81.6H255ZM255,86h3.32V84.66H255ZM264,81.6h-3.33V83H264Zm0,3.06h-3.33V86H264Z"/><path class="d" d="M283.84,89.9a11,11,0,0,0,3.7,2.21,7.89,7.89,0,0,0-1.5,1.75,13,13,0,0,1-3-2v1.41H279.6V94.5h6.19v1.86H271.34V94.5h6V93.27h-3.36V92.09a13.37,13.37,0,0,1-3,1.94,8.55,8.55,0,0,0-1.44-1.73,11.38,11.38,0,0,0,3.83-2.4h-3.66V88.06h3.63V82.4h-2.63V80.58h2.63V79.15h2.26v1.43h5.94V79.15h2.32v1.43h2.6V82.4h-2.6v5.66h3.51V89.9Zm-1.2,1.58a11.33,11.33,0,0,1-1.37-1.58h-5.35a11.17,11.17,0,0,1-1.35,1.58h2.73V90.3h2.3v1.18Zm-7.1-9.08v.84h5.94V82.4Zm0,3.23h5.94v-.84h-5.94Zm0,2.43h5.94v-.85h-5.94Z"/><path class="d" d="M306.16,93.61h-7.58V96.9h-2.33V93.61h-7.36v-2h7.36v-.82h-1.66v-6l-.47.42a17.45,17.45,0,0,0-1.58-1.29l-1,1.5a16.1,16.1,0,0,0-2.95-1.56l1.18-1.52a20.51,20.51,0,0,1,2.79,1.29A12.68,12.68,0,0,0,296.21,79l2.14.64a11.49,11.49,0,0,1-.76,1.41h1.91c-.16-.44-.35-.89-.52-1.25l2.17-.59c.28.57.62,1.27.83,1.84h3.46v1.69h-3.8v.93h3.06V85.1h-3.06v.83h3.06V87.3h-3.06v1h4.11v1.77h-8.93v.32h1.76v1.18h7.58Zm-12.08-6.69c-1.06,1.33-2.3,2.74-3.48,4L289,89.28a48.22,48.22,0,0,0,3.85-3.86Zm-1.23-4.61a14.1,14.1,0,0,0-2.91-1.64l1.18-1.54a14.65,14.65,0,0,1,2.94,1.47Zm6.63.47h-2.66v.93h2.66Zm0,2.32h-2.66v.83h2.66Zm0,2.2h-2.66v1h2.66Z"/><path class="d" d="M181.9,159.46a3.5,3.5,0,0,1-1.32,2.89,5.7,5.7,0,0,1-3.68,1.06,8.6,8.6,0,0,1-3.84-.82v-2.67a14.81,14.81,0,0,0,2.33.86,6.7,6.7,0,0,0,1.74.25,2.48,2.48,0,0,0,1.45-.36,1.22,1.22,0,0,0,.5-1.07,1.15,1.15,0,0,0-.22-.71,2.39,2.39,0,0,0-.65-.6,17.86,17.86,0,0,0-1.76-.92,8.46,8.46,0,0,1-1.87-1.12,4.32,4.32,0,0,1-1-1.26,3.9,3.9,0,0,1,.85-4.49,5,5,0,0,1,3.37-1,7.82,7.82,0,0,1,2,.26,13.43,13.43,0,0,1,2,.7l-.93,2.24a12.09,12.09,0,0,0-1.79-.62,5.72,5.72,0,0,0-1.4-.18,1.87,1.87,0,0,0-1.25.38,1.25,1.25,0,0,0-.44,1,1.22,1.22,0,0,0,.18.67,1.94,1.94,0,0,0,.56.54,15.4,15.4,0,0,0,1.82.95,7.29,7.29,0,0,1,2.61,1.83A3.54,3.54,0,0,1,181.9,159.46Z"/><path class="d" d="M184,150.17c0-.92.51-1.38,1.54-1.38s1.54.46,1.54,1.38a1.36,1.36,0,0,1-.39,1,1.62,1.62,0,0,1-1.15.36C184.53,151.56,184,151.1,184,150.17ZM187,163.22h-2.83V152.85H187Z"/><path class="d" d="M192.77,163.22h-2.83V148.79h2.83Z"/><path class="d" d="M195.62,150.17c0-.92.51-1.38,1.54-1.38s1.54.46,1.54,1.38a1.36,1.36,0,0,1-.39,1,1.62,1.62,0,0,1-1.15.36C196.13,151.56,195.62,151.1,195.62,150.17Zm2.95,13.05h-2.83V152.85h2.83Z"/><path class="d" d="M205.75,163.41q-4.84,0-4.84-5.32a5.71,5.71,0,0,1,1.31-4,5,5,0,0,1,3.78-1.39,7.2,7.2,0,0,1,3.23.7l-.84,2.19a12.55,12.55,0,0,0-1.24-.44,4.16,4.16,0,0,0-1.15-.17c-1.47,0-2.21,1-2.21,3.13s.74,3.05,2.21,3.05a5.2,5.2,0,0,0,1.51-.22,5.41,5.41,0,0,0,1.39-.68v2.42a4.49,4.49,0,0,1-1.38.6A7.91,7.91,0,0,1,205.75,163.41Z"/><path class="d" d="M220.73,158a5.56,5.56,0,0,1-1.33,4,4.85,4.85,0,0,1-3.72,1.43,5.17,5.17,0,0,1-2.64-.66,4.34,4.34,0,0,1-1.75-1.87,6.31,6.31,0,0,1-.61-2.86,5.55,5.55,0,0,1,1.32-4,4.88,4.88,0,0,1,3.73-1.41,5.17,5.17,0,0,1,2.64.65,4.32,4.32,0,0,1,1.75,1.86A6.23,6.23,0,0,1,220.73,158Zm-7.17,0a4.33,4.33,0,0,0,.51,2.33,1.8,1.8,0,0,0,1.64.79,1.76,1.76,0,0,0,1.63-.79,4.41,4.41,0,0,0,.5-2.33,4.31,4.31,0,0,0-.5-2.31,2.14,2.14,0,0,0-3.28,0A4.35,4.35,0,0,0,213.56,158Z"/><path class="d" d="M232.64,163.22h-2.83v-6.05a3,3,0,0,0-.39-1.69,1.47,1.47,0,0,0-1.28-.56,1.89,1.89,0,0,0-1.71.79,5,5,0,0,0-.53,2.63v4.88h-2.83V152.85h2.16l.38,1.33h.16a3.06,3.06,0,0,1,1.3-1.14,4.59,4.59,0,0,1,1.89-.38,3.61,3.61,0,0,1,2.75,1,3.93,3.93,0,0,1,.93,2.82Z"/><path class="d" d="M246.46,163.22l-3.27-10.64h-.08c.12,2.17.18,3.61.18,4.34v6.3h-2.57V149.66h3.91L247.84,160h.06l3.4-10.37h3.92v13.56h-2.68V156.8c0-.3,0-.65,0-1s0-1.45.12-3.16h-.08l-3.5,10.62Z"/><path class="d" d="M267.83,158a5.56,5.56,0,0,1-1.33,4,4.85,4.85,0,0,1-3.72,1.43,5.17,5.17,0,0,1-2.64-.66,4.34,4.34,0,0,1-1.75-1.87,6.31,6.31,0,0,1-.61-2.86,5.55,5.55,0,0,1,1.32-4,4.88,4.88,0,0,1,3.73-1.41,5.17,5.17,0,0,1,2.64.65,4.32,4.32,0,0,1,1.75,1.86A6.23,6.23,0,0,1,267.83,158Zm-7.17,0a4.33,4.33,0,0,0,.51,2.33,1.8,1.8,0,0,0,1.64.79,1.76,1.76,0,0,0,1.63-.79,4.41,4.41,0,0,0,.5-2.33,4.31,4.31,0,0,0-.5-2.31,2.14,2.14,0,0,0-3.28,0A4.35,4.35,0,0,0,260.66,158Z"/><path class="d" d="M274.54,161.15a5.94,5.94,0,0,0,1.78-.32v2.11a6.43,6.43,0,0,1-2.6.47,3.19,3.19,0,0,1-2.47-.86,3.76,3.76,0,0,1-.77-2.57v-5h-1.36v-1.2l1.56-.95.82-2.19h1.81v2.21h2.9V155h-2.9v5a1.09,1.09,0,0,0,.34.89A1.32,1.32,0,0,0,274.54,161.15Z"/><path class="d" d="M278.3,150.17c0-.92.51-1.38,1.54-1.38s1.54.46,1.54,1.38a1.36,1.36,0,0,1-.39,1,1.62,1.62,0,0,1-1.15.36C278.81,151.56,278.3,151.1,278.3,150.17Zm2.95,13.05h-2.83V152.85h2.83Z"/><path class="d" d="M293.64,158a5.56,5.56,0,0,1-1.33,4,4.85,4.85,0,0,1-3.72,1.43,5.17,5.17,0,0,1-2.64-.66,4.34,4.34,0,0,1-1.75-1.87,6.31,6.31,0,0,1-.61-2.86,5.55,5.55,0,0,1,1.32-4,4.88,4.88,0,0,1,3.73-1.41,5.17,5.17,0,0,1,2.64.65,4.32,4.32,0,0,1,1.75,1.86A6.23,6.23,0,0,1,293.64,158Zm-7.17,0a4.33,4.33,0,0,0,.51,2.33,1.82,1.82,0,0,0,1.64.79,1.76,1.76,0,0,0,1.63-.79,4.41,4.41,0,0,0,.5-2.33,4.31,4.31,0,0,0-.5-2.31,2.14,2.14,0,0,0-3.28,0A4.35,4.35,0,0,0,286.47,158Z"/><path class="d" d="M305.56,163.22h-2.83v-6.05a3,3,0,0,0-.4-1.69,1.47,1.47,0,0,0-1.27-.56,1.91,1.91,0,0,0-1.72.79,5,5,0,0,0-.53,2.63v4.88H296V152.85h2.16l.38,1.33h.16A3,3,0,0,1,300,153a4.51,4.51,0,0,1,1.88-.38,3.6,3.6,0,0,1,2.75,1,3.93,3.93,0,0,1,.94,2.82Z"/><path class="d" d="M310.48,80.51l1.25-2.17-2.26-1,.45-1.4,2.44.55L312.6,74h1.5l.23,2.51,2.43-.55.46,1.4-2.28,1,1.27,2.17-1.19.87-1.68-1.9-1.67,1.9Z"/><path class="e" d="M51.39,220l-.34,3.06,3.1-.87.27,2.1-2.82.2L53.45,227l-1.89,1-1.29-2.59L49.13,228l-2-1L49,224.5l-2.81-.22.33-2.08,3,.87L49.21,220Z"/><path class="e" d="M68.52,232.93H60v-1.79l3-3.08a23.53,23.53,0,0,0,1.77-1.92,3.85,3.85,0,0,0,.6-1,2.55,2.55,0,0,0,.18-1,1.37,1.37,0,0,0-.4-1.08,1.56,1.56,0,0,0-1.07-.36,3.16,3.16,0,0,0-1.37.32,7.4,7.4,0,0,0-1.39.92L60,222.35a8.84,8.84,0,0,1,1.48-1.08,5.21,5.21,0,0,1,1.29-.48,6.71,6.71,0,0,1,1.56-.17,4.71,4.71,0,0,1,2,.41,3.22,3.22,0,0,1,1.35,1.17,3.06,3.06,0,0,1,.48,1.71,4.33,4.33,0,0,1-.29,1.57A6.06,6.06,0,0,1,67,227a22.24,22.24,0,0,1-2.17,2.19l-1.56,1.47v.12h5.28Z"/><path class="e" d="M78.18,226.86a8.42,8.42,0,0,1-1.05,4.71,4.06,4.06,0,0,1-6.37,0,8.36,8.36,0,0,1-1.07-4.66,8.58,8.58,0,0,1,1-4.74,3.61,3.61,0,0,1,3.2-1.52,3.57,3.57,0,0,1,3.17,1.6A8.29,8.29,0,0,1,78.18,226.86Zm-5.94,0a9.33,9.33,0,0,0,.39,3.2,1.33,1.33,0,0,0,1.3,1,1.35,1.35,0,0,0,1.29-1,13,13,0,0,0,0-6.4,1.35,1.35,0,0,0-1.29-1,1.34,1.34,0,0,0-1.3,1A9.43,9.43,0,0,0,72.24,226.86Z"/><path class="e" d="M88,232.93H79.48v-1.79l3-3.08a24.78,24.78,0,0,0,1.76-1.92,3.85,3.85,0,0,0,.6-1,2.55,2.55,0,0,0,.18-1,1.37,1.37,0,0,0-.4-1.08,1.56,1.56,0,0,0-1.07-.36,3.16,3.16,0,0,0-1.37.32,7.4,7.4,0,0,0-1.39.92l-1.39-1.65a8.84,8.84,0,0,1,1.48-1.08,5.37,5.37,0,0,1,1.29-.48,6.71,6.71,0,0,1,1.56-.17,4.71,4.71,0,0,1,2,.41,3.22,3.22,0,0,1,1.35,1.17,3.06,3.06,0,0,1,.48,1.71,4.33,4.33,0,0,1-.29,1.57,6.31,6.31,0,0,1-.91,1.51,23.88,23.88,0,0,1-2.18,2.19l-1.56,1.47v.12H88Z"/><path class="e" d="M97.68,232.93H89.2v-1.79l3-3.08A24.78,24.78,0,0,0,94,226.14a3.85,3.85,0,0,0,.6-1,2.55,2.55,0,0,0,.18-1,1.37,1.37,0,0,0-.4-1.08,1.54,1.54,0,0,0-1.07-.36,3.16,3.16,0,0,0-1.37.32,7.4,7.4,0,0,0-1.39.92l-1.39-1.65a8.84,8.84,0,0,1,1.48-1.08,5.37,5.37,0,0,1,1.29-.48,6.71,6.71,0,0,1,1.56-.17,4.71,4.71,0,0,1,2,.41,3.22,3.22,0,0,1,1.35,1.17,3.06,3.06,0,0,1,.48,1.71,4.13,4.13,0,0,1-.29,1.57,6.31,6.31,0,0,1-.91,1.51A23.88,23.88,0,0,1,94,229.18l-1.56,1.47v.12h5.28Z"/><path class="e" d="M114,221.56c.92.9,2.72,1.32,5,1.44a6.43,6.43,0,0,0-1.12,1.62,8.17,8.17,0,0,1-4.45-1.72c-.65.75-2.06,1.41-4.92,1.73a5.23,5.23,0,0,0-.68-1.1h-4.5V222h5.13v1c3.25-.34,3.67-1.11,3.67-1.73V221h-1a7,7,0,0,1-1.19,1.46,9.57,9.57,0,0,0-1.49-1,6.9,6.9,0,0,0,2-3l1.77.39c-.09.26-.19.51-.29.75h4.82l.31-.09,1.38.43a15.14,15.14,0,0,1-1.57,2.68l-1.56-.57a8.93,8.93,0,0,0,.59-1H114v.53Zm.46,10c1.56.58,3.23,1.26,4.23,1.75l-1.82,1.09a32.53,32.53,0,0,0-4.42-2l1-.83h-4.8l1.48.68a21.45,21.45,0,0,1-5.3,2.21,14,14,0,0,0-1.5-1.48,18.79,18.79,0,0,0,4.64-1.41H105.6v-6.9H117v6.9Zm-6.38-10.71h-4.35v-1.48h4.35Zm-.56,5.75h7.36v-.73h-7.36Zm0,1.87h7.36v-.73h-7.36Zm0,1.9h7.36v-.76h-7.36Z"/><path class="e" d="M125.42,226.74c.34.46,1.61,2.59,1.87,3.11l-1.4,1.52a25.82,25.82,0,0,0-1.12-2.84v5.88H122.9v-6.07a10.87,10.87,0,0,1-1.9,4.47,15.7,15.7,0,0,0-.92-2.41,9.55,9.55,0,0,0,1.65-3.71l1.17.41V226h-2.57v-1.88h2.57v-5.63h1.87v5.63h2.52V226h-2.52v1.16Zm-4.32-2.87a15.88,15.88,0,0,0-.78-3.93l1.41-.36a15.76,15.76,0,0,1,.88,3.9Zm6.49-4c-.44,1.36-.93,2.95-1.36,3.94l-1.29-.36a24.64,24.64,0,0,0,1-3.94Zm6.6,9.94v4.59h-1.9v-4.25l-4.75.85-.3-1.89,5-.9v-9.69h1.9v9.35l1.73-.32.31,1.89Zm-5.81-6.17a14.92,14.92,0,0,1,2.85,2l-1,1.61a14.38,14.38,0,0,0-2.79-2.11Zm2.46-.61a14,14,0,0,0-2.63-2.21l1-1.36a12.72,12.72,0,0,1,2.71,2.06Z"/></svg>