<?xml version="1.0" encoding="UTF-8"?><svg xmlns="http://www.w3.org/2000/svg" viewBox="0 0 800 260"><defs><style>.cls-1{fill:#0071bc;}.cls-2{fill:#999;}.cls-3{fill:#98d5f4;}.cls-4{fill:#333;}.cls-5{fill:none;stroke:gray;stroke-miterlimit:10;}</style></defs><g id="_021"><line class="cls-5" x1="324.5" y1="225" x2="324.5" y2="19"/><g><rect class="cls-3" x="324.01" y="125.41" width="202.66" height="65.59"/><rect class="cls-1" x="324.01" y="52.54" width="303.99" height="65.59"/></g></g><g id="Numbers"><g><path d="M664.02,98.41h-4.47v-10.01c0-.23,0-.56,.01-1.01,0-.45,.02-.93,.03-1.43,0-.5,.02-.95,.04-1.35-.14,.17-.33,.38-.57,.61-.24,.23-.47,.44-.68,.61l-2.13,1.74-2.21-2.76,6.16-4.96h3.82v18.56Z"/><path d="M675.28,79.61c1.14,0,2.17,.16,3.08,.49,.91,.33,1.63,.83,2.17,1.49,.54,.67,.81,1.5,.81,2.48,0,1.13-.31,2.05-.92,2.77-.62,.72-1.4,1.3-2.35,1.76,.62,.35,1.23,.75,1.81,1.2,.58,.45,1.06,.98,1.44,1.6,.38,.62,.57,1.33,.57,2.14,0,1.53-.58,2.76-1.73,3.71-1.15,.95-2.79,1.42-4.9,1.42s-3.86-.46-4.97-1.38c-1.11-.92-1.66-2.14-1.66-3.67,0-1.28,.33-2.3,1-3.05s1.5-1.37,2.48-1.86c-.8-.52-1.48-1.15-2.05-1.88-.57-.74-.86-1.66-.86-2.77,0-.97,.27-1.79,.82-2.46,.55-.67,1.28-1.17,2.2-1.49,.92-.33,1.94-.49,3.07-.49Zm-2.57,13.78c0,.61,.21,1.1,.64,1.48,.42,.38,1.04,.57,1.86,.57,.88,0,1.54-.18,1.96-.55s.64-.84,.64-1.43c0-.43-.12-.82-.38-1.16-.25-.34-.56-.63-.92-.88-.36-.25-.7-.47-1.01-.66l-.34-.21c-.71,.35-1.3,.75-1.75,1.2-.46,.45-.69,1-.69,1.64Zm2.55-10.58c-.54,0-.99,.15-1.35,.44-.36,.29-.55,.69-.55,1.2,0,.54,.19,.99,.56,1.35,.37,.36,.82,.68,1.34,.94,.49-.23,.93-.51,1.33-.86,.4-.35,.6-.82,.6-1.43,0-.5-.19-.9-.56-1.2-.37-.29-.83-.44-1.37-.44Z"/><path d="M687.94,79.58c1.46,0,2.59,.51,3.41,1.52,.81,1.01,1.22,2.44,1.22,4.28s-.38,3.27-1.14,4.3c-.76,1.03-1.92,1.55-3.48,1.55-1.42,0-2.53-.52-3.33-1.55-.8-1.03-1.2-2.46-1.2-4.3s.37-3.26,1.12-4.28c.75-1.01,1.88-1.52,3.41-1.52Zm.05,2.86c-.4,0-.68,.25-.84,.75-.17,.5-.25,1.24-.25,2.21s.08,1.72,.25,2.24c.17,.52,.45,.78,.84,.78s.68-.26,.85-.78c.16-.52,.25-1.26,.25-2.24s-.08-1.71-.25-2.21c-.17-.5-.45-.75-.85-.75Zm13.57-2.6l-10.3,18.56h-3.38l10.3-18.56h3.38Zm-.1,7.15c1.46,0,2.59,.51,3.41,1.52,.81,1.01,1.22,2.44,1.22,4.28s-.38,3.27-1.14,4.3-1.92,1.55-3.48,1.55c-1.42,0-2.53-.52-3.33-1.55-.8-1.03-1.2-2.46-1.2-4.3s.37-3.26,1.12-4.28c.75-1.01,1.88-1.52,3.41-1.52Zm.05,2.83c-.4,0-.68,.26-.84,.78-.17,.52-.25,1.26-.25,2.21s.08,1.69,.25,2.21c.16,.52,.45,.78,.84,.78,.73,0,1.09-1,1.09-2.99s-.36-2.99-1.09-2.99Z"/></g><g><path d="M664.02,171.41h-4.47v-10.01c0-.23,0-.56,.01-1.01,0-.45,.02-.93,.03-1.43,0-.5,.02-.95,.04-1.35-.14,.17-.33,.38-.57,.61-.24,.23-.47,.44-.68,.61l-2.13,1.74-2.21-2.76,6.16-4.96h3.82v18.56Z"/><path d="M681.85,171.41h-13.21v-2.99l4.6-4.65c.94-.97,1.68-1.77,2.24-2.39s.95-1.17,1.18-1.65c.23-.48,.35-.98,.35-1.52,0-.66-.2-1.14-.58-1.44-.39-.3-.88-.46-1.47-.46-.66,0-1.3,.17-1.94,.49-.63,.33-1.32,.81-2.07,1.43l-2.42-2.83c.54-.48,1.11-.94,1.72-1.36,.61-.42,1.32-.77,2.14-1.04,.82-.27,1.82-.4,2.98-.4,1.25,0,2.32,.22,3.22,.66s1.59,1.04,2.08,1.79c.48,.75,.73,1.62,.73,2.59,0,1.04-.2,1.99-.6,2.83-.4,.85-.99,1.69-1.77,2.52-.78,.83-1.73,1.77-2.86,2.81l-1.92,1.77v.16h7.59v3.69Z"/><path d="M687.94,152.58c1.46,0,2.59,.51,3.41,1.52,.81,1.01,1.22,2.44,1.22,4.28s-.38,3.27-1.14,4.3c-.76,1.03-1.92,1.55-3.48,1.55-1.42,0-2.53-.52-3.33-1.55-.8-1.03-1.2-2.46-1.2-4.3s.37-3.26,1.12-4.28c.75-1.01,1.88-1.52,3.41-1.52Zm.05,2.86c-.4,0-.68,.25-.84,.75-.17,.5-.25,1.24-.25,2.21s.08,1.72,.25,2.24c.17,.52,.45,.78,.84,.78s.68-.26,.85-.78c.16-.52,.25-1.26,.25-2.24s-.08-1.71-.25-2.21c-.17-.5-.45-.75-.85-.75Zm13.57-2.6l-10.3,18.56h-3.38l10.3-18.56h3.38Zm-.1,7.15c1.46,0,2.59,.51,3.41,1.52,.81,1.01,1.22,2.44,1.22,4.28s-.38,3.27-1.14,4.3-1.92,1.55-3.48,1.55c-1.42,0-2.53-.52-3.33-1.55-.8-1.03-1.2-2.46-1.2-4.3s.37-3.26,1.12-4.28c.75-1.01,1.88-1.52,3.41-1.52Zm.05,2.83c-.4,0-.68,.26-.84,.78-.17,.52-.25,1.26-.25,2.21s.08,1.69,.25,2.21c.16,.52,.45,.78,.84,.78,.73,0,1.09-1,1.09-2.99s-.36-2.99-1.09-2.99Z"/></g></g><g id="Labels-CHT"><g><path class="cls-4" d="M238.88,93.91c-1.29,1.08-3.57,2.07-5.53,2.53-.29-.47-.87-1.22-1.33-1.63,1.9-.27,4.1-.91,5.26-1.61l1.6,.72Zm10.07-3.21v1.86h-7.37v4.33h-2.24v-4.33h-7.24v-1.86h7.24v-.84h-5.47v-1.63h5.47v-.85h-6.42v-1.71h3.5c-.17-.44-.46-.97-.7-1.39l1.27-.29h-4.84v-1.77h2.58c-.29-.72-.78-1.63-1.22-2.36l1.94-.65c.57,.8,1.2,1.94,1.44,2.66l-.91,.34h1.75v-3.1h2.09v3.1h1.42v-3.1h2.13v3.1h1.69l-.68-.21c.44-.76,.95-1.92,1.22-2.74l2.38,.55c-.53,.87-1.04,1.73-1.52,2.39h2.45v1.77h-5.01l1.79,.46c-.42,.46-.82,.87-1.16,1.22h3.67v1.71h-6.59v.85h5.7v1.63h-5.7v.84h7.37Zm-10.96-6.71c.3,.47,.61,1.03,.76,1.42l-1.03,.25h5.19l-.68-.21c.3-.44,.7-1.01,.97-1.46h-5.21Zm5.93,9.08c1.54,.57,3.78,1.52,5,2.13l-1.6,1.23c-1.1-.63-3.33-1.63-4.92-2.3l1.52-1.06Z"/><path class="cls-4" d="M263.2,87.85c1.37,1.14,3.25,2.07,5.21,2.57-.48,.46-1.16,1.33-1.5,1.94-1.14-.38-2.22-.89-3.21-1.54v6h-2.36v-6.69h1.42c-.85-.68-1.62-1.43-2.22-2.28h-1.96c-.63,.84-1.42,1.58-2.28,2.26h1.61v1.31c0,1.8-.55,4.2-4.33,5.59-.3-.55-1.06-1.41-1.56-1.82,3.17-1.04,3.55-2.64,3.55-3.86v-.68c-1.08,.74-2.24,1.33-3.46,1.77-.32-.55-.99-1.39-1.48-1.86,1.9-.55,3.78-1.54,5.13-2.7h-3.02v-8.07h13.54v8.07h-3.1Zm-8.19-4.88h3.32v-1.37h-3.32v1.37Zm0,3.06h3.32v-1.37h-3.32v1.37Zm8.93-4.43h-3.32v1.37h3.32v-1.37Zm0,3.06h-3.32v1.37h3.32v-1.37Z"/><path class="cls-4" d="M283.84,89.9c1.01,.91,2.34,1.73,3.71,2.2-.49,.4-1.18,1.2-1.5,1.75-1.03-.47-2.05-1.18-2.98-1.99v1.41h-3.46v1.23h6.19v1.86h-14.46v-1.86h5.96v-1.23h-3.36v-1.18c-.93,.78-1.96,1.46-3.02,1.94-.32-.53-.97-1.33-1.44-1.73,1.39-.51,2.79-1.39,3.84-2.39h-3.67v-1.84h3.63v-5.66h-2.62v-1.82h2.62v-1.42h2.26v1.42h5.95v-1.42h2.32v1.42h2.6v1.82h-2.6v5.66h3.51v1.84h-3.48Zm-1.2,1.58c-.51-.49-.97-1.03-1.37-1.58h-5.36c-.38,.55-.85,1.08-1.35,1.58h2.74v-1.18h2.3v1.18h3.04Zm-7.11-9.08v.84h5.95v-.84h-5.95Zm0,3.23h5.95v-.84h-5.95v.84Zm0,2.43h5.95v-.85h-5.95v.85Z"/><path class="cls-4" d="M306.16,93.61h-7.58v3.29h-2.34v-3.29h-7.35v-2.03h7.35v-.82h-1.65v-5.97c-.15,.13-.32,.29-.48,.42-.36-.34-1.06-.93-1.58-1.29l-1.04,1.5c-.65-.49-1.94-1.14-2.94-1.56l1.18-1.52c.85,.32,2.09,.85,2.79,1.29,1.48-1.12,2.89-2.85,3.69-4.6l2.15,.65c-.21,.46-.47,.93-.76,1.41h1.9c-.15-.44-.34-.89-.51-1.25l2.17-.59c.29,.57,.63,1.27,.84,1.84h3.46v1.69h-3.8v.93h3.06v1.39h-3.06v.84h3.06v1.37h-3.06v1.01h4.1v1.77h-8.93v.32h1.77v1.18h7.58v2.03Zm-12.08-6.69c-1.06,1.33-2.3,2.74-3.48,4.05l-1.58-1.69c1.04-.89,2.55-2.39,3.86-3.86l1.2,1.5Zm-1.23-4.62c-.63-.51-1.92-1.22-2.91-1.63l1.18-1.54c.97,.36,2.28,.99,2.94,1.46l-1.22,1.71Zm6.63,.47h-2.66v.93h2.66v-.93Zm0,2.32h-2.66v.84h2.66v-.84Zm0,2.2h-2.66v1.01h2.66v-1.01Z"/><path class="cls-4" d="M181.9,159.46c0,1.22-.44,2.19-1.32,2.89-.88,.71-2.11,1.06-3.68,1.06-1.45,0-2.73-.27-3.84-.82v-2.67c.92,.41,1.69,.7,2.32,.86,.63,.17,1.21,.25,1.74,.25,.63,0,1.11-.12,1.45-.36,.34-.24,.5-.6,.5-1.08,0-.27-.07-.5-.22-.71s-.37-.41-.65-.6c-.29-.19-.87-.5-1.76-.92-.83-.39-1.45-.76-1.86-1.12s-.75-.78-.99-1.25c-.25-.48-.37-1.03-.37-1.67,0-1.2,.41-2.14,1.22-2.83,.81-.69,1.94-1.03,3.37-1.03,.71,0,1.38,.08,2.02,.25,.64,.17,1.31,.4,2.01,.71l-.93,2.24c-.72-.3-1.32-.5-1.79-.62-.47-.12-.94-.18-1.4-.18-.54,0-.96,.13-1.25,.38-.29,.25-.44,.58-.44,.99,0,.25,.06,.47,.18,.66,.12,.19,.3,.37,.56,.55,.26,.18,.86,.49,1.82,.95,1.27,.61,2.14,1.21,2.61,1.82,.47,.61,.71,1.36,.71,2.24Z"/><path class="cls-4" d="M184.02,150.17c0-.92,.51-1.38,1.54-1.38s1.54,.46,1.54,1.38c0,.44-.13,.78-.38,1.03s-.64,.37-1.15,.37c-1.03,0-1.54-.46-1.54-1.39Zm2.95,13.05h-2.83v-10.37h2.83v10.37Z"/><path class="cls-4" d="M192.77,163.22h-2.83v-14.44h2.83v14.44Z"/><path class="cls-4" d="M195.62,150.17c0-.92,.51-1.38,1.54-1.38s1.54,.46,1.54,1.38c0,.44-.13,.78-.38,1.03s-.64,.37-1.15,.37c-1.03,0-1.54-.46-1.54-1.39Zm2.95,13.05h-2.83v-10.37h2.83v10.37Z"/><path class="cls-4" d="M205.75,163.41c-3.23,0-4.84-1.77-4.84-5.32,0-1.76,.44-3.11,1.32-4.04,.88-.93,2.14-1.4,3.78-1.4,1.2,0,2.28,.24,3.23,.71l-.84,2.19c-.45-.18-.86-.33-1.24-.44-.38-.11-.77-.17-1.15-.17-1.47,0-2.21,1.04-2.21,3.13s.74,3.04,2.21,3.04c.54,0,1.05-.07,1.51-.22s.93-.37,1.39-.68v2.42c-.46,.29-.92,.49-1.39,.6-.47,.11-1.06,.17-1.77,.17Z"/><path class="cls-4" d="M220.73,158.02c0,1.69-.45,3.01-1.34,3.96-.89,.95-2.13,1.43-3.72,1.43-1,0-1.87-.22-2.63-.65-.76-.44-1.34-1.06-1.75-1.88s-.61-1.77-.61-2.86c0-1.7,.44-3.01,1.33-3.95,.88-.94,2.13-1.41,3.73-1.41,1,0,1.87,.22,2.63,.65,.76,.43,1.34,1.05,1.75,1.86,.41,.81,.61,1.76,.61,2.85Zm-7.17,0c0,1.03,.17,1.8,.51,2.33s.89,.79,1.65,.79,1.3-.26,1.63-.78c.33-.52,.5-1.3,.5-2.33s-.17-1.8-.5-2.31-.88-.77-1.64-.77-1.3,.25-1.63,.76c-.33,.51-.5,1.28-.5,2.32Z"/><path class="cls-4" d="M232.64,163.22h-2.83v-6.06c0-.75-.13-1.31-.4-1.68s-.69-.56-1.27-.56c-.79,0-1.36,.26-1.72,.79-.35,.53-.53,1.41-.53,2.63v4.88h-2.83v-10.37h2.16l.38,1.33h.16c.32-.5,.75-.88,1.3-1.14s1.18-.39,1.89-.39c1.21,0,2.12,.33,2.75,.98,.62,.65,.94,1.59,.94,2.83v6.76Z"/><path class="cls-4" d="M246.46,163.22l-3.27-10.64h-.08c.12,2.17,.18,3.61,.18,4.33v6.31h-2.57v-13.56h3.92l3.21,10.37h.06l3.41-10.37h3.91v13.56h-2.68v-6.42c0-.3,0-.65,.01-1.05,0-.4,.05-1.45,.13-3.15h-.08l-3.5,10.62h-2.63Z"/><path class="cls-4" d="M267.83,158.02c0,1.69-.45,3.01-1.34,3.96-.89,.95-2.13,1.43-3.72,1.43-1,0-1.87-.22-2.63-.65-.76-.44-1.34-1.06-1.75-1.88s-.61-1.77-.61-2.86c0-1.7,.44-3.01,1.33-3.95,.88-.94,2.13-1.41,3.73-1.41,1,0,1.87,.22,2.63,.65,.76,.43,1.34,1.05,1.75,1.86,.41,.81,.61,1.76,.61,2.85Zm-7.17,0c0,1.03,.17,1.8,.51,2.33s.89,.79,1.65,.79,1.3-.26,1.63-.78c.33-.52,.5-1.3,.5-2.33s-.17-1.8-.5-2.31-.88-.77-1.64-.77-1.3,.25-1.63,.76c-.33,.51-.5,1.28-.5,2.32Z"/><path class="cls-4" d="M274.54,161.15c.5,0,1.09-.11,1.78-.32v2.11c-.71,.32-1.57,.47-2.6,.47-1.13,0-1.96-.29-2.47-.86-.52-.57-.77-1.43-.77-2.57v-5h-1.36v-1.2l1.56-.95,.82-2.19h1.81v2.21h2.9v2.12h-2.9v5c0,.4,.11,.7,.34,.89,.23,.19,.52,.29,.89,.29Z"/><path class="cls-4" d="M278.3,150.17c0-.92,.51-1.38,1.54-1.38s1.54,.46,1.54,1.38c0,.44-.13,.78-.38,1.03s-.64,.37-1.15,.37c-1.03,0-1.54-.46-1.54-1.39Zm2.95,13.05h-2.83v-10.37h2.83v10.37Z"/><path class="cls-4" d="M293.64,158.02c0,1.69-.45,3.01-1.34,3.96-.89,.95-2.13,1.43-3.72,1.43-1,0-1.87-.22-2.63-.65-.76-.44-1.34-1.06-1.75-1.88s-.61-1.77-.61-2.86c0-1.7,.44-3.01,1.33-3.95,.88-.94,2.13-1.41,3.73-1.41,1,0,1.87,.22,2.63,.65,.76,.43,1.34,1.05,1.75,1.86,.41,.81,.61,1.76,.61,2.85Zm-7.17,0c0,1.03,.17,1.8,.51,2.33s.89,.79,1.65,.79,1.3-.26,1.63-.78c.33-.52,.5-1.3,.5-2.33s-.17-1.8-.5-2.31-.88-.77-1.64-.77-1.3,.25-1.63,.76c-.33,.51-.5,1.28-.5,2.32Z"/><path class="cls-4" d="M305.56,163.22h-2.83v-6.06c0-.75-.13-1.31-.4-1.68s-.69-.56-1.27-.56c-.79,0-1.36,.26-1.72,.79-.35,.53-.53,1.41-.53,2.63v4.88h-2.83v-10.37h2.16l.38,1.33h.16c.32-.5,.75-.88,1.3-1.14s1.18-.39,1.89-.39c1.21,0,2.12,.33,2.75,.98,.62,.65,.94,1.59,.94,2.83v6.76Z"/></g><path class="cls-4" d="M310.48,80.51l1.25-2.17-2.26-1.01,.46-1.41,2.43,.55,.25-2.51h1.5l.23,2.51,2.43-.55,.46,1.41-2.28,1.01,1.27,2.17-1.2,.87-1.67-1.9-1.67,1.9-1.2-.87Z"/><g><path class="cls-2" d="M51.39,220.01l-.34,3.05,3.1-.86,.27,2.09-2.82,.2,1.85,2.46-1.88,1-1.29-2.6-1.14,2.58-1.96-.99,1.83-2.46-2.8-.22,.32-2.08,3.03,.86-.34-3.05h2.17Z"/><path class="cls-2" d="M63.46,228.27v4.66h-2.57v-12.14h3.54c1.65,0,2.87,.3,3.66,.9,.79,.6,1.19,1.51,1.19,2.74,0,.71-.2,1.35-.59,1.91-.39,.56-.95,.99-1.67,1.31l3.57,5.29h-2.86l-2.9-4.66h-1.37Zm0-2.09h.83c.81,0,1.41-.14,1.8-.41,.39-.27,.58-.7,.58-1.28s-.2-.99-.59-1.23-1.01-.37-1.84-.37h-.78v3.28Z"/><path class="cls-2" d="M77.8,232.93l-.49-1.26h-.07c-.43,.54-.87,.91-1.32,1.12-.45,.21-1.04,.31-1.76,.31-.89,0-1.59-.25-2.1-.76s-.77-1.23-.77-2.17,.34-1.71,1.03-2.18c.69-.47,1.73-.73,3.12-.78l1.61-.05v-.41c0-.94-.48-1.41-1.44-1.41-.74,0-1.61,.22-2.61,.67l-.84-1.71c1.07-.56,2.25-.84,3.55-.84s2.2,.27,2.86,.81c.66,.54,1,1.37,1,2.47v6.18h-1.77Zm-.75-4.3l-.98,.03c-.74,.02-1.28,.16-1.64,.4s-.54,.61-.54,1.11c0,.71,.41,1.07,1.23,1.07,.59,0,1.05-.17,1.41-.51s.53-.79,.53-1.34v-.76Z"/><path class="cls-2" d="M85.12,233.09c-1.09,0-1.95-.42-2.57-1.27-.62-.85-.93-2.02-.93-3.52s.32-2.71,.95-3.56,1.51-1.27,2.62-1.27c1.17,0,2.06,.45,2.67,1.36h.08c-.13-.69-.19-1.31-.19-1.85v-2.97h2.54v12.92h-1.94l-.49-1.2h-.11c-.58,.91-1.45,1.37-2.63,1.37Zm.89-2.02c.65,0,1.12-.19,1.42-.56,.3-.38,.47-1.01,.49-1.92v-.27c0-1-.15-1.71-.46-2.14-.31-.43-.81-.65-1.5-.65-.56,0-1,.24-1.32,.72s-.47,1.17-.47,2.09,.16,1.6,.47,2.05c.32,.46,.77,.68,1.35,.68Z"/><path class="cls-2" d="M98.07,225.55h-2.19v7.38h-2.53v-7.38h-1.39v-1.22l1.39-.68v-.68c0-1.06,.26-1.83,.78-2.32,.52-.49,1.35-.73,2.5-.73,.87,0,1.65,.13,2.33,.39l-.65,1.86c-.51-.16-.98-.24-1.41-.24-.36,0-.62,.11-.78,.32-.16,.21-.24,.49-.24,.82v.58h2.19v1.9Z"/><path class="cls-2" d="M107.95,228.27c0,1.51-.4,2.69-1.2,3.54s-1.91,1.28-3.33,1.28c-.89,0-1.68-.2-2.36-.58-.68-.39-1.2-.95-1.57-1.68s-.55-1.58-.55-2.56c0-1.52,.4-2.7,1.19-3.54,.79-.84,1.9-1.26,3.34-1.26,.89,0,1.68,.19,2.36,.58,.68,.39,1.2,.94,1.57,1.67s.55,1.57,.55,2.55Zm-6.42,0c0,.92,.15,1.61,.45,2.08s.79,.71,1.47,.71,1.16-.23,1.46-.7,.44-1.16,.44-2.09-.15-1.61-.45-2.07-.79-.69-1.47-.69-1.16,.23-1.46,.68c-.3,.46-.45,1.15-.45,2.07Z"/><path class="cls-2" d="M115.22,223.47c.34,0,.63,.03,.86,.08l-.19,2.37c-.21-.06-.45-.08-.75-.08-.81,0-1.44,.21-1.89,.62-.45,.42-.68,1-.68,1.74v4.72h-2.53v-9.28h1.92l.37,1.56h.12c.29-.52,.68-.94,1.17-1.26,.49-.32,1.02-.48,1.6-.48Z"/><path class="cls-2" d="M120.54,233.09c-1.09,0-1.95-.42-2.57-1.27-.62-.85-.93-2.02-.93-3.52s.32-2.71,.95-3.56,1.51-1.27,2.62-1.27c1.17,0,2.06,.45,2.67,1.36h.08c-.13-.69-.19-1.31-.19-1.85v-2.97h2.54v12.92h-1.94l-.49-1.2h-.11c-.58,.91-1.45,1.37-2.63,1.37Zm.89-2.02c.65,0,1.12-.19,1.42-.56,.3-.38,.47-1.01,.49-1.92v-.27c0-1-.15-1.71-.46-2.14-.31-.43-.81-.65-1.5-.65-.56,0-1,.24-1.32,.72s-.47,1.17-.47,2.09,.16,1.6,.47,2.05c.32,.46,.77,.68,1.35,.68Z"/><path class="cls-2" d="M140.61,232.93h-8.48v-1.79l3.05-3.08c.9-.92,1.49-1.56,1.77-1.92,.28-.36,.48-.69,.6-.99,.12-.3,.18-.62,.18-.95,0-.49-.13-.85-.4-1.09s-.63-.36-1.08-.36c-.47,0-.93,.11-1.37,.32-.44,.22-.9,.52-1.39,.92l-1.39-1.65c.6-.51,1.09-.87,1.49-1.08,.39-.21,.82-.37,1.29-.49s.99-.17,1.56-.17c.76,0,1.43,.14,2.01,.42,.58,.28,1.03,.66,1.35,1.16,.32,.5,.48,1.07,.48,1.71,0,.56-.1,1.08-.29,1.57-.2,.49-.5,.99-.91,1.51s-1.14,1.25-2.18,2.2l-1.56,1.47v.12h5.29v2.16Z"/><path class="cls-2" d="M150.26,226.86c0,2.12-.35,3.69-1.04,4.71s-1.76,1.53-3.21,1.53-2.46-.53-3.17-1.58-1.07-2.6-1.07-4.66,.35-3.72,1.04-4.74c.69-1.02,1.76-1.52,3.2-1.52s2.46,.53,3.17,1.59,1.08,2.62,1.08,4.66Zm-5.94,0c0,1.49,.13,2.56,.39,3.2,.26,.64,.69,.97,1.3,.97s1.03-.33,1.29-.98c.27-.65,.4-1.71,.4-3.19s-.13-2.56-.4-3.21-.7-.98-1.29-.98-1.04,.33-1.29,.98-.39,1.72-.39,3.21Z"/><path class="cls-2" d="M160.05,232.93h-8.48v-1.79l3.05-3.08c.9-.92,1.49-1.56,1.77-1.92,.28-.36,.48-.69,.6-.99,.12-.3,.18-.62,.18-.95,0-.49-.13-.85-.4-1.09s-.63-.36-1.08-.36c-.47,0-.93,.11-1.37,.32-.44,.22-.9,.52-1.39,.92l-1.39-1.65c.6-.51,1.09-.87,1.49-1.08,.39-.21,.82-.37,1.29-.49s.99-.17,1.56-.17c.76,0,1.43,.14,2.01,.42,.58,.28,1.03,.66,1.35,1.16,.32,.5,.48,1.07,.48,1.71,0,.56-.1,1.08-.29,1.57-.2,.49-.5,.99-.91,1.51s-1.14,1.25-2.18,2.2l-1.56,1.47v.12h5.29v2.16Z"/><path class="cls-2" d="M167.63,232.93h-2.57v-7.02l.03-1.15,.04-1.26c-.43,.43-.72,.71-.89,.84l-1.39,1.12-1.24-1.54,3.91-3.11h2.11v12.14Z"/><path class="cls-2" d="M186.11,221.56c.92,.9,2.72,1.33,5.01,1.45-.41,.39-.88,1.12-1.12,1.61-1.9-.24-3.38-.78-4.45-1.72-.65,.75-2.06,1.41-4.91,1.73-.14-.32-.41-.75-.68-1.11h-4.5v-1.55h5.13v1.04c3.25-.34,3.67-1.1,3.67-1.73v-.25h-1.02c-.36,.56-.76,1.07-1.19,1.46-.32-.31-1.07-.8-1.5-1.04,.9-.75,1.6-1.87,1.99-3.03l1.77,.39c-.08,.25-.19,.51-.29,.75h4.83l.31-.08,1.38,.42c-.44,.93-1.02,2.01-1.56,2.69l-1.56-.58c.19-.27,.41-.63,.59-.99h-1.89v.53Zm.46,10c1.56,.58,3.23,1.26,4.23,1.75l-1.82,1.09c-.97-.56-2.74-1.39-4.42-2.01l1.04-.83h-4.79l1.48,.68c-1.39,.88-3.59,1.73-5.3,2.21-.34-.39-1.05-1.14-1.5-1.48,1.63-.31,3.45-.82,4.64-1.41h-2.45v-6.9h11.37v6.9h-2.48Zm-6.38-10.71h-4.35v-1.48h4.35v1.48Zm-.56,5.75h7.36v-.73h-7.36v.73Zm0,1.87h7.36v-.73h-7.36v.73Zm0,1.9h7.36v-.77h-7.36v.77Z"/><path class="cls-2" d="M197.5,226.74c.34,.46,1.61,2.58,1.87,3.11l-1.39,1.51c-.24-.75-.7-1.9-1.12-2.84v5.88h-1.87v-6.07c-.39,1.7-1.02,3.49-1.9,4.47-.17-.71-.61-1.73-.92-2.41,.71-.85,1.38-2.41,1.65-3.71l1.17,.41v-1.05h-2.57v-1.89h2.57v-5.63h1.87v5.63h2.52v1.89h-2.52v1.16l.65-.46Zm-4.32-2.87c-.03-1.05-.37-2.69-.78-3.93l1.41-.36c.46,1.24,.82,2.84,.88,3.89l-1.51,.39Zm6.49-4.01c-.44,1.36-.94,2.96-1.36,3.94l-1.29-.36c.37-1.07,.77-2.75,.95-3.94l1.7,.36Zm6.59,9.94v4.59h-1.9v-4.25l-4.74,.85-.31-1.89,5.05-.9v-9.69h1.9v9.35l1.73-.32,.31,1.89-2.04,.37Zm-5.81-6.17c.99,.53,2.24,1.36,2.86,1.96l-1.02,1.61c-.56-.61-1.8-1.53-2.79-2.11l.95-1.46Zm2.46-.61c-.53-.66-1.7-1.58-2.63-2.21l.97-1.36c.95,.56,2.16,1.43,2.7,2.06l-1.04,1.51Z"/></g></g></svg>