<svg xmlns="http://www.w3.org/2000/svg" viewBox="0 0 800 480"><defs><style>.a{fill:#98d5f4;}.b{fill:#0071bc;}.c{fill:none;stroke:gray;stroke-miterlimit:10;stroke-width:0.93px;}.d{fill:#333;}.e{fill:#999;}</style></defs><rect class="a" x="336" y="243.97" width="211" height="73.03"/><rect class="b" x="336" y="162.83" width="291.95" height="73.03"/><line class="c" x1="336.01" y1="380.09" x2="336.01" y2="100.09"/><path d="M655.49,208.41l6.68-14.87h-8.63v-3.69h13.34v2.7l-6.79,15.86Z"/><path d="M681.85,197.88a18.64,18.64,0,0,1-.45,4.17,9.51,9.51,0,0,1-1.54,3.45,7.24,7.24,0,0,1-2.91,2.32,10.84,10.84,0,0,1-4.59.85c-.36,0-.79,0-1.28,0s-.91-.07-1.24-.12V205a11,11,0,0,0,2.29.23,7.26,7.26,0,0,0,3.42-.66,3.7,3.7,0,0,0,1.7-1.86,8.25,8.25,0,0,0,.57-2.76h-.15a5,5,0,0,1-1.38,1.54,4.36,4.36,0,0,1-2.55.62,4.82,4.82,0,0,1-3.77-1.56,6.4,6.4,0,0,1-1.4-4.42,6.48,6.48,0,0,1,1.71-4.77,6.37,6.37,0,0,1,4.71-1.73,6.93,6.93,0,0,1,3.48.89,6.06,6.06,0,0,1,2.47,2.71A10.44,10.44,0,0,1,681.85,197.88Zm-6.76-4.73a2.06,2.06,0,0,0-1.63.7,3.24,3.24,0,0,0-.63,2.21,3,3,0,0,0,.55,1.92,2,2,0,0,0,1.66.71,2.23,2.23,0,0,0,1.74-.75,2.29,2.29,0,0,0,.68-1.57,4.62,4.62,0,0,0-.26-1.52,2.92,2.92,0,0,0-.78-1.22A1.89,1.89,0,0,0,675.09,193.15Z"/><path d="M687.94,189.58a4.1,4.1,0,0,1,3.4,1.53,6.62,6.62,0,0,1,1.22,4.27,7.15,7.15,0,0,1-1.14,4.31,4,4,0,0,1-3.48,1.54,4,4,0,0,1-3.33-1.54,6.88,6.88,0,0,1-1.2-4.31,7.13,7.13,0,0,1,1.12-4.27A4,4,0,0,1,687.94,189.58Zm0,2.87c-.4,0-.68.25-.85.75a7.71,7.71,0,0,0-.24,2.21,8.09,8.09,0,0,0,.24,2.24c.17.52.45.78.85.78s.68-.26.84-.78a7.67,7.67,0,0,0,.25-2.24,7.31,7.31,0,0,0-.25-2.21Q688.59,192.45,688,192.45Zm13.57-2.6-10.3,18.56h-3.38l10.3-18.56Zm-.1,7.15a4.1,4.1,0,0,1,3.4,1.52,6.62,6.62,0,0,1,1.22,4.27,7.17,7.17,0,0,1-1.14,4.31,4,4,0,0,1-3.48,1.54,4,4,0,0,1-3.33-1.54,6.9,6.9,0,0,1-1.2-4.31,7.13,7.13,0,0,1,1.12-4.27A3.94,3.94,0,0,1,701.46,197Zm0,2.83c-.4,0-.68.26-.85.78a10.3,10.3,0,0,0,0,4.42c.17.52.45.78.85.78.73,0,1.09-1,1.09-3S702.24,199.83,701.51,199.83Z"/><path d="M660.79,280.4a6.24,6.24,0,0,1,2.94.67,5,5,0,0,1,2.06,2,6.2,6.2,0,0,1,.75,3.15,6.11,6.11,0,0,1-1.87,4.78q-1.87,1.69-5.59,1.69a14.76,14.76,0,0,1-2.84-.26,9.25,9.25,0,0,1-2.28-.75v-3.72a10.9,10.9,0,0,0,2.32.84,10,10,0,0,0,2.54.35,3.86,3.86,0,0,0,2.43-.66,2.4,2.4,0,0,0,.84-2,2.26,2.26,0,0,0-.84-1.89,4.18,4.18,0,0,0-2.59-.66,7.87,7.87,0,0,0-1.43.14l-1.25.27-1.69-.85.71-9.62h10.29v3.71h-6.5l-.28,3.1.91-.17A7.79,7.79,0,0,1,660.79,280.4Z"/><path d="M670.52,292.41l6.68-14.87h-8.63v-3.69h13.34v2.7l-6.79,15.86Z"/><path d="M687.94,273.58a4.1,4.1,0,0,1,3.4,1.53,6.62,6.62,0,0,1,1.22,4.27,7.15,7.15,0,0,1-1.14,4.31,4,4,0,0,1-3.48,1.54,4,4,0,0,1-3.33-1.54,6.88,6.88,0,0,1-1.2-4.31,7.13,7.13,0,0,1,1.12-4.27A4,4,0,0,1,687.94,273.58Zm0,2.87c-.4,0-.68.25-.85.75a7.71,7.71,0,0,0-.24,2.21,8.09,8.09,0,0,0,.24,2.24c.17.52.45.78.85.78s.68-.26.84-.78a7.67,7.67,0,0,0,.25-2.24,7.31,7.31,0,0,0-.25-2.21Q688.59,276.45,688,276.45Zm13.57-2.6-10.3,18.56h-3.38l10.3-18.56Zm-.1,7.15a4.1,4.1,0,0,1,3.4,1.52,6.62,6.62,0,0,1,1.22,4.27,7.17,7.17,0,0,1-1.14,4.31,4,4,0,0,1-3.48,1.54,4,4,0,0,1-3.33-1.54,6.9,6.9,0,0,1-1.2-4.31,7.13,7.13,0,0,1,1.12-4.27A3.94,3.94,0,0,1,701.46,281Zm0,2.83c-.4,0-.68.26-.85.78a10.3,10.3,0,0,0,0,4.42c.17.52.45.78.85.78.73,0,1.09-1,1.09-3S702.24,283.83,701.51,283.83Z"/><path class="d" d="M203.8,203.23a15.79,15.79,0,0,1-1.61,6.74,9.88,9.88,0,0,0-1.85-1.42c1.22-2.19,1.29-5.38,1.29-7.85v-6.86h0a31.73,31.73,0,0,0,6.44-1.35l1.45,1.92a30.83,30.83,0,0,1-5.66,1.12v1.35h4.88v6.35Zm.08-4.33v2.31h2.69V198.9Zm14.45,1.74H216.6v9.1h-2.24v-9.1h-2c-.08,3-.72,6.92-3.38,9.29a11.31,11.31,0,0,0-1.77-1.54c2.62-2.35,2.85-5.88,2.85-8.62v-5.91a30.44,30.44,0,0,0,6.53-1.5l1.47,2a30.93,30.93,0,0,1-5.68,1.25v2.89h5.92Z"/><path class="d" d="M226.73,196.54A11.74,11.74,0,0,1,226,198h8.84v9.39c0,1.12-.21,1.72-1,2.07a8.36,8.36,0,0,1-3.36.38,9.42,9.42,0,0,0-.69-2.19c1,.06,2.07.06,2.4.06s.43-.12.43-.38v-1.14h-7.14a6.62,6.62,0,0,1-2.11,3.78,7.67,7.67,0,0,0-1.63-1.73c1.63-1.42,1.76-3.46,1.76-5.22v-1.54a15.48,15.48,0,0,1-2.35,2.07,13.83,13.83,0,0,0-1.48-1.75,14.33,14.33,0,0,0,4.56-5.3h-4.13v-2.13h5.1c.3-.78.55-1.54.76-2.3l2.33.54c-.19.58-.4,1.17-.61,1.76h9.27v2.13Zm5.87,7.81v-1.24h-6.82c0,.4,0,.8,0,1.24Zm0-4.31h-6.82v1.19h6.82Z"/><path class="d" d="M249.36,205.18a60.49,60.49,0,0,1,6.86,2.8l-1.06,1.93a63.09,63.09,0,0,0-7.6-3.3l.85-1.43h-.68c-.91,2.34-2.95,3.84-8,4.68a5.76,5.76,0,0,0-1.12-2c3.82-.51,5.6-1.36,6.5-2.64h-5.66v-1.91h6.4c0-.31.11-.65.15-1h-7v-2h7.29v-1h-5.62v-1.9h5.62v-1h-6.7v-2h3.61a11,11,0,0,0-1.07-1.67l2-.8a8.33,8.33,0,0,1,1.42,2.22l-.55.25h4.18a16.74,16.74,0,0,0,1.35-2.47l2.43.63c-.42.66-.85,1.29-1.27,1.84h3.65v2h-6.73v1h5.81v1.9h-5.81v1h7.56v2h-7.81c0,.34-.09.66-.15,1h7.41v1.91Z"/><path class="d" d="M274.57,192.93v17h-2.24v-.79H260.52v.79h-2.15v-17Zm-2.24,14.19V195H270a6.34,6.34,0,0,1,1.59,1.11l-.76.79h.91v1.6h-3.4c.1,1.06.21,2,.36,2.91a12.07,12.07,0,0,0,.9-2.38l1.73.34a14.38,14.38,0,0,1-2,4.35c.25.57.53.93.88,1,.2.08.36-.66.43-1.77A7.72,7.72,0,0,0,272,204c-.31,2.33-1.29,3.06-2.55,2.49a2.72,2.72,0,0,1-1.42-1.26,11.78,11.78,0,0,1-2,1.62,9.17,9.17,0,0,0-1.23-1.37c.21-.12.42-.25.61-.38-1.52.23-3,.44-4.26.64l-.21-1.65c1.39-.15,3.36-.38,5.34-.64l0,.95a10.65,10.65,0,0,0,.95-.95,27.33,27.33,0,0,1-.82-5h-5.28v-1.6h5.15c0-.53-.06-1.06-.1-1.61h1.86c0,.55,0,1.08.08,1.61h2.05a9,9,0,0,0-1.46-1l.89-.9h-9.17v12.16Zm-6.4-4.23h-4.24v-3.61h4.24Zm-1.52-2.42h-1.27v1.22h1.27Z"/><path class="d" d="M289.43,206.59c1.77.53,3.71,1.22,5,1.73l-2,1.59a50.92,50.92,0,0,0-6.1-2.2l1.58-1.12h-5.15l1.45,1a25.68,25.68,0,0,1-5.89,2.28,20.35,20.35,0,0,0-1.71-1.62,22.93,22.93,0,0,0,4.86-1.67h-2.94v-8.42h13.88v8.42Zm2.34-9.12H279.4v-4.75h12.37Zm-11,3.06h9.31v-.82h-9.31Zm0,2.24h9.31V202h-9.31Zm0,2.28h9.31v-.83h-9.31Zm8.57-10.56h-7.68v1.23h7.68Z"/><path class="d" d="M313.16,206.29v2.28H295.89v-2.28h7.24v-9.83h-6.21v-2.35H312.1v2.35h-6.38v9.83Z"/><path class="d" d="M225.35,281.91c0-.23-.1-.51-.16-.82-3.79.57-4.48.71-4.9.92a19.42,19.42,0,0,0-.7-2c.48-.11.89-.53,1.48-1.23.23-.27.67-.82,1.2-1.58a7,7,0,0,0-2.13.42,19.37,19.37,0,0,0-.66-1.86,2.35,2.35,0,0,0,1.08-1,21.45,21.45,0,0,0,2.26-4.67l2,.81a27.09,27.09,0,0,1-2.55,4.54l1.25-.09a24.09,24.09,0,0,0,1.28-2.47l1.86,1.14a33.55,33.55,0,0,1-3.88,5.66l2-.25c-.13-.51-.31-1-.46-1.48l1.62-.51a29.79,29.79,0,0,1,1.18,3.91Zm-3.18,1a22.23,22.23,0,0,1-.87,4.86,11.54,11.54,0,0,0-1.77-.64,16.47,16.47,0,0,0,.8-4.51Zm1.94-.32a34.21,34.21,0,0,1,.51,3.91l-1.72.34a34.68,34.68,0,0,0-.4-3.93ZM226,282a25.54,25.54,0,0,1,.88,2.89l-1.6.56a20.94,20.94,0,0,0-.82-3Zm11.34,3.38v2.07H226.47v-2.07h4.29v-2.62h-3.42v-2h9.21v2H233v2.62ZM230.5,273.7c-.58,1-1.22,2.06-1.83,2.95a20,20,0,0,1,2,3l-1.81.7a18.75,18.75,0,0,0-2.24-3.7,29.49,29.49,0,0,0,2-3.44Zm6.62-.76H226.88v-2h10.24Zm-5.07,7.38a19.84,19.84,0,0,0-2.3-3.67,30.75,30.75,0,0,0,2-3.36l1.9.43c-.57,1-1.24,2-1.83,2.91a23.37,23.37,0,0,1,2,2.94Zm3.35.07a19.21,19.21,0,0,0-2.51-3.7,29.65,29.65,0,0,0,2.09-3.44l1.94.45c-.59,1-1.28,2.06-1.9,2.95a20.66,20.66,0,0,1,2.16,3Z"/><path class="d" d="M245.18,284.08c-2.09.74-4.37,1.46-6.19,2.05l-.51-2.3c.66-.17,1.44-.38,2.31-.63v-4.46h-1.91v-2.07h1.91v-3.35H238.7v-2.1H245v2.1h-2v3.35h1.71v2.07h-1.71v3.8c.63-.19,1.25-.38,1.86-.59Zm11.29,1.16v2.05H244.25v-2.05h5.25v-1.81h-3.94v-2h3.94v-1.64h-3.8v-8.83h9.91v8.83h-3.82v1.64h4v2h-4v1.81Zm-8.74-10.81h2v-1.58h-2Zm0,3.42h2v-1.64h-2Zm5.73-5h-1.88v1.58h1.88Zm0,3.36h-1.88v1.64h1.88Z"/><path class="d" d="M274.5,276.86a15.1,15.1,0,0,1-3.73,7,14.43,14.43,0,0,0,4.66,1.94,11.06,11.06,0,0,0-1.58,2.14,14.17,14.17,0,0,1-5-2.47,17.69,17.69,0,0,1-5.64,2.66,8.26,8.26,0,0,0-1.31-2.11,15,15,0,0,0,5.19-2.24,17.45,17.45,0,0,1-3.08-5.37h-.29a14.37,14.37,0,0,1-4.63,9.19,9.6,9.6,0,0,0-1.63-2c3.76-3.21,4.14-8,4.14-11.07v-1.44h-3v-2.21h12c-.3,1.75-.7,3.76-1.06,5.34h2.85l.41-.09ZM264,274.58c0,.53,0,1.08,0,1.67H267c.27-.95.53-2.05.78-3.13H264Zm2.26,3.82a12.05,12.05,0,0,0,2.62,3.91,11.09,11.09,0,0,0,2.53-3.91Z"/><path class="d" d="M284.76,282.52c-2.51,1.12-5.32,2.32-7.47,3.21l-.76-2.41c.72-.25,1.58-.55,2.53-.93l-.38-11.1,2.36-.09.34,10.27,2.87-1.17Zm7.86,5.34a32.64,32.64,0,0,0-3.55-4.58,13.73,13.73,0,0,1-5.77,4.62,13.75,13.75,0,0,0-1.81-2c6-2.28,8-6.88,8.68-14.68l2.49.22a29.2,29.2,0,0,1-2.32,9.65,41.31,41.31,0,0,1,4.22,4.89Zm-7.12-9.75a19.28,19.28,0,0,0-2.83-4.71l2.05-1a19.28,19.28,0,0,1,3,4.56Z"/><path class="d" d="M313.12,284.67V287H295.86v-2.28h6.8V270.36h2.43v5.43h6.7v2.3h-6.7v6.58Z"/><path class="e" d="M113.55,415.38l1.07-1.77-1.85-.76.3-.87,1.94.48.17-2.06h.92l.17,2,1.94-.46.29.87-1.86.76,1.09,1.77-.75.54-1.34-1.61-1.34,1.61Z"/><path class="e" d="M129.39,409.8h1.24v7.89a7.89,7.89,0,0,1-4.72,7.73,6.68,6.68,0,0,0-.9-.95,6.6,6.6,0,0,0,3.8-3.72l-4.18.8-.27-1.26c1.26-.17,3-.47,4.83-.78a8.54,8.54,0,0,0,.2-1.82v-.46h-4.33v-1.15h4.33v-2.61h-4.57v-1.18h4.57Zm10.25,11.32h-5.15v4.12h-1.26V409.8h1.26v2.49h4.86v1.18h-4.86v2.61H139v1.17h-4.52v2.68h5.15Z"/><path class="e" d="M155.11,413.07a23.3,23.3,0,0,1-2.51,1.61,12.94,12.94,0,0,0,4,1.23,4.24,4.24,0,0,0-.72,1c-3.29-.62-5.74-2.08-7.12-4.44a12.37,12.37,0,0,1-2.75,1.65v1.66l3.57-.69a4.44,4.44,0,0,0,0,1c-4,.85-4.52,1-4.85,1.19a4.57,4.57,0,0,0-.54-.9,1.33,1.33,0,0,0,.63-1.19v-.61a23.59,23.59,0,0,1-3.06.9,6.48,6.48,0,0,0-.72-.93,17.28,17.28,0,0,0,6.35-2.28h-5.92v-1h7.19A9.06,9.06,0,0,0,148,410l1.22-.29a6.31,6.31,0,0,1,.82,1.56h6.27v1h-6.51a6.83,6.83,0,0,0,1.87,1.88,21.67,21.67,0,0,0,2.55-1.71Zm.19,10.69c0,.64-.12,1-.61,1.19a8.41,8.41,0,0,1-2.52.19,3.82,3.82,0,0,0-.37-1.11c.95,0,1.73,0,2,0s.32-.09.32-.31v-5.3H151v.61c0,.36,0,.48.33.48h1.48a3.76,3.76,0,0,0,.88-.09c0,.27,0,.6.07.85a2.75,2.75,0,0,1-.92.1h-1.73c-1,0-1.18-.42-1.18-1.36v-.59h-1.95a2.75,2.75,0,0,1-1.7,2.33h5.68v3.12H147v.68h-1.05V420.9a7,7,0,0,1-1.21.33,2.69,2.69,0,0,0-.58-.8c1.87-.31,2.53-.85,2.75-2h-3.19v6.78H142.5V417.4h12.8ZM147,421.6v1.46h3.86V421.6Z"/><path class="e" d="M173.5,417.11v1.12h-7.08a12.38,12.38,0,0,1-.21,1.31h7v1.11h-7.32c-.8,2.33-2.62,3.77-7.07,4.54a4.43,4.43,0,0,0-.67-1.14c3.93-.56,5.6-1.65,6.36-3.4h-5.71v-1.11h6.07a10.22,10.22,0,0,0,.22-1.31h-6.67v-1.12h6.82v-1.43H160v-1.1h5.29V413.2H159v-1.14h3.59a10,10,0,0,0-1.31-2l1.09-.44a8.58,8.58,0,0,1,1.49,2.14l-.61.27h4.47a19.11,19.11,0,0,0,1.46-2.41l1.29.39a19.22,19.22,0,0,1-1.36,2h3.62v1.14h-6.25v1.38H172v1.1h-5.44v1.43Zm-6.95,3.72a43.27,43.27,0,0,1,6.94,3.37l-.6,1.09a40.21,40.21,0,0,0-6.88-3.52Z"/><path class="e" d="M190,410.48v14.79h-1.24v-.78H177.08v.78h-1.21V410.48Zm-1.24,12.87V411.64H177.08v11.71ZM183,420.77l-5,1-.17-1c1.29-.21,3.18-.55,5.08-.89Zm4.22-4.95A13.08,13.08,0,0,1,185.3,420c.36.9.82,1.47,1.38,1.56.24.07.41-.66.53-1.75a3.27,3.27,0,0,0,.81.56c-.22,1.85-.8,2.53-1.68,2.19a2.73,2.73,0,0,1-1.77-1.65,10.69,10.69,0,0,1-2.24,2,6.2,6.2,0,0,0-.75-.8,9.16,9.16,0,0,0,2.57-2.23,24.48,24.48,0,0,1-.94-5H178v-.95h5.12c0-.6-.1-1.19-.14-1.81h1.09c0,.62.07,1.21.1,1.81h3.71v.95h-3.62a24.05,24.05,0,0,0,.63,3.91,11.84,11.84,0,0,0,1.25-3.13Zm-4.83.07v3.3h-3.75v-3.3Zm-.91.8h-2v1.7h2Zm5.4-3a6.75,6.75,0,0,0-1.82-1.19l.6-.63a7.11,7.11,0,0,1,1.83,1.16Z"/><path class="e" d="M200.6,409.77c0,.61,0,1.46-.11,2.46.25,2,1.27,9.13,7.27,11.8a3.83,3.83,0,0,0-.92,1.07c-4.25-2-6.07-6.19-6.88-9.35a13.64,13.64,0,0,1-6.73,9.42,4.19,4.19,0,0,0-1-1c7-3.57,6.95-11.83,7-14.41Z"/><path class="e" d="M215.14,419l-1.16,1a29.71,29.71,0,0,0-3.75-3.77l1.1-1A33,33,0,0,1,215.14,419Z"/><path class="e" d="M233,423.33v1.16H217.84v-1.16h5v-3h-3.82v-5.68h3.82V412H218.3v-1.17h14.3V412h-4.75v2.64h3.91v5.67h-.61v0h-3.3v3Zm-8.88-4.14v4.14h2.51v-4.16h3.86v-3.49h-3.86V412H224.1v3.76h-3.81v3.47Z"/><path class="e" d="M248.61,413.07a23.3,23.3,0,0,1-2.51,1.61,12.94,12.94,0,0,0,4,1.23,4.24,4.24,0,0,0-.72,1c-3.29-.62-5.74-2.08-7.12-4.44a12.37,12.37,0,0,1-2.75,1.65v1.66l3.57-.69a4.44,4.44,0,0,0,0,1c-4,.85-4.52,1-4.85,1.19a4.57,4.57,0,0,0-.54-.9,1.33,1.33,0,0,0,.63-1.19v-.61a23.59,23.59,0,0,1-3.06.9,6.48,6.48,0,0,0-.72-.93,17.28,17.28,0,0,0,6.35-2.28H235v-1h7.19a9.06,9.06,0,0,0-.68-1.27l1.22-.29a6.31,6.31,0,0,1,.82,1.56h6.27v1h-6.51a6.83,6.83,0,0,0,1.87,1.88,21.67,21.67,0,0,0,2.55-1.71Zm.19,10.69c0,.64-.12,1-.61,1.19a8.41,8.41,0,0,1-2.52.19,3.82,3.82,0,0,0-.37-1.11c.95,0,1.73,0,2,0s.32-.09.32-.31v-5.3h-3.13v.61c0,.36,0,.48.33.48h1.48a3.76,3.76,0,0,0,.88-.09c0,.27,0,.6.07.85a2.75,2.75,0,0,1-.92.1h-1.73c-1,0-1.18-.42-1.18-1.36v-.59h-1.95a2.75,2.75,0,0,1-1.7,2.33h5.68v3.12h-4.95v.68h-1.05V420.9a7,7,0,0,1-1.21.33,2.69,2.69,0,0,0-.58-.8c1.87-.31,2.53-.85,2.75-2h-3.19v6.78H236V417.4h12.8Zm-8.33-2.16v1.46h3.86V421.6Z"/><path class="e" d="M267,417.11v1.12h-7.08a12.38,12.38,0,0,1-.21,1.31h7v1.11h-7.32c-.8,2.33-2.62,3.77-7.07,4.54a4.43,4.43,0,0,0-.67-1.14c3.93-.56,5.6-1.65,6.36-3.4h-5.71v-1.11h6.07a10.22,10.22,0,0,0,.22-1.31h-6.67v-1.12h6.82v-1.43h-5.29v-1.1h5.29V413.2h-6.22v-1.14h3.59a10,10,0,0,0-1.31-2l1.09-.44a8.58,8.58,0,0,1,1.49,2.14l-.61.27h4.47a19.11,19.11,0,0,0,1.46-2.41L264,410a19.22,19.22,0,0,1-1.36,2h3.62v1.14H260v1.38h5.44v1.1H260v1.43Zm-6.95,3.72A43.27,43.27,0,0,1,267,424.2l-.6,1.09a40.21,40.21,0,0,0-6.88-3.52Z"/><path class="e" d="M283.48,410.48v14.79h-1.24v-.78H270.58v.78h-1.21V410.48Zm-1.24,12.87V411.64H270.58v11.71Zm-5.77-2.58-5,1-.17-1c1.29-.21,3.18-.55,5.08-.89Zm4.22-4.95A13.08,13.08,0,0,1,278.8,420c.36.9.82,1.47,1.38,1.56.24.07.41-.66.53-1.75a3.27,3.27,0,0,0,.81.56c-.22,1.85-.8,2.53-1.68,2.19a2.73,2.73,0,0,1-1.77-1.65,10.69,10.69,0,0,1-2.24,2,6.2,6.2,0,0,0-.75-.8,9.16,9.16,0,0,0,2.57-2.23,24.48,24.48,0,0,1-.94-5h-5.2v-.95h5.12c-.05-.6-.1-1.19-.14-1.81h1.09c0,.62.07,1.21.1,1.81h3.71v.95h-3.62a24.05,24.05,0,0,0,.63,3.91,11.84,11.84,0,0,0,1.25-3.13Zm-4.83.07v3.3h-3.75v-3.3Zm-.91.8h-2v1.7h2Zm5.4-3a6.75,6.75,0,0,0-1.82-1.19l.6-.63A7.11,7.11,0,0,1,281,413Z"/><path class="e" d="M294.1,409.77c0,.61,0,1.46-.11,2.46.25,2,1.27,9.13,7.27,11.8a3.83,3.83,0,0,0-.92,1.07c-4.25-2-6.07-6.19-6.88-9.35a13.64,13.64,0,0,1-6.73,9.42,4.19,4.19,0,0,0-1-1c7.05-3.57,7-11.83,7-14.41Z"/><path class="e" d="M308.64,419l-1.16,1a29.71,29.71,0,0,0-3.75-3.77l1.1-1A33,33,0,0,1,308.64,419Z"/><path class="e" d="M320.08,415.48c1.16,3.94,3.38,7.17,6.76,8.62a5.82,5.82,0,0,0-.95,1.15c-3.38-1.63-5.56-4.84-6.85-8.95a13.22,13.22,0,0,1-2.1,5l.49-.34a23.28,23.28,0,0,1,3.31,3.25l-1.07.83a23,23,0,0,0-3.11-3.23,11.48,11.48,0,0,1-4.5,3.42,4,4,0,0,0-.94-1,10.86,10.86,0,0,0,6.73-8.7h-6.34v-1.27h6.55a43.07,43.07,0,0,0,.18-4.49h1.35c0,1.32,0,2.87-.22,4.49h7v1.27Z"/><path class="e" d="M343.5,419.27h-7v6h-1.3v-6h-6.86V418h6.86V412.1h-6v-1.24h13.29v1.24h-6V418h7Zm-11.94-6.34a16.34,16.34,0,0,1,1.61,3.83l-1.19.4a19.8,19.8,0,0,0-1.53-3.89Zm6.83,3.93a25.2,25.2,0,0,0,1.83-4l1.33.37a33.44,33.44,0,0,1-2.09,4Z"/><path class="e" d="M348.37,417.4a18.25,18.25,0,0,0-3.18-1.95l.71-.92a20.16,20.16,0,0,1,3.22,1.85Zm-2.82,6.66a50.42,50.42,0,0,0,2.84-5.47l1,.77c-.78,1.8-1.82,3.91-2.68,5.49Zm1.17-14a17.32,17.32,0,0,1,3.13,2.06l-.8,1a18.48,18.48,0,0,0-3.06-2.18Zm13.94,11.28h-4.78v3.9h-1.27v-3.9h-4.75v-1.2h4.75v-2.48h-3.73v-1.19h3.73v-2.42h-4.22v-1.19H353a14.2,14.2,0,0,0-1.51-2.73l1.09-.43a10.53,10.53,0,0,1,1.61,2.76l-.88.4h2.94a23.48,23.48,0,0,0,1.61-3.21l1.23.41c-.46.93-1,2-1.55,2.8h2.69v1.19h-4.39v2.42h3.84v1.19h-3.84v2.48h4.78Z"/><path class="e" d="M371.18,421.31h1.17v3.32h-1.17v-.53h-8.07v-2.72h1.17v1.72h2.87v-2.28h1.18v2.28h2.85Zm-5.4-2.84v1.11h11.06a3.42,3.42,0,0,1,0,.51c-.25,3-.49,4.25-.92,4.69a1.52,1.52,0,0,1-1,.46,16.72,16.72,0,0,1-1.92,0,2.48,2.48,0,0,0-.32-1.1c.73.08,1.43.1,1.68.1s.43,0,.56-.19.5-1.19.7-3.45h-11v-9.48h3.92a12.18,12.18,0,0,0,.53-1.41l1.44.17c-.22.44-.42.85-.66,1.24h5.17v5.18h-9.16v1.23h11.66v1Zm0-6.46v1.26h7.92V412Zm7.92,3.32v-1.21h-7.92v1.21Z"/><path class="e" d="M388.79,419.25c.89,2.71,2.45,4.56,4,4.54.5,0,.7-.69.79-2.48a3.39,3.39,0,0,0,1.1.6c-.2,2.48-.71,3.12-1.95,3.12-2.28,0-4.24-2.39-5.22-5.78h-5.12v4.25l4.08-1a5.57,5.57,0,0,0,.14,1.15c-4.63,1.25-5.26,1.4-5.66,1.65a4.06,4.06,0,0,0-.6-1.15,1.37,1.37,0,0,0,.75-1.24V410.58h12v4.92h-5a15.76,15.76,0,0,0,.38,2.56h5.84v1.19Zm-6.44-7.47v2.53h9.47v-2.53Zm4.81,6.28a20,20,0,0,1-.34-2.56h-4.47v2.56Z"/><path class="e" d="M402.14,419l-1.16,1a29.71,29.71,0,0,0-3.75-3.77l1.1-1A33,33,0,0,1,402.14,419Z"/><path class="e" d="M134,434.05v2.43h4.29V447.1H137v-1H126.31v1.05h-1.24V436.48h4.1v-2.43h-5v-1.23H139v1.23Zm3,10.89V442h-2.52c-1.39,0-1.71-.36-1.71-1.72v-2.67h-2.45a5.48,5.48,0,0,1-3.27,5,3.44,3.44,0,0,0-.73-.89v3.16Zm-10.68-7.29v4.11a4.47,4.47,0,0,0,2.84-4.11Zm6.45-3.6h-2.43v2.43h2.43Zm1.2,3.6v2.67c0,.44.07.51.65.51h2a1.43,1.43,0,0,0,.34,0v-3.16Z"/><path class="e" d="M146.08,444.5c-1.76.49-3.63.94-5.08,1.31l-.24-1.21c.6-.12,1.35-.3,2.16-.47v-4.61h-1.75v-1.16h1.75V434.1h-2v-1.16h5.24v1.16H144.1v4.26h1.71v1.16H144.1v4.32l1.85-.46Zm3.46-5.57c0,3.41-.43,6.32-3.66,8.32a5,5,0,0,0-.78-.9c2.86-1.75,3.28-4.25,3.3-7.17l-.68.31A25.41,25.41,0,0,0,146,436l.93-.35a22.1,22.1,0,0,1,1.5,2.67v-6.6h1.14Zm6.78,6.52v1.19h-7.16v-1.19h3.18V440.2h-2V439h2v-5H150v-1.16H156v1.16h-2.41v5h2.12v1.16h-2.12v5.25Z"/><path class="e" d="M173,439.64h-3.8v5.91c0,.84-.22,1.23-.76,1.43a9,9,0,0,1-2.92.26,5,5,0,0,0-.5-1.31c1.12,0,2.16,0,2.47,0s.41-.11.41-.4v-5.76a24.18,24.18,0,0,1-9,6.63,5.74,5.74,0,0,0-.89-1.09,22.48,22.48,0,0,0,8.47-5.69h-6.94a59.09,59.09,0,0,0,1.36-5.81h-1.7V432.6h13v1.23h-3v4.59H173Zm-10.76-5.81c-.31,1.46-.69,3.21-1,4.59h6.7v-4.59Z"/><path class="e" d="M188.79,435.07a22.48,22.48,0,0,1-2.52,1.61,12.94,12.94,0,0,0,4,1.23,4.21,4.21,0,0,0-.71,1c-3.3-.62-5.75-2.08-7.12-4.44a12.45,12.45,0,0,1-2.76,1.65v1.66l3.57-.69a5.14,5.14,0,0,0,.05,1c-4,.85-4.52,1-4.84,1.19a4.57,4.57,0,0,0-.54-.9,1.34,1.34,0,0,0,.62-1.19v-.61a23.45,23.45,0,0,1-3.05.9,7.29,7.29,0,0,0-.72-.93,17.23,17.23,0,0,0,6.34-2.28h-5.91v-1h7.19a9.06,9.06,0,0,0-.68-1.27l1.22-.29a6.66,6.66,0,0,1,.82,1.56H190v1h-6.51a6.56,6.56,0,0,0,1.87,1.88,22.54,22.54,0,0,0,2.55-1.71Zm.18,10.69c0,.64-.11,1-.61,1.19a8.3,8.3,0,0,1-2.51.19,3.85,3.85,0,0,0-.38-1.11c1,0,1.74,0,2,0s.32-.09.32-.31v-5.3h-3.13v.61c0,.36,0,.48.32.48h1.48a3.84,3.84,0,0,0,.89-.09c0,.27,0,.6.06.85a2.66,2.66,0,0,1-.91.1h-1.74c-1,0-1.17-.42-1.17-1.36v-.59h-1.95a2.75,2.75,0,0,1-1.7,2.33h5.67v3.12h-4.94v.68h-1.06V442.9a6.79,6.79,0,0,1-1.21.33,2.66,2.66,0,0,0-.57-.8c1.87-.31,2.53-.85,2.75-2h-3.19v6.78h-1.19V439.4H189Zm-8.32-2.16v1.46h3.85V443.6Z"/><path class="e" d="M207.18,439.11v1.12h-7.09c-.05.46-.12.9-.2,1.31h7v1.11h-7.33c-.79,2.33-2.61,3.77-7.07,4.54a4.12,4.12,0,0,0-.66-1.14c3.93-.56,5.59-1.65,6.36-3.4H192.5v-1.11h6.06a10.19,10.19,0,0,0,.23-1.31h-6.67v-1.12h6.82v-1.43h-5.29v-1.1h5.29V435.2h-6.22v-1.14h3.58a9.62,9.62,0,0,0-1.31-2l1.09-.44a8.39,8.39,0,0,1,1.5,2.14l-.61.27h4.47a19.11,19.11,0,0,0,1.46-2.41l1.29.39a22.9,22.9,0,0,1-1.36,2h3.62v1.14H200.2v1.38h5.43v1.1H200.2v1.43Zm-7,3.72a43.27,43.27,0,0,1,6.94,3.37l-.6,1.09a40.59,40.59,0,0,0-6.88-3.52Z"/><path class="e" d="M223.66,432.48v14.79h-1.25v-.78H210.75v.78h-1.2V432.48Zm-1.25,12.87V433.64H210.75v11.71Zm-5.76-2.58-5,1-.17-1c1.29-.21,3.18-.55,5.08-.89Zm4.22-4.95A13.3,13.3,0,0,1,219,442c.36.9.82,1.47,1.38,1.56.24.07.41-.66.52-1.75a3.32,3.32,0,0,0,.82.56c-.22,1.85-.8,2.53-1.68,2.19a2.73,2.73,0,0,1-1.77-1.65,10.69,10.69,0,0,1-2.24,2,7,7,0,0,0-.75-.8,9,9,0,0,0,2.56-2.23,24.53,24.53,0,0,1-.93-5h-5.2v-.95h5.11c-.05-.6-.1-1.19-.13-1.81h1.09c0,.62.06,1.21.1,1.81h3.7v.95h-3.62a25.2,25.2,0,0,0,.63,3.91,11.52,11.52,0,0,0,1.26-3.13Zm-4.83.07v3.3h-3.76v-3.3Zm-.92.8h-2v1.7h2Zm5.41-3a6.91,6.91,0,0,0-1.82-1.19l.59-.63a7,7,0,0,1,1.84,1.16Z"/><path class="e" d="M234.28,431.77c0,.61,0,1.46-.12,2.46.26,2,1.28,9.13,7.28,11.8a3.83,3.83,0,0,0-.92,1.07c-4.25-2-6.07-6.19-6.89-9.35a13.61,13.61,0,0,1-6.73,9.42,4.19,4.19,0,0,0-1-1c7.06-3.57,7-11.83,7-14.41Z"/><path class="e" d="M248.82,441l-1.16,1a29.76,29.76,0,0,0-3.76-3.77l1.11-1A33.85,33.85,0,0,1,248.82,441Z"/><path class="e" d="M266.68,439.11v1.12h-7.09c0,.46-.12.9-.2,1.31h7v1.11h-7.33c-.79,2.33-2.61,3.77-7.07,4.54a4.12,4.12,0,0,0-.66-1.14c3.93-.56,5.59-1.65,6.36-3.4H252v-1.11h6.06a10.19,10.19,0,0,0,.23-1.31h-6.67v-1.12h6.82v-1.43h-5.29v-1.1h5.29V435.2h-6.22v-1.14h3.58a9.62,9.62,0,0,0-1.31-2l1.09-.44a8.39,8.39,0,0,1,1.5,2.14l-.61.27h4.47a19.11,19.11,0,0,0,1.46-2.41l1.29.39a22.9,22.9,0,0,1-1.36,2H266v1.14H259.7v1.38h5.43v1.1H259.7v1.43Zm-6.95,3.72a43.27,43.27,0,0,1,6.94,3.37l-.6,1.09a40.59,40.59,0,0,0-6.88-3.52Z"/><path class="e" d="M271.17,439.08a21.16,21.16,0,0,0-2.85-1.74l.71-.91A20.26,20.26,0,0,1,271.9,438Zm-2.51,7.27A51.26,51.26,0,0,0,271,441l1,.68a58.17,58.17,0,0,1-2.21,5.39Zm3.11-11.69a16.63,16.63,0,0,0-2.72-1.87l.74-.9a16.66,16.66,0,0,1,2.74,1.77Zm2.8-2.57h1.19V438c0,3.31-.25,6.63-2.45,9.25a6.06,6.06,0,0,0-1.05-.75c2.07-2.41,2.31-5.46,2.31-8.5ZM273.43,441a19.74,19.74,0,0,0-1.15-4l1-.32a22.9,22.9,0,0,1,1.22,4Zm3.32-4.3a16.65,16.65,0,0,1,1.15,3.76l-.92.34A20.24,20.24,0,0,0,275.9,437Zm6.35-4.65v15.14h-1.2v-6.76l-.89.4a21.84,21.84,0,0,0-1.61-3.79v9.78h-1.19V432.33h1.19v4.47l.76-.3a19.08,19.08,0,0,1,1.74,3.77v-8.19Z"/><path class="e" d="M300.56,433.81H288.12v3.64c0,2.72-.22,6.73-1.79,9.43a4.57,4.57,0,0,0-1.08-.63c1.48-2.58,1.63-6.22,1.63-8.8v-4.8h13.68Zm-8.44,9.13a27.7,27.7,0,0,1-3,3.57c-.25-.19-.76-.53-1.07-.72a17.08,17.08,0,0,0,2.89-3.26Zm2.9-1.24v4.14c0,.67-.13,1-.64,1.18a8.68,8.68,0,0,1-2.64.2,4.66,4.66,0,0,0-.39-1.12c1,0,1.85,0,2.11,0s.34-.09.34-.29V441.7h-4.15v-6.12H293a12.22,12.22,0,0,0,.65-1.57l1.46.22-.75,1.35h4.9v6.12Zm-4.13-3.54H298v-1.58h-7.06Zm0,2.53H298v-1.58h-7.06Zm6.56,1.87c1,1.06,2.37,2.5,3.05,3.37l-1.06.68a40.67,40.67,0,0,0-3-3.52Z"/><path class="e" d="M307.69,432.14a24.74,24.74,0,0,1-1.74,3.64V447.2H304.7v-9.45a17.32,17.32,0,0,1-1.69,2,6.82,6.82,0,0,0-.73-1.26,19,19,0,0,0,4.2-6.75Zm10.2,13.31v1.21H307v-1.21h4.91v-4.3H308V440h3.91v-3.74H307.4V435h10.25v1.2h-4.52V440h4v1.19h-4v4.3Zm-5.58-10.59a13.19,13.19,0,0,0-1.39-2.8l1.14-.43a15,15,0,0,1,1.47,2.76Z"/><path class="e" d="M329,441.25c.88,2.71,2.45,4.56,4,4.54.49,0,.7-.69.78-2.48a3.44,3.44,0,0,0,1.11.6c-.21,2.48-.72,3.12-2,3.12-2.28,0-4.23-2.39-5.22-5.78h-5.11v4.25l4.08-1a6.4,6.4,0,0,0,.13,1.15c-4.62,1.25-5.25,1.4-5.66,1.65a3.79,3.79,0,0,0-.59-1.15,1.39,1.39,0,0,0,.75-1.24V432.58h12v4.92h-5a15.78,15.78,0,0,0,.37,2.56h5.85v1.19Zm-6.44-7.47v2.53H332v-2.53Zm4.81,6.28a20,20,0,0,1-.34-2.56h-4.47v2.56Z"/><path class="e" d="M628.77,429.5c3.42-3.06,5.44-5.42,5.44-7.36a1.8,1.8,0,0,0-1.89-2,3.24,3.24,0,0,0-2.31,1.29L628.65,420a5.12,5.12,0,0,1,4-1.9,3.69,3.69,0,0,1,4,3.87c0,2.28-1.89,4.73-4.19,7,.63-.07,1.47-.13,2-.13h2.74v2.1h-8.43Z"/><path class="e" d="M638.8,424.6c0-4.35,1.7-6.47,4.27-6.47s4.25,2.14,4.25,6.47-1.7,6.58-4.25,6.58S638.8,428.94,638.8,424.6Zm6.15,0c0-3.52-.81-4.54-1.88-4.54s-1.91,1-1.91,4.54.82,4.63,1.91,4.63S645,428.14,645,424.6Z"/><path class="e" d="M648.79,429.5c3.42-3.06,5.44-5.42,5.44-7.36a1.8,1.8,0,0,0-1.88-2,3.24,3.24,0,0,0-2.31,1.29L648.68,420a5.09,5.09,0,0,1,4-1.9,3.69,3.69,0,0,1,4,3.87c0,2.28-1.88,4.73-4.18,7,.63-.07,1.46-.13,2-.13h2.74v2.1h-8.44Z"/><path class="e" d="M658.83,424.6c0-4.35,1.7-6.47,4.26-6.47s4.25,2.14,4.25,6.47-1.7,6.58-4.25,6.58S658.83,428.94,658.83,424.6Zm6.15,0c0-3.52-.82-4.54-1.89-4.54s-1.9,1-1.9,4.54.81,4.63,1.9,4.63S665,428.14,665,424.6Z"/><path class="e" d="M683.32,419.57c.92.9,2.72,1.33,5,1.45a6.84,6.84,0,0,0-1.12,1.61,8.1,8.1,0,0,1-4.45-1.72c-.65.75-2.06,1.42-4.91,1.74a6.27,6.27,0,0,0-.68-1.11h-4.51V420h5.14v1c3.24-.34,3.67-1.1,3.67-1.73V419h-1a7.48,7.48,0,0,1-1.19,1.47,9.72,9.72,0,0,0-1.5-1,6.85,6.85,0,0,0,2-3l1.77.39c-.09.26-.19.51-.29.75h4.83l.3-.08,1.38.42a14.87,14.87,0,0,1-1.56,2.69l-1.57-.58a9.56,9.56,0,0,0,.6-1h-1.89v.53Zm.46,10c1.56.57,3.23,1.25,4.23,1.75l-1.82,1.09a29.76,29.76,0,0,0-4.42-2l1-.83H678l1.48.68a22.49,22.49,0,0,1-5.31,2.21A13.89,13.89,0,0,0,672.7,431a19.82,19.82,0,0,0,4.64-1.41h-2.45v-6.9h11.37v6.9Zm-6.38-10.71h-4.35v-1.48h4.35Zm-.56,5.74h7.36v-.73h-7.36Zm0,1.87h7.36v-.73h-7.36Zm0,1.91h7.36v-.77h-7.36Z"/><path class="e" d="M694.71,424.76c.34.45,1.62,2.58,1.87,3.11l-1.39,1.51a29.21,29.21,0,0,0-1.13-2.84v5.88H692.2v-6.07a11,11,0,0,1-1.91,4.47,15.7,15.7,0,0,0-.92-2.41,9.37,9.37,0,0,0,1.65-3.7l1.18.4v-1.05h-2.57v-1.89h2.57v-5.62h1.86v5.62h2.52v1.89h-2.52v1.15Zm-4.32-2.88a15.89,15.89,0,0,0-.78-3.92l1.41-.36a15.74,15.74,0,0,1,.89,3.89Zm6.5-4c-.45,1.36-.94,3-1.36,3.95l-1.3-.36a25.61,25.61,0,0,0,1-3.95Zm6.59,9.95v4.59h-1.9v-4.25l-4.74.85-.31-1.89,5.05-.9v-9.69h1.9v9.35l1.74-.33.3,1.89Zm-5.81-6.17a14.46,14.46,0,0,1,2.85,2l-1,1.61a14.59,14.59,0,0,0-2.78-2.1Zm2.46-.62a13.72,13.72,0,0,0-2.63-2.21l1-1.36a12.64,12.64,0,0,1,2.7,2.06Z"/></svg>