<?xml version="1.0" encoding="UTF-8"?><svg xmlns="http://www.w3.org/2000/svg" viewBox="0 0 800 480"><defs><style>.cls-1{fill:#0071bc;}.cls-2{fill:#e6e6e6;}.cls-3{fill:#98d5f4;}.cls-4{fill:#29abe2;}</style></defs><g id="_021"><g><path class="cls-1" d="M380.95,278.28l-23.52-167.35c7.39-1.04,16.05-1.64,23.52-1.64v168.99Z"/><path class="cls-4" d="M380.95,278.28l-157.77-60.56c22.74-59.25,71.4-97.95,134.25-106.79l23.52,167.35Z"/><path class="cls-3" d="M380.95,278.28l8.84-168.76c93.21,4.88,164.8,84.4,159.92,177.61s-84.4,164.8-177.61,159.92-164.8-84.4-159.92-177.61c.98-18.64,4.3-34.29,10.99-51.72l157.77,60.56Z"/><path class="cls-2" d="M380.95,278.28V109.28c3.73,0,5.12,.04,8.84,.23l-8.84,168.76Z"/></g></g><g id="Numbers"><g><path d="M387.53,83.41h-4.47v-10.01c0-.23,0-.56,.01-1.01s.02-.93,.03-1.43c0-.5,.02-.95,.04-1.35-.14,.17-.33,.38-.57,.61-.24,.23-.47,.44-.68,.61l-2.13,1.74-2.21-2.76,6.16-4.97h3.82v18.56Z"/><path d="M396.42,64.58c1.46,0,2.59,.51,3.41,1.52,.81,1.01,1.22,2.44,1.22,4.28s-.38,3.27-1.14,4.3c-.76,1.03-1.92,1.55-3.48,1.55-1.42,0-2.53-.52-3.33-1.55-.8-1.03-1.2-2.47-1.2-4.3s.37-3.26,1.12-4.28c.75-1.01,1.88-1.52,3.41-1.52Zm.05,2.86c-.4,0-.68,.25-.84,.75-.17,.5-.25,1.24-.25,2.21s.08,1.72,.25,2.24,.45,.78,.84,.78,.68-.26,.85-.78c.16-.52,.25-1.27,.25-2.24s-.08-1.71-.25-2.21c-.17-.5-.45-.75-.85-.75Zm13.57-2.6l-10.3,18.56h-3.38l10.3-18.56h3.38Zm-.1,7.15c1.46,0,2.59,.51,3.41,1.52s1.22,2.44,1.22,4.28-.38,3.27-1.14,4.3-1.92,1.55-3.48,1.55c-1.42,0-2.53-.52-3.33-1.55-.8-1.03-1.2-2.47-1.2-4.3s.37-3.26,1.12-4.28,1.88-1.52,3.41-1.52Zm.05,2.83c-.4,0-.68,.26-.84,.78-.17,.52-.25,1.26-.25,2.21s.08,1.69,.25,2.21c.16,.52,.45,.78,.84,.78,.73,0,1.09-1,1.09-2.99s-.36-2.99-1.09-2.99Z"/></g><g><path d="M208.02,139.41h-4.47v-10.01c0-.23,0-.56,.01-1.01s.02-.93,.03-1.43c0-.5,.02-.95,.04-1.35-.14,.17-.33,.38-.57,.61-.24,.23-.47,.44-.68,.61l-2.13,1.74-2.21-2.76,6.16-4.97h3.82v18.56Z"/><path d="M214.52,139.41l6.68-14.87h-8.63v-3.69h13.34v2.7l-6.79,15.86h-4.6Z"/><path d="M231.94,120.58c1.46,0,2.59,.51,3.41,1.52,.81,1.01,1.22,2.44,1.22,4.28s-.38,3.27-1.14,4.3c-.76,1.03-1.92,1.55-3.48,1.55-1.42,0-2.53-.52-3.33-1.55-.8-1.03-1.2-2.47-1.2-4.3s.37-3.26,1.12-4.28c.75-1.01,1.88-1.52,3.41-1.52Zm.05,2.86c-.4,0-.68,.25-.84,.75-.17,.5-.25,1.24-.25,2.21s.08,1.72,.25,2.24,.45,.78,.84,.78,.68-.26,.85-.78c.16-.52,.25-1.27,.25-2.24s-.08-1.71-.25-2.21c-.17-.5-.45-.75-.85-.75Zm13.57-2.6l-10.3,18.56h-3.38l10.3-18.56h3.38Zm-.1,7.15c1.46,0,2.59,.51,3.41,1.52s1.22,2.44,1.22,4.28-.38,3.27-1.14,4.3-1.92,1.55-3.48,1.55c-1.42,0-2.53-.52-3.33-1.55-.8-1.03-1.2-2.47-1.2-4.3s.37-3.26,1.12-4.28,1.88-1.52,3.41-1.52Zm.05,2.83c-.4,0-.68,.26-.84,.78-.17,.52-.25,1.26-.25,2.21s.08,1.69,.25,2.21c.16,.52,.45,.78,.84,.78,.73,0,1.09-1,1.09-2.99s-.36-2.99-1.09-2.99Z"/></g><g><path d="M332.34,94.41h-13.21v-2.99l4.6-4.65c.94-.97,1.68-1.77,2.24-2.39s.95-1.17,1.18-1.65c.23-.48,.35-.98,.35-1.52,0-.66-.2-1.14-.58-1.44-.39-.3-.88-.46-1.47-.46-.66,0-1.3,.17-1.94,.49s-1.32,.81-2.07,1.43l-2.42-2.83c.54-.48,1.11-.94,1.72-1.36,.61-.42,1.32-.77,2.14-1.04,.82-.27,1.82-.4,2.98-.4,1.25,0,2.32,.22,3.22,.66s1.59,1.04,2.08,1.79c.48,.75,.73,1.62,.73,2.59,0,1.04-.2,1.98-.6,2.83-.4,.85-.99,1.69-1.77,2.52-.78,.83-1.73,1.77-2.86,2.81l-1.92,1.77v.16h7.59v3.69Z"/><path d="M338.42,75.58c1.46,0,2.59,.51,3.41,1.52,.81,1.01,1.22,2.44,1.22,4.28s-.38,3.27-1.14,4.3c-.76,1.03-1.92,1.55-3.48,1.55-1.42,0-2.53-.52-3.33-1.55-.8-1.03-1.2-2.47-1.2-4.3s.37-3.26,1.12-4.28c.75-1.01,1.88-1.52,3.41-1.52Zm.05,2.86c-.4,0-.68,.25-.84,.75-.17,.5-.25,1.24-.25,2.21s.08,1.72,.25,2.24,.45,.78,.84,.78,.68-.26,.85-.78c.16-.52,.25-1.27,.25-2.24s-.08-1.71-.25-2.21c-.17-.5-.45-.75-.85-.75Zm13.57-2.6l-10.3,18.56h-3.38l10.3-18.56h3.38Zm-.1,7.15c1.46,0,2.59,.51,3.41,1.52s1.22,2.44,1.22,4.28-.38,3.27-1.14,4.3-1.92,1.55-3.48,1.55c-1.42,0-2.53-.52-3.33-1.55-.8-1.03-1.2-2.47-1.2-4.3s.37-3.26,1.12-4.28,1.88-1.52,3.41-1.52Zm.05,2.83c-.4,0-.68,.26-.84,.78-.17,.52-.25,1.26-.25,2.21s.08,1.69,.25,2.21c.16,.52,.45,.78,.84,.78,.73,0,1.09-1,1.09-2.99s-.36-2.99-1.09-2.99Z"/></g><g><path d="M559.25,369.61c1.14,0,2.17,.16,3.08,.49,.91,.33,1.63,.83,2.17,1.49,.54,.67,.81,1.5,.81,2.48,0,1.13-.31,2.05-.92,2.77-.62,.72-1.4,1.3-2.35,1.76,.62,.35,1.23,.75,1.81,1.2,.58,.45,1.06,.98,1.44,1.6,.38,.62,.57,1.33,.57,2.14,0,1.53-.58,2.76-1.73,3.71-1.15,.95-2.79,1.42-4.9,1.42s-3.86-.46-4.97-1.38c-1.11-.92-1.66-2.14-1.66-3.67,0-1.28,.33-2.3,1-3.05s1.5-1.37,2.48-1.86c-.8-.52-1.48-1.15-2.05-1.88-.57-.74-.86-1.66-.86-2.77,0-.97,.27-1.79,.82-2.46,.55-.67,1.28-1.17,2.2-1.49,.92-.33,1.94-.49,3.07-.49Zm-2.57,13.78c0,.61,.21,1.1,.64,1.48,.42,.38,1.04,.57,1.86,.57,.88,0,1.54-.18,1.96-.55s.64-.84,.64-1.43c0-.43-.12-.82-.38-1.16-.25-.34-.56-.63-.92-.88-.36-.25-.7-.47-1.01-.66l-.34-.21c-.71,.35-1.3,.75-1.75,1.2-.46,.45-.69,1-.69,1.64Zm2.55-10.58c-.54,0-.99,.15-1.35,.44-.36,.29-.55,.69-.55,1.2,0,.54,.19,.99,.56,1.35,.37,.36,.82,.68,1.34,.94,.49-.23,.93-.51,1.33-.86,.4-.35,.6-.82,.6-1.43,0-.5-.19-.9-.56-1.2-.37-.29-.83-.44-1.37-.44Z"/><path d="M580.83,379.13c0,1.99-.21,3.7-.64,5.12s-1.12,2.51-2.08,3.28-2.25,1.14-3.86,1.14c-2.29,0-3.96-.84-5-2.52-1.05-1.68-1.57-4.02-1.57-7.02,0-1.99,.21-3.71,.64-5.13,.42-1.43,1.12-2.53,2.08-3.29,.96-.76,2.25-1.14,3.86-1.14,2.27,0,3.93,.84,4.99,2.52,1.06,1.68,1.59,4.03,1.59,7.05Zm-8.76,0c0,1.99,.15,3.49,.46,4.49,.3,1,.88,1.5,1.73,1.5s1.43-.5,1.73-1.5c.3-1,.46-2.49,.46-4.49s-.15-3.47-.46-4.48c-.3-1.01-.88-1.52-1.73-1.52s-1.43,.51-1.73,1.52c-.3,1.01-.46,2.51-.46,4.48Z"/><path d="M586.94,369.58c1.46,0,2.59,.51,3.41,1.52,.81,1.01,1.22,2.44,1.22,4.28s-.38,3.27-1.14,4.3c-.76,1.03-1.92,1.55-3.48,1.55-1.42,0-2.53-.52-3.33-1.55-.8-1.03-1.2-2.46-1.2-4.3s.37-3.26,1.12-4.28c.75-1.01,1.88-1.52,3.41-1.52Zm.05,2.86c-.4,0-.68,.25-.84,.75-.17,.5-.25,1.24-.25,2.21s.08,1.72,.25,2.24c.17,.52,.45,.78,.84,.78s.68-.26,.85-.78c.16-.52,.25-1.26,.25-2.24s-.08-1.71-.25-2.21c-.17-.5-.45-.75-.85-.75Zm13.57-2.6l-10.3,18.56h-3.38l10.3-18.56h3.38Zm-.1,7.15c1.46,0,2.59,.51,3.41,1.52,.81,1.01,1.22,2.44,1.22,4.28s-.38,3.27-1.14,4.3-1.92,1.55-3.48,1.55c-1.42,0-2.53-.52-3.33-1.55-.8-1.03-1.2-2.46-1.2-4.3s.37-3.26,1.12-4.28c.75-1.01,1.88-1.52,3.41-1.52Zm.05,2.83c-.4,0-.68,.26-.84,.78-.17,.52-.25,1.26-.25,2.21s.08,1.69,.25,2.21c.16,.52,.45,.78,.84,.78,.73,0,1.09-1,1.09-2.99s-.36-2.99-1.09-2.99Z"/></g></g><g id="Labels-CHT"><g><path d="M384.54,49.42c-1.69,1.04-4.26,2.13-6.29,2.81-.21-.3-.63-.78-.93-1.08,2.05-.61,4.63-1.69,5.96-2.6l1.25,.87Zm9.75-1.22h-16.77v-1.31h3.48v-8.43h-2.94v-1.33h2.94v-2.18h1.39v2.18h7.03v-2.18h1.41v2.18h3.04v1.33h-3.04v8.43h3.48v1.31Zm-11.91-9.75v1.88h7.03v-1.88h-7.03Zm0,5.15h7.03v-2.05h-7.03v2.05Zm0,3.29h7.03v-2.07h-7.03v2.07Zm5.87,1.75c2.22,.78,4.64,1.82,6.1,2.62l-1.25,.93c-1.35-.8-3.59-1.84-5.79-2.66l.95-.89Z"/><path d="M412.62,37.47v3.91h-1.44v-2.55h-12.67v2.55h-1.39v-3.91h7.47c-.23-.68-.65-1.58-1.08-2.32l1.37-.38c.49,.82,1.06,1.92,1.29,2.62l-.25,.08h6.71Zm-3.55,12.94c1.5,0,1.71-.48,1.9-2.98,.38,.25,.99,.49,1.41,.59-.27,2.94-.82,3.78-3.29,3.78h-5.87c-2.68,0-3.46-.53-3.46-2.56v-8.53h1.44v4.29c2.98-.82,6.12-1.9,7.98-2.94l1.16,1.1c-2.41,1.2-5.95,2.28-9.14,3.12v2.96c0,.97,.32,1.18,2,1.18h5.87Z"/></g><g><path d="M221.49,97.29v8.89h-1.44v-1.08h-5.45v6.16h-1.46v-6.16h-5.43v1.18h-1.39v-8.99h6.82v-3.38h1.46v3.38h6.9Zm-8.36,6.42v-5.03h-5.43v5.03h5.43Zm6.92,0v-5.03h-5.45v5.03h5.45Z"/><path d="M240.8,94.78v16.53h-1.39v-.87h-13.03v.87h-1.35v-16.53h15.77Zm-1.39,14.38v-13.09h-13.03v13.09h13.03Zm-6.44-2.89c-1.98,.38-3.99,.78-5.55,1.06l-.19-1.06c1.44-.23,3.55-.61,5.68-.99l.06,.99Zm4.71-5.53c-.47,1.79-1.2,3.34-2.11,4.65,.4,1.01,.91,1.65,1.54,1.75,.27,.08,.46-.74,.59-1.96,.23,.23,.65,.51,.91,.63-.25,2.07-.89,2.83-1.88,2.45-.84-.17-1.46-.84-1.98-1.84-.74,.85-1.58,1.58-2.51,2.18-.17-.23-.59-.68-.84-.89,1.12-.65,2.07-1.48,2.87-2.49-.51-1.5-.82-3.46-1.04-5.6h-5.81v-1.06h5.72c-.06-.66-.11-1.33-.15-2.01h1.22c.04,.68,.08,1.35,.11,2.01h4.14v1.06h-4.05c.15,1.63,.38,3.15,.7,4.37,.61-1.03,1.08-2.2,1.41-3.5l1.16,.25Zm-5.39,.08v3.69h-4.2v-3.69h4.2Zm-1.03,.89h-2.18v1.9h2.18v-1.9Zm6.04-3.36c-.42-.42-1.29-1.01-2.03-1.33l.67-.7c.74,.34,1.61,.85,2.05,1.29l-.68,.74Z"/></g><g><path d="M336.38,54.19v1.25h-7.92c-.06,.51-.13,1.01-.23,1.46h7.85v1.23h-8.19c-.89,2.6-2.93,4.22-7.9,5.07-.11-.36-.48-.95-.74-1.27,4.39-.63,6.25-1.84,7.1-3.8h-6.38v-1.23h6.78c.11-.46,.19-.95,.25-1.46h-7.45v-1.25h7.62v-1.6h-5.91v-1.23h5.91v-1.54h-6.95v-1.27h4.01c-.3-.66-.89-1.54-1.46-2.2l1.22-.49c.7,.72,1.37,1.71,1.67,2.39l-.68,.3h5c.57-.78,1.24-1.9,1.63-2.7l1.44,.44c-.46,.78-1.03,1.6-1.52,2.26h4.05v1.27h-6.99v1.54h6.08v1.23h-6.08v1.6h7.81Zm-7.77,4.16c2.6,.99,6.02,2.62,7.75,3.76l-.67,1.22c-1.67-1.18-5.07-2.89-7.69-3.93l.61-1.04Z"/><path d="M354.8,46.78v16.53h-1.39v-.87h-13.03v.87h-1.35v-16.53h15.77Zm-1.39,14.38v-13.09h-13.03v13.09h13.03Zm-6.44-2.89c-1.98,.38-3.99,.78-5.55,1.06l-.19-1.06c1.44-.23,3.55-.61,5.68-.99l.06,.99Zm4.71-5.53c-.47,1.79-1.2,3.34-2.11,4.65,.4,1.01,.91,1.65,1.54,1.75,.27,.08,.46-.74,.59-1.96,.23,.23,.65,.51,.91,.63-.25,2.07-.89,2.83-1.88,2.45-.84-.17-1.46-.84-1.98-1.84-.74,.85-1.58,1.58-2.51,2.18-.17-.23-.59-.68-.84-.89,1.12-.65,2.07-1.48,2.87-2.49-.51-1.5-.82-3.46-1.04-5.6h-5.81v-1.06h5.72c-.06-.66-.11-1.33-.15-2.01h1.22c.04,.68,.08,1.35,.11,2.01h4.14v1.06h-4.05c.15,1.63,.38,3.15,.7,4.37,.61-1.03,1.08-2.2,1.41-3.5l1.16,.25Zm-5.39,.08v3.69h-4.2v-3.69h4.2Zm-1.03,.89h-2.18v1.9h2.18v-1.9Zm6.04-3.36c-.42-.42-1.29-1.01-2.03-1.33l.67-.7c.74,.34,1.61,.85,2.05,1.29l-.68,.74Z"/></g><g><path d="M571.89,342.07c1.84,1.62,4.03,3.93,5.01,5.51l-1.2,.85c-.29-.49-.68-1.04-1.16-1.63-10.85,.61-11.95,.65-12.69,.91-.06-.3-.3-1.01-.46-1.39,.42-.08,.91-.49,1.54-1.12,.68-.61,2.89-3,4.37-5.36l1.39,.63c-1.5,2.05-3.19,4.01-4.86,5.58l9.69-.48c-.87-.99-1.84-1.97-2.75-2.79l1.12-.72Zm-9.02,7.24h12.08v7.9h-1.48v-.99h-9.18v1.03h-1.42v-7.94Zm1.42,1.35v4.2h9.18v-4.2h-9.18Z"/><path d="M581.89,348.13c-.55-.61-1.75-1.46-2.72-2l.8-.95c.99,.47,2.18,1.29,2.77,1.88l-.85,1.06Zm-2.36,8.17c.68-1.46,1.67-3.91,2.37-6.04l1.1,.74c-.63,1.98-1.46,4.29-2.2,6.02l-1.27-.72Zm2.68-13.09c-.51-.63-1.67-1.52-2.62-2.11l.82-.93c.95,.53,2.13,1.39,2.66,2.01l-.85,1.03Zm2.11,3.7c-.19,.93-.47,1.96-.84,2.62-.15-.13-.51-.36-.7-.46,.36-.68,.57-1.52,.72-2.36l.82,.19Zm2.55-.76c-.06-.17-.13-.38-.23-.59-2.58,.36-3.02,.46-3.29,.59-.04-.17-.21-.55-.32-.74,.29-.04,.55-.29,.87-.67,.21-.19,.68-.74,1.18-1.42-1.23,.11-1.56,.19-1.75,.27-.06-.17-.21-.55-.32-.72,.21-.04,.38-.21,.59-.48,.17-.27,.87-1.35,1.16-2.36l.89,.32c-.32,.8-.82,1.6-1.27,2.22l1.25-.08c.19-.29,.36-.57,.51-.86l.86,.36c-.67,1.08-1.48,2.17-2.34,3.04l1.67-.21c-.11-.23-.25-.42-.36-.63l.72-.25c.38,.59,.76,1.39,.91,1.88l-.74,.3Zm8.81,7.31s-.02,.4-.08,.57c-.36,1.63-.74,2.47-1.25,2.85-.4,.28-.8,.36-1.42,.36-.57,.02-1.71,0-2.91-.08-.04-.32-.19-.78-.4-1.08,1.22,.11,2.45,.13,2.93,.13,.42,0,.61-.02,.8-.15,.32-.21,.57-.7,.82-1.63h-9.99c.3-.8,.59-1.9,.82-2.83h8.57v-.99h-9.25v-.91h10.56v2.81h-8.79c-.08,.32-.17,.65-.27,.95h9.88Zm-10.54-4.26c-.02-.61-.19-1.6-.42-2.34l.74-.19c.25,.74,.44,1.67,.46,2.26l-.78,.27Zm1.69-2.83c.3,.66,.59,1.52,.68,2.03l-.72,.32c-.08-.55-.36-1.42-.67-2.13l.7-.23Zm5.05-3.71h-4.56v-.87h2.01c-.13-.46-.48-1.06-.74-1.5l.97-.25c.3,.44,.65,1.1,.82,1.5l-.83,.25h2.34v.87Zm-4.05,3.55h3.57v2.79h-3.57v-2.79Zm3.55-2.09h-3.5v-.8h3.5v.8Zm-3.5,.61h3.5v.78h-3.5v-.78Zm.87,3.5h1.67v-1.25h-1.67v1.25Zm4.35-1.41c-.17,.93-.48,1.92-.82,2.62-.15-.13-.53-.38-.74-.49,.38-.67,.59-1.5,.74-2.32l.82,.19Zm2.62-.63c-.06-.21-.15-.44-.27-.7-2.6,.36-3.08,.47-3.32,.57-.06-.13-.21-.53-.32-.74,.29-.04,.55-.27,.89-.63,.21-.21,.67-.76,1.18-1.44-1.25,.13-1.58,.19-1.77,.28-.06-.17-.21-.55-.32-.74,.23-.02,.36-.19,.57-.47,.21-.27,.87-1.33,1.18-2.34l.89,.32c-.32,.78-.8,1.58-1.27,2.2l1.25-.08c.19-.29,.36-.57,.51-.85l.87,.38c-.67,1.06-1.5,2.13-2.34,3.02l1.65-.21c-.11-.23-.23-.42-.34-.61l.68-.27c.42,.63,.84,1.46,.99,2l-.72,.3Zm-1.79,3.15c-.02-.65-.21-1.71-.48-2.53l.76-.19c.27,.82,.46,1.84,.48,2.47l-.76,.25Zm1.65-3.04c.4,.78,.72,1.79,.82,2.39l-.72,.34c-.09-.66-.42-1.69-.78-2.49l.68-.25Z"/></g></g></svg>