<svg xmlns="http://www.w3.org/2000/svg" viewBox="0 0 800 480"><defs><style>.a{fill:none;stroke:gray;stroke-miterlimit:10;}.b{fill:#98d5f4;}.c{fill:#0071bc;}.d{font-size:23px;fill:#4d4d4d;}.d,.e{font-family:NotoSans-ExtraBold, Noto Sans;font-weight:800;}.e{font-size:26px;}.f{font-size:19px;font-family:SourceHanSansTW-Regular-B5pc-H, Source Han Sans TW;}</style></defs><line class="a" x1="185" y1="421.65" x2="618" y2="421.65"/><rect class="b" x="206.27" y="240.15" width="75.43" height="46.77"/><rect class="b" x="311.04" y="201.35" width="75.43" height="68.86"/><rect class="b" x="415.8" y="164.57" width="75.43" height="100.26"/><rect class="b" x="520.57" y="130" width="75.43" height="120.72"/><rect class="c" x="206.27" y="286.92" width="75.43" height="134.64"/><rect class="c" x="311.04" y="270.21" width="75.43" height="151.35"/><rect class="c" x="415.8" y="264.83" width="75.43" height="156.73"/><rect class="c" x="520.57" y="250.72" width="75.43" height="170.85"/><text class="d" transform="translate(217.15 456.41)">2017</text><text class="d" transform="translate(322.15 456.41)">2018</text><text class="d" transform="translate(427.15 456.41)">2019</text><text class="d" transform="translate(532.15 456.41)">2020</text><text class="e" transform="translate(419.83 150.41)">2,676</text><text class="e" transform="translate(528.68 114.41)">3036</text><text class="e" transform="translate(314.83 186.41)">2,293</text><text class="e" transform="translate(209.83 225.41)">1,889</text><rect class="b" x="64" y="34" width="14" height="14"/><rect class="c" x="64" y="71" width="14" height="14"/><text class="f" transform="translate(87.98 48.22)">進行中<tspan x="0" y="36">已獲得</tspan></text></svg>