<?xml version="1.0" encoding="UTF-8"?>
<svg id="Layer_2" data-name="Layer 2" xmlns="http://www.w3.org/2000/svg" viewBox="0 0 87.87 51.9">
  <defs>
    <style>
      .cls-1, .cls-2 {
        stroke-width: 0px;
      }

      .cls-2 {
        fill: #fe3b1f;
      }
    </style>
  </defs>
  <g id="_图层_1" data-name="图层 1">
    <g>
      <path class="cls-1" d="m76.54,7.26c-6.26,0-11.34,5.08-11.34,11.34s5.08,11.34,11.34,11.34,11.34-5.08,11.34-11.34-5.08-11.34-11.34-11.34Zm0,18.43c-3.91,0-7.09-3.17-7.09-7.09s3.17-7.09,7.09-7.09,7.09,3.17,7.09,7.09-3.17,7.09-7.09,7.09Z"/>
      <path class="cls-1" d="m19.13,7.26v3.12c-2.03-1.93-4.77-3.12-7.8-3.12C5.08,7.26,0,12.34,0,18.6s5.08,11.34,11.34,11.34c3.02,0,5.76-1.19,7.8-3.12v3.12h4.25V7.26h-4.25Zm-7.8,18.43c-3.91,0-7.09-3.17-7.09-7.09s3.17-7.09,7.09-7.09,7.09,3.17,7.09,7.09-3.17,7.09-7.09,7.09Z"/>
      <rect class="cls-1" x="28.42" y="7.26" width="4.25" height="22.68"/>
      <rect class="cls-2" x="28.42" y=".88" width="4.25" height="4.25" transform="translate(6.82 22.48) rotate(-45)"/>
      <path class="cls-1" d="m55.52,28.04c3.06-2.03,5.07-5.5,5.07-9.45,0-2.68-.94-5.15-2.5-7.09h2.5v-4.25h-11.34c-6.26,0-11.34,5.08-11.34,11.34,0,3.94,2.02,7.42,5.07,9.45-3.87,2.19-6.49,6.34-6.49,11.1h4.25c0-4.7,3.81-8.5,8.5-8.5s8.5,3.81,8.5,8.5-3.81,8.5-8.5,8.5v4.25c7.04,0,12.76-5.71,12.76-12.76,0-4.77-2.62-8.91-6.49-11.1Zm-6.27-2.36c-3.91,0-7.09-3.17-7.09-7.09s3.17-7.09,7.09-7.09,7.09,3.17,7.09,7.09-3.17,7.09-7.09,7.09Z"/>
    </g>
  </g>
</svg>